<?xml version="1.0" encoding="UTF-8" standalone="no"?>
<!-- Created with Inkscape (http://www.inkscape.org/) -->

<svg
   width="264.58331mm"
   height="176.38889mm"
   viewBox="0 0 264.58331 176.38889"
   version="1.1"
   id="svg5"
   xmlns="http://www.w3.org/2000/svg"
   xmlns:svg="http://www.w3.org/2000/svg">
  <defs
     id="defs2">
    <linearGradient
       x1="0"
       y1="0"
       x2="1"
       y2="0"
       gradientUnits="userSpaceOnUse"
       gradientTransform="matrix(-386.43988,0,0,386.43988,274.71048,111.95951)"
       spreadMethod="pad"
       id="linearGradient35">
      <stop
         style="stop-opacity:1;stop-color:#fe5f98"
         offset="0"
         id="stop31" />
      <stop
         style="stop-opacity:1;stop-color:#4a2abb"
         offset="1"
         id="stop33" />
    </linearGradient>
    <clipPath
       clipPathUnits="userSpaceOnUse"
       id="clipPath45">
      <path
         d="m 649.891,203.507 c -22.924,-23.738 -36.192,-56.519 -65.225,-73.295 v 0 c -20.755,-11.993 -46.342,-13.697 -70.663,-12.689 v 0 c -24.319,1.008 -50.228,2.424 -74.52,1.304 v 0 C 335.481,114.037 294.004,32.768 281.457,0 V 0 H 750 v 241.753 c -1.585,0.053 -3.174,0.08 -4.76,0.08 v 0 c -35.563,0.001 -71.337,-13.46 -95.349,-38.326"
         id="path43" />
    </clipPath>
    <linearGradient
       x1="0"
       y1="0"
       x2="1"
       y2="0"
       gradientUnits="userSpaceOnUse"
       gradientTransform="matrix(48.792305,-107.98306,-107.98306,-48.792305,485.57657,183.04683)"
       spreadMethod="pad"
       id="linearGradient59">
      <stop
         style="stop-opacity:0.50000763;stop-color:#ffffff"
         offset="0"
         id="stop55" />
      <stop
         style="stop-opacity:1;stop-color:#ffffff"
         offset="1"
         id="stop57" />
    </linearGradient>
    <mask
       maskUnits="userSpaceOnUse"
       x="0"
       y="0"
       width="1"
       height="1"
       id="mask61">
      <g
         id="g71">
        <g
           id="g69">
          <g
             id="g67">
            <g
               id="g65">
              <path
                 d="M -32768,32767 H 32767 V -32768 H -32768 Z"
                 style="fill:url(#linearGradient59);stroke:none"
                 id="path63" />
            </g>
          </g>
        </g>
      </g>
    </mask>
    <linearGradient
       x1="0"
       y1="0"
       x2="1"
       y2="0"
       gradientUnits="userSpaceOnUse"
       gradientTransform="matrix(48.792305,-107.98306,-107.98306,-48.792305,485.57657,183.04683)"
       spreadMethod="pad"
       id="linearGradient81">
      <stop
         style="stop-opacity:1;stop-color:#4a2abb"
         offset="0"
         id="stop77" />
      <stop
         style="stop-opacity:1;stop-color:#301a60"
         offset="1"
         id="stop79" />
    </linearGradient>
    <linearGradient
       x1="0"
       y1="0"
       x2="1"
       y2="0"
       gradientUnits="userSpaceOnUse"
       gradientTransform="matrix(27.611013,-74.651886,-74.651886,-27.611013,545.42883,138.41878)"
       spreadMethod="pad"
       id="linearGradient101">
      <stop
         style="stop-opacity:1;stop-color:#4a2abb"
         offset="0"
         id="stop97" />
      <stop
         style="stop-opacity:1;stop-color:#301a60"
         offset="1"
         id="stop99" />
    </linearGradient>
    <clipPath
       clipPathUnits="userSpaceOnUse"
       id="clipPath111">
      <path
         d="M 724.47,184.565 C 714,169.676 706.029,153.069 689.747,141.769 v 0 c -20.351,-14.126 -49.468,-17.093 -76.699,-18.41 v 0 c -27.231,-1.317 -55.894,-1.926 -79.309,-12.811 v 0 c -13.91,-6.466 -25.982,-16.621 -38.523,-25.204 v 0 C 469.207,67.548 440.414,68.271 411.298,68.995 v 0 c -10.988,0.274 -22.022,0.546 -32.97,-0.176 v 0 C 330.587,65.67 308.629,18.458 301.836,0 V 0 H 750 v 208.919 c -10.613,-6.108 -19.097,-15.209 -25.53,-24.354"
         id="path109" />
    </clipPath>
    <linearGradient
       x1="0"
       y1="0"
       x2="1"
       y2="0"
       gradientUnits="userSpaceOnUse"
       gradientTransform="matrix(353.85635,33.89423,33.89423,-353.85635,395.92477,67.898186)"
       spreadMethod="pad"
       id="linearGradient125">
      <stop
         style="stop-opacity:0.6;stop-color:#ffffff"
         offset="0"
         id="stop121" />
      <stop
         style="stop-opacity:1;stop-color:#ffffff"
         offset="1"
         id="stop123" />
    </linearGradient>
    <mask
       maskUnits="userSpaceOnUse"
       x="0"
       y="0"
       width="1"
       height="1"
       id="mask127">
      <g
         id="g137">
        <g
           id="g135">
          <g
             id="g133">
            <g
               id="g131">
              <path
                 d="M -32768,32767 H 32767 V -32768 H -32768 Z"
                 style="fill:url(#linearGradient125);stroke:none"
                 id="path129" />
            </g>
          </g>
        </g>
      </g>
    </mask>
    <linearGradient
       x1="0"
       y1="0"
       x2="1"
       y2="0"
       gradientUnits="userSpaceOnUse"
       gradientTransform="matrix(353.85635,33.89423,33.89423,-353.85635,395.92477,67.898186)"
       spreadMethod="pad"
       id="linearGradient147">
      <stop
         style="stop-opacity:1;stop-color:#4a2abb"
         offset="0"
         id="stop143" />
      <stop
         style="stop-opacity:1;stop-color:#301a60"
         offset="1"
         id="stop145" />
    </linearGradient>
    <linearGradient
       x1="0"
       y1="0"
       x2="1"
       y2="0"
       gradientUnits="userSpaceOnUse"
       gradientTransform="matrix(17.067558,-71.890877,-71.890877,-17.067558,560.84607,130.53543)"
       spreadMethod="pad"
       id="linearGradient167">
      <stop
         style="stop-opacity:1;stop-color:#4a2abb"
         offset="0"
         id="stop163" />
      <stop
         style="stop-opacity:1;stop-color:#301a60"
         offset="1"
         id="stop165" />
    </linearGradient>
    <linearGradient
       x1="0"
       y1="0"
       x2="1"
       y2="0"
       gradientUnits="userSpaceOnUse"
       gradientTransform="matrix(-48.792313,107.98308,107.98308,48.792313,259.55624,322.36322)"
       spreadMethod="pad"
       id="linearGradient187">
      <stop
         style="stop-opacity:1;stop-color:#4a2abb"
         offset="0"
         id="stop183" />
      <stop
         style="stop-opacity:1;stop-color:#301a60"
         offset="1"
         id="stop185" />
    </linearGradient>
    <linearGradient
       x1="0"
       y1="0"
       x2="1"
       y2="0"
       gradientUnits="userSpaceOnUse"
       gradientTransform="matrix(-27.611013,74.651886,74.651886,27.611013,199.70398,366.99133)"
       spreadMethod="pad"
       id="linearGradient207">
      <stop
         style="stop-opacity:1;stop-color:#4a2abb"
         offset="0"
         id="stop203" />
      <stop
         style="stop-opacity:1;stop-color:#301a60"
         offset="1"
         id="stop205" />
    </linearGradient>
    <clipPath
       clipPathUnits="userSpaceOnUse"
       id="clipPath217">
      <path
         d="M 0,500 V 299.596 c 8.374,5.878 15.246,13.548 20.662,21.249 v 0 c 10.472,14.889 18.442,31.496 34.724,42.796 v 0 c 20.352,14.127 49.467,17.093 76.698,18.41 v 0 c 27.231,1.317 55.895,1.926 79.311,12.811 v 0 c 13.908,6.466 25.981,16.622 38.522,25.203 v 0 c 26.008,17.796 54.801,17.072 83.918,16.349 v 0 c 10.988,-0.273 22.022,-0.546 32.97,0.177 v 0 c 43.597,2.876 65.693,42.496 74.374,63.409 v 0 z"
         id="path215" />
    </clipPath>
    <linearGradient
       x1="0"
       y1="0"
       x2="1"
       y2="0"
       gradientUnits="userSpaceOnUse"
       gradientTransform="matrix(-353.85635,-33.89423,-33.89423,353.85635,349.20798,437.5119)"
       spreadMethod="pad"
       id="linearGradient231">
      <stop
         style="stop-opacity:0.6;stop-color:#ffffff"
         offset="0"
         id="stop227" />
      <stop
         style="stop-opacity:1;stop-color:#ffffff"
         offset="1"
         id="stop229" />
    </linearGradient>
    <mask
       maskUnits="userSpaceOnUse"
       x="0"
       y="0"
       width="1"
       height="1"
       id="mask233">
      <g
         id="g243">
        <g
           id="g241">
          <g
             id="g239">
            <g
               id="g237">
              <path
                 d="M -32768,32767 H 32767 V -32768 H -32768 Z"
                 style="fill:url(#linearGradient231);stroke:none"
                 id="path235" />
            </g>
          </g>
        </g>
      </g>
    </mask>
    <linearGradient
       x1="0"
       y1="0"
       x2="1"
       y2="0"
       gradientUnits="userSpaceOnUse"
       gradientTransform="matrix(-353.85635,-33.89423,-33.89423,353.85635,349.20798,437.5119)"
       spreadMethod="pad"
       id="linearGradient253">
      <stop
         style="stop-opacity:1;stop-color:#4a2abb"
         offset="0"
         id="stop249" />
      <stop
         style="stop-opacity:1;stop-color:#301a60"
         offset="1"
         id="stop251" />
    </linearGradient>
    <linearGradient
       x1="0"
       y1="0"
       x2="1"
       y2="0"
       gradientUnits="userSpaceOnUse"
       gradientTransform="matrix(-17.067558,71.890877,71.890877,17.067558,184.28673,374.87466)"
       spreadMethod="pad"
       id="linearGradient273">
      <stop
         style="stop-opacity:1;stop-color:#4a2abb"
         offset="0"
         id="stop269" />
      <stop
         style="stop-opacity:1;stop-color:#301a60"
         offset="1"
         id="stop271" />
    </linearGradient>
    <clipPath
       clipPathUnits="userSpaceOnUse"
       id="clipPath283">
      <path
         d="M 0,0 H 750 V 500 H 0 Z"
         id="path281" />
    </clipPath>
    <clipPath
       clipPathUnits="userSpaceOnUse"
       id="clipPath291">
      <path
         d="M 13.0309,190.386 H 191.75 V 11.667 H 13.0309 Z"
         id="path289" />
    </clipPath>
    <linearGradient
       x1="0"
       y1="0"
       x2="1"
       y2="0"
       gradientUnits="userSpaceOnUse"
       gradientTransform="matrix(0,-200.50255,-200.50255,0,102.39024,200.07712)"
       spreadMethod="pad"
       id="linearGradient303">
      <stop
         style="stop-opacity:1;stop-color:#fee26c"
         offset="0"
         id="stop297" />
      <stop
         style="stop-opacity:1;stop-color:#fe5f98"
         offset="0.933559"
         id="stop299" />
      <stop
         style="stop-opacity:1;stop-color:#fe5f98"
         offset="1"
         id="stop301" />
    </linearGradient>
    <clipPath
       clipPathUnits="userSpaceOnUse"
       id="clipPath325">
      <path
         d="M 592.187,471.307 H 719.845 V 343.649 H 592.187 Z"
         id="path323" />
    </clipPath>
    <linearGradient
       x1="0"
       y1="0"
       x2="1"
       y2="0"
       gradientUnits="userSpaceOnUse"
       gradientTransform="matrix(0,147.06197,147.06197,0,656.01562,322.32166)"
       spreadMethod="pad"
       id="linearGradient335">
      <stop
         style="stop-opacity:1;stop-color:#fe5f98"
         offset="0"
         id="stop331" />
      <stop
         style="stop-opacity:1;stop-color:#4a2abb"
         offset="1"
         id="stop333" />
    </linearGradient>
    <clipPath
       clipPathUnits="userSpaceOnUse"
       id="clipPath357">
      <path
         d="M -48.7184,245.739 H 162.644 V 57.7885 H -48.7184 Z"
         id="path355" />
    </clipPath>
    <clipPath
       clipPathUnits="userSpaceOnUse"
       id="clipPath361">
      <path
         d="m 102.49,79.488 c 52.658,33.169 74.962,92.418 49.818,132.334 C 127.164,251.74 64.093,257.209 11.436,224.04 -41.222,190.87 -63.526,131.621 -38.382,91.705 -13.238,51.788 49.834,46.318 102.49,79.488"
         id="path359" />
    </clipPath>
    <radialGradient
       fx="0"
       fy="0"
       cx="0"
       cy="0"
       r="1"
       gradientUnits="userSpaceOnUse"
       gradientTransform="matrix(-95.343605,-60.061626,-45.525139,72.276787,56.962967,151.7637)"
       spreadMethod="pad"
       id="radialGradient373">
      <stop
         style="stop-opacity:1;stop-color:#ffffff"
         offset="0"
         id="stop367" />
      <stop
         style="stop-opacity:1;stop-color:#ffffff"
         offset="0.41487276"
         id="stop369" />
      <stop
         style="stop-opacity:0;stop-color:#ffffff"
         offset="1"
         id="stop371" />
    </radialGradient>
    <mask
       maskUnits="userSpaceOnUse"
       x="0"
       y="0"
       width="1"
       height="1"
       id="mask375">
      <g
         id="g385">
        <g
           id="g383">
          <g
             id="g381">
            <g
               id="g379">
              <path
                 d="M -32768,32767 H 32767 V -32768 H -32768 Z"
                 style="fill:url(#radialGradient373);stroke:none"
                 id="path377" />
            </g>
          </g>
        </g>
      </g>
    </mask>
    <radialGradient
       fx="0"
       fy="0"
       cx="0"
       cy="0"
       r="1"
       gradientUnits="userSpaceOnUse"
       gradientTransform="matrix(-95.343605,-60.061626,-45.525139,72.276787,56.962967,151.7637)"
       spreadMethod="pad"
       id="radialGradient393">
      <stop
         style="stop-opacity:1;stop-color:#f5ba77"
         offset="0"
         id="stop387" />
      <stop
         style="stop-opacity:1;stop-color:#f5ba77"
         offset="0.41487276"
         id="stop389" />
      <stop
         style="stop-opacity:1;stop-color:#000000"
         offset="1"
         id="stop391" />
    </radialGradient>
    <clipPath
       clipPathUnits="userSpaceOnUse"
       id="clipPath419">
      <path
         d="m 573.949,465.239 h 188.8 v -188.8 h -188.8 z"
         id="path417" />
    </clipPath>
    <clipPath
       clipPathUnits="userSpaceOnUse"
       id="clipPath423">
      <path
         d="m 762.749,370.839 c 0,-52.136 -42.264,-94.401 -94.399,-94.401 -52.136,0 -94.401,42.265 -94.401,94.401 0,52.136 42.265,94.4 94.401,94.4 52.135,0 94.399,-42.264 94.399,-94.4"
         id="path421" />
    </clipPath>
    <radialGradient
       fx="0"
       fy="0"
       cx="0"
       cy="0"
       r="1"
       gradientUnits="userSpaceOnUse"
       gradientTransform="matrix(-93.340523,-14.104429,-14.104429,93.340523,668.3493,370.83865)"
       spreadMethod="pad"
       id="radialGradient437">
      <stop
         style="stop-opacity:1;stop-color:#ffffff"
         offset="0"
         id="stop429" />
      <stop
         style="stop-opacity:0;stop-color:#ffffff"
         offset="0.56544683"
         id="stop431" />
      <stop
         style="stop-opacity:0;stop-color:#ffffff"
         offset="0.892473"
         id="stop433" />
      <stop
         style="stop-opacity:0;stop-color:#ffffff"
         offset="1"
         id="stop435" />
    </radialGradient>
    <mask
       maskUnits="userSpaceOnUse"
       x="0"
       y="0"
       width="1"
       height="1"
       id="mask439">
      <g
         id="g449">
        <g
           id="g447">
          <g
             id="g445">
            <g
               id="g443">
              <path
                 d="M -32768,32767 H 32767 V -32768 H -32768 Z"
                 style="fill:url(#radialGradient437);stroke:none"
                 id="path441" />
            </g>
          </g>
        </g>
      </g>
    </mask>
    <radialGradient
       fx="0"
       fy="0"
       cx="0"
       cy="0"
       r="1"
       gradientUnits="userSpaceOnUse"
       gradientTransform="matrix(-93.340523,-14.104429,-14.104429,93.340523,668.3493,370.83865)"
       spreadMethod="pad"
       id="radialGradient459">
      <stop
         style="stop-opacity:1;stop-color:#c223a0"
         offset="0"
         id="stop451" />
      <stop
         style="stop-opacity:1;stop-color:#c223a0"
         offset="0.56544683"
         id="stop453" />
      <stop
         style="stop-opacity:1;stop-color:#c223a0"
         offset="0.892473"
         id="stop455" />
      <stop
         style="stop-opacity:1;stop-color:#c223a0"
         offset="1"
         id="stop457" />
    </radialGradient>
    <linearGradient
       x1="0"
       y1="0"
       x2="1"
       y2="0"
       gradientUnits="userSpaceOnUse"
       gradientTransform="matrix(0,45.798065,45.798065,0,165.28345,322.47473)"
       spreadMethod="pad"
       id="linearGradient495">
      <stop
         style="stop-opacity:1;stop-color:#4a2abb"
         offset="0"
         id="stop491" />
      <stop
         style="stop-opacity:1;stop-color:#301a60"
         offset="1"
         id="stop493" />
    </linearGradient>
    <linearGradient
       x1="0"
       y1="0"
       x2="1"
       y2="0"
       gradientUnits="userSpaceOnUse"
       gradientTransform="matrix(0,45.798065,45.798065,0,268.51245,309.40546)"
       spreadMethod="pad"
       id="linearGradient517">
      <stop
         style="stop-opacity:1;stop-color:#fee26c"
         offset="0"
         id="stop511" />
      <stop
         style="stop-opacity:1;stop-color:#fe5f98"
         offset="0.933559"
         id="stop513" />
      <stop
         style="stop-opacity:1;stop-color:#fe5f98"
         offset="1"
         id="stop515" />
    </linearGradient>
    <linearGradient
       x1="0"
       y1="0"
       x2="1"
       y2="0"
       gradientUnits="userSpaceOnUse"
       gradientTransform="matrix(0,45.798065,45.798065,0,221.05005,451.35995)"
       spreadMethod="pad"
       id="linearGradient537">
      <stop
         style="stop-opacity:1;stop-color:#fe5f98"
         offset="0"
         id="stop533" />
      <stop
         style="stop-opacity:1;stop-color:#4a2abb"
         offset="1"
         id="stop535" />
    </linearGradient>
    <linearGradient
       x1="0"
       y1="0"
       x2="1"
       y2="0"
       gradientUnits="userSpaceOnUse"
       gradientTransform="matrix(0,45.798065,45.798065,0,699.35223,131.61014)"
       spreadMethod="pad"
       id="linearGradient557">
      <stop
         style="stop-opacity:1;stop-color:#fe5f98"
         offset="0"
         id="stop553" />
      <stop
         style="stop-opacity:1;stop-color:#4a2abb"
         offset="1"
         id="stop555" />
    </linearGradient>
    <linearGradient
       x1="0"
       y1="0"
       x2="1"
       y2="0"
       gradientUnits="userSpaceOnUse"
       gradientTransform="matrix(0,45.798065,45.798065,0,564.59943,32.687744)"
       spreadMethod="pad"
       id="linearGradient579">
      <stop
         style="stop-opacity:1;stop-color:#fee26c"
         offset="0"
         id="stop573" />
      <stop
         style="stop-opacity:1;stop-color:#fe5f98"
         offset="0.933559"
         id="stop575" />
      <stop
         style="stop-opacity:1;stop-color:#fe5f98"
         offset="1"
         id="stop577" />
    </linearGradient>
    <clipPath
       clipPathUnits="userSpaceOnUse"
       id="clipPath589">
      <path
         d="M 0,0 H 750 V 500 H 0 Z"
         id="path587" />
    </clipPath>
    <linearGradient
       x1="0"
       y1="0"
       x2="1"
       y2="0"
       gradientUnits="userSpaceOnUse"
       gradientTransform="matrix(0,-58.8798,58.8798,0,-28.9401,529.4398)"
       spreadMethod="pad"
       id="linearGradient597">
      <stop
         style="stop-opacity:1;stop-color:#fe5f98"
         offset="0"
         id="stop593" />
      <stop
         style="stop-opacity:1;stop-color:#4a2abb"
         offset="1"
         id="stop595" />
    </linearGradient>
    <linearGradient
       x1="0"
       y1="0"
       x2="1"
       y2="0"
       gradientUnits="userSpaceOnUse"
       gradientTransform="matrix(0,-33.6184,33.6184,0,592.585,885.2951)"
       spreadMethod="pad"
       id="linearGradient607">
      <stop
         style="stop-opacity:1;stop-color:#fe5f98"
         offset="0"
         id="stop603" />
      <stop
         style="stop-opacity:1;stop-color:#4a2abb"
         offset="1"
         id="stop605" />
    </linearGradient>
    <linearGradient
       x1="0"
       y1="0"
       x2="1"
       y2="0"
       gradientUnits="userSpaceOnUse"
       gradientTransform="matrix(9.6808,0,0,9.6808,386.804,780.2038)"
       spreadMethod="pad"
       id="linearGradient619">
      <stop
         style="stop-opacity:1;stop-color:#fee26c"
         offset="0"
         id="stop613" />
      <stop
         style="stop-opacity:1;stop-color:#fe5f98"
         offset="0.933559"
         id="stop615" />
      <stop
         style="stop-opacity:1;stop-color:#fe5f98"
         offset="1"
         id="stop617" />
    </linearGradient>
    <linearGradient
       x1="0"
       y1="0"
       x2="1"
       y2="0"
       gradientUnits="userSpaceOnUse"
       gradientTransform="matrix(94.7205,0,0,94.7205,533.209,441.4038)"
       spreadMethod="pad"
       id="linearGradient631">
      <stop
         style="stop-opacity:1;stop-color:#fee26c"
         offset="0"
         id="stop625" />
      <stop
         style="stop-opacity:1;stop-color:#fe5f98"
         offset="0.933559"
         id="stop627" />
      <stop
         style="stop-opacity:1;stop-color:#fe5f98"
         offset="1"
         id="stop629" />
    </linearGradient>
    <linearGradient
       x1="0"
       y1="0"
       x2="1"
       y2="0"
       gradientUnits="userSpaceOnUse"
       gradientTransform="matrix(0,-33.1957,33.1957,0,-41.4929,921.4691)"
       spreadMethod="pad"
       id="linearGradient641">
      <stop
         style="stop-opacity:1;stop-color:#fe5f98"
         offset="0"
         id="stop637" />
      <stop
         style="stop-opacity:1;stop-color:#4a2abb"
         offset="1"
         id="stop639" />
    </linearGradient>
  </defs>
  <g
     id="layer1"
     transform="translate(20.845949,-139.2227)">
    <g
       id="g15"
       transform="matrix(0.35277777,0,0,-0.35277777,-20.845949,315.61159)">
      <path
         d="M 0,0 H 750 V 500 H 0 Z"
         style="fill:#26214f;fill-opacity:1;fill-rule:nonzero;stroke:none"
         id="path17" />
      <g
         id="g19">
        <g
           id="g21">
          <g
             id="g27">
            <g
               id="g29">
              <path
                 d="m 234.151,240.581 c -4.316,0 -9.003,-0.54 -14.078,-1.619 v 0 c -7.332,-1.557 -14.694,-8.018 -22.489,-14.858 v 0 c -15.589,-13.683 -33.257,-29.192 -58.195,-14.185 v 0 c -14.585,8.776 -29.882,10.876 -44.233,6.077 v 0 c -17.615,-5.892 -33.2,-21.968 -41.69,-43.003 v 0 c -2.836,-7.028 -6.157,-12.219 -9.955,-16.074 v 0 c -0.946,-0.375 -1.905,-0.749 -2.872,-1.12 v 0 c -1.211,-0.443 -2.441,-0.879 -3.688,-1.314 v 0 c -2.112,-0.696 -4.271,-1.377 -6.486,-2.047 v 0 c -1.714,-0.48 -3.458,-0.954 -5.241,-1.422 v 0 c -1.664,-0.4 -3.361,-0.794 -5.091,-1.188 v 0 c -1.579,-0.322 -3.187,-0.641 -4.825,-0.963 v 0 c -1.541,-0.264 -3.109,-0.53 -4.705,-0.8 v 0 c -0.589,-0.084 -1.177,-0.169 -1.773,-0.254 v 0 c -0.914,-0.131 -1.841,-0.264 -2.776,-0.4 v 0 c -1.451,-0.173 -2.929,-0.35 -4.433,-0.536 v 0 C 1.084,146.822 0.544,146.769 0,146.715 v 0 -3.427 c 1.546,0.418 3.073,0.828 4.578,1.232 v 0 C 3.072,144.086 1.55,143.649 0,143.202 v 0 -0.737 c 3.274,0.94 6.446,1.853 9.524,2.745 v 0 H 9.527 C 6.442,144.252 3.269,143.283 0,142.297 v 0 -0.742 c 4.221,1.272 8.284,2.516 12.199,3.744 v 0 c 0.082,0.003 0.165,0.007 0.247,0.01 v 0 C 8.449,143.979 4.306,142.648 0,141.308 v 0 -0.741 c 5.259,1.634 10.275,3.256 15.077,4.877 v 0 c 0.147,0.009 0.291,0.021 0.436,0.03 v 0 C 10.596,143.723 5.435,141.985 0,140.267 v 0 -0.743 c 6.442,2.031 12.499,4.092 18.221,6.17 v 0 c 0.186,0.016 0.372,0.032 0.556,0.051 v 0 C 12.887,143.497 6.646,141.301 0,139.203 v 0 -0.748 c 7.727,2.435 14.91,5.004 21.629,7.631 v 0 c 0.296,0.041 0.589,0.085 0.882,0.13 v 0 C 15.543,143.353 8.067,140.605 0,138.115 v 0 -0.744 c 9.347,2.876 17.9,6.098 25.794,9.443 v 0 c 0.48,0.102 0.958,0.208 1.428,0.323 v 0 C 18.914,143.41 9.931,139.928 0,137.017 v 0 -0.736 c 12.072,3.523 22.746,7.888 32.508,12.515 v 0 c 1.607,0.63 3.161,1.365 4.656,2.233 v 0 c 0.281,0.14 0.557,0.292 0.836,0.437 v 0 c 2.006,1.002 3.976,2.009 5.914,3.018 v 0 C 31.141,147.477 16.955,140.607 0,136.011 v 0 -0.738 c 19.239,5.189 34.912,13.294 48.997,21.227 v 0 C 34.945,148.158 19.266,139.723 0,135.093 v 0 -0.73 c 21.396,5.113 38.373,14.888 53.597,24.064 v 0 C 38.426,148.781 21.438,138.613 0,134.32 v 0 -1.661 c 1.46,0.018 2.897,0.086 4.316,0.193 v 0 c 0.101,0 0.204,-0.003 0.305,-0.003 v 0 c 1.407,0 2.791,0.053 4.159,0.148 v 0 c 1.502,-0.026 2.98,0.013 4.437,0.11 v 0 c 21.794,-0.556 38.527,14.131 53.363,27.168 v 0 c 6.496,5.707 12.614,11.077 18.704,14.934 v 0 c 2.267,0.798 4.522,1.462 6.775,1.975 v 0 c 1.279,0.266 2.558,0.492 3.84,0.638 v 0 c 0.675,0.078 1.347,0.167 2.017,0.261 v 0 c 0.02,0.001 0.04,0.003 0.059,0.004 v 0 c 1.227,0.051 2.437,0.137 3.639,0.246 v 0 c 1.217,-0.009 2.422,0.009 3.61,0.059 v 0 c 1.24,-0.068 2.456,-0.095 3.661,-0.098 v 0 c 1.19,-0.116 2.365,-0.203 3.519,-0.255 v 0 c 1.265,-0.175 2.509,-0.313 3.728,-0.413 v 0 c 1.2,-0.209 2.376,-0.38 3.532,-0.516 v 0 c 16.314,-3.419 27.978,0.695 39.311,4.695 v 0 c 6.276,2.213 12.765,4.504 19.964,5.485 v 0 c 11.2,1.522 24.342,-3.743 30.568,-12.254 v 0 c 1.647,-2.252 2.668,-4.577 3.062,-6.875 v 0 c -0.553,-0.654 -1.148,-1.324 -1.796,-2.013 v 0 c -2.534,-2.61 -5.947,-5.444 -10.28,-8.538 v 0 c -4.974,-3.187 -11.245,-6.606 -18.886,-10.314 v 0 c -0.536,-0.135 -1.083,-0.267 -1.638,-0.398 v 0 c -1.395,-0.161 -2.763,-0.484 -4.111,-0.93 v 0 c -1.075,-0.207 -2.17,-0.408 -3.306,-0.602 v 0 c -1.113,-0.189 -2.205,-0.426 -3.289,-0.682 v 0 c -0.31,-0.041 -0.609,-0.086 -0.923,-0.126 v 0 c -2.004,-0.259 -3.942,-0.594 -5.839,-0.972 v 0 c -2.641,-0.266 -5.178,-0.578 -7.617,-0.931 v 0 c -53.437,-3.175 -61.742,-9.162 -77.809,-20.75 v 0 C 69.459,116.413 59.98,109.577 43.035,101.161 v 0 C 22.066,90.746 7.775,94.757 0,99.244 v 0 -0.816 c 7.999,-4.49 22.41,-8.303 43.351,2.097 v 0 c 16.998,8.442 26.502,15.297 34.139,20.805 v 0 c 15.186,10.951 23.39,16.868 70.032,20.138 v 0 c -2.097,-0.365 -4.156,-0.741 -6.188,-1.115 v 0 c -6.281,-1.155 -12.213,-2.246 -18.065,-2.701 v 0 C 98.396,135.721 89.983,129.076 78.338,119.88 v 0 c -0.654,-0.517 -1.318,-1.041 -1.996,-1.573 v 0 C 66.812,110.824 57.067,104.332 40.479,96.971 v 0 C 28.506,91.657 12.815,89.13 0,95.147 v 0 -0.735 c 2.929,-1.347 6.386,-2.458 10.42,-3.071 v 0 c 9.452,-1.436 19.664,0.24 30.347,4.982 v 0 c 17.636,7.827 27.731,14.922 36.014,21.425 v 0 c 0.678,0.534 1.343,1.057 1.996,1.574 v 0 c 11.547,9.12 19.89,15.708 44.546,17.623 v 0 c 5.889,0.456 11.84,1.551 18.14,2.711 v 0 c 4.331,0.795 8.755,1.608 13.499,2.293 v 0 c 0.201,0.012 0.406,0.023 0.607,0.035 v 0 c -2.169,-0.562 -4.294,-1.152 -6.392,-1.738 v 0 c -7.635,-2.131 -14.845,-4.144 -22.947,-4.348 v 0 c -26.28,-0.656 -35.139,-8.163 -47.4,-18.552 v 0 c -0.835,-0.709 -1.685,-1.428 -2.556,-2.159 v 0 C 66.489,106.975 56.222,100.021 37.923,92.779 v 0 C 26.75,88.358 12.385,86.445 0,91.297 v 0 -0.716 C 2.215,89.719 4.672,88.99 7.385,88.466 v 0 c 9.62,-1.854 19.986,-0.626 30.798,3.654 v 0 c 18.389,7.277 28.71,14.266 38.547,22.524 v 0 c 0.873,0.731 1.723,1.452 2.559,2.16 v 0 c 12.149,10.297 20.929,17.735 46.959,18.385 v 0 c 8.19,0.205 15.442,2.23 23.12,4.373 v 0 c 3.27,0.915 6.607,1.84 10.081,2.641 v 0 c 0.168,0.009 0.332,0.019 0.503,0.028 v 0 c 0.461,0.025 0.912,0.054 1.368,0.081 v 0 c -1.988,-0.698 -3.942,-1.438 -5.872,-2.17 v 0 c -7.97,-3.028 -16.22,-6.171 -26.26,-5.996 v 0 c -0.678,0.01 -1.345,0.015 -2.002,0.015 v 0 c -26.31,0 -35.962,-8.65 -48.104,-19.529 v 0 c -0.939,-0.841 -1.893,-1.696 -2.874,-2.565 v 0 C 65.956,102.991 55.087,95.523 35.366,88.588 v 0 C 21.534,83.723 9.495,84.288 0,87.579 v 0 -0.786 c 1.427,-0.483 2.894,-0.9 4.394,-1.247 v 0 c 9.787,-2.266 20.287,-1.469 31.208,2.372 v 0 c 19.829,6.974 30.762,14.485 41.077,23.619 v 0 c 0.981,0.869 1.937,1.724 2.876,2.567 v 0 c 12.33,11.047 22.051,19.793 49.622,19.332 v 0 c 10.174,-0.166 18.491,2.99 26.523,6.042 v 0 c 2.734,1.039 5.516,2.095 8.376,3.016 v 0 c 0.892,0.064 1.772,0.135 2.643,0.209 v 0 c -1.804,-0.808 -3.608,-1.68 -5.449,-2.574 v 0 c -8.438,-4.094 -17.162,-8.322 -29.127,-7.739 v 0 C 102.7,133.844 92.346,124.133 79.24,111.839 v 0 c -1.01,-0.946 -2.039,-1.911 -3.095,-2.889 v 0 C 65.017,98.653 53.886,90.953 32.809,84.395 v 0 C 20.248,80.487 9.126,80.934 0,83.744 v 0 -0.742 c 9.211,-2.793 20.401,-3.212 33.019,0.715 v 0 c 21.206,6.597 32.407,14.348 43.608,24.712 v 0 c 1.057,0.98 2.087,1.945 3.099,2.893 v 0 c 12.983,12.178 23.236,21.797 52.382,20.36 v 0 c 12.138,-0.601 20.953,3.674 29.472,7.808 v 0 c 2.507,1.216 4.947,2.398 7.405,3.422 v 0 c 0.099,0.01 0.198,0.02 0.296,0.03 v 0 c -1.661,-0.936 -3.326,-1.964 -5.018,-3.011 v 0 c -7.777,-4.811 -16.588,-10.255 -29.168,-9.295 v 0 C 104.01,133.028 93.132,122.428 79.357,109.01 v 0 c -1.07,-1.042 -2.159,-2.103 -3.276,-3.177 v 0 C 64.009,94.237 52.64,86.326 30.251,80.201 v 0 C 18.887,77.093 8.664,77.468 0,79.868 v 0 -0.736 c 8.737,-2.386 19.02,-2.739 30.438,0.385 v 0 c 22.535,6.164 33.98,14.13 46.135,25.805 v 0 c 1.119,1.074 2.208,2.136 3.28,3.18 v 0 c 13.646,13.293 24.422,23.793 55.188,21.426 v 0 c 12.809,-0.991 21.725,4.531 29.594,9.398 v 0 c 2.195,1.358 4.342,2.681 6.489,3.809 v 0 c 1.188,0.131 2.356,0.271 3.5,0.422 v 0 c -1.599,-1.058 -3.226,-2.247 -4.925,-3.491 v 0 c -8.094,-5.919 -17.26,-12.63 -31.653,-11.185 v 0 c -32.742,3.29 -44.146,-8.189 -58.587,-22.718 v 0 c -1.124,-1.132 -2.268,-2.282 -3.441,-3.446 v 0 C 63.249,90.055 51.249,81.625 27.692,76.008 v 0 C 17.463,73.569 8.131,73.898 0,75.941 v 0 -0.732 c 8.193,-2.031 17.578,-2.343 27.858,0.108 v 0 c 23.717,5.656 35.801,14.145 48.66,26.896 v 0 c 1.175,1.165 2.319,2.318 3.445,3.45 v 0 c 7.301,7.345 13.605,13.689 22.252,17.911 v 0 c 9.494,4.635 20.86,6.097 35.761,4.6 v 0 c 14.655,-1.477 23.945,5.324 32.142,11.319 v 0 c 2.155,1.577 4.193,3.062 6.195,4.3 v 0 c 1.279,0.184 2.532,0.381 3.752,0.59 v 0 c -1.622,-1.22 -3.274,-2.619 -5.008,-4.089 v 0 c -7.944,-6.74 -17.833,-15.127 -34.06,-13.168 v 0 c -34.4,4.153 -46.338,-8.19 -61.442,-23.819 v 0 C 78.379,102.09 77.183,100.852 75.956,99.6 v 0 C 62.137,85.514 49.945,76.912 25.133,71.813 v 0 C 15.988,69.933 7.537,70.23 0,71.955 v 0 -0.728 c 7.589,-1.715 16.085,-1.998 25.276,-0.109 v 0 c 24.99,5.136 37.27,13.798 51.186,27.986 v 0 c 1.23,1.252 2.427,2.491 3.604,3.709 v 0 c 14.967,15.488 26.787,27.722 60.847,23.609 v 0 c 16.532,-1.995 26.555,6.502 34.603,13.331 v 0 c 2.146,1.82 4.164,3.531 6.144,4.913 v 0 c 1.36,0.252 2.677,0.521 3.956,0.806 v 0 c -1.698,-1.408 -3.43,-3.087 -5.259,-4.861 v 0 c -8.147,-7.908 -18.286,-17.747 -36.41,-15.24 v 0 C 107.87,130.37 95.414,117.164 79.652,100.449 v 0 c -1.229,-1.302 -2.476,-2.624 -3.758,-3.964 v 0 C 60.978,80.906 48.635,72.164 22.574,67.618 v 0 C 14.505,66.21 6.916,66.529 0,68.009 v 0 -0.723 c 6.96,-1.472 14.588,-1.782 22.696,-0.367 v 0 c 26.255,4.58 38.687,13.384 53.711,29.075 v 0 c 1.283,1.34 2.532,2.665 3.76,3.968 v 0 c 15.624,16.566 27.955,29.651 63.683,24.707 v 0 c 18.462,-2.56 28.743,7.418 37.002,15.433 v 0 c 2.241,2.175 4.335,4.203 6.382,5.747 v 0 c 1.434,0.343 2.817,0.708 4.141,1.094 v 0 c -1.819,-1.593 -3.693,-3.648 -5.768,-5.927 v 0 c -7.871,-8.647 -18.652,-20.492 -38.712,-17.4 v 0 c -5.905,0.912 -11.201,1.336 -16.003,1.335 v 0 C 105.001,124.949 93.601,112.601 79.75,97.592 v 0 C 78.47,96.206 77.169,94.795 75.832,93.37 v 0 C 60.109,76.594 47.159,67.356 20.014,63.423 v 0 C 13.333,62.455 6.579,62.637 0,63.911 v 0 -0.724 c 6.613,-1.265 13.399,-1.44 20.115,-0.466 v 0 c 27.355,3.963 40.399,13.267 56.236,30.164 v 0 c 1.337,1.427 2.639,2.838 3.921,4.225 v 0 c 16.276,17.637 29.133,31.571 66.515,25.805 v 0 c 20.433,-3.15 31.364,8.857 39.346,17.624 v 0 c 2.577,2.832 4.842,5.316 7.041,6.953 v 0 c 1.662,0.529 3.226,1.096 4.695,1.696 v 0 c -2.226,-1.725 -4.476,-4.498 -7.056,-7.681 v 0 c -7.99,-9.855 -18.933,-23.356 -40.969,-19.644 v 0 c -39.436,6.629 -52.921,-8.266 -69.993,-27.125 v 0 c -1.333,-1.474 -2.688,-2.97 -4.079,-4.483 v 0 C 58.866,71.87 45.829,62.538 17.455,59.227 v 0 C 11.521,58.536 5.652,58.796 0,59.823 v 0 -0.771 c 5.806,-1.02 11.703,-1.21 17.536,-0.529 v 0 c 28.598,3.337 41.733,12.735 58.759,31.251 v 0 c 1.392,1.515 2.748,3.013 4.082,4.488 v 0 c 16.926,18.698 30.295,33.465 69.349,26.901 v 0 c 22.453,-3.772 33.538,9.907 41.637,19.897 v 0 c 4.116,5.077 7.367,9.088 10.852,9.274 v 0 l 0.148,0.007 0.098,0.111 c 0.546,0.615 1.076,1.219 1.599,1.817 v 0 c 3.925,2.4 6.685,5.181 8.171,8.313 v 0 c 0.453,0.957 0.776,1.941 0.981,2.941 v 0 c 6.986,9.426 10.026,16.328 9.443,21.263 v 0 c -0.51,4.314 -3.612,6.81 -6.748,8.999 v 0 c -2.663,1.861 -6.379,2.472 -10.936,2.472 v 0 c -3.919,0 -8.459,-0.452 -13.487,-0.953 v 0 c -3.276,-0.326 -6.774,-0.676 -10.437,-0.932 v 0 c 4.594,0.424 8.936,1.049 12.977,1.639 v 0 c 9.566,1.395 17.122,2.497 21.765,-0.17 v 0 c 3.685,-2.119 7.062,-4.371 7.904,-8.618 v 0 c 1.372,-6.915 -4.176,-18.162 -17.454,-35.382 v 0 c -3.397,-0.308 -6.434,-4.489 -10.262,-9.761 v 0 c -8.068,-11.109 -19.115,-26.325 -43.186,-21.973 v 0 c -41.116,7.43 -55.115,-8.303 -72.833,-28.221 v 0 C 78.569,90.327 77.16,88.742 75.711,87.141 v 0 C 57.945,67.486 44.312,57.668 14.894,55.031 v 0 C 9.853,54.579 4.859,54.807 0,55.602 v 0 -0.715 C 4.881,54.095 9.894,53.87 14.957,54.324 v 0 c 29.654,2.658 43.387,12.546 61.281,32.34 v 0 c 1.449,1.604 2.861,3.19 4.249,4.751 v 0 c 17.573,19.752 31.451,35.355 72.177,27.993 v 0 c 24.504,-4.428 36.17,11.629 43.888,22.255 v 0 c 3.779,5.204 6.764,9.314 9.889,9.48 v 0 l 0.162,0.009 0.1,0.129 c 13.485,17.467 19.104,28.932 17.687,36.079 v 0 c -0.901,4.54 -4.415,6.893 -8.248,9.096 v 0 c -2.189,1.259 -4.949,1.723 -8.21,1.723 v 0 c -3.97,0 -8.684,-0.687 -14.011,-1.466 v 0 c -4.196,-0.611 -8.72,-1.264 -13.51,-1.685 v 0 c 5.493,0.609 10.613,1.609 15.362,2.539 v 0 c 8.773,1.721 15.701,3.078 20.303,0.915 v 0 c 4.44,-2.089 8.216,-4.185 9.462,-8.705 v 0 c 1.963,-7.121 -2.831,-18.919 -15.089,-37.129 v 0 c -3.073,-0.318 -5.848,-4.563 -9.343,-9.912 v 0 c -7.655,-11.71 -19.224,-29.409 -45.367,-24.384 v 0 c -7.666,1.472 -14.419,2.149 -20.454,2.149 v 0 C 107.622,120.499 95.142,106.255 80.067,89.041 v 0 c -1.442,-1.647 -2.91,-3.322 -4.416,-5.014 v 0 C 56.62,62.646 42.962,52.781 12.334,50.835 v 0 C 8.249,50.575 4.12,50.755 0,51.354 v 0 -0.714 c 4.062,-0.585 8.205,-0.777 12.378,-0.513 v 0 c 30.689,1.949 45.025,12.332 63.802,33.426 v 0 c 1.509,1.695 2.977,3.372 4.42,5.021 v 0 c 18.216,20.797 32.602,37.224 75.004,29.08 v 0 c 26.622,-5.113 38.337,12.826 46.096,24.694 v 0 c 3.453,5.284 6.18,9.458 8.967,9.606 v 0 l 0.177,0.009 0.099,0.147 c 12.451,18.473 17.307,30.501 15.28,37.856 v 0 c -1.325,4.805 -5.412,7.074 -9.845,9.158 v 0 c -1.797,0.846 -3.903,1.183 -6.302,1.183 v 0 c -4.021,0 -8.864,-0.95 -14.439,-2.042 v 0 c -5.26,-1.031 -10.975,-2.149 -17.144,-2.72 v 0 c 6.849,0.786 13.122,2.338 18.531,3.68 v 0 c 8.229,2.042 14.728,3.655 19.338,1.9 v 0 c 5.073,-1.93 9.411,-3.92 11.105,-8.752 v 0 c 2.541,-7.255 -1.646,-19.984 -12.805,-38.917 v 0 c -2.763,-0.323 -5.166,-4.394 -8.462,-9.98 v 0 c -7.664,-12.981 -19.241,-32.601 -47.516,-26.878 v 0 c -44.489,9.003 -59.498,-8.385 -78.503,-30.399 v 0 C 78.682,84.462 77.157,82.697 75.59,80.911 v 0 C 55.646,58.189 41.41,47.848 9.772,46.639 v 0 C 6.564,46.516 3.293,46.681 0,47.119 v 0 -0.715 C 3.304,45.969 6.582,45.807 9.8,45.93 v 0 c 31.898,1.219 46.24,11.632 66.324,34.514 v 0 c 1.568,1.785 3.094,3.553 4.594,5.291 v 0 c 18.855,21.838 33.752,39.086 77.825,30.166 v 0 c 28.769,-5.818 40.503,14.06 48.267,27.215 v 0 c 3.138,5.316 5.618,9.517 8.084,9.648 v 0 l 0.19,0.01 0.097,0.165 c 11.497,19.475 15.614,32.08 12.956,39.668 v 0 c -1.794,5.12 -6.28,7.188 -11.522,9.182 v 0 c -1.469,0.558 -3.102,0.795 -4.899,0.795 v 0 c -4.1,0 -9.058,-1.231 -14.862,-2.671 v 0 c -5.592,-1.386 -12.109,-3.002 -19.225,-3.751 v 0 c 7.552,0.963 14.406,3.016 20.289,4.785 v 0 c 7.863,2.364 14.072,4.231 18.729,2.825 v 0 c 5.716,-1.727 10.625,-3.578 12.814,-8.757 v 0 c 3.172,-7.507 -0.291,-20.839 -10.586,-40.751 v 0 c -2.475,-0.342 -4.644,-4.402 -7.614,-9.965 v 0 c -7.172,-13.43 -19.174,-35.908 -49.631,-29.456 v 0 c -46.167,9.779 -61.686,-8.429 -81.332,-31.482 v 0 c -1.556,-1.828 -3.14,-3.686 -4.767,-5.564 v 0 C 54.655,53.71 39.838,42.889 7.212,42.442 v 0 C 4.839,42.409 2.429,42.535 0,42.814 v 0 -0.711 c 2.432,-0.277 4.843,-0.402 7.222,-0.371 v 0 c 32.897,0.451 47.826,11.347 68.844,35.6 v 0 c 1.629,1.88 3.214,3.739 4.772,5.569 v 0 c 19.492,22.872 34.891,40.937 80.646,31.247 v 0 c 30.973,-6.565 43.136,16.211 50.402,29.817 v 0 c 2.833,5.304 5.072,9.494 7.234,9.61 v 0 l 0.203,0.01 0.093,0.181 c 10.467,20.207 13.967,33.789 10.699,41.525 v 0 c -2.496,5.908 -8.466,7.711 -13.263,9.16 v 0 c -1.184,0.358 -2.453,0.516 -3.811,0.516 v 0 c -4.219,0 -9.294,-1.527 -15.327,-3.341 v 0 c -6.044,-1.816 -13.112,-3.94 -20.901,-4.853 v 0 c 8.14,1.138 15.461,3.722 21.731,5.935 v 0 c 7.324,2.585 13.645,4.819 18.387,3.711 v 0 c 6.355,-1.483 11.841,-3.162 14.574,-8.717 v 0 c 3.826,-7.774 1.073,-21.721 -8.417,-42.632 v 0 c -2.197,-0.351 -4.045,-4.174 -6.799,-9.866 v 0 c -7.115,-14.708 -19.017,-39.326 -51.712,-32.116 v 0 C 116.721,123.64 100.701,104.613 80.419,80.527 v 0 c -1.616,-1.919 -3.259,-3.871 -4.95,-5.844 v 0 C 53.216,48.704 38.455,37.886 4.65,38.245 v 0 C 3.114,38.261 1.564,38.344 0,38.492 v 0 -0.712 c 1.561,-0.146 3.109,-0.228 4.643,-0.244 v 0 c 17.05,-0.172 29.66,2.56 40.82,8.867 v 0 c 10.81,6.112 20.03,15.54 30.547,27.819 v 0 c 1.69,1.973 3.335,3.927 4.952,5.847 v 0 c 20.128,23.904 36.024,42.785 83.462,32.326 v 0 c 33.244,-7.333 45.299,17.604 52.504,32.5 v 0 c 2.537,5.246 4.541,9.39 6.418,9.49 v 0 l 0.215,0.012 0.089,0.196 c 9.652,21.218 12.429,35.422 8.492,43.421 v 0 c -3.106,6.309 -10.009,7.92 -15.051,9.098 v 0 c -0.908,0.21 -1.865,0.307 -2.87,0.307 v 0 c -4.463,0 -9.851,-1.902 -15.913,-4.042 v 0 c -6.478,-2.286 -14.088,-4.962 -22.545,-6.016 v 0 c 8.741,1.287 16.551,4.436 23.208,7.128 v 0 c 7.187,2.908 13.392,5.418 18.241,4.58 v 0 c 6.731,-1.162 13.049,-2.697 16.374,-8.639 v 0 c 4.503,-8.05 2.448,-22.624 -6.285,-44.554 v 0 c -1.938,-0.377 -3.579,-4.123 -6.015,-9.683 v 0 c -6.561,-14.975 -18.773,-42.856 -53.764,-34.86 v 0 c -9.806,2.24 -18.313,3.259 -25.821,3.259 v 0 C 111.274,114.59 97.32,97.841 80.544,77.697 v 0 C 78.868,75.685 77.163,73.638 75.41,71.569 v 0 C 52.176,44.151 36.862,32.886 2.089,34.048 v 0 C 1.392,34.071 0.697,34.108 0,34.157 v 0 -0.708 c 0.69,-0.05 1.379,-0.087 2.066,-0.11 v 0 C 37.124,32.154 52.559,43.507 75.952,71.11 v 0 c 1.755,2.071 3.46,4.119 5.137,6.133 v 0 c 20.76,24.928 37.159,44.62 86.275,33.398 v 0 c 35.572,-8.126 47.929,20.103 54.572,35.267 v 0 c 2.252,5.141 4.031,9.202 5.636,9.287 v 0 l 0.227,0.012 0.084,0.211 c 8.882,22.25 10.95,37.087 6.322,45.358 v 0 c -3.477,6.216 -9.965,7.801 -16.872,8.993 v 0 c -0.686,0.117 -1.392,0.173 -2.123,0.173 v 0 c -4.652,0 -10.208,-2.246 -16.505,-4.794 v 0 c -6.929,-2.804 -15.111,-6.106 -24.28,-7.253 v 0 c 9.409,1.389 17.742,5.166 24.817,8.383 v 0 c 7.117,3.237 13.259,6.029 18.249,5.443 v 0 c 7.036,-0.833 14.237,-2.177 18.201,-8.525 v 0 c 5.201,-8.33 3.836,-23.547 -4.176,-46.516 v 0 c -1.69,-0.389 -3.06,-3.848 -5.265,-9.41 v 0 c -6.44,-16.252 -18.431,-46.501 -55.783,-37.692 v 0 c -10.321,2.433 -19.248,3.54 -27.11,3.539 v 0 C 112.204,113.116 97.878,95.744 80.671,74.87 v 0 c -1.736,-2.106 -3.503,-4.249 -5.32,-6.415 v 0 C 63.581,54.428 54.024,44.45 42.773,38.062 v 0 C 31.069,31.417 17.863,28.871 0,29.825 v 0 -0.71 c 17.985,-0.958 31.303,1.619 43.124,8.33 v 0 c 11.344,6.441 20.949,16.466 32.77,30.554 v 0 c 1.819,2.167 3.587,4.312 5.325,6.419 v 0 c 21.392,25.951 38.288,46.448 89.086,34.469 v 0 c 37.947,-8.947 50.088,21.671 56.606,38.121 v 0 c 1.977,4.986 3.538,8.926 4.888,8.998 v 0 l 0.237,0.013 0.079,0.225 c 8.15,23.299 9.517,38.78 4.179,47.328 v 0 c -4.13,6.613 -11.512,8 -18.719,8.854 v 0 c -0.482,0.058 -0.97,0.084 -1.47,0.084 v 0 c -4.877,0 -10.613,-2.608 -17.156,-5.586 v 0 c -7.253,-3.297 -15.83,-7.197 -25.515,-8.46 v 0 c 9.887,1.515 18.588,5.891 25.959,9.602 v 0 c 7.101,3.577 13.237,6.67 18.376,6.307 v 0 c 7.595,-0.53 15.398,-1.614 20.046,-8.376 v 0 c 5.919,-8.612 5.237,-24.483 -2.085,-48.517 v 0 c -1.458,-0.418 -2.646,-3.738 -4.544,-9.047 v 0 c -2.984,-8.341 -7.492,-20.947 -16.226,-30.224 v 0 C 204.551,107.154 190.575,103.66 173.414,107.825 v 0 C 120.5,120.661 102.981,99.209 80.799,72.047 v 0 C 79.002,69.845 77.173,67.605 75.29,65.342 v 0 C 51.61,36.858 36.143,23.351 0,25.445 v 0 -0.711 c 36.436,-2.103 52.005,11.491 75.837,40.153 v 0 c 1.882,2.267 3.713,4.508 5.512,6.711 v 0 c 22.023,26.968 39.418,48.27 91.896,35.536 v 0 c 40.416,-9.803 52.704,24.55 58.609,41.06 v 0 c 1.643,4.595 3.062,8.563 4.171,8.622 v 0 l 0.248,0.013 0.073,0.237 c 7.449,24.37 8.121,40.506 2.054,49.334 v 0 c -4.827,7.021 -13.154,8.163 -20.581,8.682 v 0 c -0.291,0.02 -0.584,0.03 -0.881,0.03 v 0 c -5.137,0 -11.063,-2.985 -17.865,-6.412 v 0 c -7.495,-3.775 -16.372,-8.248 -26.453,-9.641 v 0 c 10.257,1.654 19.232,6.6 26.828,10.788 v 0 c 7.126,3.927 13.294,7.319 18.599,7.179 v 0 c 7.781,-0.202 16.531,-1.02 21.901,-8.197 v 0 c 6.655,-8.894 6.655,-25.431 -0.003,-50.546 v 0 c -1.177,-0.4 -2.08,-3.06 -3.858,-8.591 v 0 c -5.65,-17.58 -17.408,-54.161 -59.728,-43.622 v 0 C 121.757,119.662 103.742,97.405 80.932,69.227 v 0 C 79.072,66.929 77.18,64.591 75.23,62.228 v 0 C 51.146,33.013 35.289,18.886 0,21.001 v 0 -0.711 c 35.571,-2.128 51.542,12.086 75.778,41.486 v 0 c 1.95,2.365 3.845,4.705 5.705,7.005 v 0 c 22.652,27.983 40.548,50.083 94.704,36.6 v 0 c 18.49,-4.604 33.406,-0.713 44.332,11.565 v 0 c 9.062,10.184 13.384,23.63 16.244,32.528 v 0 c 1.399,4.35 2.605,8.105 3.488,8.153 v 0 l 0.259,0.013 0.065,0.249 c 6.773,25.459 6.754,42.26 -0.059,51.366 v 0 c -5.559,7.43 -14.504,8.273 -22.451,8.481 v 0 c -0.112,0.004 -0.224,0.005 -0.336,0.005 v 0 c -5.429,0 -11.553,-3.376 -18.623,-7.273 v 0 c -7.711,-4.25 -16.857,-9.283 -27.29,-10.806 v 0 c 10.59,1.793 19.812,7.297 27.61,11.952 v 0 c 7.182,4.29 13.385,7.992 18.896,8.067 v 0 c 8.906,0.116 17.929,-0.764 23.764,-7.993 v 0 c 7.304,-9.05 8.001,-26.748 2.076,-52.607 v 0 c -0.98,-0.413 -1.704,-2.801 -3.207,-8.036 v 0 c -5.001,-17.411 -16.7,-58.189 -61.652,-46.731 v 0 c -56.287,14.348 -74.8,-8.711 -98.237,-37.904 v 0 c -1.923,-2.395 -3.879,-4.832 -5.894,-7.295 v 0 C 50.699,29.192 34.451,14.451 0,16.502 v 0 -0.712 c 34.744,-2.069 51.096,12.765 75.721,42.875 v 0 c 2.017,2.465 3.974,4.905 5.897,7.3 v 0 c 23.278,28.995 41.663,51.899 97.511,37.662 v 0 c 45.606,-11.624 57.45,29.613 62.508,47.222 v 0 c 1.067,3.712 2.169,7.551 2.841,7.588 v 0 l 0.266,0.013 0.061,0.26 c 6.115,26.567 5.406,44.041 -2.168,53.424 v 0 c -5.711,7.076 -14.298,8.266 -22.905,8.266 v 0 c -0.473,0 -0.947,-0.004 -1.42,-0.01 v 0 c -5.701,-0.076 -11.98,-3.825 -19.249,-8.165 v 0 c -8.275,-4.941 -17.39,-10.378 -27.945,-11.985 v 0 c 10.688,1.879 19.873,7.772 28.227,13.13 v 0 c 7.263,4.659 13.535,8.682 19.251,8.966 v 0 c 15.985,0.791 21.925,-3.48 25.629,-7.768 v 0 c 8.06,-9.327 9.457,-27.727 4.152,-54.693 v 0 c -0.781,-0.414 -1.339,-2.456 -2.59,-7.372 v 0 c -2.978,-11.704 -9.175,-36.059 -27.279,-46.75 v 0 c -9.853,-5.82 -22.053,-6.892 -36.259,-3.193 v 0 c -12.335,3.213 -22.902,4.661 -32.133,4.661 v 0 C 115.961,107.219 100.146,87.374 81.202,63.597 v 0 c -1.986,-2.493 -4.008,-5.03 -6.09,-7.596 v 0 C 60.914,38.514 50.297,27.009 38.039,19.951 v 0 C 27.114,13.66 15.094,11.086 0,11.951 v 0 -0.71 c 15.218,-0.867 27.35,1.737 38.393,8.095 v 0 c 12.354,7.112 23.019,18.665 37.27,36.217 v 0 c 2.084,2.567 4.107,5.107 6.094,7.601 v 0 c 23.903,30.003 42.784,53.701 100.313,38.719 v 0 c 14.399,-3.75 26.779,-2.65 36.799,3.269 v 0 c 18.358,10.84 24.604,35.389 27.606,47.187 v 0 c 0.841,3.303 1.71,6.721 2.235,6.918 v 0 l 0.27,0.014 0.053,0.271 c 5.397,27.303 3.959,45.976 -4.271,55.501 v 0 c -3.507,4.058 -8.941,8.108 -22.449,8.108 v 0 c -1.187,0 -2.437,-0.031 -3.752,-0.096 v 0 c -5.906,-0.293 -12.252,-4.364 -19.6,-9.078 v 0 c -8.573,-5.499 -18.032,-11.561 -29.063,-13.198 v 0 c 11.151,1.919 20.671,8.426 29.313,14.34 v 0 c 7.364,5.039 13.725,9.391 19.658,9.882 v 0 c 9.458,0.782 20.121,0.499 27.493,-7.52 v 0 c 8.829,-9.603 10.926,-28.714 6.232,-56.804 v 0 c -0.609,-0.407 -1.017,-2.121 -2.012,-6.592 v 0 c -2.769,-12.437 -8.53,-38.313 -27.565,-49.881 v 0 c -10.208,-6.203 -22.933,-7.343 -37.824,-3.389 v 0 c -12.829,3.408 -23.798,4.943 -33.365,4.942 v 0 C 116.906,105.746 100.719,85.286 81.339,60.784 v 0 c -2.049,-2.591 -4.136,-5.23 -6.287,-7.896 v 0 C 62.32,37.094 50.656,23.373 36.842,15.385 v 0 C 26.139,9.199 14.44,6.6 0,7.36 v 0 -0.711 c 14.565,-0.764 26.376,1.867 37.197,8.123 v 0 c 13.919,8.048 25.629,21.821 38.408,37.669 v 0 c 2.151,2.67 4.24,5.31 6.291,7.903 v 0 c 24.527,31.01 43.899,55.506 103.116,39.775 v 0 c 15.082,-4.005 27.995,-2.84 38.374,3.469 v 0 c 19.294,11.725 25.099,37.801 27.888,50.331 v 0 c 0.664,2.982 1.29,5.799 1.695,6.141 v 0 l 0.245,0.012 0.047,0.28 c 4.774,28.427 2.629,47.804 -6.376,57.599 v 0 c -5.938,6.459 -13.891,8.041 -21.688,8.041 v 0 c -2.155,0 -4.3,-0.122 -6.386,-0.294 v 0 c -6.121,-0.505 -12.554,-4.907 -20.001,-10.003 v 0 c -8.76,-5.995 -18.424,-12.602 -29.749,-14.339 v 0 c 11.434,2.028 21.155,9.076 29.976,15.477 v 0 c 7.481,5.428 13.943,10.117 20.104,10.812 v 0 c 9.355,1.056 21.145,1.186 29.357,-7.256 v 0 c 9.609,-9.875 12.407,-29.703 8.313,-58.939 v 0 c -0.45,-0.393 -0.739,-1.815 -1.477,-5.682 v 0 c -2.322,-12.145 -7.758,-40.586 -27.783,-53.112 v 0 C 216.986,96.049 203.727,94.835 188.139,99.05 v 0 c -13.324,3.604 -24.691,5.226 -34.591,5.226 v 0 C 117.858,104.272 101.294,83.198 81.479,57.974 v 0 c -2.098,-2.669 -4.267,-5.43 -6.486,-8.2 v 0 C 50.823,19.601 34.142,1.204 0,2.745 v 0 -0.723 c 13.928,-0.637 25.407,2.024 35.993,8.171 v 0 c 14.182,8.235 26.304,22.596 39.555,39.137 v 0 c 2.22,2.773 4.39,5.535 6.489,8.206 v 0 c 25.151,32.015 45.017,57.301 105.916,40.83 v 0 c 15.785,-4.27 29.235,-3.029 39.974,3.689 v 0 c 20.288,12.689 25.765,41.344 28.104,53.58 v 0 c 0.473,2.474 0.92,4.816 1.211,5.237 v 0 l 0.207,0.011 0.04,0.29 c 4.162,29.559 1.308,49.65 -8.482,59.712 v 0 c -6.168,6.34 -14.248,7.973 -21.87,7.973 v 0 c -2.792,0 -5.524,-0.219 -8.075,-0.506 v 0 c -6.348,-0.717 -12.88,-5.457 -20.442,-10.946 v 0 c -8.752,-6.351 -18.396,-13.336 -29.687,-15.343 v 0 c 11.397,2.295 21.091,9.717 29.902,16.47 v 0 c 7.294,5.589 14.181,10.868 20.577,11.768 v 0 c 9.794,1.378 22.189,1.83 31.217,-6.977 v 0 c 10.399,-10.147 13.898,-30.698 10.402,-61.085 v 0 c -0.293,-0.34 -0.482,-1.413 -0.993,-4.632 v 0 c -1.866,-11.724 -6.819,-42.868 -27.917,-56.46 v 0 c -10.926,-7.04 -24.733,-8.335 -41.038,-3.85 v 0 c -13.802,3.795 -25.557,5.501 -35.779,5.501 v 0 C 118.926,102.796 102.011,81.193 81.782,55.348 v 0 C 79.568,52.52 77.279,49.595 74.933,46.661 v 0 C 55.736,22.46 41.121,5.541 19.49,0 v 0 h 2.618 c 4.415,1.348 8.619,3.205 12.699,5.581 v 0 c 14.517,8.455 27.013,23.406 40.681,40.637 v 0 c 2.349,2.937 4.638,5.864 6.853,8.693 v 0 c 25.75,32.898 46.089,58.882 108.554,41.701 v 0 c 16.507,-4.541 30.508,-3.215 41.61,3.939 v 0 c 21.364,13.763 26.355,45.135 28.233,56.945 v 0 c 0.318,2 0.596,3.746 0.787,4.19 v 0 l 0.157,0.008 0.034,0.297 c 3.556,30.708 -0.008,51.515 -10.591,61.84 v 0 c -6.392,6.238 -14.387,7.949 -22.003,7.949 v 0 c -3.405,0 -6.735,-0.343 -9.808,-0.776 v 0 c -6.582,-0.926 -13.542,-6.26 -20.91,-11.907 v 0 c -9.202,-7.053 -19.376,-14.843 -31.408,-16.647 v 0 c 12.133,2.119 22.347,10.332 31.602,17.776 v 0 c 7.427,5.979 14.444,11.626 21.084,12.731 v 0 c 9.424,1.57 23.106,2.584 33.073,-6.685 v 0 c 11.199,-10.417 15.404,-31.696 12.495,-63.258 v 0 c -0.181,-0.31 -0.286,-1.145 -0.567,-3.398 v 0 c -1.396,-11.157 -5.644,-45.108 -27.933,-59.934 v 0 c -11.294,-7.511 -25.667,-8.903 -42.723,-4.14 v 0 c -14.294,3.994 -26.446,5.785 -37.003,5.785 v 0 C 119.843,101.323 102.544,79.081 81.871,52.485 v 0 C 79.609,49.577 77.27,46.568 74.874,43.546 v 0 C 58.98,23.422 46.126,8.145 30.305,0 v 0 h 1.585 c 15.342,8.347 27.993,23.42 43.54,43.106 v 0 c 2.398,3.023 4.738,6.033 7.001,8.944 v 0 c 13.482,17.344 25.125,32.322 41.618,40.981 v 0 c 18.084,9.496 40.26,10.077 69.788,1.827 v 0 c 17.262,-4.821 31.832,-3.397 43.306,4.234 v 0 c 22.558,15.006 26.839,49.2 28.244,60.437 v 0 c 0.17,1.358 0.557,3.281 0.557,3.281 v 0 c 2.954,31.865 -1.32,53.392 -12.706,63.981 v 0 c -6.656,6.19 -14.892,7.903 -22.474,7.903 v 0 c -4.03,0 -7.876,-0.484 -11.198,-1.037 v 0 c -6.824,-1.137 -13.912,-6.839 -21.414,-12.877 v 0 c -9.355,-7.529 -19.701,-15.846 -31.98,-17.741 v 0 c 12.376,2.219 22.758,10.95 32.163,18.867 v 0 c 7.572,6.375 14.724,12.394 21.617,13.706 v 0 c 9.809,1.868 24.106,3.239 34.923,-6.383 v 0 c 12.011,-10.684 16.921,-32.711 14.593,-65.47 v 0 c -0.074,-0.255 -0.12,-0.79 -0.216,-1.91 v 0 c -3.363,-39.05 -16.969,-56.141 -27.792,-63.603 v 0 C 229.79,90.199 214.82,88.7 196.971,93.788 v 0 c -14.755,4.158 -27.287,6.023 -38.16,6.023 v 0 C 120.73,99.808 103.051,76.926 81.923,49.572 v 0 c -2.297,-2.974 -4.674,-6.051 -7.108,-9.139 v 0 C 61.06,22.944 49.513,8.982 36.609,0 v 0 h 1.273 c 12.613,9.049 23.992,22.831 37.49,39.995 v 0 c 2.438,3.09 4.814,6.167 7.112,9.144 v 0 c 13.808,17.876 25.733,33.315 42.641,42.211 v 0 c 18.533,9.751 41.301,10.31 71.654,1.754 v 0 c 18.061,-5.147 33.23,-3.613 45.085,4.558 v 0 c 19.834,13.675 26.226,42.42 28.095,64.126 v 0 c 0.055,0.645 0.189,1.528 0.189,1.528 v 0 l 0.022,0.312 c 2.359,33.034 -2.629,55.284 -14.823,66.132 v 0 c -6.898,6.135 -15.147,7.902 -22.796,7.902 v 0 c -4.604,0 -8.99,-0.64 -12.732,-1.353 v 0 c -7.075,-1.346 -14.296,-7.425 -21.941,-13.86 v 0 c -9.052,-7.62 -19.016,-16.004 -30.756,-18.498 v 0 c 11.751,2.792 21.702,11.52 30.931,19.618 v 0 c 7.722,6.778 15.017,13.179 22.167,14.699 v 0 c 15.977,3.393 28.006,1.41 36.77,-6.071 v 0 c 12.834,-10.953 18.452,-33.736 16.698,-67.716 v 0 l -10e-4,-0.016 c -0.002,-0.472 -0.595,-47.438 -26.712,-66.981 v 0 c -7.596,-5.685 -16.625,-8.532 -26.987,-8.532 v 0 c -6.218,0 -12.919,1.026 -20.072,3.081 v 0 c -15.272,4.388 -28.22,6.352 -39.438,6.352 v 0 C 121.672,98.383 103.617,74.862 82.049,46.76 v 0 c -2.357,-3.073 -4.795,-6.25 -7.293,-9.439 v 0 C 62.859,22.134 52.39,9.248 41.393,0 v 0 h 1.045 c 10.764,9.165 21.027,21.756 32.877,36.883 v 0 c 2.5,3.192 4.939,6.37 7.298,9.444 v 0 c 14.132,18.415 26.337,34.318 43.66,43.452 v 0 c 18.989,10.012 42.329,10.513 73.448,1.572 v 0 c 19.295,-5.543 35.338,-3.671 47.679,5.564 v 0 c 26.279,19.664 26.988,66.649 26.997,67.537 v 0 c 1.765,34.209 -3.936,57.182 -16.947,68.285 v 0 c -6.14,5.243 -13.83,7.844 -23.294,7.844 v 0 c -0.002,0 -0.003,0 -0.005,0 M 54.125,172.726 c 8.412,20.846 23.836,36.77 41.255,42.597 v 0 c 10.105,3.38 20.691,3.267 31.163,-0.219 v 0 c -9.783,2.816 -19.665,2.724 -29.152,-0.366 v 0 C 80.061,209.093 64.428,193.59 55.574,173.268 v 0 c -2.981,-6.84 -6.433,-11.895 -10.352,-15.663 v 0 c -0.031,-0.012 -0.064,-0.025 -0.095,-0.038 v 0 c 3.39,3.783 6.394,8.708 8.998,15.159 m 2.099,0.258 c 8.775,20.139 24.247,35.496 41.386,41.079 v 0 c 10.095,3.289 20.329,3.214 30.555,-0.164 v 0 c -9.514,2.705 -19.055,2.58 -28.501,-0.406 v 0 C 82.621,208.101 66.927,193.166 57.681,173.543 v 0 C 54.59,166.982 51.054,162.105 47.071,158.44 v 0 c 3.419,3.663 6.472,8.39 9.153,14.544 m 2.099,0.256 c 9.163,19.448 24.697,34.242 41.555,39.576 v 0 c 10.341,3.269 20.804,3.065 31.223,-0.589 v 0 c -9.736,2.943 -19.524,2.947 -29.224,-0.038 v 0 c -16.716,-5.14 -32.45,-19.485 -42.088,-38.37 v 0 C 56.71,167.785 53.246,163.205 49.387,159.693 v 0 c 3.298,3.484 6.276,7.902 8.936,13.547 m 2.098,0.255 c 9.553,18.719 25.128,32.931 41.664,38.017 v 0 c 10.168,3.125 20.438,2.932 30.645,-0.548 v 0 c -12.509,3.636 -25.248,2.475 -37.391,-3.513 v 0 C 82.258,201.003 70.07,188.846 61.898,174.095 v 0 c -3.044,-5.494 -6.417,-9.75 -10.13,-13.092 v 0 c 3.156,3.287 6.039,7.371 8.653,12.492 m 2.098,0.256 c 8.104,14.627 20.18,26.679 33.133,33.064 v 0 c 12.524,6.173 25.689,7.145 38.567,2.948 v 0 c -12.272,3.411 -24.819,2.224 -36.83,-3.582 v 0 C 84.461,199.929 72.606,188.633 64.007,174.371 v 0 c -3.003,-4.979 -6.285,-8.918 -9.859,-12.081 v 0 c 3.019,3.084 5.808,6.837 8.371,11.461 m 2.096,0.255 c 8.528,14.143 20.278,25.342 33.084,31.535 v 0 c 12.421,6.007 25.427,7.006 38.092,3.017 v 0 C 106.327,216.459 80.357,196.281 66.118,174.65 v 0 c -2.921,-4.438 -6.067,-8.036 -9.459,-10.994 v 0 c 2.838,2.851 5.487,6.256 7.956,10.35 m 2.096,0.253 c 14.455,21.96 41.098,42.419 71.12,32.962 v 0 c -28.432,7.564 -54.139,-10.846 -69.602,-32.293 v 0 c -2.84,-3.941 -5.869,-7.204 -9.097,-9.953 v 0 c 2.676,2.618 5.201,5.672 7.579,9.284 m 2.093,0.254 c 15.673,21.734 41.942,40.338 70.811,31.464 v 0 c -11.851,3.088 -23.937,1.9 -36.046,-3.591 v 0 C 88.501,195.552 77.183,183.834 70.343,175.207 v 0 c -2.712,-3.418 -5.566,-6.327 -8.582,-8.836 v 0 c 2.464,2.352 4.808,5.042 7.043,8.142 m 2.094,0.253 c 6.794,8.565 18.026,20.198 32.965,26.974 v 0 c 12.57,5.699 25.113,6.699 37.385,3.034 v 0 c -11.643,2.89 -23.583,1.677 -35.608,-3.648 v 0 c -14.471,-6.41 -26.032,-17.48 -33.184,-25.64 v 0 c -2.573,-2.936 -5.26,-5.494 -8.072,-7.757 v 0 c 2.258,2.082 4.429,4.407 6.514,7.037 m 2.093,0.252 c 7.103,8.105 18.584,19.101 32.937,25.459 v 0 c 12.595,5.577 25.093,6.58 37.241,3.034 v 0 C 115.575,210.144 90.93,192.557 74.572,175.766 v 0 c -2.37,-2.434 -4.825,-4.61 -7.372,-6.589 v 0 c 1.991,1.773 3.92,3.707 5.791,5.841 m 2.09,0.252 c 16.632,17.073 41.885,34.983 70.001,27.007 v 0 c -21.311,4.989 -43.762,-3.642 -68.392,-26.233 v 0 c -2.164,-1.983 -4.389,-3.811 -6.683,-5.507 v 0 c 1.731,1.469 3.423,3.039 5.074,4.733 m 2.089,0.252 c 25.304,23.21 48.253,31.582 69.989,25.488 v 0 c -25.922,5.946 -48.991,-8.952 -68.35,-24.685 v 0 c -1.942,-1.578 -3.92,-3.064 -5.94,-4.476 v 0 c 1.459,1.165 2.894,2.384 4.301,3.673 m 2.087,0.252 c 19.707,16.016 43.272,31.162 69.697,24.05 v 0 c -3.744,0.8 -7.434,1.173 -11.056,1.173 v 0 C 115.157,200.995 95.1,186.704 80.93,176.604 v 0 c -1.597,-1.137 -3.215,-2.24 -4.859,-3.31 v 0 c 1.071,0.804 2.135,1.625 3.186,2.48 m 2.085,0.252 c 16.747,11.937 41.767,29.762 69.58,22.614 v 0 c -3.597,0.73 -7.143,1.07 -10.629,1.07 v 0 c -20.438,-0.001 -38.867,-11.433 -54.255,-20.979 v 0 c -1.007,-0.625 -2.002,-1.242 -2.986,-1.849 v 0 c -1.195,-0.737 -2.403,-1.463 -3.617,-2.185 v 0 c 0.638,0.439 1.275,0.879 1.907,1.329 m 2.084,0.253 c 0.983,0.607 1.979,1.224 2.987,1.85 v 0 c 18.404,11.418 41.184,25.546 66.432,19.353 v 0 C 130.449,201.747 110.4,190.847 92.61,181.161 v 0 c -2.573,-1.401 -5.004,-2.724 -7.433,-4 v 0 l -1.412,-0.741 c -0.259,-0.136 -0.521,-0.274 -0.781,-0.411 v 0 c 0.146,0.09 0.295,0.179 0.442,0.27 m 9.523,4.258 c 18.2,9.91 38.778,21.104 61.719,15.838 v 0 c -20.372,3.503 -39.065,-5.484 -55.639,-13.464 v 0 c -4.056,-1.953 -7.888,-3.798 -11.726,-5.473 v 0 c -0.18,-0.08 -0.363,-0.162 -0.543,-0.241 v 0 c 2.02,1.071 4.055,2.178 6.189,3.34 m 6.388,1.735 c 17.832,8.585 36.267,17.449 57.142,13.034 v 0 c -18.445,2.833 -35.057,-4.285 -51.144,-11.18 v 0 c -2.103,-0.901 -4.154,-1.773 -6.19,-2.623 v 0 c -0.794,-0.115 -1.583,-0.275 -2.371,-0.463 v 0 c 0.847,0.406 1.697,0.815 2.563,1.232 m 92.217,12.325 c 10.733,1.07 19.209,1.914 23.947,-1.394 v 0 c 3.003,-2.095 5.974,-4.478 6.449,-8.5 v 0 c 0.52,-4.401 -1.991,-10.48 -7.784,-18.669 v 0 c 0.295,0.655 0.543,1.319 0.743,1.99 v 0 c 4.298,5.868 6.253,10.48 6.123,14.206 v 0 c -0.13,3.721 -2.237,6.242 -5.36,8.881 v 0 c -5.128,4.334 -15.108,3.734 -27.744,2.972 v 0 c -1.726,-0.103 -3.534,-0.211 -5.392,-0.31 v 0 c 3.147,0.242 6.169,0.541 9.018,0.824 m -85.94,-11.123 c 16.607,7.118 33.778,14.479 52.861,10.769 v 0 c 0.094,-0.018 0.188,-0.032 0.283,-0.05 v 0 c -2.614,0.366 -5.194,0.545 -7.742,0.545 v 0 c -13.902,0 -26.871,-4.987 -39.479,-9.836 v 0 c -2.749,-1.057 -5.538,-2.126 -8.344,-3.148 v 0 c -0.558,0.013 -1.113,0.001 -1.667,-0.025 v 0 c 1.348,0.57 2.708,1.154 4.088,1.745 m -0.649,-1.825 c 2.294,0.85 4.575,1.724 6.827,2.59 v 0 c 15.12,5.816 30.754,11.831 47.833,9.117 v 0 c 0.472,-0.074 0.944,-0.14 1.416,-0.199 v 0 c -0.061,0.007 -0.12,0.012 -0.18,0.019 v 0 c -2.272,0.275 -4.516,0.401 -6.737,0.401 v 0 c -12.796,0 -24.817,-4.189 -36.498,-8.262 v 0 c -3.739,-1.304 -7.541,-2.626 -11.392,-3.823 v 0 c -0.425,0.066 -0.847,0.114 -1.269,0.157 m 83.005,11.726 c 12.479,0.753 22.332,1.345 27.244,-2.805 v 0 c 2.979,-2.519 4.988,-4.904 5.11,-8.364 v 0 c 0.091,-2.651 -0.995,-5.863 -3.318,-9.726 v 0 c 1.59,2.688 2.414,5.065 2.524,7.194 v 0 c 0.197,3.822 -1.96,6.573 -4.094,8.761 v 0 c -5.261,5.389 -16.888,5.173 -31.655,4.694 v 0 c 1.436,0.08 2.837,0.164 4.189,0.246 m -80.254,-12.157 c 3.425,1.091 6.81,2.264 10.143,3.427 v 0 c 13.635,4.753 27.735,9.669 42.915,7.826 v 0 c 1.452,-0.175 2.891,-0.275 4.328,-0.334 v 0 c -1.037,0.028 -2.074,0.072 -3.117,0.157 v 0 c -1.592,0.129 -3.16,0.191 -4.714,0.191 v 0 c -11.673,-0.002 -22.407,-3.44 -33.693,-7.055 v 0 c -4.869,-1.561 -9.829,-3.148 -14.917,-4.449 v 0 c -0.315,0.082 -0.631,0.168 -0.945,0.237 m 107.212,6.719 c 2.129,-2.181 4.075,-4.687 3.894,-8.227 v 0 c -0.062,-1.174 -0.37,-2.445 -0.921,-3.819 v 0 c 0.105,0.406 0.19,0.808 0.245,1.203 v 0 c 0.53,3.755 -1.297,6.601 -2.949,8.66 v 0 c -4.666,5.822 -15.998,6.806 -30.05,6.709 v 0 c 13.955,0.439 24.889,0.488 29.781,-4.526 m -104.934,-7.343 c 4.701,1.245 9.289,2.713 13.8,4.159 v 0 c 12.72,4.075 24.737,7.925 38.132,6.834 v 0 c 1.749,-0.143 3.515,-0.19 5.278,-0.19 v 0 c 0.354,0 0.708,0.009 1.063,0.011 v 0 c -1.73,-0.046 -3.437,-0.064 -5.161,0.004 v 0 c -11.826,0.466 -22.472,-2.726 -33.742,-6.108 v 0 c -6.043,-1.812 -12.214,-3.66 -18.671,-4.932 v 0 c -0.234,0.081 -0.465,0.147 -0.699,0.222 m 104.963,2.479 c -4.197,6.434 -15.714,8.37 -27.984,8.689 v 0 c 13.011,-0.002 23.387,-1.107 27.672,-6.451 v 0 c 2.349,-2.934 3.187,-5.361 2.799,-8.119 v 0 c -0.076,-0.53 -0.207,-1.079 -0.385,-1.642 v 0 c 0.297,2.467 -0.383,4.886 -2.102,7.523 m -0.244,-2.685 c -3.1,5.927 -12.566,9.638 -26.24,10.574 v 0 c 14.277,-0.577 22.628,-3.279 25.889,-8.278 v 0 c 1.872,-2.87 2.434,-5.344 1.822,-8.009 v 0 c 0.053,1.848 -0.426,3.716 -1.471,5.713 m -44.328,10.38 c -2.091,-0.125 -4.112,-0.229 -6.157,-0.24 v 0 c -10.217,-0.054 -19.477,-2.714 -29.282,-5.532 v 0 c -7.179,-2.062 -14.522,-4.167 -22.427,-5.238 v 0 c -0.159,0.05 -0.321,0.108 -0.481,0.161 v 0 c 6.048,1.265 11.845,3.001 17.53,4.706 v 0 c 11.211,3.363 21.799,6.547 33.51,6.077 v 0 c 0.829,-0.032 1.663,-0.046 2.497,-0.046 v 0 c 1.607,0 3.218,0.05 4.81,0.112 m 44.08,-13.064 c -3.134,7.644 -14.452,11.541 -26.598,12.592 v 0 c 13.714,-0.841 23.184,-4.439 26.217,-10.237 v 0 c 1.118,-2.137 1.561,-4.109 1.351,-6.071 v 0 c -0.154,1.262 -0.475,2.508 -0.97,3.716 m -100.359,1.562 c 7.383,1.127 14.282,3.108 21.036,5.049 v 0 c 9.756,2.802 18.97,5.45 29.09,5.503 v 0 c 2.492,0.013 4.931,0.162 7.513,0.32 v 0 c 0.246,0.015 0.496,0.029 0.743,0.044 v 0 c -0.473,-0.039 -0.952,-0.073 -1.421,-0.114 v 0 c -1.968,-0.166 -3.827,-0.325 -5.718,-0.425 v 0 c -8.71,-0.459 -16.65,-2.705 -25.057,-5.083 v 0 c -8.195,-2.316 -16.593,-4.682 -25.958,-5.365 v 0 c -0.075,0.023 -0.153,0.048 -0.228,0.071 m 26.379,4.612 c 8.368,2.366 16.271,4.602 24.901,5.057 v 0 c 1.903,0.1 3.854,0.267 5.742,0.426 v 0 c 0.934,0.079 1.883,0.153 2.83,0.226 v 0 c -1.297,-0.134 -2.584,-0.276 -3.837,-0.421 v 0 c -1.225,-0.142 -2.442,-0.282 -3.653,-0.407 v 0 c -7.31,-0.756 -14.009,-2.677 -21.101,-4.71 v 0 c -8.914,-2.556 -18.056,-5.164 -28.646,-5.357 v 0 c 8.496,0.879 16.215,3.051 23.764,5.186 m 73.729,-8.857 c -2.208,7.11 -11.556,12.466 -23.477,14.308 v 0 c 11.79,-1.489 20.571,-5.798 23.072,-11.893 v 0 c 0.769,-1.877 1.098,-3.849 1.003,-5.828 v 0 c -0.06,1.297 -0.299,2.452 -0.598,3.413 m -93.951,3.112 c 9.196,0.629 17.339,2.951 25.299,5.233 v 0 c 7.062,2.026 13.732,3.937 20.979,4.686 v 0 c 1.214,0.125 2.433,0.268 3.662,0.409 v 0 c 1.767,0.205 3.593,0.41 5.434,0.577 v 0 c -2.456,-0.288 -4.854,-0.661 -7.181,-1.028 v 0 l -0.87,-0.137 c -6.022,-0.948 -11.826,-2.686 -17.438,-4.368 v 0 c -8.882,-2.658 -17.98,-5.381 -28.757,-5.382 v 0 c -0.374,0 -0.749,0.004 -1.128,0.01 m 3.765,-0.667 c 9.727,0.394 18.116,2.902 26.323,5.36 v 0 c 5.848,1.751 11.371,3.406 17.346,4.345 v 0 l 0.87,0.138 c 2.753,0.435 5.602,0.885 8.526,1.181 v 0 c 0.028,0.002 0.055,0.004 0.081,0.006 v 0 c -3.208,-0.419 -6.189,-1.021 -8.47,-1.511 v 0 c -4.852,-1.043 -9.551,-2.553 -14.095,-4.014 v 0 c -8.568,-2.754 -17.33,-5.568 -27.863,-5.568 v 0 c -0.893,0 -1.798,0.02 -2.718,0.063 m 89.933,-5.128 c -1.606,7.223 -9.951,13.149 -20.507,15.721 v 0 c 10.241,-2.188 18.165,-7.073 20.083,-13.248 v 0 c 0.293,-0.944 0.526,-2.084 0.572,-3.367 v 0 c -0.045,0.298 -0.082,0.596 -0.148,0.894 m -86.294,4.36 c 10.215,0.156 18.779,2.903 27.16,5.597 v 0 c 4.528,1.455 9.209,2.96 14.027,3.996 v 0 c 2.445,0.526 5.695,1.183 9.162,1.598 v 0 c 0.131,0.017 0.264,0.021 0.395,0.035 v 0 c -7.096,-1.022 -13.49,-3.268 -19.672,-5.452 v 0 c -8.3,-2.928 -16.782,-5.915 -27.154,-5.915 v 0 c -1.277,-10e-4 -2.581,0.045 -3.918,0.141 m 63.912,11.06 c 11.098,-2.251 20.051,-8.211 21.689,-15.574 v 0 c 0.106,-0.479 0.179,-0.958 0.227,-1.439 v 0 c -1.829,7.811 -11.032,14.486 -21.916,17.013 m 18.501,-12.304 c -3.455,4.723 -8.991,8.463 -15.157,10.654 v 0 c 9.516,-3.093 17.051,-9.398 18.078,-16.552 v 0 c 0.003,-0.018 0.003,-0.036 0.006,-0.055 v 0 c -0.529,2.001 -1.502,4.005 -2.927,5.953 m -106.728,5.603 c 0.011,0.003 0.023,0.009 0.034,0.012 v 0 c 0.396,-0.014 0.793,-0.043 1.191,-0.078 v 0 c -0.042,-0.013 -0.084,-0.025 -0.127,-0.038 v 0 c -0.367,0.045 -0.733,0.077 -1.098,0.104 m 2.728,-0.358 c 0.076,0.023 0.15,0.048 0.225,0.071 v 0 c 0.284,-0.047 0.568,-0.104 0.854,-0.163 v 0 c -0.094,-0.022 -0.188,-0.045 -0.281,-0.068 v 0 c -0.267,0.059 -0.532,0.111 -0.798,0.16 m 2.495,-0.587 c -0.074,0.021 -0.147,0.036 -0.22,0.057 v 0 c 0.105,0.026 0.209,0.053 0.315,0.081 v 0 c 0.184,-0.05 0.37,-0.1 0.554,-0.156 v 0 c -0.119,-0.021 -0.238,-0.042 -0.356,-0.063 v 0 c -0.099,0.028 -0.195,0.052 -0.293,0.081 m -4.108,0.106 c 0.011,0.002 0.023,0.007 0.035,0.01 v 0 c 0.214,-0.026 0.429,-0.058 0.644,-0.091 v 0 c -0.019,-0.004 -0.037,-0.009 -0.057,-0.013 v 0 c -0.207,0.037 -0.415,0.062 -0.622,0.094 m 2.304,-0.437 c 0.042,0.01 0.082,0.021 0.123,0.031 v 0 c 0.091,-0.021 0.182,-0.045 0.273,-0.067 v 0 c -0.044,-0.007 -0.087,-0.014 -0.129,-0.02 v 0 c -0.089,0.018 -0.177,0.036 -0.267,0.056 m 3.668,-0.185 c 0.07,0.013 0.14,0.028 0.21,0.043 v 0 c 0.084,-0.03 0.165,-0.056 0.249,-0.085 v 0 c -0.067,-0.007 -0.135,-0.015 -0.203,-0.023 v 0 c -0.085,0.023 -0.17,0.042 -0.256,0.065 m 104.914,-9.641 c 0.35,0.491 0.678,0.972 0.983,1.443 v 0 c -0.31,-0.484 -0.643,-0.979 -0.988,-1.482 v 0 c 10e-4,0.013 0.003,0.026 0.005,0.039 m -150.496,-9.77 c 3.416,2.85 6.726,5.61 9.981,8.131 v 0 c -2.892,-2.385 -5.793,-4.931 -8.726,-7.509 v 0 C 53.402,149.639 39.292,137.255 21.841,134.406 v 0 c 16.819,3.937 30.57,15.394 43.016,25.779 m -1.674,-0.081 c 2.896,2.294 5.717,4.527 8.489,6.617 v 0 c -2.381,-1.913 -4.798,-3.929 -7.27,-5.992 v 0 C 51.184,149.702 36.507,137.465 18.247,134.419 v 0 c 17.637,4.078 31.97,15.418 44.936,25.685 m 149.555,6.507 c 0.004,-0.075 0.007,-0.149 0.009,-0.223 v 0 c -2.471,-3.152 -5.563,-6.648 -9.295,-10.514 v 0 c -1.091,-0.684 -2.285,-1.366 -3.594,-2.039 v 0 c 5.485,4.836 9.746,9.057 12.88,12.776 M 61.574,160.037 c 2.379,1.788 4.707,3.537 6.998,5.207 v 0 c -1.914,-1.484 -3.855,-3.019 -5.83,-4.584 v 0 C 48.98,149.763 33.67,137.65 14.534,134.403 v 0 c 18.542,4.238 33.514,15.474 47.04,25.634 m 151.155,5.153 c -0.002,-0.033 -0.008,-0.064 -0.01,-0.097 v 0 c -0.234,-0.488 -0.498,-0.983 -0.807,-1.485 v 0 c -0.189,-0.308 -0.398,-0.622 -0.622,-0.94 v 0 c -1.2,-1.545 -2.814,-3.174 -4.97,-4.816 v 0 c 2.457,2.631 4.588,5.069 6.409,7.338 M 60.056,159.996 c 1.764,1.257 3.499,2.494 5.213,3.694 v 0 c -1.358,-1.01 -2.732,-2.041 -4.122,-3.086 v 0 C 46.836,149.854 30.899,137.89 10.852,134.384 v 0 c 19.486,4.45 35.107,15.572 49.204,25.612 m -1.387,-0.001 c 1.022,0.689 2.032,1.372 3.036,2.046 v 0 c -0.683,-0.486 -1.37,-0.973 -2.061,-1.467 v 0 C 44.725,149.949 28.089,138.111 6.997,134.331 v 0 c 20.581,4.691 36.937,15.72 51.672,25.664 m 147.406,0.631 c 0.078,0.059 0.158,0.119 0.236,0.179 v 0 c -2.556,-2.523 -5.517,-5.236 -8.896,-8.156 v 0 c -0.935,-0.428 -1.92,-0.851 -2.957,-1.269 v 0 c 4.566,3.361 8.423,6.428 11.617,9.246 M 57.479,160.061 c 0.118,0.076 0.236,0.151 0.355,0.227 v 0 C 42.328,149.825 25.007,138.237 2.867,134.204 v 0 c 21.915,4.971 39.131,15.965 54.612,25.857 m 149.255,-4.675 c 1.638,1.278 2.891,2.541 3.839,3.736 v 0 c -1.222,-1.851 -2.876,-3.497 -4.874,-4.956 v 0 c 0.35,0.41 0.696,0.818 1.035,1.22 m -4.961,-2.244 c 1.821,1.003 3.376,2.02 4.7,3.033 v 0 c -0.081,-0.096 -0.161,-0.191 -0.242,-0.287 v 0 c -1.321,-1.026 -2.897,-2.061 -4.786,-3.075 v 0 c 0.11,0.11 0.219,0.219 0.328,0.329 m -3.187,2.25 c -2.048,-1.591 -4.275,-3.254 -6.673,-4.986 v 0 c -0.763,-0.277 -1.554,-0.551 -2.369,-0.82 v 0 c 3.337,2.036 6.349,3.968 9.042,5.806 m 1.258,-4.174 c 1.719,0.822 3.225,1.663 4.541,2.508 v 0 c -0.286,-0.329 -0.574,-0.662 -0.866,-0.998 v 0 c -1.387,-0.834 -2.889,-1.601 -4.484,-2.304 v 0 c 0.271,0.266 0.543,0.532 0.809,0.794 m -4.018,-0.863 c 1.39,0.557 2.673,1.128 3.86,1.706 v 0 c -0.092,-0.091 -0.182,-0.181 -0.275,-0.273 v 0 c -1.167,-0.554 -2.436,-1.097 -3.813,-1.628 v 0 c 0.077,0.065 0.151,0.129 0.228,0.195 m 6.337,0.832 c -0.046,-0.051 -0.09,-0.102 -0.136,-0.154 v 0 c -0.075,-0.007 -0.149,-0.023 -0.225,-0.033 v 0 c 0.121,0.062 0.244,0.125 0.361,0.187 m -11.645,-0.169 c -1.234,-0.764 -2.518,-1.544 -3.845,-2.337 v 0 c -0.519,-0.155 -1.043,-0.309 -1.58,-0.461 v 0 c 1.901,0.951 3.708,1.884 5.425,2.798 m 7.441,-0.655 c -0.048,-0.047 -0.094,-0.093 -0.142,-0.14 v 0 c -0.092,-0.006 -0.182,-0.024 -0.272,-0.035 v 0 c 0.137,0.059 0.279,0.116 0.414,0.175 m -4.156,-0.782 c -0.058,-0.049 -0.115,-0.096 -0.173,-0.146 v 0 c -0.027,-0.009 -0.055,-0.018 -0.082,-0.027 v 0 c -0.107,-0.009 -0.214,-0.026 -0.32,-0.038 v 0 c 0.195,0.07 0.383,0.141 0.575,0.211 m -4.111,-2.126 c 1.396,0.401 2.714,0.817 3.953,1.247 v 0 c 0.013,0 0.025,0.002 0.038,0.003 v 0 c -0.287,-0.183 -0.573,-0.38 -0.86,-0.591 v 0 c -1.281,-0.402 -2.591,-0.772 -3.922,-1.117 v 0 c 0.264,0.162 0.527,0.316 0.791,0.458 m -6.085,-1.538 c 1.3,0.286 2.547,0.584 3.737,0.893 v 0 c -0.139,-0.099 -0.276,-0.197 -0.415,-0.301 v 0 c -1.213,-0.286 -2.436,-0.553 -3.667,-0.798 v 0 c 0.115,0.069 0.23,0.139 0.345,0.206 m -5.478,-1.072 c 1.2,0.209 2.366,0.425 3.486,0.651 v 0 c -0.072,-0.048 -0.143,-0.093 -0.214,-0.142 v 0 c -1.136,-0.208 -2.274,-0.404 -3.407,-0.582 v 0 c 0.045,0.025 0.09,0.048 0.135,0.073 m -2.007,-0.336 -0.038,-0.023 c -0.298,-0.041 -0.593,-0.081 -0.889,-0.121 v 0 c 0.312,0.047 0.62,0.096 0.927,0.144"
                 style="fill:url(#linearGradient35);stroke:none"
                 id="path37" />
            </g>
          </g>
        </g>
      </g>
      <g
         id="g39">
        <g
           id="g41"
           clip-path="url(#clipPath45)">
          <g
             id="g47">
            <g
               id="g49" />
            <g
               id="g73"
               mask="url(#mask61)">
              <g
                 id="g75">
                <path
                   d="m 649.891,203.507 c -22.924,-23.738 -36.192,-56.519 -65.225,-73.295 v 0 c -20.755,-11.993 -46.342,-13.697 -70.663,-12.689 v 0 c -24.319,1.008 -50.228,2.424 -74.52,1.304 v 0 C 335.481,114.037 294.004,32.768 281.457,0 V 0 H 750 v 241.753 c -1.585,0.053 -3.174,0.08 -4.76,0.08 v 0 c -35.563,0.001 -71.337,-13.46 -95.349,-38.326"
                   style="fill:url(#linearGradient81);stroke:none"
                   id="path83" />
              </g>
            </g>
          </g>
        </g>
      </g>
      <g
         id="g85">
        <g
           id="g87">
          <g
             id="g93">
            <g
               id="g95">
              <path
                 d="m 704.704,205.702 c -24.85,-8.901 -45.036,-25.257 -63.472,-42.177 v 0 c -18.437,-16.918 -35.942,-34.91 -57.777,-48.481 v 0 C 557.304,98.791 525.421,89.516 493.212,88.791 v 0 c -7.528,-0.17 -15.079,0.114 -22.624,0.397 v 0 c -12.781,0.48 -25.545,0.96 -38.143,-0.76 v 0 C 400.83,84.108 372.442,65.069 359.774,39.689 v 0 V 0 H 750 v 211.421 c -3.233,0.34 -6.505,0.505 -9.79,0.505 v 0 c -12.097,0 -24.372,-2.236 -35.506,-6.224"
                 style="fill:url(#linearGradient101);stroke:none"
                 id="path103" />
            </g>
          </g>
        </g>
      </g>
      <g
         id="g105">
        <g
           id="g107"
           clip-path="url(#clipPath111)">
          <g
             id="g113">
            <g
               id="g115" />
            <g
               id="g139"
               mask="url(#mask127)">
              <g
                 id="g141">
                <path
                   d="M 724.47,184.565 C 714,169.676 706.029,153.069 689.747,141.769 v 0 c -20.351,-14.126 -49.468,-17.093 -76.699,-18.41 v 0 c -27.231,-1.317 -55.894,-1.926 -79.309,-12.811 v 0 c -13.91,-6.466 -25.982,-16.621 -38.523,-25.204 v 0 C 469.207,67.548 440.414,68.271 411.298,68.995 v 0 c -10.988,0.274 -22.022,0.546 -32.97,-0.176 v 0 C 330.587,65.67 308.629,18.458 301.836,0 V 0 H 750 v 208.919 c -10.613,-6.108 -19.097,-15.209 -25.53,-24.354"
                   style="fill:url(#linearGradient147);stroke:none"
                   id="path149" />
              </g>
            </g>
          </g>
        </g>
      </g>
      <g
         id="g151">
        <g
           id="g153">
          <g
             id="g159">
            <g
               id="g161">
              <path
                 d="m 724.657,109.663 c -4.943,-9.228 -15.472,-38.81 -49.018,-36.764 v 0 c -13.556,0.826 -71.345,18.906 -84.396,21.112 v 0 c -39.599,6.696 -72.596,-2.167 -99.102,-27.273 v 0 C 472.18,47.831 453.227,28.574 433.437,9.725 v 0 C 429.926,6.38 426.242,3.113 422.401,0 V 0 H 750 v 135.363 c -10.338,-4.454 -19.314,-14.445 -25.343,-25.7"
                 style="fill:url(#linearGradient167);stroke:none"
                 id="path169" />
            </g>
          </g>
        </g>
      </g>
      <g
         id="g171">
        <g
           id="g173">
          <g
             id="g179">
            <g
               id="g181">
              <path
                 d="M 0,500 V 263.577 c 35.527,0.027 71.254,13.486 95.243,38.326 v 0 c 22.923,23.739 36.191,56.518 65.224,73.295 v 0 c 20.754,11.993 46.342,13.698 70.662,12.689 v 0 c 24.32,-1.008 50.228,-2.423 74.522,-1.304 v 0 c 98.665,4.545 141.058,77.923 155.861,113.417 v 0 z"
                 style="fill:url(#linearGradient187);stroke:none"
                 id="path189" />
            </g>
          </g>
        </g>
      </g>
      <g
         id="g191">
        <g
           id="g193">
          <g
             id="g199">
            <g
               id="g201">
              <path
                 d="M 0,500 V 293.609 c 13.658,-0.702 27.78,1.567 40.428,6.098 v 0 c 24.852,8.902 45.037,25.259 63.472,42.177 v 0 c 18.437,16.919 35.942,34.912 57.778,48.483 v 0 c 26.15,16.251 58.034,25.528 90.244,26.252 v 0 c 7.525,0.169 15.077,-0.114 22.621,-0.398 v 0 c 12.782,-0.48 25.546,-0.96 38.146,0.762 v 0 c 31.614,4.32 60.002,23.358 72.669,48.737 v 0 34.28 z"
                 style="fill:url(#linearGradient207);stroke:none"
                 id="path209" />
            </g>
          </g>
        </g>
      </g>
      <g
         id="g211">
        <g
           id="g213"
           clip-path="url(#clipPath217)">
          <g
             id="g219">
            <g
               id="g221" />
            <g
               id="g245"
               mask="url(#mask233)">
              <g
                 id="g247">
                <path
                   d="M 0,500 V 299.596 c 8.374,5.878 15.246,13.548 20.662,21.249 v 0 c 10.472,14.889 18.442,31.496 34.724,42.796 v 0 c 20.352,14.127 49.467,17.093 76.698,18.41 v 0 c 27.231,1.317 55.895,1.926 79.311,12.811 v 0 c 13.908,6.466 25.981,16.622 38.522,25.203 v 0 c 26.008,17.796 54.801,17.072 83.918,16.349 v 0 c 10.988,-0.273 22.022,-0.546 32.97,0.177 v 0 c 43.597,2.876 65.693,42.496 74.374,63.409 v 0 z"
                   style="fill:url(#linearGradient253);stroke:none"
                   id="path255" />
              </g>
            </g>
          </g>
        </g>
      </g>
      <g
         id="g257">
        <g
           id="g259">
          <g
             id="g265">
            <g
               id="g267">
              <path
                 d="M 0,500 V 372.603 c 8.277,5.139 15.416,13.696 20.477,23.144 v 0 c 4.942,9.228 15.471,38.811 49.017,36.764 v 0 c 13.556,-0.827 71.345,-18.905 84.396,-21.113 v 0 c 39.599,-6.695 72.595,2.168 99.102,27.275 v 0 c 19.961,18.906 38.913,38.163 58.704,57.012 v 0 c 1.528,1.455 3.088,2.896 4.68,4.315 v 0 z"
                 style="fill:url(#linearGradient273);stroke:none"
                 id="path275" />
            </g>
          </g>
        </g>
      </g>
      <g
         id="g277">
        <g
           id="g279"
           clip-path="url(#clipPath283)">
          <g
             id="g285">
            <g
               id="g287" />
            <g
               id="g317">
              <g
                 clip-path="url(#clipPath291)"
                 id="g315">
                <g
                   id="g313">
                  <g
                     id="g311">
                    <g
                       id="g309">
                      <g
                         id="g307">
                        <path
                           d="m 165.577,164.213 c -34.897,34.896 -91.476,34.896 -126.373,0 -34.897,-34.898 -34.897,-91.477 0,-126.373 34.897,-34.898 91.476,-34.898 126.373,0 34.897,34.896 34.897,91.475 0,126.373"
                           style="fill:url(#linearGradient303);stroke:none"
                           id="path305" />
                      </g>
                    </g>
                  </g>
                </g>
              </g>
            </g>
          </g>
          <g
             id="g319">
            <g
               id="g321" />
            <g
               id="g349">
              <g
                 clip-path="url(#clipPath325)"
                 id="g347">
                <g
                   id="g345">
                  <g
                     id="g343">
                    <g
                       id="g341">
                      <g
                         id="g339">
                        <path
                           d="m 610.882,362.344 c 24.927,-24.927 65.341,-24.927 90.267,0 24.927,24.927 24.927,65.341 0,90.268 -24.926,24.927 -65.34,24.927 -90.267,0 -24.927,-24.927 -24.927,-65.341 0,-90.268"
                           style="fill:url(#linearGradient335);stroke:none"
                           id="path337" />
                      </g>
                    </g>
                  </g>
                </g>
              </g>
            </g>
          </g>
          <g
             id="g351">
            <g
               id="g353" />
            <g
               id="g411">
              <g
                 clip-path="url(#clipPath357)"
                 opacity="0.789993"
                 id="g409">
                <g
                   id="g407">
                  <g
                     clip-path="url(#clipPath361)"
                     id="g405">
                    <g
                       id="g403">
                      <g
                         id="g395" />
                      <g
                         mask="url(#mask375)"
                         id="g401">
                        <g
                           id="g399">
                          <path
                             d="m 102.49,79.488 c 52.658,33.169 74.962,92.418 49.818,132.334 C 127.164,251.74 64.093,257.209 11.436,224.04 -41.222,190.87 -63.526,131.621 -38.382,91.705 -13.238,51.788 49.834,46.318 102.49,79.488"
                             style="fill:url(#radialGradient393);stroke:none"
                             id="path397" />
                        </g>
                      </g>
                    </g>
                  </g>
                </g>
              </g>
            </g>
          </g>
          <g
             id="g413">
            <g
               id="g415" />
            <g
               id="g477">
              <g
                 clip-path="url(#clipPath419)"
                 id="g475">
                <g
                   id="g473">
                  <g
                     clip-path="url(#clipPath423)"
                     id="g471">
                    <g
                       id="g469">
                      <g
                         id="g461" />
                      <g
                         mask="url(#mask439)"
                         id="g467">
                        <g
                           id="g465">
                          <path
                             d="m 762.749,370.839 c 0,-52.136 -42.264,-94.401 -94.399,-94.401 -52.136,0 -94.401,42.265 -94.401,94.401 0,52.136 42.265,94.4 94.401,94.4 52.135,0 94.399,-42.264 94.399,-94.4"
                             style="fill:url(#radialGradient459);stroke:none"
                             id="path463" />
                        </g>
                      </g>
                    </g>
                  </g>
                </g>
              </g>
            </g>
          </g>
        </g>
      </g>
      <g
         id="g479">
        <g
           id="g481">
          <g
             id="g487">
            <g
               id="g489">
              <path
                 d="m 163.345,343.363 v -5.07 h -5.071 v -3.878 h 5.071 v -5.071 h 3.877 v 5.071 h 5.071 v 3.878 h -5.071 v 5.07 z"
                 style="fill:url(#linearGradient495);stroke:none"
                 id="path497" />
            </g>
          </g>
        </g>
      </g>
      <g
         id="g499">
        <g
           id="g501">
          <g
             id="g507">
            <g
               id="g509">
              <path
                 d="m 266.574,330.294 v -5.071 h -5.071 v -3.877 h 5.071 v -5.071 h 3.877 v 5.071 h 5.071 v 3.877 h -5.071 v 5.071 z"
                 style="fill:url(#linearGradient517);stroke:none"
                 id="path519" />
            </g>
          </g>
        </g>
      </g>
      <g
         id="g521">
        <g
           id="g523">
          <g
             id="g529">
            <g
               id="g531">
              <path
                 d="m 219.111,472.249 v -5.072 h -5.07 V 463.3 h 5.07 v -5.07 h 3.877 v 5.07 h 5.072 v 3.877 h -5.072 v 5.072 z"
                 style="fill:url(#linearGradient537);stroke:none"
                 id="path539" />
            </g>
          </g>
        </g>
      </g>
      <g
         id="g541">
        <g
           id="g543">
          <g
             id="g549">
            <g
               id="g551">
              <path
                 d="m 697.413,152.498 v -5.07 h -5.07 v -3.877 h 5.07 v -5.072 h 3.878 v 5.072 h 5.07 v 3.877 h -5.07 v 5.07 z"
                 style="fill:url(#linearGradient557);stroke:none"
                 id="path559" />
            </g>
          </g>
        </g>
      </g>
      <g
         id="g561">
        <g
           id="g563">
          <g
             id="g569">
            <g
               id="g571">
              <path
                 d="m 562.66,53.576 v -5.07 h -5.07 v -3.878 h 5.07 v -5.07 h 3.878 v 5.07 h 5.07 v 3.878 h -5.07 v 5.07 z"
                 style="fill:url(#linearGradient579);stroke:none"
                 id="path581" />
            </g>
          </g>
        </g>
      </g>
      <g
         id="g583">
        <g
           id="g585"
           clip-path="url(#clipPath589)">
          <g
             id="g591"
             transform="translate(85.896,436.2988)">
            <path
               d="m 0,0 c 0,-15.983 -12.957,-28.94 -28.94,-28.94 -15.983,0 -28.94,12.957 -28.94,28.94 0,15.983 12.957,28.94 28.94,28.94 C -12.957,28.94 0,15.983 0,0 Z"
               style="fill:none;stroke:url(#linearGradient597);stroke-width:1;stroke-linecap:butt;stroke-linejoin:miter;stroke-miterlimit:10;stroke-dasharray:none;stroke-opacity:1"
               id="path599" />
          </g>
          <g
             id="g601"
             transform="translate(694.79,67.8125)">
            <path
               d="m 0,0 c 0,-9.007 -7.302,-16.309 -16.31,-16.309 -9.006,0 -16.308,7.302 -16.308,16.309 0,9.008 7.302,16.31 16.308,16.31 C -7.302,16.31 0,9.008 0,0 Z"
               style="fill:none;stroke:url(#linearGradient607);stroke-width:1;stroke-linecap:butt;stroke-linejoin:miter;stroke-miterlimit:10;stroke-dasharray:none;stroke-opacity:1"
               id="path609" />
          </g>
          <g
             id="g611"
             transform="translate(481.8809,156.0957)">
            <path
               d="m 0,0 c 0,-2.397 -1.943,-4.341 -4.341,-4.341 -2.396,0 -4.34,1.944 -4.34,4.341 0,2.396 1.944,4.34 4.34,4.34 C -1.943,4.34 0,2.396 0,0 Z"
               style="fill:none;stroke:url(#linearGradient619);stroke-width:1;stroke-linecap:butt;stroke-linejoin:miter;stroke-miterlimit:10;stroke-dasharray:none;stroke-opacity:1"
               id="path621" />
          </g>
          <g
             id="g623"
             transform="translate(713.3252,494.8945)">
            <path
               d="m 0,0 c 0,-25.88 -20.98,-46.86 -46.86,-46.86 -25.88,0 -46.861,20.98 -46.861,46.86 0,25.88 20.981,46.86 46.861,46.86 C -20.98,46.86 0,25.88 0,0 Z"
               style="fill:none;stroke:url(#linearGradient631);stroke-width:1;stroke-linecap:butt;stroke-linejoin:miter;stroke-miterlimit:10;stroke-dasharray:none;stroke-opacity:1"
               id="path633" />
          </g>
          <g
             id="g635"
             transform="translate(60.501,31.4277)">
            <path
               d="m 0,0 c 0,-8.891 -7.208,-16.098 -16.098,-16.098 -8.89,0 -16.098,7.207 -16.098,16.098 0,8.891 7.208,16.098 16.098,16.098 C -7.208,16.098 0,8.891 0,0 Z"
               style="fill:none;stroke:url(#linearGradient641);stroke-width:1;stroke-linecap:butt;stroke-linejoin:miter;stroke-miterlimit:10;stroke-dasharray:none;stroke-opacity:1"
               id="path643" />
          </g>
        </g>
      </g>
    </g>
  </g>
</svg>
