<svg xmlns="http://www.w3.org/2000/svg" xmlns:xlink="http://www.w3.org/1999/xlink" width="820" height="620" viewBox="0 0 216.958 164.042" xmlns:v="https://vecta.io/nano"><style><![CDATA[.B{fill:#ffa412}.C{fill:#e27f2b}.D{fill:#233862}.E{fill:#2b478b}.F{fill:#e49963}.G{fill:#d9935c}.H{fill:#163560}.I{fill:#739af0}.J{fill:#7a97f3}.K{fill:#35488b}.L{fill:#4a75cb}.M{fill:#ffb27d}]]></style><path d="M2.692 2.692h211.574v158.657H2.692z" fill="#82e2d9" stroke="#000" stroke-width=".093" stroke-linejoin="round"/><path d="M148.777 80.785l2.663-13.938s-3.955.599-5.658 2.018-1.875 10.454-2.442 13.008c-.112.502-.212 1.311-.299 2.298-.322 3.673.079 9.174.383 10.717-.02.148-.145.876-.817 2.273 0 0-.346 1.072 1.924 2.68 1.447 1.025 2.737-11.314 4.246-19.054" class="G"/><path d="M151.439 66.846l-1.695 8.937-.967 5.001c-1.361 2.667-2.53 4.481-2.89 4.14-.736-.695-2.027-.781-2.846-.755l.299-2.298.128-.72c.476-3.213.747-10.982 2.314-12.288 1.703-1.419 5.658-2.018 5.658-2.018" class="B"/><path d="M149.809 75.752l-.968 5.003c-1.362 2.668-2.531 4.483-2.891 4.142-.736-.695-2.029-.781-2.847-.755l.298-2.299.129-.72 4.081-9.853 2.198 4.482" class="C"/><path d="M157.901 66.334c.03-1.381.007-3.031-.179-4.424l-5.514.901.024 3.55c-.004.001-.155 1.733 1.977 1.986s3.749-.676 3.691-2.013" class="G"/><path d="M152.286 63.101s1.299 2.663 2.788 2.663 2.885-2.504 2.885-2.504l-5.673-.159" fill="#cb7d45"/><path d="M154.813 139.559s.2-1.595.662-2.519 3.4-.336 3.4-.336.588.503.714 2.854h-4.776m-8.959-.108c.695-.424.299-3.589.299-3.589s-3.238-2.591-3.683-.607-3.077 2.875-4.575 3.117c-1.034.167-1.354.74-1.453 1.079h9.412m11.703-78.662s3.662-5.774-3.37-6.157c0 0-2.638.311-3.235-.287 0 0-2.045 3.109-.135 6.443s6.741 0 6.741 0" class="D"/><path d="M151.844 63.633c.534.42 2.1.837 2.553.886 0 0 2.322-.518 2.743-.772.655-.396.612-1.198.645-2.313.04-1.32.173-2.356.026-3.117-.174-.91-.751-1.428-2.368-1.569-2.966-.257-4.201.485-4.253 1.48l-.034.763c-.119 3.101.126 4.201.688 4.643" class="G"/><path d="M151.539 116.115l-.236 1.739c-.3 5.837-4.913 19.183-5.739 19.494-1.277.482-3.288-.542-4.34-.878-.437-.139-.73-.579-.634-1.025 2.285-10.505 3.125-25.63 3.43-34.585.155-4.511.93-7.626.93-7.626s11.254-3.003 11.32.796c.059 3.361-3.727 16.542-4.731 22.087" class="E"/><path d="M151.539 116.115l-7.519-15.256c.155-4.511.93-7.626.93-7.626s11.254-3.003 11.32.796c.059 3.361-3.727 16.542-4.731 22.087" class="D"/><path d="M149.381 93.916l5.962 43.207s2.618.632 4.654.126c0 0 1.746-22.979 1.599-28.535s1.253-14.866-.319-15.892-11.897 1.094-11.897 1.094" class="E"/><path d="M162.8 92.592c.02.503-.378.921-.88.929l-9.429.144-6.927.106c-.325.006.701-2.59.722-19.508.006-3.776 5.85-7.838 5.958-7.838l.002.001c0 .544.856 1.547 2.176 1.634 1.566.103 3.489-.677 3.489-1.579 0-.01.181.187.474.613.782 1.139 2.357 3.917 3.363 8.753.794 3.819.488 8.925 1.06 15.513.042.476-.02.899-.008 1.232" class="I"/><path d="M162.346 93.609s-1.252.562-3.596 1.047c-1.742.362-4.087.682-6.966.699-4.58.029-6.315-1.549-6.315-1.549-.325.006.7-2.588.721-19.496.005-3.774 5.846-7.834 5.954-7.834l.002.001s-.151 5.024 1.37 6.502c0 0 2.132-1.646 4.897-6.333.781 1.139 2.224 4.413 3.23 9.246.203.984.335 2.052.428 3.209.266 3.335.207 7.407.631 12.295.042.476-.02.898-.008 1.231.02.502.155.973-.348.981" class="B"/><path d="M162.346 93.609s-1.252.562-3.596 1.047c-.737-1.124-1.665-3.153-1.794-6.351-.219-5.407 4.918-12.37 4.918-12.37l.196 3.166c.266 3.335.207 7.407.631 12.295.042.476-.02.898-.008 1.231.02.502.155.974-.348.981" class="C"/><path d="M157.559 75.454l-8.739 5.045 6.921 11.986 8.738-5.045-6.92-11.986" class="E"/><path d="M162.688 68.612c-1.068-.808-3.578-1.381-4.813-1.624l-.712-.131c.129.594.418 1.525.797 2.643 1.587 4.687 4.73 12.654 4.096 12.824-.515.138-1.174.26-1.9.366-2.757.404-6.468.583-6.857.601-.031-.029-1.353-1.261-1.867-1.261-.521 0-2.022.546-2.175.968s-.214 1.177.215 1.345 2.205.589 2.665.631a1.25 1.25 0 0 0 .221-.002c3.3.97 6.139 1.446 8.328 1.671 3.054.314 4.84.139 4.84.139 2.213-4.761-1.393-17.079-2.839-18.171" class="G"/><path d="M165.527 86.782s-1.785.175-4.84-.139c.168-.83.325-2.45-.53-3.954l1.9-.366c.634-.17-2.51-8.138-4.096-12.824l-.193-2.529.108.016c1.235.244 3.745.816 4.813 1.624 1.445 1.092 5.051 13.41 2.839 18.171" class="B"/><path d="M153.378 73.046l4.323-2.025c.064-.148-.212-1.287-.507-1.624 0 0 2.047.19 2.173-.063s.221-2.336.221-2.336-.852-.882-1.906-.966l-1.268 2.985c-.907 1.814-3.037 4.029-3.037 4.029m-1.319-3.558s.274 2.189 1.011 3.706c0 0-2.221-1.548-2.412-2.053s.538-1.484.538-1.484-1.326-.032-1.358-.474.411-2.179.411-2.179 1.141-.833 1.456-.801l.355 3.286" class="C"/><path d="M159.558 57.224l-9.461.101s-.138-2.853 1.501-4.672l.238-.245a4.22 4.22 0 0 1 1.293-.84c1.891-.789 3.46-.061 4.44.685l.271.219c.534.453.832.857.832.857s.918 1.253.887 3.894" class="B"/><path d="M156.931 57.235c-.026-.384-.193-3.657.957-4.766-.085-.073-.06-.058-.157-.131-1.226 1.275-1.324 4.496-1.318 4.902l-3.026.032c-.089-2.317-1.368-4.625-1.522-4.883l-.175.179c.222.391 1.057 2.625 1.137 4.71l-2.702.029s2.521.652 4.419.628 5.044-.729 5.044-.729l-2.658.029" class="C"/><path d="M169.399 84.115h1.549c.719-.327 4.594-2.005 8.319-2.026 2.688-.014 5.751 1.993 5.935 2.015.467.055-1.556.073-1.556.073s-3.034-1.342-4.397-1.374c-1.3-.03-4.183.915-5.334 1.311h8.674c.725 0 1.319.594 1.319 1.319v9.892c0 .725-.594 1.319-1.319 1.319h-13.189c-.725 0-1.319-.594-1.319-1.319v-9.892c0-.725.594-1.319 1.319-1.319" class="B"/><path d="M172.855 84.422h13.131a1.32 1.32 0 0 1 1.313 1.313v9.848a1.32 1.32 0 0 1-1.312 1.313h-13.131a1.32 1.32 0 0 1-1.312-1.313v-9.848a1.32 1.32 0 0 1 1.313-1.313" class="C"/><path d="M103.359 84.418H33.256V34.977h70.104v49.441" class="J"/><path d="M100.932 81.847H35.683V37.546h65.249v44.301" class="K"/><path d="M87.373 137.467h-1.538l-9.616-3.324a10.16 10.16 0 0 1-6.84-9.601V83.656c0-.576-.443-1.073-1.019-1.1a1.07 1.07 0 0 0-1.123 1.07v40.915a10.16 10.16 0 0 1-6.84 9.601l-9.618 3.325h-1.751c-.577 0-1.073.443-1.1 1.019a1.07 1.07 0 0 0 1.07 1.123h1.954 4.301c.566 0 1.055-.429 1.095-.994.02-.276-.067-.531-.221-.73l7.066-2.442c3.313-1.145 6.915-1.145 10.228 0l6.901 2.385c-.176.197-.28.461-.27.749.021.581.519 1.032 1.1 1.032h4.497 1.756a1.07 1.07 0 0 0 1.069-1.123c-.027-.576-.523-1.019-1.1-1.019" class="J"/><path d="M104.287 84.418h-.928V34.977h.928v49.441m-34.909 1.987h-2.142v-1.987h2.142v1.987" class="K"/><g fill="#fff"><path d="M91.868 76.709h2.747V70.96h-2.747zm2.83.083h-2.913v-5.916h2.913v5.916"/><path d="M92.676 76.793H52.957c-.023 0-.042-.018-.042-.042s.019-.042.042-.042h39.636V65.334h-3.296V52.166h-3.212v7.133h-2.668v2.625h-4.729V60.4h-2.022v-6.052h-5.414V44.092l-4.197-1.391v6.805h-1.059v-5.103L61.8 45.991v6.021h-3.962v-4.383h-4.065v4.383h-.774v2.549h-3.306v8.696c0 .023-.019.042-.042.042s-.042-.018-.042-.042v-8.779h3.306v-2.549h.774v-4.383h4.232v4.383h3.796v-5.995l4.364-1.652v5.14h.893v-6.837l4.363 1.447v10.233h5.414v6.052h2.022v1.524h4.562v-2.625h2.668v-7.133h3.378v13.168h3.296v11.542M67.809 45.596h2.804v-.974h-2.804zm2.888.083h-2.971v-1.14h2.971v1.14"/><path d="M67.809 47.582h2.804v-.974h-2.804zm2.888.083h-2.971v-1.14h2.971v1.14m-2.888 1.705h2.804v-.974h-2.804zm2.888.083h-2.971v-1.141h2.971v1.141M86.71 58.52h2.587v-1.548H86.71zm2.67.083h-2.753v-1.715h2.753v1.715"/><use xlink:href="#B"/><use xlink:href="#B" y="2.465"/><use xlink:href="#B" x="0.054" y="5.045"/><path d="M86.111 71.102h3.241v-1.548h-3.241zm3.324.083h-3.407V69.47h3.407v1.715m-3.324 2.496h3.241v-1.548h-3.241zm3.324.083h-3.407v-1.715h3.407v1.715M62.48 49.37h2.954v-.974H62.48zm3.037.083h-3.12v-1.141h3.12v1.141m-3.037-1.855h2.954v-.974H62.48zm3.037.083h-3.12v-1.14h3.12v1.14"/><path d="M62.48 51.102h8.208v-.974H62.48zm8.291.083h-8.374v-1.14h8.374v1.14m-8.291 1.507h8.208v-.974H62.48zm8.291.083h-8.374v-1.14h8.374v1.14m-8.291 1.456h8.208v-.934H62.48zm8.291.083h-8.374v-1.1h8.374v1.1m15.286 6.751h3.241v-1.548h-3.241zm3.324.083h-3.407v-1.715h3.407v1.715"/><use xlink:href="#C"/><use xlink:href="#D"/><use xlink:href="#C" x="-2.683"/><use xlink:href="#C" x="-3.941"/><use xlink:href="#D" x="-3.866"/><use xlink:href="#C" x="-6.519"/><use xlink:href="#D" x="-6.519"/><use xlink:href="#E"/><use xlink:href="#E" x="-1.257"/><use xlink:href="#E" x="-2.539"/><use xlink:href="#E" x="-3.875"/><use xlink:href="#E" x="-5.232"/><use xlink:href="#E" x="-6.558"/><use xlink:href="#E" x="-7.816"/><use xlink:href="#E" x="-9.098"/><use xlink:href="#E" x="-10.395"/><use xlink:href="#E" x="-11.751"/><use xlink:href="#E" x="-13.078"/><use xlink:href="#E" x="-14.336"/><use xlink:href="#E" x="-15.618"/><use xlink:href="#C" y="1.805"/><use xlink:href="#D" y="1.805"/><use xlink:href="#C" x="-2.683" y="1.805"/><use xlink:href="#C" x="-3.941" y="1.805"/><use xlink:href="#D" x="-3.866" y="1.805"/><use xlink:href="#C" x="-6.519" y="1.805"/><use xlink:href="#D" x="-6.519" y="1.805"/><use xlink:href="#E" y="1.805"/><use xlink:href="#E" x="-1.257" y="1.805"/><use xlink:href="#E" x="-2.539" y="1.805"/><use xlink:href="#E" x="-3.875" y="1.805"/><use xlink:href="#E" x="-5.232" y="1.805"/><use xlink:href="#E" x="-6.558" y="1.805"/><use xlink:href="#E" x="-7.816" y="1.805"/><use xlink:href="#E" x="-9.098" y="1.805"/><use xlink:href="#E" x="-10.395" y="1.805"/><use xlink:href="#E" x="-11.751" y="1.805"/><use xlink:href="#E" x="-13.078" y="1.805"/><use xlink:href="#E" x="-14.336" y="1.805"/><use xlink:href="#E" x="-15.618" y="1.805"/><use xlink:href="#F"/><use xlink:href="#G"/><use xlink:href="#F" x="-2.683"/><use xlink:href="#F" x="-3.941"/><use xlink:href="#G" x="-3.866"/><use xlink:href="#F" x="-6.519"/><use xlink:href="#G" x="-6.519"/><use xlink:href="#H"/><use xlink:href="#H" x="-1.257"/><use xlink:href="#H" x="-2.539"/><use xlink:href="#H" x="-3.875"/><use xlink:href="#H" x="-5.232"/><use xlink:href="#H" x="-6.558"/><use xlink:href="#H" x="-7.816"/><use xlink:href="#H" x="-9.098"/><use xlink:href="#H" x="-10.395"/><use xlink:href="#H" x="-11.751"/><use xlink:href="#H" x="-13.078"/><use xlink:href="#H" x="-14.336"/><use xlink:href="#H" x="-15.618"/><use xlink:href="#C" y="5.47"/><use xlink:href="#D" y="5.47"/><use xlink:href="#C" x="-2.683" y="5.47"/><use xlink:href="#C" x="-3.941" y="5.47"/><use xlink:href="#D" x="-3.866" y="5.47"/><use xlink:href="#C" x="-6.519" y="5.47"/><use xlink:href="#D" x="-6.519" y="5.47"/><use xlink:href="#E" y="5.47"/><use xlink:href="#E" x="-1.257" y="5.47"/><use xlink:href="#E" x="-2.539" y="5.47"/><use xlink:href="#E" x="-3.875" y="5.47"/><use xlink:href="#E" x="-5.232" y="5.47"/><use xlink:href="#E" x="-6.558" y="5.47"/><use xlink:href="#E" x="-7.816" y="5.47"/><use xlink:href="#E" x="-9.098" y="5.47"/><use xlink:href="#E" x="-10.395" y="5.47"/><use xlink:href="#E" x="-11.751" y="5.47"/><use xlink:href="#E" x="-13.078" y="5.47"/><use xlink:href="#E" x="-14.336" y="5.47"/><use xlink:href="#E" x="-15.618" y="5.47"/><use xlink:href="#C" y="7.274"/><use xlink:href="#D" y="7.274"/><use xlink:href="#C" x="-2.683" y="7.274"/><use xlink:href="#C" x="-3.941" y="7.274"/><use xlink:href="#D" x="-3.866" y="7.274"/><use xlink:href="#C" x="-6.519" y="7.274"/><use xlink:href="#D" x="-6.519" y="7.274"/><use xlink:href="#E" y="7.274"/><use xlink:href="#E" x="-1.257" y="7.274"/><use xlink:href="#E" x="-2.539" y="7.274"/><use xlink:href="#E" x="-3.875" y="7.274"/><use xlink:href="#E" x="-5.232" y="7.274"/><use xlink:href="#E" x="-6.558" y="7.274"/><use xlink:href="#E" x="-7.816" y="7.274"/><use xlink:href="#E" x="-9.098" y="7.274"/><use xlink:href="#E" x="-10.395" y="7.274"/><use xlink:href="#E" x="-11.751" y="7.274"/><path d="M51.656 63.554h.642v-.939h-.642zm.726.083h-.751c-.032 0-.058-.026-.058-.057v-1.049h.809v1.106"/><use xlink:href="#E" x="-13.078" y="7.274"/><path d="M50.374 63.339l.642.11v-.834h-.642zm.726.209l-.809-.139v-.877h.809v1.016"/><use xlink:href="#C" y="9.052"/><use xlink:href="#D" y="9.052"/><use xlink:href="#C" x="-2.683" y="9.052"/><use xlink:href="#C" x="-3.941" y="9.052"/><use xlink:href="#D" x="-3.866" y="9.052"/><use xlink:href="#C" x="-6.519" y="9.052"/><use xlink:href="#D" x="-6.519" y="9.052"/><use xlink:href="#E" y="9.052"/><use xlink:href="#E" x="-1.257" y="9.052"/><use xlink:href="#E" x="-2.539" y="9.052"/><use xlink:href="#E" x="-3.875" y="9.052"/><use xlink:href="#E" x="-5.232" y="9.052"/><use xlink:href="#E" x="-6.558" y="9.052"/><use xlink:href="#E" x="-7.816" y="9.052"/><use xlink:href="#E" x="-9.098" y="9.052"/><use xlink:href="#E" x="-10.395" y="9.052"/><use xlink:href="#E" x="-11.751" y="9.052"/><path d="M42.678 68.944h1.531v-6.573h-1.531zm1.614.083h-1.698v-6.74h1.698v6.74m36.662-7.19h2.382v-2.542h-1.181l-.004-2.127v2.127h-1.197zm2.465.083H80.87v-2.708h1.197v-2.127h.171v2.127h1.181v2.708m5.92-8.16h.001zm-4.493-1.591v7.049l1.157-.002v-3.072h3.295v-1.548l-2.67.004v-.878l2.67-.005v-1.549h-.693l-.004-.71v.71h-3.137l-.003-.71v.71zm-.083 7.133v-7.216h.614v-.71h.17v.71h2.971v-.71h.171v.71h.693v1.716l-2.67.004v.712l2.67-.005v1.716h-3.295V59.3l-1.323.002"/><path d="M53.506 73.166c-.023 0-.042-.019-.042-.042v-9.172l-9.222-1.583c-.023-.004-.038-.026-.034-.048s.025-.037.048-.034l9.291 1.596v9.241c0 .022-.019.042-.042.042"/><path d="M42.001 76.709h11.464v-7.682H42.001zm11.547.083H41.917v-7.849h11.631v7.849m-11.547-9.965h11.464v-2.441H42.001zm11.547.083H41.917v-2.608h11.631v2.608"/><use xlink:href="#I"/><use xlink:href="#I" x="-1.109"/><use xlink:href="#I" x="-2.193"/><use xlink:href="#I" x="-3.221"/><use xlink:href="#I" x="-4.269"/><use xlink:href="#I" x="-5.329"/><use xlink:href="#I" x="-6.438"/><use xlink:href="#I" x="-7.522"/><use xlink:href="#I" x="-8.55"/><use xlink:href="#I" x="-9.598"/><use xlink:href="#I" y="1.475"/><use xlink:href="#I" x="-1.109" y="1.475"/><use xlink:href="#I" x="-2.193" y="1.475"/><use xlink:href="#I" x="-3.221" y="1.475"/><use xlink:href="#I" x="-4.269" y="1.475"/><use xlink:href="#I" x="-5.329" y="1.475"/><use xlink:href="#I" x="-6.438" y="1.475"/><use xlink:href="#I" x="-7.522" y="1.475"/><use xlink:href="#I" x="-8.55" y="1.475"/><use xlink:href="#I" x="-9.598" y="1.475"/><use xlink:href="#I" y="-3.553"/><use xlink:href="#I" x="-1.109" y="-3.553"/><use xlink:href="#I" x="-2.193" y="-3.553"/><use xlink:href="#I" x="-3.221" y="-3.553"/><use xlink:href="#I" x="-4.269" y="-3.553"/><use xlink:href="#I" x="-5.329" y="-3.553"/><use xlink:href="#I" x="-6.438" y="-3.553"/><use xlink:href="#I" x="-7.522" y="-3.553"/><use xlink:href="#I" y="-1.497"/><use xlink:href="#I" x="-1.109" y="-1.497"/><use xlink:href="#I" x="-2.193" y="-1.497"/><use xlink:href="#I" x="-3.221" y="-1.497"/><use xlink:href="#I" x="-4.269" y="-1.497"/><use xlink:href="#I" x="-5.329" y="-1.497"/><use xlink:href="#I" x="-6.438" y="-1.497"/><use xlink:href="#I" x="-7.522" y="-1.497"/><use xlink:href="#I" x="-8.55" y="-1.497"/><use xlink:href="#I" x="-9.598" y="-1.497"/><use xlink:href="#I" y="2.928"/><use xlink:href="#I" x="-1.109" y="2.928"/><use xlink:href="#I" x="-2.193" y="2.928"/><use xlink:href="#I" x="-3.221" y="2.928"/><use xlink:href="#I" x="-4.269" y="2.928"/><use xlink:href="#I" x="-5.329" y="2.928"/><use xlink:href="#I" x="-6.438" y="2.928"/><use xlink:href="#I" x="-7.522" y="2.928"/><use xlink:href="#I" x="-8.55" y="2.928"/><use xlink:href="#I" x="-9.598" y="2.928"/><path d="M44.913 62.401l.088.015v-1.779h-.088zm.171.113l-.254-.043v-1.917h.254v1.961"/><use xlink:href="#J"/><use xlink:href="#J" x="-4.948"/><use xlink:href="#J" x="-8.884"/><path d="M67.682 76.664h16.535v-9.638H67.682zm16.618.083H67.599v-9.805H84.3v9.804m-15.966-7.453h.802v-1.269h-.802zm.885.083h-.969V67.94h.969v1.436"/><use xlink:href="#K"/><use xlink:href="#K" x="1.573"/><use xlink:href="#K" x="3.135"/><use xlink:href="#K" x="4.745"/><use xlink:href="#K" x="6.307"/><use xlink:href="#K" x="7.879"/><use xlink:href="#K" x="9.442"/><path d="M80.977 69.293h.802v-1.269h-.802zm.885.083h-.969V67.94h.969v1.436"/><use xlink:href="#K" x="12.643"/><path d="M68.334 71.293h.802v-1.269h-.802zm.885.083h-.969v-1.436h.969v1.436"/><use xlink:href="#L"/><use xlink:href="#L" x="1.573"/><use xlink:href="#L" x="3.135"/><use xlink:href="#L" x="4.745"/><use xlink:href="#L" x="6.307"/><use xlink:href="#L" x="7.879"/><use xlink:href="#L" x="9.442"/><path d="M80.977 71.293h.802v-1.269h-.802zm.885.083h-.969v-1.436h.969v1.436"/><use xlink:href="#L" x="12.643"/><path d="M68.334 73.443h.802v-1.27h-.802zm.885.083h-.969v-1.437h.969v1.437"/><use xlink:href="#M"/><use xlink:href="#M" x="1.573"/><use xlink:href="#M" x="3.135"/><use xlink:href="#M" x="4.745"/><use xlink:href="#M" x="6.307"/><use xlink:href="#M" x="7.879"/><use xlink:href="#M" x="9.442"/><path d="M80.977 73.443h.802v-1.27h-.802zm.885.083h-.969v-1.437h.969v1.437"/><use xlink:href="#M" x="12.643"/><path d="M68.334 75.443h.802v-1.27h-.802zm.885.083h-.969V74.09h.969v1.437"/><use xlink:href="#N"/><use xlink:href="#N" x="1.573"/><use xlink:href="#N" x="3.135"/><use xlink:href="#N" x="4.745"/><use xlink:href="#N" x="6.307"/><use xlink:href="#N" x="7.879"/><use xlink:href="#N" x="9.442"/><path d="M80.977 75.443h.802v-1.27h-.802zm.885.083h-.969V74.09h.969v1.437"/><use xlink:href="#N" x="12.643"/><path d="M78.575 66.943h3.385v-2.477l-3.385 1.296zm3.468.083h-3.551v-1.322l3.551-1.359v2.681m-28.495 9.683h7.853v-5.814l-7.853-2.718zm7.936.083h-8.019V68.06l8.019 2.776v5.957"/><use xlink:href="#O"/><use xlink:href="#O" y="0.857"/><use xlink:href="#O" y="1.714"/><use xlink:href="#O" y="2.571"/><use xlink:href="#O" y="3.429"/><use xlink:href="#O" y="4.286"/><path d="M82.043 66.943h.583v-2.496h-.583zm.666.083h-.75v-2.663h.75v2.663m-2.751-.482h1.269v-.803h-1.269zm1.353.083h-1.436v-.969h1.436v.969"/><use xlink:href="#P"/><use xlink:href="#P" x="0.914"/><use xlink:href="#P" x="1.817"/><use xlink:href="#P" x="2.75"/></g><path d="M192.779 81.137l-2.847.507c-.284.05-.485.263-.447.473l10.202 57.313c.038.21.3.339.581.289l2.849-.507c.282-.05.483-.262.446-.471l-10.202-57.314c-.036-.209-.297-.34-.581-.29" fill="#f1a34f"/><path d="M192.921 81.087l-2.85.507c-.283.05-.484.263-.446.473l.316 1.777 3.878-.69-.316-1.777c-.037-.209-.298-.34-.582-.29m6.766 58.343c.038.21.3.339.581.289l2.849-.507c.282-.05.483-.262.446-.471l-.273-1.532-3.874.69.273 1.531" class="E"/><path d="M191.052 85.473c-.161.028-.275.149-.254.268l8.936 50.207c.021.119.17.193.331.164s.274-.149.253-.268l-8.936-50.207c-.021-.119-.17-.193-.33-.164" class="C"/><path d="M50.373 137.895l1.865-.025s-2.804-3.112-3.665-4.697l-2.367-4.372-3.099.766 3.933 5.574 3.333 2.753" class="F"/><path d="M32.88 52.808c-.715-.406-1.572-.451-2.171-.415.154-.159.458-.217.458-.217-.372-.055-1.201.313-1.201.313-5.168-1.991-3.913 5.53-3.804 7.298s-3.805 2.434-6.494 3.826c-5.131 2.659-5.581 6.217-5.581 6.217l.126.081c.255-.431.779-1.241 1.22-1.363l-.711 1.732c1.514 1.152 4.345 3.703 6.319 5.512-.009-.354.005-.855.134-1.121l.244 1.468 1.784 1.654c-.13-1.429 6.462-8.968 9.901-11.227.837-1.233 1.135-3.41 1.157-3.581-.145 1.727-.44 2.695-.704 3.241 2.912-2.681 1.217-12.341-.678-13.417" class="H"/><path d="M32.901 66.678c.017.008-1.661.88-2.923.534-1.187-.323-1.963-1.863-1.946-1.866.503-.1.648-.79.637-3.76l.227.045 3.821.757-.09 2.335c-.003.951.055 1.853.273 1.955" class="F"/><path d="M28.579 54.055s1.885-2.007 4.252-.103c0 0-1.377-.238-4.252.103" fill="#e37970"/><path d="M32.718 62.388l-.09 2.335c-2.138-.06-3.269-2.011-3.732-3.092l3.821.757" fill="#d68d5d"/><path d="M28.501 61.216s-1.121-1.771-1.39-3.285c-.192-1.081.359-5.088 4.385-4.511 0 0 1.169.115 2.269.858.874.591 2.136 1.865.725 5.361l-.366 1.181-5.623.396" class="H"/><path d="M47.949 131.646l-2.026.062-2.193.067s-5.065-5.639-7.905-14.678l-.21-.638c-1.555-4.533-4.778-10.223-6.476-15.374l-.731-2.324-.202-.69c-1.252-4.349-1.614-7.204-1.948-10.255l10.846.087s3.399 20.844 10.846 43.744" class="E"/><path d="M36.805 80.866c.144 5.834.856 8.34.856 8.34s-5.251 2.668-11.493.704c-.073-.023.405-24.11 2.175-24.774.407.506 1.62.999 2.7.975 1.243-.027 1.646-.56 1.582-1.141 1.325.738 3.974 7.541 4.18 15.895" fill="#e7f1fd"/><path d="M33.432 63.461s-5.059.083-5.063-3.068-.659-5.264 2.571-5.449 3.859 1.015 4.116 2.066-.309 6.348-1.625 6.451" class="F"/><path d="M34.906 55.257c-.781-.946-1.371-.74-1.703-.456-1.093-1.633-4.549.73-4.549.73-1.7 1.619-1.969 3.556-1.969 3.556s.922.57 3.048.023c1.673-.431 2.887-2.812 3.329-3.807.301.267.936.885 1.126 1.491.252.802.366 2.454.847 2.399 0 0 1.044-2.514-.129-3.935" class="H"/><path d="M53.791 68.691s.713-2.57 3.539-2.207c.324.102 1.272.479.666 1.494-.446.747-.64.361-1.342 1.367s-1.465 1.232-2.336 1.112l-.528-1.766m-24.149 69.024l-.5-2.584.076-5.811h-3.529l1.32 5.562a5.66 5.66 0 0 1-.271 2.322s-.339 1.544 1.182 1.573 1.894-.115 1.722-1.062" class="F"/><path d="M26.737 137.204s-.301 1.63-.129 2.404h1.551 1.644s.014-1.77-.266-2.444c0 0-1.078 1.617-2.8.039m25.532.683c-.01-.004-.021-.009-.031-.016-.746.023-1.498-.251-2.179-1.017-2.071-2.334-3.236-2.594-3.642-2.594-.349.72-.736 1.53-.239 2.443l.742 2.906h.8l.008-2.743c.527.139 1.041.391 1.27.85.56 1.119.948 1.894 1.468 1.894h3.595s-.07-.947-1.791-1.722" class="D"/><path d="M53.791 68.691l-4.507 2.392-3.329 1.549a1.71 1.71 0 0 1-2.028-.437c-1.8-2.103-6.465-6.665-11.279-7.224l.006.012-.028-.012s2.927 7.232 3.013 8.695.344 23.932.344 23.932-.172 1.033 1.808.603 2.497-.861 2.497-.861-1.894-13.86-1.377-18.681c.102-.95.009-2.018-.205-3.122 2.933 1.784 6.403 2.577 6.403 2.577s2.594-1.132 6.141-3.73c1.113-.816 3.069-3.927 3.069-3.927l-.528-1.766" class="B"/><path d="M45.923 131.708l-2.193.067s-5.065-5.639-7.905-14.678l-.21-.638c-1.555-4.533-4.778-10.223-6.476-15.374l-.731-2.324-.202-.69 1.806-1.37s5.423 8.781 7.101 17.045c1.458 7.178 7.298 15.814 8.81 17.962" class="D"/><path d="M30.2 114.515c.031 4.019-.172 13.257-.696 17.082h-1.942c-1.074 0-1.609-.016-1.609-.016-1.313-6.65-2.247-12.152-2.927-16.895l-1.435-10.099c-.384-2.89-.651-5.31-.746-7.354l-.032-.939-.005-.891 10.597-1.033c-.133 7.041-1.222 17.808-1.205 20.145" class="E"/><path d="M27.562 131.597c-1.074 0-1.609-.016-1.609-.016-1.313-6.65-2.247-12.152-2.927-16.895l-1.435-10.099c-.384-2.89-.651-5.31-.746-7.354l3.889 2.287s-2.482.875-1.535 7.504 3.046 23.633 4.364 24.572" class="D"/><path d="M28.063 97.168s-.746 2.698-3.329 2.353-6.255-1.894-6.255-1.894l2.476-8.069c1.661-5.547 3.718-12.697 4.687-17.207.272-1.264.458-2.32.527-3.075l2.174-4.139s3.163 7.153 3.335 8.96-3.616 23.071-3.616 23.071" class="B"/><path d="M27.948 77.885c-.115 2.927-.804 8.609-6.945 11.65-.016.007-.033.017-.049.023 1.661-5.547 3.718-12.697 4.687-17.207 1.128 1.686 2.369 3.922 2.306 5.534" class="C"/><path d="M39.06 76.284c-.003.351-1.015 2.797-2.798 4.258-.345.283-.622.421-.842.458-2.903.994-5.423 1.51-7.468 1.762v-3.24l6.921-.4c.211-.336.458-.811.541-1.292.153-.891.63-1.552 1.873-1.715s1.777-.181 1.774.169" class="F"/><path d="M28.343 65.137s-5.274.351-6.536 3.163-1.664 12.167-.057 14.922c0 0 2.212.63 6.125-.102l.145-.027c0 0 1.248-3.056.129-3.658 0 0-3.3.172-2.956-.919s3.15-13.379 3.15-13.379" class="B"/><path d="M138.956 92.853l-3.083-.042a.35.35 0 0 0-.105-.018.35.35 0 0 0-.1.015c-.403.123-.723 1-.732 2.067l.001.165c.01.47.081.896.192 1.228.122.356.292.603.482.676.047.017.084.024.121.024s.07-.005.106-.017l26.955.364.029-2.061.026-2.078-23.893-.322" fill="#fff"/><path d="M150.743 96.756c-5.684.474-9.111-2.06-11.764-3.912l-3.082-.042c-.035-.012-.068-.017-.106-.018s-.066.004-.099.015c-.404.123-.723 1-.733 2.067-.001.056 0 .11.001.165.01.47.081.896.194 1.228.201.379.386.629.482.677.047.017.084.024.121.024s.07-.005.106-.017l26.959.364.029-2.061c-.395.107-3.071.758-12.107 1.511" fill="#bed4f4"/><path d="M163.669 92.886c-.453-.003-.827.932-.837 2.09s.35 2.101.801 2.104.826-.932.836-2.09-.349-2.1-.8-2.104" fill="#afcdfb"/><path d="M29.531 51.269c-1.04.262-1.819.679-2.402 1.181l-.168.152v.001c-2.154 2.055-1.295 5.325-1.295 5.325s.287.826.484 1.147 3.058-.049 3.206-.665.715-1.258.715-1.258l3.218-.222c.681-.049 2.626-.726 2.626-.726-.022-.191-1.116-6.256-6.384-4.934" class="B"/><path d="M37.701 55.562c-.362-.088-.979-.187-1.995-.224l-3.663 1.306c-.797-1.004-1.956-3.486-4.914-4.194l-.026-.007c-.063.079-.098.106-.142.159v.001l-.043.057c2.408.42 3.685 3.214 4.47 4.227-.674.166-.438.207-1.317.264 0 0 5.27.098 7.679-1.169.184-.097.153-.37-.049-.419m80.207-.494c2.064-3.732 7.622-3.285 7.622-3.285-5.665-1.349-8.482 3.096-8.482 3.096l-.245-.082-1.287.347 11.473 2.309-9.081-2.385" class="C"/><g class="J"><path d="M106.377 139.776h-2.106v-41.47h2.106v41.47m79.292-.015h-2.108V98.246h2.108v41.514"/><path d="M97.317 99.019v-2.098h93.242v2.098H97.317"/></g><path d="M106.377 100.389h-2.106v-1.582h2.106v1.582m79.292-.057h-2.108v-1.584h2.108v1.584" class="K"/><path d="M189.663 92.668s-.291-.399-.812-.847l-.267-.217c-.96-.739-2.499-1.463-4.364-.697-.505.207-.926.49-1.275.819l-.236.24c-1.622 1.78-1.5 4.587-1.5 4.587l9.305-.049c.044-2.598-.852-3.835-.852-3.835" class="B"/><path d="M187.945 96.505c-.024-.392-.185-3.604.949-4.697-.083-.073-.064-.059-.157-.132-1.21 1.256-1.304 4.418-1.302 4.831l-2.976.016c-.076-2.28-1.322-4.557-1.472-4.811l-.171.176c.216.385 1.025 2.587 1.092 4.639l-2.657.013s2.475.654 4.343.642 4.964-.691 4.964-.691l-2.614.014" class="C"/><path d="M157.957 92.551l.001 2.087.001 2.07-27.064.011c-.035.013-.071.019-.106.019a.36.36 0 0 1-.11-.018c-.38-.128-.681-.922-.716-1.907l-.003-.166c-.005-1.07.304-1.956.706-2.084a.3.3 0 0 1 .101-.017c.036 0 .071.006.105.017l27.085-.011" fill="#fff"/><path d="M157.958 94.638l.001 2.07-27.064.011c-.035.013-.071.019-.106.019a.36.36 0 0 1-.11-.018c-.38-.128-.681-.922-.716-1.907 1.243.456 8.237 2.052 15.632.011 8.773-2.422 11.968-.073 12.363-.185" fill="#bed4f4"/><path d="M157.128 92.836c-.45.003-.809.938-.804 2.09s.376 2.084.826 2.081.809-.938.802-2.09-.376-2.084-.825-2.081" fill="#afcdfb"/><path d="M126.224 64.817s6.647 6.862 6.967 9.45-3.163 6.636-3.163 6.636l-3.804-16.086" class="L"/><path d="M122.099 136.174s-.224 3.615-.923 3.667c-.093.007-3.547.007-3.547.007l-4.408-.026s.028-1.063 1.317-1.287 3.447-1.13 4.227-2.833c.821-1.792 3.335.472 3.335.472m9.779.005s-.225 3.614-.923 3.666c-.094.007-3.547.007-3.547.007l-4.42-.016s.042-1.072 1.33-1.297 3.444-1.129 4.225-2.832c.821-1.791 3.334.472 3.334.472" class="H"/><path d="M118.382 96.916s1.163 7.439 5.502 20.645 4.931 18.925 4.931 18.925a19.07 19.07 0 0 0 2.413.171c.785 0 2.241-.301 2.241-.301s.04-14.433-1.96-21.074-.431-23.941-.431-23.941l-12.696 5.575" class="D"/><path d="M115.225 92.169s-.163 11.135 1.763 24.808 1.274 19.476 1.274 19.476 1.586.284 2.143.303c.596.02 2.472-.15 2.472-.15s2.757-13.677 1.966-20.52 3.777-23.482 3.777-23.482l-13.394-.434" class="E"/><path d="M125.359 65.356l-2.194 1.626-3.173-.668.444-2.574.035-.191.304-1.717 2.963-1.477 1.105-.551c-.003.02-.086 1.026-.098 1.173-.206 2.608.615 4.38.615 4.38" class="M"/><path d="M119.862 64.767c.069-.029 4.304-1.279 4.764-1.127s.733 1.041.733 1.041l-6.927 1.566s.545-1.108 1.43-1.481" class="L"/><path d="M131.162 93.225c-.718 3.272-12.655 3.66-15.733.69-.35-.338-.367-1.913-.235-4.038.258-4.149 1.087-10.391 1.119-13.58.015-1.54.227-3.115.51-4.545.6-3.049 1.514-5.441 1.514-5.441s5.83-1.885 6.921-1.564c5.256 1.544 6.62 25.207 5.903 28.479" class="I"/><path d="M115.165 89.891c.258-4.148 1.086-10.388 1.119-13.577.016-1.54.227-3.115.509-4.544l3.507-.618s3.429 14.004-5.135 18.74" class="L"/><path d="M116.784 84.256s.239.57-.262.953-.825 1.003-.711 1.457 1.213 1.193 1.595 1.074 1.156-.716 1.073-.956.521-2.098-.407-2.813-1.287.287-1.287.287" class="M"/><path d="M121.181 65.364s-3.425.641-6.154 4.663-4.525 7.012-4.021 8.461 5.085 6.477 5.874 6.477 2.065-.574 2.137-1.867c0 0-3.227-4.835-2.591-5.56.272-.309 4.189-3.489 4.747-2.053.926 2.376.008-10.121.008-10.121" class="I"/><path d="M123.463 61.724c-.646 1.236-3.053 2.304-4.056 2.697l.034-.189.302-1.705 2.941-1.465c.65-.01 1.045.154.779.663" fill="#fca56b"/><path d="M118.643 62.942s5.187.597 5.508-2.64 1.208-5.338-2.089-5.855-4.066.652-4.436 1.707-.325 6.549 1.017 6.788" class="M"/><path d="M117.761 55.824s.99 3.506 1.698 3.211 1.355-.537 1.451.558-.69 2.531 1.618 2.289 4.461-6.723 3.626-7.714c-2.41-2.859-11.739-1.755-8.393 1.656" class="D"/><path d="M126.982 57.458l-11.473-2.31 1.288-.347s1.177-4.856 6.989-3.695c4.833.966 3.196 6.352 3.196 6.352" class="B"/><path d="M2.646 2.646h211.667v158.75H2.646zm302.198 183.877h211.667v158.75H304.844z" opacity=".15"/><defs ><path id="B" d="M86.057 63.531h3.241v-1.549h-3.241zm3.324.083h-3.407v-1.716h3.407v1.716"/><path id="C" d="M75.195 56.28h.643v-.939h-.643zm.726.083h-.81v-1.106h.81v1.106"/><path id="D" d="M73.838 56.28h.642v-.939h-.642zm.725.083h-.809v-1.106h.809v1.106"/><path id="E" d="M65.992 56.28h.642v-.939h-.642zm.726.083h-.809v-1.106h.809v1.106"/><path id="F" d="M75.195 59.862h.643v-.94h-.643zm.726.083h-.81v-1.107h.81v1.107"/><path id="G" d="M73.838 59.862h.642v-.94h-.642zm.725.083h-.809v-1.107h.809v1.107"/><path id="H" d="M65.992 59.862h.642v-.94h-.642zm.726.083h-.809v-1.107h.809v1.107"/><path id="I" d="M52.169 71.84h.51v-.753h-.51zm.593.083h-.676v-.919h.676v.919"/><path id="J" d="M52.169 65.874h.415v-.779h-.415zm.498.083h-.582v-.945h.582v.945"/><path id="K" d="M69.896 69.293h.803v-1.269h-.803zm.886.083h-.969V67.94h.969v1.436"/><path id="L" d="M69.896 71.293h.803v-1.269h-.803zm.886.083h-.969v-1.436h.969v1.436"/><path id="M" d="M69.896 73.443h.803v-1.27h-.803zm.886.083h-.969v-1.437h.969v1.437"/><path id="N" d="M69.896 75.443h.803v-1.27h-.803zm.886.083h-.969V74.09h.969v1.437"/><path id="O" d="M53.758 71.332h7.433v-.183h-7.433zm7.517.083h-7.6v-.35h7.6v.35"/><path id="P" d="M54.258 51.807h.377v-3.818h-.377zm.46.083h-.543v-3.984h.543v3.984"/></defs></svg>