<svg xmlns="http://www.w3.org/2000/svg" width="820" height="620" viewBox="0 0 216.958 164.042" xmlns:v="https://vecta.io/nano"><style><![CDATA[.B{fill:#64b4d7}.C{fill:#ffb502}.D{fill:#fbc6b4}.E{fill:#6d76a1}.F{fill:#464f72}.G{fill:#eda503}.H{fill:#1c2745}.I{fill:#c1e4fa}.J{fill:#3c93aa}]]></style><g fill="#cbe9f4"><path d="M162.806 60.907c-.181 4.28-3.8 7.591-8.076 7.406a7.77 7.77 0 0 1-7.424-8.083 7.77 7.77 0 0 1 8.086-7.409c4.28.185 7.601 3.802 7.415 8.086m-8.606 19.762A20.12 20.12 0 0 1 134.97 59.7c.481-11.098 9.866-19.708 20.968-19.232 11.098.481 19.719 9.867 19.232 20.97-.474 11.098-9.86 19.71-20.969 19.232zm27.833-24.408c-2.441-2.175-3.735-5.871-3.25-9.005.302-1.96 5.812-5.371 5.812-5.371l-8.22-8.933s-3.855 5.229-5.828 5.363c-3.018.221-6.427-1.329-8.262-3.848-1.168-1.603.341-7.905.341-7.905l-12.142-.524s.954 6.417-.339 7.904c-1.788 2.06-4.984 3.107-7.59 2.584-1.941-.386-5.084-6.052-5.084-6.052l-9.302 7.811s5.036 4.082 5.089 6.054c.081 3.319-1.685 6.975-4.466 8.956-1.614 1.154-7.912-.439-7.912-.439L120.2 64.99s6.417-.88 7.888.433c2.442 2.183 3.74 5.879 3.253 9.009-.301 1.957-5.819 5.365-5.819 5.365l8.222 8.931s3.853-5.218 5.829-5.357c3.01-.215 6.433 1.337 8.269 3.847 1.166 1.604-.335 7.902-.335 7.902l12.133.524s-.958-6.415.333-7.903c1.794-2.055 4.994-3.107 7.604-2.583 1.933.393 5.083 6.056 5.083 6.056l9.297-7.814s-5.032-4.082-5.092-6.056c-.076-3.314 1.683-6.969 4.466-8.957 1.614-1.142 7.917.449 7.917.449l.672-12.132s-6.412.87-7.888-.443"/><path d="M170.431 61.507a15.37 15.37 0 0 1-16.026 14.696c-8.479-.368-15.061-7.538-14.692-16.018.361-8.493 7.538-15.068 16.02-14.707a15.38 15.38 0 0 1 14.698 16.03M58.219 103.227c-.181 4.279-3.8 7.591-8.076 7.406a7.77 7.77 0 0 1-7.424-8.083 7.77 7.77 0 0 1 8.086-7.409 7.76 7.76 0 0 1 7.415 8.086m-8.607 19.761a20.12 20.12 0 0 1-19.23-20.969c.481-11.099 9.866-19.708 20.968-19.232s19.719 9.868 19.232 20.97c-.474 11.098-9.86 19.711-20.969 19.232zM77.446 98.58c-2.441-2.175-3.735-5.871-3.25-9.005.302-1.96 5.812-5.371 5.812-5.371l-8.22-8.933s-3.855 5.228-5.828 5.363c-3.018.221-6.427-1.329-8.262-3.848-1.168-1.603.341-7.905.341-7.905l-12.142-.525s.954 6.417-.339 7.905c-1.789 2.06-4.984 3.107-7.591 2.584-1.941-.387-5.084-6.052-5.084-6.052l-9.302 7.811s5.035 4.082 5.089 6.054c.08 3.319-1.685 6.974-4.466 8.955-1.613 1.154-7.912-.439-7.912-.439l-.679 12.134s6.417-.88 7.888.432c2.442 2.184 3.74 5.88 3.253 9.01-.301 1.957-5.819 5.366-5.819 5.366l8.221 8.93s3.853-5.218 5.829-5.358c3.01-.215 6.433 1.337 8.269 3.848 1.166 1.604-.335 7.902-.335 7.902l12.134.524s-.959-6.415.333-7.904c1.794-2.055 4.994-3.107 7.604-2.583 1.933.393 5.083 6.056 5.083 6.056l9.297-7.813s-5.032-4.082-5.092-6.057c-.076-3.313 1.683-6.969 4.466-8.956 1.615-1.142 7.917.449 7.917.449l.672-12.132s-6.411.869-7.888-.443"/><path d="M65.843 103.826a15.37 15.37 0 0 1-16.027 14.696c-8.479-.368-15.061-7.538-14.692-16.018a15.38 15.38 0 0 1 16.021-14.708 15.38 15.38 0 0 1 14.698 16.029"/></g><g fill="#ffe7e7"><path d="M117.289 134.364c4.557-3.716 5.446-11.01 1.992-16.284-2.786-4.254-7.547-5.894-11.676-4.423a18.79 18.79 0 0 0-1.123-1.975c-5.118-7.821-14.738-9.694-21.487-4.184-3.306 2.698-5.307 6.669-5.888 10.936-1.633-.077-3.279.418-4.68 1.561-3.363 2.745-4.022 8.128-1.47 12.025s7.345 4.834 10.707 2.089c.066-.053.12-.111.182-.166 5.357 5.82 13.662 6.784 19.684 1.87a15.37 15.37 0 0 0 1.673-1.596c3.577 2.897 8.448 3.118 12.086.148"/><path d="M80.24 140.102c6.367-5.197 7.452-15.634 2.428-23.308-4.053-6.191-10.844-8.689-16.66-6.703a29.28 29.28 0 0 0-1.641-2.868c-7.446-11.378-21.131-14.357-30.565-6.657-4.62 3.772-7.36 9.41-8.078 15.514-2.318-.162-4.639.502-6.597 2.099-4.703 3.837-5.504 11.542-1.792 17.211s10.532 7.159 15.231 3.322c.092-.074.167-.155.254-.232 7.735 8.513 26.347 2.543 34.764-4.326.841-.687-5.196 6.171-4.481 5.367 5.141 4.265 12.053 4.731 17.137.581m89.871-1.894c6.367-5.196 7.452-15.633 2.427-23.307-4.052-6.191-10.843-8.689-16.659-6.703a29.19 29.19 0 0 0-1.641-2.868c-7.446-11.378-21.131-14.357-30.565-6.656-4.621 3.771-7.361 9.409-8.079 15.513a9.28 9.28 0 0 0-6.597 2.099c-4.703 3.837-5.504 11.541-1.792 17.211s10.531 7.159 15.231 3.322c.092-.075.167-.156.254-.233 7.734 8.514 26.346 2.544 34.763-4.325.842-.687-5.196 6.171-4.48 5.367 5.14 4.266 12.053 4.731 17.137.58"/><path d="M201.953 140.647c4.42-3.604 5.282-10.679 1.933-15.795-2.703-4.127-7.321-5.718-11.326-4.291-.325-.654-.683-1.296-1.09-1.916-4.964-7.586-14.296-9.403-20.842-4.059-3.207 2.618-5.148 6.469-5.711 10.609-1.584-.075-3.181.406-4.54 1.515-3.262 2.663-3.902 7.884-1.426 11.664s7.125 4.689 10.386 2.027c.065-.052.118-.109.177-.161 5.196 5.645 13.252 6.581 19.094 1.813a14.8 14.8 0 0 0 1.623-1.548c3.47 2.81 8.195 3.025 11.724.143"/></g><path d="M113.5 19.087l-.218-.726c-.013-.037 1.689-.476 1.697-.433l.115.752c-.008-.043-1.601.367-1.595.407m-2.215 1.043l-.386-.645c0 .001.382-.23.774-.443l.804-.375.272.706-.746.344-.719.412m-1.907 1.586l-.528-.52c-.046-.053 1.307-1.244 1.329-1.216l.439.61c-.022-.031-1.283 1.075-1.24 1.126m-1.38 2.116l-.636-.352a1.34 1.34 0 0 1 .117-.267l.303-.556c.106-.21.239-.395.338-.534l.166-.235.571.469-.153.218c-.093.13-.219.3-.314.496l-.28.517c-.08.142-.112.245-.112.245m-.678 2.484l-.696-.164.344-1.63.056-.198.664.294-.053.184c-.149.491-.234 1.004-.315 1.515m-.295 2.639l-.707-.076.084-.908.098-.909.705.101-.097.893-.083.899m-.199 2.689l-.709-.058.13-1.816.707.066-.129 1.808m-.179 2.701l-.706-.06.117-1.811.709.059-.12 1.812m-.195 2.735l-.703-.134.133-1.775.706.061-.136 1.847m-.253 2.797l-.679-.334.161-1.742.695.2-.177 1.876m-.333 2.778l-.644-.526.209-1.734.67.398-.111.936-.123.927m-.456 2.74l-.594-.698.154-.858.132-.864.629.584-.15.92-.171.916m-.622 2.679l-.527-.84.207-.845.185-.853.572.745-.205.902-.232.891m-.873 2.569l-.443-.949.296-.813.264-.829.498.879-.289.862-.327.85m-1.245 2.37l-.345-1.031.441-.734.381-.772.412.98-.414.799-.475.759m-1.84 1.873l-.228-1.094.651-.523.576-.616.31 1.055s-.068.088-.189.204l-.425.431-.695.543m-2.434.794l-.092-1.124c.002.023.407-.049.81-.112l.777-.26.184 1.105-.824.268-.856.123m-2.501-.502l.046-1.117.763.317.802.168.046 1.119-.849-.169-.807-.318m-2.018-1.662l.169-1.074.569.63.435.382.202.168-.092 1.107-.213-.173-.462-.393-.609-.647m-1.497-2.204l.274-1.012.425.748a8.15 8.15 0 0 0 .465.722l-.205 1.058s-.27-.356-.5-.747c-.25-.37-.46-.769-.46-.769m-1.188-2.433l.372-.919.341.799.363.787-.305.983-.397-.816-.373-.834m-1.019-2.552l.461-.781.297.816.315.809-.404.878-.343-.854-.327-.867m-.934-2.619l.539-.609.571 1.643-.488.728-.622-1.762m-.918-2.636l.607-.424.572 1.644-.562.549-.617-1.769m-.953-2.591l.653-.293.323.84.301.817-.631.359-.323-.878-.323-.845m-1.035-2.446l.632-.338.377.829.351.84-.649.301-.346-.825-.365-.807m-1.226-2.323l.596-.413.459.785.418.81-.625.358-.404-.785-.445-.756m-1.507-2.08l.51-.526.577.704c.149.174.277.362.371.503l.163.237-.574.445-.153-.224-.35-.476-.543-.664m-1.909-1.577l.338-.669c.031-.047 1.488 1.044 1.452 1.087l-.466.572c.029-.045-1.301-1.039-1.325-.99m-2.257-.824l.092-.751.875.198c.22.033.421.146.583.202l.26.106-.265.706-.234-.097c-.142-.048-.323-.153-.524-.181l-.786-.183m-2.391.07l-.149-.745c.019-.052 1.76-.204 1.766-.137l-.014.759-.252-.017-.558.046-.556.045c-.11.016-.247.051-.237.049m-2.145.986l-.434-.605c.009.016.347-.317.761-.518.388-.246.843-.381.843-.381l.201.73s-.365.108-.71.323c-.36.171-.65.468-.66.451m-1.502 1.941l-.623-.373.132-.259.337-.544c.258-.389.563-.744.563-.744l.514.526s-.267.312-.498.662l-.307.493-.119.239m-.913 2.42l-.679-.219a8.42 8.42 0 0 1 .267-.882c.136-.44.322-.867.322-.867l.65.313s-.174.393-.303.815c-.152.408-.258.841-.258.841m-.556 2.593l-.698-.142.164-.902.191-.897.687.186-.186.871-.159.883m-.377 2.655l-.705-.103.245-1.809.701.123-.241 1.788m-.311 2.683l-.705-.098.204-1.806.705.099-.205 1.805M70.9 45.27l-.702-.116.227-1.792.704.1-.229 1.809m-.437 2.686l-.693-.161.161-.88.142-.889.7.127-.145.902-.164.9m-.655 2.656l-.673-.244.245-.851.21-.864.69.181-.217.894-.255.883m-1.04 2.545l-.614-.384.377-.779.327-.809.661.284-.346.856-.406.832m-1.581 2.205l-.519-.523.563-.669.499-.676.579.441-.535.731-.587.697m-1.915 1.853l-.425-.611.64-.55.611-.598.494.548-.639.626c-.324.31-.681.584-.681.584m-2.34 1.304l-.196-.733s.382-.11.744-.297l.71-.403.371.65-.784.448c-.403.204-.846.335-.846.335m-2.709-.1l.256-.706s.36.147.74.211c.382.054.771.015.769.016l.066.759s-.462.046-.928-.02c-.465-.074-.903-.259-.903-.259m-2.13-1.763l.55-.476a5.77 5.77 0 0 0 .548.629 4.71 4.71 0 0 0 .617.524l-.386.635s-.389-.269-.716-.606c-.337-.329-.614-.707-.614-.707m-1.34-2.412l.648-.307c-.033.021.742 1.577.779 1.55l-.594.413c-.043.023-.87-1.64-.833-1.657m-.849-2.615l.686-.193.231.858.271.842-.663.262-.285-.879-.24-.891m-.499-2.704l.705-.099.127.883.158.876-.693.16-.166-.909-.132-.912" class="C"/><path d="M82.167 140.733c3.677-2.998 4.489-8.737 1.82-12.813-2.153-3.289-5.915-4.489-9.218-3.261a14.09 14.09 0 0 0-.865-1.529c-3.955-6.045-11.576-7.34-17.021-2.896-2.668 2.177-4.316 5.329-4.84 8.688-1.297-.031-2.613.388-3.743 1.31-2.713 2.215-3.316 6.45-1.343 9.462s5.77 3.66 8.482 1.446c.054-.043.098-.09.147-.134 4.175 4.47 10.763 5.077 15.622 1.111.485-.397.935-.825 1.353-1.282a7.54 7.54 0 0 0 9.606-.103m94.45-.849c3.904-3.184 4.665-9.433 1.707-13.951-2.386-3.645-6.467-5.05-10.003-3.791a16.7 16.7 0 0 0-.962-1.692c-4.385-6.7-12.628-8.305-18.41-3.584-2.833 2.311-4.547 5.713-5.044 9.368-1.4-.066-2.81.359-4.01 1.339-2.882 2.351-3.446 6.964-1.26 10.302s6.293 4.141 9.172 1.79c.057-.045.104-.096.157-.143 4.59 4.986 11.706 5.812 16.865 1.602a13.15 13.15 0 0 0 1.433-1.367c3.065 2.482 7.238 2.671 10.355.126" fill="#ffd5d6"/><path d="M210.647 139.153c0 3.84-45.737 6.952-102.158 6.952S6.33 142.992 6.33 139.153s45.738-6.953 102.159-6.953 102.158 3.113 102.158 6.953" fill="#f7c9cc"/><path d="M25.264 60.356l.419-.392 1.672 1.771c.498.528 1.334.554 1.864.06l1.427-1.331c.371-.347.852-.525 1.362-.509a1.89 1.89 0 0 1 1.321.605l1.1 1.183a1.31 1.31 0 0 0 .932.421c.357.011.694-.122.953-.366l1.247-1.2c.386-.366.889-.556 1.415-.525s1.016.273 1.348.672l.682.809c.25.297.612.468.997.471a1.33 1.33 0 0 0 1.012-.45l1.513-1.726.429.378-1.511 1.727c-.366.415-.894.649-1.449.647-.553-.008-1.073-.255-1.43-.679l-.677-.809c-.24-.282-.573-.447-.944-.469s-.72.114-.988.367l-1.25 1.198c-.366.357-.851.543-1.363.529s-.989-.229-1.335-.604l-1.098-1.183c-.243-.258-.571-.409-.923-.421s-.69.111-.948.353l-1.427 1.33a1.9 1.9 0 0 1-2.672-.085l-1.676-1.773" class="F"/><path d="M147.903 61.212c.167-19.823-15.774-36.023-35.59-36.187s-36.018 15.77-36.187 35.589c-.089 10.785 8.013 17.992 12.074 27.132 3.095 6.961 2.966 30.478 2.966 30.478l40.745.338s.258-23.514 3.466-30.423c4.211-9.071 12.436-16.141 12.527-26.927" class="C"/><path d="M139.475 59.018c-.128 15.43-12.745 27.842-28.177 27.716-15.436-.131-27.842-12.75-27.715-28.182s12.745-27.837 28.175-27.71 27.846 12.748 27.717 28.176" fill="#ffcf03"/><path d="M104.672 105.961l-9.309-38.647 32.194.267-9.619 38.489-1.638-.411 9.093-36.41-27.884-.23 8.801 36.549-1.637.393" class="F"/><path d="M132.773 133.35l-42.688-.353.23-27.679 42.687.354-.229 27.678" class="B"/><path d="M136.824 112.138c-.011 1.236-1.022 2.234-2.267 2.222l-46.98-.389a2.25 2.25 0 0 1-2.225-2.263h0a2.25 2.25 0 0 1 2.262-2.227l46.979.393c1.243.011 2.241 1.023 2.231 2.264h0m-.054 6.435c-.012 1.235-1.022 2.232-2.268 2.222l-46.975-.39c-1.241-.01-2.237-1.021-2.227-2.261h0c.012-1.24 1.021-2.233 2.263-2.225l46.982.391a2.24 2.24 0 0 1 2.225 2.264h0m-.054 6.427c-.008 1.242-1.024 2.235-2.265 2.225l-46.979-.388a2.24 2.24 0 0 1-2.223-2.264h0c.009-1.236 1.022-2.235 2.262-2.225l46.974.388c1.246.009 2.24 1.027 2.23 2.264h0" class="I"/><path d="M127.846 133.307a3.3 3.3 0 0 1-3.314 3.269l-26.506-.219a3.3 3.3 0 0 1-3.26-3.322h0c.015-1.812 1.505-3.273 3.315-3.259l26.504.221a3.29 3.29 0 0 1 3.261 3.31h0" class="B"/><path d="M136.88 105.704c-.013 1.234-1.025 2.232-2.269 2.224l-46.977-.39c-1.241-.01-2.233-1.025-2.225-2.26h0c.009-1.243 1.019-2.239 2.261-2.226l46.978.39c1.246.009 2.239 1.02 2.232 2.263h0" class="I"/><path d="M195.531 95.443h-14.055v.543h14.055v-.543m-.342-1.807h-8.112v.543h8.112v-.543" fill="#27355c"/><path d="M36.138 83.478c.384-.495 1.96-1.511 3.529-.67 2.097 1.127 4.778 5.174 8.06 5.066 3.295-.111 4.329-2.074 5.198-3.295.867-1.227.635-2.121 1.221-2.776s1.333.069.415 2.366c-.438 1.101-1.959 6.788-5.849 7.642-5.098 1.119-14.827-5.38-12.574-8.333" class="D"/><path d="M36.649 82.35s-1.961 1.719.516 4.709 3.97 3.949 3.97 3.949 2.346-.976 4.262-4.468c0 0-6.336-7.006-8.748-4.189" class="G"/><path d="M28.708 88.329c1.455 5.376.652 9.155 0 11.202 1.518.488.614 1.301.573 1.403-2.146 4.452 11.19 1.814 13.533-1.79.806-1.239.034-2.813.179-5.194.052-.534.065-1.076.071-1.607.065-2.438-.099-4.817-.442-6.438-1.047-4.912-5.668-5.152-8.479-4.76-1.277.176-2.942.392-4.222 1.145l-.007.01c-1.49.903-2.289 2.032-1.208 6.028" class="C"/><path d="M32.013 85.693c.576 2.44 2.636 9.888-3.305 13.612 0 0 9.839 7.204 15.467.971 0 0-1.132-10.631-2.705-14.852-.452-1.213-1.65-4.938-3.811-4.399 0 0 3.796 5.979 2.064 7.557s-3.366.252-4.131-.938c-1.225-1.914-2.532-6.339-2.532-6.339l-2.391.36a26.82 26.82 0 0 0 1.344 4.028" class="H"/><path d="M33.906 77.585s1.261 1.98-.08 3.3c-1.377 1.352 4.957 3.74 4.65 2.523-.392-1.57-1.328-2.41-.786-4.34l-3.784-1.483" fill="#f7b2a0"/><path d="M36.753 73.144c1.524 1.105 3.701 6.535 2.439 7.956-.559.62-3.189.336-5.119-1.926-.796-.923-1.862-2.722-1.082-4.763.356-.928 1.995-2.55 3.762-1.267" class="D"/><path d="M38.224 73.645c.389.667.324.839-1.758 1.435s-2.462.502-2.181.977c.825 1.409-.726 1.311.281 2.981 1 1.676-.919.829-1.887-.522-.191-.273-1.268-1.582-.519-3.919.87-2.73 4.62-3.397 6.064-.952" fill="#1d1b3a"/><path d="M34.005 77.295s6.442-1.819 6.142-3.828c-.185-1.237-3.924-.752-3.924-.752l-2.218 4.58" class="G"/><path d="M38.224 73.645c-.516 1.937-2.036 3.003-5.983 4.264 0 0-2.137-3.829.633-5.857 2.444-1.785 5.678.353 5.351 1.593" class="C"/><path d="M29.565 82.012c.572-.186 1.973-.052 2.735 1.464 1.024 2.029.905 6.659 3.53 8.369 2.634 1.714 4.516.747 5.865.267s1.655-1.306 2.471-1.501 1.008.786-.969 2.077c-.946.617-5.244 4.233-8.752 2.772-4.597-1.913-8.252-12.377-4.879-13.449" class="D"/><path d="M30.065 81.72s-2.477.273-2.172 3.969c.301 3.687.942 5.253.942 5.253s2.368.521 5.775-1.159c0 0-1.121-8.943-4.545-8.063" class="G"/><path d="M25.263 120.016c-1.335 5.225-2.901 16.38-.335 16.444 2.562.058 3.995-.718 2.518-1.132s-1.538-.578-1.493-.993c.636-5.388 9.061-13.79 9.776-20.195.241-2.187.408-4.187.521-5.943.958 4.69.253 9.67.337 11.316.271 5.855 1.523 16.924 4.329 16.947 2.989.021 4.458-.807 2.548-1.202-1.652-.349-1.582-.426-1.552-.834.401-5.913 3.268-16.844 3.818-23.868.635-8.107-19.304 4.892-20.466 9.46" class="D"/><path d="M39.341 135.128s2.229.884 3.607 0c0 0 2.512.339.935.95-1.585.615-4.636 1.12-4.542-.95m-15.502.2s2.231.88 3.606 0c0 0 2.514.343.929.951s-4.629 1.121-4.535-.951" class="C"/><path d="M43.745 96.783c-5.11 3.41-12.256 3.062-15.038 2.523-.752 6.079-5.319 28.887-5.835 32.017 2.243.744 2.989.9 3.638.9 10.833-13.97 9.588-19.961 9.703-21.717.409 2.028-.929 11.968 1.409 21.717.784.507 3.158 1.164 4.858 0 .085-.623 3.264-11.819 3.195-20.583-.048-5.975-1.046-10.075-1.93-14.857" class="H"/><path d="M29.064 104.455c3.178-1.008 3.457-4.149 3.461-4.179l-.422-.032c-.008.114-.266 2.889-3.168 3.811l.129.401m14.872-.784l.13-.403c-2.912-.922-3.166-3.781-3.169-3.811l-.421.032c.003.034.283 3.175 3.461 4.182" fill="#fff"/><path d="M154.396 79.701c-.04-.594-.742-2.232-2.426-2.402-2.251-.229-6.513 1.534-9.041-.295-2.537-1.84-2.308-3.935-2.343-5.36-.03-1.429.627-2.012.515-2.836-.109-.832-1.087-.656-1.586 1.645-.24 1.098-2.066 6.388.546 9.127 3.421 3.592 14.538 3.645 14.335.121" class="D"/><path d="M154.593 78.541s.63 2.399-2.911 3.436-5.227.998-5.227.998-1.329-2.013-.983-5.785c0 0 8.718-2.148 9.12 1.351" class="G"/><path d="M160.143 75.644l-.008-.011c-1.348-.41-2.935-.242-4.154-.122-2.686.257-6.905 1.498-6.788 6.271.042 1.572.416 3.809 1.015 6.048l.42 1.468c.658 2.171.292 3.794 1.312 4.763 2.961 2.813 16.808 2.886 13.842-.758-.061-.087-.812-1.338.059-1.941-1.054-1.75-1.442-4.02-2.07-5.523a12.03 12.03 0 0 1-.474-1.389c-.317-1.101-.471-2.307-.436-3.758.093-3.225-1.14-4.543-2.718-5.049" class="C"/><path d="M149.741 110.467c3.108 2.189 7.894 4.364 9.732 6.153.293.285.355.43-.382 1.575-.747 1.138.704.903 2.394-.578s-6.273-8.898-10.405-12.033c-3.613-2.742-4.954 2.343-1.339 4.883" class="D"/><path d="M161.52 116.168s-.959 1.911-2.43 2.026c0 0-1.489 1.663-.047 1.229s3.819-1.768 2.477-3.255" class="C"/><path d="M158.953 79.243c.008 2.382-.418 6.132 5.409 7.852 0 0-6.853 12.829-13.43 8.312 0 0-1.301-10.075-.78-14.329.15-1.221.418-4.54 2.929-4.918 0 0-2.565 6.376-.617 7.455s3.169-.512 3.612-1.781l2.302-6.457 1.554.203s-.983 1.633-.979 3.662" class="H"/><path d="M157.364 71.817s-1.15 1.912.155 3.132c1.344 1.252-4.617 3.675-4.353 2.512.333-1.5 1.204-2.321.64-4.143l3.558-1.5" fill="#f7b2a0"/><path d="M154.55 67.667c-1.421 1.086-3.356 6.3-2.122 7.619.545.573 3.037.242 4.817-1.958.733-.895 1.701-2.631.912-4.551-.362-.871-1.959-2.373-3.606-1.11" class="D"/><path d="M153.166 68.179c-.354.643-.289.805 1.704 1.319 1.989.521 2.353.419 2.096.877-.75 1.357.72 1.226-.193 2.838s.892.765 1.779-.544c.174-.263 1.163-1.535.396-3.735-.893-2.573-4.472-3.114-5.782-.756" fill="#1d1b3a"/><path d="M155.9 71.163s-4.801-1.189-4.566-3.108c.146-1.18 3.71-.808 3.71-.808l.856 3.916" class="G"/><path d="M152.978 68.464c.539 1.832 1.896 2.649 5.976 3.619 0 0 1.936-3.692-.744-5.55-2.366-1.636-5.574.763-5.231 1.93" class="C"/><path d="M151.779 92.944s-10.024 5.816-11.196 9.303 17.555 14.559 17.555 14.559 2.191-2.182 1.18-4.174l-5.178-9.858 9.292-7.737-11.653-2.094" class="H"/><path d="M161.166 114.327c1.146 3.625 3.63 8.258 4.007 10.793.06.405.022.559-1.26 1.021-1.281.453.013 1.145 2.256.994s.41-10.878-.976-15.879c-1.208-4.37-5.357-1.139-4.027 3.071" class="D"/><path d="M167.076 126.004s-1.924.942-3.163.137c0 0-2.192.421-.782.947s4.111.911 3.945-1.085" class="C"/><path d="M164.362 87.095s2.07 4.221 3.337 10.281c1.526 7.305.133 25.239.133 25.239s.317.574-4.153.014c-1.205-.154-6.759-24.58-6.759-24.58l1.485-6.838 5.956-4.116" class="H"/><path d="M166.387 122.882c1.889-12.54-3.062-32.031-3.112-32.227l-.241.062c.051.195 4.989 19.637 3.107 32.128l.246.037" fill="#fff"/><path d="M162.141 77.395c-.224-.526-1.191-1.449-2.754-1.052-2.094.528-5.343 3.494-8.206 2.674-2.872-.824-3.348-2.778-3.843-4.046-.49-1.269-.092-2.004-.46-2.708-.37-.712-1.191-.236-.889 1.988.145 1.062.223 6.403 3.456 8.012 4.236 2.11 14.026-1.779 12.696-4.868" class="D"/><path d="M162.039 76.855s1.345 1.948-1.498 4.029c-2.836 2.077-4.36 2.595-4.36 2.595s-1.847-1.378-2.76-4.871c0 0 7.119-4.761 8.619-1.753" class="G"/><g class="F"><path d="M160.299 135.808l.92-.372-16.87-41.59h9.879l17.022 41.961.921-.372-17.273-42.583h-12.023l17.425 42.955"/><path d="M151.195 112.542h10.951v-.993h-10.951v.993m2.193 5.133h10.952v-.993h-10.952v.993m1.896 5.185h10.952v-.994h-10.952v.994m2.376 5.285h10.951v-.993H157.66v.993m-20.079 7.652l11.366-30.266-.932-.35-11.365 30.266.931.349"/><path d="M148.947 136.589l11.363-30.267-.932-.348-11.364 30.266.932.349"/></g><path d="M138.968 70.107h-21.733V66.61h21.733v3.497" class="B"/><g fill="#4ca1bf"><path d="M121.71 70.107h-4.474V66.61h4.474v3.497"/><path d="M142.084 71.847h-28.285l.958-3.479h26.368l.959 3.479"/></g><path d="M142.084 96.571H121.23V71.847h20.854v24.725" class="I"/><path d="M113.799 96.571h9.309V71.847h-9.309v24.725" class="B"/><path d="M123.109 71.847l-.72-3.479h-7.632l-.958 3.479h9.309" class="J"/><path d="M121.71 78.836h-6.552v-3.917h6.552v3.917" fill="#848fb7"/><path d="M120.9 75.898h-4.934v-.48h4.934v.48m0 .839h-4.934v-.48h4.934v.48m0 .859h-4.934v-.48h4.934v.48m0 .84h-4.934v-.481h4.934v.481" class="F"/><path d="M138.498 78.944c0 3.113-2.523 5.635-5.635 5.635s-5.635-2.523-5.635-5.635 2.524-5.634 5.635-5.634 5.635 2.523 5.635 5.634" class="J"/><path d="M137.714 78.944c0 2.679-2.172 4.851-4.852 4.851s-4.851-2.172-4.851-4.851 2.173-4.851 4.851-4.851 4.852 2.172 4.852 4.851" class="B"/><path d="M138.968 86.768h-11.763v-1.34h11.763v1.34" class="J"/><path d="M136.657 95.107h-7.141l3.571-7.14z" class="E"/><path d="M130.208 94.624l2.879-5.608 2.879 5.608z" fill="#ffcf03"/><path d="M132.501 94.158l-.055-2.532.653.882.178-2.229.011 2.905-.528-.732-.259 1.707" class="E"/><path d="M193.714 74.847a1.3 1.3 0 0 0 1.298 1.298 1.3 1.3 0 0 0 1.299-1.298 1.3 1.3 0 0 0-1.299-1.297 1.3 1.3 0 0 0-1.298 1.297zm-1.045 0c0-1.291 1.05-2.342 2.343-2.342s2.344 1.051 2.344 2.342a2.35 2.35 0 0 1-2.344 2.344c-1.293 0-2.343-1.052-2.343-2.344" class="B"/><path d="M6.33 126.596a1.85 1.85 0 0 0 1.848 1.847c1.019 0 1.843-.827 1.843-1.847s-.824-1.847-1.843-1.847a1.85 1.85 0 0 0-1.848 1.847" class="I"/><path d="M8.8 104.237c-.192-.255-.271-1.124-.591-1.13s-.402.886-.632 1.106-1.144.272-1.131.591.915.377 1.107.633.271 1.144.59 1.129.378-.913.633-1.105 1.145-.271 1.13-.592-.914-.376-1.106-.632" class="C"/><path d="M196.04 43.503l-.929-.003.011-2.208.928.003-.011 2.208m-.016 3.287l-.928-.005.011-2.207.929.005-.012 2.207m-.015 3.287l-.93-.003.011-2.208.928.003-.009 2.208m-.018 3.289l-.929-.005.012-2.207.928.004-.011 2.208m-.016 3.287l-.929-.004.012-2.207.928.004-.011 2.207m-.016 3.288l-.929-.006.011-2.206.928.005-.01 2.208m-.016 3.284l-.929-.004.011-2.208.928.005-.01 2.206" class="H"/><path d="M74.313 81.436l-6.875-7.082-6.675 7.077-.614-.578 7.281-7.719 7.488 7.714-.605.587m0 12.137l-6.875-7.081-6.675 7.077-.614-.578 7.281-7.718 7.488 7.714-.605.587m0 13.35l-6.875-7.082-6.675 7.077-.614-.578 7.281-7.718 7.488 7.714-.605.587" class="F"/><path d="M71.557 135.734h-7.778l1.75-71.943h4.277l1.75 71.943" class="E"/><path d="M69.612 133.56h-3.888l.875-69.769h2.139l.875 69.769" class="F"/><path d="M76.569 136.66H59.492l1.752-3.941h13.572l1.752 3.941" class="E"/><path d="M71.557 65.655h-7.778v-4.429h7.778v4.429m9.975 16.709H54.528v-2.442h27.003v2.442m.001 25.486H54.528v-2.442h27.003v2.442M85.03 94.5H49.836v-2.442H85.03V94.5" class="F"/><path d="M55.602 85.882h-1.074v-5.959h1.074v5.959m25.93 0h-1.074v-5.959h1.074v5.959" class="E"/><path d="M56.132 87.424h-2.048v-3.945h2.048v3.945" class="B"/><path d="M50.933 98.017h-1.074v-5.959h1.074v5.959" class="E"/><path d="M51.463 99.561h-2.048v-3.944h2.048v3.944" class="B"/><path d="M81.983 111.367h-1.074v-5.959h1.074v5.959" class="E"/><path d="M82.513 112.91h-2.049v-3.944h2.049v3.944" class="B"/><path d="M55.602 111.367h-1.074v-5.959h1.074v5.959" class="E"/><path d="M56.132 112.91h-2.048v-3.944h2.048v3.944" class="B"/><path d="M85.032 98.017h-1.073v-5.959h1.073v5.959" class="E"/><path d="M85.562 99.561h-2.048v-3.944h2.048v3.944m-3.544-12.137H79.97v-3.945h2.048v3.945" class="B"/><path d="M2.646 2.646h211.667v158.75H2.646z" opacity=".15"/></svg>