<svg width="461" height="156" viewBox="0 0 461 156" fill="none" xmlns="http://www.w3.org/2000/svg">
<path d="M45.696 89.384V78.632H13.568V84.52C13.568 86.1413 14.0373 87.3787 14.976 88.232C15.9147 89 17.2373 89.384 18.944 89.384H45.696ZM5.12 61.608V53.672H43.392C50.3893 53.672 53.9733 58.92 54.144 69.416V105H15.872C12.3733 105 9.68533 103.72 7.808 101.16C6.016 98.5147 5.12 94.5893 5.12 89.384V74.024H45.696V65.192C45.696 62.8027 44.5867 61.608 42.368 61.608H5.12ZM64.37 53.672H124.786C131.783 53.672 135.367 58.92 135.538 69.416V105H122.994V65.192C122.994 62.8027 121.885 61.608 119.666 61.608H104.178V105H91.634V65.192C91.634 62.8027 90.5247 61.608 88.306 61.608H72.818V104.744H64.37V53.672ZM156.497 105C149.5 105 145.916 99.7947 145.745 89.384V53.672H154.193V84.52C154.364 87.7627 156.156 89.384 159.569 89.384H184.273V53.672H192.721V105H156.497Z" fill="white"/>
<path d="M45.696 89.384V89.734H46.046V89.384H45.696ZM45.696 78.632H46.046V78.282H45.696V78.632ZM13.568 78.632V78.282H13.218V78.632H13.568ZM14.976 88.232L14.7406 88.491L14.7473 88.4971L14.7544 88.5029L14.976 88.232ZM5.12 61.608H4.77V61.958H5.12V61.608ZM5.12 53.672V53.322H4.77V53.672H5.12ZM54.144 69.416H54.494L54.494 69.4103L54.144 69.416ZM54.144 105V105.35H54.494V105H54.144ZM7.808 101.16L7.51803 101.356L7.52576 101.367L7.808 101.16ZM5.12 74.024V73.674H4.77V74.024H5.12ZM45.696 74.024V74.374H46.046V74.024H45.696ZM46.046 89.384V78.632H45.346V89.384H46.046ZM45.696 78.282H13.568V78.982H45.696V78.282ZM13.218 78.632V84.52H13.918V78.632H13.218ZM13.218 84.52C13.218 86.2108 13.7098 87.5539 14.7406 88.491L15.2114 87.973C14.3649 87.2034 13.918 86.0719 13.918 84.52H13.218ZM14.7544 88.5029C15.7767 89.3394 17.1889 89.734 18.944 89.734V89.034C17.2857 89.034 16.0526 88.6606 15.1976 87.9611L14.7544 88.5029ZM18.944 89.734H45.696V89.034H18.944V89.734ZM5.47 61.608V53.672H4.77V61.608H5.47ZM5.12 54.022H43.392V53.322H5.12V54.022ZM43.392 54.022C46.7888 54.022 49.3196 55.2877 51.039 57.8054C52.7746 60.3469 53.7092 64.2019 53.794 69.4217L54.494 69.4103C54.4082 64.134 53.4654 60.1171 51.617 57.4106C49.7524 54.6803 46.9926 53.322 43.392 53.322V54.022ZM53.794 69.416V105H54.494V69.416H53.794ZM54.144 104.65H15.872V105.35H54.144V104.65ZM15.872 104.65C12.4716 104.65 9.89422 103.413 8.09024 100.953L7.52576 101.367C9.47645 104.027 12.275 105.35 15.872 105.35V104.65ZM8.09777 100.964C6.36267 98.4024 5.47 94.5594 5.47 89.384H4.77C4.77 94.6193 5.66933 98.627 7.51823 101.356L8.09777 100.964ZM5.47 89.384V74.024H4.77V89.384H5.47ZM5.12 74.374H45.696V73.674H5.12V74.374ZM46.046 74.024V65.192H45.346V74.024H46.046ZM46.046 65.192C46.046 63.9496 45.7581 62.9525 45.1205 62.2658C44.4783 61.5743 43.5382 61.258 42.368 61.258V61.958C43.4165 61.958 44.1404 62.2391 44.6075 62.7422C45.0792 63.2501 45.346 64.0451 45.346 65.192H46.046ZM42.368 61.258H5.12V61.958H42.368V61.258ZM64.37 53.672V53.322H64.02V53.672H64.37ZM135.538 69.416H135.888L135.888 69.4103L135.538 69.416ZM135.538 105V105.35H135.888V105H135.538ZM122.994 105H122.644V105.35H122.994V105ZM104.178 61.608V61.258H103.828V61.608H104.178ZM104.178 105V105.35H104.528V105H104.178ZM91.634 105H91.284V105.35H91.634V105ZM72.818 61.608V61.258H72.468V61.608H72.818ZM72.818 104.744V105.094H73.168V104.744H72.818ZM64.37 104.744H64.02V105.094H64.37V104.744ZM64.37 54.022H124.786V53.322H64.37V54.022ZM124.786 54.022C128.183 54.022 130.714 55.2877 132.433 57.8054C134.169 60.3469 135.103 64.2019 135.188 69.4217L135.888 69.4103C135.802 64.134 134.859 60.1171 133.011 57.4106C131.146 54.6803 128.387 53.322 124.786 53.322V54.022ZM135.188 69.416V105H135.888V69.416H135.188ZM135.538 104.65H122.994V105.35H135.538V104.65ZM123.344 105V65.192H122.644V105H123.344ZM123.344 65.192C123.344 63.9496 123.056 62.9525 122.418 62.2658C121.776 61.5743 120.836 61.258 119.666 61.258V61.958C120.714 61.958 121.438 62.2391 121.906 62.7422C122.377 63.2501 122.644 64.0451 122.644 65.192H123.344ZM119.666 61.258H104.178V61.958H119.666V61.258ZM103.828 61.608V105H104.528V61.608H103.828ZM104.178 104.65H91.634V105.35H104.178V104.65ZM91.984 105V65.192H91.284V105H91.984ZM91.984 65.192C91.984 63.9496 91.6961 62.9525 91.0585 62.2658C90.4163 61.5743 89.4762 61.258 88.306 61.258V61.958C89.3545 61.958 90.0784 62.2391 90.5455 62.7422C91.0172 63.2501 91.284 64.0451 91.284 65.192H91.984ZM88.306 61.258H72.818V61.958H88.306V61.258ZM72.468 61.608V104.744H73.168V61.608H72.468ZM72.818 104.394H64.37V105.094H72.818V104.394ZM64.72 104.744V53.672H64.02V104.744H64.72ZM145.745 89.384H145.395L145.395 89.3897L145.745 89.384ZM145.745 53.672V53.322H145.395V53.672H145.745ZM154.193 53.672H154.543V53.322H154.193V53.672ZM154.193 84.52H153.843V84.5292L153.843 84.5384L154.193 84.52ZM184.273 89.384V89.734H184.623V89.384H184.273ZM184.273 53.672V53.322H183.923V53.672H184.273ZM192.721 53.672H193.071V53.322H192.721V53.672ZM192.721 105V105.35H193.071V105H192.721ZM156.497 104.65C153.099 104.65 150.568 103.394 148.849 100.898C147.114 98.3776 146.18 94.555 146.095 89.3783L145.395 89.3897C145.481 94.6237 146.424 98.6091 148.273 101.294C150.138 104.003 152.898 105.35 156.497 105.35V104.65ZM146.095 89.384V53.672H145.395V89.384H146.095ZM145.745 54.022H154.193V53.322H145.745V54.022ZM153.843 53.672V84.52H154.543V53.672H153.843ZM153.843 84.5384C153.932 86.2194 154.445 87.5358 155.43 88.4275C156.413 89.3166 157.811 89.734 159.569 89.734V89.034C157.913 89.034 156.709 88.6407 155.9 87.9085C155.093 87.1788 154.625 86.0632 154.543 84.5016L153.843 84.5384ZM159.569 89.734H184.273V89.034H159.569V89.734ZM184.623 89.384V53.672H183.923V89.384H184.623ZM184.273 54.022H192.721V53.322H184.273V54.022ZM192.371 53.672V105H193.071V53.672H192.371ZM192.721 104.65H156.497V105.35H192.721V104.65Z" fill="black"/>
<path d="M245.696 87.384V63.192C245.696 60.8027 244.587 59.608 242.368 59.608H213.568V87.384H245.696ZM254.144 103H213.568V123.48H205.12V51.672H243.392C250.389 51.672 253.973 56.92 254.144 67.416V103ZM272.818 70.36H304.946V63.192C304.946 60.8027 303.837 59.608 301.618 59.608H272.818V70.36ZM275.122 103C268.125 103 264.541 97.7947 264.37 87.384V51.672H302.642C306.141 51.672 308.786 52.9947 310.578 55.64C312.455 58.2 313.394 62.1253 313.394 67.416V74.712H272.818V82.52C272.818 84.1413 273.287 85.3787 274.226 86.232C275.165 87 276.487 87.384 278.194 87.384H313.394V103H275.122ZM332.068 82.52C332.239 85.7627 334.031 87.384 337.444 87.384H364.196V59.608H332.068V82.52ZM334.372 103C327.375 103 323.791 97.7947 323.62 87.384V51.672H364.196V20.952H372.644V103H334.372ZM382.87 43.608V31.32H393.366V43.608H382.87ZM383.894 51.672H392.342V102.744H383.894V51.672ZM444.196 87.384V76.632H412.068V82.52C412.068 84.1413 412.537 85.3787 413.476 86.232C414.415 87 415.737 87.384 417.444 87.384H444.196ZM403.62 59.608V51.672H441.892C448.889 51.672 452.473 56.92 452.644 67.416V103H414.372C410.873 103 408.185 101.72 406.308 99.16C404.516 96.5147 403.62 92.5893 403.62 87.384V72.024H444.196V63.192C444.196 60.8027 443.087 59.608 440.868 59.608H403.62Z" fill="#27014A"/>
<path d="M245.696 87.384V87.734H246.046V87.384H245.696ZM213.568 59.608V59.258H213.218V59.608H213.568ZM213.568 87.384H213.218V87.734H213.568V87.384ZM254.144 103V103.35H254.494V103H254.144ZM213.568 103V102.65H213.218V103H213.568ZM213.568 123.48V123.83H213.918V123.48H213.568ZM205.12 123.48H204.77V123.83H205.12V123.48ZM205.12 51.672V51.322H204.77V51.672H205.12ZM254.144 67.416H254.494L254.494 67.4103L254.144 67.416ZM246.046 87.384V63.192H245.346V87.384H246.046ZM246.046 63.192C246.046 61.9496 245.758 60.9525 245.12 60.2658C244.478 59.5743 243.538 59.258 242.368 59.258V59.958C243.416 59.958 244.14 60.2391 244.608 60.7422C245.079 61.2501 245.346 62.0451 245.346 63.192H246.046ZM242.368 59.258H213.568V59.958H242.368V59.258ZM213.218 59.608V87.384H213.918V59.608H213.218ZM213.568 87.734H245.696V87.034H213.568V87.734ZM254.144 102.65H213.568V103.35H254.144V102.65ZM213.218 103V123.48H213.918V103H213.218ZM213.568 123.13H205.12V123.83H213.568V123.13ZM205.47 123.48V51.672H204.77V123.48H205.47ZM205.12 52.022H243.392V51.322H205.12V52.022ZM243.392 52.022C246.789 52.022 249.32 53.2877 251.039 55.8054C252.775 58.3469 253.709 62.2019 253.794 67.4217L254.494 67.4103C254.408 62.134 253.465 58.1171 251.617 55.4106C249.752 52.6803 246.993 51.322 243.392 51.322V52.022ZM253.794 67.416V103H254.494V67.416H253.794ZM272.818 70.36H272.468V70.71H272.818V70.36ZM304.946 70.36V70.71H305.296V70.36H304.946ZM272.818 59.608V59.258H272.468V59.608H272.818ZM264.37 87.384H264.02L264.02 87.3897L264.37 87.384ZM264.37 51.672V51.322H264.02V51.672H264.37ZM310.578 55.64L310.288 55.8364L310.296 55.847L310.578 55.64ZM313.394 74.712V75.062H313.744V74.712H313.394ZM272.818 74.712V74.362H272.468V74.712H272.818ZM274.226 86.232L273.991 86.491L273.997 86.4971L274.004 86.5029L274.226 86.232ZM313.394 87.384H313.744V87.034H313.394V87.384ZM313.394 103V103.35H313.744V103H313.394ZM272.818 70.71H304.946V70.01H272.818V70.71ZM305.296 70.36V63.192H304.596V70.36H305.296ZM305.296 63.192C305.296 61.9496 305.008 60.9525 304.37 60.2658C303.728 59.5743 302.788 59.258 301.618 59.258V59.958C302.666 59.958 303.39 60.2391 303.858 60.7422C304.329 61.2501 304.596 62.0451 304.596 63.192H305.296ZM301.618 59.258H272.818V59.958H301.618V59.258ZM272.468 59.608V70.36H273.168V59.608H272.468ZM275.122 102.65C271.724 102.65 269.193 101.394 267.474 98.8975C265.739 96.3776 264.805 92.555 264.72 87.3783L264.02 87.3897C264.106 92.6237 265.049 96.6091 266.898 99.2945C268.763 102.003 271.523 103.35 275.122 103.35V102.65ZM264.72 87.384V51.672H264.02V87.384H264.72ZM264.37 52.022H302.642V51.322H264.37V52.022ZM302.642 52.022C306.038 52.022 308.568 53.2974 310.288 55.8363L310.868 55.4437C309.004 52.692 306.244 51.322 302.642 51.322V52.022ZM310.296 55.847C312.108 58.3187 313.044 62.1547 313.044 67.416H313.744C313.744 62.0959 312.802 58.0813 310.86 55.433L310.296 55.847ZM313.044 67.416V74.712H313.744V67.416H313.044ZM313.394 74.362H272.818V75.062H313.394V74.362ZM272.468 74.712V82.52H273.168V74.712H272.468ZM272.468 82.52C272.468 84.2108 272.96 85.5539 273.991 86.491L274.461 85.973C273.615 85.2034 273.168 84.0719 273.168 82.52H272.468ZM274.004 86.5029C275.027 87.3394 276.439 87.734 278.194 87.734V87.034C276.536 87.034 275.303 86.6606 274.448 85.9611L274.004 86.5029ZM278.194 87.734H313.394V87.034H278.194V87.734ZM313.044 87.384V103H313.744V87.384H313.044ZM313.394 102.65H275.122V103.35H313.394V102.65ZM332.068 82.52H331.718V82.5292L331.718 82.5384L332.068 82.52ZM364.196 87.384V87.734H364.546V87.384H364.196ZM364.196 59.608H364.546V59.258H364.196V59.608ZM332.068 59.608V59.258H331.718V59.608H332.068ZM323.62 87.384H323.27L323.27 87.3897L323.62 87.384ZM323.62 51.672V51.322H323.27V51.672H323.62ZM364.196 51.672V52.022H364.546V51.672H364.196ZM364.196 20.952V20.602H363.846V20.952H364.196ZM372.644 20.952H372.994V20.602H372.644V20.952ZM372.644 103V103.35H372.994V103H372.644ZM331.718 82.5384C331.807 84.2194 332.32 85.5358 333.305 86.4275C334.288 87.3166 335.686 87.734 337.444 87.734V87.034C335.788 87.034 334.584 86.6407 333.775 85.9085C332.968 85.1788 332.5 84.0632 332.418 82.5016L331.718 82.5384ZM337.444 87.734H364.196V87.034H337.444V87.734ZM364.546 87.384V59.608H363.846V87.384H364.546ZM364.196 59.258H332.068V59.958H364.196V59.258ZM331.718 59.608V82.52H332.418V59.608H331.718ZM334.372 102.65C330.974 102.65 328.443 101.394 326.724 98.8975C324.989 96.3776 324.055 92.555 323.97 87.3783L323.27 87.3897C323.356 92.6237 324.299 96.6091 326.148 99.2945C328.013 102.003 330.773 103.35 334.372 103.35V102.65ZM323.97 87.384V51.672H323.27V87.384H323.97ZM323.62 52.022H364.196V51.322H323.62V52.022ZM364.546 51.672V20.952H363.846V51.672H364.546ZM364.196 21.302H372.644V20.602H364.196V21.302ZM372.294 20.952V103H372.994V20.952H372.294ZM372.644 102.65H334.372V103.35H372.644V102.65ZM382.87 43.608H382.52V43.958H382.87V43.608ZM382.87 31.32V30.97H382.52V31.32H382.87ZM393.366 31.32H393.716V30.97H393.366V31.32ZM393.366 43.608V43.958H393.716V43.608H393.366ZM383.894 51.672V51.322H383.544V51.672H383.894ZM392.342 51.672H392.692V51.322H392.342V51.672ZM392.342 102.744V103.094H392.692V102.744H392.342ZM383.894 102.744H383.544V103.094H383.894V102.744ZM383.22 43.608V31.32H382.52V43.608H383.22ZM382.87 31.67H393.366V30.97H382.87V31.67ZM393.016 31.32V43.608H393.716V31.32H393.016ZM393.366 43.258H382.87V43.958H393.366V43.258ZM383.894 52.022H392.342V51.322H383.894V52.022ZM391.992 51.672V102.744H392.692V51.672H391.992ZM392.342 102.394H383.894V103.094H392.342V102.394ZM384.244 102.744V51.672H383.544V102.744H384.244ZM444.196 87.384V87.734H444.546V87.384H444.196ZM444.196 76.632H444.546V76.282H444.196V76.632ZM412.068 76.632V76.282H411.718V76.632H412.068ZM413.476 86.232L413.241 86.491L413.247 86.4971L413.254 86.5029L413.476 86.232ZM403.62 59.608H403.27V59.958H403.62V59.608ZM403.62 51.672V51.322H403.27V51.672H403.62ZM452.644 67.416H452.994L452.994 67.4103L452.644 67.416ZM452.644 103V103.35H452.994V103H452.644ZM406.308 99.16L406.018 99.3564L406.026 99.367L406.308 99.16ZM403.62 72.024V71.674H403.27V72.024H403.62ZM444.196 72.024V72.374H444.546V72.024H444.196ZM444.546 87.384V76.632H443.846V87.384H444.546ZM444.196 76.282H412.068V76.982H444.196V76.282ZM411.718 76.632V82.52H412.418V76.632H411.718ZM411.718 82.52C411.718 84.2108 412.21 85.5539 413.241 86.491L413.711 85.973C412.865 85.2034 412.418 84.0719 412.418 82.52H411.718ZM413.254 86.5029C414.277 87.3394 415.689 87.734 417.444 87.734V87.034C415.786 87.034 414.553 86.6606 413.698 85.9611L413.254 86.5029ZM417.444 87.734H444.196V87.034H417.444V87.734ZM403.97 59.608V51.672H403.27V59.608H403.97ZM403.62 52.022H441.892V51.322H403.62V52.022ZM441.892 52.022C445.289 52.022 447.82 53.2877 449.539 55.8054C451.275 58.3469 452.209 62.2019 452.294 67.4217L452.994 67.4103C452.908 62.134 451.965 58.1171 450.117 55.4106C448.252 52.6803 445.493 51.322 441.892 51.322V52.022ZM452.294 67.416V103H452.994V67.416H452.294ZM452.644 102.65H414.372V103.35H452.644V102.65ZM414.372 102.65C410.972 102.65 408.394 101.413 406.59 98.953L406.026 99.367C407.976 102.027 410.775 103.35 414.372 103.35V102.65ZM406.598 98.9637C404.863 96.4024 403.97 92.5594 403.97 87.384H403.27C403.27 92.6193 404.169 96.627 406.018 99.3563L406.598 98.9637ZM403.97 87.384V72.024H403.27V87.384H403.97ZM403.62 72.374H444.196V71.674H403.62V72.374ZM444.546 72.024V63.192H443.846V72.024H444.546ZM444.546 63.192C444.546 61.9496 444.258 60.9525 443.62 60.2658C442.978 59.5743 442.038 59.258 440.868 59.258V59.958C441.916 59.958 442.64 60.2391 443.108 60.7422C443.579 61.2501 443.846 62.0451 443.846 63.192H444.546ZM440.868 59.258H403.62V59.958H440.868V59.258Z" fill="white"/>
</svg>
