<?xml version="1.0" standalone="no"?>
<!DOCTYPE svg PUBLIC "-//W3C//DTD SVG 20010904//EN"
 "http://www.w3.org/TR/2001/REC-SVG-20010904/DTD/svg10.dtd">
<svg version="1.0" xmlns="http://www.w3.org/2000/svg"
 width="512.000000pt" height="512.000000pt" viewBox="0 0 512.000000 512.000000"
 preserveAspectRatio="xMidYMid meet">
<metadata>
Created by potrace 1.16, written by Peter Selinger 2001-2019
</metadata>
<g transform="translate(0.000000,512.000000) scale(0.100000,-0.100000)"
fill="#000000" stroke="none">
<path d="M3192 3717 c-19 -20 -22 -35 -22 -108 0 -76 2 -88 23 -107 29 -27 67
-28 98 -3 22 18 24 27 24 111 0 84 -2 93 -24 111 -32 26 -73 24 -99 -4z"/>
<path d="M2440 3413 c-32 -12 -50 -37 -50 -71 0 -30 9 -45 58 -94 46 -45 65
-58 89 -58 43 0 74 28 75 68 1 28 -8 43 -58 92 -59 58 -86 73 -114 63z"/>
<path d="M3985 3402 c-53 -33 -115 -109 -115 -140 0 -37 37 -72 77 -72 24 0
42 13 91 64 66 69 76 97 45 134 -26 31 -63 36 -98 14z"/>
<path d="M3223 3272 c-51 -8 -53 -19 -53 -394 0 -335 1 -349 20 -368 19 -19
33 -20 220 -20 187 0 201 1 220 20 11 11 20 33 20 50 0 17 -9 39 -20 50 -18
18 -33 20 -165 20 l-145 0 0 294 c0 277 -1 295 -20 318 -21 28 -42 36 -77 30z"/>
<path d="M2081 2604 c-12 -15 -21 -34 -21 -44 0 -10 9 -29 21 -44 19 -25 25
-26 113 -26 106 0 126 11 126 72 0 56 -22 68 -128 68 -86 0 -92 -1 -111 -26z"/>
<path d="M4180 2608 c-11 -12 -20 -34 -20 -48 0 -14 9 -36 20 -48 18 -19 31
-22 110 -22 102 0 130 15 130 70 0 55 -28 70 -130 70 -79 0 -92 -3 -110 -22z"/>
<path d="M2448 1872 c-49 -49 -58 -64 -58 -94 0 -43 28 -71 71 -71 24 0 43 13
91 60 51 52 61 67 60 95 -1 40 -32 68 -75 68 -24 0 -43 -13 -89 -58z"/>
<path d="M3892 1907 c-35 -37 -28 -71 25 -128 26 -28 60 -57 75 -65 34 -18 73
-9 93 19 27 39 18 65 -47 133 -70 73 -107 83 -146 41z"/>
<path d="M3192 1617 c-19 -20 -22 -35 -22 -108 0 -76 2 -88 23 -107 29 -27 67
-28 98 -3 22 18 24 27 24 111 0 84 -2 93 -24 111 -32 26 -73 24 -99 -4z"/>
</g>
</svg>
