<svg width="165" height="184" viewBox="0 0 165 184" fill="none" xmlns="http://www.w3.org/2000/svg">
<g id="pdfIcon">
<path id="Vector" d="M35.3571 0C28.875 0 23.5714 5.175 23.5714 11.5V172.5C23.5714 178.825 28.875 184 35.3571 184H153.214C159.696 184 165 178.825 165 172.5V46L117.857 0H35.3571Z" fill="#ECEFF1"/>
<path id="Vector_2" d="M129.643 46H165L117.857 0V34.5C117.857 40.825 123.161 46 129.643 46Z" fill="#CFD1D2"/>
<path id="Vector_3" d="M165 80.5L129.643 46H165V80.5Z" fill="#DFE2E5"/>
<path id="Vector_4" d="M141.429 149.5C141.429 152.663 138.777 155.25 135.536 155.25H5.89286C2.65179 155.25 0 152.663 0 149.5V92C0 88.8375 2.65179 86.25 5.89286 86.25H135.536C138.777 86.25 141.429 88.8375 141.429 92V149.5Z" fill="#27014A"/>
<g id="Group">
<path id="Vector_5" d="M25.687 108.945C25.687 107.427 26.9127 105.771 28.8868 105.771H39.7709C45.8995 105.771 51.4152 109.773 51.4152 117.444C51.4152 124.712 45.8995 128.76 39.7709 128.76H31.9039V134.832C31.9039 136.856 30.5839 138 28.8868 138C27.3311 138 25.687 136.856 25.687 134.832V108.945V108.945ZM31.9039 111.561V123.015H39.7709C42.9295 123.015 45.428 120.296 45.428 117.444C45.428 114.229 42.9295 111.561 39.7709 111.561H31.9039Z" fill="white"/>
<path id="Vector_6" d="M60.6434 138C59.0877 138 57.3905 137.172 57.3905 135.154V109.037C57.3905 107.387 59.0877 106.185 60.6434 106.185H71.4332C92.9657 106.185 92.4943 138 71.8575 138H60.6434V138ZM63.6134 111.797V132.394H71.4332C84.1559 132.394 84.7216 111.797 71.4332 111.797H63.6134V111.797Z" fill="white"/>
<path id="Vector_7" d="M100.131 112.165V119.474H112.147C113.844 119.474 115.541 121.13 115.541 122.734C115.541 124.252 113.844 125.494 112.147 125.494H100.131V135.148C100.131 136.758 98.9588 137.994 97.3088 137.994C95.2345 137.994 93.9675 136.758 93.9675 135.148V109.032C93.9675 107.381 95.2404 106.18 97.3088 106.18H113.85C115.924 106.18 117.15 107.381 117.15 109.032C117.15 110.504 115.924 112.16 113.85 112.16H100.131V112.165Z" fill="white"/>
</g>
<path id="Vector_8" d="M135.536 155.25H23.5714V161H135.536C138.777 161 141.429 158.413 141.429 155.25V149.5C141.429 152.663 138.777 155.25 135.536 155.25Z" fill="#DFE2E6"/>
</g>
</svg>
