<svg width="200" height="46" viewBox="0 0 258 59" fill="none" xmlns="http://www.w3.org/2000/svg">
<g filter="url(#filter0_i_16_422)">
<path d="M140.552 37.702V23.9722C140.552 22.6164 139.922 21.9383 138.663 21.9383H122.318V37.702H140.552ZM145.346 46.5645H122.318V58.1875H117.524V17.4343H139.244C143.215 17.4343 145.249 20.4128 145.346 26.3695V46.5645ZM155.944 28.0404H174.178V23.9722C174.178 22.6164 173.548 21.9383 172.289 21.9383H155.944V28.0404ZM157.252 46.5645C153.28 46.5645 151.246 43.6104 151.15 37.702V17.4343H172.87C174.856 17.4343 176.357 18.1851 177.374 19.6865C178.439 21.1392 178.972 23.3669 178.972 26.3695V30.5102H155.944V34.9414C155.944 35.8618 156.211 36.564 156.743 37.0481C157.276 37.4841 158.027 37.702 158.995 37.702H178.972V46.5645H157.252ZM189.57 34.9414C189.667 36.7819 190.684 37.702 192.621 37.702H207.803V21.9383H189.57V34.9414ZM190.878 46.5645C186.907 46.5645 184.873 43.6104 184.776 37.702V17.4343H207.803V0H212.598V46.5645H190.878ZM218.402 12.8579V5.88398H224.358V12.8579H218.402ZM218.983 17.4343H223.777V46.4193H218.983V17.4343ZM253.206 37.702V31.5999H234.972V34.9414C234.972 35.8618 235.238 36.564 235.771 37.0481C236.304 37.4841 237.055 37.702 238.023 37.702H253.206ZM230.178 21.9383V17.4343H251.898C255.869 17.4343 257.903 20.4128 258 26.3695V46.5645H236.28C234.294 46.5645 232.769 45.8381 231.703 44.3851C230.686 42.8838 230.178 40.6561 230.178 37.702V28.9847H253.206V23.9722C253.206 22.6164 252.576 21.9383 251.317 21.9383H230.178Z" fill="url(#paint0_linear_16_422)"/>
<path d="M24.6615 38.4534V38.8247H25.0328V38.4534H24.6615ZM24.6615 32.2819H25.0328V31.9103H24.6615V32.2819ZM6.22039 32.2819V31.9103H5.8491V32.2819H6.22039ZM7.02857 37.7921L6.77859 38.067L6.78597 38.0733L6.79336 38.0795L7.02857 37.7921ZM1.37128 22.5104H1V22.8817H1.37128V22.5104ZM1.37128 17.9553V17.5838H1V17.9553H1.37128ZM29.5103 26.9919H29.8819V26.986L29.5103 26.9919ZM29.5103 47.4167V47.788H29.8819V47.4167H29.5103ZM2.91436 45.2126L2.60671 45.4208L2.61069 45.4265L2.61466 45.4322L2.91436 45.2126ZM1.37128 29.6369V29.2656H1V29.6369H1.37128ZM24.6615 29.6369V30.0082H25.0328V29.6369H24.6615ZM25.0328 38.4534V32.2819H24.2899V38.4534H25.0328ZM24.6615 31.9103H6.22039V32.6532H24.6615V31.9103ZM5.8491 32.2819V35.6615H6.59167V32.2819H5.8491ZM5.8491 35.6615C5.8491 36.6657 6.14227 37.4884 6.77887 38.067L7.27827 37.5174C6.83739 37.1162 6.59167 36.5186 6.59167 35.6615H5.8491ZM6.79336 38.0795C7.42116 38.5931 8.27508 38.8247 9.30626 38.8247V38.0821C8.37791 38.0821 7.71375 37.8727 7.26378 37.5046L6.79336 38.0795ZM9.30626 38.8247H24.6615V38.0821H9.30626V38.8247ZM1.74285 22.5104V17.9553H1V22.5104H1.74285ZM1.37128 18.3266H23.3388V17.5838H1.37128V18.3266ZM23.3388 18.3266C25.239 18.3266 26.6358 19.0305 27.5874 20.4239C28.5561 21.8423 29.0907 24.0157 29.139 26.9982L29.8819 26.986C29.8321 23.9438 29.289 21.5985 28.2007 20.0049C27.0951 18.386 25.4552 17.5838 23.3388 17.5838V18.3266ZM29.139 26.9919V47.4167H29.8819V26.9919H29.139ZM29.5103 47.0454H7.54302V47.788H29.5103V47.0454ZM7.54302 47.0454C5.63889 47.0454 4.2137 46.3562 3.21377 44.993L2.61466 45.4322C3.77027 47.0076 5.43067 47.788 7.54302 47.788V47.0454ZM3.22172 45.0043C2.25361 43.5752 1.74285 41.4094 1.74285 38.4534H1C1 41.4731 1.51786 43.8132 2.60671 45.4208L3.22172 45.0043ZM1.74285 38.4534V29.6369H1V38.4534H1.74285ZM1.37128 30.0082H24.6615V29.2656H1.37128V30.0082ZM25.0328 29.6369V24.5674H24.2899V29.6369H25.0328ZM25.0328 24.5674C25.0328 23.8311 24.8623 23.2095 24.4561 22.772C24.0448 22.3292 23.4525 22.1388 22.7511 22.1388V22.8817C23.3232 22.8817 23.6863 23.0345 23.9115 23.2774C24.1419 23.5254 24.2899 23.9325 24.2899 24.5674H25.0328ZM22.7511 22.1388H1.37128V22.8817H22.7511V22.1388ZM35.3801 17.9553V17.5838H35.0085V17.9553H35.3801ZM76.2293 26.9919H76.6006V26.986L76.2293 26.9919ZM76.2293 47.4167V47.788H76.6006V47.4167H76.2293ZM69.0292 47.4167H68.6579V47.788H69.0292V47.4167ZM58.2291 22.5104V22.1388H57.8578V22.5104H58.2291ZM58.2291 47.4167V47.788H58.6007V47.4167H58.2291ZM51.029 47.4167H50.6577V47.788H51.029V47.4167ZM40.2289 22.5104V22.1388H39.8576V22.5104H40.2289ZM40.2289 47.2698V47.6411H40.6005V47.2698H40.2289ZM35.3801 47.2698H35.0085V47.6411H35.3801V47.2698ZM35.3801 18.3266H70.0578V17.5838H35.3801V18.3266ZM70.0578 18.3266C71.958 18.3266 73.3548 19.0305 74.3064 20.4239C75.2751 21.8423 75.8094 24.0157 75.858 26.9982L76.6006 26.986C76.5512 23.9438 76.008 21.5985 74.9197 20.0049C73.8141 18.386 72.1742 17.5838 70.0578 17.5838V18.3266ZM75.858 26.9919V47.4167H76.6006V26.9919H75.858ZM76.2293 47.0454H69.0292V47.788H76.2293V47.0454ZM69.4005 47.4167V24.5674H68.6579V47.4167H69.4005ZM69.4005 24.5674C69.4005 23.8311 69.2303 23.2095 68.8238 22.772C68.4125 22.3292 67.8205 22.1388 67.1191 22.1388V22.8817C67.6912 22.8817 68.054 23.0345 68.2796 23.2774C68.5099 23.5254 68.6579 23.9325 68.6579 24.5674H69.4005ZM67.1191 22.1388H58.2291V22.8817H67.1191V22.1388ZM57.8578 22.5104V47.4167H58.6007V22.5104H57.8578ZM58.2291 47.0454H51.029V47.788H58.2291V47.0454ZM51.4006 47.4167V24.5674H50.6577V47.4167H51.4006ZM51.4006 24.5674C51.4006 23.8311 51.2301 23.2095 50.8236 22.772C50.4126 22.3292 49.8203 22.1388 49.1189 22.1388V22.8817C49.691 22.8817 50.0538 23.0345 50.2793 23.2774C50.5097 23.5254 50.6577 23.9325 50.6577 24.5674H51.4006ZM49.1189 22.1388H40.2289V22.8817H49.1189V22.1388ZM39.8576 22.5104V47.2698H40.6005V22.5104H39.8576ZM40.2289 46.8983H35.3801V47.6411H40.2289V46.8983ZM35.7513 47.2698V17.9553H35.0085V47.2698H35.7513ZM82.088 38.4534H81.7167V38.4593L82.088 38.4534ZM82.088 17.9553V17.5838H81.7167V17.9553H82.088ZM86.9371 17.9553H87.3084V17.5838H86.9371V17.9553ZM86.9371 35.6615H86.5655V35.6712L86.5661 35.6811L86.9371 35.6615ZM104.202 38.4534V38.8247H104.574V38.4534H104.202ZM104.202 17.9553V17.5838H103.831V17.9553H104.202ZM109.052 17.9553H109.423V17.5838H109.052V17.9553ZM109.052 47.4167V47.788H109.423V47.4167H109.052ZM88.2595 47.0454C86.3582 47.0454 84.9611 46.3466 84.0103 44.9651C83.0422 43.5593 82.5079 41.4046 82.4593 38.4471L81.7167 38.4593C81.7661 41.4776 82.3093 43.8047 83.3984 45.3864C84.5046 46.9931 86.1445 47.788 88.2595 47.788V47.0454ZM82.4593 38.4534V17.9553H81.7167V38.4534H82.4593ZM82.088 18.3266H86.9371V17.5838H82.088V18.3266ZM86.5655 17.9553V35.6615H87.3084V17.9553H86.5655ZM86.5661 35.6811C86.6184 36.6751 86.9235 37.4796 87.5328 38.0307C88.139 38.5792 88.989 38.8247 90.0227 38.8247V38.0821C89.0975 38.0821 88.4535 37.8622 88.0311 37.4799C87.6118 37.1006 87.3536 36.5092 87.3078 35.6419L86.5661 35.6811ZM90.0227 38.8247H104.202V38.0821H90.0227V38.8247ZM104.574 38.4534V17.9553H103.831V38.4534H104.574ZM104.202 18.3266H109.052V17.5838H104.202V18.3266ZM108.68 17.9553V47.4167H109.423V17.9553H108.68ZM109.052 47.0454H88.2595V47.788H109.052V47.0454Z" fill="white"/>
<path d="M24.6615 38.8247V38.4534H25.0328M24.6615 38.8247H25.0328V38.4534M24.6615 38.8247H9.30626M24.6615 38.8247V38.0821H9.30626M25.0328 38.4534V32.2819M25.0328 38.4534H24.2899V32.2819H25.0328M25.0328 32.2819H24.6615V31.9103M25.0328 32.2819V31.9103H24.6615M24.6615 31.9103H6.22039M24.6615 31.9103V32.6532H6.22039V31.9103M6.22039 31.9103V32.2819H5.8491M6.22039 31.9103H5.8491V32.2819M5.8491 32.2819V35.6615M5.8491 32.2819H6.59167V35.6615M6.79336 38.0795L6.78597 38.0733L6.77859 38.067L7.02857 37.7921L6.79336 38.0795ZM6.79336 38.0795C7.42116 38.5931 8.27508 38.8247 9.30626 38.8247M6.79336 38.0795L7.26378 37.5046C7.71375 37.8727 8.37791 38.0821 9.30626 38.0821M1 22.5104H1.37128V22.8817M1 22.5104V22.8817H1.37128M1 22.5104V17.9553M1 22.5104H1.74285V17.9553H1M1.37128 22.8817V22.1388H22.7511M1.37128 22.8817H22.7511M1.37128 17.5838V17.9553H1M1.37128 17.5838H1V17.9553M1.37128 17.5838H23.3388M1.37128 17.5838V18.3266H23.3388M29.8819 26.9919H29.5103L29.8819 26.986M29.8819 26.9919V26.986M29.8819 26.9919V47.4167M29.8819 26.9919H29.139V47.4167H29.8819M29.8819 26.986L29.139 26.9982C29.0907 24.0157 28.5561 21.8423 27.5874 20.4239C26.6358 19.0305 25.239 18.3266 23.3388 18.3266M29.8819 26.986C29.8321 23.9438 29.289 21.5985 28.2007 20.0049C27.0951 18.386 25.4552 17.5838 23.3388 17.5838M29.5103 47.788V47.4167H29.8819M29.5103 47.788H29.8819V47.4167M29.5103 47.788H7.54302M29.5103 47.788V47.0454H7.54302M2.60671 45.4208L2.91436 45.2126L2.61466 45.4322M2.60671 45.4208L2.61069 45.4265L2.61466 45.4322M2.60671 45.4208C1.51786 43.8132 1 41.4731 1 38.4534M2.60671 45.4208L3.22172 45.0043C2.25361 43.5752 1.74285 41.4094 1.74285 38.4534M2.61466 45.4322L3.21377 44.993C4.2137 46.3562 5.63889 47.0454 7.54302 47.0454M2.61466 45.4322C3.77027 47.0076 5.43067 47.788 7.54302 47.788M1.37128 29.2656V29.6369H1M1.37128 29.2656H1V29.6369M1.37128 29.2656H24.6615V30.0082M1.37128 29.2656V30.0082H24.6615M1 29.6369H1.74285V38.4534M1 29.6369V38.4534M24.6615 30.0082V29.6369H25.0328M24.6615 30.0082H25.0328V29.6369M25.0328 29.6369V24.5674M25.0328 29.6369H24.2899V24.5674M5.8491 35.6615H6.59167M5.8491 35.6615C5.8491 36.6657 6.14227 37.4884 6.77887 38.067L7.27827 37.5174C6.83739 37.1162 6.59167 36.5186 6.59167 35.6615M9.30626 38.8247V38.0821M23.3388 18.3266V17.5838M7.54302 47.0454V47.788M1.74285 38.4534H1M25.0328 24.5674H24.2899M25.0328 24.5674C25.0328 23.8311 24.8623 23.2095 24.4561 22.772C24.0448 22.3292 23.4525 22.1388 22.7511 22.1388M24.2899 24.5674C24.2899 23.9325 24.1419 23.5254 23.9115 23.2774C23.6863 23.0345 23.3232 22.8817 22.7511 22.8817M22.7511 22.1388V22.8817M35.3801 17.5838V17.9553H35.0085M35.3801 17.5838H35.0085V17.9553M35.3801 17.5838H70.0578M35.3801 17.5838V18.3266H70.0578M35.0085 17.9553H35.7513V47.2698H35.0085M35.0085 17.9553V47.2698M76.6006 26.9919H76.2293L76.6006 26.986M76.6006 26.9919V26.986M76.6006 26.9919V47.4167M76.6006 26.9919H75.858V47.4167H76.6006M76.6006 26.986L75.858 26.9982C75.8094 24.0157 75.2751 21.8423 74.3064 20.4239C73.3548 19.0305 71.958 18.3266 70.0578 18.3266M76.6006 26.986C76.5512 23.9438 76.008 21.5985 74.9197 20.0049C73.8141 18.386 72.1742 17.5838 70.0578 17.5838M76.2293 47.788V47.4167H76.6006M76.2293 47.788H76.6006V47.4167M76.2293 47.788H69.0292M76.2293 47.788V47.0454H69.0292V47.788M68.6579 47.4167H69.0292V47.788M68.6579 47.4167V47.788H69.0292M68.6579 47.4167V24.5674M68.6579 47.4167H69.4005V24.5674M58.2291 22.1388V22.5104H57.8578M58.2291 22.1388H57.8578V22.5104M58.2291 22.1388H67.1191M58.2291 22.1388V22.8817H67.1191M57.8578 22.5104V47.4167H58.6007M57.8578 22.5104H58.6007V47.4167M58.2291 47.788V47.4167H58.6007M58.2291 47.788H58.6007V47.4167M58.2291 47.788H51.029M58.2291 47.788V47.0454H51.029V47.788M50.6577 47.4167H51.029V47.788M50.6577 47.4167V47.788H51.029M50.6577 47.4167V24.5674M50.6577 47.4167H51.4006V24.5674M40.2289 22.1388V22.5104H39.8576M40.2289 22.1388H39.8576V22.5104M40.2289 22.1388H49.1189M40.2289 22.1388V22.8817H49.1189M39.8576 22.5104V47.2698H40.6005M39.8576 22.5104H40.6005V47.2698M40.2289 47.6411V47.2698H40.6005M40.2289 47.6411H40.6005V47.2698M40.2289 47.6411H35.3801M40.2289 47.6411V46.8983H35.3801V47.6411M35.0085 47.2698H35.3801V47.6411M35.0085 47.2698V47.6411H35.3801M70.0578 18.3266V17.5838M69.4005 24.5674H68.6579M69.4005 24.5674C69.4005 23.8311 69.2303 23.2095 68.8238 22.772C68.4125 22.3292 67.8205 22.1388 67.1191 22.1388M68.6579 24.5674C68.6579 23.9325 68.5099 23.5254 68.2796 23.2774C68.054 23.0345 67.6912 22.8817 67.1191 22.8817M67.1191 22.1388V22.8817M51.4006 24.5674H50.6577M51.4006 24.5674C51.4006 23.8311 51.2301 23.2095 50.8236 22.772C50.4126 22.3292 49.8203 22.1388 49.1189 22.1388M50.6577 24.5674C50.6577 23.9325 50.5097 23.5254 50.2793 23.2774C50.0538 23.0345 49.691 22.8817 49.1189 22.8817M49.1189 22.1388V22.8817M81.7167 38.4534H82.088L81.7167 38.4593M81.7167 38.4534V38.4593M81.7167 38.4534V17.9553M81.7167 38.4534H82.4593V17.9553H81.7167M81.7167 38.4593L82.4593 38.4471C82.5079 41.4046 83.0422 43.5593 84.0103 44.9651C84.9611 46.3466 86.3582 47.0454 88.2595 47.0454M81.7167 38.4593C81.7661 41.4776 82.3093 43.8047 83.3984 45.3864C84.5046 46.9931 86.1445 47.788 88.2595 47.788M82.088 17.5838V17.9553H81.7167M82.088 17.5838H81.7167V17.9553M82.088 17.5838H86.9371M82.088 17.5838V18.3266H86.9371V17.5838M87.3084 17.9553H86.9371V17.5838M87.3084 17.9553V17.5838H86.9371M87.3084 17.9553V35.6615H86.5655M87.3084 17.9553H86.5655V35.6615M86.5655 35.6615H86.9371L86.5661 35.6811M86.5655 35.6615V35.6712L86.5661 35.6811M86.5661 35.6811C86.6184 36.6751 86.9235 37.4796 87.5328 38.0307C88.139 38.5792 88.989 38.8247 90.0227 38.8247M86.5661 35.6811L87.3078 35.6419C87.3536 36.5092 87.6118 37.1006 88.0311 37.4799C88.4535 37.8622 89.0975 38.0821 90.0227 38.0821M104.202 38.8247V38.4534H104.574M104.202 38.8247H104.574V38.4534M104.202 38.8247H90.0227M104.202 38.8247V38.0821H90.0227M104.574 38.4534V17.9553H103.831M104.574 38.4534H103.831V17.9553M104.202 17.5838V17.9553H103.831M104.202 17.5838H103.831V17.9553M104.202 17.5838H109.052M104.202 17.5838V18.3266H109.052V17.5838M109.423 17.9553H109.052V17.5838M109.423 17.9553V17.5838H109.052M109.423 17.9553V47.4167M109.423 17.9553H108.68V47.4167H109.423M109.052 47.788V47.4167H109.423M109.052 47.788H109.423V47.4167M109.052 47.788H88.2595M109.052 47.788V47.0454H88.2595M88.2595 47.0454V47.788M90.0227 38.8247V38.0821" stroke="black" stroke-width="0.6"/>
</g>
<defs>
<filter id="filter0_i_16_422" x="0.699951" y="0" width="257.3" height="62.1875" filterUnits="userSpaceOnUse" color-interpolation-filters="sRGB">
<feFlood flood-opacity="0" result="BackgroundImageFix"/>
<feBlend mode="normal" in="SourceGraphic" in2="BackgroundImageFix" result="shape"/>
<feColorMatrix in="SourceAlpha" type="matrix" values="0 0 0 0 0 0 0 0 0 0 0 0 0 0 0 0 0 0 127 0" result="hardAlpha"/>
<feOffset dy="4"/>
<feGaussianBlur stdDeviation="5"/>
<feComposite in2="hardAlpha" operator="arithmetic" k2="-1" k3="1"/>
<feColorMatrix type="matrix" values="0 0 0 0 0 0 0 0 0 0 0 0 0 0 0 0 0 0 0.53 0"/>
<feBlend mode="normal" in2="shape" result="effect1_innerShadow_16_422"/>
</filter>
<linearGradient id="paint0_linear_16_422" x1="97.5" y1="10.5" x2="362" y2="65.5" gradientUnits="userSpaceOnUse">
<stop stop-color="#3122AB"/>
<stop offset="1" stop-color="#C3449F"/>
</linearGradient>
</defs>
</svg>
