<svg width="200" height="46" viewBox="0 0 257 59" fill="none" xmlns="http://www.w3.org/2000/svg">
<g filter="url(#filter0_i_16_422)">
<path d="M139.552 37.702V23.9722C139.552 22.6164 138.922 21.9383 137.663 21.9383H121.318V37.702H139.552ZM144.346 46.5645H121.318V58.1875H116.524V17.4343H138.244C142.215 17.4343 144.249 20.4128 144.346 26.3695V46.5645ZM154.944 28.0404H173.178V23.9722C173.178 22.6164 172.548 21.9383 171.289 21.9383H154.944V28.0404ZM156.252 46.5645C152.28 46.5645 150.246 43.6104 150.15 37.702V17.4343H171.87C173.856 17.4343 175.357 18.1851 176.374 19.6865C177.439 21.1392 177.972 23.3669 177.972 26.3695V30.5102H154.944V34.9414C154.944 35.8618 155.211 36.564 155.743 37.0481C156.276 37.4841 157.027 37.702 157.995 37.702H177.972V46.5645H156.252ZM188.57 34.9414C188.667 36.7819 189.684 37.702 191.621 37.702H206.803V21.9383H188.57V34.9414ZM189.878 46.5645C185.907 46.5645 183.873 43.6104 183.776 37.702V17.4343H206.803V0H211.598V46.5645H189.878ZM217.402 12.8579V5.88398H223.358V12.8579H217.402ZM217.983 17.4343H222.777V46.4193H217.983V17.4343ZM252.206 37.702V31.5999H233.972V34.9414C233.972 35.8618 234.238 36.564 234.771 37.0481C235.304 37.4841 236.055 37.702 237.023 37.702H252.206ZM229.178 21.9383V17.4343H250.898C254.869 17.4343 256.903 20.4128 257 26.3695V46.5645H235.28C233.294 46.5645 231.769 45.8381 230.703 44.3851C229.686 42.8838 229.178 40.6561 229.178 37.702V28.9847H252.206V23.9722C252.206 22.6164 251.576 21.9383 250.317 21.9383H229.178Z" fill="url(#paint0_linear_16_422)"/>
<path d="M23.6615 38.4534V38.8246H24.0328V38.4534H23.6615ZM23.6615 32.2819H24.0328V31.9103H23.6615V32.2819ZM5.22039 32.2819V31.9103H4.8491V32.2819H5.22039ZM6.02857 37.7921L5.77859 38.067L5.78597 38.0733L5.79336 38.0795L6.02857 37.7921ZM0.371282 22.5104H0V22.8817H0.371282V22.5104ZM0.371282 17.9553V17.5838H0V17.9553H0.371282ZM28.5103 26.9919H28.8819V26.986L28.5103 26.9919ZM28.5103 47.4167V47.788H28.8819V47.4167H28.5103ZM1.91436 45.2126L1.60671 45.4208L1.61069 45.4265L1.61466 45.4322L1.91436 45.2126ZM0.371282 29.6369V29.2656H0V29.6369H0.371282ZM23.6615 29.6369V30.0082H24.0328V29.6369H23.6615ZM24.0328 38.4534V32.2819H23.2899V38.4534H24.0328ZM23.6615 31.9103H5.22039V32.6532H23.6615V31.9103ZM4.8491 32.2819V35.6615H5.59167V32.2819H4.8491ZM4.8491 35.6615C4.8491 36.6657 5.14227 37.4884 5.77887 38.067L6.27827 37.5174C5.83739 37.1162 5.59167 36.5186 5.59167 35.6615H4.8491ZM5.79336 38.0795C6.42116 38.5931 7.27508 38.8246 8.30626 38.8246V38.0821C7.37791 38.0821 6.71375 37.8727 6.26378 37.5046L5.79336 38.0795ZM8.30626 38.8246H23.6615V38.0821H8.30626V38.8246ZM0.742848 22.5104V17.9553H0V22.5104H0.742848ZM0.371282 18.3266H22.3388V17.5838H0.371282V18.3266ZM22.3388 18.3266C24.239 18.3266 25.6358 19.0305 26.5874 20.4239C27.5561 21.8423 28.0907 24.0157 28.139 26.9982L28.8819 26.986C28.8321 23.9438 28.289 21.5985 27.2007 20.0049C26.0951 18.386 24.4552 17.5838 22.3388 17.5838V18.3266ZM28.139 26.9919V47.4167H28.8819V26.9919H28.139ZM28.5103 47.0454H6.54302V47.788H28.5103V47.0454ZM6.54302 47.0454C4.63889 47.0454 3.2137 46.3562 2.21377 44.993L1.61466 45.4322C2.77027 47.0076 4.43067 47.788 6.54302 47.788V47.0454ZM2.22172 45.0043C1.25361 43.5752 0.742848 41.4094 0.742848 38.4534H0C0 41.4731 0.517863 43.8132 1.60671 45.4208L2.22172 45.0043ZM0.742848 38.4534V29.6369H0V38.4534H0.742848ZM0.371282 30.0082H23.6615V29.2656H0.371282V30.0082ZM24.0328 29.6369V24.5674H23.2899V29.6369H24.0328ZM24.0328 24.5674C24.0328 23.8311 23.8623 23.2095 23.4561 22.772C23.0448 22.3292 22.4525 22.1388 21.7511 22.1388V22.8817C22.3232 22.8817 22.6863 23.0345 22.9115 23.2774C23.1419 23.5254 23.2899 23.9325 23.2899 24.5674H24.0328ZM21.7511 22.1388H0.371282V22.8817H21.7511V22.1388ZM34.3801 17.9553V17.5838H34.0085V17.9553H34.3801ZM75.2293 26.9919H75.6006V26.986L75.2293 26.9919ZM75.2293 47.4167V47.788H75.6006V47.4167H75.2293ZM68.0292 47.4167H67.6579V47.788H68.0292V47.4167ZM57.2291 22.5104V22.1388H56.8578V22.5104H57.2291ZM57.2291 47.4167V47.788H57.6007V47.4167H57.2291ZM50.029 47.4167H49.6577V47.788H50.029V47.4167ZM39.2289 22.5104V22.1388H38.8576V22.5104H39.2289ZM39.2289 47.2698V47.6411H39.6005V47.2698H39.2289ZM34.3801 47.2698H34.0085V47.6411H34.3801V47.2698ZM34.3801 18.3266H69.0578V17.5838H34.3801V18.3266ZM69.0578 18.3266C70.958 18.3266 72.3548 19.0305 73.3064 20.4239C74.2751 21.8423 74.8094 24.0157 74.858 26.9982L75.6006 26.986C75.5512 23.9438 75.008 21.5985 73.9197 20.0049C72.8141 18.386 71.1742 17.5838 69.0578 17.5838V18.3266ZM74.858 26.9919V47.4167H75.6006V26.9919H74.858ZM75.2293 47.0454H68.0292V47.788H75.2293V47.0454ZM68.4005 47.4167V24.5674H67.6579V47.4167H68.4005ZM68.4005 24.5674C68.4005 23.8311 68.2303 23.2095 67.8238 22.772C67.4125 22.3292 66.8205 22.1388 66.1191 22.1388V22.8817C66.6912 22.8817 67.054 23.0345 67.2796 23.2774C67.5099 23.5254 67.6579 23.9325 67.6579 24.5674H68.4005ZM66.1191 22.1388H57.2291V22.8817H66.1191V22.1388ZM56.8578 22.5104V47.4167H57.6007V22.5104H56.8578ZM57.2291 47.0454H50.029V47.788H57.2291V47.0454ZM50.4006 47.4167V24.5674H49.6577V47.4167H50.4006ZM50.4006 24.5674C50.4006 23.8311 50.2301 23.2095 49.8236 22.772C49.4126 22.3292 48.8203 22.1388 48.1189 22.1388V22.8817C48.691 22.8817 49.0538 23.0345 49.2793 23.2774C49.5097 23.5254 49.6577 23.9325 49.6577 24.5674H50.4006ZM48.1189 22.1388H39.2289V22.8817H48.1189V22.1388ZM38.8576 22.5104V47.2698H39.6005V22.5104H38.8576ZM39.2289 46.8983H34.3801V47.6411H39.2289V46.8983ZM34.7514 47.2698V17.9553H34.0085V47.2698H34.7514ZM81.088 38.4534H80.7167V38.4593L81.088 38.4534ZM81.088 17.9553V17.5838H80.7167V17.9553H81.088ZM85.9371 17.9553H86.3084V17.5838H85.9371V17.9553ZM85.9371 35.6615H85.5655V35.6712L85.5661 35.6811L85.9371 35.6615ZM103.202 38.4534V38.8246H103.574V38.4534H103.202ZM103.202 17.9553V17.5838H102.831V17.9553H103.202ZM108.052 17.9553H108.423V17.5838H108.052V17.9553ZM108.052 47.4167V47.788H108.423V47.4167H108.052ZM87.2595 47.0454C85.3582 47.0454 83.9611 46.3466 83.0103 44.9651C82.0422 43.5593 81.5079 41.4046 81.4593 38.4471L80.7167 38.4593C80.7661 41.4776 81.3093 43.8047 82.3984 45.3864C83.5046 46.9931 85.1445 47.788 87.2595 47.788V47.0454ZM81.4593 38.4534V17.9553H80.7167V38.4534H81.4593ZM81.088 18.3266H85.9371V17.5838H81.088V18.3266ZM85.5655 17.9553V35.6615H86.3084V17.9553H85.5655ZM85.5661 35.6811C85.6184 36.6751 85.9235 37.4796 86.5328 38.0307C87.139 38.5792 87.989 38.8246 89.0227 38.8246V38.0821C88.0975 38.0821 87.4535 37.8622 87.0311 37.4799C86.6118 37.1006 86.3536 36.5092 86.3078 35.6419L85.5661 35.6811ZM89.0227 38.8246H103.202V38.0821H89.0227V38.8246ZM103.574 38.4534V17.9553H102.831V38.4534H103.574ZM103.202 18.3266H108.052V17.5838H103.202V18.3266ZM107.68 17.9553V47.4167H108.423V17.9553H107.68ZM108.052 47.0454H87.2595V47.788H108.052V47.0454Z" fill="black"/>
</g>
<defs>
<filter id="filter0_i_16_422" x="0" y="0" width="257" height="62.1875" filterUnits="userSpaceOnUse" color-interpolation-filters="sRGB">
<feFlood flood-opacity="0" result="BackgroundImageFix"/>
<feBlend mode="normal" in="SourceGraphic" in2="BackgroundImageFix" result="shape"/>
<feColorMatrix in="SourceAlpha" type="matrix" values="0 0 0 0 0 0 0 0 0 0 0 0 0 0 0 0 0 0 127 0" result="hardAlpha"/>
<feOffset dy="4"/>
<feGaussianBlur stdDeviation="5"/>
<feComposite in2="hardAlpha" operator="arithmetic" k2="-1" k3="1"/>
<feColorMatrix type="matrix" values="0 0 0 0 0 0 0 0 0 0 0 0 0 0 0 0 0 0 0.53 0"/>
<feBlend mode="normal" in2="shape" result="effect1_innerShadow_16_422"/>
</filter>
<linearGradient id="paint0_linear_16_422" x1="96.5" y1="10.5" x2="361" y2="65.5" gradientUnits="userSpaceOnUse">
<stop stop-color="#3122AB"/>
<stop offset="1" stop-color="#C3449F"/>
</linearGradient>
</defs>
</svg>
