<?xml version="1.0" encoding="UTF-8" standalone="no"?>
<svg
   viewBox="0 0 200 200"
   height="200"
   width="200"
   xml:space="preserve"
   id="svg2"
   version="1.1"
   sodipodi:docname="app.svg"
   inkscape:version="1.1 (c4e8f9e, 2021-05-24)"
   xmlns:inkscape="http://www.inkscape.org/namespaces/inkscape"
   xmlns:sodipodi="http://sodipodi.sourceforge.net/DTD/sodipodi-0.dtd"
   xmlns="http://www.w3.org/2000/svg"
   xmlns:svg="http://www.w3.org/2000/svg"
   xmlns:rdf="http://www.w3.org/1999/02/22-rdf-syntax-ns#"
   xmlns:cc="http://creativecommons.org/ns#"
   xmlns:dc="http://purl.org/dc/elements/1.1/"><sodipodi:namedview
     id="namedview924"
     pagecolor="#ffffff"
     bordercolor="#666666"
     borderopacity="1.0"
     inkscape:pageshadow="2"
     inkscape:pageopacity="0.0"
     inkscape:pagecheckerboard="0"
     showgrid="false"
     width="200px"
     inkscape:zoom="2.3023228"
     inkscape:cx="6.7323313"
     inkscape:cy="115.53549"
     inkscape:window-width="1280"
     inkscape:window-height="772"
     inkscape:window-x="0"
     inkscape:window-y="0"
     inkscape:window-maximized="0"
     inkscape:current-layer="svg2"
     inkscape:showpageshadow="false" /><metadata
     id="metadata8"><rdf:RDF><cc:Work
         rdf:about=""><dc:format>image/svg+xml</dc:format><dc:type
           rdf:resource="http://purl.org/dc/dcmitype/StillImage" /></cc:Work></rdf:RDF></metadata><defs
     id="defs6"><clipPath
       id="clipPath24"
       clipPathUnits="userSpaceOnUse"><path
         id="path22"
         d="m 8598.21,14380.5 c -2910.5,0.3 -4786.33,2123.6 -3887.06,3625.4 1340.4,2238.4 5596.15,677 8749.95,2895.7 1041.2,732.5 2073.5,995.1 2977.2,995.1 1833.7,0 3137,-1082 2903.8,-1515.9 -348.1,-647.7 -1830.1,44.6 -2512.2,-976.8 -682.2,-1021.4 -1621.8,-1771.5 -3407.1,-3167.5 -1720.7,-1345.5 -3396.9,-1856.2 -4824.59,-1856 m 4308.99,5956.6 -5496.43,-3173.4 2531.4,-1471.1 5496.43,3173.4 -2531.4,1471.1" /></clipPath><linearGradient
       id="linearGradient32"
       spreadMethod="pad"
       gradientTransform="matrix(14884.6,0,0,-14884.6,4484.51,18138.6)"
       gradientUnits="userSpaceOnUse"
       y2="0"
       x2="1"
       y1="0"
       x1="0"><stop
         id="stop28"
         offset="0"
         style="stop-opacity:1;stop-color:#eaf8fe" /><stop
         id="stop30"
         offset="1"
         style="stop-opacity:1;stop-color:#baddf5" /></linearGradient><clipPath
       id="clipPath42"
       clipPathUnits="userSpaceOnUse"><path
         id="path40"
         d="m 16261.4,2290.1 c -1848.3,0.1 -2242.4,1834.9 -3145,2203.7 -64.3,26.3 -127.7,38.4 -191,38.4 -377.7,0 -748.3,-432.1 -1238.9,-864.1 C 11195.8,3236 10585.1,2804 9726.52,2804 c -605.05,0 -1333.32,214.8 -2228.96,795.3 -3650.22,2366 550.43,2790.7 820.3,3556.9 269.88,766.3 -6208.73,1000.9 -1776.32,2090.1 1412.45,347 2709.94,500.5 3874.76,500.5 701.6,0 1355,-55.7 1956.2,-158.4 l 2493.7,-1439.7 507.8,293.2 c 186.3,-129.9 357.2,-267 512.5,-410.5 0,0 4995.2,-4248.8 1835.5,-5436.5 -572.2,-215.1 -1051.9,-304.8 -1460.6,-304.8 M 10647.2,6874.9 7788.93,5229 c -106.06,-61.2 -106.63,-161.5 -1.26,-222.8 L 9234.2,4165.6 c 52.72,-30.7 122.35,-46 192.07,-46 69.73,0 139.56,15.4 192.6,46 l 2872.83,1654.2 2169.1,-1240.6 2668.9,1541 L 11330,9581.3 8603.78,8043.6 10647.2,6874.9" /></clipPath><linearGradient
       id="linearGradient50"
       spreadMethod="pad"
       gradientTransform="matrix(13783.2,0,0,-13783.2,4986.37,6018.5)"
       gradientUnits="userSpaceOnUse"
       y2="0"
       x2="1"
       y1="0"
       x1="0"><stop
         id="stop46"
         offset="0"
         style="stop-opacity:1;stop-color:#eaf8fe" /><stop
         id="stop48"
         offset="1"
         style="stop-opacity:1;stop-color:#baddf5" /></linearGradient><clipPath
       id="clipPath60"
       clipPathUnits="userSpaceOnUse"><path
         id="path58"
         d="m 23061.1,1908.5 c -310.1,0 -597,54.3 -850.8,186.2 -1036.9,539 -987.7,1288.3 -814.7,1762.1 122.7,335.9 478.4,431.1 614.7,481 186.1,68 369.6,90.7 532.6,90.7 287.7,0 511.3,-70.6 572.2,-87 53.9,-14.6 110.1,-21.6 168.4,-21.6 1525.3,0 4524.8,4797.5 8006.2,5128.6 82.9,7.9 165.3,13.2 247,16 -30.9,-8.3 -61.1,-20.6 -89.6,-37.1 L 27732,7282.5 l 625.2,-361 -625.2,-360.9 156.2,-90.1 -156.2,-90.2 625.2,-361 -625.2,-360.9 415.4,-239.5 v -42.1 l 2876.1,-1660.5 3913.6,2259.5 245.5,135.6 -1127.5,583.4 466.6,269.3 -156.2,90.2 156.2,90.1 -625.2,361 625.2,360.9 -2703.8,1561.1 c -31.4,18.1 -64.8,31.3 -99.1,39.5 1593.4,-13.5 2909.5,-919 3404,-1259.3 505,-347.5 1161.5,-809.4 1198.6,-1484.6 29.1,-529 -370.4,-1082.5 -1198.6,-1746.1 -1321.7,-1059 -3787,-2142.4 -5564.9,-2142.4 -374.3,0 -718.2,48 -1014.5,154.4 -200.2,71.9 -418.4,102.9 -650.1,102.9 -716.4,0 -1562.5,-295.8 -2410.5,-591.7 -848,-295.7 -1698,-591.6 -2421.7,-591.6" /></clipPath><linearGradient
       id="linearGradient68"
       spreadMethod="pad"
       gradientTransform="matrix(15023.8,0,0,-15023.8,21299.1,5687.8)"
       gradientUnits="userSpaceOnUse"
       y2="0"
       x2="1"
       y1="0"
       x1="0"><stop
         id="stop64"
         offset="0"
         style="stop-opacity:1;stop-color:#eaf8fe" /><stop
         id="stop66"
         offset="1"
         style="stop-opacity:1;stop-color:#baddf5" /></linearGradient><clipPath
       id="clipPath78"
       clipPathUnits="userSpaceOnUse"><path
         id="path76"
         d="m 21688.9,5607.6 c -585.1,0 -1182.7,184.6 -1798.4,630.9 -1295.7,939.1 -2539.4,1986 -3469.4,2807.9 l 1320.3,762.3 -944,545 20.1,192.9 c 13.2,65.4 -23.2,133.4 -109.5,183.5 -75.1,43.7 -173.8,65.5 -272.5,65.5 -98.8,0 -197.7,-21.8 -273.3,-65.5 -2.8,-1.6 -5.5,-3.2 -8.2,-4.9 l -4738.3,2735.6 -362.3,-209.2 H 10674 v -219.1 l -2133.27,-1231.8 1621.17,-936 c -391.5,-45.1 -781.56,-96.9 -1163.54,-148.7 -1063.88,-144.3 -2065.08,-288.6 -2858.24,-288.6 -935.37,-0.1 -1581.47,200.6 -1700.76,838.5 -31.51,168.5 -25.34,310.7 23.66,476.8 542.5,1839 4707.52,1062.7 8753.88,2975.3 3708.4,1752.9 3034.4,3740.1 5951.6,4391.2 209.5,46.7 419.9,82.6 629.8,108.6 l -449.8,-2176.3 c -27.7,-134.2 36.8,-294.5 143.5,-356.1 l 18.6,-10.7 c -49.1,-6.7 -95.6,-21 -133.6,-43.1 l -5876.8,-3415.2 c -109,-63.4 -108.4,-166.9 1.2,-230.2 L 22375.1,7863 c 50.9,-29.4 118,-44.1 184.9,-44.1 67,0 133.9,14.7 184.5,44.1 l 5890.8,3423.3 c 108.8,63.3 108.2,166.9 -1.3,230.1 l -335.5,193.7 c 41.6,22.1 74,67.3 87,130.2 l 735,3556.1 c 735.8,-783.9 1134.3,-1366.8 2381.6,-1831.2 2278.4,-848.2 3900.3,24.1 4944.3,-1221.2 620.7,-740.2 807.9,-1955.5 336.2,-2476.3 -193.8,-214 -476,-329.4 -899.5,-329.5 -259.4,0 -571.8,43.3 -949.6,133.8 -1246.1,298.4 -2405.5,496.8 -3509.6,496.8 -1477.8,0 -2856.7,-355.3 -4214.2,-1302 C 25392,7599.1 23609.4,5607.6 21688.9,5607.6 m -4959.3,4964.5 v 0 c -15.3,23 -39,44.5 -70.9,63 -61.5,35.8 -142.3,53.7 -223.2,53.7 80.9,0 161.7,-17.9 223.2,-53.7 31.9,-18.5 55.6,-40 70.9,-63 m -294.7,116.7 c 0.1,0 0.2,0 0.3,0 v 0 c -0.1,0 -0.2,0 -0.3,0 m -221.7,14 c 0.7,0.4 1.4,0.8 2.1,1.2 -0.7,-0.4 -1.4,-0.8 -2.1,-1.2 m 440.7,1.6 c -60.9,33.9 -139.6,50.9 -218.4,50.9 78.8,0 157.5,-17 218.4,-50.9 m -219,50.9 c 0.1,0 0.2,0 0.3,0 v 0 c -0.1,0 -0.2,0 -0.3,0" /></clipPath><linearGradient
       id="linearGradient86"
       spreadMethod="pad"
       gradientTransform="matrix(32627.3,0,0,-32627.3,4419.96,12439.3)"
       gradientUnits="userSpaceOnUse"
       y2="0"
       x2="1"
       y1="0"
       x1="0"><stop
         id="stop82"
         offset="0"
         style="stop-opacity:1;stop-color:#eaf8fe" /><stop
         id="stop84"
         offset="1"
         style="stop-opacity:1;stop-color:#baddf5" /></linearGradient><clipPath
       id="clipPath96"
       clipPathUnits="userSpaceOnUse"><path
         id="path94"
         d="m 16729.6,10572.1 h -248.9 c -15.9,2.9 -33,4.4 -50.9,4.4 -5.9,0 -11.7,-0.1 -17.4,-0.5 l -146.4,84.5 c 51.4,18.9 110.2,28.3 168.9,28.3 v 0 c 0.1,0 0.2,0 0.3,0 v 0 c 0.1,0 0.2,0 0.3,0 v 0 c 80.9,0 161.7,-17.9 223.2,-53.7 31.9,-18.5 55.6,-40 70.9,-63" /></clipPath><linearGradient
       id="linearGradient104"
       spreadMethod="pad"
       gradientTransform="matrix(32627.3,0,0,-32627.3,4419.96,12439.3)"
       gradientUnits="userSpaceOnUse"
       y2="0"
       x2="1"
       y1="0"
       x1="0"><stop
         id="stop100"
         offset="0"
         style="stop-opacity:1;stop-color:#eaf8fe" /><stop
         id="stop102"
         offset="1"
         style="stop-opacity:1;stop-color:#baddf5" /></linearGradient><clipPath
       id="clipPath114"
       clipPathUnits="userSpaceOnUse"><path
         id="path112"
         d="m 22560,7818.9 c -66.9,0 -134,14.7 -184.9,44.1 l -8873.7,5123.2 c -109.6,63.3 -110.2,166.8 -1.2,230.2 l 5876.8,3415.2 c 38,22.1 84.5,36.4 133.6,43.1 l 8612.3,-4972.4 c 26.6,-15.3 53.4,-22.6 78.9,-22.6 24.5,0 47.7,6.7 68.4,19.3 9.8,2.6 19.3,6.3 28.3,11.1 l 335.5,-193.7 c 109.5,-63.2 110.1,-166.8 1.3,-230.1 L 22744.5,7863 c -50.6,-29.4 -117.5,-44.1 -184.5,-44.1" /></clipPath><linearGradient
       id="linearGradient122"
       spreadMethod="pad"
       gradientTransform="matrix(32627.3,0,0,-32627.3,4419.96,12439.3)"
       gradientUnits="userSpaceOnUse"
       y2="0"
       x2="1"
       y1="0"
       x1="0"><stop
         id="stop118"
         offset="0"
         style="stop-opacity:1;stop-color:#cad3d6" /><stop
         id="stop120"
         offset="1"
         style="stop-opacity:1;stop-color:#a2bdd0" /></linearGradient><clipPath
       id="clipPath508"
       clipPathUnits="userSpaceOnUse"><path
         id="path506"
         d="m 27334.3,11009.1 -0.3,101.3 244.4,141.1 0.3,-101.3 -244.4,-141.1" /></clipPath><clipPath
       id="clipPath520"
       clipPathUnits="userSpaceOnUse"><path
         id="path518"
         d="m 27680.6,11219.3 -0.3,101.3 244.5,141.2 0.3,-101.3 -244.5,-141.2" /></clipPath><clipPath
       id="clipPath720"
       clipPathUnits="userSpaceOnUse"><path
         id="path718"
         d="M 9942.17,15692.6 7410.77,17163.7 12907.2,20337.1 15438.6,18866 9942.17,15692.6" /></clipPath><linearGradient
       id="linearGradient728"
       spreadMethod="pad"
       gradientTransform="matrix(14884.6,0,0,-14884.6,4484.51,18138.6)"
       gradientUnits="userSpaceOnUse"
       y2="0"
       x2="1"
       y1="0"
       x1="0"><stop
         id="stop724"
         offset="0"
         style="stop-opacity:1;stop-color:#c7d0d3" /><stop
         id="stop726"
         offset="1"
         style="stop-opacity:1;stop-color:#a1bbce" /></linearGradient><clipPath
       id="clipPath954"
       clipPathUnits="userSpaceOnUse"><path
         id="path952"
         d="m 31023.5,3716.3 -2876.1,1660.5 v 42.1 l 2473.8,-1426.1 3900.5,2249.4 -625.2,361 158.6,91.6 1127.5,-583.4 -245.5,-135.6 -3913.6,-2259.5" /></clipPath><linearGradient
       id="linearGradient962"
       spreadMethod="pad"
       gradientTransform="matrix(15023.8,0,0,-15023.8,21299.1,5687.8)"
       gradientUnits="userSpaceOnUse"
       y2="0"
       x2="1"
       y1="0"
       x1="0"><stop
         id="stop958"
         offset="0"
         style="stop-opacity:1;stop-color:#c7d0d3" /><stop
         id="stop960"
         offset="1"
         style="stop-opacity:1;stop-color:#a1bbce" /></linearGradient><clipPath
       id="clipPath1044"
       clipPathUnits="userSpaceOnUse"><path
         id="path1042"
         d="m 14660.8,4579.2 -2169.1,1240.6 947.8,545.8 c 106.2,61.3 106.7,161.5 1.3,222.8 l -1446.6,840.7 c -52.6,30.6 -122.3,45.9 -192,45.9 -69.7,0 -139.5,-15.3 -192.6,-45.9 L 10647.2,6874.9 8603.78,8043.6 11330,9581.3 17329.7,6120.2 14660.8,4579.2" /></clipPath><linearGradient
       id="linearGradient1052"
       spreadMethod="pad"
       gradientTransform="matrix(13783.2,0,0,-13783.2,4986.37,6018.5)"
       gradientUnits="userSpaceOnUse"
       y2="0"
       x2="1"
       y1="0"
       x1="0"><stop
         id="stop1048"
         offset="0"
         style="stop-opacity:1;stop-color:#c7d0d3" /><stop
         id="stop1050"
         offset="1"
         style="stop-opacity:1;stop-color:#a1bbce" /></linearGradient><clipPath
       id="clipPath1078"
       clipPathUnits="userSpaceOnUse"><path
         id="path1076"
         d="m 11324.8,10176.3 -44.6,-24.3 c 15.9,8.7 34.9,12.4 55.2,9.5 l 44.6,24.3 c -20.3,2.8 -39.3,-0.8 -55.2,-9.5" /></clipPath><clipPath
       id="clipPath1092"
       clipPathUnits="userSpaceOnUse"><path
         id="path1090"
         d="m 11391.1,9947.8 44.6,24.2 c 28.9,15.7 48,47.9 48,87.6 -0.2,61.7 -46.5,118.2 -103.7,126.2 l -44.6,-24.3 c 57.2,-8 103.6,-64.5 103.7,-126.1 0,-39.8 -19.1,-71.9 -48,-87.6" /></clipPath><clipPath
       id="clipPath1128"
       clipPathUnits="userSpaceOnUse"><path
         id="path1126"
         d="m 8837.14,8747.1 -44.58,-24.3 c 15.97,8.7 34.92,12.4 55.26,9.5 l 44.59,24.3 c -20.34,2.9 -39.29,-0.8 -55.27,-9.5" /></clipPath><clipPath
       id="clipPath1142"
       clipPathUnits="userSpaceOnUse"><path
         id="path1140"
         d="m 8903.5,8518.6 44.59,24.2 c 28.9,15.8 48.02,47.9 47.94,87.6 -0.11,61.7 -46.48,118.2 -103.62,126.2 l -44.59,-24.3 c 57.14,-8 103.52,-64.4 103.62,-126.1 0.08,-39.7 -19.04,-71.9 -47.94,-87.6" /></clipPath><clipPath
       id="clipPath1206"
       clipPathUnits="userSpaceOnUse"><path
         id="path1204"
         d="m 17077.8,6851.9 -44.6,-24.2 c 16,8.7 35,12.3 55.3,9.5 l 44.6,24.2 c -20.3,2.9 -39.3,-0.8 -55.3,-9.5" /></clipPath><clipPath
       id="clipPath1226"
       clipPathUnits="userSpaceOnUse"><path
         id="path1224"
         d="m 17144.2,6623.4 44.6,24.3 c 28.9,15.7 48,47.8 47.9,87.6 -0.1,61.6 -46.5,118.1 -103.6,126.1 l -44.6,-24.2 c 57.2,-8.1 103.5,-64.5 103.6,-126.2 0.1,-39.7 -19,-71.9 -47.9,-87.6" /></clipPath><clipPath
       id="clipPath1276"
       clipPathUnits="userSpaceOnUse"><path
         id="path1274"
         d="m 14590.2,5422.7 -44.6,-24.2 c 16,8.7 34.9,12.3 55.3,9.5 l 44.6,24.2 c -20.4,2.9 -39.3,-0.8 -55.3,-9.5" /></clipPath><clipPath
       id="clipPath1290"
       clipPathUnits="userSpaceOnUse"><path
         id="path1288"
         d="m 14656.6,5194.2 44.6,24.3 c 28.8,15.7 48,47.9 47.9,87.6 -0.1,61.6 -46.5,118.1 -103.6,126.1 l -44.6,-24.2 c 57.1,-8.1 103.5,-64.5 103.6,-126.2 0.1,-39.7 -19,-71.9 -47.9,-87.6" /></clipPath><clipPath
       id="clipPath1506"
       clipPathUnits="userSpaceOnUse"><path
         id="path1504"
         d="m 13833.6,10205.4 c -7.6,0 -13.8,3.3 -13.8,7.4 0,4.1 6.2,7.5 13.8,7.5 7.6,0 13.7,-3.4 13.7,-7.5 0,-4.1 -6.1,-7.4 -13.7,-7.4" /></clipPath><clipPath
       id="clipPath1670"
       clipPathUnits="userSpaceOnUse"><path
         id="path1668"
         d="m 16480.7,10572.1 h -61.5 l -6.8,3.9 c 5.7,0.4 11.5,0.5 17.4,0.5 17.9,0 35,-1.5 50.9,-4.4" /></clipPath><linearGradient
       id="linearGradient1678"
       spreadMethod="pad"
       gradientTransform="matrix(32627.3,0,0,-32627.3,4419.96,12439.3)"
       gradientUnits="userSpaceOnUse"
       y2="0"
       x2="1"
       y1="0"
       x1="0"><stop
         id="stop1674"
         offset="0"
         style="stop-opacity:1;stop-color:#4b271f" /><stop
         id="stop1676"
         offset="1"
         style="stop-opacity:1;stop-color:#4b271f" /></linearGradient><clipPath
       id="clipPath1712"
       clipPathUnits="userSpaceOnUse"><path
         id="path1710"
         d="m 9426.27,4119.6 c -69.72,0 -139.35,15.3 -192.07,46 l -1446.53,840.6 c -105.37,61.3 -104.8,161.6 1.26,222.8 L 10647.2,6874.9 12491.7,5819.8 9618.87,4165.6 c -53.04,-30.6 -122.87,-46 -192.6,-46" /></clipPath><linearGradient
       id="linearGradient1718"
       spreadMethod="pad"
       gradientTransform="matrix(13783.2,0,0,-13783.2,4986.37,6018.5)"
       gradientUnits="userSpaceOnUse"
       y2="0"
       x2="1"
       y1="0"
       x1="0"><stop
         id="stop1714"
         offset="0"
         style="stop-opacity:1;stop-color:#c7d0d3" /><stop
         id="stop1716"
         offset="1"
         style="stop-opacity:1;stop-color:#a1bbce" /></linearGradient><clipPath
       id="clipPath1728"
       clipPathUnits="userSpaceOnUse"><path
         id="path1726"
         d="m 12491.7,5819.8 -1844.5,1055.1 962.4,554.2 c 53.1,30.6 122.9,45.9 192.6,45.9 69.7,0 139.4,-15.3 192,-45.9 l 1446.6,-840.7 c 105.4,-61.3 104.9,-161.5 -1.3,-222.8 l -947.8,-545.8" /></clipPath><linearGradient
       id="linearGradient1734"
       spreadMethod="pad"
       gradientTransform="matrix(13783.2,0,0,-13783.2,4986.37,6018.5)"
       gradientUnits="userSpaceOnUse"
       y2="0"
       x2="1"
       y1="0"
       x1="0"><stop
         id="stop1730"
         offset="0"
         style="stop-opacity:1;stop-color:#aaafb1" /><stop
         id="stop1732"
         offset="1"
         style="stop-opacity:1;stop-color:#8b9fad" /></linearGradient><clipPath
       clipPathUnits="userSpaceOnUse"
       id="clipPath8585"><rect
         style="fill:#66e0f0;fill-opacity:1;stroke-width:7.72632;stroke-linejoin:round"
         id="rect8587"
         width="2351.8999"
         height="2351.8999"
         x="503.98001"
         y="-2351.8999"
         transform="scale(1,-1)" /></clipPath><style
       id="style9286">.cls-1{fill:#e9f4e9;}.cls-2{fill:#ef5451;}.cls-3{fill:#80cbc4;}.cls-4{fill:#09897b;}.cls-5{fill:#263238;}.cls-6{fill:#fff;}.cls-7{fill:#fcb316;}.cls-8{fill:#0377be;}</style></defs><g
     id="g9689"
     transform="matrix(0.14285714,0,0,0.14285714,2e-6,2.0000001e-6)"><rect
       class="cls-1"
       width="1400"
       height="1400"
       id="rect9292"
       x="0"
       y="0" /><path
       class="cls-2"
       d="m 426.13,864.54 a 34.3,34.3 0 1 1 20.87,-7.08 34.26,34.26 0 0 1 -20.87,7.08 z m -0.06,-51.2 a 16.9,16.9 0 1 0 13.43,6.66 16.81,16.81 0 0 0 -13.43,-6.66 z"
       id="path9294" /><rect
       class="cls-2"
       x="442.20999"
       y="847.41998"
       width="17.42"
       height="30.370001"
       transform="rotate(-37.49,450.90475,862.58669)"
       id="rect9296" /><rect
       class="cls-3"
       x="1070.15"
       y="606.91998"
       width="168.49001"
       height="124.53"
       id="rect9298" /><polygon
       class="cls-3"
       points="1161.79,621.54 1179.45,594.72 1238.63,594.72 1238.63,621.54 "
       id="polygon9300" /><polygon
       class="cls-2"
       points="1065.08,731.46 1034.12,616.63 1207.68,616.63 1238.63,731.46 "
       id="polygon9302" /><path
       class="cls-4"
       d="M 602.1,1175.59 H 325.59 V 1071.42 H 602.1 Z m -256.51,-20 H 582.1 v -64.17 H 345.59 Z"
       id="path9304" /><rect
       class="cls-5"
       x="373.03"
       y="1113.66"
       width="43.709999"
       height="19.700001"
       id="rect9306" /><rect
       class="cls-5"
       x="441.98999"
       y="1113.66"
       width="43.709999"
       height="19.700001"
       id="rect9308" /><rect
       class="cls-5"
       x="510.95001"
       y="1113.66"
       width="43.709999"
       height="19.700001"
       id="rect9310" /><rect
       class="cls-2"
       x="851.12"
       y="1023.36"
       width="66.290001"
       height="62.939999"
       id="rect9312" /><path
       class="cls-5"
       d="m 922.41,1091.29 h -238 v -70.14 h 238 z m -228,-10 h 218 v -50.14 h -218 z"
       id="path9314" /><rect
       class="cls-5"
       x="846.12"
       y="1026.15"
       width="10"
       height="60.139999"
       id="rect9316" /><path
       class="cls-6"
       d="m 884.27,1074 a 19.19,19.19 0 1 1 19.18,-19.19 19.21,19.21 0 0 1 -19.18,19.19 z m 0,-28.37 a 9.19,9.19 0 1 0 9.18,9.18 9.19,9.19 0 0 0 -9.18,-9.17 z"
       id="path9318" /><rect
       class="cls-2"
       x="851.12"
       y="1102.95"
       width="66.290001"
       height="62.939999"
       id="rect9320" /><path
       class="cls-5"
       d="m 922.41,1170.89 h -238 v -70.15 h 238 z m -228,-10 h 218 v -50.15 h -218 z"
       id="path9322" /><rect
       class="cls-5"
       x="846.12"
       y="1105.74"
       width="10"
       height="60.139999"
       id="rect9324" /><path
       class="cls-6"
       d="m 884.27,1153.6 a 19.18,19.18 0 1 1 19.18,-19.18 19.2,19.2 0 0 1 -19.18,19.18 z m 0,-28.36 a 9.18,9.18 0 1 0 9.18,9.18 9.19,9.19 0 0 0 -9.18,-9.18 z"
       id="path9326" /><rect
       class="cls-2"
       x="851.12"
       y="1182.55"
       width="66.290001"
       height="62.939999"
       id="rect9328" /><path
       class="cls-5"
       d="m 922.41,1250.48 h -238 v -70.14 h 238 z m -228,-10 h 218 v -50.14 h -218 z"
       id="path9330" /><rect
       class="cls-5"
       x="846.12"
       y="1185.34"
       width="10"
       height="60.139999"
       id="rect9332" /><path
       class="cls-6"
       d="m 884.27,1233.2 a 19.19,19.19 0 1 1 19.18,-19.2 19.21,19.21 0 0 1 -19.18,19.2 z m 0,-28.37 a 9.19,9.19 0 1 0 9.18,9.18 9.19,9.19 0 0 0 -9.18,-9.18 z"
       id="path9334" /><rect
       class="cls-5"
       x="706.16998"
       y="1049.8199"
       width="121.29"
       height="10"
       id="rect9336" /><rect
       class="cls-5"
       x="706.16998"
       y="1130.8199"
       width="121.29"
       height="10"
       id="rect9338" /><rect
       class="cls-5"
       x="706.16998"
       y="1211.8"
       width="121.29"
       height="10"
       id="rect9340" /><path
       class="cls-7"
       d="M 325.53,737.41 V 658.54 A 15.91,15.91 0 0 0 309.62,642.62 H 187.25 a 15.92,15.92 0 0 0 -15.92,15.92 v 78.87 z"
       id="path9342" /><path
       class="cls-7"
       d="m 171.33,753.26 v 214.89 a 15.91,15.91 0 0 0 15.92,15.91 h 122.37 a 15.91,15.91 0 0 0 15.91,-15.91 V 753.26 Z"
       id="path9344" /><path
       class="cls-6"
       d="M 285.72,960.64 H 211.14 A 12.3,12.3 0 0 1 198.86,948.36 V 790 a 12.3,12.3 0 0 1 12.28,-12.28 h 74.58 A 12.3,12.3 0 0 1 298,790 v 158.36 a 12.3,12.3 0 0 1 -12.28,12.28 z M 211.14,787.7 a 2.29,2.29 0 0 0 -2.28,2.28 v 158.38 a 2.29,2.29 0 0 0 2.28,2.28 h 74.58 A 2.28,2.28 0 0 0 288,948.36 V 790 a 2.28,2.28 0 0 0 -2.28,-2.28 z"
       id="path9346" /><circle
       class="cls-6"
       cx="248.42999"
       cy="692.33002"
       r="19.6"
       id="circle9348" /><path
       class="cls-5"
       d="M 285.38,438.6 H 228.51 A 18.7,18.7 0 0 1 209.83,419.92 V 363 a 18.7,18.7 0 0 1 18.68,-18.68 h 56.87 A 18.7,18.7 0 0 1 304.06,363 v 56.88 a 18.7,18.7 0 0 1 -18.68,18.72 z m -56.87,-84.24 a 8.68,8.68 0 0 0 -8.68,8.68 v 56.88 a 8.69,8.69 0 0 0 8.68,8.68 h 56.87 a 8.69,8.69 0 0 0 8.68,-8.68 V 363 a 8.68,8.68 0 0 0 -8.68,-8.68 z"
       id="path9350" /><rect
       class="cls-2"
       x="234.84"
       y="369.37"
       width="44.220001"
       height="44.220001"
       rx="8.5900002"
       ry="8.5900002"
       id="rect9352" /><polygon
       class="cls-5"
       points="261.94,257.59 261.94,305.37 252.33,315.66 252.33,349.36 242.33,349.36 242.33,311.71 251.94,301.43 251.94,257.59 "
       id="polygon9354" /><rect
       class="cls-5"
       x="268.5"
       y="307.14001"
       width="10"
       height="42.220001"
       id="rect9356" /><polygon
       class="cls-5"
       points="380.63,342 380.63,352 355.41,352 341.31,366.1 299.06,366.1 299.06,356.1 337.17,356.1 351.27,342 "
       id="polygon9358" /><rect
       class="cls-5"
       x="299.06"
       y="376.82001"
       width="33.549999"
       height="10"
       id="rect9360" /><polygon
       class="cls-5"
       points="341.92,401.29 358.54,417.92 380.63,417.92 380.63,427.92 354.4,427.92 337.77,411.29 299.06,411.29 299.06,401.29 "
       id="polygon9362" /><polygon
       class="cls-5"
       points="284.06,437.36 284.06,476.15 273.18,487.03 273.18,509.82 263.18,509.82 263.18,482.88 274.06,472.01 274.06,437.36 "
       id="polygon9364" /><rect
       class="cls-5"
       x="251.95"
       y="437.35999"
       width="10"
       height="32.009998"
       id="rect9366" /><rect
       class="cls-5"
       x="229.84"
       y="437.35999"
       width="10"
       height="53.470001"
       id="rect9368" /><polygon
       class="cls-5"
       points="165.45,399.19 183.11,416.85 214.83,416.85 214.83,426.85 178.97,426.85 161.31,409.19 139.62,409.19 139.62,399.19 "
       id="polygon9370" /><rect
       class="cls-5"
       x="186.69"
       y="376.82001"
       width="21.65"
       height="10"
       id="rect9372" /><polygon
       class="cls-5"
       points="186.54,323.25 200.8,356.1 214.83,356.1 214.83,366.1 194.24,366.1 179.98,333.25 147.59,333.25 147.59,323.25 "
       id="polygon9374" /><path
       class="cls-4"
       d="m 1072.49,262.42 c 20.23,5.54 36.2,14.62 45.13,25.79 a 94.32,94.32 0 0 0 -70.92,-70.92 c 11.17,8.93 20.3,24.9 25.79,45.13 z"
       id="path9376" /><path
       class="cls-4"
       d="m 979.05,355.86 c -20.23,-5.54 -36.19,-14.62 -45.13,-25.79 a 94.32,94.32 0 0 0 70.92,70.93 c -11.17,-8.95 -20.25,-24.91 -25.79,-45.14 z"
       id="path9378" /><path
       class="cls-4"
       d="m 979.05,262.42 c 5.54,-20.23 14.62,-36.2 25.79,-45.13 a 94.32,94.32 0 0 0 -70.92,70.92 C 942.86,277 958.82,268 979.05,262.42 Z"
       id="path9380" /><path
       class="cls-4"
       d="m 976.17,275 c -23.38,7.57 -39,20.2 -39,34.19 0,13.99 15.67,26.62 39,34.19 a 191.92,191.92 0 0 1 0,-68.38 z"
       id="path9382" /><path
       class="cls-4"
       d="m 1060,259.54 c -7.57,-23.38 -20.2,-39.05 -34.19,-39.05 -13.99,0 -26.62,15.67 -34.19,39.05 a 191.92,191.92 0 0 1 68.38,0 z"
       id="path9384" /><path
       class="cls-4"
       d="m 1117.62,330.07 c -8.94,11.17 -24.9,20.25 -45.13,25.79 -5.54,20.23 -14.62,36.19 -25.79,45.13 a 94.32,94.32 0 0 0 70.92,-70.92 z"
       id="path9386" /><path
       class="cls-4"
       d="m 1025.77,397.79 c 14,0 26.62,-15.67 34.19,-39.05 a 191.92,191.92 0 0 1 -68.38,0 c 7.57,23.38 20.2,39.05 34.19,39.05 z"
       id="path9388" /><path
       class="cls-4"
       d="m 1063.26,346.63 a 175.54,175.54 0 0 0 0,-75 175.54,175.54 0 0 0 -75,0 175.54,175.54 0 0 0 0,75 175.54,175.54 0 0 0 75,0 z"
       id="path9390" /><path
       class="cls-4"
       d="m 1075.37,343.33 c 23.38,-7.57 39.05,-20.21 39.05,-34.19 0,-13.98 -15.67,-26.62 -39.05,-34.19 a 191.92,191.92 0 0 1 0,68.38 z"
       id="path9392" /><path
       class="cls-7"
       d="m 1226.51,827 h -11.73 a 4,4 0 0 1 -3.77,-2.67 c -0.41,-1.21 -0.87,-2.41 -1.36,-3.58 a 4,4 0 0 1 0.88,-4.33 l 8.7,-8.7 a 4,4 0 0 0 0,-5.67 l -21.57,-21.57 a 4,4 0 0 0 -5.67,0 l -8,8 a 4,4 0 0 1 -4.49,0.82 c -1.23,-0.57 -2.48,-1.11 -3.76,-1.6 a 4,4 0 0 1 -2.51,-3.72 V 772 a 4,4 0 0 0 -4,-4 h -30.48 a 4,4 0 0 0 -4,4 v 12 a 4,4 0 0 1 -2.54,3.8 c -1.65,0.64 -3.26,1.34 -4.84,2.12 a 4,4 0 0 1 -4.53,-0.8 l -6.6,-6.61 a 4,4 0 0 0 -5.68,0 L 1089,804.07 a 4,4 0 0 0 0,5.67 l 8,8 a 4,4 0 0 1 0.85,4.31 c -0.31,0.79 -0.61,1.6 -0.89,2.41 a 4,4 0 0 1 -3.76,2.62 h -10.65 a 4,4 0 0 0 -4,4 v 30.49 a 4,4 0 0 0 4,4 h 12.39 a 4,4 0 0 1 3.65,2.37 c 0.25,0.56 0.49,1.11 0.75,1.67 a 4,4 0 0 1 -0.82,4.48 l -8.29,8.3 a 4,4 0 0 0 0,5.68 l 21.55,21.56 a 4,4 0 0 0 5.68,0 l 9,-9 a 4,4 0 0 1 4.33,-0.89 c 0.49,0.21 1,0.41 1.49,0.6 a 4,4 0 0 1 2.52,3.72 v 12 a 4,4 0 0 0 4,4 h 30.48 a 4,4 0 0 0 4,-4 v -12 a 4.07,4.07 0 0 1 2.64,-3.77 h 0.11 a 4.07,4.07 0 0 1 4.38,0.86 l 10.45,10.46 a 4,4 0 0 0 5.67,0 L 1218,890 a 4,4 0 0 0 0,-5.67 l -9.08,-9.08 a 4,4 0 0 1 -0.82,-4.57 c 0.43,-0.87 0.83,-1.75 1.22,-2.64 a 4.06,4.06 0 0 1 3.71,-2.5 h 13.46 a 4,4 0 0 0 4,-4 v -30.49 a 4,4 0 0 0 -3.98,-4.05 z m -27.34,27.89 a 46,46 0 0 1 -89.36,0 43.39,43.39 0 0 1 -1.32,-10.87 46,46 0 0 1 92,0 43.85,43.85 0 0 1 -1.32,10.91 z"
       id="path9394" /><path
       class="cls-5"
       d="m 1169.19,925.09 h -30.48 a 9,9 0 0 1 -9,-9 v -11.34 l -0.27,-0.11 -8.51,8.5 a 9,9 0 0 1 -12.74,0 l -21.56,-21.55 a 9,9 0 0 1 0,-12.75 l 7.81,-7.81 -0.21,-0.48 h -11.74 a 9,9 0 0 1 -9,-9 v -30.5 a 9,9 0 0 1 9,-9 h 10 c 0.15,-0.43 0.31,-0.86 0.47,-1.29 l -7.48,-7.49 a 9,9 0 0 1 0,-12.74 L 1107,779 a 9,9 0 0 1 12.74,0 l 6.11,6.11 c 1.27,-0.6 2.57,-1.16 3.88,-1.69 V 772 a 9,9 0 0 1 9,-9 h 30.48 a 9,9 0 0 1 9,9 v 11.33 c 0.9,0.36 1.81,0.75 2.71,1.16 l 7.54,-7.54 a 9,9 0 0 1 12.74,0 l 21.56,21.56 a 9,9 0 0 1 0,12.74 l -8.22,8.23 c 0.33,0.84 0.65,1.68 1,2.52 h 11 a 9,9 0 0 1 9,9 v 30.49 a 9,9 0 0 1 -9,9 h -12.84 c -0.26,0.59 -0.51,1.13 -0.75,1.65 l 8.61,8.61 a 9,9 0 0 1 0,12.73 L 1200,915.11 a 9,9 0 0 1 -12.74,0 l -9,-9.05 v 10 a 9,9 0 0 1 -9.07,9.03 z m -29.5,-10 h 28.52 v -11 a 9,9 0 0 1 5.83,-8.43 h 0.11 a 9.07,9.07 0 0 1 9.72,2 l 9.76,9.76 20.16,-20.16 -8.39,-8.39 a 9,9 0 0 1 -1.77,-10.3 c 0.37,-0.74 0.73,-1.53 1.12,-2.43 a 9.06,9.06 0 0 1 8.3,-5.51 h 12.47 V 832 h -10.74 a 9,9 0 0 1 -8.5,-6 c -0.38,-1.11 -0.8,-2.22 -1.24,-3.29 a 8.91,8.91 0 0 1 2,-9.79 l 8,-8 -20.16,-20.16 -7.33,7.33 a 9,9 0 0 1 -10.13,1.81 c -1.15,-0.54 -2.31,-1 -3.45,-1.47 a 9,9 0 0 1 -5.71,-8.38 V 773 h -28.52 v 11 a 9.08,9.08 0 0 1 -5.74,8.46 c -1.52,0.59 -3,1.24 -4.44,1.94 a 8.94,8.94 0 0 1 -10.26,-1.74 l -5.91,-5.92 -20.16,20.17 7.27,7.28 a 9,9 0 0 1 2,9.68 c -0.28,0.71 -0.55,1.44 -0.81,2.18 a 8.94,8.94 0 0 1 -8.49,6 h -9.66 v 28.51 h 11.4 a 9,9 0 0 1 8.24,5.38 c 0.23,0.53 0.46,1 0.7,1.56 a 9,9 0 0 1 -1.82,10.12 l -7.6,7.6 20.16,20.16 8.28,-8.27 a 8.93,8.93 0 0 1 9.78,-2 c 0.44,0.19 0.89,0.37 1.33,0.53 a 9.06,9.06 0 0 1 5.76,8.41 z m -9.79,-10.93 z m -35.17,-32.47 z m 119.2,-1.66 z m -120.82,-49.84 z m 121.15,-1.34 z m -121.79,-12.67 z m 88,-21.16 z m -25.93,110 a 50.78,50.78 0 0 1 -49.54,-39 48.67,48.67 0 0 1 -1.46,-12 51,51 0 0 1 102,0 48.52,48.52 0 0 1 -1.47,12.08 50.78,50.78 0 0 1 -49.58,38.96 z m 0,-92 a 41,41 0 0 0 -41,41 38.69,38.69 0 0 0 1.16,9.61 41,41 0 0 0 79.65,0.08 v -0.08 a 38.22,38.22 0 0 0 1.17,-9.61 41,41 0 0 0 -41.03,-40.96 z"
       id="path9396" /><path
       class="cls-8"
       d="m 767.14,200.56 a 86.94,86.94 0 0 1 -41,73.84 h -92.1 a 86.94,86.94 0 0 1 -41,-73.83 v 0 a 87,87 0 1 1 174,0 z"
       id="path9398" /><circle
       class="cls-8"
       cx="781.21002"
       cy="200.56"
       r="49.849998"
       id="circle9400" /><path
       class="cls-6"
       d="m 831.06,200.56 a 48.52,48.52 0 0 1 -0.25,5 49.22,49.22 0 0 1 -3.12,13 c 0.1,-1.24 0.15,-2.51 0.15,-3.78 a 50.39,50.39 0 0 0 -0.86,-9.26 c -0.26,-1.37 -0.57,-2.71 -0.94,-4 a 49.87,49.87 0 0 0 -60.4,-35 48.41,48.41 0 0 0 -9.42,3.45 q -1,-2.55 -2.21,-5 c -0.73,-1.53 -1.51,-3 -2.35,-4.51 a 49.73,49.73 0 0 1 29.56,-9.71 49.84,49.84 0 0 1 49.59,44.85 48.66,48.66 0 0 1 0.25,4.96 z"
       id="path9402" /><path
       class="cls-6"
       d="m 762.66,228.22 a 82.3,82.3 0 0 0 1,-12.84 81.67,81.67 0 0 0 -163.34,0 v 0 a 81.33,81.33 0 0 0 6.68,32.33 86.54,86.54 0 0 1 -13.87,-47.14 v 0 a 87,87 0 1 1 169.56,27.66 z"
       id="path9404" /><path
       class="cls-8"
       d="M 871.16,237.48 A 36.91,36.91 0 0 1 834.24,274.4 H 594 a 36.92,36.92 0 0 1 -0.86,-73.83 h 241.1 a 36.92,36.92 0 0 1 36.92,36.91 z"
       id="path9406" /><path
       class="cls-5"
       d="M 876.16,237.48 A 41.91,41.91 0 0 1 834.24,279.4 H 594 A 41.92,41.92 0 0 1 588.21,196 92,92 0 0 1 757.68,151 c 0.87,1.35 1.71,2.74 2.51,4.15 l 0.08,0.14 q 1.23,2.18 2.35,4.43 c 1.1,2.22 2.1,4.48 3,6.77 a 92.43,92.43 0 0 1 6.36,29 l 0.08,10 h -9.94 v -5 A 81.84,81.84 0 0 0 756.22,170 q -1,-2.55 -2.21,-5 c -0.73,-1.53 -1.51,-3 -2.35,-4.51 l -0.17,-0.3 c -0.77,-1.35 -1.57,-2.67 -2.42,-4 a 82,82 0 0 0 -151,44.41 v 4.88 l -4.88,0.13 A 31.92,31.92 0 0 0 594,269.4 h 240.24 a 31.92,31.92 0 0 0 1.59,-63.8 c -0.53,0 -1.06,0 -1.59,0 h -8.46 c 0.15,-1.32 0.24,-2.67 0.26,-4 0,-0.32 0,-0.64 0,-1 a 43.46,43.46 0 0 0 -0.28,-5 h 8.46 q 0.79,0 1.59,0 a 42,42 0 0 1 40.35,41.88 z"
       id="path9408" /><path
       class="cls-5"
       d="m 835.83,195.59 a 54.79,54.79 0 0 0 -86.76,-39.44 c 0.85,1.3 1.65,2.62 2.42,4 0.9,1.57 1.74,3.18 2.52,4.81 a 45.15,45.15 0 0 1 8.61,-5.18 44.84,44.84 0 0 1 63.16,35.81 44.78,44.78 0 0 1 0,10 h 8.46 c 0.53,0 1.06,0 1.59,0 0.15,-1.66 0.23,-3.34 0.23,-5 0,-1.66 -0.06,-3.36 -0.23,-5 z"
       id="path9410" /><rect
       class="cls-8"
       x="1053.8"
       y="1130.96"
       width="206.58"
       height="105.49"
       id="rect9412" /><path
       class="cls-5"
       d="M 1265.38,1241.45 H 1048.8 v -151.12 h 216.58 z m -206.58,-10 h 196.58 V 1100.33 H 1058.8 Z"
       id="path9414" /><rect
       class="cls-5"
       x="1053.8"
       y="1125.96"
       width="206.58"
       height="10"
       id="rect9416" /><path
       class="cls-6"
       d="m 1136.77,1209 -46.22,-20.53 v -7.86 l 46.22,-23.13 v 13.57 l -28.35,12.95 28.35,11.52 z"
       id="path9418" /><path
       class="cls-6"
       d="m 1177.69,1149.35 -24.92,68.71 H 1137 l 24.92,-68.71 z"
       id="path9420" /><path
       class="cls-6"
       d="m 1177.42,1195.52 28.34,-11.52 -28.34,-12.94 v -13.57 l 46.21,23.13 v 7.86 l -46.21,20.52 z"
       id="path9422" /><rect
       class="cls-5"
       x="711.38"
       y="289.12"
       width="10"
       height="6"
       id="rect9424" /><path
       class="cls-5"
       d="m 721.38,407.87 h -10 v -11.28 h 10 z m 0,-22.55 h -10 V 374 h 10 z m 0,-22.55 h -10 v -11.28 h 10 z m 0,-22.55 h -10 V 329 h 10 z m 0,-22.55 h -10 V 306.4 h 10 z"
       id="path9426" /><rect
       class="cls-5"
       x="711.38"
       y="419.14001"
       width="10"
       height="6"
       id="rect9428" /><rect
       class="cls-5"
       x="623.22998"
       y="940.19"
       width="10"
       height="6"
       id="rect9430" /><path
       class="cls-5"
       d="m 633.23,1037.42 h -10 V 1026 h 10 z m 0,-22.81 h -10 v -11.4 h 10 z m 0,-22.81 h -10 v -11.4 h 10 z m 0,-22.8 h -10 v -11.41 h 10 z"
       id="path9432" /><polygon
       class="cls-5"
       points="634.23,1049.83 634.23,1059.83 623.23,1059.83 623.23,1048.83 633.23,1048.83 633.23,1049.83 "
       id="polygon9434" /><rect
       class="cls-5"
       x="645.28998"
       y="1049.8199"
       width="11.05"
       height="10"
       id="rect9436" /><rect
       class="cls-5"
       x="667.39001"
       y="1049.8199"
       width="6"
       height="10"
       id="rect9438" /><rect
       class="cls-5"
       x="625.34003"
       y="1064.14"
       width="6"
       height="10"
       transform="rotate(-89.81,628.33329,1069.1355)"
       id="rect9440" /><path
       class="cls-5"
       d="m 633.18,1118.19 h -10 v -11.51 h 10 z m 0.07,-23 h -10 v -11.51 h 10 z"
       id="path9442" /><polygon
       class="cls-5"
       points="634.13,1130.7 634.1,1140.7 623.1,1140.67 623.14,1129.67 633.14,1129.7 633.13,1130.7 "
       id="polygon9444" /><rect
       class="cls-5"
       x="645.70001"
       y="1130.23"
       width="10"
       height="11.05"
       transform="rotate(-89.81,650.74081,1135.7691)"
       id="rect9446" /><rect
       class="cls-5"
       x="665.28003"
       y="1132.8199"
       width="10"
       height="6"
       transform="rotate(-89.81,670.33346,1135.8368)"
       id="rect9448" /><rect
       class="cls-5"
       x="625.34003"
       y="1145.7"
       width="6"
       height="10"
       transform="rotate(-89.81,628.3333,1150.696)"
       id="rect9450" /><path
       class="cls-5"
       d="m 633.18,1199.75 h -10 v -11.51 h 10 z m 0.07,-23 h -10 v -11.51 h 10 z"
       id="path9452" /><polygon
       class="cls-5"
       points="634.13,1212.26 634.1,1222.26 623.1,1222.23 623.14,1211.23 633.14,1211.26 633.13,1212.26 "
       id="polygon9454" /><rect
       class="cls-5"
       x="645.70001"
       y="1211.79"
       width="10"
       height="11.05"
       transform="rotate(-89.81,650.74081,1217.3296)"
       id="rect9456" /><rect
       class="cls-5"
       x="665.28003"
       y="1214.38"
       width="10"
       height="6"
       transform="rotate(-89.8,670.34808,1217.4055)"
       id="rect9458" /><path
       class="cls-5"
       d="m 443.84,1063 h -10 v -8.84 h 10 z m 0,-20.84 h -10 v -12 h 10 z m 0,-24 h -10 v -12 h 10 z m 0,-24 h -10 v -12 h 10 z m 0,-24 h -10 v -12 h 10 z m 0,-24 h -10 v -12 h 10 z m 0,-24 h -10 v -12 h 10 z m 0,-24 h -10 v -12 h 10 z m 0,-24 h -10 v -12 h 10 z"
       id="path9460" /><path
       class="cls-5"
       d="m 1027,1140.83 h -12 v -10 h 12 z m -24,0 h -12 v -10 h 12 z m -24,0 h -12 v -10 h 12 z m -24,0 h -12 v -10 h 12 z"
       id="path9462" /><path
       class="cls-5"
       d="m 423.68,829.47 h -12 v -10 h 12 z m -24,0 h -12 v -10 h 12 z m -24,0 h -12 v -10 h 12 z"
       id="path9464" /><path
       class="cls-5"
       d="m 492.82,695 h -9 v -10 h 9 z m -21,0 h -12 v -10 h 12 z m -24,0 h -12 v -10 h 12 z m -24,0 h -12 v -10 h 12 z m -24,0 h -12 v -10 h 12 z m -24,0 h -12 v -10 h 12 z m -24,0 h -12 v -10 h 12 z"
       id="path9466" /><path
       class="cls-5"
       d="m 453.2,425.14 h -10 v -12 h 10 z m -10.14,-23.43 a 20.84,20.84 0 0 0 -3.24,-9 l 8.37,-5.47 a 30.86,30.86 0 0 1 4.81,13.35 z m -10.19,-15.62 a 20.58,20.58 0 0 0 -9.16,-2.79 l 0.61,-10 a 31,31 0 0 1 13.59,4.13 z M 412,383.26 h -12 v -10 h 12 z m -24,0 h -11.23 v -10 H 388 Z"
       id="path9468" /><path
       class="cls-5"
       d="m 1029.48,841.76 h -12 v -10 h 12 z m -24,0 h -12 v -10 h 12 z m -24,0 h -12 v -10 h 12 z m -24,0 h -12 v -10 h 12 z m -24,0 h -12 v -10 h 12 z m -24,0 h -12 v -10 h 12 z m -24,0 h -12 v -10 h 12 z"
       id="path9470" /><path
       class="cls-5"
       d="m 1029.48,689 h -12 v -10 h 12 z m -24,0 h -12 v -10 h 12 z m -24,0 h -12 v -10 h 12 z m -24,0 h -12 v -10 h 12 z m -24,0 h -12 v -10 h 12 z m -24,0 h -12 v -10 h 12 z m -24,0 h -12 v -10 h 12 z"
       id="path9472" /><rect
       class="cls-5"
       x="934.47998"
       y="542.29999"
       width="6"
       height="10"
       id="rect9474" /><path
       class="cls-5"
       d="m 1019.86,552.3 h -13.23 v -10 h 13.23 z m -26.46,0 h -13.23 v -10 h 13.23 z m -26.46,0 h -13.23 v -10 h 13.23 z"
       id="path9476" /><polygon
       class="cls-5"
       points="1044.08,541.3 1044.08,552.3 1033.08,552.3 1033.08,542.3 1034.08,542.3 1034.08,541.3 "
       id="polygon9478" /><path
       class="cls-5"
       d="m 1044.08,528.71 h -10 v -12.59 h 10 z m 0,-25.18 h -10 v -12.59 h 10 z m 0,-25.18 h -10 v -12.59 h 10 z m 0,-25.17 h -10 v -12.59 h 10 z"
       id="path9480" /><rect
       class="cls-5"
       x="1034.08"
       y="422"
       width="10"
       height="6"
       id="rect9482" /><path
       class="cls-5"
       d="m 361.7,1022.67 a 20.08,20.08 0 1 1 20.07,-20.07 20.1,20.1 0 0 1 -20.07,20.07 z m 0,-30.15 a 10.08,10.08 0 1 0 10.07,10.08 10.09,10.09 0 0 0 -10.07,-10.08 z"
       id="path9484" /><circle
       class="cls-2"
       cx="578.02002"
       cy="368.63"
       r="15.07"
       id="circle9486" /><circle
       class="cls-8"
       cx="971.10999"
       cy="1069.01"
       r="15.07"
       id="circle9488" /><circle
       class="cls-7"
       cx="517.47998"
       cy="987.52002"
       r="15.07"
       id="circle9490" /><rect
       class="cls-7"
       x="1109.23"
       y="1017.9"
       width="90.519997"
       height="13.34"
       id="rect9492" /><rect
       class="cls-7"
       x="1109.23"
       y="1042.88"
       width="90.519997"
       height="13.34"
       id="rect9494" /><rect
       class="cls-7"
       x="1109.23"
       y="1067.85"
       width="90.519997"
       height="13.34"
       id="rect9496" /><polygon
       class="cls-2"
       points="1115.66,506.11 1115.66,516.84 1131.01,516.84 1131.01,532.19 1141.74,532.19 1141.74,516.84 1157.09,516.84 1157.09,506.11 1141.74,506.11 1141.74,490.76 1131.01,490.76 1131.01,506.11 "
       id="polygon9498" /><polygon
       class="cls-7"
       points="369.09,547.78 369.09,558.52 384.43,558.52 384.43,573.86 395.17,573.86 395.17,558.52 410.51,558.52 410.51,547.78 395.17,547.78 395.17,532.44 384.43,532.44 384.43,547.78 "
       id="polygon9500" /><polygon
       class="cls-4"
       points="830.41,973.74 830.41,984.48 845.76,984.48 845.76,999.82 856.49,999.82 856.49,984.48 871.84,984.48 871.84,973.74 856.49,973.74 856.49,958.39 845.76,958.39 845.76,973.74 "
       id="polygon9502" /><path
       class="cls-8"
       d="m 444.78,481.34 a 20.13,20.13 0 1 1 12.22,-4.15 20.14,20.14 0 0 1 -12.22,4.15 z m 0,-30 a 9.91,9.91 0 1 0 7.88,3.87 9.86,9.86 0 0 0 -7.91,-3.92 z"
       id="path9504" /><rect
       class="cls-8"
       x="454.22"
       y="471.29001"
       width="10.22"
       height="17.83"
       transform="rotate(-37.49,459.31628,480.19447)"
       id="rect9506" /><rect
       class="cls-5"
       x="781.88"
       y="289.12"
       width="10"
       height="6"
       id="rect9508" /><path
       class="cls-5"
       d="m 791.88,336.78 h -10 v -10.41 h 10 z m 0,-20.83 h -10 v -10.41 h 10 z"
       id="path9510" /><polygon
       class="cls-5"
       points="792.88,348.2 792.88,358.2 781.88,358.2 781.88,347.2 791.88,347.2 791.88,348.2 "
       id="polygon9512" /><path
       class="cls-5"
       d="m 890.45,358.2 h -12.2 v -10 h 12.2 z m -24.39,0 h -12.2 v -10 h 12.2 z m -24.39,0 h -12.2 v -10 h 12.2 z m -24.4,0 h -12.19 v -10 h 12.19 z"
       id="path9514" /><rect
       class="cls-5"
       x="902.64001"
       y="348.20001"
       width="6"
       height="10"
       id="rect9516" /><path
       class="cls-5"
       d="m 1215.44,566.78 h -10 v -10 h 10 z m 0,-22 h -10 v -12 h 10 z m 0,-24 h -10 v -12 h 10 z m 0,-24 h -10 v -12 h 10 z m 0,-24 h -10 v -12 h 10 z m 0,-24 h -10 v -12 h 10 z m 0,-24 h -10 v -12 h 10 z m 0,-24 h -10 v -11.94 l 10,-0.18 c 0,0.25 0,0.5 0,0.75 z m -12,-21.87 a 28.7,28.7 0 0 0 -5.33,-8.66 l 7.45,-6.66 a 38.62,38.62 0 0 1 7.19,11.66 z M 1190.11,364 a 28.72,28.72 0 0 0 -9.68,-3.09 l 1.3,-9.91 a 38.53,38.53 0 0 1 13.06,4.16 z m -21,-3.33 h -12 v -10 h 12 z"
       id="path9518" /><path
       class="cls-5"
       d="m 1159.49,1077.25 h -10 v -12 h 10 z m 0,-24 h -10 v -12 h 10 z m 0,-24 h -10 v -12 h 10 z m 0,-24 h -10 v -12 h 10 z m 0,-24 h -10 v -12 h 10 z m 0,-24 h -10 v -12 h 10 z"
       id="path9520" /><path
       class="cls-5"
       d="m 359.1,1128.51 h -12 v -10 h 12 z m -24,0 h -12 v -10 h 12 z m -24,0 h -12 v -10 h 12 z m -24.2,0 a 45.2,45.2 0 0 1 -13.2,-2.52 l 3.32,-9.44 a 35.2,35.2 0 0 0 10.28,2 z m -25.07,-8.82 a 45.46,45.46 0 0 1 -9.5,-9.49 l 8,-6 a 35.41,35.41 0 0 0 7.41,7.41 z M 246,1098.29 a 45.09,45.09 0 0 1 -2.54,-13.19 l 10,-0.42 a 35.15,35.15 0 0 0 2,10.28 z m 7.42,-25.4 h -10 v -12 h 10 z m 0,-24 h -10 v -12 h 10 z m 0,-24 h -10 v -12 h 10 z m 0,-24 h -10 v -12 h 10 z m 0,-24 h -10 v -12 h 10 z m 0,-24 h -10 v -12 h 10 z m 0,-24 h -10 v -3.76 h 10 z"
       id="path9522" /><path
       class="cls-5"
       d="m 491.53,1296.46 a 32.6,32.6 0 0 1 -10.2,-1.63 l 3.12,-9.5 a 22.56,22.56 0 0 0 7.08,1.13 h 3.21 v 10 z m 627.21,0 h -12 v -10 h 12 z m -24,0 h -12 v -10 h 12 z m -24,0 h -12 v -10 h 12 z m -24,0 h -12 v -10 h 12 z m -24,0 h -12 v -10 h 12 z m -24,0 h -12 v -10 h 12 z m -24,0 h -12 v -10 h 12 z m -24,0 h -12 v -10 h 12 z m -24,0 h -12 v -10 h 12 z m -24,0 h -12 v -10 h 12 z m -24,0 h -12 v -10 h 12 z m -24,0 h -12 v -10 h 12 z m -24,0 h -12 v -10 h 12 z m -24,0 h -12 v -10 h 12 z m -24,0 h -12 v -10 h 12 z m -24,0 h -12 v -10 h 12 z m -24,0 h -12 v -10 h 12 z m -24,0 h -12 v -10 h 12 z m -24,0 h -12 v -10 h 12 z m -24,0 h -12 v -10 h 12 z m -24,0 h -12 v -10 h 12 z m -24,0 h -12 v -10 h 12 z m -24,0 h -12 v -10 h 12 z m -24,0 h -12 v -10 h 12 z m -24,0 h -12 v -10 h 12 z m -24,0 h -12 v -10 h 12 z m 612.23,0 -0.47,-10 a 22.32,22.32 0 0 0 9.4,-2.55 l 4.64,8.86 a 32.26,32.26 0 0 1 -13.54,3.65 z m -661.74,-8.75 a 33.17,33.17 0 0 1 -8,-11.57 l 9.26,-3.77 a 22.94,22.94 0 0 0 5.55,8 z m 686.07,-4 -7.92,-6.1 a 22.32,22.32 0 0 0 4.15,-8.82 l 9.76,2.2 a 32.4,32.4 0 0 1 -5.99,12.72 z m -686.46,-21.23 h -10 v -12 h 10 z m 693.25,-4.54 h -10 v -11 h 10 z m -693.25,-19.46 h -10 v -12 h 10 z m 0,-24 h -10 v -12 h 10 z"
       id="path9524" /><path
       class="cls-8"
       d="M 778.28,941 H 545.14 a 53,53 0 0 1 -53,-53 V 477.34 a 53,53 0 0 1 53,-53 h 233.14 a 53,53 0 0 1 53,53 V 888 a 53,53 0 0 1 -53,53 z M 545.14,464.36 a 13,13 0 0 0 -13,13 v 378.33 a 13,13 0 0 0 13,13 h 233.14 a 13,13 0 0 0 13,-13 V 477.34 a 13,13 0 0 0 -13,-13 z"
       id="path9526" /><rect
       class="cls-7"
       x="562.95001"
       y="484.64999"
       width="288.17999"
       height="68.5"
       id="rect9528" /><path
       class="cls-5"
       d="M 856.12,558.15 H 558 v -78.5 H 856.12 Z M 568,548.15 h 278.12 v -58.5 H 568 Z"
       id="path9530" /><rect
       class="cls-6"
       x="562.95001"
       y="553.15002"
       width="288.17999"
       height="283.60999"
       id="rect9532" /><path
       class="cls-5"
       d="M 856.12,841.76 H 558 V 548.15 H 856.12 Z M 568,831.76 H 846.12 V 558.15 H 568 Z"
       id="path9534" /><circle
       class="cls-6"
       cx="661.71002"
       cy="906.41998"
       r="22.280001"
       id="circle9536" /><rect
       class="cls-6"
       x="583.46997"
       y="511.47"
       width="166.05"
       height="20.709999"
       id="rect9538" /><circle
       class="cls-2"
       cx="807.96002"
       cy="521.12"
       r="16.74"
       id="circle9540" /><rect
       class="cls-2"
       x="585.03998"
       y="578.15002"
       width="243.99001"
       height="105.85"
       id="rect9542" /><rect
       class="cls-8"
       x="585.03998"
       y="693.73999"
       width="243.99001"
       height="30.02"
       id="rect9544" /><rect
       class="cls-4"
       x="585.03998"
       y="738.48999"
       width="98.949997"
       height="79.5"
       id="rect9546" /><rect
       class="cls-2"
       x="700.04999"
       y="738.48999"
       width="128.98"
       height="79.5"
       id="rect9548" /><path
       class="cls-5"
       d="m 262,230.58 h -10 v -12 h 10 z m 0.21,-23.41 -9.99,-1.17 a 39.88,39.88 0 0 1 3.9,-13.08 l 9,4.45 a 29.52,29.52 0 0 0 -2.96,9.8 z m 9,-18.06 -6.95,-7.19 a 40.07,40.07 0 0 1 11.27,-7.68 l 4.14,9.1 a 30.16,30.16 0 0 0 -8.54,5.77 z m 18.36,-8.35 -0.84,-10 c 1.12,-0.1 2.25,-0.14 3.36,-0.14 h 9.06 v 10 H 292 c -0.83,0.04 -1.67,0.07 -2.51,0.14 z m 251.58,-0.1 h -12 v -10 h 12 z m -24,0 h -12 v -10 h 12 z m -24,0 h -12 v -10 h 12 z m -24,0 h -12 v -10 h 12 z m -24,0 h -12 v -10 h 12 z m -24,0 h -12 v -10 h 12 z m -24,0 h -12 v -10 h 12 z m -24,0 h -12 v -10 h 12 z m -24,0 h -12 v -10 h 12 z m -24,0 h -12 v -10 h 12 z"
       id="path9550" /><path
       class="cls-5"
       d="m 253.43,692.33 h -10 v -12 h 10 z m 0,-24 h -10 v -12 h 10 z m 0,-24 h -10 v -12 h 10 z m 0,-24 h -10 v -12 h 10 z m 0,-24 h -10 v -12 h 10 z m 0,-24 h -10 v -12 h 10 z m 0,-24 h -10 v -12 h 10 z"
       id="path9552" /></g></svg>
