<svg xmlns="http://www.w3.org/2000/svg" xmlns:xlink="http://www.w3.org/1999/xlink" height="200" width="200" xmlns:v="https://vecta.io/nano"><style><![CDATA[.I{fill:#263238}.J{fill:#ef5451}.K{fill:#fff}.L{fill:#0377be}.M{fill:#fcb316}.N{fill:#09897b}]]></style><g transform="matrix(.1429 0 0 .1429 .000002 .000002)"><path d="M0 0h1400v1400H0z" fill="#e9f4e9"/><g class="J"><path d="M426.13 864.54a34.3 34.3 0 1 1 20.87-7.08 34.26 34.26 0 0 1-20.87 7.08zm-.06-51.2A16.9 16.9 0 1 0 439.5 820a16.81 16.81 0 0 0-13.43-6.66z"/><path d="M434.775 855.844l13.822-10.602 18.484 24.097-13.822 10.602z"/></g><g fill="#80cbc4"><path d="M1070.15 606.92h168.49v124.53h-168.49z"/><path d="M1161.79 621.54l17.66-26.82h59.18v26.82z"/></g><path d="M1065.08 731.46l-30.96-114.83h173.56l30.95 114.83z" class="J"/><path d="M602.1 1175.59H325.59v-104.17H602.1zm-256.51-20H582.1v-64.17H345.59z" class="N"/><path d="M373.03 1113.66h43.71v19.7h-43.71zm68.96 0h43.71v19.7h-43.71zm68.96 0h43.71v19.7h-43.71z" class="I"/><path d="M851.12 1023.36h66.29v62.94h-66.29z" class="J"/><g class="I"><path d="M922.41 1091.29h-238v-70.14h238zm-228-10h218v-50.14h-218z"/><path d="M846.12 1026.15h10v60.14h-10z"/></g><path d="M884.27 1074a19.19 19.19 0 1 1 19.18-19.19 19.21 19.21 0 0 1-19.18 19.19zm0-28.37a9.19 9.19 0 1 0 9.18 9.18 9.19 9.19 0 0 0-9.18-9.17z" class="K"/><path d="M851.12 1102.95h66.29v62.94h-66.29z" class="J"/><g class="I"><path d="M922.41 1170.89h-238v-70.15h238zm-228-10h218v-50.15h-218z"/><path d="M846.12 1105.74h10v60.14h-10z"/></g><path d="M884.27 1153.6a19.18 19.18 0 1 1 19.18-19.18 19.2 19.2 0 0 1-19.18 19.18zm0-28.36a9.18 9.18 0 1 0 9.18 9.18 9.19 9.19 0 0 0-9.18-9.18z" class="K"/><path d="M851.12 1182.55h66.29v62.94h-66.29z" class="J"/><g class="I"><path d="M922.41 1250.48h-238v-70.14h238zm-228-10h218v-50.14h-218z"/><path d="M846.12 1185.34h10v60.14h-10z"/></g><path d="M884.27 1233.2a19.19 19.19 0 1 1 19.18-19.2 19.21 19.21 0 0 1-19.18 19.2zm0-28.37a9.19 9.19 0 1 0 9.18 9.18 9.19 9.19 0 0 0-9.18-9.18z" class="K"/><path d="M706.17 1049.82h121.29v10H706.17zm0 81h121.29v10H706.17zm0 80.98h121.29v10H706.17z" class="I"/><path d="M325.53 737.41v-78.87a15.91 15.91 0 0 0-15.91-15.92H187.25a15.92 15.92 0 0 0-15.92 15.92v78.87zm-154.2 15.85v214.89a15.91 15.91 0 0 0 15.92 15.91h122.37a15.91 15.91 0 0 0 15.91-15.91V753.26z" class="M"/><g class="K"><path d="M285.72 960.64h-74.58a12.3 12.3 0 0 1-12.28-12.28V790a12.3 12.3 0 0 1 12.28-12.28h74.58A12.3 12.3 0 0 1 298 790v158.36a12.3 12.3 0 0 1-12.28 12.28zM211.14 787.7a2.29 2.29 0 0 0-2.28 2.28v158.38a2.29 2.29 0 0 0 2.28 2.28h74.58a2.28 2.28 0 0 0 2.28-2.28V790a2.28 2.28 0 0 0-2.28-2.28z"/><circle cx="248.43" cy="692.33" r="19.6"/></g><path d="M285.38 438.6h-56.87a18.7 18.7 0 0 1-18.68-18.68V363a18.7 18.7 0 0 1 18.68-18.68h56.87A18.7 18.7 0 0 1 304.06 363v56.88a18.7 18.7 0 0 1-18.68 18.72zm-56.87-84.24a8.68 8.68 0 0 0-8.68 8.68v56.88a8.69 8.69 0 0 0 8.68 8.68h56.87a8.69 8.69 0 0 0 8.68-8.68V363a8.68 8.68 0 0 0-8.68-8.68z" class="I"/><rect x="234.84" y="369.37" width="44.22" height="44.22" rx="8.59" class="J"/><path d="M261.94 257.59v47.78l-9.61 10.29v33.7h-10v-37.65l9.61-10.28v-43.84zm6.56 49.55h10v42.22h-10zM380.63 342v10h-25.22l-14.1 14.1h-42.25v-10h38.11l14.1-14.1zm-81.57 34.82h33.55v10h-33.55zm42.86 24.47l16.62 16.63h22.09v10H354.4l-16.63-16.63h-38.71v-10zm-57.86 36.07v38.79l-10.88 10.88v22.79h-10v-26.94l10.88-10.87v-34.65zm-32.11 0h10v32.01h-10zm-22.11 0h10v53.47h-10zm-64.39-38.17l17.66 17.66h31.72v10h-35.86l-17.66-17.66h-21.69v-10zm21.24-22.37h21.65v10h-21.65zm-.15-53.57l14.26 32.85h14.03v10h-20.59l-14.26-32.85h-32.39v-10z" class="I"/><path d="M1072.49 262.42c20.23 5.54 36.2 14.62 45.13 25.79a94.32 94.32 0 0 0-70.92-70.92c11.17 8.93 20.3 24.9 25.79 45.13zm-93.44 93.44c-20.23-5.54-36.19-14.62-45.13-25.79a94.32 94.32 0 0 0 70.92 70.93c-11.17-8.95-20.25-24.91-25.79-45.14zm0-93.44c5.54-20.23 14.62-36.2 25.79-45.13a94.32 94.32 0 0 0-70.92 70.92c8.94-11.21 24.9-20.21 45.13-25.79zM976.17 275c-23.38 7.57-39 20.2-39 34.19s15.67 26.62 39 34.19a191.92 191.92 0 0 1 0-68.38zm83.83-15.46c-7.57-23.38-20.2-39.05-34.19-39.05s-26.62 15.67-34.19 39.05a191.92 191.92 0 0 1 68.38 0zm57.62 70.53c-8.94 11.17-24.9 20.25-45.13 25.79-5.54 20.23-14.62 36.19-25.79 45.13a94.32 94.32 0 0 0 70.92-70.92zm-91.85 67.72c14 0 26.62-15.67 34.19-39.05a191.92 191.92 0 0 1-68.38 0c7.57 23.38 20.2 39.05 34.19 39.05zm37.49-51.16a175.54 175.54 0 0 0 0-75 175.54 175.54 0 0 0-75 0 175.54 175.54 0 0 0 0 75 175.54 175.54 0 0 0 75 0zm12.11-3.3c23.38-7.57 39.05-20.21 39.05-34.19s-15.67-26.62-39.05-34.19a191.92 191.92 0 0 1 0 68.38z" class="N"/><path d="M1226.51 827h-11.73a4 4 0 0 1-3.77-2.67l-1.36-3.58a4 4 0 0 1 .88-4.33l8.7-8.7a4 4 0 0 0 0-5.67l-21.57-21.57a4 4 0 0 0-5.67 0l-8 8a4 4 0 0 1-4.49.82l-3.76-1.6a4 4 0 0 1-2.51-3.72V772a4 4 0 0 0-4-4h-30.48a4 4 0 0 0-4 4v12a4 4 0 0 1-2.54 3.8l-4.84 2.12a4 4 0 0 1-4.53-.8l-6.6-6.61a4 4 0 0 0-5.68 0L1089 804.07a4 4 0 0 0 0 5.67l8 8a4 4 0 0 1 .85 4.31l-.89 2.41a4 4 0 0 1-3.76 2.62h-10.65a4 4 0 0 0-4 4v30.49a4 4 0 0 0 4 4h12.39a4 4 0 0 1 3.65 2.37l.75 1.67a4 4 0 0 1-.82 4.48l-8.29 8.3a4 4 0 0 0 0 5.68l21.55 21.56a4 4 0 0 0 5.68 0l9-9a4 4 0 0 1 4.33-.89l1.49.6a4 4 0 0 1 2.52 3.72v12a4 4 0 0 0 4 4h30.48a4 4 0 0 0 4-4v-12a4.07 4.07 0 0 1 2.64-3.77h.11a4.07 4.07 0 0 1 4.38.86l10.45 10.46a4 4 0 0 0 5.67 0L1218 890a4 4 0 0 0 0-5.67l-9.08-9.08a4 4 0 0 1-.82-4.57l1.22-2.64a4.06 4.06 0 0 1 3.71-2.5h13.46a4 4 0 0 0 4-4v-30.49a4 4 0 0 0-3.98-4.05zm-27.34 27.89a46 46 0 0 1-89.36 0 43.39 43.39 0 0 1-1.32-10.87 46 46 0 0 1 92 0 43.85 43.85 0 0 1-1.32 10.91z" class="M"/><path d="M1169.19 925.09h-30.48a9 9 0 0 1-9-9v-11.34l-.27-.11-8.51 8.5a9 9 0 0 1-12.74 0l-21.56-21.55a9 9 0 0 1 0-12.75l7.81-7.81-.21-.48h-11.74a9 9 0 0 1-9-9v-30.5a9 9 0 0 1 9-9h10l.47-1.29-7.48-7.49a9 9 0 0 1 0-12.74L1107 779a9 9 0 0 1 12.74 0l6.11 6.11 3.88-1.69V772a9 9 0 0 1 9-9h30.48a9 9 0 0 1 9 9v11.33l2.71 1.16 7.54-7.54a9 9 0 0 1 12.74 0l21.56 21.56a9 9 0 0 1 0 12.74l-8.22 8.23 1 2.52h11a9 9 0 0 1 9 9v30.49a9 9 0 0 1-9 9h-12.84l-.75 1.65 8.61 8.61a9 9 0 0 1 0 12.73L1200 915.11a9 9 0 0 1-12.74 0l-9-9.05v10a9 9 0 0 1-9.07 9.03zm-29.5-10h28.52v-11a9 9 0 0 1 5.83-8.43h.11a9.07 9.07 0 0 1 9.72 2l9.76 9.76 20.16-20.16-8.39-8.39a9 9 0 0 1-1.77-10.3l1.12-2.43a9.06 9.06 0 0 1 8.3-5.51h12.47V832h-10.74a9 9 0 0 1-8.5-6l-1.24-3.29a8.91 8.91 0 0 1 2-9.79l8-8-20.16-20.16-7.33 7.33a9 9 0 0 1-10.13 1.81l-3.45-1.47a9 9 0 0 1-5.71-8.38V773h-28.52v11a9.08 9.08 0 0 1-5.74 8.46l-4.44 1.94a8.94 8.94 0 0 1-10.26-1.74l-5.91-5.92-20.16 20.17 7.27 7.28a9 9 0 0 1 2 9.68l-.81 2.18a8.94 8.94 0 0 1-8.49 6h-9.66v28.51h11.4a9 9 0 0 1 8.24 5.38l.7 1.56a9 9 0 0 1-1.82 10.12l-7.6 7.6 20.16 20.16 8.28-8.27a8.93 8.93 0 0 1 9.78-2l1.33.53a9.06 9.06 0 0 1 5.76 8.41zm-9.79-10.93zm-35.17-32.47zm119.2-1.66zm-120.82-49.84zm121.15-1.34zm-121.79-12.67zm88-21.16zm-25.93 110a50.78 50.78 0 0 1-49.54-39 48.67 48.67 0 0 1-1.46-12 51 51 0 0 1 102 0 48.52 48.52 0 0 1-1.47 12.08 50.78 50.78 0 0 1-49.58 38.96zm0-92a41 41 0 0 0-41 41 38.69 38.69 0 0 0 1.16 9.61 41 41 0 0 0 79.65.08v-.08a38.22 38.22 0 0 0 1.17-9.61 41 41 0 0 0-41.03-40.96z" class="I"/><g class="L"><path d="M767.14 200.56a86.94 86.94 0 0 1-41 73.84h-92.1a86.94 86.94 0 0 1-41-73.83h0a87 87 0 1 1 174 0z"/><circle cx="781.21" cy="200.56" r="49.85"/></g><g class="K"><path d="M831.06 200.56a48.52 48.52 0 0 1-.25 5 49.22 49.22 0 0 1-3.12 13l.15-3.78a50.39 50.39 0 0 0-.86-9.26l-.94-4a49.87 49.87 0 0 0-60.4-35 48.41 48.41 0 0 0-9.42 3.45q-1-2.55-2.21-5l-2.35-4.51a49.73 49.73 0 0 1 29.56-9.71 49.84 49.84 0 0 1 49.59 44.85 48.66 48.66 0 0 1 .25 4.96z"/><path d="M762.66 228.22a82.3 82.3 0 0 0 1-12.84 81.67 81.67 0 0 0-163.34 0h0a81.33 81.33 0 0 0 6.68 32.33 86.54 86.54 0 0 1-13.87-47.14h0a87 87 0 1 1 169.56 27.66z"/></g><path d="M871.16 237.48a36.91 36.91 0 0 1-36.92 36.92H594a36.92 36.92 0 0 1-.86-73.83h241.1a36.92 36.92 0 0 1 36.92 36.91z" class="L"/><g class="I"><path d="M876.16 237.48a41.91 41.91 0 0 1-41.92 41.92H594a41.92 41.92 0 0 1-5.79-83.4 92 92 0 0 1 169.47-45l2.51 4.15.08.14q1.23 2.18 2.35 4.43l3 6.77a92.43 92.43 0 0 1 6.36 29l.08 10h-9.94v-5a81.84 81.84 0 0 0-5.9-30.49q-1-2.55-2.21-5l-2.35-4.51-.17-.3-2.42-4a82 82 0 0 0-151 44.41v4.88l-4.88.13a31.92 31.92 0 0 0 .81 63.79h240.24a31.92 31.92 0 0 0 1.59-63.8h-1.59-8.46l.26-4v-1a43.46 43.46 0 0 0-.28-5h8.46q.79 0 1.59 0a42 42 0 0 1 40.35 41.88z"/><path d="M835.83 195.59a54.79 54.79 0 0 0-86.76-39.44l2.42 4 2.52 4.81a45.15 45.15 0 0 1 8.61-5.18 44.84 44.84 0 0 1 63.16 35.81 44.78 44.78 0 0 1 0 10h8.46 1.59l.23-5-.23-5z"/></g><path d="M1053.8 1130.96h206.58v105.49H1053.8z" class="L"/><g class="I"><path d="M1265.38 1241.45H1048.8v-151.12h216.58zm-206.58-10h196.58v-131.12H1058.8z"/><path d="M1053.8 1125.96h206.58v10H1053.8z"/></g><path d="M1136.77 1209l-46.22-20.53v-7.86l46.22-23.13v13.57l-28.35 12.95 28.35 11.52zm40.92-59.65l-24.92 68.71H1137l24.92-68.71zm-.27 46.17l28.34-11.52-28.34-12.94v-13.57l46.21 23.13v7.86l-46.21 20.52z" class="K"/><g class="I"><path d="M711.38 289.12h10v6h-10zm10 118.75h-10v-11.28h10zm0-22.55h-10V374h10zm0-22.55h-10v-11.28h10zm0-22.55h-10V329h10zm0-22.55h-10V306.4h10zm-10 101.47h10v6h-10zm-88.15 521.05h10v6h-10zm10 97.23h-10V1026h10zm0-22.81h-10v-11.4h10zm0-22.81h-10v-11.4h10zm0-22.8h-10v-11.41h10zm1 80.83v10h-11v-11h10v1zm11.06-.01h11.05v10h-11.05zm22.1 0h6v10h-6zm-44.062 22.292l.02-6 10 .033-.02 6zm9.852 46.078h-10v-11.51h10zm.07-23h-10v-11.51h10zm.88 35.51l-.03 10-11-.03.04-11 10 .03-.01 1zm11.055 10.092l.033-10 11.05.037-.033 10zm22.115.088l.033-10 6 .02-.033 10zm-43.973 12.793l.02-6 10 .033-.02 6zm9.853 46.077h-10v-11.51h10zm.07-23h-10v-11.51h10zm.88 35.51l-.03 10-11-.03.04-11 10 .03-.01 1zm11.055 10.092l.033-10 11.05.037-.033 10zm22.12.111l.035-10 6 .021-.035 10zM443.84 1063h-10v-8.84h10zm0-20.84h-10v-12h10zm0-24h-10v-12h10zm0-24h-10v-12h10zm0-24h-10v-12h10zm0-24h-10v-12h10zm0-24h-10v-12h10zm0-24h-10v-12h10zm0-24h-10v-12h10zM1027 1140.83h-12v-10h12zm-24 0h-12v-10h12zm-24 0h-12v-10h12zm-24 0h-12v-10h12zM423.68 829.47h-12v-10h12zm-24 0h-12v-10h12zm-24 0h-12v-10h12zM492.82 695h-9v-10h9zm-21 0h-12v-10h12zm-24 0h-12v-10h12zm-24 0h-12v-10h12zm-24 0h-12v-10h12zm-24 0h-12v-10h12zm-24 0h-12v-10h12zM453.2 425.14h-10v-12h10zm-10.14-23.43a20.84 20.84 0 0 0-3.24-9l8.37-5.47a30.86 30.86 0 0 1 4.81 13.35zm-10.19-15.62a20.58 20.58 0 0 0-9.16-2.79l.61-10a31 31 0 0 1 13.59 4.13zM412 383.26h-12v-10h12zm-24 0h-11.23v-10H388z"/><use xlink:href="#B"/><use xlink:href="#B" y="-152.76"/><path d="M934.48 542.3h6v10h-6zm85.38 10h-13.23v-10h13.23zm-26.46 0h-13.23v-10h13.23zm-26.46 0h-13.23v-10h13.23zm77.14-11v11h-11v-10h1v-1zm0-12.59h-10v-12.59h10zm0-25.18h-10v-12.59h10zm0-25.18h-10v-12.59h10zm0-25.17h-10v-12.59h10zm-10-31.18h10v6h-10zM361.7 1022.67a20.08 20.08 0 1 1 20.07-20.07 20.1 20.1 0 0 1-20.07 20.07zm0-30.15a10.08 10.08 0 1 0 10.07 10.08 10.09 10.09 0 0 0-10.07-10.08z"/></g><circle cx="578.02" cy="368.63" r="15.07" class="J"/><circle cx="971.11" cy="1069.01" r="15.07" class="L"/><g class="M"><circle cx="517.48" cy="987.52" r="15.07"/><path d="M1109.23 1017.9h90.52v13.34h-90.52zm0 24.98h90.52v13.34h-90.52zm0 24.97h90.52v13.34h-90.52z"/></g><path d="M1115.66 506.11v10.73h15.35v15.35h10.73v-15.35h15.35v-10.73h-15.35v-15.35h-10.73v15.35z" class="J"/><path d="M369.09 547.78v10.74h15.34v15.34h10.74v-15.34h15.34v-10.74h-15.34v-15.34h-10.74v15.34z" class="M"/><path d="M830.41 973.74v10.74h15.35v15.34h10.73v-15.34h15.35v-10.74h-15.35v-15.35h-10.73v15.35z" class="N"/><g class="L"><path d="M444.78 481.34a20.13 20.13 0 1 1 12.22-4.15 20.14 20.14 0 0 1-12.22 4.15zm0-30a9.91 9.91 0 1 0 7.88 3.87 9.86 9.86 0 0 0-7.91-3.92z"/><path d="M449.853 476.231l8.109-6.22 10.852 14.147-8.109 6.22z"/></g><path d="M781.88 289.12h10v6h-10zm10 47.66h-10v-10.41h10zm0-20.83h-10v-10.41h10zm1 32.25v10h-11v-11h10v1zm97.57 10h-12.2v-10h12.2zm-24.39 0h-12.2v-10h12.2zm-24.39 0h-12.2v-10h12.2zm-24.4 0h-12.19v-10h12.19zm85.37-10h6v10h-6zm312.8 218.58h-10v-10h10zm0-22h-10v-12h10zm0-24h-10v-12h10zm0-24h-10v-12h10zm0-24h-10v-12h10zm0-24h-10v-12h10zm0-24h-10v-12h10zm0-24h-10v-11.94l10-.18v.75zm-12-21.87a28.7 28.7 0 0 0-5.33-8.66l7.45-6.66a38.62 38.62 0 0 1 7.19 11.66zM1190.11 364a28.72 28.72 0 0 0-9.68-3.09l1.3-9.91a38.53 38.53 0 0 1 13.06 4.16zm-21-3.33h-12v-10h12zm-9.62 716.58h-10v-12h10zm0-24h-10v-12h10zm0-24h-10v-12h10zm0-24h-10v-12h10zm0-24h-10v-12h10zm0-24h-10v-12h10zM359.1 1128.51h-12v-10h12zm-24 0h-12v-10h12zm-24 0h-12v-10h12zm-24.2 0a45.2 45.2 0 0 1-13.2-2.52l3.32-9.44a35.2 35.2 0 0 0 10.28 2zm-25.07-8.82a45.46 45.46 0 0 1-9.5-9.49l8-6a35.41 35.41 0 0 0 7.41 7.41zm-15.83-21.4a45.09 45.09 0 0 1-2.54-13.19l10-.42a35.15 35.15 0 0 0 2 10.28zm7.42-25.4h-10v-12h10zm0-24h-10v-12h10zm0-24h-10v-12h10zm0-24h-10v-12h10zm0-24h-10v-12h10zm0-24h-10v-12h10zm0-24h-10v-3.76h10zm238.11 367.57a32.6 32.6 0 0 1-10.2-1.63l3.12-9.5a22.56 22.56 0 0 0 7.08 1.13h3.21v10zm627.21 0h-12v-10h12zm-24 0h-12v-10h12zm-24 0h-12v-10h12zm-24 0h-12v-10h12zm-24 0h-12v-10h12zm-24 0h-12v-10h12zm-24 0h-12v-10h12zm-24 0h-12v-10h12zm-24 0h-12v-10h12zm-24 0h-12v-10h12zm-24 0h-12v-10h12zm-24 0h-12v-10h12zm-24 0h-12v-10h12zm-24 0h-12v-10h12zm-24 0h-12v-10h12zm-24 0h-12v-10h12zm-24 0h-12v-10h12zm-24 0h-12v-10h12zm-24 0h-12v-10h12zm-24 0h-12v-10h12zm-24 0h-12v-10h12zm-24 0h-12v-10h12zm-24 0h-12v-10h12zm-24 0h-12v-10h12zm-24 0h-12v-10h12zm-24 0h-12v-10h12zm612.23 0l-.47-10a22.32 22.32 0 0 0 9.4-2.55l4.64 8.86a32.26 32.26 0 0 1-13.54 3.65zm-661.74-8.75a33.17 33.17 0 0 1-8-11.57l9.26-3.77a22.94 22.94 0 0 0 5.55 8zm686.07-4l-7.92-6.1a22.32 22.32 0 0 0 4.15-8.82l9.76 2.2a32.4 32.4 0 0 1-5.99 12.72zm-686.46-21.23h-10v-12h10zm693.25-4.54h-10v-11h10zm-693.25-19.46h-10v-12h10zm0-24h-10v-12h10z" class="I"/><path d="M778.28 941H545.14a53 53 0 0 1-53-53V477.34a53 53 0 0 1 53-53h233.14a53 53 0 0 1 53 53V888a53 53 0 0 1-53 53zM545.14 464.36a13 13 0 0 0-13 13v378.33a13 13 0 0 0 13 13h233.14a13 13 0 0 0 13-13V477.34a13 13 0 0 0-13-13z" class="L"/><path d="M562.95 484.65h288.18v68.5H562.95z" class="M"/><path d="M856.12 558.15H558v-78.5h298.12zm-288.12-10h278.12v-58.5H568z" class="I"/><path d="M562.95 553.15h288.18v283.61H562.95z" class="K"/><path d="M856.12 841.76H558V548.15h298.12zm-288.12-10h278.12V558.15H568z" class="I"/><g class="K"><circle cx="661.71" cy="906.42" r="22.28"/><path d="M583.47 511.47h166.05v20.71H583.47z"/></g><g class="J"><circle cx="807.96" cy="521.12" r="16.74"/><path d="M585.04 578.15h243.99V684H585.04z"/></g><path d="M585.04 693.74h243.99v30.02H585.04z" class="L"/><path d="M585.04 738.49h98.95v79.5h-98.95z" class="N"/><path d="M700.05 738.49h128.98v79.5H700.05z" class="J"/><path d="M262 230.58h-10v-12h10zm.21-23.41l-9.99-1.17a39.88 39.88 0 0 1 3.9-13.08l9 4.45a29.52 29.52 0 0 0-2.96 9.8zm9-18.06l-6.95-7.19a40.07 40.07 0 0 1 11.27-7.68l4.14 9.1a30.16 30.16 0 0 0-8.54 5.77zm18.36-8.35l-.84-10 3.36-.14h9.06v10H292l-2.51.14zm251.58-.1h-12v-10h12zm-24 0h-12v-10h12zm-24 0h-12v-10h12zm-24 0h-12v-10h12zm-24 0h-12v-10h12zm-24 0h-12v-10h12zm-24 0h-12v-10h12zm-24 0h-12v-10h12zm-24 0h-12v-10h12zm-24 0h-12v-10h12zm-71.72 511.67h-10v-12h10zm0-24h-10v-12h10zm0-24h-10v-12h10zm0-24h-10v-12h10zm0-24h-10v-12h10zm0-24h-10v-12h10zm0-24h-10v-12h10z" class="I"/></g><defs ><path id="B" d="M1029.48 841.76h-12v-10h12zm-24 0h-12v-10h12zm-24 0h-12v-10h12zm-24 0h-12v-10h12zm-24 0h-12v-10h12zm-24 0h-12v-10h12zm-24 0h-12v-10h12z"/></defs></svg>