<?xml version="1.0" encoding="UTF-8" standalone="no"?>
<!-- Generator: Adobe Illustrator 16.0.0, SVG Export Plug-In . SVG Version: 6.00 Build 0)  -->

<svg
   version="1.1"
   x="0px"
   y="0px"
   width="200"
   height="200"
   viewBox="0 0 200 200"
   enable-background="new 0 0 335.986 235.19"
   xml:space="preserve"
   id="svg32851"
   sodipodi:docname="bcom.svg"
   inkscape:version="1.1 (c4e8f9e, 2021-05-24)"
   xmlns:inkscape="http://www.inkscape.org/namespaces/inkscape"
   xmlns:sodipodi="http://sodipodi.sourceforge.net/DTD/sodipodi-0.dtd"
   xmlns="http://www.w3.org/2000/svg"
   xmlns:svg="http://www.w3.org/2000/svg"><g
   id="bg"
   transform="matrix(0.85037628,0,0,0.85037628,-41.122552,0.30237205)"
   clip-path="url(#clipPath33219)">
	<g
   id="g32334">
		<g
   id="g32332">
			<rect
   fill="#eaecf0"
   width="335.98599"
   height="235.19"
   id="rect32330"
   x="0"
   y="0" />
		</g>
	</g>
	<g
   id="g32340">
		<polyline
   fill="none"
   stroke="#231f20"
   stroke-width="2"
   stroke-linejoin="round"
   stroke-miterlimit="10"
   points="    256.585,107.843 252.536,103.245 248.573,107.843   "
   id="polyline32336" />
		
			<line
   fill="none"
   stroke="#231f20"
   stroke-width="2"
   stroke-linejoin="round"
   stroke-miterlimit="10"
   x1="252.675"
   y1="103.245"
   x2="252.675"
   y2="124.72"
   id="line32338" />
	</g>
	<polyline
   fill="none"
   stroke="#231f20"
   stroke-width="2"
   stroke-linejoin="round"
   stroke-miterlimit="10"
   points="245.448,94.949    241.399,90.352 237.435,94.949  "
   id="polyline32342" />
	
		<line
   fill="none"
   stroke="#0e3c54"
   stroke-width="2"
   stroke-miterlimit="10"
   stroke-dasharray="2"
   x1="241.591"
   y1="90.351997"
   x2="241.591"
   y2="112.518"
   id="line32344" />
	
		<line
   fill="none"
   stroke="#0e3c54"
   stroke-width="2"
   stroke-miterlimit="10"
   stroke-dasharray="2"
   x1="241.591"
   y1="115.982"
   x2="241.591"
   y2="138.842"
   id="line32346" />
	<g
   id="g32352">
		<polyline
   fill="none"
   stroke="#231f20"
   stroke-width="2"
   stroke-linejoin="round"
   stroke-miterlimit="10"
   points="38.555,53.626     42.604,58.224 46.566,53.626   "
   id="polyline32348" />
		
			<line
   fill="none"
   stroke="#231f20"
   stroke-width="2"
   stroke-linejoin="round"
   stroke-miterlimit="10"
   x1="42.465"
   y1="58.223999"
   x2="42.465"
   y2="36.749001"
   id="line32350" />
	</g>
	<polyline
   fill="none"
   stroke="#231f20"
   stroke-width="2"
   stroke-linejoin="round"
   stroke-miterlimit="10"
   points="49.691,66.52    53.74,71.117 57.705,66.52  "
   id="polyline32354" />
	
		<line
   fill="none"
   stroke="#0e3c54"
   stroke-width="2"
   stroke-miterlimit="10"
   stroke-dasharray="2"
   x1="53.549"
   y1="71.116997"
   x2="53.549"
   y2="48.951"
   id="line32356" />
	
		<line
   fill="none"
   stroke="#0e3c54"
   stroke-width="2"
   stroke-miterlimit="10"
   stroke-dasharray="2"
   x1="53.549"
   y1="45.486"
   x2="53.549"
   y2="22.627001"
   id="line32358" />
	<g
   id="g32362">
		<polyline
   fill="none"
   stroke="#231f20"
   stroke-width="2"
   stroke-linejoin="round"
   stroke-miterlimit="10"
   points="171.424,67.403     166.826,63.354 171.424,59.392   "
   id="polyline32360" />
	</g>
	<g
   id="g32366">
		<polyline
   fill="none"
   stroke="#231f20"
   stroke-width="2"
   stroke-linejoin="round"
   stroke-miterlimit="10"
   points="    165.124,169.788 169.722,173.837 165.124,177.8   "
   id="polyline32364" />
	</g>
	<path
   fill="#ffffff"
   stroke="#0e3c54"
   stroke-width="2"
   stroke-linejoin="round"
   stroke-miterlimit="10"
   d="m 301.348,86.603 h -30.861 c -0.859,0 -1.557,0.697 -1.557,2.049 v 56.44 c 0,0.367 0.697,1.063 1.557,1.063 h 42.615 c 0.86,0 1.557,-0.696 1.557,-1.063 v -44.688 c 0,-0.74 -0.099,-0.979 -0.274,-1.154 L 302.012,86.876 c -0.177,-0.175 -0.414,-0.273 -0.664,-0.273 z"
   id="path32368" />
	<path
   fill="none"
   stroke="#3d3437"
   stroke-width="2"
   stroke-miterlimit="10"
   d="m 301.348,86.603 h -30.861 c -0.859,0 -1.557,0.697 -1.557,2.049 v 56.44 c 0,0.367 0.697,1.063 1.557,1.063 h 42.615 c 0.86,0 1.557,-0.696 1.557,-1.063 v -44.688 c 0,-0.74 -0.099,-0.979 -0.274,-1.154 L 302.012,86.876 c -0.177,-0.175 -0.414,-0.273 -0.664,-0.273 z"
   id="path32370" />
	<path
   fill="#ffffff"
   stroke="#3d3437"
   stroke-width="2"
   stroke-miterlimit="10"
   d="m 313.102,146.155 h -42.615 c -0.861,0 -1.557,-0.696 -1.557,-1.556 v -16.522 h 45.729 V 144.6 c -10e-4,0.859 -0.697,1.555 -1.557,1.555 z"
   id="path32372" />
	<path
   fill="#ffffff"
   stroke="#3d3437"
   stroke-width="2"
   stroke-miterlimit="10"
   d="m 301.896,88.083 v 11.281 h 11.283 c 0.485,0 0.73,-0.589 0.385,-0.933 L 302.828,87.695 c -0.344,-0.342 -0.932,-0.098 -0.932,0.388 z"
   id="path32374" />
	<path
   fill="#ffffff"
   stroke="#0e3c54"
   stroke-width="2"
   stroke-linejoin="round"
   stroke-miterlimit="10"
   d="M 51.318,86.603 H 20.455 c -0.859,0 -1.557,0.697 -1.557,2.049 v 56.44 c 0,0.367 0.697,1.063 1.557,1.063 h 42.616 c 0.86,0 1.556,-0.696 1.556,-1.063 v -44.688 c 0,-0.74 -0.098,-0.979 -0.273,-1.154 L 51.98,86.876 c -0.175,-0.175 -0.414,-0.273 -0.662,-0.273 z"
   id="path32376" />
	<path
   fill="none"
   stroke="#3d3437"
   stroke-width="2"
   stroke-miterlimit="10"
   d="M 51.318,86.603 H 20.455 c -0.859,0 -1.557,0.697 -1.557,2.049 v 56.44 c 0,0.367 0.697,1.063 1.557,1.063 h 42.616 c 0.86,0 1.556,-0.696 1.556,-1.063 v -44.688 c 0,-0.74 -0.098,-0.979 -0.273,-1.154 L 51.98,86.876 c -0.175,-0.175 -0.414,-0.273 -0.662,-0.273 z"
   id="path32378" />
	<path
   fill="#ffffff"
   stroke="#3d3437"
   stroke-width="2"
   stroke-miterlimit="10"
   d="M 63.071,146.155 H 20.455 c -0.86,0 -1.557,-0.696 -1.557,-1.556 V 128.077 H 64.627 V 144.6 c 0,0.859 -0.695,1.555 -1.556,1.555 z"
   id="path32380" />
	<path
   fill="#ffffff"
   stroke="#3d3437"
   stroke-width="2"
   stroke-miterlimit="10"
   d="m 51.865,88.083 v 11.281 h 11.283 c 0.485,0 0.73,-0.589 0.386,-0.933 L 52.799,87.695 c -0.344,-0.342 -0.934,-0.098 -0.934,0.388 z"
   id="path32382" />
	
		<line
   fill="#ffffff"
   stroke="#0e3c54"
   stroke-width="2"
   stroke-linecap="round"
   stroke-linejoin="round"
   stroke-miterlimit="10"
   x1="188.53799"
   y1="209.965"
   x2="188.53799"
   y2="187.105"
   id="line32384" />
	
		<line
   fill="#ffffff"
   stroke="#0e3c54"
   stroke-width="2"
   stroke-linecap="round"
   stroke-linejoin="round"
   stroke-miterlimit="10"
   x1="182.938"
   y1="221.395"
   x2="182.938"
   y2="198.535"
   id="line32386" />
	
		<line
   fill="#ffffff"
   stroke="#0e3c54"
   stroke-width="2"
   stroke-linecap="round"
   stroke-linejoin="round"
   stroke-miterlimit="10"
   x1="152.644"
   y1="38.667"
   x2="152.644"
   y2="15.808"
   id="line32388" />
	
		<line
   fill="#ffffff"
   stroke="#0e3c54"
   stroke-width="2"
   stroke-linecap="round"
   stroke-linejoin="round"
   stroke-miterlimit="10"
   x1="147.04401"
   y1="50.097"
   x2="147.04401"
   y2="27.237"
   id="line32390" />
	
		<line
   fill="#ffffff"
   stroke="#0e3c54"
   stroke-width="2"
   stroke-linecap="round"
   stroke-linejoin="round"
   stroke-miterlimit="10"
   x1="96.010002"
   y1="113.016"
   x2="96.010002"
   y2="90.155998"
   id="line32392" />
	
		<line
   fill="#ffffff"
   stroke="#0e3c54"
   stroke-width="2"
   stroke-linecap="round"
   stroke-linejoin="round"
   stroke-miterlimit="10"
   x1="90.410004"
   y1="124.445"
   x2="90.410004"
   y2="101.586"
   id="line32394" />
	
		<line
   fill="#ffffff"
   stroke="#0e3c54"
   stroke-width="2"
   stroke-linecap="round"
   stroke-linejoin="round"
   stroke-miterlimit="10"
   x1="60.581001"
   y1="210.89999"
   x2="60.581001"
   y2="194.172"
   id="line32396" />
	
		<line
   fill="#ffffff"
   stroke="#0e3c54"
   stroke-width="2"
   stroke-linecap="round"
   stroke-linejoin="round"
   stroke-miterlimit="10"
   x1="54.980999"
   y1="219.26601"
   x2="54.980999"
   y2="202.536"
   id="line32398" />
	
		<line
   fill="#ffffff"
   stroke="#0e3c54"
   stroke-width="2"
   stroke-linecap="round"
   stroke-linejoin="round"
   stroke-miterlimit="10"
   x1="284.29501"
   y1="34.944"
   x2="284.29501"
   y2="18.216"
   id="line32400" />
	
		<line
   fill="#ffffff"
   stroke="#0e3c54"
   stroke-width="2"
   stroke-linecap="round"
   stroke-linejoin="round"
   stroke-miterlimit="10"
   x1="278.69501"
   y1="43.310001"
   x2="278.69501"
   y2="26.58"
   id="line32402" />
	<g
   id="g32408">
		<polyline
   fill="none"
   stroke="#231f20"
   stroke-width="2"
   stroke-linejoin="round"
   stroke-miterlimit="10"
   points="298.642,174.34     302.692,169.743 306.654,174.341   "
   id="polyline32404" />
		
			<line
   fill="none"
   stroke="#231f20"
   stroke-width="2"
   stroke-linejoin="round"
   stroke-miterlimit="10"
   x1="302.55399"
   y1="169.743"
   x2="302.55301"
   y2="191.218"
   id="line32406" />
	</g>
	<polyline
   fill="none"
   stroke="#231f20"
   stroke-width="2"
   stroke-linejoin="round"
   stroke-miterlimit="10"
   points="294.729,167.594    290.664,162.979 286.685,167.594  "
   id="polyline32410" />
	
		<line
   fill="none"
   stroke="#0e3c54"
   stroke-width="2"
   stroke-miterlimit="10"
   stroke-dasharray="2"
   x1="290.87799"
   y1="163.19501"
   x2="290.87799"
   y2="185.36099"
   id="line32412" />
	
		<line
   fill="none"
   stroke="#0e3c54"
   stroke-width="2"
   stroke-miterlimit="10"
   stroke-dasharray="2"
   x1="290.88"
   y1="188.826"
   x2="290.88"
   y2="211.686"
   id="line32414" />
	
		<line
   fill="none"
   stroke="#0e3c54"
   stroke-width="2"
   stroke-miterlimit="10"
   stroke-dasharray="2"
   x1="301.474"
   y1="25.544001"
   x2="301.474"
   y2="48.403"
   id="line32416" />
	
		<line
   fill="none"
   stroke="#0e3c54"
   stroke-width="2"
   stroke-miterlimit="10"
   stroke-dasharray="2"
   x1="33.162998"
   y1="192.82001"
   x2="33.162998"
   y2="215.67999"
   id="line32418" />
	<g
   id="g32428">
		
			<line
   fill="#ffffff"
   stroke="#0e3c54"
   stroke-width="2"
   stroke-miterlimit="10"
   x1="226.022"
   y1="66.391998"
   x2="226.022"
   y2="69.711998"
   id="line32420" />
		
			<line
   fill="#ffffff"
   stroke="#0e3c54"
   stroke-width="2"
   stroke-miterlimit="10"
   x1="221.086"
   y1="71.038002"
   x2="224.405"
   y2="71.038002"
   id="line32422" />
		
			<line
   fill="#ffffff"
   stroke="#0e3c54"
   stroke-width="2"
   stroke-miterlimit="10"
   x1="226.022"
   y1="75.843002"
   x2="226.022"
   y2="72.526001"
   id="line32424" />
		
			<line
   fill="#ffffff"
   stroke="#0e3c54"
   stroke-width="2"
   stroke-miterlimit="10"
   x1="230.96001"
   y1="71.195999"
   x2="227.642"
   y2="71.196999"
   id="line32426" />
	</g>
	<g
   id="g32438">
		
			<line
   fill="#ffffff"
   stroke="#0e3c54"
   stroke-width="2"
   stroke-miterlimit="10"
   x1="259.284"
   y1="21.042999"
   x2="259.284"
   y2="24.363001"
   id="line32430" />
		
			<line
   fill="#ffffff"
   stroke="#0e3c54"
   stroke-width="2"
   stroke-miterlimit="10"
   x1="254.34801"
   y1="25.688999"
   x2="257.66699"
   y2="25.688999"
   id="line32432" />
		
			<line
   fill="#ffffff"
   stroke="#0e3c54"
   stroke-width="2"
   stroke-miterlimit="10"
   x1="259.284"
   y1="30.493999"
   x2="259.284"
   y2="27.177999"
   id="line32434" />
		
			<line
   fill="#ffffff"
   stroke="#0e3c54"
   stroke-width="2"
   stroke-miterlimit="10"
   x1="264.22198"
   y1="25.848"
   x2="260.90302"
   y2="25.849001"
   id="line32436" />
	</g>
	<g
   id="g32448">
		
			<line
   fill="#ffffff"
   stroke="#0e3c54"
   stroke-width="2"
   stroke-miterlimit="10"
   x1="169.33299"
   y1="29.695"
   x2="169.33299"
   y2="33.015999"
   id="line32440" />
		
			<line
   fill="#ffffff"
   stroke="#0e3c54"
   stroke-width="2"
   stroke-miterlimit="10"
   x1="164.396"
   y1="34.341999"
   x2="167.716"
   y2="34.341999"
   id="line32442" />
		
			<line
   fill="#ffffff"
   stroke="#0e3c54"
   stroke-width="2"
   stroke-miterlimit="10"
   x1="169.33299"
   y1="39.146"
   x2="169.33299"
   y2="35.830002"
   id="line32444" />
		
			<line
   fill="#ffffff"
   stroke="#0e3c54"
   stroke-width="2"
   stroke-miterlimit="10"
   x1="174.271"
   y1="34.5"
   x2="170.952"
   y2="34.500999"
   id="line32446" />
	</g>
	<g
   id="g32458">
		
			<line
   fill="#ffffff"
   stroke="#0e3c54"
   stroke-width="2"
   stroke-miterlimit="10"
   x1="22.174999"
   y1="59.542"
   x2="22.174999"
   y2="62.862"
   id="line32450" />
		
			<line
   fill="#ffffff"
   stroke="#0e3c54"
   stroke-width="2"
   stroke-miterlimit="10"
   x1="17.238001"
   y1="64.188004"
   x2="20.558001"
   y2="64.188004"
   id="line32452" />
		
			<line
   fill="#ffffff"
   stroke="#0e3c54"
   stroke-width="2"
   stroke-miterlimit="10"
   x1="22.174999"
   y1="68.992996"
   x2="22.174999"
   y2="65.677002"
   id="line32454" />
		
			<line
   fill="#ffffff"
   stroke="#0e3c54"
   stroke-width="2"
   stroke-miterlimit="10"
   x1="27.112"
   y1="64.347"
   x2="23.794001"
   y2="64.348"
   id="line32456" />
	</g>
	<g
   id="g32468">
		
			<line
   fill="#ffffff"
   stroke="#0e3c54"
   stroke-width="2"
   stroke-miterlimit="10"
   x1="80.882004"
   y1="208.35899"
   x2="80.882004"
   y2="211.67999"
   id="line32460" />
		
			<line
   fill="#ffffff"
   stroke="#0e3c54"
   stroke-width="2"
   stroke-miterlimit="10"
   x1="75.945"
   y1="213.006"
   x2="79.264999"
   y2="213.006"
   id="line32462" />
		
			<line
   fill="#ffffff"
   stroke="#0e3c54"
   stroke-width="2"
   stroke-miterlimit="10"
   x1="80.882004"
   y1="217.811"
   x2="80.882004"
   y2="214.494"
   id="line32464" />
		
			<line
   fill="#ffffff"
   stroke="#0e3c54"
   stroke-width="2"
   stroke-miterlimit="10"
   x1="85.819"
   y1="213.164"
   x2="82.500999"
   y2="213.16499"
   id="line32466" />
	</g>
	<g
   id="g32478">
		
			<line
   fill="#ffffff"
   stroke="#0e3c54"
   stroke-width="2"
   stroke-miterlimit="10"
   x1="162.134"
   y1="189.03"
   x2="162.134"
   y2="192.351"
   id="line32470" />
		
			<line
   fill="#ffffff"
   stroke="#0e3c54"
   stroke-width="2"
   stroke-miterlimit="10"
   x1="157.19701"
   y1="193.677"
   x2="160.517"
   y2="193.677"
   id="line32472" />
		
			<line
   fill="#ffffff"
   stroke="#0e3c54"
   stroke-width="2"
   stroke-miterlimit="10"
   x1="162.134"
   y1="198.481"
   x2="162.134"
   y2="195.16499"
   id="line32474" />
		
			<line
   fill="#ffffff"
   stroke="#0e3c54"
   stroke-width="2"
   stroke-miterlimit="10"
   x1="167.071"
   y1="193.83501"
   x2="163.75301"
   y2="193.836"
   id="line32476" />
	</g>
	<g
   id="g32488">
		
			<line
   fill="#ffffff"
   stroke="#0e3c54"
   stroke-width="2"
   stroke-miterlimit="10"
   x1="206.653"
   y1="207.157"
   x2="206.653"
   y2="210.478"
   id="line32480" />
		
			<line
   fill="#ffffff"
   stroke="#0e3c54"
   stroke-width="2"
   stroke-miterlimit="10"
   x1="201.717"
   y1="211.804"
   x2="205.036"
   y2="211.804"
   id="line32482" />
		
			<line
   fill="#ffffff"
   stroke="#0e3c54"
   stroke-width="2"
   stroke-miterlimit="10"
   x1="206.653"
   y1="216.608"
   x2="206.653"
   y2="213.29201"
   id="line32484" />
		
			<line
   fill="#ffffff"
   stroke="#0e3c54"
   stroke-width="2"
   stroke-miterlimit="10"
   x1="211.591"
   y1="211.96201"
   x2="208.272"
   y2="211.963"
   id="line32486" />
	</g>
	<path
   fill="#7abeeb"
   stroke="#000000"
   stroke-width="2"
   stroke-miterlimit="10"
   d="m 198.897,122.785 c 0.324,-1.294 0.324,-2.905 0.324,-4.517 0,-1.617 0,-2.904 -0.324,-4.522 l 9.039,-6.459 c 0.969,-0.642 1.291,-1.937 0.646,-2.901 l -8.714,-14.848 c -0.646,-0.969 -1.614,-1.293 -2.581,-0.969 l -10.006,4.843 c -2.26,-1.937 -4.844,-3.23 -7.745,-4.515 L 178.565,77.92 c 0,-0.975 -0.967,-1.939 -1.937,-1.939 h -17.105 c -0.967,0 -1.938,0.965 -1.938,1.939 l -1.291,11.293 c -2.905,0.968 -5.163,2.586 -7.746,4.52 l -10.005,-4.52 c -0.967,-0.316 -2.261,0 -2.581,0.968 l -8.716,14.851 c -0.646,0.969 -0.323,2.255 0.647,2.904 l 9.035,6.451 c -0.323,1.297 -0.323,2.912 -0.323,4.523 0,1.611 0,2.905 0.323,4.516 l -9.035,6.459 c -0.971,0.643 -1.294,1.936 -0.647,2.902 l 8.716,14.848 c 0.644,0.969 1.614,1.289 2.581,0.969 l 10.005,-4.516 c 2.26,1.934 4.841,3.221 7.746,4.516 l 0.968,10.97 c 0,0.968 0.971,1.937 1.938,1.937 h 17.105 c 0.969,0 1.939,-0.969 1.939,-1.937 l 0.966,-10.97 c 2.903,-0.969 5.165,-2.582 7.746,-4.516 l 10.005,4.516 c 0.971,0.32 2.26,0 2.583,-0.969 l 8.716,-14.848 c 0.645,-0.967 0.321,-2.26 -0.647,-2.902 z M 167.914,139 c -11.61,0 -20.731,-9.126 -20.731,-20.731 0,-11.615 9.121,-20.733 20.731,-20.733 11.61,0 20.732,9.118 20.732,20.733 0,11.605 -9.122,20.731 -20.732,20.731 z"
   id="path32490" />
	<g
   id="g32500">
		<path
   fill="#ffffff"
   stroke="#34525c"
   stroke-width="2"
   stroke-miterlimit="10"
   d="m 190.022,117.343 c 0.477,12.211 -9.057,22.498 -21.277,22.96 -12.203,0.462 -22.479,-9.051 -22.941,-21.277 -0.462,-12.216 9.065,-22.485 21.285,-22.954 12.21,-0.464 22.484,9.066 22.933,21.271 z"
   id="path32492" />
		<path
   fill="#ffffff"
   stroke="#0e3c54"
   stroke-width="2"
   stroke-linejoin="round"
   stroke-miterlimit="10"
   d="m 168.624,136.726 c -10.215,0.384 -18.854,-7.609 -19.243,-17.829 -0.383,-10.23 7.622,-18.858 17.83,-19.241 10.226,-0.395 18.86,7.61 19.253,17.828 0.379,10.222 -7.621,18.854 -17.84,19.242 z"
   id="path32494" />
		<g
   id="g32498">
			<path
   fill="#ffffff"
   stroke="#34525c"
   stroke-width="2"
   stroke-miterlimit="10"
   d="m 168.378,125.19 c -1.681,0 -3.42,-0.936 -5.216,-2.805 l -2.802,2.805 c 1.061,1.115 2.214,2.008 3.449,2.68 0.906,0.488 2.001,0.807 3.29,0.947 v 1.338 h 2.767 v -1.424 c 1.365,-0.275 2.412,-0.684 3.139,-1.223 0.729,-0.537 1.32,-1.268 1.785,-2.188 0.463,-0.922 0.693,-1.926 0.693,-3.01 0,-1.086 -0.217,-2.065 -0.649,-2.939 -0.433,-0.873 -1.054,-1.619 -1.856,-2.244 -0.806,-0.625 -2.3,-1.377 -4.48,-2.262 -1.227,-0.491 -2.044,-0.948 -2.447,-1.384 -0.412,-0.425 -0.619,-0.85 -0.619,-1.279 0,-0.509 0.232,-0.958 0.703,-1.347 0.461,-0.391 1.072,-0.587 1.818,-0.587 1.266,0 2.55,0.655 3.846,1.961 l 2.846,-2.71 c -0.904,-0.891 -1.689,-1.523 -2.354,-1.899 -0.662,-0.374 -1.469,-0.674 -2.424,-0.893 v -1.624 H 167.1 v 1.441 c -1.655,0.07 -3.021,0.627 -4.1,1.662 -1.082,1.031 -1.622,2.273 -1.622,3.721 0,0.873 0.205,1.698 0.609,2.469 0.411,0.772 1.027,1.471 1.852,2.088 0.826,0.617 2.406,1.457 4.746,2.514 1.149,0.516 1.926,1.029 2.33,1.529 0.392,0.498 0.59,1.076 0.59,1.74 0,0.787 -0.31,1.471 -0.924,2.05 -0.614,0.583 -1.35,0.873 -2.203,0.873 z"
   id="path32496" />
		</g>
	</g>
	<path
   fill-rule="evenodd"
   clip-rule="evenodd"
   fill="#7abeeb"
   stroke="#000000"
   stroke-width="2"
   stroke-miterlimit="10"
   d="m 314.08,197.989 8.796,8.799 c 0.153,0.146 0.191,0.356 0.11,0.551 -0.081,0.191 -0.26,0.308 -0.463,0.308 h -4.297 c -0.277,0 -0.505,0.229 -0.505,0.507 v 9.714 c 0,0.28 -0.229,0.504 -0.5,0.504 h -6.996 c -0.278,0 -0.507,-0.224 -0.507,-0.504 v -9.714 c 0,-0.278 -0.22,-0.507 -0.499,-0.507 h -4.293 c -0.207,0 -0.383,-0.116 -0.462,-0.308 -0.082,-0.191 -0.046,-0.404 0.108,-0.551 l 8.795,-8.799 c 0.104,-0.095 0.212,-0.146 0.358,-0.146 0.143,0 0.26,0.052 0.355,0.146 z"
   id="path32502" />
	<path
   fill-rule="evenodd"
   clip-rule="evenodd"
   fill="#7abeeb"
   stroke="#000000"
   stroke-width="2"
   stroke-miterlimit="10"
   d="m 22.598,40.881 -8.797,-8.799 c -0.152,-0.146 -0.191,-0.356 -0.109,-0.551 0.08,-0.191 0.26,-0.308 0.463,-0.308 h 4.297 c 0.277,0 0.504,-0.229 0.504,-0.507 v -9.714 c 0,-0.28 0.229,-0.504 0.5,-0.504 h 6.996 c 0.279,0 0.508,0.224 0.508,0.504 v 9.714 c 0,0.278 0.219,0.507 0.498,0.507 h 4.293 c 0.207,0 0.383,0.116 0.463,0.308 0.082,0.191 0.045,0.404 -0.109,0.551 l -8.795,8.799 c -0.104,0.095 -0.211,0.146 -0.357,0.146 -0.144,0 -0.262,-0.051 -0.355,-0.146 z"
   id="path32504" />
	
		<rect
   x="275.67599"
   y="95.924004"
   fill="none"
   stroke="#0e3c54"
   stroke-width="2"
   stroke-miterlimit="10"
   width="10.359"
   height="10.361"
   id="rect32506" />
	
		<rect
   x="275.67599"
   y="111.3"
   fill="#7abeeb"
   stroke="#000000"
   stroke-width="2"
   stroke-miterlimit="10"
   width="10.359"
   height="10.36"
   id="rect32508" />
	
		<line
   fill="none"
   stroke="#0e3c54"
   stroke-width="2"
   stroke-miterlimit="10"
   x1="291.048"
   y1="104.797"
   x2="300.88699"
   y2="104.797"
   id="line32510" />
	<line
   fill="none"
   stroke="#0e3c54"
   stroke-width="2"
   stroke-miterlimit="10"
   x1="291.048"
   y1="111.3"
   x2="307.91299"
   y2="111.3"
   id="line32512" />
	
		<line
   fill="none"
   stroke="#0e3c54"
   stroke-width="2"
   stroke-miterlimit="10"
   x1="291.048"
   y1="119.623"
   x2="300.88699"
   y2="119.623"
   id="line32514" />
	<polyline
   fill="none"
   stroke="#0e3c54"
   stroke-width="2"
   stroke-miterlimit="10"
   points="275.943,99.805 280.217,103.495    285.771,95.924  "
   id="polyline32516" />
	
		<rect
   x="26.731001"
   y="95.924004"
   fill="#7abeeb"
   stroke="#000000"
   stroke-width="2"
   stroke-miterlimit="10"
   width="10.359"
   height="10.361"
   id="rect32518" />
	<g
   id="g32540">
		<rect
   x="26.731001"
   y="111.3"
   fill="#ffffff"
   width="10.359"
   height="10.36"
   id="rect32520" />
		<g
   id="g32538">
			<polyline
   fill="none"
   stroke="#0e3c54"
   stroke-width="2"
   stroke-miterlimit="10"
   points="37.091,120.66 37.091,121.66      36.091,121.66    "
   id="polyline32522" />
			
				<line
   fill="none"
   stroke="#0e3c54"
   stroke-width="2"
   stroke-miterlimit="10"
   stroke-dasharray="1.6719, 1.6719"
   x1="34.418999"
   y1="121.66"
   x2="28.566999"
   y2="121.66"
   id="line32524" />
			<polyline
   fill="none"
   stroke="#0e3c54"
   stroke-width="2"
   stroke-miterlimit="10"
   points="27.731,121.66 26.731,121.66      26.731,120.66    "
   id="polyline32526" />
			
				<line
   fill="none"
   stroke="#0e3c54"
   stroke-width="2"
   stroke-miterlimit="10"
   stroke-dasharray="1.6721, 1.6721"
   x1="26.731001"
   y1="118.988"
   x2="26.731001"
   y2="113.136"
   id="line32528" />
			<polyline
   fill="none"
   stroke="#0e3c54"
   stroke-width="2"
   stroke-miterlimit="10"
   points="26.731,112.3 26.731,111.3      27.731,111.3    "
   id="polyline32530" />
			
				<line
   fill="none"
   stroke="#0e3c54"
   stroke-width="2"
   stroke-miterlimit="10"
   stroke-dasharray="1.6719, 1.6719"
   x1="29.403"
   y1="111.3"
   x2="35.255001"
   y2="111.3"
   id="line32532" />
			<polyline
   fill="none"
   stroke="#0e3c54"
   stroke-width="2"
   stroke-miterlimit="10"
   points="36.091,111.3 37.091,111.3      37.091,112.3    "
   id="polyline32534" />
			
				<line
   fill="none"
   stroke="#0e3c54"
   stroke-width="2"
   stroke-miterlimit="10"
   stroke-dasharray="1.6721, 1.6721"
   x1="37.091"
   y1="113.972"
   x2="37.091"
   y2="119.824"
   id="line32536" />
		</g>
	</g>
	<line
   fill="none"
   stroke="#0e3c54"
   stroke-width="2"
   stroke-miterlimit="10"
   x1="42.104"
   y1="104.797"
   x2="51.942001"
   y2="104.797"
   id="line32542" />
	<line
   fill="none"
   stroke="#0e3c54"
   stroke-width="2"
   stroke-miterlimit="10"
   x1="42.104"
   y1="111.3"
   x2="58.969002"
   y2="111.3"
   id="line32544" />
	<line
   fill="none"
   stroke="#0e3c54"
   stroke-width="2"
   stroke-miterlimit="10"
   x1="42.104"
   y1="119.623"
   x2="51.942001"
   y2="119.623"
   id="line32546" />
	<g
   id="XMLID_145_">
		<path
   id="XMLID_159_"
   fill="#ffffff"
   stroke="#0e3c54"
   stroke-width="2"
   stroke-linejoin="round"
   stroke-miterlimit="10"
   d="m 234.143,50.127 h -43.687 c -1.506,0 -2.726,-1.221 -2.726,-2.727 V 20.053 c 0,-1.506 1.22,-2.726 2.726,-2.726 h 43.687 c 1.505,0 2.725,1.22 2.725,2.726 V 47.4 c -0.001,1.506 -1.221,2.727 -2.725,2.727" />
		
			<rect
   id="XMLID_158_"
   x="187.73"
   y="24.951"
   fill="#7abeeb"
   stroke="#000000"
   stroke-width="2"
   stroke-miterlimit="10"
   width="49.137001"
   height="6.7779999" />
		
			<rect
   id="XMLID_157_"
   x="218.229"
   y="36.570999"
   fill="#ffffff"
   stroke="#0e3c54"
   stroke-width="2"
   stroke-linejoin="round"
   stroke-miterlimit="10"
   width="13.556"
   height="4.2360001" />
	</g>
	<path
   id="XMLID_144_"
   fill="#ffffff"
   stroke="#0e3c54"
   stroke-width="2"
   stroke-linejoin="round"
   stroke-miterlimit="10"
   d="m 145.18,214.873 h -43.688 c -1.506,0 -2.725,-1.22 -2.725,-2.725 V 184.8 c 0,-1.506 1.219,-2.727 2.725,-2.727 h 43.688 c 1.506,0 2.725,1.221 2.725,2.727 v 27.349 c -0.001,1.504 -1.219,2.724 -2.725,2.724" />
	<path
   id="XMLID_141_"
   fill="#7abeeb"
   stroke="#000000"
   stroke-width="2"
   stroke-miterlimit="10"
   d="m 137.043,193.755 c 0,2.809 -2.275,5.083 -5.082,5.083 -2.811,0 -5.084,-2.274 -5.084,-5.083 0,-2.807 2.273,-5.082 5.084,-5.082 2.807,0 5.082,2.275 5.082,5.082" />
	<path
   id="XMLID_138_"
   fill="#7abeeb"
   stroke="#000000"
   stroke-width="2"
   stroke-miterlimit="10"
   d="m 142.975,193.755 c 0,2.809 -2.276,5.083 -5.084,5.083 -2.809,0 -5.084,-2.274 -5.084,-5.083 0,-2.807 2.275,-5.082 5.084,-5.082 2.807,0 5.084,2.275 5.084,5.082" />
	
		<rect
   id="XMLID_137_"
   x="103.004"
   y="203.677"
   fill="#ffffff"
   stroke="#0e3c54"
   stroke-width="2"
   stroke-linejoin="round"
   stroke-miterlimit="10"
   width="7.625"
   height="4.4299998" />
	
		<rect
   id="XMLID_135_"
   x="114.017"
   y="203.677"
   fill="#ffffff"
   stroke="#0e3c54"
   stroke-width="2"
   stroke-linejoin="round"
   stroke-miterlimit="10"
   width="7.6259999"
   height="4.4299998" />
	
		<rect
   id="XMLID_126_"
   x="125.03"
   y="203.677"
   fill="#ffffff"
   stroke="#0e3c54"
   stroke-width="2"
   stroke-linejoin="round"
   stroke-miterlimit="10"
   width="7.6259999"
   height="4.4299998" />
	
		<rect
   id="XMLID_125_"
   x="136.04401"
   y="203.677"
   fill="#ffffff"
   stroke="#0e3c54"
   stroke-width="2"
   stroke-linejoin="round"
   stroke-miterlimit="10"
   width="7.625"
   height="4.4299998" />
	<g
   id="g32565">
		<path
   fill="#231f20"
   d="m 282.419,142.47 v -1.272 c -0.889,-0.026 -1.75,-0.278 -2.254,-0.557 l 0.397,-1.552 c 0.557,0.305 1.34,0.583 2.201,0.583 0.756,0 1.286,-0.305 1.286,-0.822 0,-0.504 -0.438,-0.821 -1.419,-1.153 -1.419,-0.478 -2.387,-1.141 -2.387,-2.427 0,-1.18 0.822,-2.095 2.241,-2.36 v -1.259 h 1.3 v 1.166 c 0.888,0.027 1.484,0.226 1.936,0.438 l -0.397,1.499 c -0.332,-0.159 -0.955,-0.464 -1.91,-0.464 -0.861,0 -1.14,0.384 -1.14,0.756 0,0.424 0.464,0.716 1.591,1.127 1.591,0.557 2.215,1.286 2.215,2.492 0,1.181 -0.822,2.175 -2.36,2.44 v 1.365 z"
   id="path32559" />
		<path
   fill="#231f20"
   d="m 291.1,142.47 v -1.272 c -0.889,-0.026 -1.75,-0.278 -2.254,-0.557 l 0.397,-1.552 c 0.557,0.305 1.34,0.583 2.201,0.583 0.756,0 1.286,-0.305 1.286,-0.822 0,-0.504 -0.438,-0.821 -1.419,-1.153 -1.419,-0.478 -2.387,-1.141 -2.387,-2.427 0,-1.18 0.822,-2.095 2.241,-2.36 v -1.259 h 1.3 v 1.166 c 0.888,0.027 1.484,0.226 1.936,0.438 l -0.397,1.499 c -0.332,-0.159 -0.955,-0.464 -1.91,-0.464 -0.861,0 -1.14,0.384 -1.14,0.756 0,0.424 0.464,0.716 1.591,1.127 1.591,0.557 2.215,1.286 2.215,2.492 0,1.181 -0.822,2.175 -2.36,2.44 v 1.365 z"
   id="path32561" />
		<path
   fill="#231f20"
   d="m 299.779,142.47 v -1.272 c -0.889,-0.026 -1.75,-0.278 -2.254,-0.557 l 0.397,-1.552 c 0.557,0.305 1.34,0.583 2.201,0.583 0.756,0 1.286,-0.305 1.286,-0.822 0,-0.504 -0.438,-0.821 -1.419,-1.153 -1.419,-0.478 -2.387,-1.141 -2.387,-2.427 0,-1.18 0.822,-2.095 2.241,-2.36 v -1.259 h 1.3 v 1.166 c 0.888,0.027 1.484,0.226 1.936,0.438 l -0.397,1.499 c -0.332,-0.159 -0.955,-0.464 -1.91,-0.464 -0.861,0 -1.14,0.384 -1.14,0.756 0,0.424 0.464,0.716 1.591,1.127 1.591,0.557 2.215,1.286 2.215,2.492 0,1.181 -0.822,2.175 -2.36,2.44 v 1.365 z"
   id="path32563" />
	</g>
	<g
   id="g32573">
		<path
   fill="#231f20"
   d="m 32.477,142.47 v -1.272 c -0.889,-0.026 -1.75,-0.278 -2.254,-0.557 l 0.397,-1.552 c 0.557,0.305 1.34,0.583 2.201,0.583 0.756,0 1.286,-0.305 1.286,-0.822 0,-0.504 -0.438,-0.821 -1.419,-1.153 -1.419,-0.478 -2.387,-1.141 -2.387,-2.427 0,-1.18 0.822,-2.095 2.241,-2.36 v -1.259 h 1.3 v 1.166 c 0.888,0.027 1.484,0.226 1.936,0.438 l -0.397,1.499 c -0.332,-0.159 -0.955,-0.464 -1.91,-0.464 -0.861,0 -1.14,0.384 -1.14,0.756 0,0.424 0.464,0.716 1.591,1.127 1.591,0.557 2.215,1.286 2.215,2.492 0,1.181 -0.822,2.175 -2.36,2.44 v 1.365 z"
   id="path32567" />
		<path
   fill="#231f20"
   d="m 41.157,142.47 v -1.272 c -0.889,-0.026 -1.75,-0.278 -2.254,-0.557 l 0.397,-1.552 c 0.557,0.305 1.34,0.583 2.201,0.583 0.756,0 1.286,-0.305 1.286,-0.822 0,-0.504 -0.438,-0.821 -1.419,-1.153 -1.419,-0.478 -2.387,-1.141 -2.387,-2.427 0,-1.18 0.822,-2.095 2.241,-2.36 v -1.259 h 1.3 v 1.166 c 0.888,0.027 1.484,0.226 1.936,0.438 l -0.397,1.499 c -0.332,-0.159 -0.955,-0.464 -1.91,-0.464 -0.861,0 -1.14,0.384 -1.14,0.756 0,0.424 0.464,0.716 1.591,1.127 1.591,0.557 2.215,1.286 2.215,2.492 0,1.181 -0.822,2.175 -2.36,2.44 v 1.365 z"
   id="path32569" />
		<path
   fill="#231f20"
   d="m 49.837,142.47 v -1.272 c -0.889,-0.026 -1.75,-0.278 -2.254,-0.557 l 0.397,-1.552 c 0.557,0.305 1.34,0.583 2.201,0.583 0.756,0 1.286,-0.305 1.286,-0.822 0,-0.504 -0.438,-0.821 -1.419,-1.153 -1.419,-0.478 -2.387,-1.141 -2.387,-2.427 0,-1.18 0.822,-2.095 2.241,-2.36 v -1.259 h 1.3 v 1.166 c 0.888,0.027 1.484,0.226 1.936,0.438 l -0.397,1.499 c -0.332,-0.159 -0.955,-0.464 -1.91,-0.464 -0.861,0 -1.14,0.384 -1.14,0.756 0,0.424 0.464,0.716 1.591,1.127 1.591,0.557 2.215,1.286 2.215,2.492 0,1.181 -0.822,2.175 -2.36,2.44 v 1.365 z"
   id="path32571" />
	</g>
	<path
   fill="none"
   stroke="#0e3c54"
   stroke-width="2"
   stroke-miterlimit="10"
   stroke-dasharray="2"
   d="m 167.993,173.794 c -30.484,0 -55.198,-24.714 -55.198,-55.199 0,-27.525 20.149,-50.347 46.503,-54.516"
   id="path32575" />
	<path
   fill="none"
   stroke="#0e3c54"
   stroke-width="2"
   stroke-miterlimit="10"
   stroke-dasharray="2"
   d="m 167.993,63.397 c 30.484,0 55.198,24.713 55.198,55.197 0,27.24 -19.732,49.873 -45.684,54.381"
   id="path32577" />
	<circle
   fill="#ffffff"
   stroke="#1d1d1b"
   stroke-width="2"
   stroke-miterlimit="10"
   cx="244.778"
   cy="184.681"
   r="30.896999"
   id="circle32579" />
	<circle
   fill="#ffffff"
   stroke="#1d1d1b"
   stroke-width="2"
   stroke-miterlimit="10"
   cx="96.781998"
   cy="44.712002"
   r="30.896999"
   id="circle32581" />
	<g
   id="g32605">
		<g
   id="g32585">
			<path
   fill="#ffffff"
   stroke="#1d1d1b"
   stroke-width="2"
   stroke-miterlimit="10"
   d="m 257.62,180.48 h -26.28 c -2.938,0 -5.317,2.378 -5.317,5.314 v 10.336 c 0,2.932 2.38,5.314 5.317,5.314 h 26.28 c 2.932,0 5.312,-2.383 5.312,-5.314 v -10.336 c 10e-4,-2.936 -2.38,-5.314 -5.312,-5.314 z m -24.467,16.311 c 0,1.433 -2.775,1.433 -2.775,0 0,-3.172 0,-6.349 0,-9.521 0,-1.425 2.775,-1.425 2.775,0 0,3.172 0,6.349 0,9.521 z m 8.153,0 c 0,1.433 -2.777,1.433 -2.777,0 0,-3.172 0,-6.349 0,-9.521 0,-1.425 2.777,-1.425 2.777,0 0,3.172 0,6.349 0,9.521 z m 8.154,0 c 0,1.433 -2.779,1.433 -2.779,0 0,-3.172 0,-6.349 0,-9.521 0,-1.425 2.779,-1.425 2.779,0 0,3.172 0,6.349 0,9.521 z m 8.154,0 c 0,1.433 -2.781,1.433 -2.781,0 0,-3.172 0,-6.349 0,-9.521 0,-1.425 2.781,-1.425 2.781,0 0,3.172 0,6.349 0,9.521 z"
   id="path32583" />
		</g>
		<path
   fill="#7abeeb"
   stroke="#000000"
   stroke-width="2"
   stroke-miterlimit="10"
   d="m 264.999,182.26 c 0,0.891 -0.793,1.616 -1.77,1.616 h -37.502 c -0.977,0 -1.77,-0.726 -1.77,-1.616 v -2.967 c 0,-0.894 0.793,-1.617 1.77,-1.617 h 37.502 c 0.977,0 1.77,0.724 1.77,1.617 z"
   id="path32587" />
		<g
   id="g32595">
			
				<line
   fill="#ffffff"
   stroke="#1d1d1b"
   stroke-width="2"
   stroke-miterlimit="10"
   x1="231.34"
   y1="179.00301"
   x2="241.825"
   y2="165.783"
   id="line32589" />
			<g
   id="g32593">
				<path
   fill="#ffffff"
   stroke="#1d1d1b"
   stroke-width="2"
   stroke-miterlimit="10"
   d="m 232.59,180.254 c 3.501,-4.404 6.993,-8.812 10.484,-13.219 1.401,-1.77 -1.085,-4.298 -2.504,-2.502 -3.493,4.402 -6.985,8.806 -10.479,13.219 -1.404,1.769 1.086,4.292 2.499,2.502 z"
   id="path32591" />
			</g>
		</g>
		<g
   id="g32603">
			
				<line
   fill="#ffffff"
   stroke="#1d1d1b"
   stroke-width="2"
   stroke-miterlimit="10"
   x1="257.61401"
   y1="179.00301"
   x2="247.132"
   y2="165.783"
   id="line32597" />
			<g
   id="g32601">
				<path
   fill="#ffffff"
   stroke="#1d1d1b"
   stroke-width="2"
   stroke-miterlimit="10"
   d="m 258.869,177.752 c -3.496,-4.413 -6.988,-8.816 -10.483,-13.219 -1.415,-1.796 -3.91,0.732 -2.506,2.502 3.496,4.406 6.992,8.814 10.485,13.219 1.416,1.79 3.907,-0.733 2.504,-2.502 z"
   id="path32599" />
			</g>
		</g>
	</g>
	<path
   fill="#ffffff"
   stroke="#0e3c54"
   stroke-width="2"
   stroke-miterlimit="10"
   d="m 306.863,70.919 c 0,1.602 -1.297,2.899 -2.898,2.899 h -51.01 c -1.602,0 -2.899,-1.298 -2.899,-2.899 v -13.53 c 0,-1.601 1.298,-2.899 2.899,-2.899 h 51.01 c 1.602,0 2.898,1.299 2.898,2.899 z"
   id="path32607" />
	<g
   id="g32615">
		<path
   fill="#0e3c54"
   d="m 267.225,68.52 v -8.488 h 3.049 c 1.092,0 1.922,0.2 2.492,0.601 0.568,0.4 0.854,0.981 0.854,1.743 0,0.439 -0.102,0.814 -0.303,1.125 -0.203,0.312 -0.5,0.541 -0.893,0.688 0.443,0.116 0.783,0.334 1.021,0.652 0.237,0.319 0.355,0.708 0.355,1.166 0,0.832 -0.263,1.457 -0.79,1.874 -0.526,0.418 -1.307,0.631 -2.34,0.639 z m 2.046,-4.95 h 1.067 c 0.446,-0.004 0.766,-0.086 0.955,-0.246 0.191,-0.159 0.286,-0.396 0.286,-0.707 0,-0.358 -0.103,-0.617 -0.31,-0.774 -0.205,-0.158 -0.538,-0.237 -0.996,-0.237 h -1.003 v 1.964 z m 0,1.341 v 2.034 h 1.341 c 0.369,0 0.652,-0.084 0.852,-0.253 0.197,-0.17 0.297,-0.407 0.297,-0.715 0,-0.707 -0.352,-1.062 -1.055,-1.066 z"
   id="path32609" />
		<path
   fill="#0e3c54"
   d="m 281.582,60.031 v 5.556 c 0,0.63 -0.134,1.175 -0.402,1.636 -0.268,0.46 -0.652,0.812 -1.154,1.052 -0.501,0.241 -1.094,0.361 -1.777,0.361 -1.034,0 -1.848,-0.268 -2.443,-0.804 -0.594,-0.537 -0.897,-1.271 -0.908,-2.204 v -5.597 h 2.057 v 5.638 c 0.023,0.929 0.455,1.394 1.295,1.394 0.424,0 0.744,-0.117 0.961,-0.351 0.219,-0.232 0.327,-0.611 0.327,-1.137 v -5.544 z"
   id="path32611" />
		<path
   fill="#0e3c54"
   d="m 285.967,63.716 1.562,-3.685 h 2.21 l -2.734,5.439 v 3.049 H 284.93 V 65.47 l -2.729,-5.439 h 2.198 z"
   id="path32613" />
	</g>
	<path
   fill="#ffffff"
   stroke="#0e3c54"
   stroke-width="2"
   stroke-miterlimit="10"
   d="m 85.591,179.158 c 0,1.602 -1.298,2.899 -2.9,2.899 H 31.683 c -1.602,0 -2.9,-1.298 -2.9,-2.899 v -13.53 c 0,-1.601 1.299,-2.899 2.9,-2.899 H 82.69 c 1.603,0 2.9,1.299 2.9,2.899 v 13.53 z"
   id="path32617" />
	<g
   id="g32627">
		<path
   fill="#0e3c54"
   d="m 46.329,174.503 c 0,-0.3 -0.106,-0.532 -0.317,-0.7 -0.212,-0.167 -0.584,-0.34 -1.117,-0.519 -0.532,-0.179 -0.967,-0.352 -1.306,-0.519 -1.1,-0.54 -1.65,-1.282 -1.65,-2.227 0,-0.471 0.137,-0.886 0.411,-1.245 0.274,-0.359 0.662,-0.639 1.163,-0.839 0.501,-0.2 1.065,-0.301 1.69,-0.301 0.61,0 1.157,0.109 1.641,0.326 0.484,0.218 0.86,0.528 1.128,0.931 0.268,0.401 0.402,0.861 0.402,1.378 h -2.041 c 0,-0.346 -0.106,-0.613 -0.317,-0.805 -0.212,-0.189 -0.499,-0.285 -0.86,-0.285 -0.366,0 -0.654,0.081 -0.866,0.242 -0.212,0.161 -0.318,0.366 -0.318,0.614 0,0.218 0.117,0.415 0.35,0.592 0.233,0.178 0.644,0.36 1.23,0.549 0.586,0.188 1.068,0.392 1.445,0.608 0.917,0.529 1.376,1.258 1.376,2.187 0,0.742 -0.28,1.325 -0.839,1.749 -0.559,0.424 -1.327,0.635 -2.303,0.635 -0.688,0 -1.311,-0.123 -1.869,-0.37 -0.558,-0.246 -0.977,-0.585 -1.259,-1.014 -0.282,-0.43 -0.423,-0.925 -0.423,-1.484 h 2.052 c 0,0.455 0.117,0.79 0.353,1.006 0.235,0.216 0.617,0.323 1.146,0.323 0.338,0 0.605,-0.072 0.801,-0.218 0.198,-0.145 0.297,-0.35 0.297,-0.614 z"
   id="path32619" />
		<path
   fill="#0e3c54"
   d="m 56.519,176.759 h -2.035 v -3.544 H 51.47 v 3.544 h -2.046 v -8.488 h 2.046 v 3.37 h 3.014 v -3.37 h 2.035 z"
   id="path32621" />
		<path
   fill="#0e3c54"
   d="m 65.001,172.689 c 0,0.828 -0.154,1.561 -0.46,2.198 -0.307,0.638 -0.743,1.128 -1.309,1.472 -0.565,0.344 -1.209,0.516 -1.932,0.516 -0.723,0 -1.364,-0.166 -1.924,-0.498 -0.56,-0.332 -0.996,-0.808 -1.309,-1.426 -0.313,-0.617 -0.478,-1.327 -0.493,-2.127 v -0.479 c 0,-0.831 0.152,-1.565 0.458,-2.2 0.305,-0.636 0.742,-1.126 1.312,-1.473 0.569,-0.346 1.217,-0.519 1.944,-0.519 0.719,0 1.36,0.171 1.924,0.513 0.563,0.343 1.001,0.829 1.314,1.461 0.313,0.631 0.471,1.355 0.475,2.171 z m -2.081,-0.355 c 0,-0.843 -0.141,-1.483 -0.423,-1.921 -0.282,-0.437 -0.685,-0.655 -1.209,-0.655 -1.026,0 -1.568,0.77 -1.626,2.309 l -0.006,0.623 c 0,0.832 0.138,1.472 0.414,1.918 0.276,0.447 0.686,0.671 1.23,0.671 0.517,0 0.915,-0.22 1.195,-0.659 0.28,-0.438 0.422,-1.07 0.426,-1.895 v -0.391 z"
   id="path32623" />
		<path
   fill="#0e3c54"
   d="m 68.102,173.879 v 2.88 h -2.046 v -8.488 h 3.387 c 0.649,0 1.223,0.12 1.723,0.359 0.499,0.238 0.886,0.579 1.16,1.02 0.274,0.441 0.411,0.941 0.411,1.501 0,0.828 -0.296,1.49 -0.889,1.985 -0.593,0.495 -1.406,0.743 -2.44,0.743 z m 0,-1.58 h 1.341 c 0.396,0 0.698,-0.099 0.906,-0.297 0.208,-0.198 0.312,-0.479 0.312,-0.84 0,-0.396 -0.107,-0.713 -0.321,-0.95 -0.213,-0.236 -0.505,-0.357 -0.874,-0.361 h -1.364 z"
   id="path32625" />
	</g>
	<g
   id="g32633">
		
			<line
   fill="#ffffff"
   stroke="#0e3c54"
   stroke-width="2"
   stroke-miterlimit="10"
   x1="77.811996"
   y1="132.35201"
   x2="85.889999"
   y2="140.43201"
   id="line32629" />
		<path
   fill="#ffffff"
   stroke="#0e3c54"
   stroke-width="2"
   stroke-miterlimit="10"
   d="m 98.606,148.878 c 1.435,1.434 1.643,3.553 0.463,4.731 v 0 c -1.18,1.179 -3.299,0.973 -4.733,-0.463 l -9.61,-9.61 c -1.436,-1.436 -1.643,-3.553 -0.463,-4.733 v 0 c 1.179,-1.178 3.299,-0.972 4.732,0.463 z"
   id="path32631" />
	</g>
	<circle
   fill="#ffffff"
   stroke="#0e3c54"
   stroke-width="2"
   stroke-miterlimit="10"
   cx="70.644997"
   cy="126.577"
   r="14.217"
   id="circle32635" />
	<circle
   fill="#7abeeb"
   stroke="#000000"
   stroke-width="2"
   stroke-miterlimit="10"
   cx="70.646004"
   cy="126.577"
   r="9.5620003"
   id="circle32637" />
	<g
   id="g32839">
		<path
   fill="#ffffff"
   stroke="#1d1d1b"
   stroke-width="2"
   stroke-miterlimit="10"
   d="m 79.909,31.343 c 0.111,-0.137 0.225,-0.269 0.336,-0.403 -0.111,0.134 -0.224,0.266 -0.336,0.403 z"
   id="path32639" />
		<path
   fill="#ffffff"
   stroke="#1d1d1b"
   stroke-width="2"
   stroke-miterlimit="10"
   d="m 84.232,27.297 c 0.157,-0.108 0.313,-0.22 0.474,-0.324 -0.16,0.104 -0.316,0.215 -0.474,0.324 z"
   id="path32641" />
		<path
   fill="#ffffff"
   stroke="#1d1d1b"
   stroke-width="2"
   stroke-miterlimit="10"
   d="m 101.958,64.904 c -0.156,0.044 -0.312,0.087 -0.467,0.127 0.155,-0.04 0.311,-0.083 0.467,-0.127 z"
   id="path32643" />
		<path
   fill="#ffffff"
   stroke="#1d1d1b"
   stroke-width="2"
   stroke-miterlimit="10"
   d="m 102.938,64.607 c -0.158,0.053 -0.314,0.106 -0.473,0.155 0.159,-0.048 0.315,-0.102 0.473,-0.155 z"
   id="path32645" />
		<path
   fill="#ffffff"
   stroke="#1d1d1b"
   stroke-width="2"
   stroke-miterlimit="10"
   d="m 78.737,32.952 c 0.094,-0.146 0.191,-0.287 0.287,-0.428 -0.095,0.141 -0.193,0.282 -0.287,0.428 z"
   id="path32647" />
		<path
   fill="#ffffff"
   stroke="#1d1d1b"
   stroke-width="2"
   stroke-miterlimit="10"
   d="m 100.954,65.157 c -0.154,0.032 -0.308,0.067 -0.459,0.097 0.151,-0.029 0.305,-0.065 0.459,-0.097 z"
   id="path32649" />
		<path
   fill="#ffffff"
   stroke="#1d1d1b"
   stroke-width="2"
   stroke-miterlimit="10"
   d="m 79.304,32.132 c 0.105,-0.139 0.206,-0.278 0.314,-0.414 -0.108,0.136 -0.209,0.275 -0.314,0.414 z"
   id="path32651" />
		<path
   fill="#ffffff"
   stroke="#1d1d1b"
   stroke-width="2"
   stroke-miterlimit="10"
   d="m 83.438,27.884 c 0.145,-0.115 0.296,-0.232 0.447,-0.34 -0.151,0.107 -0.302,0.225 -0.447,0.34 z"
   id="path32653" />
		<path
   fill="#ffffff"
   stroke="#1d1d1b"
   stroke-width="2"
   stroke-miterlimit="10"
   d="m 82.669,28.507 c 0.141,-0.119 0.282,-0.239 0.425,-0.354 -0.143,0.115 -0.284,0.235 -0.425,0.354 z"
   id="path32655" />
		<path
   fill="#ffffff"
   stroke="#1d1d1b"
   stroke-width="2"
   stroke-miterlimit="10"
   d="m 104.833,63.883 c -0.159,0.07 -0.319,0.14 -0.481,0.206 0.162,-0.067 0.322,-0.136 0.481,-0.206 z"
   id="path32657" />
		<path
   fill="#ffffff"
   stroke="#1d1d1b"
   stroke-width="2"
   stroke-miterlimit="10"
   d="m 103.897,64.268 c -0.158,0.062 -0.318,0.121 -0.478,0.178 0.16,-0.057 0.32,-0.117 0.478,-0.178 z"
   id="path32659" />
		<path
   fill="#ffffff"
   stroke="#1d1d1b"
   stroke-width="2"
   stroke-miterlimit="10"
   d="m 81.931,29.165 c 0.133,-0.121 0.266,-0.246 0.404,-0.365 -0.139,0.119 -0.272,0.244 -0.404,0.365 z"
   id="path32661" />
		<path
   fill="#ffffff"
   stroke="#1d1d1b"
   stroke-width="2"
   stroke-miterlimit="10"
   d="m 81.226,29.861 c 0.125,-0.128 0.252,-0.258 0.377,-0.38 -0.125,0.123 -0.252,0.252 -0.377,0.38 z"
   id="path32663" />
		<path
   fill="#ffffff"
   stroke="#1d1d1b"
   stroke-width="2"
   stroke-miterlimit="10"
   d="m 80.55,30.586 c 0.12,-0.132 0.238,-0.263 0.357,-0.393 -0.119,0.13 -0.237,0.261 -0.357,0.393 z"
   id="path32665" />
		<path
   fill="#ffffff"
   stroke="#1d1d1b"
   stroke-width="2"
   stroke-miterlimit="10"
   d="m 75.666,40.384 c 0.028,-0.154 0.064,-0.305 0.101,-0.457 -0.037,0.152 -0.073,0.302 -0.101,0.457 z"
   id="path32667" />
		<path
   fill="#ffffff"
   stroke="#1d1d1b"
   stroke-width="2"
   stroke-miterlimit="10"
   d="m 75.894,39.376 c 0.039,-0.152 0.084,-0.301 0.125,-0.455 -0.041,0.154 -0.086,0.303 -0.125,0.455 z"
   id="path32669" />
		<path
   fill="#ffffff"
   stroke="#1d1d1b"
   stroke-width="2"
   stroke-miterlimit="10"
   d="m 97.755,65.612 c -0.116,0.008 -0.232,0.021 -0.348,0.023 0.115,-0.002 0.232,-0.015 0.348,-0.023 z"
   id="path32671" />
		<path
   fill="#ffffff"
   stroke="#1d1d1b"
   stroke-width="2"
   stroke-miterlimit="10"
   d="m 75.354,42.446 c 0.014,-0.145 0.035,-0.283 0.054,-0.424 -0.018,0.141 -0.04,0.28 -0.054,0.424 z"
   id="path32673" />
		<path
   fill="#ffffff"
   stroke="#1d1d1b"
   stroke-width="2"
   stroke-miterlimit="10"
   d="m 76.169,38.392 c 0.047,-0.153 0.098,-0.305 0.148,-0.458 -0.05,0.153 -0.101,0.304 -0.148,0.458 z"
   id="path32675" />
		<path
   fill="#ffffff"
   stroke="#1d1d1b"
   stroke-width="2"
   stroke-miterlimit="10"
   d="m 75.274,43.498 c 0.007,-0.117 0.018,-0.233 0.027,-0.351 -0.009,0.12 -0.02,0.234 -0.027,0.351 z"
   id="path32677" />
		<path
   fill="#ffffff"
   stroke="#1d1d1b"
   stroke-width="2"
   stroke-miterlimit="10"
   d="m 75.485,41.405 c 0.021,-0.15 0.049,-0.296 0.076,-0.445 -0.027,0.149 -0.055,0.295 -0.076,0.445 z"
   id="path32679" />
		<path
   fill="#ffffff"
   stroke="#1d1d1b"
   stroke-width="2"
   stroke-miterlimit="10"
   d="m 98.87,65.509 c -0.142,0.019 -0.278,0.037 -0.421,0.052 0.143,-0.015 0.28,-0.034 0.421,-0.052 z"
   id="path32681" />
		<path
   fill="#ffffff"
   stroke="#1d1d1b"
   stroke-width="2"
   stroke-miterlimit="10"
   d="m 77.265,35.563 c 0.07,-0.152 0.145,-0.301 0.219,-0.445 -0.075,0.145 -0.149,0.293 -0.219,0.445 z"
   id="path32683" />
		<path
   fill="#ffffff"
   stroke="#1d1d1b"
   stroke-width="2"
   stroke-miterlimit="10"
   d="m 99.927,65.356 c -0.147,0.026 -0.297,0.053 -0.445,0.076 0.148,-0.023 0.297,-0.049 0.445,-0.076 z"
   id="path32685" />
		<path
   fill="#ffffff"
   stroke="#1d1d1b"
   stroke-width="2"
   stroke-miterlimit="10"
   d="m 77.714,34.665 c 0.08,-0.147 0.16,-0.292 0.244,-0.44 -0.084,0.148 -0.164,0.293 -0.244,0.44 z"
   id="path32687" />
		<path
   fill="#ffffff"
   stroke="#1d1d1b"
   stroke-width="2"
   stroke-miterlimit="10"
   d="m 76.491,37.427 c 0.053,-0.154 0.112,-0.303 0.172,-0.453 -0.059,0.15 -0.119,0.298 -0.172,0.453 z"
   id="path32689" />
		<path
   fill="#ffffff"
   stroke="#1d1d1b"
   stroke-width="2"
   stroke-miterlimit="10"
   d="m 76.856,36.482 c 0.062,-0.151 0.131,-0.301 0.195,-0.451 -0.064,0.151 -0.133,0.3 -0.195,0.451 z"
   id="path32691" />
		<path
   fill="#ffffff"
   stroke="#1d1d1b"
   stroke-width="2"
   stroke-miterlimit="10"
   d="m 78.206,33.793 c 0.088,-0.146 0.176,-0.288 0.264,-0.432 -0.088,0.144 -0.176,0.286 -0.264,0.432 z"
   id="path32693" />
		<path
   fill="#ffffff"
   stroke="#1d1d1b"
   stroke-width="2"
   stroke-miterlimit="10"
   d="m 85.901,26.238 c 0.172,-0.099 0.347,-0.198 0.523,-0.294 -0.176,0.096 -0.351,0.196 -0.523,0.294 z"
   id="path32695" />
		<path
   fill="#ffffff"
   stroke="#1d1d1b"
   stroke-width="2"
   stroke-miterlimit="10"
   d="m 116.905,49.3 c -0.074,0.322 -0.156,0.641 -0.242,0.955 0.088,-0.315 0.168,-0.633 0.242,-0.955 z"
   id="path32697" />
		<path
   fill="#ffffff"
   stroke="#1d1d1b"
   stroke-width="2"
   stroke-miterlimit="10"
   d="m 90.386,24.328 c 0.252,-0.073 0.5,-0.147 0.754,-0.212 -0.254,0.065 -0.502,0.139 -0.754,0.212 z"
   id="path32699" />
		<path
   fill="#ffffff"
   stroke="#1d1d1b"
   stroke-width="2"
   stroke-miterlimit="10"
   d="m 107.493,62.48 c -0.165,0.099 -0.33,0.198 -0.493,0.296 0.163,-0.097 0.328,-0.197 0.493,-0.296 z"
   id="path32701" />
		<path
   fill="#ffffff"
   stroke="#1d1d1b"
   stroke-width="2"
   stroke-miterlimit="10"
   d="m 89.479,24.618 c 0.225,-0.08 0.449,-0.155 0.676,-0.226 -0.227,0.071 -0.452,0.146 -0.676,0.226 z"
   id="path32703" />
		<path
   fill="#ffffff"
   stroke="#1d1d1b"
   stroke-width="2"
   stroke-miterlimit="10"
   d="m 108.327,61.932 c -0.166,0.115 -0.333,0.225 -0.502,0.337 0.169,-0.113 0.336,-0.222 0.502,-0.337 z"
   id="path32705" />
		<path
   fill="#ffffff"
   stroke="#1d1d1b"
   stroke-width="2"
   stroke-miterlimit="10"
   d="m 117.366,46.312 c -0.027,0.34 -0.061,0.674 -0.105,1.005 0.045,-0.332 0.078,-0.666 0.105,-1.005 z"
   id="path32707" />
		<path
   fill="#ffffff"
   stroke="#1d1d1b"
   stroke-width="2"
   stroke-miterlimit="10"
   d="m 109.907,60.724 c -0.172,0.148 -0.352,0.289 -0.532,0.433 0.181,-0.144 0.36,-0.285 0.532,-0.433 z"
   id="path32709" />
		<path
   fill="#ffffff"
   stroke="#1d1d1b"
   stroke-width="2"
   stroke-miterlimit="10"
   d="m 117.255,43.332 c 0.039,-0.495 0.066,-0.997 0.066,-1.502 0,-10.028 -8.127,-18.157 -18.154,-18.157 -0.333,0 -0.664,0.012 -0.991,0.028 v 19.631 z"
   id="path32711" />
		<path
   fill="#ffffff"
   stroke="#1d1d1b"
   stroke-width="2"
   stroke-miterlimit="10"
   d="m 91.237,24.093 c 1.259,-0.312 2.56,-0.512 3.897,-0.588 -1.337,0.076 -2.638,0.276 -3.897,0.588 z"
   id="path32713" />
		<path
   fill="#ffffff"
   stroke="#1d1d1b"
   stroke-width="2"
   stroke-miterlimit="10"
   d="m 117.105,48.323 c -0.058,0.326 -0.124,0.646 -0.198,0.966 0.074,-0.32 0.141,-0.64 0.198,-0.966 z"
   id="path32715" />
		<path
   fill="#ffffff"
   stroke="#1d1d1b"
   stroke-width="2"
   stroke-miterlimit="10"
   d="m 109.134,61.346 c -0.17,0.13 -0.344,0.254 -0.516,0.378 0.172,-0.124 0.346,-0.248 0.516,-0.378 z"
   id="path32717" />
		<path
   fill="#ffffff"
   stroke="#1d1d1b"
   stroke-width="2"
   stroke-miterlimit="10"
   d="m 86.772,25.769 c 0.182,-0.093 0.366,-0.188 0.551,-0.277 -0.184,0.088 -0.369,0.184 -0.551,0.277 z"
   id="path32719" />
		<path
   fill="#ffffff"
   stroke="#1d1d1b"
   stroke-width="2"
   stroke-miterlimit="10"
   d="m 105.743,63.457 c -0.16,0.08 -0.32,0.154 -0.483,0.233 0.163,-0.079 0.323,-0.153 0.483,-0.233 z"
   id="path32721" />
		<path
   fill="#ffffff"
   stroke="#1d1d1b"
   stroke-width="2"
   stroke-miterlimit="10"
   d="m 110.752,59.978 c 2.782,-2.603 4.855,-5.945 5.911,-9.723 -1.055,3.777 -3.133,7.117 -5.911,9.723 z"
   id="path32723" />
		<path
   fill="#ffffff"
   stroke="#1d1d1b"
   stroke-width="2"
   stroke-miterlimit="10"
   d="m 110.653,60.069 c -0.182,0.168 -0.371,0.333 -0.562,0.499 0.191,-0.166 0.381,-0.331 0.562,-0.499 z"
   id="path32725" />
		<path
   fill="#ffffff"
   stroke="#1d1d1b"
   stroke-width="2"
   stroke-miterlimit="10"
   d="m 88.564,24.954 c 0.206,-0.081 0.413,-0.163 0.625,-0.238 -0.211,0.075 -0.418,0.157 -0.625,0.238 z"
   id="path32727" />
		<path
   fill="#ffffff"
   stroke="#1d1d1b"
   stroke-width="2"
   stroke-miterlimit="10"
   d="m 117.259,47.327 c -0.043,0.329 -0.094,0.658 -0.152,0.98 0.058,-0.323 0.109,-0.651 0.152,-0.98 z"
   id="path32729" />
		<path
   fill="#ffffff"
   stroke="#1d1d1b"
   stroke-width="2"
   stroke-miterlimit="10"
   d="m 87.66,25.34 c 0.194,-0.089 0.388,-0.176 0.587,-0.26 -0.199,0.084 -0.393,0.171 -0.587,0.26 z"
   id="path32731" />
		<path
   fill="#ffffff"
   stroke="#1d1d1b"
   stroke-width="2"
   stroke-miterlimit="10"
   d="m 85.053,26.749 c 0.167,-0.104 0.331,-0.211 0.499,-0.312 -0.168,0.101 -0.332,0.209 -0.499,0.312 z"
   id="path32733" />
		<path
   fill="#ffffff"
   stroke="#1d1d1b"
   stroke-width="2"
   stroke-miterlimit="10"
   d="m 106.632,62.989 c -0.163,0.088 -0.326,0.178 -0.488,0.263 0.162,-0.085 0.325,-0.175 0.488,-0.263 z"
   id="path32735" />
		<path
   fill="#ffffff"
   stroke="#1d1d1b"
   stroke-width="2"
   stroke-miterlimit="10"
   d="m 98.449,65.561 c -0.228,0.023 -0.462,0.037 -0.694,0.052 0.232,-0.015 0.467,-0.029 0.694,-0.052 z"
   id="path32737" />
		<path
   fill="#ffffff"
   stroke="#1d1d1b"
   stroke-width="2"
   stroke-miterlimit="10"
   d="m 110.752,59.978 c -0.034,0.029 -0.065,0.062 -0.099,0.092 0.034,-0.031 0.065,-0.063 0.099,-0.092 z"
   id="path32739" />
		<path
   fill="#ffffff"
   stroke="#1d1d1b"
   stroke-width="2"
   stroke-miterlimit="10"
   d="m 97.407,65.636 c -0.352,0.021 -0.705,0.028 -1.062,0.028 0.357,0 0.711,-0.008 1.062,-0.028 z"
   id="path32741" />
		<path
   fill="#ffffff"
   stroke="#1d1d1b"
   stroke-width="2"
   stroke-miterlimit="10"
   d="m 75.248,44.567 c 0,-0.359 0.011,-0.717 0.026,-1.069 -0.015,0.353 -0.026,0.71 -0.026,1.069 z"
   id="path32743" />
		<path
   fill="#ffffff"
   stroke="#1d1d1b"
   stroke-width="2"
   stroke-miterlimit="10"
   d="m 110.091,60.568 c -0.062,0.051 -0.119,0.104 -0.184,0.155 0.065,-0.05 0.121,-0.104 0.184,-0.155 z"
   id="path32745" />
		<path
   fill="#ffffff"
   stroke="#1d1d1b"
   stroke-width="2"
   stroke-miterlimit="10"
   d="m 107.825,62.269 c -0.11,0.07 -0.223,0.141 -0.332,0.212 0.11,-0.072 0.222,-0.142 0.332,-0.212 z"
   id="path32747" />
		<path
   fill="#ffffff"
   stroke="#1d1d1b"
   stroke-width="2"
   stroke-miterlimit="10"
   d="m 102.466,64.763 c -0.169,0.049 -0.34,0.096 -0.508,0.142 0.168,-0.047 0.339,-0.093 0.508,-0.142 z"
   id="path32749" />
		<path
   fill="#ffffff"
   stroke="#1d1d1b"
   stroke-width="2"
   stroke-miterlimit="10"
   d="m 106.144,63.252 c -0.135,0.067 -0.267,0.138 -0.4,0.205 0.133,-0.067 0.265,-0.138 0.4,-0.205 z"
   id="path32751" />
		<path
   fill="#ffffff"
   stroke="#1d1d1b"
   stroke-width="2"
   stroke-miterlimit="10"
   d="m 103.42,64.445 c -0.16,0.058 -0.32,0.112 -0.481,0.162 0.161,-0.049 0.321,-0.104 0.481,-0.162 z"
   id="path32753" />
		<path
   fill="#ffffff"
   stroke="#1d1d1b"
   stroke-width="2"
   stroke-miterlimit="10"
   d="m 104.352,64.089 c -0.15,0.062 -0.302,0.119 -0.454,0.179 0.152,-0.06 0.303,-0.118 0.454,-0.179 z"
   id="path32755" />
		<path
   fill="#ffffff"
   stroke="#1d1d1b"
   stroke-width="2"
   stroke-miterlimit="10"
   d="m 75.302,43.147 c 0.016,-0.233 0.028,-0.472 0.053,-0.701 -0.025,0.23 -0.038,0.468 -0.053,0.701 z"
   id="path32757" />
		<path
   fill="#ffffff"
   stroke="#1d1d1b"
   stroke-width="2"
   stroke-miterlimit="10"
   d="m 105.26,63.69 c -0.142,0.066 -0.284,0.131 -0.427,0.192 0.143,-0.061 0.285,-0.125 0.427,-0.192 z"
   id="path32759" />
		<path
   fill="#ffffff"
   stroke="#1d1d1b"
   stroke-width="2"
   stroke-miterlimit="10"
   d="m 99.481,65.433 c -0.203,0.03 -0.407,0.053 -0.611,0.076 0.204,-0.024 0.408,-0.046 0.611,-0.076 z"
   id="path32761" />
		<path
   fill="#ffffff"
   stroke="#1d1d1b"
   stroke-width="2"
   stroke-miterlimit="10"
   d="m 108.618,61.724 c -0.098,0.07 -0.193,0.14 -0.291,0.208 0.098,-0.069 0.194,-0.138 0.291,-0.208 z"
   id="path32763" />
		<path
   fill="#ffffff"
   stroke="#1d1d1b"
   stroke-width="2"
   stroke-miterlimit="10"
   d="m 100.495,65.254 c -0.189,0.038 -0.38,0.069 -0.568,0.103 0.188,-0.034 0.379,-0.065 0.568,-0.103 z"
   id="path32765" />
		<path
   fill="#ffffff"
   stroke="#1d1d1b"
   stroke-width="2"
   stroke-miterlimit="10"
   d="m 109.375,61.156 c -0.081,0.065 -0.161,0.128 -0.241,0.189 0.08,-0.061 0.16,-0.123 0.241,-0.189 z"
   id="path32767" />
		<path
   fill="#ffffff"
   stroke="#1d1d1b"
   stroke-width="2"
   stroke-miterlimit="10"
   d="m 101.491,65.031 c -0.179,0.046 -0.357,0.083 -0.537,0.126 0.18,-0.043 0.358,-0.08 0.537,-0.126 z"
   id="path32769" />
		<path
   fill="#ffffff"
   stroke="#1d1d1b"
   stroke-width="2"
   stroke-miterlimit="10"
   d="m 107,62.776 c -0.122,0.071 -0.245,0.143 -0.368,0.213 0.123,-0.07 0.246,-0.141 0.368,-0.213 z"
   id="path32771" />
		<path
   fill="#ffffff"
   stroke="#1d1d1b"
   stroke-width="2"
   stroke-miterlimit="10"
   d="m 88.247,25.08 c 0.104,-0.041 0.211,-0.083 0.317,-0.126 -0.106,0.043 -0.213,0.085 -0.317,0.126 z"
   id="path32773" />
		<path
   fill="#ffffff"
   stroke="#1d1d1b"
   stroke-width="2"
   stroke-miterlimit="10"
   d="m 86.425,25.944 c 0.115,-0.061 0.229,-0.116 0.348,-0.176 -0.119,0.06 -0.233,0.116 -0.348,0.176 z"
   id="path32775" />
		<path
   fill="#ffffff"
   stroke="#1d1d1b"
   stroke-width="2"
   stroke-miterlimit="10"
   d="m 87.323,25.491 c 0.109,-0.053 0.225,-0.1 0.337,-0.151 -0.112,0.052 -0.227,0.098 -0.337,0.151 z"
   id="path32777" />
		<path
   fill="#ffffff"
   stroke="#1d1d1b"
   stroke-width="2"
   stroke-miterlimit="10"
   d="m 89.189,24.716 c 0.096,-0.034 0.193,-0.064 0.289,-0.098 -0.095,0.033 -0.193,0.064 -0.289,0.098 z"
   id="path32779" />
		<path
   fill="#ffffff"
   stroke="#1d1d1b"
   stroke-width="2"
   stroke-miterlimit="10"
   d="m 84.706,26.973 c 0.113,-0.078 0.231,-0.149 0.347,-0.224 -0.115,0.074 -0.234,0.146 -0.347,0.224 z"
   id="path32781" />
		<path
   fill="#ffffff"
   stroke="#1d1d1b"
   stroke-width="2"
   stroke-miterlimit="10"
   d="M 83.886,27.544 C 84,27.46 84.116,27.38 84.233,27.297 84.116,27.38 84,27.46 83.886,27.544 Z"
   id="path32783" />
		<path
   fill="#ffffff"
   stroke="#1d1d1b"
   stroke-width="2"
   stroke-miterlimit="10"
   d="m 90.154,24.393 c 0.078,-0.023 0.155,-0.042 0.231,-0.064 -0.075,0.022 -0.153,0.04 -0.231,0.064 z"
   id="path32785" />
		<path
   fill="#ffffff"
   stroke="#1d1d1b"
   stroke-width="2"
   stroke-miterlimit="10"
   d="m 85.552,26.438 c 0.117,-0.066 0.232,-0.132 0.35,-0.199 -0.118,0.067 -0.233,0.132 -0.35,0.199 z"
   id="path32787" />
		<path
   fill="#ffffff"
   stroke="#1d1d1b"
   stroke-width="2"
   stroke-miterlimit="10"
   d="m 95.196,23.501 c -0.022,0 -0.043,0.004 -0.062,0.004 0.019,0 0.04,-0.004 0.062,-0.004 z"
   id="path32789" />
		<path
   fill="#ffffff"
   stroke="#1d1d1b"
   stroke-width="2"
   stroke-miterlimit="10"
   d="m 116.907,49.289 c 0,0.005 -0.002,0.008 -0.002,0.008 0,0 0.002,-0.003 0.002,-0.008 z"
   id="path32791" />
		<path
   fill="#ffffff"
   stroke="#1d1d1b"
   stroke-width="2"
   stroke-miterlimit="10"
   d="m 117.106,48.308 c 0,0.006 0,0.013 0,0.013 0,0 0,-0.008 0,-0.013 z"
   id="path32793" />
		<path
   fill="#ffffff"
   stroke="#1d1d1b"
   stroke-width="2"
   stroke-miterlimit="10"
   d="m 91.14,24.116 c 0.032,-0.006 0.064,-0.014 0.098,-0.023 -0.034,0.01 -0.066,0.017 -0.098,0.023 z"
   id="path32795" />
		<path
   fill="#ffffff"
   stroke="#1d1d1b"
   stroke-width="2"
   stroke-miterlimit="10"
   d="M 116.663,50.255 Z"
   id="path32797" />
		<path
   fill="#ffffff"
   stroke="#1d1d1b"
   stroke-width="2"
   stroke-miterlimit="10"
   d="m 83.094,28.153 c 0.113,-0.092 0.229,-0.179 0.345,-0.27 -0.116,0.092 -0.232,0.179 -0.345,0.27 z"
   id="path32799" />
		<polygon
   fill="#ffffff"
   stroke="#1d1d1b"
   stroke-width="2"
   stroke-miterlimit="10"
   points=""
   id="polygon32801" />
		<path
   fill="#ffffff"
   stroke="#1d1d1b"
   stroke-width="2"
   stroke-miterlimit="10"
   d="m 117.261,47.316 c 0,0 0,0.005 -0.002,0.011 0.002,-0.006 0.002,-0.007 0.002,-0.011 z"
   id="path32803" />
		<path
   fill="#ffffff"
   stroke="#1d1d1b"
   stroke-width="2"
   stroke-miterlimit="10"
   d="m 76.663,36.974 c 0.064,-0.168 0.124,-0.331 0.193,-0.491 -0.069,0.16 -0.128,0.323 -0.193,0.491 z"
   id="path32805" />
		<path
   fill="#ffffff"
   stroke="#1d1d1b"
   stroke-width="2"
   stroke-miterlimit="10"
   d="m 77.483,35.118 c 0.075,-0.154 0.152,-0.305 0.23,-0.453 -0.077,0.148 -0.154,0.299 -0.23,0.453 z"
   id="path32807" />
		<path
   fill="#ffffff"
   stroke="#1d1d1b"
   stroke-width="2"
   stroke-miterlimit="10"
   d="m 75.408,42.022 c 0.021,-0.206 0.046,-0.415 0.077,-0.617 -0.031,0.202 -0.056,0.411 -0.077,0.617 z"
   id="path32809" />
		<path
   fill="#ffffff"
   stroke="#1d1d1b"
   stroke-width="2"
   stroke-miterlimit="10"
   d="m 77.052,36.031 c 0.068,-0.155 0.14,-0.314 0.213,-0.468 -0.074,0.154 -0.145,0.313 -0.213,0.468 z"
   id="path32811" />
		<path
   fill="#ffffff"
   stroke="#1d1d1b"
   stroke-width="2"
   stroke-miterlimit="10"
   d="m 76.317,37.934 c 0.056,-0.17 0.111,-0.34 0.174,-0.507 -0.062,0.167 -0.118,0.337 -0.174,0.507 z"
   id="path32813" />
		<path
   fill="#ffffff"
   stroke="#1d1d1b"
   stroke-width="2"
   stroke-miterlimit="10"
   d="m 75.562,40.96 c 0.033,-0.193 0.064,-0.387 0.104,-0.576 -0.04,0.189 -0.071,0.383 -0.104,0.576 z"
   id="path32815" />
		<path
   fill="#ffffff"
   stroke="#1d1d1b"
   stroke-width="2"
   stroke-miterlimit="10"
   d="m 76.019,38.921 c 0.048,-0.178 0.097,-0.354 0.15,-0.529 -0.054,0.175 -0.103,0.351 -0.15,0.529 z"
   id="path32817" />
		<path
   fill="#ffffff"
   stroke="#1d1d1b"
   stroke-width="2"
   stroke-miterlimit="10"
   d="m 75.767,39.927 c 0.039,-0.186 0.08,-0.367 0.127,-0.551 -0.047,0.184 -0.088,0.365 -0.127,0.551 z"
   id="path32819" />
		<path
   fill="#ffffff"
   stroke="#1d1d1b"
   stroke-width="2"
   stroke-miterlimit="10"
   d="m 82.335,28.8 c 0.109,-0.1 0.222,-0.196 0.334,-0.293 -0.112,0.097 -0.225,0.193 -0.334,0.293 z"
   id="path32821" />
		<path
   fill="#ffffff"
   stroke="#1d1d1b"
   stroke-width="2"
   stroke-miterlimit="10"
   d="m 80.907,30.193 c 0.105,-0.112 0.209,-0.224 0.318,-0.332 -0.109,0.109 -0.212,0.22 -0.318,0.332 z"
   id="path32823" />
		<path
   fill="#ffffff"
   stroke="#1d1d1b"
   stroke-width="2"
   stroke-miterlimit="10"
   d="m 81.603,29.481 c 0.107,-0.107 0.219,-0.209 0.328,-0.316 -0.11,0.107 -0.221,0.209 -0.328,0.316 z"
   id="path32825" />
		<path
   fill="#ffffff"
   stroke="#1d1d1b"
   stroke-width="2"
   stroke-miterlimit="10"
   d="m 80.245,30.939 c 0.1,-0.118 0.203,-0.236 0.305,-0.354 -0.102,0.118 -0.205,0.236 -0.305,0.354 z"
   id="path32827" />
		<path
   fill="#ffffff"
   stroke="#1d1d1b"
   stroke-width="2"
   stroke-miterlimit="10"
   d="m 79.618,31.718 c 0.096,-0.127 0.193,-0.251 0.291,-0.375 -0.097,0.124 -0.195,0.248 -0.291,0.375 z"
   id="path32829" />
		<path
   fill="#ffffff"
   stroke="#1d1d1b"
   stroke-width="2"
   stroke-miterlimit="10"
   d="m 78.47,33.361 c 0.09,-0.14 0.176,-0.274 0.268,-0.409 -0.092,0.135 -0.178,0.27 -0.268,0.409 z"
   id="path32831" />
		<path
   fill="#ffffff"
   stroke="#1d1d1b"
   stroke-width="2"
   stroke-miterlimit="10"
   d="m 79.024,32.524 c 0.094,-0.134 0.186,-0.263 0.279,-0.393 -0.093,0.131 -0.185,0.26 -0.279,0.393 z"
   id="path32833" />
		<path
   fill="#ffffff"
   stroke="#1d1d1b"
   stroke-width="2"
   stroke-miterlimit="10"
   d="m 77.958,34.225 c 0.083,-0.144 0.163,-0.289 0.248,-0.432 -0.085,0.143 -0.165,0.288 -0.248,0.432 z"
   id="path32835" />
		<path
   fill="#ffffff"
   stroke="#1d1d1b"
   stroke-width="2"
   stroke-miterlimit="10"
   d="m 116.905,49.3 c 0,0 0.002,-0.006 0.002,-0.011 0.074,-0.32 0.141,-0.64 0.198,-0.966 0,0 10e-4,-0.01 10e-4,-0.016 0.059,-0.322 0.109,-0.651 0.152,-0.98 0.002,-0.006 0.002,-0.007 0.002,-0.007 0.045,-0.335 0.078,-0.669 0.105,-1.009 v 0 h -22.17 v -22.81 c -0.022,0 -0.043,0.004 -0.062,0.004 -1.338,0.076 -2.639,0.276 -3.897,0.588 -0.033,0.01 -0.065,0.018 -0.098,0.023 -0.254,0.064 -0.502,0.139 -0.754,0.212 -0.076,0.022 -0.153,0.041 -0.231,0.064 -0.227,0.07 -0.451,0.146 -0.676,0.226 -0.096,0.033 -0.193,0.063 -0.289,0.098 -0.212,0.075 -0.419,0.157 -0.625,0.238 -0.106,0.043 -0.214,0.085 -0.317,0.126 -0.199,0.084 -0.393,0.171 -0.587,0.26 -0.112,0.052 -0.228,0.099 -0.337,0.151 -0.185,0.089 -0.369,0.185 -0.551,0.277 -0.118,0.06 -0.232,0.115 -0.348,0.176 -0.177,0.096 -0.352,0.195 -0.523,0.294 -0.117,0.067 -0.232,0.133 -0.35,0.199 -0.168,0.101 -0.332,0.208 -0.499,0.312 -0.115,0.074 -0.233,0.146 -0.347,0.224 -0.16,0.104 -0.316,0.216 -0.474,0.324 -0.114,0.083 -0.23,0.163 -0.344,0.247 -0.151,0.107 -0.303,0.225 -0.447,0.34 -0.115,0.091 -0.231,0.178 -0.345,0.27 -0.143,0.114 -0.284,0.234 -0.425,0.354 -0.112,0.097 -0.225,0.193 -0.334,0.293 -0.139,0.119 -0.271,0.244 -0.404,0.365 -0.109,0.107 -0.221,0.209 -0.328,0.316 -0.125,0.122 -0.252,0.252 -0.377,0.38 -0.109,0.108 -0.213,0.22 -0.318,0.332 -0.119,0.13 -0.237,0.261 -0.357,0.393 -0.102,0.117 -0.205,0.235 -0.305,0.354 -0.111,0.135 -0.225,0.267 -0.336,0.403 -0.098,0.124 -0.195,0.248 -0.291,0.375 -0.108,0.136 -0.209,0.275 -0.314,0.414 -0.094,0.13 -0.186,0.259 -0.279,0.393 -0.096,0.141 -0.193,0.281 -0.287,0.428 -0.092,0.135 -0.178,0.27 -0.268,0.409 -0.088,0.144 -0.176,0.286 -0.264,0.432 -0.085,0.143 -0.165,0.288 -0.248,0.432 -0.084,0.148 -0.164,0.293 -0.244,0.44 -0.078,0.148 -0.155,0.299 -0.23,0.453 -0.074,0.145 -0.148,0.293 -0.219,0.445 -0.073,0.153 -0.145,0.312 -0.213,0.468 -0.064,0.15 -0.134,0.3 -0.195,0.451 -0.069,0.16 -0.129,0.323 -0.193,0.491 -0.06,0.15 -0.119,0.299 -0.172,0.453 -0.062,0.167 -0.118,0.337 -0.174,0.507 -0.051,0.153 -0.102,0.305 -0.148,0.458 -0.054,0.176 -0.103,0.352 -0.15,0.529 -0.041,0.154 -0.086,0.303 -0.125,0.455 -0.047,0.184 -0.088,0.365 -0.127,0.551 -0.036,0.152 -0.072,0.303 -0.101,0.457 -0.04,0.189 -0.071,0.383 -0.104,0.576 -0.027,0.149 -0.056,0.295 -0.076,0.445 -0.031,0.202 -0.057,0.411 -0.077,0.617 -0.019,0.141 -0.04,0.279 -0.054,0.424 -0.024,0.229 -0.037,0.468 -0.053,0.701 -0.01,0.117 -0.021,0.233 -0.027,0.351 -0.016,0.353 -0.026,0.71 -0.026,1.069 0,11.652 9.446,21.097 21.098,21.097 0.356,0 0.71,-0.008 1.062,-0.028 0.115,-0.003 0.231,-0.016 0.348,-0.023 0.232,-0.015 0.467,-0.028 0.694,-0.052 0.143,-0.015 0.279,-0.033 0.421,-0.052 0.204,-0.023 0.408,-0.046 0.611,-0.076 0.148,-0.023 0.298,-0.05 0.445,-0.076 0.188,-0.033 0.379,-0.064 0.568,-0.103 0.151,-0.029 0.305,-0.064 0.459,-0.097 0.18,-0.043 0.358,-0.08 0.537,-0.126 0.154,-0.04 0.311,-0.083 0.467,-0.127 0.168,-0.046 0.339,-0.093 0.508,-0.142 0.158,-0.049 0.314,-0.103 0.473,-0.155 0.161,-0.05 0.321,-0.104 0.481,-0.162 0.159,-0.057 0.319,-0.116 0.478,-0.178 0.152,-0.06 0.304,-0.117 0.454,-0.179 0.162,-0.066 0.322,-0.136 0.481,-0.206 0.143,-0.062 0.285,-0.126 0.427,-0.192 0.163,-0.079 0.323,-0.153 0.483,-0.233 0.134,-0.067 0.266,-0.138 0.4,-0.205 0.162,-0.085 0.325,-0.175 0.488,-0.263 0.123,-0.07 0.246,-0.142 0.368,-0.213 0.163,-0.098 0.328,-0.197 0.493,-0.296 0.109,-0.071 0.222,-0.142 0.332,-0.212 0.169,-0.112 0.336,-0.222 0.502,-0.337 0.098,-0.068 0.193,-0.138 0.291,-0.208 0.172,-0.124 0.346,-0.248 0.516,-0.378 0.08,-0.062 0.16,-0.124 0.241,-0.189 0.181,-0.144 0.36,-0.284 0.532,-0.433 0.064,-0.051 0.121,-0.104 0.184,-0.155 0.191,-0.166 0.381,-0.331 0.562,-0.499 0.033,-0.03 0.064,-0.062 0.099,-0.092 2.778,-2.605 4.856,-5.945 5.911,-9.723 v 0 c 0.084,-0.315 0.166,-0.633 0.24,-0.955 z"
   id="path32837" />
	</g>
	<path
   fill="#7abeeb"
   stroke="#000000"
   stroke-width="2"
   stroke-miterlimit="10"
   d="m 110.472,44.181 c 0,7.604 -6.16,13.76 -13.762,13.76 -7.601,0 -13.761,-6.156 -13.761,-13.76 0,-7.6 6.16,-13.764 13.761,-13.764 7.602,0 13.762,6.164 13.762,13.764 z"
   id="path32841" />
</g><defs
   id="defs32855"><clipPath
     clipPathUnits="userSpaceOnUse"
     id="clipPath33219"><rect
       style="fill:#f5a10c;fill-opacity:0;stroke-width:0.540732;stroke-linejoin:round"
       id="rect33221"
       width="235.19"
       height="235.19"
       x="48.358067"
       y="-0.71114808" /></clipPath></defs><sodipodi:namedview
   id="namedview32853"
   pagecolor="#ffffff"
   bordercolor="#666666"
   borderopacity="1.0"
   inkscape:pageshadow="2"
   inkscape:pageopacity="0.0"
   inkscape:pagecheckerboard="0"
   showgrid="false"
   width="200px"
   inkscape:zoom="1.6535938"
   inkscape:cx="167.8163"
   inkscape:cy="117.32023"
   inkscape:window-width="1280"
   inkscape:window-height="772"
   inkscape:window-x="0"
   inkscape:window-y="0"
   inkscape:window-maximized="0"
   inkscape:current-layer="svg32851" />

<g
   id="text">
</g>
<g
   id="Layer_1">
</g>
<g
   id="Layer_3">
</g>
<g
   id="Layer_4">
</g>
<g
   id="Layer_5">
</g>
<g
   id="Layer_6">
</g>
<g
   id="Layer_7">
</g>
</svg>
