<svg xmlns="http://www.w3.org/2000/svg" xmlns:xlink="http://www.w3.org/1999/xlink" width="200" height="200" xmlns:v="https://vecta.io/nano"><style><![CDATA[.B{stroke-width:2}.C{stroke-miterlimit:10}.D{stroke:#0e3c54}.E{fill:#fff}.F{stroke-linejoin:round}.G{fill:none}.H{fill:#7abeeb}.I{stroke:#000}.J{stroke:#231f20}.K{stroke-dasharray:2}.L{stroke:#1d1d1b}.M{stroke-dasharray:1.6719, 1.6719}.N{stroke-dasharray:1.6721, 1.6721}]]></style><g transform="matrix(.8504 0 0 .8504 -41.122552 .302372)" clip-path="url(#A)"><path fill="#eaecf0" d="M0 0h335.986v235.19H0z"/><g class="G B C"><g class="F J"><path d="M256.585 107.843l-4.049-4.598-3.963 4.598"/><path d="M252.675 103.245v21.475m-7.227-29.771l-4.049-4.597-3.964 4.597"/></g><g class="D K"><path d="M241.591 90.352v22.166m0 3.464v22.86"/></g><g class="F J"><path d="M38.555 53.626l4.049 4.598 3.962-4.598"/><path d="M42.465 58.224V36.749m7.226 29.771l4.049 4.597 3.965-4.597"/></g><g class="D K"><path d="M53.549 71.117V48.951m0-3.465V22.627"/></g><g class="F J"><path d="M171.424 67.403l-4.598-4.049 4.598-3.962m-6.3 110.396l4.598 4.049-4.598 3.963"/></g></g><use xlink:href="#B" class="B C D E F"/><g stroke="#3d3437" class="B C"><use xlink:href="#B" class="G"/><g class="E"><path d="M313.102 146.155h-42.615c-.861 0-1.557-.696-1.557-1.556v-16.522h45.729V144.6c-.001.859-.697 1.555-1.557 1.555zm-11.206-58.072v11.281h11.283a.55.55 0 0 0 .385-.933l-10.736-10.736a.55.55 0 0 0-.932.388z"/></g></g><use xlink:href="#C" class="B C D E F"/><g stroke="#3d3437" class="B C"><use xlink:href="#C" class="G"/><g class="E"><path d="M63.071 146.155H20.455c-.86 0-1.557-.696-1.557-1.556v-16.522h45.729V144.6c0 .859-.695 1.555-1.556 1.555zM51.865 88.083v11.281h11.283a.55.55 0 0 0 .386-.933L52.799 87.695a.55.55 0 0 0-.934.388z"/></g></g><g class="F B C"><g stroke-linecap="round" class="D E"><path d="M188.538 209.965v-22.86m-5.6 34.29v-22.86M152.644 38.667V15.808m-5.6 34.289v-22.86M96.01 113.016v-22.86m-5.6 34.289v-22.859M60.581 210.9v-16.728m-5.6 25.094v-16.73M284.295 34.944V18.216m-5.6 25.094V26.58"/></g><g class="G J"><path d="M298.642 174.34l4.05-4.597 3.962 4.598"/><path d="M302.554 169.743l-.001 21.475m-7.824-23.624l-4.065-4.615-3.979 4.615"/></g></g><g class="D B C"><g class="K G"><path d="M290.878 163.195v22.166m.002 3.465v22.86m10.594-186.142v22.859M33.163 192.82v22.86"/></g><g class="E"><path d="M226.022 66.392v3.32m-4.936 1.326h3.319m1.617 4.805v-3.317m4.938-1.33l-3.318.001m31.642-50.154v3.32"/><path d="M254.348 25.689h3.319m1.617 4.805v-3.316m4.938-1.33l-3.319.001m-91.57 3.846v3.321m-4.937 1.326h3.32m1.617 4.804V35.83"/><path d="M174.271 34.5l-3.319.001M22.175 59.542v3.32m-4.937 1.326h3.32m1.617 4.805v-3.316"/><path d="M27.112 64.347l-3.318.001m57.088 144.011v3.321m-4.937 1.326h3.32m1.617 4.805v-3.317m4.937-1.33l-3.318.001m79.633-24.135v3.321m-4.937 1.326h3.32m1.617 4.804v-3.316m4.937-1.33l-3.318.001m42.9 13.321v3.321m-4.936 1.326h3.319m1.617 4.804v-3.316m4.938-1.33l-3.319.001"/></g></g><path d="M198.897 122.785c.324-1.294.324-2.905.324-4.517 0-1.617 0-2.904-.324-4.522l9.039-6.459c.969-.642 1.291-1.937.646-2.901l-8.714-14.848c-.646-.969-1.614-1.293-2.581-.969l-10.006 4.843c-2.26-1.937-4.844-3.23-7.745-4.515l-.971-10.977c0-.975-.967-1.939-1.937-1.939h-17.105c-.967 0-1.938.965-1.938 1.939l-1.291 11.293c-2.905.968-5.163 2.586-7.746 4.52l-10.005-4.52c-.967-.316-2.261 0-2.581.968l-8.716 14.851c-.646.969-.323 2.255.647 2.904l9.035 6.451c-.323 1.297-.323 2.912-.323 4.523s0 2.905.323 4.516l-9.035 6.459c-.971.643-1.294 1.936-.647 2.902l8.716 14.848c.644.969 1.614 1.289 2.581.969l10.005-4.516c2.26 1.934 4.841 3.221 7.746 4.516l.968 10.97c0 .968.971 1.937 1.938 1.937h17.105c.969 0 1.939-.969 1.939-1.937l.966-10.97c2.903-.969 5.165-2.582 7.746-4.516l10.005 4.516c.971.32 2.26 0 2.583-.969l8.716-14.848c.645-.967.321-2.26-.647-2.902zM167.914 139c-11.61 0-20.731-9.126-20.731-20.731 0-11.615 9.121-20.733 20.731-20.733s20.732 9.118 20.732 20.733c0 11.605-9.122 20.731-20.732 20.731z" class="B C H I"/><g class="E B C"><path stroke="#34525c" d="M190.022 117.343c.477 12.211-9.057 22.498-21.277 22.96-12.203.462-22.479-9.051-22.941-21.277-.462-12.216 9.065-22.485 21.285-22.954 12.21-.464 22.484 9.066 22.933 21.271z"/><path d="M168.624 136.726c-10.215.384-18.854-7.609-19.243-17.829-.383-10.23 7.622-18.858 17.83-19.241 10.226-.395 18.86 7.61 19.253 17.828.379 10.222-7.621 18.854-17.84 19.242z" class="D F"/><path stroke="#34525c" d="M168.378 125.19c-1.681 0-3.42-.936-5.216-2.805l-2.802 2.805c1.061 1.115 2.214 2.008 3.449 2.68.906.488 2.001.807 3.29.947v1.338h2.767v-1.424c1.365-.275 2.412-.684 3.139-1.223s1.32-1.268 1.785-2.188.693-1.926.693-3.01-.217-2.065-.649-2.939-1.054-1.619-1.856-2.244-2.3-1.377-4.48-2.262c-1.227-.491-2.044-.948-2.447-1.384-.412-.425-.619-.85-.619-1.279 0-.509.232-.958.703-1.347.461-.391 1.072-.587 1.818-.587 1.266 0 2.55.655 3.846 1.961l2.846-2.71c-.904-.891-1.689-1.523-2.354-1.899s-1.469-.674-2.424-.893v-1.624H167.1v1.441c-1.655.07-3.021.627-4.1 1.662s-1.622 2.273-1.622 3.721a5.25 5.25 0 0 0 .609 2.469c.411.772 1.027 1.471 1.852 2.088s2.406 1.457 4.746 2.514c1.149.516 1.926 1.029 2.33 1.529a2.73 2.73 0 0 1 .59 1.74c0 .787-.31 1.471-.924 2.05s-1.35.873-2.203.873z"/></g><g fill-rule="evenodd" class="H I B C"><path d="M314.08 197.989l8.796 8.799c.153.146.191.356.11.551a.49.49 0 0 1-.463.308h-4.297a.51.51 0 0 0-.505.507v9.714c0 .28-.229.504-.5.504h-6.996c-.278 0-.507-.224-.507-.504v-9.714c0-.278-.22-.507-.499-.507h-4.293a.49.49 0 0 1-.462-.308c-.082-.191-.046-.404.108-.551l8.795-8.799a.5.5 0 0 1 .358-.146c.143 0 .26.052.355.146zM22.598 40.881l-8.797-8.799c-.152-.146-.191-.356-.109-.551a.49.49 0 0 1 .463-.308h4.297a.51.51 0 0 0 .504-.507v-9.714c0-.28.229-.504.5-.504h6.996c.279 0 .508.224.508.504v9.714a.5.5 0 0 0 .498.507h4.293a.49.49 0 0 1 .463.308c.082.191.045.404-.109.551l-8.795 8.799c-.104.095-.211.146-.357.146s-.262-.051-.355-.146z"/></g><path d="M275.676 95.924h10.359v10.361h-10.359z" class="B C D G"/><path d="M275.676 111.3h10.359v10.36h-10.359z" class="B C H I"/><g class="D G B C"><path d="M291.048 104.797h9.839m-9.839 6.503h16.865m-16.865 8.323h9.839m-24.944-19.818l4.274 3.69 5.554-7.571"/></g><path d="M26.731 95.924H37.09v10.361H26.731z" class="B C H I"/><path d="M26.731 111.3H37.09v10.36H26.731z" class="E"/><g class="B C D G"><path d="M37.091 120.66v1h-1"/><path d="M34.419 121.66h-5.852" class="M"/><path d="M27.731 121.66h-1v-1"/><path d="M26.731 118.988v-5.852" class="N"/><path d="M26.731 112.3v-1h1"/><path d="M29.403 111.3h5.852" class="M"/><path d="M36.091 111.3h1v1"/><path d="M37.091 113.972v5.852" class="N"/><path d="M42.104 104.797h9.838m-9.838 6.503h16.865m-16.865 8.323h9.838"/></g><path d="M234.143 50.127h-43.687c-1.506 0-2.726-1.221-2.726-2.727V20.053c0-1.506 1.22-2.726 2.726-2.726h43.687c1.505 0 2.725 1.22 2.725 2.726V47.4a2.73 2.73 0 0 1-2.725 2.727" class="B C D E F"/><path d="M187.73 24.951h49.137v6.778H187.73z" class="B C H I"/><g class="D E F B C"><path d="M218.229 36.571h13.556v4.236h-13.556zM145.18 214.873h-43.688c-1.506 0-2.725-1.22-2.725-2.725V184.8c0-1.506 1.219-2.727 2.725-2.727h43.688c1.506 0 2.725 1.221 2.725 2.727v27.349c-.001 1.504-1.219 2.724-2.725 2.724"/></g><g class="H I B C"><path d="M137.043 193.755a5.08 5.08 0 1 1-10.166 0 5.08 5.08 0 0 1 5.084-5.082c2.807 0 5.082 2.275 5.082 5.082"/><path d="M142.975 193.755c0 2.809-2.276 5.083-5.084 5.083s-5.084-2.274-5.084-5.083 2.275-5.082 5.084-5.082 5.084 2.275 5.084 5.082"/></g><g class="D E F B C"><path d="M103.004 203.677h7.625v4.43h-7.625zm11.013 0h7.626v4.43h-7.626zm11.013 0h7.626v4.43h-7.626zm11.014 0h7.625v4.43h-7.625z"/></g><g fill="#231f20"><use xlink:href="#D"/><path d="M291.1 142.47v-1.272c-.889-.026-1.75-.278-2.254-.557l.397-1.552c.557.305 1.34.583 2.201.583.756 0 1.286-.305 1.286-.822 0-.504-.438-.821-1.419-1.153-1.419-.478-2.387-1.141-2.387-2.427 0-1.18.822-2.095 2.241-2.36v-1.259h1.3v1.166c.888.027 1.484.226 1.936.438l-.397 1.499c-.332-.159-.955-.464-1.91-.464-.861 0-1.14.384-1.14.756 0 .424.464.716 1.591 1.127 1.591.557 2.215 1.286 2.215 2.492 0 1.181-.822 2.175-2.36 2.44v1.365zm8.679 0v-1.272c-.889-.026-1.75-.278-2.254-.557l.397-1.552c.557.305 1.34.583 2.201.583.756 0 1.286-.305 1.286-.822 0-.504-.438-.821-1.419-1.153-1.419-.478-2.387-1.141-2.387-2.427 0-1.18.822-2.095 2.241-2.36v-1.259h1.3v1.166c.888.027 1.484.226 1.936.438l-.397 1.499c-.332-.159-.955-.464-1.91-.464-.861 0-1.14.384-1.14.756 0 .424.464.716 1.591 1.127 1.591.557 2.215 1.286 2.215 2.492 0 1.181-.822 2.175-2.36 2.44v1.365zm-267.302 0v-1.272c-.889-.026-1.75-.278-2.254-.557l.397-1.552c.557.305 1.34.583 2.201.583.756 0 1.286-.305 1.286-.822 0-.504-.438-.821-1.419-1.153-1.419-.478-2.387-1.141-2.387-2.427 0-1.18.822-2.095 2.241-2.36v-1.259h1.3v1.166c.888.027 1.484.226 1.936.438l-.397 1.499c-.332-.159-.955-.464-1.91-.464-.861 0-1.14.384-1.14.756 0 .424.464.716 1.591 1.127 1.591.557 2.215 1.286 2.215 2.492 0 1.181-.822 2.175-2.36 2.44v1.365zm8.68 0v-1.272c-.889-.026-1.75-.278-2.254-.557l.397-1.552c.557.305 1.34.583 2.201.583.756 0 1.286-.305 1.286-.822 0-.504-.438-.821-1.419-1.153-1.419-.478-2.387-1.141-2.387-2.427 0-1.18.822-2.095 2.241-2.36v-1.259h1.3v1.166c.888.027 1.484.226 1.936.438l-.397 1.499c-.332-.159-.955-.464-1.91-.464-.861 0-1.14.384-1.14.756 0 .424.464.716 1.591 1.127 1.591.557 2.215 1.286 2.215 2.492 0 1.181-.822 2.175-2.36 2.44v1.365zm8.68 0v-1.272c-.889-.026-1.75-.278-2.254-.557l.397-1.552c.557.305 1.34.583 2.201.583.756 0 1.286-.305 1.286-.822 0-.504-.438-.821-1.419-1.153-1.419-.478-2.387-1.141-2.387-2.427 0-1.18.822-2.095 2.241-2.36v-1.259h1.3v1.166c.888.027 1.484.226 1.936.438l-.397 1.499c-.332-.159-.955-.464-1.91-.464-.861 0-1.14.384-1.14.756 0 .424.464.716 1.591 1.127 1.591.557 2.215 1.286 2.215 2.492 0 1.181-.822 2.175-2.36 2.44v1.365z"/></g><g class="B C D G K"><path d="M167.993 173.794c-30.484 0-55.198-24.714-55.198-55.199 0-27.525 20.149-50.347 46.503-54.516m8.695-.682c30.484 0 55.198 24.713 55.198 55.197 0 27.24-19.732 49.873-45.684 54.381"/></g><g class="E L B"><circle cx="244.778" cy="184.681" r="30.897"/><circle cx="96.782" cy="44.712" r="30.897"/><g class="C"><path d="M257.62 180.48h-26.28c-2.938 0-5.317 2.378-5.317 5.314v10.336a5.32 5.32 0 0 0 5.317 5.314h26.28a5.32 5.32 0 0 0 5.312-5.314v-10.336c.001-2.936-2.38-5.314-5.312-5.314zm-24.467 16.311c0 1.433-2.775 1.433-2.775 0v-9.521c0-1.425 2.775-1.425 2.775 0v9.521zm8.153 0c0 1.433-2.777 1.433-2.777 0v-9.521c0-1.425 2.777-1.425 2.777 0v9.521zm8.154 0c0 1.433-2.779 1.433-2.779 0v-9.521c0-1.425 2.779-1.425 2.779 0v9.521zm8.154 0c0 1.433-2.781 1.433-2.781 0v-9.521c0-1.425 2.781-1.425 2.781 0v9.521z"/></g></g><path d="M264.999 182.26c0 .891-.793 1.616-1.77 1.616h-37.502c-.977 0-1.77-.726-1.77-1.616v-2.967c0-.894.793-1.617 1.77-1.617h37.502c.977 0 1.77.724 1.77 1.617z" class="B C H I"/><g class="E B C"><g class="L"><path d="M231.34 179.003l10.485-13.22"/><path d="M232.59 180.254l10.484-13.219c1.401-1.77-1.085-4.298-2.504-2.502l-10.479 13.219c-1.404 1.769 1.086 4.292 2.499 2.502zm25.024-1.251l-10.482-13.22"/><path d="M258.869 177.752l-10.483-13.219c-1.415-1.796-3.91.732-2.506 2.502l10.485 13.219c1.416 1.79 3.907-.733 2.504-2.502z"/></g><path d="M306.863 70.919a2.9 2.9 0 0 1-2.898 2.899h-51.01a2.9 2.9 0 0 1-2.899-2.899v-13.53a2.9 2.9 0 0 1 2.899-2.899h51.01a2.9 2.9 0 0 1 2.898 2.899z" class="D"/></g><g fill="#0e3c54"><path d="M267.225 68.52v-8.488h3.049c1.092 0 1.922.2 2.492.601s.854.981.854 1.743c0 .439-.102.814-.303 1.125s-.5.541-.893.688c.443.116.783.334 1.021.652s.355.708.355 1.166c0 .832-.263 1.457-.79 1.874s-1.307.631-2.34.639zm2.046-4.95h1.067c.446-.004.766-.086.955-.246s.286-.396.286-.707c0-.358-.103-.617-.31-.774s-.538-.237-.996-.237h-1.003v1.964zm0 1.341v2.034h1.341c.369 0 .652-.084.852-.253s.297-.407.297-.715c0-.707-.352-1.062-1.055-1.066zm12.311-4.88v5.556c0 .63-.134 1.175-.402 1.636s-.652.812-1.154 1.052-1.094.361-1.777.361c-1.034 0-1.848-.268-2.443-.804s-.897-1.271-.908-2.204v-5.597h2.057v5.638c.023.929.455 1.394 1.295 1.394.424 0 .744-.117.961-.351s.327-.611.327-1.137v-5.544zm4.385 3.685l1.562-3.685h2.21l-2.734 5.439v3.049h-2.075V65.47l-2.729-5.439h2.198z"/></g><path d="M85.591 179.158a2.9 2.9 0 0 1-2.9 2.899H31.683a2.9 2.9 0 0 1-2.9-2.899v-13.53a2.9 2.9 0 0 1 2.9-2.899H82.69a2.9 2.9 0 0 1 2.9 2.899v13.53z" class="B C D E"/><g fill="#0e3c54"><path d="M46.329 174.503c0-.3-.106-.532-.317-.7s-.584-.34-1.117-.519-.967-.352-1.306-.519c-1.1-.54-1.65-1.282-1.65-2.227 0-.471.137-.886.411-1.245s.662-.639 1.163-.839 1.065-.301 1.69-.301c.61 0 1.157.109 1.641.326s.86.528 1.128.931.402.861.402 1.378h-2.041c0-.346-.106-.613-.317-.805s-.499-.285-.86-.285c-.366 0-.654.081-.866.242a.74.74 0 0 0-.318.614c0 .218.117.415.35.592s.644.36 1.23.549 1.068.392 1.445.608c.917.529 1.376 1.258 1.376 2.187 0 .742-.28 1.325-.839 1.749s-1.327.635-2.303.635c-.688 0-1.311-.123-1.869-.37s-.977-.585-1.259-1.014-.423-.925-.423-1.484h2.052c0 .455.117.79.353 1.006s.617.323 1.146.323c.338 0 .605-.072.801-.218s.297-.35.297-.614zm10.19 2.256h-2.035v-3.544H51.47v3.544h-2.046v-8.488h2.046v3.37h3.014v-3.37h2.035zm8.482-4.07c0 .828-.154 1.561-.46 2.198s-.743 1.128-1.309 1.472-1.209.516-1.932.516-1.364-.166-1.924-.498-.996-.808-1.309-1.426-.478-1.327-.493-2.127v-.479c0-.831.152-1.565.458-2.2s.742-1.126 1.312-1.473 1.217-.519 1.944-.519c.719 0 1.36.171 1.924.513s1.001.829 1.314 1.461.471 1.355.475 2.171zm-2.081-.355c0-.843-.141-1.483-.423-1.921a1.35 1.35 0 0 0-1.209-.655c-1.026 0-1.568.77-1.626 2.309l-.006.623c0 .832.138 1.472.414 1.918s.686.671 1.23.671c.517 0 .915-.22 1.195-.659s.422-1.07.426-1.895v-.391zm5.182 1.545v2.88h-2.046v-8.488h3.387c.649 0 1.223.12 1.723.359s.886.579 1.16 1.02.411.941.411 1.501c0 .828-.296 1.49-.889 1.985s-1.406.743-2.44.743zm0-1.58h1.341c.396 0 .698-.099.906-.297s.312-.479.312-.84c0-.396-.107-.713-.321-.95s-.505-.357-.874-.361h-1.364z"/></g><g class="B"><g class="C D E"><path d="M77.812 132.352l8.078 8.08"/><path d="M98.606 148.878c1.435 1.434 1.643 3.553.463 4.731h0c-1.18 1.179-3.299.973-4.733-.463l-9.61-9.61c-1.436-1.436-1.643-3.553-.463-4.733h0c1.179-1.178 3.299-.972 4.732.463z"/></g><circle cx="70.645" cy="126.577" r="14.217" class="D E"/><circle cx="70.646" cy="126.577" r="9.562" class="H I"/><g class="C"><g class="E L"><path d="M79.909 31.343l.336-.403-.336.403zm4.323-4.046l.474-.324-.474.324zm17.726 37.607l-.467.127.467-.127zm.98-.297l-.473.155.473-.155zM78.737 32.952l.287-.428-.287.428zm22.217 32.205l-.459.097.459-.097zm-21.65-33.025l.314-.414-.314.414zm4.134-4.248l.447-.34-.447.34zm-.769.623l.425-.354-.425.354zm22.164 35.376l-.481.206.481-.206zm-.936.385l-.478.178.478-.178zM81.931 29.165l.404-.365-.404.365zm-.705.696l.377-.38-.377.38zm-.676.725l.357-.393-.357.393zm-4.884 9.798l.101-.457-.101.457zm.228-1.008l.125-.455-.125.455zm21.861 26.236l-.348.023.348-.023zM75.354 42.446l.054-.424-.054.424zm.815-4.054l.148-.458-.148.458zm-.895 5.106l.027-.351-.027.351zm.211-2.093l.076-.445-.076.445zM98.87 65.509l-.421.052.421-.052zM77.265 35.563l.219-.445-.219.445zm22.662 29.793l-.445.076.445-.076zM77.714 34.665l.244-.44-.244.44zm-1.223 2.762l.172-.453-.172.453zm.365-.945l.195-.451-.195.451zm1.35-2.689l.264-.432-.264.432zm7.695-7.555l.523-.294-.523.294zM116.905 49.3l-.242.955.242-.955zM90.386 24.328l.754-.212-.754.212zm17.107 38.152l-.493.296.493-.296zM89.479 24.618l.676-.226-.676.226zm18.848 37.314l-.502.337.502-.337zm9.039-15.62l-.105 1.005.105-1.005zm-7.459 14.412l-.532.433.532-.433zm7.348-17.392l.066-1.502c0-10.028-8.127-18.157-18.154-18.157-.333 0-.664.012-.991.028v19.631zM91.237 24.093c1.259-.312 2.56-.512 3.897-.588-1.337.076-2.638.276-3.897.588zm25.868 24.23l-.198.966.198-.966zm-7.971 13.023l-.516.378.516-.378zM86.772 25.769l.551-.277-.551.277zm18.971 37.688l-.483.233.483-.233z"/><path d="M110.752 59.978c2.782-2.603 4.855-5.945 5.911-9.723-1.055 3.777-3.133 7.117-5.911 9.723zm-.099.091l-.562.499.562-.499zM88.564 24.954l.625-.238-.625.238zm28.695 22.373l-.152.98.152-.98zM87.66 25.34l.587-.26-.587.26zm-2.607 1.409l.499-.312-.499.312zm21.579 36.24l-.488.263.488-.263zm-8.183 2.572l-.694.052.694-.052z"/><path d="M110.752 59.978l-.099.092.099-.092zm-13.345 5.658l-1.062.028 1.062-.028zM75.248 44.567l.026-1.069-.026 1.069zm34.843 16.001l-.184.155.184-.155zm-2.266 1.701l-.332.212.332-.212zm-5.359 2.494l-.508.142.508-.142zm3.678-1.511l-.4.205.4-.205zm-2.724 1.193l-.481.162.481-.162zm.932-.356l-.454.179.454-.179zm-29.05-20.942l.053-.701-.053.701zM105.26 63.69l-.427.192.427-.192zm-5.779 1.743l-.611.076.611-.076zm9.137-3.709l-.291.208.291-.208zm-8.123 3.53l-.568.103.568-.103zm8.88-4.098l-.241.189.241-.189zm-7.884 3.875l-.537.126.537-.126zM107 62.776l-.368.213.368-.213zM88.247 25.08l.317-.126-.317.126zm-1.822.864l.348-.176-.348.176zm.898-.453l.337-.151-.337.151zm1.866-.775l.289-.098-.289.098zm-4.483 2.257l.347-.224-.347.224zm-.82.571l.347-.247-.347.247zm6.268-3.151l.231-.064-.231.064zm-4.602 2.045l.35-.199-.35.199zm9.644-2.937c-.022 0-.043.004-.062.004.019 0 .04-.004.062-.004zm21.711 25.788zm.199-.981zM91.14 24.116l.098-.023c-.034.01-.066.017-.098.023zm25.523 26.139zM83.094 28.153l.345-.27-.345.27zm34.167 19.163zM76.663 36.974l.193-.491-.193.491zm.82-1.856l.23-.453-.23.453zm-2.075 6.904l.077-.617-.077.617zm1.644-5.991l.213-.468-.213.468zm-.735 1.903l.174-.507-.174.507zm-.755 3.026l.104-.576-.104.576zm.457-2.039l.15-.529-.15.529zm-.252 1.006l.127-.551-.127.551zM82.335 28.8l.334-.293-.334.293zm-1.428 1.393l.318-.332-.318.332zm.696-.712l.328-.316-.328.316zm-1.358 1.458l.305-.354-.305.354zm-.627.779l.291-.375-.291.375zm-1.148 1.643l.268-.409-.268.409zm.554-.837l.279-.393-.279.393zm-1.066 1.701l.248-.432-.248.432z"/><path d="M116.905 49.3l.2-.977.153-.996.107-1.016h0-22.17v-22.81c-.022 0-.043.004-.062.004a21.15 21.15 0 0 0-3.897.588c-.033.01-.065.018-.098.023l-.754.212-.231.064-.676.226-.289.098-.625.238-.317.126-.587.26-.337.151-.551.277-.348.176-.523.294-.35.199-.499.312-.347.224-.474.324-.344.247-.447.34-.345.27-.425.354-.334.293-.404.365-.328.316-.377.38-.318.332-.357.393-.305.354-.336.403-.291.375-.314.414-.279.393-.287.428-.268.409-.264.432-.248.432-.244.44-.23.453-.219.445-.213.468-.195.451-.193.491-.172.453-.174.507-.148.458-.15.529-.125.455-.127.551-.101.457-.104.576-.076.445-.077.617-.054.424-.053.701-.027.351-.026 1.069c0 11.652 9.446 21.097 21.098 21.097a18.72 18.72 0 0 0 1.062-.028c.115-.003.231-.016.348-.023.232-.015.467-.028.694-.052.143-.015.279-.033.421-.052l.611-.076c.148-.023.298-.05.445-.076l.568-.103c.151-.029.305-.064.459-.097l.537-.126.467-.127.508-.142c.158-.049.314-.103.473-.155a10.87 10.87 0 0 0 .481-.162l.478-.178.454-.179c.162-.066.322-.136.481-.206l.427-.192.483-.233.4-.205.488-.263.368-.213.493-.296.332-.212.502-.337.291-.208.516-.378.241-.189c.181-.144.36-.284.532-.433.064-.051.121-.104.184-.155l.562-.499c.033-.03.064-.062.099-.092 2.778-2.605 4.856-5.945 5.911-9.723h0l.24-.955z"/></g><path d="M110.472 44.181a13.76 13.76 0 0 1-27.523 0c0-7.6 6.16-13.764 13.761-13.764s13.762 6.164 13.762 13.764z" class="H I"/></g></g></g><defs><clipPath id="A"><path d="M48.358-.711h235.19v235.19H48.358z" fill="#f5a10c" fill-opacity="0" stroke-width=".541" class="F"/></clipPath><path id="B" d="M301.348 86.603h-30.861c-.859 0-1.557.697-1.557 2.049v56.44c0 .367.697 1.063 1.557 1.063h42.615c.86 0 1.557-.696 1.557-1.063v-44.688c0-.74-.099-.979-.274-1.154l-12.373-12.374a.94.94 0 0 0-.664-.273z"/><path id="C" d="M51.318 86.603H20.455c-.859 0-1.557.697-1.557 2.049v56.44c0 .367.697 1.063 1.557 1.063h42.616c.86 0 1.556-.696 1.556-1.063v-44.688c0-.74-.098-.979-.273-1.154L51.98 86.876c-.175-.175-.414-.273-.662-.273z"/><path id="D" d="M282.419 142.47v-1.272c-.889-.026-1.75-.278-2.254-.557l.397-1.552c.557.305 1.34.583 2.201.583.756 0 1.286-.305 1.286-.822 0-.504-.438-.821-1.419-1.153-1.419-.478-2.387-1.141-2.387-2.427 0-1.18.822-2.095 2.241-2.36v-1.259h1.3v1.166c.888.027 1.484.226 1.936.438l-.397 1.499c-.332-.159-.955-.464-1.91-.464-.861 0-1.14.384-1.14.756 0 .424.464.716 1.591 1.127 1.591.557 2.215 1.286 2.215 2.492 0 1.181-.822 2.175-2.36 2.44v1.365z"/></defs></svg>