<svg xmlns="http://www.w3.org/2000/svg" xmlns:xlink="http://www.w3.org/1999/xlink" height="200" width="200" xmlns:v="https://vecta.io/nano"><style><![CDATA[.B{fill:#fff}.C{fill:#b7e8f3}.D{fill:#2b5a5f}.E{fill:#2e839d}.F{fill:#6b8c8f}]]></style><defs><clipPath id="A"><path transform="scale(1 -1)" d="M503.98-2351.9h2351.9V0H503.98z" fill="#66e0f0" fill-opacity="1" stroke-width="7.726" stroke-linejoin="round"/></clipPath><path id="B" d="M1214.99 1521.9h147.59v30h-147.59z"/></defs><g transform="matrix(.085 0 0 -.085 -42.857266 200)" clip-path="url(#A)"><path d="M0 0h3359.86v2351.9H0z" fill="#00bddc"/><g fill="#10a9c6"><path d="M828.398 930.531L716.074 1042.85H227.621c-19.738 0-35.734 16-35.734 35.74v319.1c0 19.74 15.996 35.74 35.734 35.74H901.57c19.743 0 35.735-16 35.735-35.74v-319.1c0-19.74-15.992-35.74-35.735-35.74h-73.172V930.531m1782.422 0v112.319h-73.17c-19.75 0-35.75 16-35.75 35.74v319.1c0 19.74 16 35.74 35.75 35.74h673.94c19.75 0 35.74-16 35.74-35.74v-319.1c0-19.74-15.99-35.74-35.74-35.74h-488.45l-112.32-112.319M1062.65 2017.07H959.094c-16.496 0-30.004 13.5-30.004 30v103.56c0 16.5 13.508 30 30.004 30h103.556c16.5 0 30-13.5 30-30v-103.56c0-16.5-13.5-30-30-30m189.68-63.71v43.71h-30.74c-16.5 0-30 13.5-30 30v103.56c0 16.5 13.5 30 30 30h930.53c16.5 0 30-13.5 30-30v-103.56c0-16.5-13.5-30-30-30h-809.73l-90.06-43.71m55.63-192.81H1204.4c-16.5 0-30 13.5-30 30v103.57c0 16.49 13.5 30 30 30h103.56c16.5 0 30-13.51 30-30v-103.57c0-16.5-13.5-30-30-30m189.69-63.72v43.72h-30.75c-16.5 0-30 13.5-30 30v103.57c0 16.49 13.5 30 30 30h930.53c16.51 0 30-13.51 30-30v-103.57c0-16.5-13.49-30-30-30H1587.7l-90.05-43.72M1307.96 292.34H1204.4c-16.5 0-30 13.512-30 30v103.558c0 16.512 13.5 30 30 30h103.56c16.5 0 30-13.488 30-30V322.34c0-16.488-13.5-30-30-30m189.69-223.738v43.718h-30.75c-16.5 0-30 13.512-30 30v263.578c0 16.512 13.5 30 30 30h930.53c16.51 0 30-13.488 30-30V142.32c0-16.488-13.49-30-30-30H1587.7l-90.05-43.718m974.17 475.597H955.168l-30.09 25.34v41.652l120.342 133.911 36.89-.082c-19.88 2.281-35.51 19.089-35.51 39.558v12.184a39.67 39.67 0 0 1 9.5-1.153h1252.39c22 0 40 18 40 40v768.471c17.46-4.29 30.5-20.12 30.5-38.85V784.578c0-22.008-18-40-40-40h-1025.7l1067.3-2.098 115.7-131.289v-41.652h5.41l-30.08-25.34m735.51 1411.031h-164.9c-16.5 0-30 13.5-30 30v164.88c0 16.51 13.5 30 30 30h164.9c16.51 0 30-13.49 30-30v-164.88c0-16.5-13.49-30-30-30M430.137 113.422H265.234c-16.504 0-30 13.5-30 30v164.887c0 16.5 13.496 30 30 30h164.903c16.504 0 30-13.5 30-30V143.422c0-16.5-13.496-30-30-30M2849.12 1582.14h-242.35c-16.51 0-30 13.5-30 30v242.33c0 16.5 13.49 30 30 30h242.35c16.51 0 30-13.5 30-30v-242.33c0-16.5-13.49-30-30-30m-2121.186 34.78H333.309c-30.457 0-56.641 19.24-67.024 46.15a71.03 71.03 0 0 1 26.528-5.12h394.625c39.488 0 71.789 32.33 71.789 71.79v394.59c0 9.02-1.688 17.67-4.762 25.64 26.457-10.61 45.262-36.56 45.262-66.67v-5.76-388.83c0-39.47-32.305-71.79-71.793-71.79M3139.76 93.711h-394.63c-30.45 0-56.64 19.23-67.02 46.141 8.22-3.293 17.17-5.114 26.52-5.114h394.63c39.49 0 71.79 32.332 71.79 71.793v394.59c0 9.02-1.68 17.66-4.76 25.641 26.46-10.614 45.26-36.571 45.26-66.684v-5.758-388.832c0-39.457-32.3-71.777-71.79-71.777M737.527 500.129H495.176c-16.504 0-30 13.5-30 30v242.332c0 16.5 13.496 30 30 30h242.351c16.508 0 30-13.5 30-30V530.129c0-16.5-13.492-30-30-30M1030.77 94.801H588.402c-16.496 0-30 13.508-30 30v242.32c0 16.5 13.504 30 30 30h442.368c16.51 0 30-13.5 30-30v-242.32c0-16.492-13.49-30-30-30"/></g><path d="M1016.3 835.609c0-22 18-40 40-40h1252.39c22 0 40 18 40 40v780.661c0 22-18 40-40 40H1056.3c-22 0-40-18-40-40V835.609" class="D"/><path d="M1080.04 861.5h1204.91v728.875H1080.04z" class="C"/><g class="B"><path d="M861.074 1474.47H187.125c-19.742 0-35.738-16.01-35.738-35.74v-319.11c0-19.73 15.996-35.74 35.738-35.74h488.449l112.324-112.31v112.31h73.176c19.742 0 35.739 16.01 35.739 35.74v319.11c0 19.73-15.997 35.74-35.739 35.74m1636.076 0h673.94c19.75 0 35.75-16.01 35.75-35.74v-319.11c0-19.73-16-35.74-35.75-35.74h-488.44l-112.33-112.31v112.31h-73.17c-19.75 0-35.74 16.01-35.74 35.74v319.11c0 19.73 15.99 35.74 35.74 35.74m-1285.31 563.64v-43.72l90.05 43.72m-229.74 30c0-16.5-13.5-30-30-30H938.594c-16.5 0-30 13.5-30 30v103.56c0 16.5 13.5 30 30 30h103.556c16.5 0 30-13.5 30-30v-103.56m1069.47 0c0-16.5-13.49-30-30-30h-930.53c-16.5 0-30 13.5-30 30v103.56c0 16.5 13.5 30 30 30h930.53c16.51 0 30-13.5 30-30v-103.56"/></g><g class="C"><path d="M1457.15 1781.59v-43.72l90.06 43.72m-229.75 30c0-16.5-13.5-30-30-30h-103.55c-16.51 0-30 13.5-30 30v103.56c0 16.49 13.49 30 30 30h103.55c16.5 0 30-13.51 30-30v-103.56"/><path d="M2386.93 1811.59c0-16.5-13.49-30-30-30h-930.52c-16.51 0-30 13.5-30 30v103.56c0 16.49 13.49 30 30 30h930.52c16.51 0 30-13.51 30-30v-103.56"/></g><g class="B"><path d="M1457.15 153.359v-43.73l90.06 43.73m-229.75 190.012c0-16.492-13.5-30-30-30h-103.55c-16.51 0-30 13.508-30 30v103.57c0 16.5 13.49 30 30 30h103.55c16.5 0 30-13.5 30-30v-103.57"/><path d="M2386.93 183.359c0-16.5-13.49-30-30-30h-930.52c-16.51 0-30 13.5-30 30v263.582c0 16.5 13.49 30 30 30h930.52c16.51 0 30-13.5 30-30V183.359M1014.92 796.141L894.578 662.219H2466l-115.71 131.293"/></g><path d="M1121.39 781.102l-64.81-69.442h1249.74l-65.97 65.961" class="D"/><path d="M2466 620.57H894.578v41.649H2466V620.57" fill="#e8e8e8"/><g fill="#afafaf"><path d="M894.578 620.57l30.09-25.34h758.322v25.34"/><path d="M2471.41 620.57l-30.09-25.34h-758.33v25.34"/></g><path d="M1080.04 1490.54h1204.91v99.832H1080.04z" fill="#00bdd7"/><path d="M1149.08 1316.96h1066.83v173.582H1149.08z" class="E"/><g class="B"><path d="M1149.08 1172.8h1066.83v106.27H1149.08zm0-265.902h1066.83v212.461H1149.08z"/></g><g class="C"><path d="M1214.99 1243.17h147.59v147.574h-147.59zm0-302.342h147.59v144.512h-147.59zm173.27 285.112h764.32v17.23h-764.32zm-173.27-31.28h937.594v17.23H1214.99z"/><path d="M2152.58 1064.66h-764.32v17.23h764.32v-17.23m0-31.28h-764.32v17.23h764.32v-17.23m0-30.44h-764.32v17.22h764.32v-17.22m0-31.28h-764.32v17.219h764.32V971.66m0-30.832h-764.32v17.223h764.32v-17.223"/></g><g fill="#ffe8ff"><use xlink:href="#B"/><path d="M1417.49 1521.9h147.59v30h-147.59zm202.5 0h147.59v30h-147.59zm202.5 0h147.59v30h-147.59zm350.09 0h-147.59v30h147.59v-30"/></g><g class="E"><path d="M1031.88 2098.6l-21.28 21.29 21.28 21.25c2.22 2.24 2.18 5.88 0 8.11l-12.14 12.13c-2.25 2.24-5.9 2.24-8.11 0l-21.278-21.23-21.243 21.23c-2.222 2.24-5.855 2.24-8.101 0l-12.141-12.13c-2.226-2.23-2.226-5.87 0-8.11l21.262-21.25-21.262-21.29c-2.226-2.22-2.226-5.86 0-8.08l12.141-12.14c2.207-2.22 5.879-2.22 8.101 0l21.243 21.25 21.278-21.25c2.21-2.22 5.86-2.22 8.11 0l12.14 12.14c2.22 2.22 2.22 5.9 0 8.08m245.51-1724.729l-21.29 21.289 21.29 21.25c2.22 2.25 2.18 5.879 0 8.121l-12.15 12.129c-2.24 2.231-5.89 2.231-8.1 0l-21.28-21.23-21.24 21.23c-2.23 2.231-5.86 2.231-8.11 0l-12.13-12.129c-2.23-2.242-2.23-5.871 0-8.121l21.25-21.25-21.25-21.289c-2.23-2.211-2.23-5.859 0-8.07l12.13-12.141c2.21-2.23 5.88-2.23 8.11 0l21.24 21.25 21.28-21.262c2.21-2.218 5.86-2.218 8.1.012l12.15 12.141c2.22 2.211 2.22 5.89 0 8.07m3.84 1519.939l-14.39 11.64c-1.51 1.21-3.76.98-4.96-.54l-39.32-48.68-15.36 13.98c-1.49 1.33-3.71 1.23-5.03-.23l-12.43-13.68a3.53 3.53 0 0 1 .23-4.99l32.92-29.92c1.44-1.3 3.6-1.15 4.85.4l11.6 14.46.06.05 42.37 52.52c1.25 1.54.99 3.8-.54 4.99"/></g><path d="M2322.58 323.148h-857.71v103.774h857.71V323.148" class="C"/><g class="D"><path d="M3206.84 2016.27c0-16.51-13.5-30-30-30h-164.91c-16.5 0-30 13.49-30 30v164.88c0 16.5 13.5 30 30 30h164.91c16.5 0 30-13.5 30-30v-164.88M429.641 174.461c0-16.512-13.496-30-30-30H234.734c-16.504 0-30 13.488-30 30V339.34c0 16.512 13.496 30 30 30h164.907c16.504 0 30-13.488 30-30V174.461"/></g><path d="M2838.62 1653.18c0-16.5-13.49-30-30-30h-242.35c-16.5 0-30 13.5-30 30v242.32c0 16.51 13.5 30 30 30h242.35c16.51 0 30-13.49 30-30v-242.32" class="B"/><path d="M759.227 1729.74c0-39.46-32.301-71.79-71.789-71.79H292.813c-39.485 0-71.79 32.33-71.79 71.79v394.59c0 39.47 32.305 71.79 71.79 71.79h394.625c39.488 0 71.789-32.32 71.789-71.79v-394.59" class="D"/><path d="M759.23 2118.57v5.76c0 39.47-32.304 71.79-71.792 71.79H292.813c-39.485 0-71.79-32.32-71.79-71.79v-5.76H759.23" class="C"/><g class="B"><path d="M367.355 1972.33c-14.882 0-26.996 12.09-26.996 26.98s12.114 27 26.996 27 26.993-12.11 26.993-27-12.106-26.98-26.993-26.98zm0 65.08c-21.011 0-38.093-17.09-38.093-38.1s17.082-38.1 38.093-38.1c21.004 0 38.09 17.09 38.09 38.1s-17.086 38.1-38.09 38.1m0 12.08a5.55 5.55 0 0 1 5.543 5.56v17.49c0 3.06-2.476 5.55-5.543 5.55s-5.542-2.49-5.542-5.55v-17.49c0-3.07 2.472-5.56 5.542-5.56m0-100.35c-3.07 0-5.542-2.5-5.542-5.56v-17.48c0-3.07 2.472-5.55 5.542-5.55a5.54 5.54 0 0 1 5.543 5.55v17.48c0 3.06-2.476 5.56-5.543 5.56m39.387 84.03a5.52 5.52 0 0 1 3.926 1.62l12.383 12.38c2.168 2.16 2.168 5.67 0 7.85-2.168 2.16-5.68 2.16-7.84 0l-12.379-12.39c-2.172-2.16-2.172-5.67 0-7.84a5.53 5.53 0 0 1 3.91-1.62m-82.711-69.33l-12.383-12.37c-2.16-2.17-2.16-5.68 0-7.84a5.54 5.54 0 0 1 3.926-1.64c1.422 0 2.844.55 3.93 1.64l12.371 12.36a5.56 5.56 0 0 1 0 7.85 5.56 5.56 0 0 1-7.844 0m116.539 41.02h-17.504c-3.062 0-5.543-2.48-5.543-5.55a5.56 5.56 0 0 1 5.543-5.56h17.504c3.067 0 5.551 2.5 5.551 5.56a5.55 5.55 0 0 1-5.551 5.55m-123.382-5.55c0 3.07-2.493 5.55-5.551 5.55h-17.504c-3.063 0-5.543-2.48-5.543-5.55a5.56 5.56 0 0 1 5.543-5.56h17.504a5.57 5.57 0 0 1 5.551 5.56m93.48-35.47a5.55 5.55 0 0 1-7.836 0c-2.172-2.16-2.172-5.69 0-7.85l12.379-12.36c1.082-1.09 2.504-1.64 3.922-1.64s2.836.55 3.918 1.64a5.54 5.54 0 0 1 0 7.84l-12.383 12.37m-86.637 70.95a5.54 5.54 0 0 1 3.93-1.62c1.41 0 2.832.54 3.914 1.62 2.164 2.17 2.164 5.68 0 7.84l-12.371 12.39c-2.176 2.16-5.68 2.16-7.856 0-2.16-2.18-2.16-5.68 0-7.85l12.383-12.38m216.043-276.28c3.356 0 6.442.44 9.258 1.32s5.27 2.11 7.367 3.7 3.735 3.52 4.91 5.78 1.77 4.77 1.77 7.53c0 5.77-2.039 9.89-6.113 12.36-4.075 2.48-9.551 3.71-16.442 3.71h-8.058v6.04l24.945 31.37H519.91v9.07h49.891v-9.07l-24.942-29.11h2.028c3.875 0 7.422-.54 10.625-1.62 3.207-1.1 5.988-2.65 8.351-4.67 2.364-2.01 4.196-4.46 5.504-7.31s1.961-6.08 1.961-9.7c0-4.53-.883-8.56-2.648-12.09s-4.172-6.49-7.2-8.88-6.589-4.2-10.671-5.42c-4.082-1.21-8.438-1.83-13.067-1.83-4.297 0-8.023.33-11.179.96-3.157.65-6.04 1.42-8.653 2.36l2.524 8.91c2.183-1.02 4.746-1.83 7.683-2.46 2.942-.64 6.254-.95 9.957-.95m76.59 0c3.191 0 6.129.4 8.82 1.2 2.684.79 4.977 2.01 6.864 3.65s3.359 3.68 4.41 6.12c1.051 2.43 1.578 5.28 1.578 8.56 0 6.05-2.164 10.65-6.488 13.79-4.328 3.15-10.227 4.73-17.703 4.73l-11.84-.63v43.46h43.336v-9.07h-33.887v-25.57l6.316.25c9.356 0 16.731-2.27 22.125-6.8 5.395-4.54 8.09-11.01 8.09-19.4 0-4.71-.82-8.86-2.461-12.48-1.644-3.61-3.894-6.66-6.758-9.13-2.859-2.48-6.25-4.34-10.164-5.6s-8.187-1.9-12.816-1.9c-2.527 0-4.93.2-7.199.57-2.27.38-4.336.84-6.188 1.38-1.855.55-3.469 1.14-4.863 1.77s-2.375 1.2-2.969 1.7l4.035 8.19c1.426-.84 3.61-1.85 6.551-3.02 2.942-1.18 6.676-1.77 11.211-1.77m71.305 64.63c0-3.19.984-5.69 2.961-7.5 1.968-1.8 4.261-2.71 6.863-2.71s4.895.91 6.863 2.71c1.977 1.81 2.965 4.31 2.965 7.5 0 3.2-.988 5.7-2.965 7.5-1.968 1.8-4.261 2.7-6.863 2.7s-4.895-.9-6.863-2.7c-1.977-1.8-2.961-4.3-2.961-7.5zm-7.942 0c0 2.61.465 5 1.391 7.18s2.18 4.05 3.777 5.6c1.598 1.56 3.489 2.78 5.668 3.67 2.184.87 4.492 1.31 6.93 1.31s4.746-.4 6.93-1.2c2.179-.79 4.07-1.97 5.668-3.52s2.855-3.42 3.781-5.61 1.387-4.66 1.387-7.43-.465-5.25-1.387-7.43c-.926-2.19-2.184-4.05-3.781-5.61-1.598-1.55-3.489-2.73-5.668-3.52-2.184-.8-4.493-1.2-6.93-1.2s-4.746.4-6.93 1.2c-2.179.79-4.07 1.97-5.668 3.52-1.597 1.56-2.855 3.42-3.777 5.61-.926 2.18-1.391 4.66-1.391 7.43m-383.23 334.21a13.58 13.58 0 0 0-13.574-13.58 13.58 13.58 0 0 0-13.575 13.58 13.575 13.575 0 1 0 27.149 0m52.18 0c0-7.5-6.082-13.58-13.579-13.58a13.58 13.58 0 0 0-13.574 13.58c0 7.49 6.082 13.56 13.574 13.56s13.579-6.07 13.579-13.56m52.175 0a13.58 13.58 0 0 0-13.574-13.58 13.58 13.58 0 0 0-13.574 13.58 13.574 13.574 0 0 0 27.148 0"/></g><g class="F"><path d="M498.828 2039.48h204.117v25.035H498.828zm0-53.95h204.117v25.039H498.828zm0-53.94h204.117v25.043H498.828z"/></g><g class="C"><path d="M842.578 1388.71H694.824v25.04h147.754v-25.04m0-57.1H694.824v25.03h147.754v-25.03m0-57.11H694.824v25.04h147.754v-25.04m0-57.11H694.824v25.04h147.754v-25.04m0-57.11H694.824v25.04h147.754v-25.04"/></g><g class="F"><path d="M277.316 1839.48h204.113v25.035H277.316zm0-53.95h204.113v25.039H277.316zm0-53.94h204.113v25.043H277.316z"/></g><path d="M3171.05 206.531c0-39.461-32.3-71.793-71.79-71.793h-394.63c-39.47 0-71.78 32.332-71.78 71.793v394.59c0 39.457 32.31 71.789 71.78 71.789h394.63c39.49 0 71.79-32.332 71.79-71.789v-394.59" class="D"/><path d="M3171.05 595.359v5.762c0 39.457-32.3 71.789-71.79 71.789h-394.63c-39.47 0-71.78-32.332-71.78-71.789v-5.762h538.2" class="C"/><g class="B"><path d="M2983.77 293.879c0-7.719-3.67-16.34-11-25.828s-17.56-19.813-30.7-30.981h44.47v-9.082h-56.07v9.082c1.6 1.508 3.79 3.481 6.56 5.91l8.95 8.129c3.18 2.981 6.44 6.192 9.75 9.641 3.32 3.441 6.32 6.969 9.02 10.578 2.67 3.613 4.86 7.223 6.54 10.832 1.68 3.621 2.52 7.102 2.52 10.461 0 5.039-1.32 9.008-3.97 11.91-2.64 2.899-6.61 4.34-11.9 4.34-4.54 0-8.36-.512-11.47-1.512-3.1-1.007-5.92-2.48-8.44-4.41l-4.28 6.93c3.79 2.68 7.81 4.66 12.06 5.93 4.25 1.261 8.91 1.882 13.96 1.882 7.91 0 13.88-2.14 17.93-6.421 4.04-4.29 6.07-10.079 6.07-17.391m30.61-3.277c0-6.043 1.81-10.582 5.46-13.602 3.64-3.02 8.48-4.531 14.51-4.531 4.77 0 8.89.73 12.37 2.203s5.92 3.289 7.34 5.476c.17 1.172.26 2.122.26 2.832v2.461c0 2.93-.4 5.829-1.19 8.7-.81 2.847-2.04 5.41-3.72 7.679s-3.82 4.09-6.46 5.481-5.8 2.078-9.49 2.078c-6.02 0-10.71-1.641-14.07-4.918-3.34-3.27-5.01-7.891-5.01-13.859zm-10.45-1c0 3.859.62 7.5 1.89 10.886 1.25 3.403 3.16 6.391 5.74 8.953 2.56 2.559 5.74 4.579 9.53 6.039 3.79 1.481 8.21 2.211 13.26 2.211 4.71 0 8.91-.75 12.62-2.261 3.7-1.52 6.84-3.641 9.41-6.371s4.52-6.047 5.87-9.95c1.34-3.91 2.01-8.25 2.01-13.039 0-9.398-1.17-17.679-3.54-24.808-2.35-7.141-5.64-13.203-9.84-18.153-4.22-4.961-9.2-8.82-14.97-11.589s-12.02-4.45-18.76-5.04l-1.9 7.942c5.55.59 10.51 1.93 14.87 4.027 4.37 2.102 8.15 4.789 11.34 8.063s5.8 7.058 7.82 11.34c2.01 4.277 3.4 8.859 4.15 13.738-1.34-1.442-2.71-2.629-4.09-3.602a19.41 19.41 0 0 0-4.6-2.328c-1.68-.59-3.53-1.012-5.54-1.262-2.02-.25-4.34-.378-6.93-.378-3.87 0-7.52.589-10.96 1.769-3.45 1.172-6.45 2.883-9.01 5.102s-4.6 4.918-6.11 8.058c-1.51 3.16-2.26 6.699-2.26 10.653m95.86 10.328c0-3.2.99-5.7 2.96-7.5 1.98-1.809 4.26-2.711 6.86-2.711 2.61 0 4.9.902 6.87 2.711 1.98 1.8 2.96 4.3 2.96 7.5 0 3.191-.98 5.691-2.96 7.5-1.97 1.789-4.26 2.699-6.87 2.699-2.6 0-4.88-.91-6.86-2.699-1.97-1.809-2.96-4.309-2.96-7.5zm-7.93 0c0 2.601.45 5 1.38 7.179.92 2.18 2.18 4.051 3.77 5.602 1.6 1.551 3.5 2.769 5.68 3.66 2.17.879 4.49 1.32 6.92 1.32 2.44 0 4.75-.402 6.93-1.203 2.19-.789 4.08-1.968 5.67-3.527 1.6-1.551 2.86-3.41 3.79-5.602.91-2.187 1.38-4.66 1.38-7.429 0-2.782-.47-5.258-1.38-7.43-.93-2.191-2.19-4.059-3.79-5.609-1.59-1.551-3.48-2.731-5.67-3.532-2.18-.8-4.49-1.199-6.93-1.199-2.43 0-4.75.399-6.92 1.199-2.18.801-4.08 1.981-5.68 3.532-1.59 1.55-2.85 3.418-3.77 5.609-.93 2.172-1.38 4.648-1.38 7.43m-383.25 334.211c0-7.5-6.07-13.582-13.57-13.582a13.59 13.59 0 0 0-13.58 13.582c0 7.488 6.09 13.558 13.58 13.558 7.5 0 13.57-6.07 13.57-13.558m52.19 0c0-7.5-6.08-13.582-13.57-13.582-7.5 0-13.58 6.082-13.58 13.582 0 7.488 6.08 13.558 13.58 13.558a13.57 13.57 0 0 0 13.57-13.558m52.17 0c0-7.5-6.08-13.582-13.58-13.582-7.49 0-13.57 6.082-13.57 13.582a13.57 13.57 0 0 0 13.57 13.558c7.5 0 13.58-6.07 13.58-13.558"/></g><g class="F"><path d="M2910.64 516.27h204.129v25.031H2910.64zm0-53.95h204.129v25.039H2910.64zm0-53.949h204.129v25.039H2910.64zm-221.5-92.101h204.109v25.031H2689.14zm0-53.95h204.109v25.039H2689.14zm0-53.941h204.109v25.031H2689.14z"/></g><g class="B"><path d="M3094.38 2160.61c34.13 0 61.9-27.77 61.9-61.9 0-34.14-27.77-61.91-61.9-61.91-34.14 0-61.89 27.77-61.89 61.91 0 34.13 27.75 61.9 61.89 61.9zm0-133.95c39.73 0 72.06 32.32 72.06 72.05 0 39.72-32.33 72.04-72.06 72.04-39.72 0-72.05-32.32-72.05-72.04 0-39.73 32.33-72.05 72.05-72.05m-7.12 92.95l20.5-20.5-20.5-20.51zm-7.02-57.95l1.96-.39c1.31 0 2.59.52 3.57 1.5l32.76 32.74c.95.95 1.48 2.25 1.48 3.6a5.08 5.08 0 0 1-1.48 3.58l-32.76 32.76a5.06 5.06 0 0 1-5.53 1.09c-1.89-.78-3.12-2.63-3.12-4.68v-65.51c0-2.05 1.23-3.9 3.12-4.69M317.188 323.488c36.718 0 66.589-29.867 66.589-66.59s-29.871-66.589-66.589-66.589-66.59 29.871-66.59 66.589c0 36.723 29.871 66.59 66.59 66.59zm0-144.09c42.734 0 77.507 34.774 77.507 77.5s-34.773 77.5-77.507 77.5c-42.747 0-77.508-34.769-77.508-77.5s34.761-77.5 77.508-77.5m-14.258 37.231c3.008 0 5.449 2.449 5.449 5.473v70.828a5.46 5.46 0 0 1-5.449 5.449c-3.02 0-5.469-2.449-5.469-5.449v-70.828a5.47 5.47 0 0 1 5.469-5.473"/><path d="M331.445 216.629c3.02 0 5.457 2.449 5.457 5.473v70.828c0 3-2.437 5.449-5.457 5.449a5.46 5.46 0 0 1-5.449-5.449v-70.828c0-3.024 2.442-5.473 5.449-5.473"/></g><path d="M2806.42 1686.63h-237.93v204h237.93v-204" class="C"/><g class="E"><path d="M2596.08 1707.79l67.71 127.6 71.84-127.6"/><path d="M2661.05 1707.79l64.43 88.52 55.19-88.52m-26.71 130.31c0-11.83-9.57-21.39-21.37-21.39-11.77 0-21.34 9.56-21.34 21.39 0 11.82 9.57 21.41 21.34 21.41 11.8 0 21.37-9.59 21.37-21.41"/></g><path d="M727.031 571.172c0-16.512-13.496-30-30-30H454.68c-16.504 0-30 13.488-30 30v242.316c0 16.512 13.496 30 30 30h242.351c16.504 0 30-13.488 30-30V571.172" class="B"/><g class="C"><path d="M1020.27 165.84c0-16.5-13.49-30-29.997-30H547.906c-16.5 0-30 13.5-30 30v242.32c0 16.488 13.5 30 30 30h442.367c16.507 0 29.997-13.512 29.997-30V165.84M694.824 604.609H456.895v204.012h237.929V604.609"/></g><g class="E"><path d="M484.492 625.781l67.703 127.59 71.836-127.59"/><path d="M549.465 625.781l64.422 88.52 55.195-88.52M642.363 756.09c0-11.828-9.558-21.391-21.367-21.391-11.766 0-21.34 9.563-21.34 21.391 0 11.82 9.574 21.41 21.34 21.41 11.809 0 21.367-9.59 21.367-21.41"/></g><path d="M642.363 1159.57h-421.34v254.18h421.34v-254.18" class="D"/><g class="C"><path d="M3154.89 1388.71h-147.75v25.04h147.75v-25.04m0-57.1h-147.75v25.03h147.75v-25.03m0-57.11h-147.75v25.04h147.75v-25.04m0-57.11h-147.75v25.04h147.75v-25.04m0-57.11h-147.75v25.04h147.75v-25.04M2322.3 261.961h-854.75V287h854.75v-25.039m0-57.109h-854.75v25.039h854.75v-25.039M2080.63 2134.61h-854.75v25.03h854.75v-25.03"/><path d="M2080.63 2077.5h-854.75v25.04h854.75v-25.04"/></g><path d="M2954.68 1159.57h-421.34v254.18h421.34v-254.18" class="D"/><g class="B"><path d="M204.734 1429.11l490.09-309.75"/><path d="M690.816 1113.02l-490.089 309.75 8.019 12.68 490.086-309.75-8.016-12.68"/><path d="M182.578 1135.23l512.246 306.67"/><path d="M186.43 1128.79l-7.703 12.88 512.246 306.67 7.703-12.88-512.246-306.67m96.793-196.821a16.83 16.83 0 0 1-16.809-16.809c0-9.269 7.539-16.801 16.809-16.801 9.265 0 16.804 7.532 16.804 16.801a16.83 16.83 0 0 1-16.804 16.809zm0-53.61c-20.293 0-36.809 16.512-36.809 36.801s16.516 36.809 36.809 36.809 36.804-16.52 36.804-36.809-16.511-36.801-36.804-36.801m652.175 923.981a16.83 16.83 0 0 1-16.804-16.81c0-9.26 7.539-16.8 16.804-16.8s16.809 7.54 16.809 16.8c0 9.27-7.539 16.81-16.809 16.81zm0-53.61c-20.293 0-36.804 16.51-36.804 36.8s16.511 36.81 36.804 36.81 36.809-16.52 36.809-36.81-16.516-36.8-36.809-36.8m1660.682-923.3c-9.26 0-16.8-7.539-16.8-16.809s7.54-16.812 16.8-16.812c9.27 0 16.81 7.543 16.81 16.812s-7.54 16.809-16.81 16.809zm0-53.621c-20.29 0-36.8 16.519-36.8 36.812s16.51 36.809 36.8 36.809c20.3 0 36.81-16.52 36.81-36.809s-16.51-36.812-36.81-36.812m570.36 56.769c-9.27 0-16.81-7.539-16.81-16.808 0-9.258 7.54-16.801 16.81-16.801a16.83 16.83 0 0 1 16.8 16.801c0 9.269-7.54 16.808-16.8 16.808zm0-53.609c-20.3 0-36.81 16.511-36.81 36.801 0 20.3 16.51 36.808 36.81 36.808 20.29 0 36.8-16.508 36.8-36.808 0-20.29-16.51-36.801-36.8-36.801m-144.11 927.641a16.83 16.83 0 0 1-16.8-16.81c0-9.26 7.54-16.8 16.8-16.8a16.83 16.83 0 0 1 16.81 16.8c0 9.27-7.54 16.81-16.81 16.81zm0-53.61c-20.29 0-36.8 16.51-36.8 36.8 0 20.3 16.51 36.81 36.8 36.81 20.3 0 36.81-16.51 36.81-36.81 0-20.29-16.51-36.8-36.81-36.8M2466 2136.7c-9.27 0-16.81-7.54-16.81-16.81s7.54-16.81 16.81-16.81a16.83 16.83 0 0 1 16.8 16.81 16.83 16.83 0 0 1-16.8 16.81zm0-53.62c-20.3 0-36.81 16.51-36.81 36.81 0 20.29 16.51 36.81 36.81 36.81 20.29 0 36.8-16.52 36.8-36.81 0-20.3-16.51-36.81-36.8-36.81M1153.91 152.641a16.83 16.83 0 0 1-16.81-16.801c0-9.27 7.54-16.809 16.81-16.809 9.26 0 16.8 7.539 16.8 16.809 0 9.262-7.54 16.801-16.8 16.801zm0-53.61c-20.3 0-36.81 16.508-36.81 36.809 0 20.289 16.51 36.801 36.81 36.801 20.29 0 36.8-16.512 36.8-36.801 0-20.301-16.51-36.809-36.8-36.809m1359.43 53.61a16.83 16.83 0 0 1-16.81-16.801c0-9.27 7.54-16.809 16.81-16.809s16.81 7.539 16.81 16.809a16.83 16.83 0 0 1-16.81 16.801zm0-53.61c-20.29 0-36.81 16.508-36.81 36.809 0 20.289 16.52 36.801 36.81 36.801s36.81-16.512 36.81-36.801c0-20.301-16.52-36.809-36.81-36.809"/><path d="M202.125 745.988c-20.047 0-36.355-16.308-36.355-36.359 0-20.027 16.308-36.34 36.355-36.34s36.352 16.313 36.352 36.34c0 20.051-16.309 36.359-36.352 36.359zm0-92.699c-31.074 0-56.355 25.27-56.355 56.34 0 31.082 25.281 56.359 56.355 56.359s56.352-25.277 56.352-56.359c0-31.07-25.278-56.34-56.352-56.34M2665.86 2221.23c-20.05 0-36.36-16.3-36.36-36.35 0-20.04 16.31-36.35 36.36-36.35 20.04 0 36.35 16.31 36.35 36.35 0 20.05-16.31 36.35-36.35 36.35zm0-92.7c-31.07 0-56.36 25.28-56.36 56.35s25.29 56.35 56.36 56.35 56.35-25.28 56.35-56.35-25.28-56.35-56.35-56.35m172.76-1201.889c-20.05 0-36.35-16.313-36.35-36.36s16.3-36.351 36.35-36.351c20.04 0 36.35 16.308 36.35 36.351s-16.31 36.36-36.35 36.36zm0-92.711c-31.07 0-56.35 25.269-56.35 56.351 0 31.071 25.28 56.36 56.35 56.36 31.08 0 56.35-25.289 56.35-56.36 0-31.082-25.27-56.351-56.35-56.351m-62.27-415.258l4.25 23.308c.25 1.411-.14 2.879-1.07 3.989-.92 1.109-2.28 1.75-3.73 1.75h-3.28l6.95 24.351h9.35l-5.19-18.148a4.95 4.95 0 0 1 .8-4.274 4.87 4.87 0 0 1 3.89-1.929h3.67zm23.8 38.789h-5.37l5.17 18.129a4.82 4.82 0 0 1-.78 4.269c-.93 1.231-2.36 1.942-3.9 1.942h-19.47c-2.18 0-4.09-1.43-4.68-3.531l-9.74-34.079a4.89 4.89 0 0 1 .79-4.269 4.88 4.88 0 0 1 3.89-1.942h3.91l-8.7-47.82c-.43-2.351.92-4.68 3.18-5.48l1.61-.258a4.88 4.88 0 0 1 4.29 2.558l34.08 63.301c.81 1.508.78 3.328-.1 4.797a4.89 4.89 0 0 1-4.18 2.383zm9.73 73.027a48.42 48.42 0 0 1-27.35-8.449c-5.13 10.871-16.21 18.191-28.64 18.191-17.45 0-31.65-14.199-31.65-31.652 0-3.367.54-6.699 1.59-9.879-12.65-5.168-21.07-17.429-21.07-31.508 0-18.8 15.3-34.082 34.09-34.082h9.73c2.7 0 4.88 2.18 4.88 4.871s-2.18 4.872-4.88 4.872h-9.73c-13.42 0-24.35 10.918-24.35 24.339 0 11.278 7.99 21.258 18.99 23.727 1.5.352 2.75 1.363 3.37 2.762.64 1.39.57 3.011-.17 4.351-1.77 3.219-2.71 6.867-2.71 10.547 0 12.082 9.83 21.91 21.91 21.91 10.39 0 19.42-7.379 21.47-17.547.35-1.722 1.61-3.121 3.28-3.671 1.68-.532 3.52-.122 4.81 1.082 7.24 6.707 16.63 10.41 26.43 10.41 21.48 0 38.96-17.481 38.96-38.961 0-19.891-14.88-36.531-34.62-38.723-2.68-.289-4.6-2.687-4.31-5.367.3-2.68 2.75-4.57 5.37-4.313 24.68 2.731 43.29 23.543 43.29 48.403 0 26.847-21.84 48.687-48.69 48.687"/></g><g class="E"><path d="M929.844 316.672c-13.688 0-25.746-7.031-32.809-17.66-7.062 10.629-19.125 17.66-32.812 17.66s-25.75-7.031-32.805-17.66c-7.066 10.629-19.129 17.66-32.813 17.66-7.152 0-13.839-1.961-19.625-5.293 13.571 33.812 46.633 57.793 85.243 57.793s71.675-23.981 85.242-57.793c-5.793 3.332-12.473 5.293-19.621 5.293zm39.179-35.363c-2.05 53.832-44.746 97.312-98.242 100.652v6.891c0 3.636-2.933 6.57-6.558 6.57-3.618 0-6.563-2.934-6.563-6.57v-6.891c-53.5-3.34-96.176-46.82-98.23-100.652-.133-1.309-.2-2.649-.2-4.02 0-3.609 2.942-6.559 6.555-6.559a6.58 6.58 0 0 1 6.574 6.559c0 14.473 11.766 26.262 26.246 26.262 14.469 0 26.243-11.789 26.243-26.262 0-3.609 2.945-6.559 6.57-6.559 3.617 0 6.562 2.95 6.562 6.559 0 12.199 8.399 22.383 19.68 25.32V218.23c0-10.851-8.832-19.679-19.68-19.679-10.863 0-19.687 8.828-19.687 19.679 0 3.629-2.945 6.571-6.574 6.571-3.614 0-6.559-2.942-6.559-6.571 0-18.082 14.723-32.8 32.82-32.8 18.083 0 32.801 14.718 32.801 32.8v84.379c11.297-2.937 19.688-13.121 19.688-25.32 0-3.609 2.945-6.559 6.566-6.559s6.563 2.95 6.563 6.559c0 14.473 11.773 26.262 26.246 26.262s26.25-11.789 26.25-26.262a6.57 6.57 0 0 1 6.562-6.559c3.633 0 6.563 2.95 6.563 6.559 0 1.371-.071 2.711-.196 4.02M716.238 350.5H568.492v25.039h147.746V350.5M1991.67 1850.86h-524.12v25.03h524.12v-25.03"/></g><path d="M2323.7 1850.86h-349.82v25.03h349.82v-25.03" class="B"/><g class="E"><path d="M716.238 293.391H568.492v25.039h147.746v-25.039m0-57.11H568.492v25.039h147.746v-25.039m0-57.101H568.492v25.031h147.746V179.18"/></g><path d="M2775.73 1225.12l-.99-.13h-80.57c-19.35 0-35.09 15.73-35.09 35.07 0 16.72 11.89 31.21 28.26 34.43a5.85 5.85 0 0 1 4.04 3c.83 1.56.9 3.4.21 5.03a40.65 40.65 0 0 0-3.27 16.04c0 22.57 18.37 40.93 40.95 40.93 18.66 0 34.96-12.65 39.6-30.76.65-2.53 2.91-4.33 5.51-4.39 27.17-.69 48.45-22.5 48.45-49.65 0-26.4-20.68-48.18-47.1-49.57zm3.23 110.65c-7.28 21.06-27.13 35.42-49.69 35.42-29.03 0-52.65-23.61-52.65-52.63 0-4.91.67-9.72 1.99-14.36-18.43-6.5-31.23-24.11-31.23-44.14 0-25.78 21-46.77 46.79-46.77h81.87l1.63.24c31.98 2.35 56.86 28.97 56.86 61.16 0 32.11-24.08 58.17-55.57 61.08" class="B"/><path d="M2020.92 1863.38a24.63 24.63 0 0 0-24.62-24.63c-13.6 0-24.63 11.02-24.63 24.63 0 13.6 11.03 24.61 24.63 24.61 13.59 0 24.62-11.01 24.62-24.61" class="E"/><path d="M1080.04 861.5h0v629.04h836.46-767.42v-173.58h65.91v-37.89h-65.91V1172.8h344.9l-71.06-53.44h-273.84V913.418l-69.04-51.918m555.25 417.57h-272.71v37.89h323.1l-50.39-37.89" fill="#cdeff7"/><path d="M1916.5 1490.54h-836.46v99.84h969.21l-79.17-59.54v21.06h-147.59v-30h135.7l-41.69-31.36m-296.51 61.36v-30h147.59v30h-147.59m-202.5 0v-30h147.59v30h-147.59m-202.5 0v-30h147.59v30h-147.59" fill="#4dd1e3"/><path d="M1685.68 1316.96h-323.1v73.79h-147.59v-73.79h-65.91v173.58h767.42l-230.82-173.58" fill="#6da8bb"/><g class="B"><path d="M1493.98 1172.8h-344.9v106.27h65.91v-35.9h147.59v35.9h272.71l-47.73-35.9h-199.3v-17.23h176.39l-18.69-14.05h-330.97v-17.23h308.07l-29.08-21.86m-344.9-259.382v205.942h273.84l-60.34-45.38v11.36h-147.59V962.988l-65.91-49.57"/></g><g fill="#cdeff7"><path d="M1362.58 1243.17h-147.59v147.58h147.59v-147.58m-147.59-280.182v122.352h147.59v-11.36l-147.59-110.992m349.66 262.952h-176.39v17.23h199.3l-22.91-17.23"/><path d="M1523.06 1194.66h-308.07v17.23h330.97l-22.9-17.23"/></g><g fill="#ffefff"><use xlink:href="#B"/><path d="M1417.49 1521.9h147.59v30h-147.59zm202.5 0h147.59v30h-147.59zm338.2 0h-135.7v30h147.59v-21.06l-11.89-8.94"/></g></g></svg>