<?xml version="1.0" encoding="UTF-8" standalone="no"?>
<svg
   viewBox="0 0 200 200"
   height="200"
   width="200"
   xml:space="preserve"
   id="svg2"
   version="1.1"
   sodipodi:docname="blog.svg"
   inkscape:version="1.1 (c4e8f9e, 2021-05-24)"
   xmlns:inkscape="http://www.inkscape.org/namespaces/inkscape"
   xmlns:sodipodi="http://sodipodi.sourceforge.net/DTD/sodipodi-0.dtd"
   xmlns="http://www.w3.org/2000/svg"
   xmlns:svg="http://www.w3.org/2000/svg"
   xmlns:rdf="http://www.w3.org/1999/02/22-rdf-syntax-ns#"
   xmlns:cc="http://creativecommons.org/ns#"
   xmlns:dc="http://purl.org/dc/elements/1.1/"><sodipodi:namedview
     id="namedview924"
     pagecolor="#ffffff"
     bordercolor="#666666"
     borderopacity="1.0"
     inkscape:pageshadow="2"
     inkscape:pageopacity="0.0"
     inkscape:pagecheckerboard="0"
     showgrid="false"
     width="200px"
     inkscape:zoom="2.3023228"
     inkscape:cx="6.2979874"
     inkscape:cy="116.40418"
     inkscape:window-width="1280"
     inkscape:window-height="772"
     inkscape:window-x="0"
     inkscape:window-y="0"
     inkscape:window-maximized="0"
     inkscape:current-layer="svg2"
     inkscape:showpageshadow="false" /><metadata
     id="metadata8"><rdf:RDF><cc:Work
         rdf:about=""><dc:format>image/svg+xml</dc:format><dc:type
           rdf:resource="http://purl.org/dc/dcmitype/StillImage" /></cc:Work></rdf:RDF></metadata><defs
     id="defs6"><clipPath
       id="clipPath24"
       clipPathUnits="userSpaceOnUse"><path
         id="path22"
         d="m 8598.21,14380.5 c -2910.5,0.3 -4786.33,2123.6 -3887.06,3625.4 1340.4,2238.4 5596.15,677 8749.95,2895.7 1041.2,732.5 2073.5,995.1 2977.2,995.1 1833.7,0 3137,-1082 2903.8,-1515.9 -348.1,-647.7 -1830.1,44.6 -2512.2,-976.8 -682.2,-1021.4 -1621.8,-1771.5 -3407.1,-3167.5 -1720.7,-1345.5 -3396.9,-1856.2 -4824.59,-1856 m 4308.99,5956.6 -5496.43,-3173.4 2531.4,-1471.1 5496.43,3173.4 -2531.4,1471.1" /></clipPath><linearGradient
       id="linearGradient32"
       spreadMethod="pad"
       gradientTransform="matrix(14884.6,0,0,-14884.6,4484.51,18138.6)"
       gradientUnits="userSpaceOnUse"
       y2="0"
       x2="1"
       y1="0"
       x1="0"><stop
         id="stop28"
         offset="0"
         style="stop-opacity:1;stop-color:#eaf8fe" /><stop
         id="stop30"
         offset="1"
         style="stop-opacity:1;stop-color:#baddf5" /></linearGradient><clipPath
       id="clipPath42"
       clipPathUnits="userSpaceOnUse"><path
         id="path40"
         d="m 16261.4,2290.1 c -1848.3,0.1 -2242.4,1834.9 -3145,2203.7 -64.3,26.3 -127.7,38.4 -191,38.4 -377.7,0 -748.3,-432.1 -1238.9,-864.1 C 11195.8,3236 10585.1,2804 9726.52,2804 c -605.05,0 -1333.32,214.8 -2228.96,795.3 -3650.22,2366 550.43,2790.7 820.3,3556.9 269.88,766.3 -6208.73,1000.9 -1776.32,2090.1 1412.45,347 2709.94,500.5 3874.76,500.5 701.6,0 1355,-55.7 1956.2,-158.4 l 2493.7,-1439.7 507.8,293.2 c 186.3,-129.9 357.2,-267 512.5,-410.5 0,0 4995.2,-4248.8 1835.5,-5436.5 -572.2,-215.1 -1051.9,-304.8 -1460.6,-304.8 M 10647.2,6874.9 7788.93,5229 c -106.06,-61.2 -106.63,-161.5 -1.26,-222.8 L 9234.2,4165.6 c 52.72,-30.7 122.35,-46 192.07,-46 69.73,0 139.56,15.4 192.6,46 l 2872.83,1654.2 2169.1,-1240.6 2668.9,1541 L 11330,9581.3 8603.78,8043.6 10647.2,6874.9" /></clipPath><linearGradient
       id="linearGradient50"
       spreadMethod="pad"
       gradientTransform="matrix(13783.2,0,0,-13783.2,4986.37,6018.5)"
       gradientUnits="userSpaceOnUse"
       y2="0"
       x2="1"
       y1="0"
       x1="0"><stop
         id="stop46"
         offset="0"
         style="stop-opacity:1;stop-color:#eaf8fe" /><stop
         id="stop48"
         offset="1"
         style="stop-opacity:1;stop-color:#baddf5" /></linearGradient><clipPath
       id="clipPath60"
       clipPathUnits="userSpaceOnUse"><path
         id="path58"
         d="m 23061.1,1908.5 c -310.1,0 -597,54.3 -850.8,186.2 -1036.9,539 -987.7,1288.3 -814.7,1762.1 122.7,335.9 478.4,431.1 614.7,481 186.1,68 369.6,90.7 532.6,90.7 287.7,0 511.3,-70.6 572.2,-87 53.9,-14.6 110.1,-21.6 168.4,-21.6 1525.3,0 4524.8,4797.5 8006.2,5128.6 82.9,7.9 165.3,13.2 247,16 -30.9,-8.3 -61.1,-20.6 -89.6,-37.1 L 27732,7282.5 l 625.2,-361 -625.2,-360.9 156.2,-90.1 -156.2,-90.2 625.2,-361 -625.2,-360.9 415.4,-239.5 v -42.1 l 2876.1,-1660.5 3913.6,2259.5 245.5,135.6 -1127.5,583.4 466.6,269.3 -156.2,90.2 156.2,90.1 -625.2,361 625.2,360.9 -2703.8,1561.1 c -31.4,18.1 -64.8,31.3 -99.1,39.5 1593.4,-13.5 2909.5,-919 3404,-1259.3 505,-347.5 1161.5,-809.4 1198.6,-1484.6 29.1,-529 -370.4,-1082.5 -1198.6,-1746.1 -1321.7,-1059 -3787,-2142.4 -5564.9,-2142.4 -374.3,0 -718.2,48 -1014.5,154.4 -200.2,71.9 -418.4,102.9 -650.1,102.9 -716.4,0 -1562.5,-295.8 -2410.5,-591.7 -848,-295.7 -1698,-591.6 -2421.7,-591.6" /></clipPath><linearGradient
       id="linearGradient68"
       spreadMethod="pad"
       gradientTransform="matrix(15023.8,0,0,-15023.8,21299.1,5687.8)"
       gradientUnits="userSpaceOnUse"
       y2="0"
       x2="1"
       y1="0"
       x1="0"><stop
         id="stop64"
         offset="0"
         style="stop-opacity:1;stop-color:#eaf8fe" /><stop
         id="stop66"
         offset="1"
         style="stop-opacity:1;stop-color:#baddf5" /></linearGradient><clipPath
       id="clipPath78"
       clipPathUnits="userSpaceOnUse"><path
         id="path76"
         d="m 21688.9,5607.6 c -585.1,0 -1182.7,184.6 -1798.4,630.9 -1295.7,939.1 -2539.4,1986 -3469.4,2807.9 l 1320.3,762.3 -944,545 20.1,192.9 c 13.2,65.4 -23.2,133.4 -109.5,183.5 -75.1,43.7 -173.8,65.5 -272.5,65.5 -98.8,0 -197.7,-21.8 -273.3,-65.5 -2.8,-1.6 -5.5,-3.2 -8.2,-4.9 l -4738.3,2735.6 -362.3,-209.2 H 10674 v -219.1 l -2133.27,-1231.8 1621.17,-936 c -391.5,-45.1 -781.56,-96.9 -1163.54,-148.7 -1063.88,-144.3 -2065.08,-288.6 -2858.24,-288.6 -935.37,-0.1 -1581.47,200.6 -1700.76,838.5 -31.51,168.5 -25.34,310.7 23.66,476.8 542.5,1839 4707.52,1062.7 8753.88,2975.3 3708.4,1752.9 3034.4,3740.1 5951.6,4391.2 209.5,46.7 419.9,82.6 629.8,108.6 l -449.8,-2176.3 c -27.7,-134.2 36.8,-294.5 143.5,-356.1 l 18.6,-10.7 c -49.1,-6.7 -95.6,-21 -133.6,-43.1 l -5876.8,-3415.2 c -109,-63.4 -108.4,-166.9 1.2,-230.2 L 22375.1,7863 c 50.9,-29.4 118,-44.1 184.9,-44.1 67,0 133.9,14.7 184.5,44.1 l 5890.8,3423.3 c 108.8,63.3 108.2,166.9 -1.3,230.1 l -335.5,193.7 c 41.6,22.1 74,67.3 87,130.2 l 735,3556.1 c 735.8,-783.9 1134.3,-1366.8 2381.6,-1831.2 2278.4,-848.2 3900.3,24.1 4944.3,-1221.2 620.7,-740.2 807.9,-1955.5 336.2,-2476.3 -193.8,-214 -476,-329.4 -899.5,-329.5 -259.4,0 -571.8,43.3 -949.6,133.8 -1246.1,298.4 -2405.5,496.8 -3509.6,496.8 -1477.8,0 -2856.7,-355.3 -4214.2,-1302 C 25392,7599.1 23609.4,5607.6 21688.9,5607.6 m -4959.3,4964.5 v 0 c -15.3,23 -39,44.5 -70.9,63 -61.5,35.8 -142.3,53.7 -223.2,53.7 80.9,0 161.7,-17.9 223.2,-53.7 31.9,-18.5 55.6,-40 70.9,-63 m -294.7,116.7 c 0.1,0 0.2,0 0.3,0 v 0 c -0.1,0 -0.2,0 -0.3,0 m -221.7,14 c 0.7,0.4 1.4,0.8 2.1,1.2 -0.7,-0.4 -1.4,-0.8 -2.1,-1.2 m 440.7,1.6 c -60.9,33.9 -139.6,50.9 -218.4,50.9 78.8,0 157.5,-17 218.4,-50.9 m -219,50.9 c 0.1,0 0.2,0 0.3,0 v 0 c -0.1,0 -0.2,0 -0.3,0" /></clipPath><linearGradient
       id="linearGradient86"
       spreadMethod="pad"
       gradientTransform="matrix(32627.3,0,0,-32627.3,4419.96,12439.3)"
       gradientUnits="userSpaceOnUse"
       y2="0"
       x2="1"
       y1="0"
       x1="0"><stop
         id="stop82"
         offset="0"
         style="stop-opacity:1;stop-color:#eaf8fe" /><stop
         id="stop84"
         offset="1"
         style="stop-opacity:1;stop-color:#baddf5" /></linearGradient><clipPath
       id="clipPath96"
       clipPathUnits="userSpaceOnUse"><path
         id="path94"
         d="m 16729.6,10572.1 h -248.9 c -15.9,2.9 -33,4.4 -50.9,4.4 -5.9,0 -11.7,-0.1 -17.4,-0.5 l -146.4,84.5 c 51.4,18.9 110.2,28.3 168.9,28.3 v 0 c 0.1,0 0.2,0 0.3,0 v 0 c 0.1,0 0.2,0 0.3,0 v 0 c 80.9,0 161.7,-17.9 223.2,-53.7 31.9,-18.5 55.6,-40 70.9,-63" /></clipPath><linearGradient
       id="linearGradient104"
       spreadMethod="pad"
       gradientTransform="matrix(32627.3,0,0,-32627.3,4419.96,12439.3)"
       gradientUnits="userSpaceOnUse"
       y2="0"
       x2="1"
       y1="0"
       x1="0"><stop
         id="stop100"
         offset="0"
         style="stop-opacity:1;stop-color:#eaf8fe" /><stop
         id="stop102"
         offset="1"
         style="stop-opacity:1;stop-color:#baddf5" /></linearGradient><clipPath
       id="clipPath114"
       clipPathUnits="userSpaceOnUse"><path
         id="path112"
         d="m 22560,7818.9 c -66.9,0 -134,14.7 -184.9,44.1 l -8873.7,5123.2 c -109.6,63.3 -110.2,166.8 -1.2,230.2 l 5876.8,3415.2 c 38,22.1 84.5,36.4 133.6,43.1 l 8612.3,-4972.4 c 26.6,-15.3 53.4,-22.6 78.9,-22.6 24.5,0 47.7,6.7 68.4,19.3 9.8,2.6 19.3,6.3 28.3,11.1 l 335.5,-193.7 c 109.5,-63.2 110.1,-166.8 1.3,-230.1 L 22744.5,7863 c -50.6,-29.4 -117.5,-44.1 -184.5,-44.1" /></clipPath><linearGradient
       id="linearGradient122"
       spreadMethod="pad"
       gradientTransform="matrix(32627.3,0,0,-32627.3,4419.96,12439.3)"
       gradientUnits="userSpaceOnUse"
       y2="0"
       x2="1"
       y1="0"
       x1="0"><stop
         id="stop118"
         offset="0"
         style="stop-opacity:1;stop-color:#cad3d6" /><stop
         id="stop120"
         offset="1"
         style="stop-opacity:1;stop-color:#a2bdd0" /></linearGradient><clipPath
       id="clipPath508"
       clipPathUnits="userSpaceOnUse"><path
         id="path506"
         d="m 27334.3,11009.1 -0.3,101.3 244.4,141.1 0.3,-101.3 -244.4,-141.1" /></clipPath><clipPath
       id="clipPath520"
       clipPathUnits="userSpaceOnUse"><path
         id="path518"
         d="m 27680.6,11219.3 -0.3,101.3 244.5,141.2 0.3,-101.3 -244.5,-141.2" /></clipPath><clipPath
       id="clipPath720"
       clipPathUnits="userSpaceOnUse"><path
         id="path718"
         d="M 9942.17,15692.6 7410.77,17163.7 12907.2,20337.1 15438.6,18866 9942.17,15692.6" /></clipPath><linearGradient
       id="linearGradient728"
       spreadMethod="pad"
       gradientTransform="matrix(14884.6,0,0,-14884.6,4484.51,18138.6)"
       gradientUnits="userSpaceOnUse"
       y2="0"
       x2="1"
       y1="0"
       x1="0"><stop
         id="stop724"
         offset="0"
         style="stop-opacity:1;stop-color:#c7d0d3" /><stop
         id="stop726"
         offset="1"
         style="stop-opacity:1;stop-color:#a1bbce" /></linearGradient><clipPath
       id="clipPath954"
       clipPathUnits="userSpaceOnUse"><path
         id="path952"
         d="m 31023.5,3716.3 -2876.1,1660.5 v 42.1 l 2473.8,-1426.1 3900.5,2249.4 -625.2,361 158.6,91.6 1127.5,-583.4 -245.5,-135.6 -3913.6,-2259.5" /></clipPath><linearGradient
       id="linearGradient962"
       spreadMethod="pad"
       gradientTransform="matrix(15023.8,0,0,-15023.8,21299.1,5687.8)"
       gradientUnits="userSpaceOnUse"
       y2="0"
       x2="1"
       y1="0"
       x1="0"><stop
         id="stop958"
         offset="0"
         style="stop-opacity:1;stop-color:#c7d0d3" /><stop
         id="stop960"
         offset="1"
         style="stop-opacity:1;stop-color:#a1bbce" /></linearGradient><clipPath
       id="clipPath1044"
       clipPathUnits="userSpaceOnUse"><path
         id="path1042"
         d="m 14660.8,4579.2 -2169.1,1240.6 947.8,545.8 c 106.2,61.3 106.7,161.5 1.3,222.8 l -1446.6,840.7 c -52.6,30.6 -122.3,45.9 -192,45.9 -69.7,0 -139.5,-15.3 -192.6,-45.9 L 10647.2,6874.9 8603.78,8043.6 11330,9581.3 17329.7,6120.2 14660.8,4579.2" /></clipPath><linearGradient
       id="linearGradient1052"
       spreadMethod="pad"
       gradientTransform="matrix(13783.2,0,0,-13783.2,4986.37,6018.5)"
       gradientUnits="userSpaceOnUse"
       y2="0"
       x2="1"
       y1="0"
       x1="0"><stop
         id="stop1048"
         offset="0"
         style="stop-opacity:1;stop-color:#c7d0d3" /><stop
         id="stop1050"
         offset="1"
         style="stop-opacity:1;stop-color:#a1bbce" /></linearGradient><clipPath
       id="clipPath1078"
       clipPathUnits="userSpaceOnUse"><path
         id="path1076"
         d="m 11324.8,10176.3 -44.6,-24.3 c 15.9,8.7 34.9,12.4 55.2,9.5 l 44.6,24.3 c -20.3,2.8 -39.3,-0.8 -55.2,-9.5" /></clipPath><clipPath
       id="clipPath1092"
       clipPathUnits="userSpaceOnUse"><path
         id="path1090"
         d="m 11391.1,9947.8 44.6,24.2 c 28.9,15.7 48,47.9 48,87.6 -0.2,61.7 -46.5,118.2 -103.7,126.2 l -44.6,-24.3 c 57.2,-8 103.6,-64.5 103.7,-126.1 0,-39.8 -19.1,-71.9 -48,-87.6" /></clipPath><clipPath
       id="clipPath1128"
       clipPathUnits="userSpaceOnUse"><path
         id="path1126"
         d="m 8837.14,8747.1 -44.58,-24.3 c 15.97,8.7 34.92,12.4 55.26,9.5 l 44.59,24.3 c -20.34,2.9 -39.29,-0.8 -55.27,-9.5" /></clipPath><clipPath
       id="clipPath1142"
       clipPathUnits="userSpaceOnUse"><path
         id="path1140"
         d="m 8903.5,8518.6 44.59,24.2 c 28.9,15.8 48.02,47.9 47.94,87.6 -0.11,61.7 -46.48,118.2 -103.62,126.2 l -44.59,-24.3 c 57.14,-8 103.52,-64.4 103.62,-126.1 0.08,-39.7 -19.04,-71.9 -47.94,-87.6" /></clipPath><clipPath
       id="clipPath1206"
       clipPathUnits="userSpaceOnUse"><path
         id="path1204"
         d="m 17077.8,6851.9 -44.6,-24.2 c 16,8.7 35,12.3 55.3,9.5 l 44.6,24.2 c -20.3,2.9 -39.3,-0.8 -55.3,-9.5" /></clipPath><clipPath
       id="clipPath1226"
       clipPathUnits="userSpaceOnUse"><path
         id="path1224"
         d="m 17144.2,6623.4 44.6,24.3 c 28.9,15.7 48,47.8 47.9,87.6 -0.1,61.6 -46.5,118.1 -103.6,126.1 l -44.6,-24.2 c 57.2,-8.1 103.5,-64.5 103.6,-126.2 0.1,-39.7 -19,-71.9 -47.9,-87.6" /></clipPath><clipPath
       id="clipPath1276"
       clipPathUnits="userSpaceOnUse"><path
         id="path1274"
         d="m 14590.2,5422.7 -44.6,-24.2 c 16,8.7 34.9,12.3 55.3,9.5 l 44.6,24.2 c -20.4,2.9 -39.3,-0.8 -55.3,-9.5" /></clipPath><clipPath
       id="clipPath1290"
       clipPathUnits="userSpaceOnUse"><path
         id="path1288"
         d="m 14656.6,5194.2 44.6,24.3 c 28.8,15.7 48,47.9 47.9,87.6 -0.1,61.6 -46.5,118.1 -103.6,126.1 l -44.6,-24.2 c 57.1,-8.1 103.5,-64.5 103.6,-126.2 0.1,-39.7 -19,-71.9 -47.9,-87.6" /></clipPath><clipPath
       id="clipPath1506"
       clipPathUnits="userSpaceOnUse"><path
         id="path1504"
         d="m 13833.6,10205.4 c -7.6,0 -13.8,3.3 -13.8,7.4 0,4.1 6.2,7.5 13.8,7.5 7.6,0 13.7,-3.4 13.7,-7.5 0,-4.1 -6.1,-7.4 -13.7,-7.4" /></clipPath><clipPath
       id="clipPath1670"
       clipPathUnits="userSpaceOnUse"><path
         id="path1668"
         d="m 16480.7,10572.1 h -61.5 l -6.8,3.9 c 5.7,0.4 11.5,0.5 17.4,0.5 17.9,0 35,-1.5 50.9,-4.4" /></clipPath><linearGradient
       id="linearGradient1678"
       spreadMethod="pad"
       gradientTransform="matrix(32627.3,0,0,-32627.3,4419.96,12439.3)"
       gradientUnits="userSpaceOnUse"
       y2="0"
       x2="1"
       y1="0"
       x1="0"><stop
         id="stop1674"
         offset="0"
         style="stop-opacity:1;stop-color:#4b271f" /><stop
         id="stop1676"
         offset="1"
         style="stop-opacity:1;stop-color:#4b271f" /></linearGradient><clipPath
       id="clipPath1712"
       clipPathUnits="userSpaceOnUse"><path
         id="path1710"
         d="m 9426.27,4119.6 c -69.72,0 -139.35,15.3 -192.07,46 l -1446.53,840.6 c -105.37,61.3 -104.8,161.6 1.26,222.8 L 10647.2,6874.9 12491.7,5819.8 9618.87,4165.6 c -53.04,-30.6 -122.87,-46 -192.6,-46" /></clipPath><linearGradient
       id="linearGradient1718"
       spreadMethod="pad"
       gradientTransform="matrix(13783.2,0,0,-13783.2,4986.37,6018.5)"
       gradientUnits="userSpaceOnUse"
       y2="0"
       x2="1"
       y1="0"
       x1="0"><stop
         id="stop1714"
         offset="0"
         style="stop-opacity:1;stop-color:#c7d0d3" /><stop
         id="stop1716"
         offset="1"
         style="stop-opacity:1;stop-color:#a1bbce" /></linearGradient><clipPath
       id="clipPath1728"
       clipPathUnits="userSpaceOnUse"><path
         id="path1726"
         d="m 12491.7,5819.8 -1844.5,1055.1 962.4,554.2 c 53.1,30.6 122.9,45.9 192.6,45.9 69.7,0 139.4,-15.3 192,-45.9 l 1446.6,-840.7 c 105.4,-61.3 104.9,-161.5 -1.3,-222.8 l -947.8,-545.8" /></clipPath><linearGradient
       id="linearGradient1734"
       spreadMethod="pad"
       gradientTransform="matrix(13783.2,0,0,-13783.2,4986.37,6018.5)"
       gradientUnits="userSpaceOnUse"
       y2="0"
       x2="1"
       y1="0"
       x1="0"><stop
         id="stop1730"
         offset="0"
         style="stop-opacity:1;stop-color:#aaafb1" /><stop
         id="stop1732"
         offset="1"
         style="stop-opacity:1;stop-color:#8b9fad" /></linearGradient><clipPath
       clipPathUnits="userSpaceOnUse"
       id="clipPath8585"><rect
         style="fill:#66e0f0;fill-opacity:1;stroke-width:7.72632;stroke-linejoin:round"
         id="rect8587"
         width="2351.8999"
         height="2351.8999"
         x="503.98001"
         y="-2351.8999"
         transform="scale(1,-1)" /></clipPath></defs><g
     transform="matrix(0.08503763,0,0,-0.08503763,-42.857266,200)"
     id="g12"
     clip-path="url(#clipPath8585)"><path
       id="path14"
       style="fill:#00bddc;fill-opacity:1;fill-rule:nonzero;stroke:none"
       d="M 0,0 H 3359.86 V 2351.9 H 0 Z" /><path
       id="path16"
       style="fill:#10a9c6;fill-opacity:1;fill-rule:nonzero;stroke:none"
       d="M 828.398,930.531 716.074,1042.85 H 227.621 c -19.738,0 -35.734,16 -35.734,35.74 v 319.1 c 0,19.74 15.996,35.74 35.734,35.74 H 901.57 c 19.743,0 35.735,-16 35.735,-35.74 v -319.1 c 0,-19.74 -15.992,-35.74 -35.735,-35.74 H 828.398 V 930.531" /><path
       id="path18"
       style="fill:#10a9c6;fill-opacity:1;fill-rule:nonzero;stroke:none"
       d="m 2610.82,930.531 v 112.319 h -73.17 c -19.75,0 -35.75,16 -35.75,35.74 v 319.1 c 0,19.74 16,35.74 35.75,35.74 h 673.94 c 19.75,0 35.74,-16 35.74,-35.74 v -319.1 c 0,-19.74 -15.99,-35.74 -35.74,-35.74 H 2723.14 L 2610.82,930.531" /><path
       id="path20"
       style="fill:#10a9c6;fill-opacity:1;fill-rule:nonzero;stroke:none"
       d="M 1062.65,2017.07 H 959.094 c -16.496,0 -30.004,13.5 -30.004,30 v 103.56 c 0,16.5 13.508,30 30.004,30 h 103.556 c 16.5,0 30,-13.5 30,-30 v -103.56 c 0,-16.5 -13.5,-30 -30,-30" /><path
       id="path22-4"
       style="fill:#10a9c6;fill-opacity:1;fill-rule:nonzero;stroke:none"
       d="m 1252.33,1953.36 v 43.71 h -30.74 c -16.5,0 -30,13.5 -30,30 v 103.56 c 0,16.5 13.5,30 30,30 h 930.53 c 16.5,0 30,-13.5 30,-30 v -103.56 c 0,-16.5 -13.5,-30 -30,-30 h -809.73 l -90.06,-43.71" /><path
       id="path24"
       style="fill:#10a9c6;fill-opacity:1;fill-rule:nonzero;stroke:none"
       d="M 1307.96,1760.55 H 1204.4 c -16.5,0 -30,13.5 -30,30 v 103.57 c 0,16.49 13.5,30 30,30 h 103.56 c 16.5,0 30,-13.51 30,-30 v -103.57 c 0,-16.5 -13.5,-30 -30,-30" /><path
       id="path26"
       style="fill:#10a9c6;fill-opacity:1;fill-rule:nonzero;stroke:none"
       d="m 1497.65,1696.83 v 43.72 h -30.75 c -16.5,0 -30,13.5 -30,30 v 103.57 c 0,16.49 13.5,30 30,30 h 930.53 c 16.51,0 30,-13.51 30,-30 v -103.57 c 0,-16.5 -13.49,-30 -30,-30 H 1587.7 l -90.05,-43.72" /><path
       id="path28"
       style="fill:#10a9c6;fill-opacity:1;fill-rule:nonzero;stroke:none"
       d="M 1307.96,292.34 H 1204.4 c -16.5,0 -30,13.512 -30,30 v 103.558 c 0,16.512 13.5,30 30,30 h 103.56 c 16.5,0 30,-13.488 30,-30 V 322.34 c 0,-16.488 -13.5,-30 -30,-30" /><path
       id="path30"
       style="fill:#10a9c6;fill-opacity:1;fill-rule:nonzero;stroke:none"
       d="M 1497.65,68.6016 V 112.32 h -30.75 c -16.5,0 -30,13.512 -30,30 v 263.578 c 0,16.512 13.5,30 30,30 h 930.53 c 16.51,0 30,-13.488 30,-30 V 142.32 c 0,-16.488 -13.49,-30 -30,-30 H 1587.7 l -90.05,-43.7184" /><path
       id="path32"
       style="fill:#10a9c6;fill-opacity:1;fill-rule:nonzero;stroke:none"
       d="M 2471.82,544.199 H 955.168 l -30.09,25.34 v 41.652 l 120.342,133.911 36.89,-0.082 c -19.88,2.281 -35.51,19.089 -35.51,39.558 v 12.184 c 3.04,-0.75 6.23,-1.153 9.5,-1.153 h 1252.39 c 22,0 40,18 40,40 v 768.471 c 17.46,-4.29 30.5,-20.12 30.5,-38.85 V 784.578 c 0,-22.008 -18,-40 -40,-40 h -1025.7 l 1067.3,-2.098 115.7,-131.289 v -41.652 h 5.41 l -30.08,-25.34" /><path
       id="path34"
       style="fill:#10a9c6;fill-opacity:1;fill-rule:nonzero;stroke:none"
       d="m 3207.33,1955.23 h -164.9 c -16.5,0 -30,13.5 -30,30 v 164.88 c 0,16.51 13.5,30 30,30 h 164.9 c 16.51,0 30,-13.49 30,-30 v -164.88 c 0,-16.5 -13.49,-30 -30,-30" /><path
       id="path36"
       style="fill:#10a9c6;fill-opacity:1;fill-rule:nonzero;stroke:none"
       d="M 430.137,113.422 H 265.234 c -16.504,0 -30,13.5 -30,30 v 164.887 c 0,16.5 13.496,30 30,30 h 164.903 c 16.504,0 30,-13.5 30,-30 V 143.422 c 0,-16.5 -13.496,-30 -30,-30" /><path
       id="path38"
       style="fill:#10a9c6;fill-opacity:1;fill-rule:nonzero;stroke:none"
       d="m 2849.12,1582.14 h -242.35 c -16.51,0 -30,13.5 -30,30 v 242.33 c 0,16.5 13.49,30 30,30 h 242.35 c 16.51,0 30,-13.5 30,-30 v -242.33 c 0,-16.5 -13.49,-30 -30,-30" /><path
       id="path40-9"
       style="fill:#10a9c6;fill-opacity:1;fill-rule:nonzero;stroke:none"
       d="M 727.934,1616.92 H 333.309 c -30.457,0 -56.641,19.24 -67.024,46.15 8.219,-3.3 17.168,-5.12 26.528,-5.12 h 394.625 c 39.488,0 71.789,32.33 71.789,71.79 v 394.59 c 0,9.02 -1.688,17.67 -4.762,25.64 26.457,-10.61 45.262,-36.56 45.262,-66.67 v -5.76 -388.83 c 0,-39.47 -32.305,-71.79 -71.793,-71.79" /><path
       id="path42"
       style="fill:#10a9c6;fill-opacity:1;fill-rule:nonzero;stroke:none"
       d="m 3139.76,93.7109 h -394.63 c -30.45,0 -56.64,19.2301 -67.02,46.1411 8.22,-3.293 17.17,-5.114 26.52,-5.114 h 394.63 c 39.49,0 71.79,32.332 71.79,71.793 v 394.59 c 0,9.02 -1.68,17.66 -4.76,25.641 26.46,-10.614 45.26,-36.571 45.26,-66.684 V 554.32 165.488 c 0,-39.457 -32.3,-71.7771 -71.79,-71.7771" /><path
       id="path44"
       style="fill:#10a9c6;fill-opacity:1;fill-rule:nonzero;stroke:none"
       d="M 737.527,500.129 H 495.176 c -16.504,0 -30,13.5 -30,30 v 242.332 c 0,16.5 13.496,30 30,30 h 242.351 c 16.508,0 30,-13.5 30,-30 V 530.129 c 0,-16.5 -13.492,-30 -30,-30" /><path
       id="path46"
       style="fill:#10a9c6;fill-opacity:1;fill-rule:nonzero;stroke:none"
       d="M 1030.77,94.8008 H 588.402 c -16.496,0 -30,13.5082 -30,30.0002 v 242.32 c 0,16.5 13.504,30 30,30 h 442.368 c 16.51,0 30,-13.5 30,-30 v -242.32 c 0,-16.492 -13.49,-30.0002 -30,-30.0002" /><path
       id="path48"
       style="fill:#2b5a5f;fill-opacity:1;fill-rule:nonzero;stroke:none"
       d="m 1016.3,835.609 c 0,-22 18,-40 40,-40 h 1252.39 c 22,0 40,18 40,40 v 780.661 c 0,22 -18,40 -40,40 H 1056.3 c -22,0 -40,-18 -40,-40 V 835.609" /><path
       id="path50"
       style="fill:#b7e8f3;fill-opacity:1;fill-rule:nonzero;stroke:none"
       d="m 1080.04,861.5 h 1204.91 v 728.875 H 1080.04 Z" /><path
       id="path52"
       style="fill:#ffffff;fill-opacity:1;fill-rule:nonzero;stroke:none"
       d="M 861.074,1474.47 H 187.125 c -19.742,0 -35.738,-16.01 -35.738,-35.74 v -319.11 c 0,-19.73 15.996,-35.74 35.738,-35.74 H 675.574 L 787.898,971.57 v 112.31 h 73.176 c 19.742,0 35.739,16.01 35.739,35.74 v 319.11 c 0,19.73 -15.997,35.74 -35.739,35.74" /><path
       id="path54"
       style="fill:#ffffff;fill-opacity:1;fill-rule:nonzero;stroke:none"
       d="m 2497.15,1474.47 h 673.94 c 19.75,0 35.75,-16.01 35.75,-35.74 v -319.11 c 0,-19.73 -16,-35.74 -35.75,-35.74 H 2682.65 L 2570.32,971.57 v 112.31 h -73.17 c -19.75,0 -35.74,16.01 -35.74,35.74 v 319.11 c 0,19.73 15.99,35.74 35.74,35.74" /><path
       id="path56"
       style="fill:#ffffff;fill-opacity:1;fill-rule:nonzero;stroke:none"
       d="m 1211.84,2038.11 v -43.72 l 90.05,43.72" /><path
       id="path58-1"
       style="fill:#ffffff;fill-opacity:1;fill-rule:nonzero;stroke:none"
       d="m 1072.15,2068.11 c 0,-16.5 -13.5,-30 -30,-30 H 938.594 c -16.5,0 -30,13.5 -30,30 v 103.56 c 0,16.5 13.5,30 30,30 h 103.556 c 16.5,0 30,-13.5 30,-30 v -103.56" /><path
       id="path60"
       style="fill:#ffffff;fill-opacity:1;fill-rule:nonzero;stroke:none"
       d="m 2141.62,2068.11 c 0,-16.5 -13.49,-30 -30,-30 h -930.53 c -16.5,0 -30,13.5 -30,30 v 103.56 c 0,16.5 13.5,30 30,30 h 930.53 c 16.51,0 30,-13.5 30,-30 v -103.56" /><path
       id="path62"
       style="fill:#b7e8f3;fill-opacity:1;fill-rule:nonzero;stroke:none"
       d="m 1457.15,1781.59 v -43.72 l 90.06,43.72" /><path
       id="path64"
       style="fill:#b7e8f3;fill-opacity:1;fill-rule:nonzero;stroke:none"
       d="m 1317.46,1811.59 c 0,-16.5 -13.5,-30 -30,-30 h -103.55 c -16.51,0 -30,13.5 -30,30 v 103.56 c 0,16.49 13.49,30 30,30 h 103.55 c 16.5,0 30,-13.51 30,-30 v -103.56" /><path
       id="path66"
       style="fill:#b7e8f3;fill-opacity:1;fill-rule:nonzero;stroke:none"
       d="m 2386.93,1811.59 c 0,-16.5 -13.49,-30 -30,-30 h -930.52 c -16.51,0 -30,13.5 -30,30 v 103.56 c 0,16.49 13.49,30 30,30 h 930.52 c 16.51,0 30,-13.51 30,-30 v -103.56" /><path
       id="path68"
       style="fill:#ffffff;fill-opacity:1;fill-rule:nonzero;stroke:none"
       d="m 1457.15,153.359 v -43.73 l 90.06,43.73" /><path
       id="path70"
       style="fill:#ffffff;fill-opacity:1;fill-rule:nonzero;stroke:none"
       d="m 1317.46,343.371 c 0,-16.492 -13.5,-30 -30,-30 h -103.55 c -16.51,0 -30,13.508 -30,30 v 103.57 c 0,16.5 13.49,30 30,30 h 103.55 c 16.5,0 30,-13.5 30,-30 v -103.57" /><path
       id="path72"
       style="fill:#ffffff;fill-opacity:1;fill-rule:nonzero;stroke:none"
       d="m 2386.93,183.359 c 0,-16.5 -13.49,-30 -30,-30 h -930.52 c -16.51,0 -30,13.5 -30,30 v 263.582 c 0,16.5 13.49,30 30,30 h 930.52 c 16.51,0 30,-13.5 30,-30 V 183.359" /><path
       id="path74"
       style="fill:#ffffff;fill-opacity:1;fill-rule:nonzero;stroke:none"
       d="M 1014.92,796.141 894.578,662.219 H 2466 l -115.71,131.293" /><path
       id="path76-5"
       style="fill:#2b5a5f;fill-opacity:1;fill-rule:nonzero;stroke:none"
       d="m 1121.39,781.102 -64.81,-69.442 h 1249.74 l -65.97,65.961" /><path
       id="path78"
       style="fill:#e8e8e8;fill-opacity:1;fill-rule:nonzero;stroke:none"
       d="M 2466,620.57 H 894.578 v 41.649 H 2466 V 620.57" /><path
       id="path80"
       style="fill:#afafaf;fill-opacity:1;fill-rule:nonzero;stroke:none"
       d="m 894.578,620.57 30.09,-25.34 h 758.322 v 25.34" /><path
       id="path82"
       style="fill:#afafaf;fill-opacity:1;fill-rule:nonzero;stroke:none"
       d="m 2471.41,620.57 -30.09,-25.34 h -758.33 v 25.34" /><path
       id="path84"
       style="fill:#00bdd7;fill-opacity:1;fill-rule:nonzero;stroke:none"
       d="m 1080.04,1490.54 h 1204.91 v 99.832 H 1080.04 Z" /><path
       id="path86"
       style="fill:#2e839d;fill-opacity:1;fill-rule:nonzero;stroke:none"
       d="m 1149.08,1316.96 h 1066.83 v 173.582 H 1149.08 Z" /><path
       id="path88"
       style="fill:#ffffff;fill-opacity:1;fill-rule:nonzero;stroke:none"
       d="m 1149.08,1172.8 h 1066.83 v 106.27 H 1149.08 Z" /><path
       id="path90"
       style="fill:#ffffff;fill-opacity:1;fill-rule:nonzero;stroke:none"
       d="m 1149.08,906.898 h 1066.83 v 212.461 H 1149.08 Z" /><path
       id="path92"
       style="fill:#b7e8f3;fill-opacity:1;fill-rule:nonzero;stroke:none"
       d="m 1214.99,1243.17 h 147.59 v 147.574 h -147.59 z" /><path
       id="path94-5"
       style="fill:#b7e8f3;fill-opacity:1;fill-rule:nonzero;stroke:none"
       d="m 1214.99,940.828 h 147.59 v 144.512 h -147.59 z" /><path
       id="path96"
       style="fill:#b7e8f3;fill-opacity:1;fill-rule:nonzero;stroke:none"
       d="m 1388.26,1225.94 h 764.32 v 17.2305 h -764.32 z" /><path
       id="path98"
       style="fill:#b7e8f3;fill-opacity:1;fill-rule:nonzero;stroke:none"
       d="m 1214.99,1194.66 h 937.594 v 17.2305 H 1214.99 Z" /><path
       id="path100"
       style="fill:#b7e8f3;fill-opacity:1;fill-rule:nonzero;stroke:none"
       d="m 2152.58,1064.66 h -764.32 v 17.23 h 764.32 v -17.23" /><path
       id="path102"
       style="fill:#b7e8f3;fill-opacity:1;fill-rule:nonzero;stroke:none"
       d="m 2152.58,1033.38 h -764.32 v 17.23 h 764.32 v -17.23" /><path
       id="path104"
       style="fill:#b7e8f3;fill-opacity:1;fill-rule:nonzero;stroke:none"
       d="m 2152.58,1002.94 h -764.32 v 17.22 h 764.32 v -17.22" /><path
       id="path106"
       style="fill:#b7e8f3;fill-opacity:1;fill-rule:nonzero;stroke:none"
       d="m 2152.58,971.66 h -764.32 v 17.219 h 764.32 V 971.66" /><path
       id="path108"
       style="fill:#b7e8f3;fill-opacity:1;fill-rule:nonzero;stroke:none"
       d="m 2152.58,940.828 h -764.32 v 17.223 h 764.32 v -17.223" /><path
       id="path110"
       style="fill:#ffe8ff;fill-opacity:1;fill-rule:nonzero;stroke:none"
       d="m 1214.99,1521.9 h 147.59 v 30 h -147.59 z" /><path
       id="path112-5"
       style="fill:#ffe8ff;fill-opacity:1;fill-rule:nonzero;stroke:none"
       d="m 1417.49,1521.9 h 147.59 v 30 h -147.59 z" /><path
       id="path114"
       style="fill:#ffe8ff;fill-opacity:1;fill-rule:nonzero;stroke:none"
       d="m 1619.99,1521.9 h 147.59 v 30 h -147.59 z" /><path
       id="path116"
       style="fill:#ffe8ff;fill-opacity:1;fill-rule:nonzero;stroke:none"
       d="m 1822.49,1521.9 h 147.59 v 30 h -147.59 z" /><path
       id="path118"
       style="fill:#ffe8ff;fill-opacity:1;fill-rule:nonzero;stroke:none"
       d="m 2172.58,1521.9 h -147.59 v 30 h 147.59 v -30" /><path
       id="path120"
       style="fill:#2e839d;fill-opacity:1;fill-rule:nonzero;stroke:none"
       d="m 1031.88,2098.6 -21.28,21.29 21.28,21.25 c 2.22,2.24 2.18,5.88 0,8.11 l -12.14,12.13 c -2.25,2.24 -5.9,2.24 -8.11,0 l -21.278,-21.23 -21.243,21.23 c -2.222,2.24 -5.855,2.24 -8.101,0 l -12.141,-12.13 c -2.226,-2.23 -2.226,-5.87 0,-8.11 l 21.262,-21.25 -21.262,-21.29 c -2.226,-2.22 -2.226,-5.86 0,-8.08 l 12.141,-12.14 c 2.207,-2.22 5.879,-2.22 8.101,0 l 21.243,21.25 21.278,-21.25 c 2.21,-2.22 5.86,-2.22 8.11,0 l 12.14,12.14 c 2.22,2.22 2.22,5.9 0,8.08" /><path
       id="path122"
       style="fill:#2e839d;fill-opacity:1;fill-rule:nonzero;stroke:none"
       d="m 1277.39,373.871 -21.29,21.289 21.29,21.25 c 2.22,2.25 2.18,5.879 0,8.121 l -12.15,12.129 c -2.24,2.231 -5.89,2.231 -8.1,0 l -21.28,-21.23 -21.24,21.23 c -2.23,2.231 -5.86,2.231 -8.11,0 l -12.13,-12.129 c -2.23,-2.242 -2.23,-5.871 0,-8.121 l 21.25,-21.25 -21.25,-21.289 c -2.23,-2.211 -2.23,-5.859 0,-8.07 l 12.13,-12.141 c 2.21,-2.23 5.88,-2.23 8.11,0 l 21.24,21.25 21.28,-21.262 c 2.21,-2.218 5.86,-2.218 8.1,0.012 l 12.15,12.141 c 2.22,2.211 2.22,5.89 0,8.07" /><path
       id="path124"
       style="fill:#2e839d;fill-opacity:1;fill-rule:nonzero;stroke:none"
       d="m 1281.23,1893.81 -14.39,11.64 c -1.51,1.21 -3.76,0.98 -4.96,-0.54 l -39.32,-48.68 -15.36,13.98 c -1.49,1.33 -3.71,1.23 -5.03,-0.23 l -12.43,-13.68 c -1.31,-1.43 -1.22,-3.66 0.23,-4.99 l 32.92,-29.92 c 1.44,-1.3 3.6,-1.15 4.85,0.4 l 11.6,14.46 0.06,0.05 42.37,52.52 c 1.25,1.54 0.99,3.8 -0.54,4.99" /><path
       id="path126"
       style="fill:#b7e8f3;fill-opacity:1;fill-rule:nonzero;stroke:none"
       d="m 2322.58,323.148 h -857.71 v 103.774 h 857.71 V 323.148" /><path
       id="path128"
       style="fill:#2b5a5f;fill-opacity:1;fill-rule:nonzero;stroke:none"
       d="m 3206.84,2016.27 c 0,-16.51 -13.5,-30 -30,-30 h -164.91 c -16.5,0 -30,13.49 -30,30 v 164.88 c 0,16.5 13.5,30 30,30 h 164.91 c 16.5,0 30,-13.5 30,-30 v -164.88" /><path
       id="path130"
       style="fill:#2b5a5f;fill-opacity:1;fill-rule:nonzero;stroke:none"
       d="m 429.641,174.461 c 0,-16.512 -13.496,-30 -30,-30 H 234.734 c -16.504,0 -30,13.488 -30,30 V 339.34 c 0,16.512 13.496,30 30,30 h 164.907 c 16.504,0 30,-13.488 30,-30 V 174.461" /><path
       id="path132"
       style="fill:#ffffff;fill-opacity:1;fill-rule:nonzero;stroke:none"
       d="m 2838.62,1653.18 c 0,-16.5 -13.49,-30 -30,-30 h -242.35 c -16.5,0 -30,13.5 -30,30 v 242.32 c 0,16.51 13.5,30 30,30 h 242.35 c 16.51,0 30,-13.49 30,-30 v -242.32" /><path
       id="path134"
       style="fill:#2b5a5f;fill-opacity:1;fill-rule:nonzero;stroke:none"
       d="m 759.227,1729.74 c 0,-39.46 -32.301,-71.79 -71.789,-71.79 H 292.813 c -39.485,0 -71.79,32.33 -71.79,71.79 v 394.59 c 0,39.47 32.305,71.79 71.79,71.79 h 394.625 c 39.488,0 71.789,-32.32 71.789,-71.79 v -394.59" /><path
       id="path136"
       style="fill:#b7e8f3;fill-opacity:1;fill-rule:nonzero;stroke:none"
       d="m 759.23,2118.57 v 5.76 c 0,39.47 -32.304,71.79 -71.792,71.79 H 292.813 c -39.485,0 -71.79,-32.32 -71.79,-71.79 v -5.76 H 759.23" /><path
       id="path138"
       style="fill:#ffffff;fill-opacity:1;fill-rule:nonzero;stroke:none"
       d="m 367.355,1972.33 c -14.882,0 -26.996,12.09 -26.996,26.98 0,14.89 12.114,27 26.996,27 14.887,0 26.993,-12.11 26.993,-27 0,-14.89 -12.106,-26.98 -26.993,-26.98 z m 0,65.08 c -21.011,0 -38.093,-17.09 -38.093,-38.1 0,-21.01 17.082,-38.1 38.093,-38.1 21.004,0 38.09,17.09 38.09,38.1 0,21.01 -17.086,38.1 -38.09,38.1" /><path
       id="path140"
       style="fill:#ffffff;fill-opacity:1;fill-rule:nonzero;stroke:none"
       d="m 367.355,2049.49 c 3.067,0 5.543,2.49 5.543,5.56 v 17.49 c 0,3.06 -2.476,5.55 -5.543,5.55 -3.07,0 -5.542,-2.49 -5.542,-5.55 v -17.49 c 0,-3.07 2.472,-5.56 5.542,-5.56" /><path
       id="path142"
       style="fill:#ffffff;fill-opacity:1;fill-rule:nonzero;stroke:none"
       d="m 367.355,1949.14 c -3.07,0 -5.542,-2.5 -5.542,-5.56 v -17.48 c 0,-3.07 2.472,-5.55 5.542,-5.55 3.067,0 5.543,2.48 5.543,5.55 v 17.48 c 0,3.06 -2.476,5.56 -5.543,5.56" /><path
       id="path144"
       style="fill:#ffffff;fill-opacity:1;fill-rule:nonzero;stroke:none"
       d="m 406.742,2033.17 c 1.434,0 2.844,0.54 3.926,1.62 l 12.383,12.38 c 2.168,2.16 2.168,5.67 0,7.85 -2.168,2.16 -5.68,2.16 -7.84,0 l -12.379,-12.39 c -2.172,-2.16 -2.172,-5.67 0,-7.84 1.086,-1.08 2.5,-1.62 3.91,-1.62" /><path
       id="path146"
       style="fill:#ffffff;fill-opacity:1;fill-rule:nonzero;stroke:none"
       d="m 324.031,1963.84 -12.383,-12.37 c -2.16,-2.17 -2.16,-5.68 0,-7.84 1.086,-1.09 2.512,-1.64 3.926,-1.64 1.422,0 2.844,0.55 3.93,1.64 l 12.371,12.36 c 2.164,2.16 2.164,5.69 0,7.85 -2.164,2.16 -5.68,2.16 -7.844,0" /><path
       id="path148"
       style="fill:#ffffff;fill-opacity:1;fill-rule:nonzero;stroke:none"
       d="m 440.57,2004.86 h -17.504 c -3.062,0 -5.543,-2.48 -5.543,-5.55 0,-3.06 2.481,-5.56 5.543,-5.56 h 17.504 c 3.067,0 5.551,2.5 5.551,5.56 0,3.07 -2.484,5.55 -5.551,5.55" /><path
       id="path150"
       style="fill:#ffffff;fill-opacity:1;fill-rule:nonzero;stroke:none"
       d="m 317.188,1999.31 c 0,3.07 -2.493,5.55 -5.551,5.55 h -17.504 c -3.063,0 -5.543,-2.48 -5.543,-5.55 0,-3.06 2.48,-5.56 5.543,-5.56 h 17.504 c 3.058,0 5.551,2.5 5.551,5.56" /><path
       id="path152"
       style="fill:#ffffff;fill-opacity:1;fill-rule:nonzero;stroke:none"
       d="m 410.668,1963.84 c -2.16,2.16 -5.672,2.16 -7.836,0 -2.172,-2.16 -2.172,-5.69 0,-7.85 l 12.379,-12.36 c 1.082,-1.09 2.504,-1.64 3.922,-1.64 1.418,0 2.836,0.55 3.918,1.64 2.168,2.16 2.168,5.67 0,7.84 l -12.383,12.37" /><path
       id="path154"
       style="fill:#ffffff;fill-opacity:1;fill-rule:nonzero;stroke:none"
       d="m 324.031,2034.79 c 1.086,-1.08 2.5,-1.62 3.93,-1.62 1.41,0 2.832,0.54 3.914,1.62 2.164,2.17 2.164,5.68 0,7.84 l -12.371,12.39 c -2.176,2.16 -5.68,2.16 -7.856,0 -2.16,-2.18 -2.16,-5.68 0,-7.85 l 12.383,-12.38" /><path
       id="path156"
       style="fill:#ffffff;fill-opacity:1;fill-rule:nonzero;stroke:none"
       d="m 540.074,1758.51 c 3.356,0 6.442,0.44 9.258,1.32 2.813,0.88 5.27,2.11 7.367,3.7 2.102,1.59 3.735,3.52 4.91,5.78 1.18,2.26 1.77,4.77 1.77,7.53 0,5.77 -2.039,9.89 -6.113,12.36 -4.075,2.48 -9.551,3.71 -16.442,3.71 h -8.058 v 6.04 l 24.945,31.37 H 519.91 v 9.07 h 49.891 v -9.07 l -24.942,-29.11 h 2.028 c 3.875,0 7.422,-0.54 10.625,-1.62 3.207,-1.1 5.988,-2.65 8.351,-4.67 2.364,-2.01 4.196,-4.46 5.504,-7.31 1.309,-2.85 1.961,-6.08 1.961,-9.7 0,-4.53 -0.883,-8.56 -2.648,-12.09 -1.77,-3.53 -4.172,-6.49 -7.2,-8.88 -3.031,-2.39 -6.589,-4.2 -10.671,-5.42 -4.082,-1.21 -8.438,-1.83 -13.067,-1.83 -4.297,0 -8.023,0.33 -11.179,0.96 -3.157,0.65 -6.04,1.42 -8.653,2.36 l 2.524,8.91 c 2.183,-1.02 4.746,-1.83 7.683,-2.46 2.942,-0.64 6.254,-0.95 9.957,-0.95" /><path
       id="path158"
       style="fill:#ffffff;fill-opacity:1;fill-rule:nonzero;stroke:none"
       d="m 616.664,1758.51 c 3.191,0 6.129,0.4 8.82,1.2 2.684,0.79 4.977,2.01 6.864,3.65 1.89,1.64 3.359,3.68 4.41,6.12 1.051,2.43 1.578,5.28 1.578,8.56 0,6.05 -2.164,10.65 -6.488,13.79 -4.328,3.15 -10.227,4.73 -17.703,4.73 l -11.84,-0.63 v 43.46 h 43.336 v -9.07 h -33.887 v -25.57 l 6.316,0.25 c 9.356,0 16.731,-2.27 22.125,-6.8 5.395,-4.54 8.09,-11.01 8.09,-19.4 0,-4.71 -0.82,-8.86 -2.461,-12.48 -1.644,-3.61 -3.894,-6.66 -6.758,-9.13 -2.859,-2.48 -6.25,-4.34 -10.164,-5.6 -3.918,-1.26 -8.187,-1.9 -12.816,-1.9 -2.527,0 -4.93,0.2 -7.199,0.57 -2.27,0.38 -4.336,0.84 -6.188,1.38 -1.855,0.55 -3.469,1.14 -4.863,1.77 -1.391,0.63 -2.375,1.2 -2.969,1.7 l 4.035,8.19 c 1.426,-0.84 3.61,-1.85 6.551,-3.02 2.942,-1.18 6.676,-1.77 11.211,-1.77" /><path
       id="path160"
       style="fill:#ffffff;fill-opacity:1;fill-rule:nonzero;stroke:none"
       d="m 687.969,1823.14 c 0,-3.19 0.984,-5.69 2.961,-7.5 1.968,-1.8 4.261,-2.71 6.863,-2.71 2.602,0 4.895,0.91 6.863,2.71 1.977,1.81 2.965,4.31 2.965,7.5 0,3.2 -0.988,5.7 -2.965,7.5 -1.968,1.8 -4.261,2.7 -6.863,2.7 -2.602,0 -4.895,-0.9 -6.863,-2.7 -1.977,-1.8 -2.961,-4.3 -2.961,-7.5 z m -7.942,0 c 0,2.61 0.465,5 1.391,7.18 0.922,2.18 2.18,4.05 3.777,5.6 1.598,1.56 3.489,2.78 5.668,3.67 2.184,0.87 4.492,1.31 6.93,1.31 2.437,0 4.746,-0.4 6.93,-1.2 2.179,-0.79 4.07,-1.97 5.668,-3.52 1.597,-1.55 2.855,-3.42 3.781,-5.61 0.922,-2.19 1.387,-4.66 1.387,-7.43 0,-2.77 -0.465,-5.25 -1.387,-7.43 -0.926,-2.19 -2.184,-4.05 -3.781,-5.61 -1.598,-1.55 -3.489,-2.73 -5.668,-3.52 -2.184,-0.8 -4.493,-1.2 -6.93,-1.2 -2.438,0 -4.746,0.4 -6.93,1.2 -2.179,0.79 -4.07,1.97 -5.668,3.52 -1.597,1.56 -2.855,3.42 -3.777,5.61 -0.926,2.18 -1.391,4.66 -1.391,7.43" /><path
       id="path162"
       style="fill:#ffffff;fill-opacity:1;fill-rule:nonzero;stroke:none"
       d="m 296.797,2157.35 c 0,-7.5 -6.078,-13.58 -13.574,-13.58 -7.496,0 -13.575,6.08 -13.575,13.58 0,7.49 6.079,13.56 13.575,13.56 7.496,0 13.574,-6.07 13.574,-13.56" /><path
       id="path164"
       style="fill:#ffffff;fill-opacity:1;fill-rule:nonzero;stroke:none"
       d="m 348.977,2157.35 c 0,-7.5 -6.082,-13.58 -13.579,-13.58 -7.492,0 -13.574,6.08 -13.574,13.58 0,7.49 6.082,13.56 13.574,13.56 7.497,0 13.579,-6.07 13.579,-13.56" /><path
       id="path166"
       style="fill:#ffffff;fill-opacity:1;fill-rule:nonzero;stroke:none"
       d="m 401.152,2157.35 c 0,-7.5 -6.078,-13.58 -13.574,-13.58 -7.496,0 -13.574,6.08 -13.574,13.58 0,7.49 6.078,13.56 13.574,13.56 7.496,0 13.574,-6.07 13.574,-13.56" /><path
       id="path168"
       style="fill:#6b8c8f;fill-opacity:1;fill-rule:nonzero;stroke:none"
       d="m 498.828,2039.48 h 204.117 v 25.0352 H 498.828 Z" /><path
       id="path170"
       style="fill:#6b8c8f;fill-opacity:1;fill-rule:nonzero;stroke:none"
       d="m 498.828,1985.53 h 204.117 v 25.0391 H 498.828 Z" /><path
       id="path172"
       style="fill:#6b8c8f;fill-opacity:1;fill-rule:nonzero;stroke:none"
       d="m 498.828,1931.59 h 204.117 v 25.043 H 498.828 Z" /><path
       id="path174"
       style="fill:#b7e8f3;fill-opacity:1;fill-rule:nonzero;stroke:none"
       d="M 842.578,1388.71 H 694.824 v 25.04 h 147.754 v -25.04" /><path
       id="path176"
       style="fill:#b7e8f3;fill-opacity:1;fill-rule:nonzero;stroke:none"
       d="M 842.578,1331.61 H 694.824 v 25.03 h 147.754 v -25.03" /><path
       id="path178"
       style="fill:#b7e8f3;fill-opacity:1;fill-rule:nonzero;stroke:none"
       d="M 842.578,1274.5 H 694.824 v 25.04 h 147.754 v -25.04" /><path
       id="path180"
       style="fill:#b7e8f3;fill-opacity:1;fill-rule:nonzero;stroke:none"
       d="M 842.578,1217.39 H 694.824 v 25.04 h 147.754 v -25.04" /><path
       id="path182"
       style="fill:#b7e8f3;fill-opacity:1;fill-rule:nonzero;stroke:none"
       d="M 842.578,1160.28 H 694.824 v 25.04 h 147.754 v -25.04" /><path
       id="path184"
       style="fill:#6b8c8f;fill-opacity:1;fill-rule:nonzero;stroke:none"
       d="m 277.316,1839.48 h 204.113 v 25.0352 H 277.316 Z" /><path
       id="path186"
       style="fill:#6b8c8f;fill-opacity:1;fill-rule:nonzero;stroke:none"
       d="m 277.316,1785.53 h 204.113 v 25.0391 H 277.316 Z" /><path
       id="path188"
       style="fill:#6b8c8f;fill-opacity:1;fill-rule:nonzero;stroke:none"
       d="m 277.316,1731.59 h 204.113 v 25.043 H 277.316 Z" /><path
       id="path190"
       style="fill:#2b5a5f;fill-opacity:1;fill-rule:nonzero;stroke:none"
       d="m 3171.05,206.531 c 0,-39.461 -32.3,-71.793 -71.79,-71.793 h -394.63 c -39.47,0 -71.78,32.332 -71.78,71.793 v 394.59 c 0,39.457 32.31,71.789 71.78,71.789 h 394.63 c 39.49,0 71.79,-32.332 71.79,-71.789 v -394.59" /><path
       id="path192"
       style="fill:#b7e8f3;fill-opacity:1;fill-rule:nonzero;stroke:none"
       d="m 3171.05,595.359 v 5.762 c 0,39.457 -32.3,71.789 -71.79,71.789 h -394.63 c -39.47,0 -71.78,-32.332 -71.78,-71.789 v -5.762 h 538.2" /><path
       id="path194"
       style="fill:#ffffff;fill-opacity:1;fill-rule:nonzero;stroke:none"
       d="m 2983.77,293.879 c 0,-7.719 -3.67,-16.34 -11,-25.828 -7.33,-9.492 -17.56,-19.813 -30.7,-30.981 h 44.47 v -9.082 h -56.07 v 9.082 c 1.6,1.508 3.79,3.481 6.56,5.91 2.77,2.442 5.74,5.149 8.95,8.129 3.18,2.981 6.44,6.192 9.75,9.641 3.32,3.441 6.32,6.969 9.02,10.578 2.67,3.613 4.86,7.223 6.54,10.832 1.68,3.621 2.52,7.102 2.52,10.461 0,5.039 -1.32,9.008 -3.97,11.91 -2.64,2.899 -6.61,4.34 -11.9,4.34 -4.54,0 -8.36,-0.512 -11.47,-1.512 -3.1,-1.007 -5.92,-2.48 -8.44,-4.41 l -4.28,6.93 c 3.79,2.68 7.81,4.66 12.06,5.93 4.25,1.261 8.91,1.882 13.96,1.882 7.91,0 13.88,-2.14 17.93,-6.421 4.04,-4.29 6.07,-10.079 6.07,-17.391" /><path
       id="path196"
       style="fill:#ffffff;fill-opacity:1;fill-rule:nonzero;stroke:none"
       d="m 3014.38,290.602 c 0,-6.043 1.81,-10.582 5.46,-13.602 3.64,-3.02 8.48,-4.531 14.51,-4.531 4.77,0 8.89,0.73 12.37,2.203 3.48,1.469 5.92,3.289 7.34,5.476 0.17,1.172 0.26,2.122 0.26,2.832 0,0.719 0,1.54 0,2.461 0,2.93 -0.4,5.829 -1.19,8.7 -0.81,2.847 -2.04,5.41 -3.72,7.679 -1.68,2.27 -3.82,4.09 -6.46,5.481 -2.64,1.39 -5.8,2.078 -9.49,2.078 -6.02,0 -10.71,-1.641 -14.07,-4.918 -3.34,-3.27 -5.01,-7.891 -5.01,-13.859 z m -10.45,-1 c 0,3.859 0.62,7.5 1.89,10.886 1.25,3.403 3.16,6.391 5.74,8.953 2.56,2.559 5.74,4.579 9.53,6.039 3.79,1.481 8.21,2.211 13.26,2.211 4.71,0 8.91,-0.75 12.62,-2.261 3.7,-1.52 6.84,-3.641 9.41,-6.371 2.57,-2.731 4.52,-6.047 5.87,-9.95 1.34,-3.91 2.01,-8.25 2.01,-13.039 0,-9.398 -1.17,-17.679 -3.54,-24.808 -2.35,-7.141 -5.64,-13.203 -9.84,-18.153 -4.22,-4.961 -9.2,-8.82 -14.97,-11.589 -5.77,-2.77 -12.02,-4.45 -18.76,-5.04 l -1.9,7.942 c 5.55,0.59 10.51,1.93 14.87,4.027 4.37,2.102 8.15,4.789 11.34,8.063 3.19,3.277 5.8,7.058 7.82,11.34 2.01,4.277 3.4,8.859 4.15,13.738 -1.34,-1.442 -2.71,-2.629 -4.09,-3.602 -1.39,-0.957 -2.92,-1.738 -4.6,-2.328 -1.68,-0.59 -3.53,-1.012 -5.54,-1.262 -2.02,-0.25 -4.34,-0.378 -6.93,-0.378 -3.87,0 -7.52,0.589 -10.96,1.769 -3.45,1.172 -6.45,2.883 -9.01,5.102 -2.56,2.218 -4.6,4.918 -6.11,8.058 -1.51,3.16 -2.26,6.699 -2.26,10.653" /><path
       id="path198"
       style="fill:#ffffff;fill-opacity:1;fill-rule:nonzero;stroke:none"
       d="m 3099.79,299.93 c 0,-3.2 0.99,-5.7 2.96,-7.5 1.98,-1.809 4.26,-2.711 6.86,-2.711 2.61,0 4.9,0.902 6.87,2.711 1.98,1.8 2.96,4.3 2.96,7.5 0,3.191 -0.98,5.691 -2.96,7.5 -1.97,1.789 -4.26,2.699 -6.87,2.699 -2.6,0 -4.88,-0.91 -6.86,-2.699 -1.97,-1.809 -2.96,-4.309 -2.96,-7.5 z m -7.93,0 c 0,2.601 0.45,5 1.38,7.179 0.92,2.18 2.18,4.051 3.77,5.602 1.6,1.551 3.5,2.769 5.68,3.66 2.17,0.879 4.49,1.32 6.92,1.32 2.44,0 4.75,-0.402 6.93,-1.203 2.19,-0.789 4.08,-1.968 5.67,-3.527 1.6,-1.551 2.86,-3.41 3.79,-5.602 0.91,-2.187 1.38,-4.66 1.38,-7.429 0,-2.782 -0.47,-5.258 -1.38,-7.43 -0.93,-2.191 -2.19,-4.059 -3.79,-5.609 -1.59,-1.551 -3.48,-2.731 -5.67,-3.532 -2.18,-0.8 -4.49,-1.199 -6.93,-1.199 -2.43,0 -4.75,0.399 -6.92,1.199 -2.18,0.801 -4.08,1.981 -5.68,3.532 -1.59,1.55 -2.85,3.418 -3.77,5.609 -0.93,2.172 -1.38,4.648 -1.38,7.43" /><path
       id="path200"
       style="fill:#ffffff;fill-opacity:1;fill-rule:nonzero;stroke:none"
       d="m 2708.61,634.141 c 0,-7.5 -6.07,-13.582 -13.57,-13.582 -7.49,0 -13.58,6.082 -13.58,13.582 0,7.488 6.09,13.558 13.58,13.558 7.5,0 13.57,-6.07 13.57,-13.558" /><path
       id="path202"
       style="fill:#ffffff;fill-opacity:1;fill-rule:nonzero;stroke:none"
       d="m 2760.8,634.141 c 0,-7.5 -6.08,-13.582 -13.57,-13.582 -7.5,0 -13.58,6.082 -13.58,13.582 0,7.488 6.08,13.558 13.58,13.558 7.49,0 13.57,-6.07 13.57,-13.558" /><path
       id="path204"
       style="fill:#ffffff;fill-opacity:1;fill-rule:nonzero;stroke:none"
       d="m 2812.97,634.141 c 0,-7.5 -6.08,-13.582 -13.58,-13.582 -7.49,0 -13.57,6.082 -13.57,13.582 0,7.488 6.08,13.558 13.57,13.558 7.5,0 13.58,-6.07 13.58,-13.558" /><path
       id="path206"
       style="fill:#6b8c8f;fill-opacity:1;fill-rule:nonzero;stroke:none"
       d="m 2910.64,516.27 h 204.129 v 25.0313 H 2910.64 Z" /><path
       id="path208"
       style="fill:#6b8c8f;fill-opacity:1;fill-rule:nonzero;stroke:none"
       d="m 2910.64,462.32 h 204.129 v 25.0391 H 2910.64 Z" /><path
       id="path210"
       style="fill:#6b8c8f;fill-opacity:1;fill-rule:nonzero;stroke:none"
       d="m 2910.64,408.371 h 204.129 v 25.0391 H 2910.64 Z" /><path
       id="path212"
       style="fill:#6b8c8f;fill-opacity:1;fill-rule:nonzero;stroke:none"
       d="m 2689.14,316.27 h 204.109 v 25.0313 H 2689.14 Z" /><path
       id="path214"
       style="fill:#6b8c8f;fill-opacity:1;fill-rule:nonzero;stroke:none"
       d="m 2689.14,262.32 h 204.109 v 25.0391 H 2689.14 Z" /><path
       id="path216"
       style="fill:#6b8c8f;fill-opacity:1;fill-rule:nonzero;stroke:none"
       d="m 2689.14,208.379 h 204.109 v 25.0313 H 2689.14 Z" /><path
       id="path218"
       style="fill:#ffffff;fill-opacity:1;fill-rule:nonzero;stroke:none"
       d="m 3094.38,2160.61 c 34.13,0 61.9,-27.77 61.9,-61.9 0,-34.14 -27.77,-61.91 -61.9,-61.91 -34.14,0 -61.89,27.77 -61.89,61.91 0,34.13 27.75,61.9 61.89,61.9 z m 0,-133.95 c 39.73,0 72.06,32.32 72.06,72.05 0,39.72 -32.33,72.04 -72.06,72.04 -39.72,0 -72.05,-32.32 -72.05,-72.04 0,-39.73 32.33,-72.05 72.05,-72.05" /><path
       id="path220"
       style="fill:#ffffff;fill-opacity:1;fill-rule:nonzero;stroke:none"
       d="m 3087.26,2119.61 20.5,-20.5 -20.5,-20.51 z m -7.02,-57.95 1.96,-0.39 c 1.31,0 2.59,0.52 3.57,1.5 l 32.76,32.74 c 0.95,0.95 1.48,2.25 1.48,3.6 0,1.34 -0.53,2.62 -1.48,3.58 l -32.76,32.76 c -1.44,1.45 -3.63,1.88 -5.53,1.09 -1.89,-0.78 -3.12,-2.63 -3.12,-4.68 v -65.51 c 0,-2.05 1.23,-3.9 3.12,-4.69" /><path
       id="path222"
       style="fill:#ffffff;fill-opacity:1;fill-rule:nonzero;stroke:none"
       d="m 317.188,323.488 c 36.718,0 66.589,-29.867 66.589,-66.59 0,-36.718 -29.871,-66.589 -66.589,-66.589 -36.719,0 -66.59,29.871 -66.59,66.589 0,36.723 29.871,66.59 66.59,66.59 z m 0,-144.09 c 42.734,0 77.507,34.774 77.507,77.5 0,42.731 -34.773,77.5 -77.507,77.5 -42.747,0 -77.508,-34.769 -77.508,-77.5 0,-42.726 34.761,-77.5 77.508,-77.5" /><path
       id="path224"
       style="fill:#ffffff;fill-opacity:1;fill-rule:nonzero;stroke:none"
       d="m 302.93,216.629 c 3.008,0 5.449,2.449 5.449,5.473 v 70.828 c 0,3 -2.441,5.449 -5.449,5.449 -3.02,0 -5.469,-2.449 -5.469,-5.449 v -70.828 c 0,-3.024 2.449,-5.473 5.469,-5.473" /><path
       id="path226"
       style="fill:#ffffff;fill-opacity:1;fill-rule:nonzero;stroke:none"
       d="m 331.445,216.629 c 3.02,0 5.457,2.449 5.457,5.473 v 70.828 c 0,3 -2.437,5.449 -5.457,5.449 -3.007,0 -5.449,-2.449 -5.449,-5.449 v -70.828 c 0,-3.024 2.442,-5.473 5.449,-5.473" /><path
       id="path228"
       style="fill:#b7e8f3;fill-opacity:1;fill-rule:nonzero;stroke:none"
       d="m 2806.42,1686.63 h -237.93 v 204 h 237.93 v -204" /><path
       id="path230"
       style="fill:#2e839d;fill-opacity:1;fill-rule:nonzero;stroke:none"
       d="m 2596.08,1707.79 67.71,127.6 71.84,-127.6" /><path
       id="path232"
       style="fill:#2e839d;fill-opacity:1;fill-rule:nonzero;stroke:none"
       d="m 2661.05,1707.79 64.43,88.52 55.19,-88.52" /><path
       id="path234"
       style="fill:#2e839d;fill-opacity:1;fill-rule:nonzero;stroke:none"
       d="m 2753.96,1838.1 c 0,-11.83 -9.57,-21.39 -21.37,-21.39 -11.77,0 -21.34,9.56 -21.34,21.39 0,11.82 9.57,21.41 21.34,21.41 11.8,0 21.37,-9.59 21.37,-21.41" /><path
       id="path236"
       style="fill:#ffffff;fill-opacity:1;fill-rule:nonzero;stroke:none"
       d="m 727.031,571.172 c 0,-16.512 -13.496,-30 -30,-30 H 454.68 c -16.504,0 -30,13.488 -30,30 v 242.316 c 0,16.512 13.496,30 30,30 h 242.351 c 16.504,0 30,-13.488 30,-30 V 571.172" /><path
       id="path238"
       style="fill:#b7e8f3;fill-opacity:1;fill-rule:nonzero;stroke:none"
       d="m 1020.27,165.84 c 0,-16.5 -13.49,-30 -29.997,-30 H 547.906 c -16.5,0 -30,13.5 -30,30 v 242.32 c 0,16.488 13.5,30 30,30 h 442.367 c 16.507,0 29.997,-13.512 29.997,-30 V 165.84" /><path
       id="path240"
       style="fill:#b7e8f3;fill-opacity:1;fill-rule:nonzero;stroke:none"
       d="M 694.824,604.609 H 456.895 V 808.621 H 694.824 V 604.609" /><path
       id="path242"
       style="fill:#2e839d;fill-opacity:1;fill-rule:nonzero;stroke:none"
       d="m 484.492,625.781 67.703,127.59 71.836,-127.59" /><path
       id="path244"
       style="fill:#2e839d;fill-opacity:1;fill-rule:nonzero;stroke:none"
       d="m 549.465,625.781 64.422,88.52 55.195,-88.52" /><path
       id="path246"
       style="fill:#2e839d;fill-opacity:1;fill-rule:nonzero;stroke:none"
       d="m 642.363,756.09 c 0,-11.828 -9.558,-21.391 -21.367,-21.391 -11.766,0 -21.34,9.563 -21.34,21.391 0,11.82 9.574,21.41 21.34,21.41 11.809,0 21.367,-9.59 21.367,-21.41" /><path
       id="path248"
       style="fill:#2b5a5f;fill-opacity:1;fill-rule:nonzero;stroke:none"
       d="m 642.363,1159.57 h -421.34 v 254.18 h 421.34 v -254.18" /><path
       id="path250"
       style="fill:#b7e8f3;fill-opacity:1;fill-rule:nonzero;stroke:none"
       d="m 3154.89,1388.71 h -147.75 v 25.04 h 147.75 v -25.04" /><path
       id="path252"
       style="fill:#b7e8f3;fill-opacity:1;fill-rule:nonzero;stroke:none"
       d="m 3154.89,1331.61 h -147.75 v 25.03 h 147.75 v -25.03" /><path
       id="path254"
       style="fill:#b7e8f3;fill-opacity:1;fill-rule:nonzero;stroke:none"
       d="m 3154.89,1274.5 h -147.75 v 25.04 h 147.75 v -25.04" /><path
       id="path256"
       style="fill:#b7e8f3;fill-opacity:1;fill-rule:nonzero;stroke:none"
       d="m 3154.89,1217.39 h -147.75 v 25.04 h 147.75 v -25.04" /><path
       id="path258"
       style="fill:#b7e8f3;fill-opacity:1;fill-rule:nonzero;stroke:none"
       d="m 3154.89,1160.28 h -147.75 v 25.04 h 147.75 v -25.04" /><path
       id="path260"
       style="fill:#b7e8f3;fill-opacity:1;fill-rule:nonzero;stroke:none"
       d="M 2322.3,261.961 H 1467.55 V 287 h 854.75 v -25.039" /><path
       id="path262"
       style="fill:#b7e8f3;fill-opacity:1;fill-rule:nonzero;stroke:none"
       d="m 2322.3,204.852 h -854.75 v 25.039 h 854.75 v -25.039" /><path
       id="path264"
       style="fill:#b7e8f3;fill-opacity:1;fill-rule:nonzero;stroke:none"
       d="m 2080.63,2134.61 h -854.75 v 25.03 h 854.75 v -25.03" /><path
       id="path266"
       style="fill:#b7e8f3;fill-opacity:1;fill-rule:nonzero;stroke:none"
       d="m 2080.63,2077.5 h -854.75 v 25.04 h 854.75 v -25.04" /><path
       id="path268"
       style="fill:#2b5a5f;fill-opacity:1;fill-rule:nonzero;stroke:none"
       d="m 2954.68,1159.57 h -421.34 v 254.18 h 421.34 v -254.18" /><path
       id="path270"
       style="fill:#ffffff;fill-opacity:1;fill-rule:nonzero;stroke:none"
       d="m 204.734,1429.11 490.09,-309.75" /><path
       id="path272"
       style="fill:#ffffff;fill-opacity:1;fill-rule:nonzero;stroke:none"
       d="m 690.816,1113.02 -490.089,309.75 8.019,12.68 490.086,-309.75 -8.016,-12.68" /><path
       id="path274"
       style="fill:#ffffff;fill-opacity:1;fill-rule:nonzero;stroke:none"
       d="M 182.578,1135.23 694.824,1441.9" /><path
       id="path276"
       style="fill:#ffffff;fill-opacity:1;fill-rule:nonzero;stroke:none"
       d="m 186.43,1128.79 -7.703,12.88 512.246,306.67 7.703,-12.88 -512.246,-306.67" /><path
       id="path278"
       style="fill:#ffffff;fill-opacity:1;fill-rule:nonzero;stroke:none"
       d="m 283.223,931.969 c -9.27,0 -16.809,-7.539 -16.809,-16.809 0,-9.269 7.539,-16.801 16.809,-16.801 9.265,0 16.804,7.532 16.804,16.801 0,9.27 -7.539,16.809 -16.804,16.809 z m 0,-53.61 c -20.293,0 -36.809,16.512 -36.809,36.801 0,20.289 16.516,36.809 36.809,36.809 20.293,0 36.804,-16.52 36.804,-36.809 0,-20.289 -16.511,-36.801 -36.804,-36.801" /><path
       id="path280"
       style="fill:#ffffff;fill-opacity:1;fill-rule:nonzero;stroke:none"
       d="m 935.398,1802.34 c -9.265,0 -16.804,-7.54 -16.804,-16.81 0,-9.26 7.539,-16.8 16.804,-16.8 9.27,0 16.809,7.54 16.809,16.8 0,9.27 -7.539,16.81 -16.809,16.81 z m 0,-53.61 c -20.293,0 -36.804,16.51 -36.804,36.8 0,20.29 16.511,36.81 36.804,36.81 20.293,0 36.809,-16.52 36.809,-36.81 0,-20.29 -16.516,-36.8 -36.809,-36.8" /><path
       id="path282"
       style="fill:#ffffff;fill-opacity:1;fill-rule:nonzero;stroke:none"
       d="m 2596.08,825.43 c -9.26,0 -16.8,-7.539 -16.8,-16.809 0,-9.269 7.54,-16.812 16.8,-16.812 9.27,0 16.81,7.543 16.81,16.812 0,9.27 -7.54,16.809 -16.81,16.809 z m 0,-53.621 c -20.29,0 -36.8,16.519 -36.8,36.812 0,20.289 16.51,36.809 36.8,36.809 20.3,0 36.81,-16.52 36.81,-36.809 0,-20.293 -16.51,-36.812 -36.81,-36.812" /><path
       id="path284"
       style="fill:#ffffff;fill-opacity:1;fill-rule:nonzero;stroke:none"
       d="m 3166.44,828.578 c -9.27,0 -16.81,-7.539 -16.81,-16.808 0,-9.258 7.54,-16.801 16.81,-16.801 9.26,0 16.8,7.543 16.8,16.801 0,9.269 -7.54,16.808 -16.8,16.808 z m 0,-53.609 c -20.3,0 -36.81,16.511 -36.81,36.801 0,20.3 16.51,36.808 36.81,36.808 20.29,0 36.8,-16.508 36.8,-36.808 0,-20.29 -16.51,-36.801 -36.8,-36.801" /><path
       id="path286"
       style="fill:#ffffff;fill-opacity:1;fill-rule:nonzero;stroke:none"
       d="m 3022.33,1702.61 c -9.26,0 -16.8,-7.54 -16.8,-16.81 0,-9.26 7.54,-16.8 16.8,-16.8 9.27,0 16.81,7.54 16.81,16.8 0,9.27 -7.54,16.81 -16.81,16.81 z m 0,-53.61 c -20.29,0 -36.8,16.51 -36.8,36.8 0,20.3 16.51,36.81 36.8,36.81 20.3,0 36.81,-16.51 36.81,-36.81 0,-20.29 -16.51,-36.8 -36.81,-36.8" /><path
       id="path288"
       style="fill:#ffffff;fill-opacity:1;fill-rule:nonzero;stroke:none"
       d="m 2466,2136.7 c -9.27,0 -16.81,-7.54 -16.81,-16.81 0,-9.27 7.54,-16.81 16.81,-16.81 9.26,0 16.8,7.54 16.8,16.81 0,9.27 -7.54,16.81 -16.8,16.81 z m 0,-53.62 c -20.3,0 -36.81,16.51 -36.81,36.81 0,20.29 16.51,36.81 36.81,36.81 20.29,0 36.8,-16.52 36.8,-36.81 0,-20.3 -16.51,-36.81 -36.8,-36.81" /><path
       id="path290"
       style="fill:#ffffff;fill-opacity:1;fill-rule:nonzero;stroke:none"
       d="m 1153.91,152.641 c -9.27,0 -16.81,-7.539 -16.81,-16.801 0,-9.27 7.54,-16.809 16.81,-16.809 9.26,0 16.8,7.539 16.8,16.809 0,9.262 -7.54,16.801 -16.8,16.801 z m 0,-53.6097 c -20.3,0 -36.81,16.5077 -36.81,36.8087 0,20.289 16.51,36.801 36.81,36.801 20.29,0 36.8,-16.512 36.8,-36.801 0,-20.301 -16.51,-36.8087 -36.8,-36.8087" /><path
       id="path292"
       style="fill:#ffffff;fill-opacity:1;fill-rule:nonzero;stroke:none"
       d="m 2513.34,152.641 c -9.27,0 -16.81,-7.539 -16.81,-16.801 0,-9.27 7.54,-16.809 16.81,-16.809 9.27,0 16.81,7.539 16.81,16.809 0,9.262 -7.54,16.801 -16.81,16.801 z m 0,-53.6097 c -20.29,0 -36.81,16.5077 -36.81,36.8087 0,20.289 16.52,36.801 36.81,36.801 20.29,0 36.81,-16.512 36.81,-36.801 0,-20.301 -16.52,-36.8087 -36.81,-36.8087" /><path
       id="path294"
       style="fill:#ffffff;fill-opacity:1;fill-rule:nonzero;stroke:none"
       d="m 202.125,745.988 c -20.047,0 -36.355,-16.308 -36.355,-36.359 0,-20.027 16.308,-36.34 36.355,-36.34 20.043,0 36.352,16.313 36.352,36.34 0,20.051 -16.309,36.359 -36.352,36.359 z m 0,-92.699 c -31.074,0 -56.355,25.27 -56.355,56.34 0,31.082 25.281,56.359 56.355,56.359 31.074,0 56.352,-25.277 56.352,-56.359 0,-31.07 -25.278,-56.34 -56.352,-56.34" /><path
       id="path296"
       style="fill:#ffffff;fill-opacity:1;fill-rule:nonzero;stroke:none"
       d="m 2665.86,2221.23 c -20.05,0 -36.36,-16.3 -36.36,-36.35 0,-20.04 16.31,-36.35 36.36,-36.35 20.04,0 36.35,16.31 36.35,36.35 0,20.05 -16.31,36.35 -36.35,36.35 z m 0,-92.7 c -31.07,0 -56.36,25.28 -56.36,56.35 0,31.07 25.29,56.35 56.36,56.35 31.07,0 56.35,-25.28 56.35,-56.35 0,-31.07 -25.28,-56.35 -56.35,-56.35" /><path
       id="path298"
       style="fill:#ffffff;fill-opacity:1;fill-rule:nonzero;stroke:none"
       d="m 2838.62,926.641 c -20.05,0 -36.35,-16.313 -36.35,-36.36 0,-20.043 16.3,-36.351 36.35,-36.351 20.04,0 36.35,16.308 36.35,36.351 0,20.047 -16.31,36.36 -36.35,36.36 z m 0,-92.711 c -31.07,0 -56.35,25.269 -56.35,56.351 0,31.071 25.28,56.36 56.35,56.36 31.08,0 56.35,-25.289 56.35,-56.36 0,-31.082 -25.27,-56.351 -56.35,-56.351" /><path
       id="path300"
       style="fill:#ffffff;fill-opacity:1;fill-rule:nonzero;stroke:none"
       d="m 2776.35,418.672 4.25,23.308 c 0.25,1.411 -0.14,2.879 -1.07,3.989 -0.92,1.109 -2.28,1.75 -3.73,1.75 h -3.28 l 6.95,24.351 h 9.35 l -5.19,-18.148 c -0.41,-1.461 -0.11,-3.051 0.8,-4.274 0.92,-1.218 2.36,-1.929 3.89,-1.929 h 3.67 z m 23.8,38.789 h -5.37 l 5.17,18.129 c 0.43,1.48 0.14,3.058 -0.78,4.269 -0.93,1.231 -2.36,1.942 -3.9,1.942 h -19.47 c -2.18,0 -4.09,-1.43 -4.68,-3.531 l -9.74,-34.079 c -0.42,-1.48 -0.12,-3.05 0.79,-4.269 0.93,-1.223 2.36,-1.942 3.89,-1.942 h 3.91 l -8.7,-47.82 c -0.43,-2.351 0.92,-4.68 3.18,-5.48 l 1.61,-0.258 c 1.75,0 3.42,0.949 4.29,2.558 l 34.08,63.301 c 0.81,1.508 0.78,3.328 -0.1,4.797 -0.88,1.473 -2.47,2.383 -4.18,2.383 z m 9.73,73.027 c -9.82,0 -19.3,-2.957 -27.35,-8.449 -5.13,10.871 -16.21,18.191 -28.64,18.191 -17.45,0 -31.65,-14.199 -31.65,-31.652 0,-3.367 0.54,-6.699 1.59,-9.879 -12.65,-5.168 -21.07,-17.429 -21.07,-31.508 0,-18.8 15.3,-34.082 34.09,-34.082 h 9.73 c 2.7,0 4.88,2.18 4.88,4.871 0,2.692 -2.18,4.872 -4.88,4.872 h -9.73 c -13.42,0 -24.35,10.918 -24.35,24.339 0,11.278 7.99,21.258 18.99,23.727 1.5,0.352 2.75,1.363 3.37,2.762 0.64,1.39 0.57,3.011 -0.17,4.351 -1.77,3.219 -2.71,6.867 -2.71,10.547 0,12.082 9.83,21.91 21.91,21.91 10.39,0 19.42,-7.379 21.47,-17.547 0.35,-1.722 1.61,-3.121 3.28,-3.671 1.68,-0.532 3.52,-0.122 4.81,1.082 7.24,6.707 16.63,10.41 26.43,10.41 21.48,0 38.96,-17.481 38.96,-38.961 0,-19.891 -14.88,-36.531 -34.62,-38.723 -2.68,-0.289 -4.6,-2.687 -4.31,-5.367 0.3,-2.68 2.75,-4.57 5.37,-4.313 24.68,2.731 43.29,23.543 43.29,48.403 0,26.847 -21.84,48.687 -48.69,48.687" /><path
       id="path302"
       style="fill:#2e839d;fill-opacity:1;fill-rule:nonzero;stroke:none"
       d="m 929.844,316.672 c -13.688,0 -25.746,-7.031 -32.809,-17.66 -7.062,10.629 -19.125,17.66 -32.812,17.66 -13.688,0 -25.75,-7.031 -32.805,-17.66 -7.066,10.629 -19.129,17.66 -32.813,17.66 -7.152,0 -13.839,-1.961 -19.625,-5.293 13.571,33.812 46.633,57.793 85.243,57.793 38.609,0 71.675,-23.981 85.242,-57.793 -5.793,3.332 -12.473,5.293 -19.621,5.293 z m 39.179,-35.363 c -2.05,53.832 -44.746,97.312 -98.242,100.652 v 6.891 c 0,3.636 -2.933,6.57 -6.558,6.57 -3.618,0 -6.563,-2.934 -6.563,-6.57 v -6.891 c -53.5,-3.34 -96.176,-46.82 -98.23,-100.652 -0.133,-1.309 -0.2,-2.649 -0.2,-4.02 0,-3.609 2.942,-6.559 6.555,-6.559 3.629,0 6.574,2.95 6.574,6.559 0,14.473 11.766,26.262 26.246,26.262 14.469,0 26.243,-11.789 26.243,-26.262 0,-3.609 2.945,-6.559 6.57,-6.559 3.617,0 6.562,2.95 6.562,6.559 0,12.199 8.399,22.383 19.68,25.32 V 218.23 c 0,-10.851 -8.832,-19.679 -19.68,-19.679 -10.863,0 -19.687,8.828 -19.687,19.679 0,3.629 -2.945,6.571 -6.574,6.571 -3.614,0 -6.559,-2.942 -6.559,-6.571 0,-18.082 14.723,-32.8 32.82,-32.8 18.083,0 32.801,14.718 32.801,32.8 v 84.379 c 11.297,-2.937 19.688,-13.121 19.688,-25.32 0,-3.609 2.945,-6.559 6.566,-6.559 3.617,0 6.563,2.95 6.563,6.559 0,14.473 11.773,26.262 26.246,26.262 14.472,0 26.25,-11.789 26.25,-26.262 0,-3.609 2.937,-6.559 6.562,-6.559 3.633,0 6.563,2.95 6.563,6.559 0,1.371 -0.071,2.711 -0.196,4.02" /><path
       id="path304"
       style="fill:#2e839d;fill-opacity:1;fill-rule:nonzero;stroke:none"
       d="M 716.238,350.5 H 568.492 v 25.039 H 716.238 V 350.5" /><path
       id="path306"
       style="fill:#2e839d;fill-opacity:1;fill-rule:nonzero;stroke:none"
       d="m 1991.67,1850.86 h -524.12 v 25.03 h 524.12 v -25.03" /><path
       id="path308"
       style="fill:#ffffff;fill-opacity:1;fill-rule:nonzero;stroke:none"
       d="m 2323.7,1850.86 h -349.82 v 25.03 h 349.82 v -25.03" /><path
       id="path310"
       style="fill:#2e839d;fill-opacity:1;fill-rule:nonzero;stroke:none"
       d="M 716.238,293.391 H 568.492 v 25.039 h 147.746 v -25.039" /><path
       id="path312"
       style="fill:#2e839d;fill-opacity:1;fill-rule:nonzero;stroke:none"
       d="M 716.238,236.281 H 568.492 v 25.039 h 147.746 v -25.039" /><path
       id="path314"
       style="fill:#2e839d;fill-opacity:1;fill-rule:nonzero;stroke:none"
       d="M 716.238,179.18 H 568.492 v 25.031 H 716.238 V 179.18" /><path
       id="path316"
       style="fill:#ffffff;fill-opacity:1;fill-rule:nonzero;stroke:none"
       d="m 2775.73,1225.12 -0.99,-0.13 h -80.57 c -19.35,0 -35.09,15.73 -35.09,35.07 0,16.72 11.89,31.21 28.26,34.43 1.73,0.34 3.21,1.44 4.04,3 0.83,1.56 0.9,3.4 0.21,5.03 -2.17,5.09 -3.27,10.48 -3.27,16.04 0,22.57 18.37,40.93 40.95,40.93 18.66,0 34.96,-12.65 39.6,-30.76 0.65,-2.53 2.91,-4.33 5.51,-4.39 27.17,-0.69 48.45,-22.5 48.45,-49.65 0,-26.4 -20.68,-48.18 -47.1,-49.57 z m 3.23,110.65 c -7.28,21.06 -27.13,35.42 -49.69,35.42 -29.03,0 -52.65,-23.61 -52.65,-52.63 0,-4.91 0.67,-9.72 1.99,-14.36 -18.43,-6.5 -31.23,-24.11 -31.23,-44.14 0,-25.78 21,-46.77 46.79,-46.77 h 81.87 l 1.63,0.24 c 31.98,2.35 56.86,28.97 56.86,61.16 0,32.11 -24.08,58.17 -55.57,61.08" /><path
       id="path318"
       style="fill:#2e839d;fill-opacity:1;fill-rule:nonzero;stroke:none"
       d="m 2020.92,1863.38 c 0,-13.61 -11.03,-24.63 -24.62,-24.63 -13.6,0 -24.63,11.02 -24.63,24.63 0,13.6 11.03,24.61 24.63,24.61 13.59,0 24.62,-11.01 24.62,-24.61" /><path
       id="path320"
       style="fill:#cdeff7;fill-opacity:1;fill-rule:nonzero;stroke:none"
       d="m 1080.04,861.5 v 0 629.04 h 836.46 -767.42 v -173.58 h 65.91 v -37.89 h -65.91 V 1172.8 h 344.9 l -71.06,-53.44 H 1149.08 V 913.418 L 1080.04,861.5 m 555.25,417.57 h -272.71 v 37.89 h 323.1 l -50.39,-37.89" /><path
       id="path322"
       style="fill:#4dd1e3;fill-opacity:1;fill-rule:nonzero;stroke:none"
       d="m 1916.5,1490.54 h -836.46 v 99.84 h 969.21 l -79.17,-59.54 v 21.06 h -147.59 v -30 h 135.7 l -41.69,-31.36 m -296.51,61.36 v -30 h 147.59 v 30 h -147.59 m -202.5,0 v -30 h 147.59 v 30 h -147.59 m -202.5,0 v -30 h 147.59 v 30 h -147.59" /><path
       id="path324"
       style="fill:#6da8bb;fill-opacity:1;fill-rule:nonzero;stroke:none"
       d="m 1685.68,1316.96 h -323.1 v 73.79 h -147.59 v -73.79 h -65.91 v 173.58 h 767.42 l -230.82,-173.58" /><path
       id="path326"
       style="fill:#ffffff;fill-opacity:1;fill-rule:nonzero;stroke:none"
       d="m 1493.98,1172.8 h -344.9 v 106.27 h 65.91 v -35.9 h 147.59 v 35.9 h 272.71 l -47.73,-35.9 h -199.3 v -17.23 h 176.39 l -18.69,-14.05 h -330.97 v -17.23 h 308.07 l -29.08,-21.86" /><path
       id="path328"
       style="fill:#ffffff;fill-opacity:1;fill-rule:nonzero;stroke:none"
       d="m 1149.08,913.418 v 205.942 h 273.84 l -60.34,-45.38 v 11.36 H 1214.99 V 962.988 l -65.91,-49.57" /><path
       id="path330"
       style="fill:#cdeff7;fill-opacity:1;fill-rule:nonzero;stroke:none"
       d="m 1362.58,1243.17 h -147.59 v 147.58 h 147.59 v -73.79 -37.89 -35.9" /><path
       id="path332"
       style="fill:#cdeff7;fill-opacity:1;fill-rule:nonzero;stroke:none"
       d="m 1214.99,962.988 v 122.352 h 147.59 v -11.36 L 1214.99,962.988" /><path
       id="path334"
       style="fill:#cdeff7;fill-opacity:1;fill-rule:nonzero;stroke:none"
       d="m 1564.65,1225.94 h -176.39 v 17.23 h 199.3 l -22.91,-17.23" /><path
       id="path336"
       style="fill:#cdeff7;fill-opacity:1;fill-rule:nonzero;stroke:none"
       d="m 1523.06,1194.66 h -308.07 v 17.23 h 330.97 l -22.9,-17.23" /><path
       id="path338"
       style="fill:#ffefff;fill-opacity:1;fill-rule:nonzero;stroke:none"
       d="m 1214.99,1521.9 h 147.59 v 30 h -147.59 z" /><path
       id="path340"
       style="fill:#ffefff;fill-opacity:1;fill-rule:nonzero;stroke:none"
       d="m 1417.49,1521.9 h 147.59 v 30 h -147.59 z" /><path
       id="path342"
       style="fill:#ffefff;fill-opacity:1;fill-rule:nonzero;stroke:none"
       d="m 1619.99,1521.9 h 147.59 v 30 h -147.59 z" /><path
       id="path344"
       style="fill:#ffefff;fill-opacity:1;fill-rule:nonzero;stroke:none"
       d="m 1958.19,1521.9 h -135.7 v 30 h 147.59 v -21.06 l -11.89,-8.94" /></g></svg>
