<svg xmlns="http://www.w3.org/2000/svg" width="200" height="200" viewBox="0 0 52.917 52.917" xmlns:v="https://vecta.io/nano"><g transform="scale(.01889881)"><linearGradient id="A" gradientUnits="userSpaceOnUse" x1="0" y1="0" x2="2800" y2="2800"><stop offset="0" stop-color="#fff"/><stop offset="1" stop-color="#95cdf5"/></linearGradient><path fill="url(#A)" d="M0 0h2800v2800H0z"/><g opacity=".5"><linearGradient id="B" gradientUnits="userSpaceOnUse" x1="506.924" y1="506.924" x2="2293.076" y2="2293.076"><stop offset=".011" stop-color="#00a2ff"/><stop offset="1" stop-color="#002863"/></linearGradient><circle fill="url(#B)" cx="1400" cy="1400" r="1263"/></g><g opacity=".5"><linearGradient id="C" gradientUnits="userSpaceOnUse" x1="659.659" y1="659.659" x2="2140.341" y2="2140.341"><stop offset=".011" stop-color="#00a2ff"/><stop offset="1" stop-color="#002863"/></linearGradient><circle fill="url(#C)" cx="1400" cy="1400" r="1047"/></g><linearGradient id="D" gradientUnits="userSpaceOnUse" x1="817.024" y1="908.529" x2="1982.976" y2="2074.481"><stop offset="0" stop-color="#ffff69"/><stop offset="1" stop-color="#ff4545"/></linearGradient><path fill="url(#D)" d="M2051.4 987.6l-540.8-312.2c-68.5-39.5-152.8-39.5-221.3 0L748.6 987.6c-68.5 39.5-110.6 112.6-110.6 191.6v624.4a221.24 221.24 0 0 0 110.6 191.6l540.8 312.2c68.5 39.5 152.8 39.5 221.3 0l540.8-312.2c68.5-39.5 110.6-112.6 110.6-191.6v-624.4c0-79-42.2-152-110.7-191.6z"/><path d="M1400 2357.2c-42.3 0-84-11.2-120.6-32.3l-540.8-312.2a241.24 241.24 0 0 1-88.3-88.3c-21.1-36.6-32.3-78.4-32.3-120.6v-624.4c0-42.3 11.2-84 32.3-120.6a241.24 241.24 0 0 1 88.3-88.3l540.8-312.2c36.6-21.1 78.4-32.3 120.6-32.3 42.3 0 84 11.2 120.6 32.3l540.8 312.2a241.24 241.24 0 0 1 88.3 88.3c21.1 36.6 32.3 78.4 32.3 120.6v624.4c0 42.3-11.2 84-32.3 120.6a241.24 241.24 0 0 1-88.3 88.3l-540.8 312.2c-36.6 21.2-78.3 32.3-120.6 32.3zm0-1691.4c-35.3 0-70.1 9.3-100.6 27L758.6 1005c-62.1 35.8-100.6 102.6-100.6 174.3v624.4c0 71.7 38.6 138.5 100.6 174.3l540.8 312.2c30.6 17.6 65.4 27 100.6 27 35.3 0 70.1-9.3 100.6-27l540.8-312.2c62.1-35.8 100.6-102.6 100.6-174.3v-624.4c0-71.7-38.6-138.5-100.6-174.3l-540.8-312.2c-30.5-17.7-65.3-27-100.6-27zm455.8 572.2H1841v-14.8a15 15 0 1 0-30 0v14.8h-14.4a15 15 0 1 0 0 30h14.4v14.4a15 15 0 1 0 30 0V1268h14.8a15 15 0 1 0 0-30zm-145.1-326H1696v-14.5a15 15 0 1 0-30 0V912h-14.5a15 15 0 1 0 0 30h14.5v14.7a15 15 0 1 0 30 0V942h14.7a15 15 0 1 0 0-30zm245.3 223h14.8a15 15 0 1 0 0-30H1956v-14.8a15 15 0 1 0-30 0v14.8h-14.4a15 15 0 1 0 0 30h14.4v14.3a15 15 0 1 0 30 0zm73.9 351H2015v-14.8a15 15 0 1 0-30 0v14.8h-14.2a15 15 0 1 0 0 30h14.2v14.4a15 15 0 1 0 30 0V1516h14.9a15 15 0 1 0 0-30zm-1026.5-248H989v-14.8a15 15 0 1 0-30 0v14.8h-14.8a15 15 0 1 0 0 30H959v14.4a15 15 0 1 0 30 0V1268h14.4a15 15 0 1 0 0-30zm145.1-326H1134v-14.5a15 15 0 1 0-30 0V912h-14.7a15 15 0 1 0 0 30h14.7v14.7a15 15 0 1 0 30 0V942h14.5a15 15 0 1 0 0-30zm-260.1 193H874v-14.8a15 15 0 1 0-30 0v14.8h-14.8a15 15 0 1 0 0 30H844v14.3a15 15 0 1 0 30 0V1135h14.4a15 15 0 1 0 0-30zm-59.2 381H815v-14.8a15 15 0 1 0-30 0v14.8h-14.9a15 15 0 1 0 0 30H785v14.4a15 15 0 1 0 30 0V1516h14.2a15 15 0 1 0 0-30z"/><linearGradient id="E" gradientUnits="userSpaceOnUse" x1="1302.149" y1="2045.908" x2="1497.851" y2="2241.609"><stop offset="0" stop-color="#ff0090"/><stop offset="1" stop-color="#591700"/></linearGradient><path fill="url(#E)" d="M1293.3 2054.7h213.3v178.1h-213.3z"/><linearGradient id="F" gradientUnits="userSpaceOnUse" x1="1248.874" y1="2025.455" x2="1551.126" y2="2327.708"><stop offset="0" stop-color="#ff0090"/><stop offset="1" stop-color="#591700"/></linearGradient><path fill="url(#F)" d="M1146 2224.8l143.4 82.8c68.5 39.5 152.8 39.5 221.3 0l143.4-82.8v-96.4H1146z"/><path d="M1654 2108h-127v-53.3c0-11-9.3-19.7-20.3-19.7h-213.3c-11 0-20.3 8.7-20.3 19.7v53.3h-127c-11 0-20 9.3-20 20.4v96.4c0 7.1 3.8 13.7 10 17.3l143.4 82.8c36.6 21.1 78.3 32.3 120.6 32.3s84-11.2 120.6-32.3l143.4-82.8c6.2-3.6 10-10.2 10-17.3v-96.4c-.1-11.1-9-20.4-20.1-20.4zm-341-33h174v33h-174zm321 138.2l-133.4 77c-30.6 17.6-65.4 27-100.6 27s-70.1-9.3-100.6-27l-133.4-77V2148h127.3 213.3H1634z"/><linearGradient id="G" gradientUnits="userSpaceOnUse" x1="1337.024" y1="1844.44" x2="1462.976" y2="1970.391"><stop offset="0" stop-color="#ffff69"/><stop offset="1" stop-color="#ff4545"/></linearGradient><path fill="url(#G)" d="M1400 1783.6s78.4 58.8 78.4 138.9c0 43.3-35.1 78.4-78.4 78.4s-78.4-35.1-78.4-78.4c0-80.1 78.4-138.9 78.4-138.9z"/><path d="M1400 2020.9c-54.3 0-98.4-44.1-98.4-98.4 0-89.1 82.9-152.3 86.4-154.9 7.1-5.3 16.9-5.3 24 0 3.5 2.6 86.4 65.8 86.4 154.9 0 54.2-44.1 98.4-98.4 98.4zm0-211c-20.1 18.8-58.4 61.5-58.4 112.5 0 32.2 26.2 58.4 58.4 58.4s58.4-26.2 58.4-58.4c0-51.3-38.2-93.7-58.4-112.5z"/><path d="M1400 1885.2c-11 0-20 9-20 20v149.5c0 11 9 20 20 20s20-9 20-20v-149.5c0-11.1-9-20-20-20zm505.1 197.5L1774.3 1776c-3.1-7.4-10.4-11.9-18.4-11.9h-711.7c-8 0-15.3 4.6-18.4 11.9L895 2082.8c-4.3 10.2.4 21.9 10.6 26.2s21.9-.2 26.2-10.4l125.6-294.6h685.3l125.6 294.5c3.2 7.6 10.6 12.1 18.4 12.1 2.6 0 5.3-.6 7.8-1.7 10.2-4.3 14.9-16.1 10.6-26.2z"/><path opacity=".7" fill="#fff" d="M1228 1038.6l-95.1 175.4H1667l-95.1-175.4c-12.5-23.1-19.1-49-19.1-75.3V572.4h34.8V462.8h-375.4v109.7h34.8v390.9c.1 26.2-6.5 52.1-19 75.2z"/><linearGradient id="H" gradientUnits="userSpaceOnUse" x1="1076.827" y1="1270.046" x2="1723.173" y2="1916.391"><stop offset="0" stop-color="#c800ff"/><stop offset="1" stop-color="#00f"/></linearGradient><path fill="url(#H)" d="M1667.1 1213.9H1133l-233 429.7c-34.2 63.2 11.5 140 83.3 140H1400h416.7c71.8 0 117.6-76.8 83.3-140z"/><path d="M1917.6 1634.1l-232.9-429.7-95-175.3c-10.9-20.1-16.6-42.9-16.6-65.7V592h14.7c11 0 20.3-8.5 20.3-19.6V462.8c0-11-9.3-19.8-20.3-19.8h-375.4c-11 0-20.3 8.7-20.3 19.8v109.7c0 11 9.3 19.6 20.3 19.6h14.7v371.3c0 22.9-5.7 45.6-16.6 65.7l-172.8 318.8-155.1 286.2c-9.1 16.8-13.8 35.1-14 53.4-.3 20.7 5.2 41.4 16.3 60.1 2.6 4.4 5.5 8.8 8.6 12.7 21.6 27.5 54.3 43.8 90.1 43.8h833.3c3.8 0 7.6-.4 11.4-.8 36.3-3.5 68.3-23.8 87.2-55.6 20.7-35.2 21.5-77.7 2.1-113.6zM1232 483h336v69h-15.1H1247h-15zm13.5 565.1c14.1-26 21.5-55.3 21.5-84.8V592h266v371.3c0 29.5 7.4 58.9 21.5 84.8l79 145.9h-467zm571.2 715.9H983.3c-23.3 0-44.6-10.7-58.7-28.6a91.23 91.23 0 0 1-5.6-8.2c-.9-1.4-1.7-2.9-2.4-4.4-11.2-22-11-47.6.9-69.5l227.2-419.2H1655l227.2 419.2c12.7 23.4 12.1 51.2-1.5 74.1s-37.4 36.6-64 36.6z"/><path opacity=".1" d="M1900 1643.6l-328-605c-12.5-23.1-19.1-49-19.1-75.3V572.4h34.8V462.8h-34.8-49.8-52.5v500.5c0 26.3 6.6 52.2 19.1 75.3l328 605c34.2 63.2-11.5 140-83.3 140h102.3c71.8 0 117.5-76.8 83.3-140z"/><g opacity=".3" fill="#fff"><path d="M1328.1 1467.6c-50.9 0-92.4-41.4-92.4-92.4 0-50.9 41.4-92.4 92.4-92.4 50.9 0 92.4 41.4 92.4 92.4-.1 50.9-41.5 92.4-92.4 92.4zm0-154.8c-34.4 0-62.4 28-62.4 62.4s28 62.4 62.4 62.4 62.4-28 62.4-62.4c-.1-34.4-28.1-62.4-62.4-62.4zm341.1 398c-44.6 0-80.9-36.3-80.9-80.9s36.3-80.9 80.9-80.9 80.9 36.3 80.9 80.9-36.3 80.9-80.9 80.9zm0-131.8c-28 0-50.9 22.8-50.9 50.9s22.8 50.9 50.9 50.9 50.9-22.8 50.9-50.9-22.8-50.9-50.9-50.9zm-203.2 23.9c-34.7 0-62.9-28.2-62.9-62.9s28.2-62.9 62.9-62.9 62.9 28.2 62.9 62.9-28.2 62.9-62.9 62.9zm0-95.8c-18.1 0-32.9 14.8-32.9 32.9s14.8 32.9 32.9 32.9 32.9-14.8 32.9-32.9c0-18.2-14.7-32.9-32.9-32.9zm-314.9 208.6c-55.8 0-101.3-45.4-101.3-101.3s45.4-101.3 101.3-101.3 101.3 45.4 101.3 101.3-45.4 101.3-101.3 101.3zm0-172.5c-39.3 0-71.3 32-71.3 71.3s32 71.3 71.3 71.3 71.3-32 71.3-71.3-32-71.3-71.3-71.3z"/></g></g></svg>