<?xml version="1.0" encoding="UTF-8" standalone="no"?>
<svg
   viewBox="0 0 200 200"
   height="200"
   width="200"
   xml:space="preserve"
   id="svg2"
   version="1.1"
   sodipodi:docname="pdf.svg"
   inkscape:version="1.1 (c4e8f9e, 2021-05-24)"
   xmlns:inkscape="http://www.inkscape.org/namespaces/inkscape"
   xmlns:sodipodi="http://sodipodi.sourceforge.net/DTD/sodipodi-0.dtd"
   xmlns="http://www.w3.org/2000/svg"
   xmlns:svg="http://www.w3.org/2000/svg"
   xmlns:rdf="http://www.w3.org/1999/02/22-rdf-syntax-ns#"
   xmlns:cc="http://creativecommons.org/ns#"
   xmlns:dc="http://purl.org/dc/elements/1.1/"><sodipodi:namedview
     id="namedview924"
     pagecolor="#ffffff"
     bordercolor="#666666"
     borderopacity="1.0"
     inkscape:pageshadow="2"
     inkscape:pageopacity="0.0"
     inkscape:pagecheckerboard="0"
     showgrid="false"
     width="200px"
     inkscape:zoom="2.3023228"
     inkscape:cx="142.68199"
     inkscape:cy="115.53549"
     inkscape:window-width="1280"
     inkscape:window-height="772"
     inkscape:window-x="0"
     inkscape:window-y="0"
     inkscape:window-maximized="0"
     inkscape:current-layer="svg2"
     inkscape:showpageshadow="false" /><metadata
     id="metadata8"><rdf:RDF><cc:Work
         rdf:about=""><dc:format>image/svg+xml</dc:format><dc:type
           rdf:resource="http://purl.org/dc/dcmitype/StillImage" /></cc:Work></rdf:RDF></metadata><defs
     id="defs6"><clipPath
       id="clipPath24"
       clipPathUnits="userSpaceOnUse"><path
         id="path22"
         d="m 8598.21,14380.5 c -2910.5,0.3 -4786.33,2123.6 -3887.06,3625.4 1340.4,2238.4 5596.15,677 8749.95,2895.7 1041.2,732.5 2073.5,995.1 2977.2,995.1 1833.7,0 3137,-1082 2903.8,-1515.9 -348.1,-647.7 -1830.1,44.6 -2512.2,-976.8 -682.2,-1021.4 -1621.8,-1771.5 -3407.1,-3167.5 -1720.7,-1345.5 -3396.9,-1856.2 -4824.59,-1856 m 4308.99,5956.6 -5496.43,-3173.4 2531.4,-1471.1 5496.43,3173.4 -2531.4,1471.1" /></clipPath><linearGradient
       id="linearGradient32"
       spreadMethod="pad"
       gradientTransform="matrix(14884.6,0,0,-14884.6,4484.51,18138.6)"
       gradientUnits="userSpaceOnUse"
       y2="0"
       x2="1"
       y1="0"
       x1="0"><stop
         id="stop28"
         offset="0"
         style="stop-opacity:1;stop-color:#eaf8fe" /><stop
         id="stop30"
         offset="1"
         style="stop-opacity:1;stop-color:#baddf5" /></linearGradient><clipPath
       id="clipPath42"
       clipPathUnits="userSpaceOnUse"><path
         id="path40"
         d="m 16261.4,2290.1 c -1848.3,0.1 -2242.4,1834.9 -3145,2203.7 -64.3,26.3 -127.7,38.4 -191,38.4 -377.7,0 -748.3,-432.1 -1238.9,-864.1 C 11195.8,3236 10585.1,2804 9726.52,2804 c -605.05,0 -1333.32,214.8 -2228.96,795.3 -3650.22,2366 550.43,2790.7 820.3,3556.9 269.88,766.3 -6208.73,1000.9 -1776.32,2090.1 1412.45,347 2709.94,500.5 3874.76,500.5 701.6,0 1355,-55.7 1956.2,-158.4 l 2493.7,-1439.7 507.8,293.2 c 186.3,-129.9 357.2,-267 512.5,-410.5 0,0 4995.2,-4248.8 1835.5,-5436.5 -572.2,-215.1 -1051.9,-304.8 -1460.6,-304.8 M 10647.2,6874.9 7788.93,5229 c -106.06,-61.2 -106.63,-161.5 -1.26,-222.8 L 9234.2,4165.6 c 52.72,-30.7 122.35,-46 192.07,-46 69.73,0 139.56,15.4 192.6,46 l 2872.83,1654.2 2169.1,-1240.6 2668.9,1541 L 11330,9581.3 8603.78,8043.6 10647.2,6874.9" /></clipPath><linearGradient
       id="linearGradient50"
       spreadMethod="pad"
       gradientTransform="matrix(13783.2,0,0,-13783.2,4986.37,6018.5)"
       gradientUnits="userSpaceOnUse"
       y2="0"
       x2="1"
       y1="0"
       x1="0"><stop
         id="stop46"
         offset="0"
         style="stop-opacity:1;stop-color:#eaf8fe" /><stop
         id="stop48"
         offset="1"
         style="stop-opacity:1;stop-color:#baddf5" /></linearGradient><clipPath
       id="clipPath60"
       clipPathUnits="userSpaceOnUse"><path
         id="path58"
         d="m 23061.1,1908.5 c -310.1,0 -597,54.3 -850.8,186.2 -1036.9,539 -987.7,1288.3 -814.7,1762.1 122.7,335.9 478.4,431.1 614.7,481 186.1,68 369.6,90.7 532.6,90.7 287.7,0 511.3,-70.6 572.2,-87 53.9,-14.6 110.1,-21.6 168.4,-21.6 1525.3,0 4524.8,4797.5 8006.2,5128.6 82.9,7.9 165.3,13.2 247,16 -30.9,-8.3 -61.1,-20.6 -89.6,-37.1 L 27732,7282.5 l 625.2,-361 -625.2,-360.9 156.2,-90.1 -156.2,-90.2 625.2,-361 -625.2,-360.9 415.4,-239.5 v -42.1 l 2876.1,-1660.5 3913.6,2259.5 245.5,135.6 -1127.5,583.4 466.6,269.3 -156.2,90.2 156.2,90.1 -625.2,361 625.2,360.9 -2703.8,1561.1 c -31.4,18.1 -64.8,31.3 -99.1,39.5 1593.4,-13.5 2909.5,-919 3404,-1259.3 505,-347.5 1161.5,-809.4 1198.6,-1484.6 29.1,-529 -370.4,-1082.5 -1198.6,-1746.1 -1321.7,-1059 -3787,-2142.4 -5564.9,-2142.4 -374.3,0 -718.2,48 -1014.5,154.4 -200.2,71.9 -418.4,102.9 -650.1,102.9 -716.4,0 -1562.5,-295.8 -2410.5,-591.7 -848,-295.7 -1698,-591.6 -2421.7,-591.6" /></clipPath><linearGradient
       id="linearGradient68"
       spreadMethod="pad"
       gradientTransform="matrix(15023.8,0,0,-15023.8,21299.1,5687.8)"
       gradientUnits="userSpaceOnUse"
       y2="0"
       x2="1"
       y1="0"
       x1="0"><stop
         id="stop64"
         offset="0"
         style="stop-opacity:1;stop-color:#eaf8fe" /><stop
         id="stop66"
         offset="1"
         style="stop-opacity:1;stop-color:#baddf5" /></linearGradient><clipPath
       id="clipPath78"
       clipPathUnits="userSpaceOnUse"><path
         id="path76"
         d="m 21688.9,5607.6 c -585.1,0 -1182.7,184.6 -1798.4,630.9 -1295.7,939.1 -2539.4,1986 -3469.4,2807.9 l 1320.3,762.3 -944,545 20.1,192.9 c 13.2,65.4 -23.2,133.4 -109.5,183.5 -75.1,43.7 -173.8,65.5 -272.5,65.5 -98.8,0 -197.7,-21.8 -273.3,-65.5 -2.8,-1.6 -5.5,-3.2 -8.2,-4.9 l -4738.3,2735.6 -362.3,-209.2 H 10674 v -219.1 l -2133.27,-1231.8 1621.17,-936 c -391.5,-45.1 -781.56,-96.9 -1163.54,-148.7 -1063.88,-144.3 -2065.08,-288.6 -2858.24,-288.6 -935.37,-0.1 -1581.47,200.6 -1700.76,838.5 -31.51,168.5 -25.34,310.7 23.66,476.8 542.5,1839 4707.52,1062.7 8753.88,2975.3 3708.4,1752.9 3034.4,3740.1 5951.6,4391.2 209.5,46.7 419.9,82.6 629.8,108.6 l -449.8,-2176.3 c -27.7,-134.2 36.8,-294.5 143.5,-356.1 l 18.6,-10.7 c -49.1,-6.7 -95.6,-21 -133.6,-43.1 l -5876.8,-3415.2 c -109,-63.4 -108.4,-166.9 1.2,-230.2 L 22375.1,7863 c 50.9,-29.4 118,-44.1 184.9,-44.1 67,0 133.9,14.7 184.5,44.1 l 5890.8,3423.3 c 108.8,63.3 108.2,166.9 -1.3,230.1 l -335.5,193.7 c 41.6,22.1 74,67.3 87,130.2 l 735,3556.1 c 735.8,-783.9 1134.3,-1366.8 2381.6,-1831.2 2278.4,-848.2 3900.3,24.1 4944.3,-1221.2 620.7,-740.2 807.9,-1955.5 336.2,-2476.3 -193.8,-214 -476,-329.4 -899.5,-329.5 -259.4,0 -571.8,43.3 -949.6,133.8 -1246.1,298.4 -2405.5,496.8 -3509.6,496.8 -1477.8,0 -2856.7,-355.3 -4214.2,-1302 C 25392,7599.1 23609.4,5607.6 21688.9,5607.6 m -4959.3,4964.5 v 0 c -15.3,23 -39,44.5 -70.9,63 -61.5,35.8 -142.3,53.7 -223.2,53.7 80.9,0 161.7,-17.9 223.2,-53.7 31.9,-18.5 55.6,-40 70.9,-63 m -294.7,116.7 c 0.1,0 0.2,0 0.3,0 v 0 c -0.1,0 -0.2,0 -0.3,0 m -221.7,14 c 0.7,0.4 1.4,0.8 2.1,1.2 -0.7,-0.4 -1.4,-0.8 -2.1,-1.2 m 440.7,1.6 c -60.9,33.9 -139.6,50.9 -218.4,50.9 78.8,0 157.5,-17 218.4,-50.9 m -219,50.9 c 0.1,0 0.2,0 0.3,0 v 0 c -0.1,0 -0.2,0 -0.3,0" /></clipPath><linearGradient
       id="linearGradient86"
       spreadMethod="pad"
       gradientTransform="matrix(32627.3,0,0,-32627.3,4419.96,12439.3)"
       gradientUnits="userSpaceOnUse"
       y2="0"
       x2="1"
       y1="0"
       x1="0"><stop
         id="stop82"
         offset="0"
         style="stop-opacity:1;stop-color:#eaf8fe" /><stop
         id="stop84"
         offset="1"
         style="stop-opacity:1;stop-color:#baddf5" /></linearGradient><clipPath
       id="clipPath96"
       clipPathUnits="userSpaceOnUse"><path
         id="path94"
         d="m 16729.6,10572.1 h -248.9 c -15.9,2.9 -33,4.4 -50.9,4.4 -5.9,0 -11.7,-0.1 -17.4,-0.5 l -146.4,84.5 c 51.4,18.9 110.2,28.3 168.9,28.3 v 0 c 0.1,0 0.2,0 0.3,0 v 0 c 0.1,0 0.2,0 0.3,0 v 0 c 80.9,0 161.7,-17.9 223.2,-53.7 31.9,-18.5 55.6,-40 70.9,-63" /></clipPath><linearGradient
       id="linearGradient104"
       spreadMethod="pad"
       gradientTransform="matrix(32627.3,0,0,-32627.3,4419.96,12439.3)"
       gradientUnits="userSpaceOnUse"
       y2="0"
       x2="1"
       y1="0"
       x1="0"><stop
         id="stop100"
         offset="0"
         style="stop-opacity:1;stop-color:#eaf8fe" /><stop
         id="stop102"
         offset="1"
         style="stop-opacity:1;stop-color:#baddf5" /></linearGradient><clipPath
       id="clipPath114"
       clipPathUnits="userSpaceOnUse"><path
         id="path112"
         d="m 22560,7818.9 c -66.9,0 -134,14.7 -184.9,44.1 l -8873.7,5123.2 c -109.6,63.3 -110.2,166.8 -1.2,230.2 l 5876.8,3415.2 c 38,22.1 84.5,36.4 133.6,43.1 l 8612.3,-4972.4 c 26.6,-15.3 53.4,-22.6 78.9,-22.6 24.5,0 47.7,6.7 68.4,19.3 9.8,2.6 19.3,6.3 28.3,11.1 l 335.5,-193.7 c 109.5,-63.2 110.1,-166.8 1.3,-230.1 L 22744.5,7863 c -50.6,-29.4 -117.5,-44.1 -184.5,-44.1" /></clipPath><linearGradient
       id="linearGradient122"
       spreadMethod="pad"
       gradientTransform="matrix(32627.3,0,0,-32627.3,4419.96,12439.3)"
       gradientUnits="userSpaceOnUse"
       y2="0"
       x2="1"
       y1="0"
       x1="0"><stop
         id="stop118"
         offset="0"
         style="stop-opacity:1;stop-color:#cad3d6" /><stop
         id="stop120"
         offset="1"
         style="stop-opacity:1;stop-color:#a2bdd0" /></linearGradient><clipPath
       id="clipPath508"
       clipPathUnits="userSpaceOnUse"><path
         id="path506"
         d="m 27334.3,11009.1 -0.3,101.3 244.4,141.1 0.3,-101.3 -244.4,-141.1" /></clipPath><clipPath
       id="clipPath520"
       clipPathUnits="userSpaceOnUse"><path
         id="path518"
         d="m 27680.6,11219.3 -0.3,101.3 244.5,141.2 0.3,-101.3 -244.5,-141.2" /></clipPath><clipPath
       id="clipPath720"
       clipPathUnits="userSpaceOnUse"><path
         id="path718"
         d="M 9942.17,15692.6 7410.77,17163.7 12907.2,20337.1 15438.6,18866 9942.17,15692.6" /></clipPath><linearGradient
       id="linearGradient728"
       spreadMethod="pad"
       gradientTransform="matrix(14884.6,0,0,-14884.6,4484.51,18138.6)"
       gradientUnits="userSpaceOnUse"
       y2="0"
       x2="1"
       y1="0"
       x1="0"><stop
         id="stop724"
         offset="0"
         style="stop-opacity:1;stop-color:#c7d0d3" /><stop
         id="stop726"
         offset="1"
         style="stop-opacity:1;stop-color:#a1bbce" /></linearGradient><clipPath
       id="clipPath954"
       clipPathUnits="userSpaceOnUse"><path
         id="path952"
         d="m 31023.5,3716.3 -2876.1,1660.5 v 42.1 l 2473.8,-1426.1 3900.5,2249.4 -625.2,361 158.6,91.6 1127.5,-583.4 -245.5,-135.6 -3913.6,-2259.5" /></clipPath><linearGradient
       id="linearGradient962"
       spreadMethod="pad"
       gradientTransform="matrix(15023.8,0,0,-15023.8,21299.1,5687.8)"
       gradientUnits="userSpaceOnUse"
       y2="0"
       x2="1"
       y1="0"
       x1="0"><stop
         id="stop958"
         offset="0"
         style="stop-opacity:1;stop-color:#c7d0d3" /><stop
         id="stop960"
         offset="1"
         style="stop-opacity:1;stop-color:#a1bbce" /></linearGradient><clipPath
       id="clipPath1044"
       clipPathUnits="userSpaceOnUse"><path
         id="path1042"
         d="m 14660.8,4579.2 -2169.1,1240.6 947.8,545.8 c 106.2,61.3 106.7,161.5 1.3,222.8 l -1446.6,840.7 c -52.6,30.6 -122.3,45.9 -192,45.9 -69.7,0 -139.5,-15.3 -192.6,-45.9 L 10647.2,6874.9 8603.78,8043.6 11330,9581.3 17329.7,6120.2 14660.8,4579.2" /></clipPath><linearGradient
       id="linearGradient1052"
       spreadMethod="pad"
       gradientTransform="matrix(13783.2,0,0,-13783.2,4986.37,6018.5)"
       gradientUnits="userSpaceOnUse"
       y2="0"
       x2="1"
       y1="0"
       x1="0"><stop
         id="stop1048"
         offset="0"
         style="stop-opacity:1;stop-color:#c7d0d3" /><stop
         id="stop1050"
         offset="1"
         style="stop-opacity:1;stop-color:#a1bbce" /></linearGradient><clipPath
       id="clipPath1078"
       clipPathUnits="userSpaceOnUse"><path
         id="path1076"
         d="m 11324.8,10176.3 -44.6,-24.3 c 15.9,8.7 34.9,12.4 55.2,9.5 l 44.6,24.3 c -20.3,2.8 -39.3,-0.8 -55.2,-9.5" /></clipPath><clipPath
       id="clipPath1092"
       clipPathUnits="userSpaceOnUse"><path
         id="path1090"
         d="m 11391.1,9947.8 44.6,24.2 c 28.9,15.7 48,47.9 48,87.6 -0.2,61.7 -46.5,118.2 -103.7,126.2 l -44.6,-24.3 c 57.2,-8 103.6,-64.5 103.7,-126.1 0,-39.8 -19.1,-71.9 -48,-87.6" /></clipPath><clipPath
       id="clipPath1128"
       clipPathUnits="userSpaceOnUse"><path
         id="path1126"
         d="m 8837.14,8747.1 -44.58,-24.3 c 15.97,8.7 34.92,12.4 55.26,9.5 l 44.59,24.3 c -20.34,2.9 -39.29,-0.8 -55.27,-9.5" /></clipPath><clipPath
       id="clipPath1142"
       clipPathUnits="userSpaceOnUse"><path
         id="path1140"
         d="m 8903.5,8518.6 44.59,24.2 c 28.9,15.8 48.02,47.9 47.94,87.6 -0.11,61.7 -46.48,118.2 -103.62,126.2 l -44.59,-24.3 c 57.14,-8 103.52,-64.4 103.62,-126.1 0.08,-39.7 -19.04,-71.9 -47.94,-87.6" /></clipPath><clipPath
       id="clipPath1206"
       clipPathUnits="userSpaceOnUse"><path
         id="path1204"
         d="m 17077.8,6851.9 -44.6,-24.2 c 16,8.7 35,12.3 55.3,9.5 l 44.6,24.2 c -20.3,2.9 -39.3,-0.8 -55.3,-9.5" /></clipPath><clipPath
       id="clipPath1226"
       clipPathUnits="userSpaceOnUse"><path
         id="path1224"
         d="m 17144.2,6623.4 44.6,24.3 c 28.9,15.7 48,47.8 47.9,87.6 -0.1,61.6 -46.5,118.1 -103.6,126.1 l -44.6,-24.2 c 57.2,-8.1 103.5,-64.5 103.6,-126.2 0.1,-39.7 -19,-71.9 -47.9,-87.6" /></clipPath><clipPath
       id="clipPath1276"
       clipPathUnits="userSpaceOnUse"><path
         id="path1274"
         d="m 14590.2,5422.7 -44.6,-24.2 c 16,8.7 34.9,12.3 55.3,9.5 l 44.6,24.2 c -20.4,2.9 -39.3,-0.8 -55.3,-9.5" /></clipPath><clipPath
       id="clipPath1290"
       clipPathUnits="userSpaceOnUse"><path
         id="path1288"
         d="m 14656.6,5194.2 44.6,24.3 c 28.8,15.7 48,47.9 47.9,87.6 -0.1,61.6 -46.5,118.1 -103.6,126.1 l -44.6,-24.2 c 57.1,-8.1 103.5,-64.5 103.6,-126.2 0.1,-39.7 -19,-71.9 -47.9,-87.6" /></clipPath><clipPath
       id="clipPath1506"
       clipPathUnits="userSpaceOnUse"><path
         id="path1504"
         d="m 13833.6,10205.4 c -7.6,0 -13.8,3.3 -13.8,7.4 0,4.1 6.2,7.5 13.8,7.5 7.6,0 13.7,-3.4 13.7,-7.5 0,-4.1 -6.1,-7.4 -13.7,-7.4" /></clipPath><clipPath
       id="clipPath1670"
       clipPathUnits="userSpaceOnUse"><path
         id="path1668"
         d="m 16480.7,10572.1 h -61.5 l -6.8,3.9 c 5.7,0.4 11.5,0.5 17.4,0.5 17.9,0 35,-1.5 50.9,-4.4" /></clipPath><linearGradient
       id="linearGradient1678"
       spreadMethod="pad"
       gradientTransform="matrix(32627.3,0,0,-32627.3,4419.96,12439.3)"
       gradientUnits="userSpaceOnUse"
       y2="0"
       x2="1"
       y1="0"
       x1="0"><stop
         id="stop1674"
         offset="0"
         style="stop-opacity:1;stop-color:#4b271f" /><stop
         id="stop1676"
         offset="1"
         style="stop-opacity:1;stop-color:#4b271f" /></linearGradient><clipPath
       id="clipPath1712"
       clipPathUnits="userSpaceOnUse"><path
         id="path1710"
         d="m 9426.27,4119.6 c -69.72,0 -139.35,15.3 -192.07,46 l -1446.53,840.6 c -105.37,61.3 -104.8,161.6 1.26,222.8 L 10647.2,6874.9 12491.7,5819.8 9618.87,4165.6 c -53.04,-30.6 -122.87,-46 -192.6,-46" /></clipPath><linearGradient
       id="linearGradient1718"
       spreadMethod="pad"
       gradientTransform="matrix(13783.2,0,0,-13783.2,4986.37,6018.5)"
       gradientUnits="userSpaceOnUse"
       y2="0"
       x2="1"
       y1="0"
       x1="0"><stop
         id="stop1714"
         offset="0"
         style="stop-opacity:1;stop-color:#c7d0d3" /><stop
         id="stop1716"
         offset="1"
         style="stop-opacity:1;stop-color:#a1bbce" /></linearGradient><clipPath
       id="clipPath1728"
       clipPathUnits="userSpaceOnUse"><path
         id="path1726"
         d="m 12491.7,5819.8 -1844.5,1055.1 962.4,554.2 c 53.1,30.6 122.9,45.9 192.6,45.9 69.7,0 139.4,-15.3 192,-45.9 l 1446.6,-840.7 c 105.4,-61.3 104.9,-161.5 -1.3,-222.8 l -947.8,-545.8" /></clipPath><linearGradient
       id="linearGradient1734"
       spreadMethod="pad"
       gradientTransform="matrix(13783.2,0,0,-13783.2,4986.37,6018.5)"
       gradientUnits="userSpaceOnUse"
       y2="0"
       x2="1"
       y1="0"
       x1="0"><stop
         id="stop1730"
         offset="0"
         style="stop-opacity:1;stop-color:#aaafb1" /><stop
         id="stop1732"
         offset="1"
         style="stop-opacity:1;stop-color:#8b9fad" /></linearGradient><clipPath
       clipPathUnits="userSpaceOnUse"
       id="clipPath8585"><rect
         style="fill:#66e0f0;fill-opacity:1;stroke-width:7.72632;stroke-linejoin:round"
         id="rect8587"
         width="2351.8999"
         height="2351.8999"
         x="503.98001"
         y="-2351.8999"
         transform="scale(1,-1)" /></clipPath><style
       id="style9286">.cls-1{fill:#e9f4e9;}.cls-2{fill:#ef5451;}.cls-3{fill:#80cbc4;}.cls-4{fill:#09897b;}.cls-5{fill:#263238;}.cls-6{fill:#fff;}.cls-7{fill:#fcb316;}.cls-8{fill:#0377be;}</style></defs><g
     transform="matrix(0.01052576,0,0,-0.01052576,-11.642331,211.71354)"
     id="g12"><g
       transform="scale(1.14438)"
       id="g14"><path
         id="path16"
         style="fill:#371519;fill-opacity:1;fill-rule:nonzero;stroke:none"
         d="M 6236.08,5201.42 5261.31,5471.87 8264,16300 9238.71,16029.5 6236.08,5201.42" /></g><g
       transform="scale(1.20541)"
       id="g18"><path
         id="path20"
         style="fill:#7ad2c8;fill-opacity:1;fill-rule:nonzero;stroke:none"
         d="M 13449.2,2850.48 5684.99,5003.44 8535.76,15283.4 16300,13130.1 13449.2,2850.48" /></g><g
       transform="scale(1.10306)"
       id="g22"><path
         id="path24"
         style="fill:#d5d1ed;fill-opacity:1;fill-rule:nonzero;stroke:none"
         d="m 15525.8,10730.6 -5381.2,1492 774.2,2791.8 5381.2,-1492.1 -774.2,-2791.7" /></g><g
       transform="scale(1.07917)"
       id="g26"><path
         id="path28"
         style="fill:#371519;fill-opacity:1;fill-rule:nonzero;stroke:none"
         d="m 10255,16300 c 0,0 -42.9,-163.3 -118,-449.5 -76,-285.8 -180.8,-695 -313.12,-1184.3 -132.14,-489.4 -286.42,-1060.5 -451.65,-1672.2 -167.8,-611 -346.76,-1262.9 -525.74,-1914.7 C 8664.24,10428.4 8481.99,9777.55 8311.11,9167.36 8137.71,8557.9 7975.9,7988.95 7837.17,7501.44 7698.61,7013.84 7577.6,6608.99 7495.45,6324.88 7412.52,6041.05 7365.16,5878.8 7365.16,5878.8 c 0,0 42.93,163.55 118.01,449.6 75.96,285.78 180.67,695.08 313.04,1184.44 132.2,489.36 286.47,1060.35 451.74,1672.03 167.8,611.12 346.82,1262.93 525.78,1914.63 182.26,650.9 364.54,1301.8 535.4,1911.8 173.37,609.6 335.26,1178.6 473.98,1666.1 138.62,487.5 259.59,892.5 341.69,1176.6 82.9,283.7 130.2,446 130.2,446" /></g><g
       transform="scale(1.20541)"
       id="g30"><path
         id="path32"
         style="fill:#699589;fill-opacity:1;fill-rule:nonzero;stroke:none"
         d="m 16300,13130.1 v 0 l -615,170.5 v 0 l -496.3,137.7 c 0,0 0,0 0,0.1 l 1111.3,-308.3" /></g><g
       transform="scale(1.20541)"
       id="g34"><path
         id="path36"
         style="fill:#328373;fill-opacity:1;fill-rule:nonzero;stroke:none"
         d="m 13449.2,2850.48 -3377.4,936.53 v 0.08 l 3377.4,-936.61 m -3377.4,1414.71 v 1040.39 c 2148.7,664.17 4048.1,2673.77 4801,5388.32 257.9,930.1 356.3,1858.3 315.9,2744.4 l 496.3,-137.7 c 120.8,-605 169.2,-1240.6 137.9,-1890.7 L 16300,13130.1 14845.3,7884.53 C 13781.4,5904.54 11992.1,4562.51 10071.8,4265.19" /></g><g
       transform="scale(1.20541)"
       id="g38"><path
         id="path40-5"
         style="fill:#133f32;fill-opacity:1;fill-rule:nonzero;stroke:none"
         d="m 16300,13130.1 -615,170.5 c 0,0 0,0 0,0 l 615,-170.5" /></g><g
       transform="scale(1.20541)"
       id="g42"><path
         id="path44"
         style="fill:#043a27;fill-opacity:1;fill-rule:nonzero;stroke:none"
         d="m 15822.9,11409.9 c 31.3,650.1 -17.1,1285.7 -137.9,1890.7 l 615,-170.5 -477.1,-1720.2" /></g><g
       transform="scale(1.09784)"
       id="g46"><path
         id="path48"
         style="fill:#699589;fill-opacity:1;fill-rule:nonzero;stroke:none"
         d="m 14767,3129.78 v 0 l 1532.9,5527.31 c 0.1,0.18 0.1,0.18 0.1,0.18 L 14767,3129.78" /></g><g
       transform="scale(1.09784)"
       id="g50"><path
         id="path52"
         style="fill:#043a27;fill-opacity:1;fill-rule:nonzero;stroke:none"
         d="m 14767,3129.78 v 0 l -3708.4,1028.38 v 524.94 c 2108.5,326.46 4073.1,1799.99 5241.4,3974.17 L 14767,3129.78" /></g><path
       id="path54"
       style="fill:#371519;fill-opacity:1;fill-rule:nonzero;stroke:none"
       d="m 1564.98,2573.3 h 1157.67 v 12859 H 1564.98 Z" /><path
       id="path56"
       style="fill:#ee2730;fill-opacity:1;fill-rule:nonzero;stroke:none"
       d="m 2428.31,2573.3 h 9712.29 v 12859 H 2428.31 Z" /><path
       id="path58-9"
       style="fill:#f6881c;fill-opacity:1;fill-rule:nonzero;stroke:none"
       d="M 10776.6,10912.6 H 4616.64 v 3195.5 h 6159.96 v -3195.5" /><path
       id="path60"
       style="fill:#371519;fill-opacity:1;fill-rule:nonzero;stroke:none"
       d="m 3400.45,14838.4 c 0,0 2.49,-182.4 6.8,-501.5 3.48,-319.2 12.5,-775 16.06,-1322.2 3.65,-547.1 7.89,-1185.3 12.47,-1869 1.7,-684 3.53,-1413.5 5.41,-2142.9 -1.83,-729.4 -3.66,-1458.9 -5.37,-2142.7 -4.55,-683.9 -8.81,-1322.1 -12.42,-1869.2 -3.51,-547.1 -12.62,-1003 -16.08,-1322.1 -4.38,-319 -6.87,-501.4 -6.87,-501.4 0,0 -2.48,182.4 -6.86,501.4 -3.47,319.1 -12.6,775 -16.11,1322.1 -3.6,547.1 -7.84,1185.3 -12.4,1869.2 -1.75,683.8 -3.53,1413.3 -5.36,2142.7 1.83,729.4 3.71,1458.9 5.41,2142.9 4.56,683.7 8.82,1321.9 12.43,1869 3.6,547.2 12.61,1003 16.07,1322.2 4.34,319.1 6.82,501.5 6.82,501.5" /><path
       id="path62"
       style="fill:#ac1319;fill-opacity:1;fill-rule:nonzero;stroke:none"
       d="m 5203.41,2573.3 v 0 c -983.96,0 -1921.27,234.7 -2775.1,658.8 v -658.8 1041.9 c 315.26,-97 638.68,-168.4 968.92,-211.9 2.09,-152.6 3.22,-235.9 3.22,-235.9 0,0 1.14,83 3.22,235.1 246.22,-32.2 496.27,-48.7 749.45,-48.7 3929.19,0 7114.38,3934.7 7114.38,8789 0,1163.4 -184.7,2273.3 -517.1,3289.5 h 1390.2 -769.3 c 335.4,-664 596.3,-1386.4 769.3,-2151.8 v -61.9 -4347.8 C 11320.1,5244.4 8525.67,2573.3 5203.41,2573.3" /><path
       id="path64"
       style="fill:#2a0c0e;fill-opacity:1;fill-rule:nonzero;stroke:none"
       d="m 3400.45,3167.4 c 0,0 -1.13,83.3 -3.22,235.9 2.15,-0.3 4.28,-0.6 6.44,-0.8 -2.08,-152.1 -3.22,-235.1 -3.22,-235.1" /><path
       id="path66"
       style="fill:#7f0d11;fill-opacity:1;fill-rule:nonzero;stroke:none"
       d="m 12140.6,13280.5 c -173,765.4 -433.9,1487.8 -769.3,2151.8 h 769.3 v -2151.8" /><path
       id="path68"
       style="fill:#7f0d11;fill-opacity:1;fill-rule:nonzero;stroke:none"
       d="m 5203.41,2573.3 h -2775.1 v 658.8 c 853.83,-424.1 1791.14,-658.8 2775.1,-658.8" /><path
       id="path70"
       style="fill:#7f0d11;fill-opacity:1;fill-rule:nonzero;stroke:none"
       d="M 12140.6,2573.3 H 5203.41 c 3322.26,0 6116.69,2671.1 6937.19,6297.5 V 5141.3 4565 4564.9 2573.3" /></g></svg>
