<?xml version="1.0" encoding="UTF-8"?>
<svg data-bbox="0.001 -0.008 565.561 319.528" viewBox="0 0 565.57 319.52" xmlns="http://www.w3.org/2000/svg" data-type="ugc">
    <g>
        <path d="M1.58 319.52s-11.94-98.5 29.85-128.35c36.39-26 66.66-41.79 128.35-43.78s95.51-2 132.33-42.78S378.71 2.21 434.38.14c53.73-2 86.56 14.92 117.4 134.32s-1 181.08-2 182.07c-.69.71-548.2 2.99-548.2 2.99z" fill="#f8f8ff"/>
        <path d="M251.99 241.61c3.39-41-9.24-101 5.5-109.35 14.55-8.23 19.51-10.92 34.61-27.65C328.91 63.82 378.66 2.2 434.38.14c53.73-2 86.56 14.92 117.4 134.32 15.42 59.7 14.51 91.24 13 110.09-.82 10.37-1.64 23.87-2.14 24.36-.69.71-313.46 6.75-310.65-27.3z" fill="#e9edfc"/>
        <path d="m127.38 109.26-4.42 208.26c0 1.49 4 1 5 1h6l-.92-208.92 35.74 1-15.52-87.67a9.5 9.5 0 0 0-9.36-7.85h-24.66a12.16 12.16 0 0 0-12 10l-15.11 83.53z" fill="#e1e6fc"/>
        <path d="M65.84 269.44s-.22 8.16 1.16 9.07a5.59 5.59 0 0 0 2 1l6.87 37.07s20.14 3.66 30.21-.46l6.87-36.62 2.29-.92.92-9.15s-24.69-8.23-50.32.01z" fill="#e1e6fc"/>
        <path d="M68.15 279.27s27 2.07 30.19 1.16 2.29-8.24 2.29-8.24l13.27-1.37s0 7.78-.92 8.7a12.69 12.69 0 0 0-2.29 4.12c0 .46-5.49 33-5.49 33s-8.7 1.37-10.07 1.37 3.66-26.95 3.66-28.84 0-5.49-1.37-5.49-27.84.79-28-2.16a4.92 4.92 0 0 0-1.27-2.25z" fill="#bac4f6"/>
        <path d="M78.78 271.15s-7.53-5.29-11.53-5.77-8.64-1-12.64-1.62-9.1-2.41-9-4.75.58-3.46 2.93-4.85a15.85 15.85 0 0 1 6.57-2.43c1.76-.16 19.82 4.53 27.35 15.74l3 3.68z" fill="#bac4f6"/>
        <path d="M52.71 258.07s6.92-.09 10.71 1.14a60.75 60.75 0 0 1 8.59 4l11.33 7.89" stroke="#ffffff" stroke-linecap="round" stroke-miterlimit="10" stroke-width=".75" fill="#bac4f6"/>
        <path d="M86.71 270.84s-8.76-11.9-12.17-15.25-7.4-7.18-10.69-10.68-7.44-8.52-5.69-10.58 3-3.46 6.19-3a15.11 15.11 0 0 1 6.95 2.57c1.76 1.14 17.67 16.31 20 33.74l2.29 3.53z" fill="#bac4f6"/>
        <path d="M66.13 238.33s6.82 4.08 9.5 8c2.53 3.66 6.54 10.21 6.54 10.21l4.55 12.49" fill="none" stroke="#ffffff" stroke-linecap="round" stroke-miterlimit="10" stroke-width=".75"/>
        <path d="M91.09 271.43s-10.23-22.21-12.14-26.6-9.72-11-11.45-15.48-2.83-7.74-1-10.2 6.53-4.5 9.53-3c2.83 1.38 6.51 5.58 8.09 7.71 1.26 1.68 9.63 31.85 8.94 38.81l1.6 8.91z" fill="#e9edfc"/>
        <path d="M73.07 224.33s5.87 7.56 7.65 12c2 5 4 14.53 3.74 13l6.11 20.63" fill="none" stroke="#ffffff" stroke-linecap="round" stroke-miterlimit="10" stroke-width=".75"/>
        <path d="M85.48 271.26s-9-10.27-13.39-12.26-9.38-4.24-13.67-6.38-9.44-5.77-8.57-7.95 1.76-3.06 4.86-3.47a21.11 21.11 0 0 1 8.16.22c2 .52 20.8 11.88 25.63 25.37l2.23 4.65z" fill="#e9edfc"/>
        <path d="M58.15 246.53s7.79 2.56 11.66 5.18a78.78 78.78 0 0 1 8.36 7.06l8.64 12.58" fill="none" stroke="#ffffff" stroke-linecap="round" stroke-miterlimit="10" stroke-width=".75"/>
        <path d="M109.02 271.49s8.15-5 12.48-5.51 9.34-.94 13.68-1.55 9.85-2.3 9.74-4.54-.62-3.31-3.17-4.64a18.64 18.64 0 0 0-7.11-2.32c-1.91-.15-21.45 4.32-29.6 15l-3.29 3.52z" fill="#bac4f6"/>
        <path d="M137.21 259.01s-7.48-.09-11.59 1.09a70 70 0 0 0-9.3 3.8l-10.87 7.3" stroke="#ffffff" stroke-linecap="round" stroke-miterlimit="10" stroke-width=".75" fill="#bac4f6"/>
        <path d="M100.43 271.2s9.47-11.36 13.17-14.56 8-6.86 11.57-10.2 8.05-8.13 6.15-10.11-3.24-3.31-6.7-2.89a17.72 17.72 0 0 0-7.52 2.45c-1.91 1.08-19.12 15.58-21.64 32.22l-2.47 3.37z" fill="#bac4f6"/>
        <path d="M122.71 240.17s-7.38 3.89-10.28 7.6c-2.74 3.5-7.07 9.75-7.07 9.75l-4.93 11.92" fill="none" stroke="#ffffff" stroke-linecap="round" stroke-miterlimit="10" stroke-width=".75"/>
        <path d="M95.71 271.77s11.07-21.21 13.13-25.41 10.52-10.48 12.39-14.78 3.06-7.4 1.1-9.74-7.07-4.3-10.31-2.9c-3.06 1.32-7 5.33-8.75 7.36-1.36 1.61-10.42 30.41-9.68 37.07l-1.73 8.51z" fill="#e9edfc"/>
        <path d="M94.64 271.5s.89-20.7 3-27.42c1.43-4.45 2.83-12 4.7-16.25s-1-9.84-2.92-12.19-7-1.9-10.28-.51c-3.06 1.32-4.82 5.59-5.21 7.87-.35 2.08 7 27.05 6.22 36.18l.63 12.44z" fill="#bac4f6"/>
        <path d="M115.2 226.82s-6.35 7.22-8.28 11.45c-2.18 4.79-4.35 13.88-4 12.38l-7.19 20.2" fill="none" stroke="#ffffff" stroke-linecap="round" stroke-miterlimit="10" stroke-width=".75"/>
        <path d="M101.77 271.61s9.79-9.81 14.49-11.71 10.15-4 14.79-6.09 10.21-5.51 9.27-7.59-1.91-2.92-5.26-3.31a25.82 25.82 0 0 0-8.83.21c-2.2.5-22.5 11.34-27.73 24.23l-2.41 4.44z" fill="#e9edfc"/>
        <path d="M131.35 247.98s-8.43 2.44-12.61 4.94a83.36 83.36 0 0 0-9.05 6.74l-9.54 10.58" fill="none" stroke="#ffffff" stroke-linecap="round" stroke-miterlimit="10" stroke-width=".75"/>
        <path d="M92.62 219.55s1.7 17.73.71 22.5c-.41 2-.21 14.47-.21 14.47l-.41 13.81" fill="none" stroke="#ffffff" stroke-linecap="round" stroke-miterlimit="10" stroke-width=".75"/>
        <path fill="#bac4f6" d="m93 103.94 74.21 1.37 1.52 5.27-76.61-1.99.88-4.65z"/>
        <path d="m457.87 116.83-.61 145.81 92.6.25s.67-76.79-3-150.33l-88.8-1.33z" fill="#bac4f6"/>
        <path fill="#bac4f6" d="m370.74 135.68-2.46 127.3h79.15l-.56-127.3h-76.13z"/>
        <path fill="#bac4f6" d="m255.8 210.38 113.76.59-1.28 52.01-112.05-.04-.43-52.56z"/>
        <path d="m246.43 137 .28 126.25s.69 7.94 8.28 8.28 306.75.47 306.75.47 2.67-8.37 1.64-8.72-307.15-.34-307.15-.34.09-4.47.09-7.33c0-3.18-.17-122.59-.17-122.59a52.57 52.57 0 0 1-9.72 3.98z" fill="#ffffff"/>
        <path fill="#ffffff" d="m253.03 149.54 302.69 1.81 1.6 6.56-304.29 1.46v-9.83z"/>
        <path fill="#ffffff" d="M338.44 51.23V263.2l7.99.62V45.7l-7.99 5.53z"/>
        <path fill="#ffffff" d="m483 8.58-.18 254.62 7.38-.61 1.15-249.04L483 8.58z"/>
        <path fill="#ffffff" d="m346.43 45.7 172.75 1.05-4.97-8.95-157.95-.08-9.83 7.98z"/>
        <path fill="#ffffff" d="M393.11 69.89c0 9.698-7.862 17.56-17.56 17.56-9.698 0-17.56-7.862-17.56-17.56 0-9.698 7.862-17.56 17.56-17.56 9.698 0 17.56 7.862 17.56 17.56z"/>
        <path fill="#ffffff" d="M404.15 75.54c0 6.357-5.153 11.51-11.51 11.51s-11.51-5.153-11.51-11.51 5.153-11.51 11.51-11.51 11.51 5.153 11.51 11.51z"/>
        <path fill="#ffffff" d="M526.65 86.09c0 9.88-8.01 17.89-17.89 17.89s-17.89-8.01-17.89-17.89 8.01-17.89 17.89-17.89 17.89 8.01 17.89 17.89z"/>
        <path fill="#ffffff" d="M502.05 88.37c0 6.473-5.247 11.72-11.72 11.72-6.473 0-11.72-5.247-11.72-11.72 0-6.473 5.247-11.72 11.72-11.72 6.473 0 11.72 5.247 11.72 11.72z"/>
    </g>
</svg>
