<svg xmlns="http://www.w3.org/2000/svg" xmlns:xlink="http://www.w3.org/1999/xlink" height="200" width="200" xmlns:v="https://vecta.io/nano"><path d="M178.808 118.31H21.392V29.967h157.417v88.343" fill="#00538c"/><path d="M178.808 118.31H21.392v20.541h157.417V118.31" fill="#0485c6"/><path d="M115.316 161.316H84.133v-22.3h31.183v22.3" fill="#0186cb"/><path d="M147.952 161.316H51.498v5.076h96.454v-5.076" fill="#22dcd1"/><path d="M115.316 140.647l-31.183 3.263v-4.894h31.183v1.631" fill="#00538c"/><path d="M173.763 35.131v83.579H25.056V35.131h148.707" fill="#28c5ce"/><path d="M172.082 116.782H72.254V43.266h99.828v73.516" fill="#1fb2b2"/><path d="M173.763 114.147H74.083V40.739h99.681v73.409" fill="#95dddc"/><path d="M38.687 104.404l.062-.207.011.196-.072.011m19.951-45.09c.08.891-.131 1.682-.522 2.164.083-1.327.062-2.676-.131-4.017.344.482.587 1.135.653 1.853m35.945 16.944c-.058-.094-.12-.199-.112-.305.004-.134.112-.229.196-.33.271-.337.286-.856.028-1.247-.294-.457-.889-.682-1.417-.649-.124.011-.24.029-.356.062l.102-3.579c-.374-.156-.881-.192-1.277-.25l-.022 4.522c-.304.279-.598.638-.841 1.044l-.094.033c-.378.134-.754.272-1.088.479-.783.493-1.255 1.389-1.225 2.324.028.961.547 1.907.522 2.865-.022.714-.34 1.349-.722 1.944l-.754-.497c-2.176 2.803-4.51 5.428-7.023 7.948a220.28 220.28 0 0 1-7.198-5.794l-.156-2.092c-.218-.025-.432-.029-.645-.022.029-.41.043-.816.025-1.215a22.11 22.11 0 0 0-2.339.664l-.914-.791c-2.687-2.368-5.7-4.696-9.051-5.831l-.236-.649c-2.618-.7-5.254-1.211-7.912-1.567-.377-.413-.816-.779-1.298-1.073l-.442-1.367-.254-.907-.043-.174a15.99 15.99 0 0 1-.17-.725l-.047-.226c.943.302 1.907.476 2.861.422 3.155-.178 4.467-2.339 5.04-4.834.054-.004.112-.004.167-.004a1.84 1.84 0 0 0-.109-.266 18.68 18.68 0 0 0 .319-2.408c.519-.489.816-1.403.722-2.45-.08-.882-.421-1.665-.885-2.187-.051-.308-.109-.62-.178-.927-.627-2.782-2.212-5.346-4.844-6.861-2.459-1.415-5.501-1.999-8.104-1.248-1.414.41-2.665 1.306-3.55 2.405-.413.511-1.015 1.407-1.352 2.302-.402.312-.689.769-.845 1.259-.214.674-.21 1.411-.17 2.139a14.09 14.09 0 0 0 .315 2.386c-.257.094-.49.236-.667.438-.457.533-.482 1.313-.421 2.035.036.449.105.903.29 1.326.504 1.154 1.824 1.871 3.082 2.013.508.058 1.041.032 1.472-.178l.261 1.477a73.37 73.37 0 0 1 .707 5.602c-.634.598-1.207 1.257-1.704 1.968a5.48 5.48 0 0 0-.344.555l-8.394 3.401c-5.124 6.291-7.111 14.657-7.208 22.978-.036 2.875.131 5.798.979 8.634.402 1.349.972 2.694 1.889 3.822.363.45.794.867 1.298 1.146.522.497 1.106.932 1.748 1.269.975.511 2.049.798 3.115 1.005 1.465.283 2.944.41 4.409.406l.17 2.049h32.461c-.493-4.5-1.345-8.953-2.694-13.311 1.458-.703 2.959-1.338 4.453-1.955l-.062-2.777.696.33c1.748.812 3.543 1.523 5.406 1.878l.627.102c.105.014.21.025.316.036.526.047 1.052.04 1.548-.069a4.15 4.15 0 0 0 1.741-.867c.083-.069.166-.141.246-.214.16-.145.312-.304.457-.468a7.26 7.26 0 0 0 .42-.511 12.44 12.44 0 0 0 .748-1.099l.174-.279c2.45-4.065 4.59-8.474 6.103-13.003-.208-.185-.418-.363-.628-.537-.014-.011-.028-.025-.044-.036-.076-.065-.155-.127-.232-.189.32-.54.58-1.117.686-1.722l.453-.29c.638-.41 1.291-.83 1.749-1.425a2.65 2.65 0 0 0 .493-1.041c.264-.37.374-.845.414-1.313.097-1.182-.2-2.426-.834-3.51" fill="#1fb2b2"/><path d="M173.763 111.856H77.194V43.031h96.569v68.825" fill="#100a3a"/><g fill="#231d49"><path d="M159.023 98.542c-.072 0-.518-.667.544-.729-.095.106.135.715-.399.715a1.02 1.02 0 0 1-.138-.011c.004.018 0 .026-.007.026m-13.105 1.081l1.692-.58-.196.265-1.496.314m-3.174-.1l-.331-.282c-.384-.101-.803-.136-1.237-.136-.486 0-.99.044-1.484.088l-1.422.088c-.735 0-1.363-.12-1.758-.558.5.119 1.121.162 1.808.162l5.262-.246-.837.884m-12.326-3.235c-.002 0 .355-.08.153-.327l1.112.072h0 0c.079.04.119.07.253.124l-1.518.131"/><path d="M131.742 96.033a4.68 4.68 0 0 1-.058 0h0 0c-.251-.134-.217-.179-.094-.179s.331.045.424.09.07.09-.272.09m-6.739.845c.235-.171.405-.231.534-.231.101 0 .177.038.241.089l-.775.142m1.103.141c-.126 0-.197-.171-.328-.283l1.643-.299c-.476.149-.771.345-.872.345-.048 0-.053-.042-.015-.148-.208.289-.334.385-.428.385m2.735.458c1.497-.34.393-.543-.469-.829l.23-.002c2.68 0 3.046.79.24.831m8.318 2.811l-1.148-.393c-.022-.09.067-.123.219-.123.192 0 .486.051.791.103l.854.103a.77.77 0 0 0 .246-.031l-.962.342m-19.551-4.112c-.061-.144-.222-.311-.373-.472l-.752.168c.237-.111.402-.218.251-.29l.339-.057c-.106-.128-.177-.247-.147-.339.031.119.168.218.356.304l1.515-.253c.187.081-.408.217-1.174.382l1.083.304-1.1.252m7.197 1.98l-.527-.006 3.224-.785-2.697.79m-14.985-2.868l1.631-.831-.91.553-.721.278m-3.507-.251c-.855-.263-1.577-.384-2.23-.384-.357 0-.694.036-1.02.106.855-.357 1.809-.75 2.955-.817-.721.28.965.633.295 1.095"/><path d="M101.618 95.275c.475-.261.954-.413 1.444-.517l-1.444.517m9.57 1.135l.6-.087-.758-.048.818.04.503-.073-.6-.606c.641.126.97.347 1.162.524l.592-.086-.562.115c.075.073.129.137.168.181l-.658-.025.025.023-.31-.02-.08.017-.899.047m1.219-.112l-.173.035.218.011-.045-.046m.796.131c-.028 0-.057-.024-.094-.063l.166.007c-.027.039-.049.056-.072.056m-7.957.12a24.33 24.33 0 0 1-3.069-.245c.941-.038 1.776-.057 2.52-.348h.035c1.042 0 .64.379.515.593m3.196-.256c-.031 0-.077-.02-.13-.049.049-.015.116-.022.168-.037.014.062-.003.085-.037.085m-5.9 6.34c.001-.041-.004-.079-.006-.119l.209.067-.202.053"/><path d="M105.978 96.738a2.99 2.99 0 0 1-.552-.055.82.82 0 0 1-.102.007c-.137 0-.124-.058-.077-.139h.097c.611 0 1.181-.036 1.718-.094-.308.153-.629.281-1.083.281m-5.587-.77l-1.346-.396c.025-.034.075-.049.142-.049.284 0 .878.264 1.205.445m7.651.082c-.066-.064-.106-.116-.074-.116a.59.59 0 0 1 .186.088c-.041.006-.075.018-.112.029"/><path d="M107.062 96.457c.3-.147.597-.316.983-.408a1.27 1.27 0 0 0 .27.197c-.366.095-.792.163-1.252.211m-5.934 7.374l-1.9-.118a6.55 6.55 0 0 0-1.024.077l-.001-.012.709-.283-.242.17 3.874-1.031c-.013.22-.187.51-1.416 1.197m-4.089-7.466l-.001-.012.046.007-.045.005"/><path d="M99.212 98.135c-1.113-.769.593-1.048 1.105-1.743l-1.845.048c-.564 0-.999-.023-1.386-.079l3.388-.348.013.009c0 .037-.025.07-.034.104.018-.002.059-.005.07-.014a.4.4 0 0 0 .092.021c.043 0-.015-.046-.128-.111l.003-.011-.015.002-.081-.044 1.786.338-1.829.166c2.212.376-.965.825.667.825l.873-.023c-1.241.291-.57.834-2.677.86m1.241-2.01c-.304.079-1.134.108-.135.263.062-.081.119-.165.135-.263m17.238 4.084c-.414-.029-.334-.085-.119-.166h0 0c.01.051.009.101.119.166m-15.154 2.306c-1.027-.298-1.974-.874-2.458-1.497-.493-.621-.515-1.277.186-1.695a4.8 4.8 0 0 0 .518.028c.774 0 1.479-.187 2.014-.434.726-.312.832-.667.534-.926.685.002.397.384.564.525l.217-.104.182-.099.356-.196.671-.383c.13.044.24.09.333.138l.124.072c.04.024.076.049.068.078.012.113-.032.231-.113.352-.025.037-.059.075-.09.113l2.564-.273c-.155.236.098.599-.828.599a5.95 5.95 0 0 1-.601-.036l.098.365-1.319-.556c-.168.174-.387.352-.609.524-.619.484-1.246.939-.578 1.15h-.072a3.43 3.43 0 0 1-.788-.09c-.208-.045-.388-.09-.624-.09-.366 0-.868.11-1.815.503-.644.464-.111.591.709.601l.144.001.94-.025.849-.025a2.7 2.7 0 0 1 .38.02c-1.684.848-1.607 1.094-1.555 1.36m.557 1.06l.138-.786 1.26-.672-1.398 1.458m4.326-1.48l-.174-.571 1.055-.065-.881.636m49.943-25.577c-.025-.099-.204-.168-.682-.168-.286 0-.681.025-1.212.083l2.207-.797c.654-.214 1.011-.3 1.166-.3.441 0-.782.71-1.478 1.182"/><path d="M128.677 76.178l.579-.912h0 0l.395.094-.974.818m-21.737 1.568l.801-.877c-.048.373.665.608-.801.877m41.306 11.616c-.667-.139 1.486-.413 3.629-.824l-3.629.824m-7.563-24.018c-.032-.156.17-.311.668-.464.129.168-.155.317-.668.464"/><path d="M151.875 88.538a21.41 21.41 0 0 0 2.405-.796h0 0l.93-.187c-.188.31-1.756.685-3.335.983M99.23 56.704c.696-.268 1.114-.373 1.375-.386l-1.375.386m24.234 40.353c-.022 0 .059-.037.375-.145-.037.05-.34.145-.375.145m29.312-10.934a128.43 128.43 0 0 1 .891-.124l-.083.018-.809.105m-30.546 11.002l1.305-.212-1.305.212m-.236.377c-.066 0-.09-.025-.09-.062h0l.821-.186c-.405.183-.624.248-.731.248"/><path d="M123.84 96.912c.012-.013-.012-.019-.063-.019a2.33 2.33 0 0 0-.242.019l1.473-.376-1.167.376m-2.062-37.005c-.062-.014-.124-.013-.179-.021.289-.181.515-.304.558-.304.037 0-.063.094-.379.325m-8.109 27.584l.135-.075-.008.024-.128.051"/><path d="M111.263 88.345l6.911-3.463-4.369 2.534c.012-.054.004-.098-.088-.098-.055 0-.144.017-.279.058-.347.109-1.029.39-2.176.969"/><path d="M109.841 100.549c-.162 0-.401-.039-.83-.16 1.267-.216 2.344-.704 3.255-1.224l2.382-1.492-1.732.014a106.95 106.95 0 0 1-.55-.001c.107-.605 1.14-.762 2.285-.869 1.07-.097 2.244-.154 2.657-.387-.137.016-.306.025-.514.025a10.9 10.9 0 0 1-.641-.021l1.28-.296c-.009-.017-.015-.034-.028-.052.02.016.03.032.042.049l.355-.082c.07.178-.016.322-.491.378-.256.165-.775.302-1.281.38-.165.166.038.367.084.516 1.427-.228 2.505-.611 3.36-1.012.864-.407 1.506-.835 2.137-1.195l-.471.043c-.373 0-.091-.173.185-.363.354-.245.693-.513-.258-.539l-1.14.38c-.233-.009-.349-.046-.388-.1.02-.032-.107-.047-.173-.072-.072-.024-.129-.051-.176-.08-.186-.117-.22-.263-.389-.373l4.415-.752 4.026-.914 3.696-.82 1.859-.324.63-.092.527-.053c-1.188.146-2.35.565-2.677.836l2.484-.377c-.754.207-1.752.331-2.77.477s-2.056.314-2.973.657c.591.063.751.275 1.105.463.279.144.676.273 1.538.273l.856-.034c2.988-.492 3.438-.913 3.774-1.332.354-.43.602-.862 3.466-1.543.023-.021.05-.029.08-.029.058 0 .133.027.248.055a2.1 2.1 0 0 0 .498.055c.41 0 1.042-.093 2.043-.449 1.325-.544 2.002-1.002 1.993-1.302-.001-.075-.044-.141-.129-.198l-.034-.021-.02-.01-.008-.005-.005-.002-.038.001-.646.032-1.363.077-6.182.467c.711.032 1.662.11 1.558.268-.098.156-1.175.374-4.234.617-.557-.071-.724-.198-1.27-.262a7.11 7.11 0 0 0-.842-.041c-.579 0-1.406.039-2.634.138l3.686-.339.266-.008c.253 0 .235.034.197.068s-.101.074.117.074l.157-.004c.402-.02 1.265-.1 3.168-.323.31-.089.08-.116-.351-.116l-1.909.055 4.181-.401 3.86-.484 5.83-1.165 6.843-1.346 1.738-.237 1.128-.132c.267-.096.384-.183.359-.246-.005-.016-.019-.03-.043-.043l-.017-.01c-.03-.005-.054-.003-.107.002l-.609.052-2.728.256a399.8 399.8 0 0 0-11.925 1.373c.475-.145 1.886-.381 3.019-.584 1.124-.208 1.978-.376 1.152-.412l-4.468.754-.258.034c-.044 0 .144-.041.349-.091.306-.071.657-.175.299-.175-.353 0-1.4.101-3.867.433-.16-.121 1.139-.357 2.85-.609l5.217-.856-2.677.234s-2.708.307-4.107.518l6.804-1.113 7.328-.916 7.438-.901 3.753-.544.071-.012.024-.005.046-.01.097-.023.204-.054.457-.144c.872-.308 2.468-1.094 3.806-2.105l.496-.384.119-.094.06-.047c.015-.013.047-.035.04-.035l-.043-.034c-.05-.046-.086-.091-.11-.131-.052-.081-.062-.144-.064-.158l-2.469.371-1.644.298-7.087 1.343L129.44 87l-1.769.31c-.072 0 1.038-.226 2.425-.513l5.342-1.159 2.159-.573c-.027 0-.063.002-.109.006-.452.037-1.769.252-3.216.503l-4.071.718-1.161.175c-.075 0-.004-.032.255-.104l5.637-1.042c.515-.115.632-.165.472-.165-.168 0-.645.055-1.286.147l-4.714.84 9.366-2.001 9.504-2.088c-.05-.01-.121-.015-.213-.015-.633 0-2.264.224-4.359.586-3.075.528-7.122 1.362-10.975 2.217l-10.275 2.425 7.413-1.444 3.438-.614c-3.277.742-5.452 1.152-7.552 1.565l-3.848.795-5.173 1.201a6.65 6.65 0 0 0 .994-.505 45.38 45.38 0 0 0 1.856-.395 96.85 96.85 0 0 0 4.004-.994c-.15.016-.251.024-.31.024-.17 0 .025-.066.448-.189.563-.165 1.565-.435 2.578-.778l7.688-1.786 10.735-2.375 6.041-1.276.769-.16.504-.096.983-.185 1.938-.363 7.032-1.293c1.006-.127 1.765-.254 2.438-.368l-1.219.087-3.602.435 1.526-.519c-1.638.193-3.97.561-6.565 1.049l-4.068.793-2.106.435-1.105.236-1.577.364c-8.395 1.945-15.887 3.896-18.962 4.696.213-.163 3.227-1.063 6.522-2.003l8.309-2.26c-.735.01-2.326.339-4.227.786-1.907.451-4.139 1.035-6.265 1.605l-5.656 1.526c-1.345.353-2.268.577-2.579.577-.038 0-.067-.003-.087-.011-.422.201-.876.405-1.36.612-.416.104-.653.124-.84.124-.113 0-.205-.007-.308-.008l-.062-.001c-.26 0-.575.038-1.231.287l4.321-1.65c1.407-.526 2.808-1.031 3.836-1.347-3.246.956-6.211 1.9-8.896 2.8.61-.21 2.2-.817 3.805-1.434l4.101-1.562c-.439.021-2.58.734-4.536 1.473-1.827.685-3.562 1.392-4.018 1.618.648-.342.972-.546 1.186-.688.219-.148.311-.23.431-.32s.262-.19.543-.371l1.285-.836c-.467.118-1.651.679-2.784 1.24l-2.379 1.225c-1.066.351-1.508.466-1.718.479-.011.001-.024.001-.035.001-.165 0-.134-.087-.118-.162 1.514-.536 4.167-1.741 6.695-2.991l3.608-1.832 1.491-.753c-.032.013-.06.027-.094.04.121-.108.268-.218.405-.321-2.754 1.003-5.362 2.046-7.619 3.006-2.621 1.113-4.863 2.178-6.732 3.183l3.969-2.394c-.752.433-1.644.824-2.503 1.154-.864.328-1.699.608-2.475.835-.778.221-1.493.413-2.153.521-.306.05-.602.075-.881.075a3.69 3.69 0 0 1-.889-.1c.102.012.205.019.307.024.149-.121.129-.248-.03-.364a1.64 1.64 0 0 0-.327-.176c-.078-.033-.152-.063-.245-.095l-.436-.141-5.699-1.837 5.161-2.053c.362-.144.739-.327 1.076-.529l-.027-.2.244.063a3.28 3.28 0 0 0 .553-.448c-.062.246-.224.342-.477.46l.339.053c.746-.256 1.139-.889 1.541-1.514.49-.748.998-1.481 2.165-1.481a2.92 2.92 0 0 1 .188.006c-2.017.773-2.204 1.473-1.907 1.941.716-.6 2.053-1.201 3.046-1.789.999-.573 1.651-1.15.98-1.751.707-.078 1.308-.332 1.71-.332.258 0 .435.104.507.425l3.179-2.185c-.055.016-.114.033-.178.049l-1.882-.915c-1.41.655-2.7.869-3.957.949s-2.476.06-3.739.19c-.547.184-.802.346-.917.492h-.044c-2.735 0-5.294 2.104-7.34 2.141.417-.324-1.286-.486-1.585-.712l-3.361 1.434c1.444-.626 1.242-1.252 1.392-1.934-1.108.308-1.556.776-2.299 1.024.413-.328.832-.662.174-.825-1.179.617-2.342 1.285-3.509 1.925.072.017.164.025.263.025.237 0 .531-.041.79-.079-.593.142-1.585.547-2.606.768l-10.094 2.19 3.184-5.067-.111-.025.295-.267 2.62-4.169c.575-.914 1.285-1.603 1.942-1.951-.003.326-.368 1.021-.328 1.359-.522.247-.894.64-1.148 1.038l-1.424 2.219 1.924-1.742c.032-.029.054-.04.072-.04.05 0 .058.095.111.145.019.02.044.032.078.032.092 0 .254-.091.577-.362l.715-.949-.382-.684c.316-.075.653-.137 1.004-.191a3.38 3.38 0 0 0 .258-.475c.234-.525.156-.895-.241-.946 1.21-.703 1.967-.933 2.661-1.293.691-.347 1.293-.741 2.198-1.515l-.071 1.014 1.766-1.104-1.129 1.705c3.777-1.013.113-1.78 4.291-2.986l.272.74c.719-.463 1.102-1.068 1.497-1.502.299-.322.604-.549 1.061-.549.148 0 .311.023.496.076 1.361-1.042-2.945-.052.562-1.588.158.03.345.043.553.043a8.22 8.22 0 0 0 .964-.068c.59-.07 1.222-.169 1.76-.28.524-.384.221-.527-.295-.527-.404 0-.943.089-1.317.22 1.281-.538 2.17-.708 2.855-.708.633 0 1.094.146 1.532.282.392.127.766.245 1.233.245.655 0 1.491-.233 2.815-1.002h-.021c-.659 0-.697-.264-.683-.53s.079-.531-.374-.531c-.315 0-.883.129-1.895.477.873-.542 1.882-.582 2.882-.667 1.006-.068 2.004-.186 2.869-.912l-1.002 1.375c.712-.204 1.407-.809 1.756-1.047l.052.799c1.025-1.045 2.209-1.206 3.244-1.404.508-.097.983-.196 1.394-.396l-5.97.494c-1.994.189-3.894.445-6.487 1.093l.174-.208c-1.926.109-2.9.472-3.577 1.321-.467-.267.829-.754.035-.901-1.166 1.106-2.532 1.324-3.857 1.324-.282 0-.562-.009-.837-.023-.534-.021-1.052-.056-1.536-.056-.939 0-1.75.131-2.293.748-.114-1.596-4.749-1.938-3.273-3.589l-1.292.539c.182-1.133 4.201-1.136 4.717-2.377l1.294-.003 3.216.019c-.22-.341.318-1.049-.327-1.049-.015 0-.031.001-.046.001 1.047-.274 1.957-.545.448-.76l.563.004c5.2 0 10.201-1.027 15.192-2.091 5.168-1.102 10.33-2.214 15.559-2.226.675-.186.216-.492-.09-.695.398.142.705.2.951.2 1.021 0 .963-1.006 1.777-1.23l2.995 1.081c1.054-.558.11-.888.146-1.183 1.895-.334 3.828-.429 5.734-.429.701 0 1.4.013 2.091.032l4.63.115c.904 0 1.785-.028 2.638-.113 1.446.671-.321 1.102 1.552 1.501-.92-.646-.456-.844.447-.844.345 0 .751.03 1.17.072.759.066 1.55.216 2.053.231.07.005.134.009.193.009.302 0 .431-.078.263-.29a4.21 4.21 0 0 0 .81.64l.287 5.858c-.268-.04-.553-.056-.841-.056-.49 0-.997.044-1.483.09s-.951.09-1.356.09c-.884 0-1.475-.216-1.36-1.12-2.112.315-1.525 1.28-.881 1.345-2.436.428-4.386.837-6.207 1.938a1.03 1.03 0 0 0-.166-.011c-.908 0-3.46.677-6.121 1.281-2.043.455-4.144.878-5.638.878-.555 0-1.029-.059-1.38-.196 1.595.665-.07.547-1.335 1.344l1.479.609-3.163.684c-.4.16-.618.219-.73.219-.06 0-.089-.017-.095-.047a.53.53 0 0 1-.097.009c-.173 0-.19-.117-.279-.233s-.252-.233-.718-.233c-.094 0-.2.005-.319.015-2.145.507-2.124 1.027-3.167 1.827l.359.046-1.414.487c-.062.016-.103.023-.131.023-.196 0 .468-.389.962-.779s.819-.778-.058-.778c-.209 0-.486.021-.844.071.012.243-1.377 1.703-2.454 1.703-.119 0-.233-.017-.342-.056 1.772-.452 1.384-1.022.661-1.113-.833.201-1.656.437-2.485.653l1.129.919-2.67.73-2.697.727c-1.816.464-3.629.983-5.467 1.487l-2.992.9.402.571c1.659-.905 2.593-1.41 3.655-1.68s2.248-.368 4.421-.404c-.034.137-.487.432.216.512.925-.717 1.856-1.48 4.812-1.655l-.08.267 4.563-.64c.074.546.477.739 1.086.739.782 0 1.9-.321 3.079-.624 1.119-.284 2.293-.566 3.277-.566.856 0 1.567.215 1.968.825.405-.392 1.443-.701 2.562-.968s2.326-.46 3.057-.675c.023.105.129.212.392.314.506-.445 1.198-.598 1.97-.598.468 0 .967.056 1.471.138 1.183.188 2.393.479 3.334.479a4.05 4.05 0 0 0 .343-.015c1.254-.343.661-.758.058-1.172.479.185 1.01.258 1.565.258.98 0 2.036-.227 3.012-.468 1.246-.306 2.357-.663 2.986-.663.141 0 .259.017.347.059a3.94 3.94 0 0 1 .427.047c.048-.094.306-.176.947-.239.315.346.621.736 1.163.98.02-.389-.198-.786.436-.786.292 0 .766.084 1.525.292-.425.102-1.221.18-.901.33.24.038.515.149.813.306a2.83 2.83 0 0 0 .476-.445l.09.775.393.253.703 6.074-.389-.196.146 1.264c-.377.33-.637.649-1.769.844l.032-1.039-1.396.034c-.799 0-1.341-.098-1.387-.619-.672.246-1.237.333-1.718.333-.386 0-.719-.056-1.014-.13-2.253.556 1.864 2.107 2.424 2.514-2.314-.769-3.835-.332-5.227-1.554.656-.11 1.314-.207 1.974-.3-.86-.251-1.532-.34-2.075-.34-.841 0-1.371.214-1.797.372-.275.106-.507.19-.754.19-.176 0-.358-.043-.569-.152a23.46 23.46 0 0 1-1.595.063l.025-.139c-1.846.58-3.098-.16-3.719 1.31l.683.007c-2.293.684-2.532.608-4.897 1.194-.211.165-1.039.548-1.521.548-.079 0-.15-.011-.208-.035.079.516-1.242 1.035-2.717 1.446s-3.091.781-3.62.907c1.797-.727.805-.884.162-1.129-.767 1.044-1.419 1.425-2.763 1.425-.149 0-.306-.005-.473-.014.067.535.119 1.081-.024 1.617l3.682-.957c-3.873 1.188-3.864 1.58-3.864 2.178 2.104-.687 4.336-1.381 6.627-2.051l-2.387 1.239c1.486-.399 2.363-.505 2.991-.505.325 0 .581.028.822.06 2.087-.671 4.076-1.074 5.905-1.385l2.98-.476c.917-.151 1.766-.31 2.538-.518-1.049.47-1.074.601-.692.601.259 0 .701-.059 1.143-.115.452-.06.908-.12 1.156-.12.351 0 .279.122-.832.541a58.54 58.54 0 0 1 3.173-.604c.818-.328 1.77-.678 2.532-.911.515-.158.95-.262 1.171-.262.105 0 .162.023.161.074l.335-.029-2.472.877c1.756-.231 3.2-.352 3.983-.381-.07-.069.111-.22.385-.41.025.123-.103.273-.166.405l.177-.002c.076 0 .139.002.176.007-.157.026-.287.042-.38.045-.024.101.055.171.428.171.331 0 .892-.056 1.823-.194-.164.21.184.291.861.291.763 0 1.945-.102 3.287-.237l4.042-.396 1.914-.157c.59-.041 1.14-.069 1.619-.074.235.213-.215.586-1.499 1.116.342-.183.519-.367.122-.367-.141 0-.351.023-.65.076.27.143.237.357.177.556-.07.204-.196.414-.233.592-.087.358.247.576 1.288.602l1.587-.342c.634.148 1.085.294 1.385.462.075.042.142.084.201.128-.126.183-.306.407-.46.601-.15.182-.314.377-.469.55-.152.163-.319.347-.475.497l1.161-.129c-.534.475-.978.955-1.309 1.335-.337.385-.557.677-.779.905s-.46.402-.962.587c-1.186.313-2.505.61-3.92.85.376.028-.793.359-2.186.728-1.399.371-3.012.775-3.639 1.013l-1.742.213c-2.613.661-3.498 1.023-4.468 1.405h0 0c-3.497.679-5.562 1.252-7.366 1.859-1.789.599-3.31 1.229-5.338 1.794l-.318-.023-3.29 1.259c.048-.098.067-.138.05-.138-.06 0-.579.539-1.711.793-.86.471-3.192 1.06-5.184 1.34l-2.578.734c1.106-.481.86-.568.211-.568h-.103l-1.419.036c-.366 0-.697-.018-.911-.079l-.905.7h-.028c-.389 0-.394-.09-.354-.181s.126-.181-.076-.181c-.091 0-.24.018-.476.062-.61.47-3.694 1.309-3.977 2.018.142.026.325.038.538.038.275 0 .6-.02.947-.054.044-.032.068-.046.075-.046s-.001.015-.021.041l.148-.011-.16.026c-.068.079-.166.209-.168.29h0 0c-2.173.505-1.16.46-.79.627-.573.006-1.057.035-1.489.074.03.204.119.4-.201.616-.563-.182-.811-.341-.854-.484-.361.057-.688.119-1.01.178-.581.105-1.149.195-1.829.195a7.52 7.52 0 0 1-.239-.004c.392.173.852.35 1.309.487.021-.007.042-.012.063-.02l-.054.022a7.11 7.11 0 0 0 .652.166l.236-.089c1.548.381.349.666-.126.839h0 0c-.051-.231.645-.338-.068-.567-.115-.013-.217-.019-.31-.019-.558 0-.728.214-.935.292a8.73 8.73 0 0 1-.361-.254l-.587.236c.24-.133-.188-.198-.335-.295.255-.023.492-.033.762-.066-.217-.169-.401-.331-.558-.491-.225.174-.956.386-1.732.61-1.411.404-2.948.839-1.76 1.155-.575-.082-.943-.11-1.194-.11-.282 0-.414.036-.527.073-.098.032-.178.063-.322.063m5.13-2.086c.058.009.115.018.161.028l-.008-.01c-.05-.005-.102-.012-.153-.018m-.089-1.611l.248.099.335-.079c-.091.006-.18.009-.258.009-.138 0-.249-.009-.326-.03m18.971-3.318c-.011 0-.325.054-1.106.185-.001.012-.007.02-.017.032l1.124-.218m-27.236-10.969l-.078.038c.03 0 .054-.007.082-.008l-.004-.03m-23.065-4.975l-2.618 4.08 8.761-2.015c.577-.133.905-.609 1.222-1.025-.807.224-1.174.305-1.335.305a.27.27 0 0 1-.059-.005l-5.971-1.341m43.819 3.394l-.404.145c-.075.048-.158.096-.241.144l.645-.289m-12.864-2.554c.284.979 1.298 1.131.523 2.395 2.626-1.445 4.328-3.004 5.846-4.497-.019.002-.036.005-.055.006-.141-.425-.08-.547.126-.547a2.15 2.15 0 0 1 .408.067c.582-.579 1.151-1.144 1.745-1.685-.433.231-.815.462-1.137.645-.828-.16.023-1.227-1.092-1.227-.255 0-.61.055-1.109.189-2.999.739-.668 1.248-.642 1.705.025-.016.048-.032.071-.048-.193.214-.3.598.231.598a2.35 2.35 0 0 0 .595-.099c-1.157.329-2.147 1.089-3.041 1.687-.731.488-1.395.879-2.029.879a1.43 1.43 0 0 1-.44-.068m21.606 1.064c-.575.063-.549.146-1.076.366a31.98 31.98 0 0 1 1.076-.366m-7.232-3.465c-.358.583-.551 1.028-.146 1.073l2.799-1.508c-.382-.045-.979-.209-1.678-.384.456-.367.931-.753 1.339-1.124-.389.066-.806.121-1.23.174a11.25 11.25 0 0 1-.503.855h0 0c-.412-.093-.833-.184-1.254-.26-.593.819-.963 1.582.205 1.597.125-.126.291-.273.468-.424m-2.188-1.325c-.61.002-1.108.121-1.372.45.102-.006.197-.02.294-.031.279-.107.65-.238 1.078-.419m.013-1.568c-1.061 0-2.021.294-2.847.662l1.628-.279 2.064-.313v-.006a5.68 5.68 0 0 0-.845-.063m15.982-1.125l-.329.031c.138 0 .243-.012.329-.031m10.177-.302c-.02.029-.04.055-.06.088.134.135.323.186.539.186.511 0 1.166-.286 1.554-.404-.535-.139-.94-.329-1.289-.329-.082 0-.164.011-.241.036l.243.455-.746-.032m4.677-7.577c.009.188-.035.394.004.589.393-.209.256-.408-.004-.589m-26.247-1.764c-.086 0-.298.076-.719.279l.542.075c.153-.18.308-.354.177-.354m-9.689-2.662c.062 0 .125.004.189.012-.582.355-1.402.97-1.572 1.29a7.62 7.62 0 0 0 3.755-1.234c.972-.616 1.764-1.317 2.662-1.723-1.082.381-2.157.789-3.231 1.192-.062-1.329 1.428-.634 2.104-1.868.153.02.3.03.444.03.632 0 1.171-.181 1.677-.393a45.91 45.91 0 0 0-1.115.152l-1.772.247c.012.001.027.003.04.005-.315.272-.704.496-1.127.689-.019.027-.039.052-.064.08-.028-.004-.056-.009-.084-.013-.723.314-1.532.547-2.263.771-1.211.385-2.193.755-2.154 1.42.06.005.121.009.177.009.436 0 .809-.168 1.178-.334s.734-.333 1.155-.333m.481-1.726c-.091 0-.189.001-.294.007-.067.266-.001.365.154.365.184 0 .495-.142.854-.317a4.28 4.28 0 0 0-.715-.055m-.353.011a7.01 7.01 0 0 0-.374.027l.193.225a2.48 2.48 0 0 0 .181-.252m-.64-.763c-.341.473-.094.604.365.604.114 0 .241-.008.377-.021.012-.023.027-.042.039-.066-.011.023-.017.043-.025.064.519-.05 1.139-.166 1.538-.166a1.13 1.13 0 0 1 .215.016 4.52 4.52 0 0 1 .449-.168 13.14 13.14 0 0 1-1.286.075c-.696 0-1.28-.09-1.671-.338m11.701-.896c-.288.039-.473.084-.591.133 1.104.172 1.915.567 2.626.723.327-.087.818-.29 1.121-.29-.091-.373-.756-.853-1.917-.853-.078 0-.16.003-.244.007l-.39.688-.605-.408m7.162.194c-.021 0-.044.001-.067.003l.168.005c-.028-.005-.062-.008-.101-.008m-21.862 30.157l.126-.042-.126.042m-22.511-7.228l.064-.028-.064.028m24.431-3.523c.012-.004.027-.008.04-.012l-.04.012"/><path d="M158.848 49.711l-.126-.134a1.26 1.26 0 0 1 .126.134M103.76 63.098a1.54 1.54 0 0 1 .242-.102l-.242.102m13.54 23.82c.019-.012.049-.027.084-.045l-.084.045m-9.559-10.05a.31.31 0 0 1 .061-.154c.027 0 .053-.006.08-.006l-.141.16m26.916 10.292c.821-.281 2.454-.607 4.252-.879l-4.252.879m-19.526 12.647l.186-.075a.97.97 0 0 1-.186.075m-16.928 3.971l-.538-3.423-.267.113-.053-.335-.032.002-.009-.052.031-.016-.05-.326.281-.022-.526-3.354h0l.527 3.354.227-.008.07.271c.325.027.186.192-.197.372l.537 3.424m11.468-4.54c-.254 0-.435-.109-.5-.386-.077.014-.143.037-.215.058.814-.301 1.514-.612 2.062-.612.223 0 .42.052.591.176-.716.375-1.457.764-1.937.764m-1.969.208c-.068 0-.113-.036-.13-.126.384-.074.758-.192 1.114-.317-.445.183-.801.443-.984.443m18.441-3.036c-.085 0-.146-.031-.168-.104l.049.001c.478 0-.512-.335-.07-.462-.531-.328-.524-.537.735-.67-.297.106.08.188.498.298a.66.66 0 0 1 .068-.004c.089 0 .134.023.146.063.199.058.383.125.478.206l-.762.178c-.289.241-.731.495-.975.495m-15.985 1.232l-.947-.488 1.157-.149-.21.636m4.936-1.299c.224-.169.778-.325 1.39-.469-.393.182-1.072.38-1.39.469m23.806-6.196c-.476 0 .015-.184.157-.313.442-.157 1.057-.265 1.428-.265a.9.9 0 0 1 .235.024l-1.647.548-.173.006m-14.153 1.615l-1.168-.116 4.923-.173-3.754.289m1.172-.852a6.62 6.62 0 0 1-.196-.003l-1.043-.043-.451.011c.629-.187 1.238-.234 1.842-.234l.11.001 1.559.047.37-.007c-1.163.186-1.756.229-2.19.229m36.903-9.344c.081-.112.157-.23.225-.358l3.97-.624.123-.02h.017l.034-.001.067-.002.134-.004.266-.008 1.057-.039-1.24.236-.65.123-4.004.696m-46.686 6.852c-.04 0 .013-.031.19-.101l7.663-2.137c-1.101.291-1.376.419-1.723.561-.34.141-.757.299-2.02.633.285-.109.375-.155.326-.155-.126 0-1.172.3-2.218.599l-2.218.6"/><path d="M123.991 86.179l1.834-.448-1.834.448M92.934 57.591l-1.122-.285 1.611-.062-.489.347m-3.42 1.876l.671-1.18.624.934a.57.57 0 0 0-.251-.05c-.337 0-.785.188-1.043.297m69.649 14.406l-1.263-.608c.735.053 1.103.077 1.363.356l-.101.252"/></g><g fill="#fefefe"><path d="M138.038 57.731l-.053-.455-.457.028-.012-.181.629-.039.071.625-.179.021m-2.663-.291l-.01-.182 1.077-.066.012.181zm-2.154.133l-.012-.181 1.077-.067.012.181zm-2.155.134l-.01-.182 1.077-.067.012.182zm-2.154.133l-.012-.181 1.077-.067.012.181zm-2.155.133l-.012-.181 1.078-.067.012.181zm-2.154.133l-.012-.181 1.077-.067.012.182zm-2.155.134l-.012-.182 1.078-.066.01.181zm-2.154.133l-.012-.181 1.077-.067.012.182-1.077.066m-1.684.556l-.036-.632.633-.039.01.181-.453.028.027.451-.182.01m.125 2.117l-.062-1.06.182-.01.062 1.059zm.121 2.118l-.061-1.059.182-.01.061 1.059zm.121 2.118l-.061-1.059.182-.01.061 1.059zm.12 2.119l-.061-1.059.182-.01.059 1.059zm.117 2.116l-.058-1.059.181-.009.059 1.059zm.116 2.119l-.058-1.059.182-.01.058 1.059zm.115 2.117l-.057-1.059.181-.01.058 1.06zm.112 2.119l-.056-1.059.182-.01.056 1.059zm.11 2.118l-.054-1.059.182-.009.054 1.059zm.106 2.119l-.052-1.059.181-.009.053 1.06zm.102 2.118l-.05-1.059.182-.009.049 1.06-.181.008m.073 1.666l-.027-.633.181-.008.021.457.457-.007.002.181-.633.01m17.699-.696l-.007-.181 1.137-.047.008.181-1.137.047zm-2.274.101l-.009-.181 1.137-.052.008.181zm-2.275.108l-.009-.181 1.137-.054.007.181zm-2.275.109l-.009-.181 1.137-.054.009.181zm-2.275.105l-.008-.181 1.136-.051.009.181zm-2.276.096l-.006-.181 1.137-.047.007.181-1.139.047zm-2.276.082l-.005-.181 1.137-.039.006.181-1.139.039zm-2.277.063l-.004-.181 1.139-.029.005.181-1.14.029m18.202-.754l-.006-.181.451-.016-.025-.451.182-.01.034.636-.636.023"/><path d="M138.281 59.879l-.121-1.073.181-.021.121 1.073zm.24 2.146l-.119-1.073.179-.021.12 1.073zm.236 2.146l-.117-1.073.181-.019.117 1.073zm.23 2.147l-.113-1.073.181-.019.113 1.074zm.222 2.149l-.11-1.074.181-.018.11 1.074zm.211 2.149l-.104-1.074.181-.018.104 1.076zm.2 2.151l-.098-1.076.181-.017.098 1.076zm.188 2.151l-.092-1.076.181-.015.092 1.076zm.174 2.153l-.085-1.076.181-.014.085 1.077zm.157 2.154l-.077-1.077.181-.013.077 1.078zm.139 2.155l-.068-1.078.181-.012.068 1.079-.181.011M118.59 58.443l-.079-.162.49-.236.079.162-.49.236m26.038-6.396l-.009-.181 1.07-.055.01.181-1.072.055zm-2.142.103l-.007-.182 1.07-.05.009.181zm-2.142.098l-.009-.181 1.072-.05.009.182zm-2.142.106l-.009-.182 1.07-.053.009.181-1.07.054zm-2.142.119l-.01-.181 1.07-.062.01.181-1.07.062zm-2.139.142l-.013-.182 1.07-.074.012.181-1.069.075zm-2.137.169l-.015-.181 1.069-.088.014.181-1.068.088zm-2.071.31l-.079-.162.343-.16.722-.07.017.181-.705.068zm-1.933.93l-.079-.162.967-.466.079.164zm-1.933.93l-.079-.162.966-.466.079.164zm-1.933.931l-.079-.164.966-.464.079.162zm-1.933.93l-.079-.164.966-.464.079.162zm-1.934.93l-.079-.164.967-.464.079.162-.967.466m27.175-5.39v-.449l-.449.027-.01-.182.64-.037.001.64-.182.001m.014 2.237l-.007-1.119h.181l.009 1.118zm.025 2.239l-.013-1.119.182-.003.013 1.119zm.03 2.236l-.015-1.11.182-.01v.008l.015 1.11zm.031 2.238l-.015-1.118.181-.003.015 1.118zm.028 2.238l-.014-1.118.182-.003.013 1.119zm.021 2.238l-.01-1.119.182-.001.009 1.119zm.01 2.238l-.004-1.119h.182l.002 1.119zm.175 2.238l-.181-.001.004-1.118h.182l-.005 1.119zm-.023 2.239l-.182-.003.015-1.119.181.003-.014 1.119zm-.535 2.138l-.151-.101.478-.725.005-.198.181.004-.005.249-.014.022-.494.748zm-1.278 1.842l-.147-.105.644-.914.15.103-.646.916zm-1.324 1.805l-.146-.109.668-.897.146.107-.668.898zm-1.371 1.773l-.142-.113.689-.881.143.111-.69.883zm-1.413 1.738l-.138-.116.711-.863.141.114-.713.865m-1.084 1.263l-.135-.12.356-.409.138.118-.359.411"/><path d="M147.03 52.174l-.092-.156.471-.273.09.156-.469.273m-1.874 1.077l-.09-.157.938-.535.09.157-.938.535zm-1.88 1.064l-.089-.157.94-.531.089.159zm-1.882 1.061l-.089-.159.94-.53.089.157zm-1.876 1.068l-.09-.157.938-.535.09.157-.938.535m-1.406.815l-.092-.157.471-.273.092.156-.471.275m-8.241-3.908l-.037-.542.181-.013.037.543-.181.012m.142 2.155l-.068-1.077.181-.013.068 1.078zm.13 2.154l-.064-1.077.182-.012.063 1.078zm.116 2.156l-.057-1.078.182-.01.057 1.078zm.106 2.155l-.052-1.078.182-.009.05 1.078zm.093 2.156l-.045-1.078.181-.008.045 1.078zm.081 2.158l-.04-1.079.182-.006.039 1.079zm.068 2.156l-.032-1.078.181-.006.034 1.079zm.057 2.158l-.027-1.078.181-.005.027 1.079zm.045 2.159l-.022-1.079.182-.004.021 1.079-.181.004m-.274 2.011l-.106-.147.405-.289-.008-.496.182-.003.008.592-.481.343m-1.643 1.222l-.111-.144.82-.619.108.145-.818.617zm-1.607 1.27l-.115-.141.801-.642.112.142-.798.641zm-1.571 1.316l-.119-.137.783-.665.116.139-.78.664zm-1.532 1.359l-.123-.134.763-.687.12.136-.761.685zm-1.493 1.403l-.126-.13.744-.708.124.132-.742.707zm-1.453 1.444l-.129-.127.723-.729.128.128-.722.727m-1.085 1.134l-.133-.124.375-.396.13.125-.373.395"/><path d="M130.737 74.565l-.017-.181.542-.049.017.181-.542.049m13.966-.763l-.003-.181 1.036-.015.001.181-1.034.015zm-2.067.047l-.005-.181 1.034-.026.004.181-1.033.026zm-2.069.07l-.006-.181 1.034-.038.006.181-1.034.038zm-2.066.092l-.009-.181 1.034-.049.007.181-1.033.049zm-2.066.116l-.012-.181 1.034-.061.01.181-1.033.061zm-2.063.138l-.014-.181 1.033-.072.013.181-1.032.072zm-2.063.161l-.015-.181 1.032-.084.015.181-1.032.084m14.464-.648v-.181l.544-.002v.181l-.544.002m-8.225-23.735a16 16 0 0 0-2.412-2.642l.12-.137a16.25 16.25 0 0 1 2.439 2.672l-.147.107"/><path d="M136.361 50.001l-.156-.094a30.45 30.45 0 0 1 2.016-2.929l.143.111a30.09 30.09 0 0 0-2.003 2.912m15.667 10.905a12.46 12.46 0 0 1-1.769-1.621l.134-.121a12.39 12.39 0 0 0 1.745 1.597l-.11.146"/><path d="M150.705 64.062l-.162-.08 2.35-4.764.162.08-2.35 4.764m-61.699-3.37c-.231-.04-.312-.293-.352-.478a22.85 22.85 0 0 0-1.692-4.929l.164-.079a23.02 23.02 0 0 1 1.705 4.969c.046.211.115.322.208.339l-.032.178"/><path d="M91.875 60.158a.41.41 0 0 1-.204-.05c-.125-.071-.19-.204-.235-.3-.497-1.042-1.008-2.119-1.331-3.25l-.025-.088c-.125-.442-.254-.901-.602-1.158-.279-.205-.691-.255-1.106-.138-.388.111-.734.338-1.069.558l-.099-.151c.346-.228.704-.464 1.118-.582.469-.134.941-.071 1.264.166.398.294.543.805.669 1.255l.025.088c.319 1.117.828 2.186 1.319 3.22.046.098.092.182.16.221.093.052.223.019.339-.018.306-.101.604-.232.883-.389l.089.157a5.13 5.13 0 0 1-.916.404.9.9 0 0 1-.28.055m1.653-4.912l-.101-.15a8.74 8.74 0 0 1 1.818-.944l.063.17c-.627.236-1.225.548-1.781.923m.723 1.105l-.086-.16 1.715-.921.085.159-1.714.922m8.389.929L99.993 50.3l.172-.059 2.641 6.97-.168.068m2.714-3.567l-2.176-2.19.133-.123 2.167 2.179-.124.133"/><path d="M103.67 55.262l-.177-.035 1.154-4.707.174.052-1.152 4.69m-2.694-9.482l-3.51.168c-3.701.304-7.138 1.501-9.939 3.464-1.78 1.247-3.078 2.663-3.858 4.209-.928 1.84-1.093 3.865-.452 5.556.813 2.143 2.995 3.816 5.696 4.367 2.525.516 5.196.076 7.477-.423 2.088-.457 4.791-1.153 7.172-2.498 2.404-1.358 4.23-3.277 5.14-5.404.952-2.222 1.161-6.282-.95-7.809-1.749-1.264-4.171-1.63-6.776-1.63zm-9.636 18.176c-.824 0-1.651-.068-2.463-.235-2.761-.564-4.995-2.28-5.829-4.48-.659-1.738-.492-3.816.459-5.701.793-1.573 2.111-3.013 3.915-4.276 2.827-1.981 6.295-3.191 10.029-3.496l.008.09-.008-.09c3.887-.32 7.84-.359 10.406 1.496 2.217 1.603 2.012 5.692 1.011 8.028-.926 2.161-2.779 4.111-5.218 5.489-2.401 1.358-5.121 2.058-7.223 2.519-1.568.343-3.319.658-5.088.658m22.918 40.115c-2.97 0-5.798-.138-8.573-.412l-.076-.007-1.438-17.565.182-.015 1.425 17.414c7.809.763 16.04.453 26.675-.999l.025.18c-6.903.943-12.797 1.404-18.219 1.404"/><path d="M105.874 103.768l-.104-.149a173.18 173.18 0 0 1 10.952-7.017l.093.156a172.42 172.42 0 0 0-10.94 7.01"/><path d="M116.444 96.14l.784 1.031.062-.171c.174-.489.342-.955.653-1.357l-.662.223-.837.274zm.84 1.403l-1.15-1.511.134-.033c.312-.078.638-.193.953-.304l.969-.309.317-.079-.231.231c-.42.422-.613.957-.815 1.524l-.12.327-.057.153m-7.807 5.687c-.551-3.203-.94-6.471-1.158-9.715l.181-.012a95.24 95.24 0 0 0 1.156 9.696l-.178.031m3.535.802l-.235-3.538.181-.012.235 3.538-.181.012m3.87-.189l-.181-.001c.005-1.237-.099-2.481-.31-3.698l.179-.031a21.51 21.51 0 0 1 .311 3.73m5.742-.18l-.182-.004-.079-8.423.182-.008.079 8.435m2.687-.09a23.85 23.85 0 0 0-.369-3.524l.178-.032a23.64 23.64 0 0 1 .371 3.551l-.181.005m9.798-5.024l-1.722-1.903.134-.121 1.723 1.903-.135.121m-1.082 3.674l-.173-.058 2.386-6.345.168.07-2.381 6.333M106.677 86.08l-1.986-2.438.141-.114 1.986 2.438-.141.114"/><path d="M105.046 86.11l-.157-.09c.524-.909.949-1.878 1.265-2.878l.173.055c-.32 1.013-.751 1.993-1.281 2.914m48.601 3.061l-2.133-2.127.128-.129 2.134 2.127-.129.129"/><path d="M152.098 89.363l-.169-.064 1.197-3.166.169.064-1.197 3.166m3.948-1.781l-.075-.165a2.73 2.73 0 0 1 1.045-.241l.004.181a2.55 2.55 0 0 0-.974.225m.166 1.097l-.03-.179 1.087-.185.03.179-1.087.185m4.524-1.607c-.691-.668-1.352-1.385-1.96-2.132l.141-.114c.605.741 1.259 1.453 1.946 2.116l-.126.13"/><path d="M159.103 90.245l-.159-.088 3.031-5.684.162.083-3.034 5.689m6.57-5.289c-.183 0-.367-.013-.549-.041l-.118-.018.664-1.493c.053-.12.096-.227.077-.325-.03-.153-.214-.25-.369-.24-.183.004-.365.101-.525.186l-.086-.16c.178-.095.38-.203.607-.208h.013c.227 0 .49.134.539.388.03.162-.039.319-.09.433l-.567 1.273a3.53 3.53 0 0 0 1.7-.223l.066.169c-.434.171-.898.258-1.364.258"/><path d="M163.24 86.918l-.052-.173a17.03 17.03 0 0 1 3.837-.688l.012.181a16.87 16.87 0 0 0-3.797.681m1.937 2.525l-.346-1.815.177-.034.347 1.815-.178.034m-14.098 3.149l-.02-.181 19.325-1.886.016.181-19.321 1.886m4.117 7.078l-.113-.258a24.86 24.86 0 0 1-1.64-5.367l.18-.033c.321 1.735.831 3.438 1.516 5.064a19.46 19.46 0 0 0 .345-5.154l-.007-.08.079-.015a107.19 107.19 0 0 1 13.15-1.758l.013.181a106.97 106.97 0 0 0-13.049 1.739 19.52 19.52 0 0 1-.413 5.406l-.06.274m2.776-2.301a4.34 4.34 0 0 1-1.482-2.023l.172-.06c.267.765.771 1.453 1.419 1.938l-.108.145"/><path d="M157.131 100.044l-.169-.065 1.647-4.788.174.053-1.652 4.8m4.33-2.67l-1.201-1.675.143-.111 1.208 1.685-.151.101"/><path d="M159.837 97.726c-.073 0-.152-.041-.177-.121-.039-.126.05-.236.093-.289l1.765-2.112.137.119-1.762 2.107c-.018.024-.071.088-.061.123-.002-.007-.022.012-.021.034l.182-.011c.004.074-.046.134-.123.148l-.035.003m3.897-.476l.243-.17c.364-.256.776-.545 1.03-.94.224-.35.33-.874.068-1.255a.73.73 0 0 0-.614-.296c-.198.003-.363.085-.455.225l-.152-.099c.125-.192.346-.304.604-.308h.013c.299 0 .594.146.751.374.311.45.194 1.055-.064 1.456-.216.338-.529.596-.837.821l2.167-.039c.159-.003.329-.021.394-.129l.156.093c-.109.185-.337.214-.546.218l-2.758.05m-15.685 8.073l-.054-.173a206.95 206.95 0 0 1 25.738-6.28l.032.179a206.77 206.77 0 0 0-25.716 6.274m-1.306 1.986l-.054-.173a480.72 480.72 0 0 1 23.67-6.655l.044.175a480.3 480.3 0 0 0-23.659 6.653"/></g><path d="M98.734 74.691c.353-2.129.585-4.277.694-6.431.391.058.894.095 1.256.257l-.73 6.272-1.22-.097" fill="#fff"/><path d="M101.717 78.612c.197.775-.119 1.608-.631 2.222s-1.202 1.049-1.879 1.474l-2.418 1.517a37.59 37.59 0 0 1-.116-5.113c.025-.52.067-1.064.349-1.501.409-.632 1.248-.882 1.991-.768s1.407.53 1.999.994l.704 1.174" fill="#ffbc97"/><path d="M99.169 72.788c.42-.329.913-.596 1.447-.632s1.105.199 1.361.668c.221.405.16.943-.143 1.289-.092.105-.21.205-.228.343-.015.11.037.216.085.316a6.11 6.11 0 0 1 .516 3.629c-.101.603-.313 1.221-.776 1.621s-1.228.494-1.671.073c-.312-.298-.397-.759-.622-1.128-.34-.561-.981-.871-1.39-1.386-1.189-1.501.166-3.807 1.422-4.793" fill="#db8b63"/><path d="M94.379 82.434c.573-.765 1.166-1.578 1.275-2.528.113-.987-.319-1.968-.262-2.96a3.08 3.08 0 0 1 1.439-2.403c.351-.215.742-.356 1.128-.495l1.508-.543c.103-.037.223-.075.32-.021.077.043.116.133.141.218.141.487-.01 1.022-.295 1.44s-.696.735-1.116 1.019c-.159.108-.338.241-.344.433-.005.136.08.255.156.368a3.71 3.71 0 0 1 .602 2.43c-.043.409-.155.812-.156 1.224-.001.303.057.603.072.906.072 1.398-.758 2.672-1.626 3.77l-2.842-2.86" fill="#ffbc97"/><path d="M48.264 89.17c-3.179 7.402-4.216 15.851-9.04 22.303-.556.744-1.174 1.467-1.967 1.95s-1.795.7-2.667.38c-.687-.251-1.224-.802-1.642-1.401-.816-1.168-1.263-2.557-1.543-3.954-.588-2.929-.491-5.954-.194-8.927.858-8.602 3.604-17.253 9.301-23.756l1.912.221 10.418-4.548c.84-.368 1.738-.104 2.64.057a255.69 255.69 0 0 1 10.339 2.07c3.933.872 7.235 3.655 10.097 6.49 3.345 3.313 6.811 6.505 10.388 9.567 2.74-2.607 5.313-5.32 7.746-8.219 1.647 1.198 3.234 2.328 4.671 3.772-1.925 4.683-4.463 9.239-7.286 13.442-1.033 1.539-2.285 3.151-4.095 3.554-.815.181-1.667.092-2.486-.071-2.255-.451-4.36-1.454-6.388-2.539a76.71 76.71 0 0 1-9.877-6.298L48.264 89.17" fill="#fff"/><path d="M91.066 95.018c-1.62 2.274-3.798 4.673-6.587 4.581-1.237-.041-2.396-.585-3.502-1.142-5.621-2.832-11.036-6.368-14.919-11.322l-2.126 5.19 4.656.938a76.72 76.72 0 0 0 9.877 6.298c2.028 1.085 4.133 2.088 6.388 2.539.819.164 1.671.253 2.486.071 1.809-.403 3.062-2.015 4.095-3.554 2.823-4.203 5.361-8.76 7.286-13.442-.382-.384-.775-.744-1.176-1.091a76.34 76.34 0 0 1-6.478 10.934" fill="#b6e8dd"/><path d="M43.55 98.762c.526-7.705-.671-15.647-3.039-22.997l8.699-3.514 1.374-.558a12.87 12.87 0 0 0 .131.674c.254 1.139.703 2.353 1.545 3.068.457.388.975.689 1.534.914.576.239 1.189.395 1.806.486.801.116 1.635.127 2.415-.091.569-.16 1.113-.453 1.534-.87a2.64 2.64 0 0 0 .413-.504c-.014-.272-.109-.533-.167-.798s-.134-.526-.214-.783l-.49-1.617-.152-.511.508.072a58.02 58.02 0 0 1 7.771 1.625l.181.667a117.86 117.86 0 0 1 2.357 10.748l.091.511.25 1.588a119.09 119.09 0 0 1 .664 5.073l.257 2.654.236.577c1.255 3.111 2.197 6.298 2.883 9.533.954 4.522 1.396 9.145 1.476 13.819H43.154l.014-2.165.138-12.503c0-.065 0-.127.004-.189a131.19 131.19 0 0 1 .239-4.91" fill="#f76f35"/><g fill="#eae4e4"><path d="M67.018 87.944c.336-.918 1.031-1.655 1.75-2.317 2.91-2.676 6.532-4.572 10.389-5.437-.039.959-.251 1.995-.483 2.927-.065.259-.137.531-.07.789l-11.587 4.038"/><path d="M67.831 87.671c-.764-1.346-2.189-2.167-3.592-2.82-3.859-1.797-8.142-2.818-12.385-2.471.051 1.108.048 2.103.099 3.211l15.878 2.08"/></g><path d="M51.636 87.286l-.261-4.36a30.8 30.8 0 0 1 14.226 2.91c.763.36 1.533.769 2.071 1.419l-1.167 1.795-14.869-1.764" fill="#d3c9c9"/><path d="M51.136 83.861c5.566-.19 11.174.953 16.221 3.308 3.002-2.525 6.193-4.32 9.965-5.397.762-.218 1.556-.404 2.342-.304-.077 7.116-.401 14.123-.906 21.222-3.679 1.521-7.435 3.119-10.544 5.604-5.222-1.67-10.665-2.799-16.103-3.489l-.974-20.944" fill="#1a73ad"/><path d="M67.357 87.169l-.621-.278.389 21.071 1.089.332a22.79 22.79 0 0 1 1.066-.799l-.408-21.515a31.52 31.52 0 0 0-1.514 1.189" fill="#0a5b89"/><path d="M52.118 69.101c-.936.753-1.781 1.62-2.511 2.574-.279.365-.546.753-.664 1.198-.184.692.015 1.425.25 2.102.657 1.893 1.811 3.861 3.742 4.394a8.6 8.6 0 0 1 1.067-3.41c.11-.195.235-.393.43-.504.228-.13.51-.115.77-.078.795.112 1.567.391 2.25.813.293-.487.677-.919 1.127-1.267.103-.08.217-.158.347-.163.314-.011.467.372.531.68l.431 2.088a5.26 5.26 0 0 0-2.621-7.412l-5.148-1.015" fill="#fff"/><path d="M50.979 60.507a75.81 75.81 0 0 1 .485 10.881c1.084 1.95 3.023 3.246 5.138 3.952.108.036.223.07.333.043.12-.029.211-.125.292-.219.718-.833 1.214-1.857 1.422-2.938-.718-2.771-1.168-4.703-1.143-7.062l-6.528-4.657" fill="#ffbc97"/><path d="M50.979 60.507l.313 3.338c1.41 2.631 3.757 4.692 6.64 5.373-.281-1.379-.44-2.641-.424-4.053l-6.528-4.657" fill="#db8b63"/><path d="M48.807 52.226c-.237-1.259 1.142-3.216 1.901-4.092.987-1.136 2.316-2.062 3.77-2.485 2.67-.776 5.66-.172 7.988 1.288 2.498 1.567 3.848 4.218 4.223 7.096.246 1.888.141 3.811-.155 5.686-.56 3.546-1.801 7.579-6.11 7.833-1.607.094-3.183-.471-4.617-1.202-.709-.361-1.397-.765-2.031-1.246-2.741-2.081-4.266-5.569-4.242-9.009l-.729-3.869" fill="#ffbc97"/><path d="M60.359 58.316c.096.174.281.124.378-.032.166-.264.547-1.723-.106-1.731-.729-.01-.436 1.468-.272 1.763m4.438-.116c.096.173.281.123.378-.032.166-.266.547-1.723-.106-1.732-.729-.009-.436 1.468-.272 1.764" fill="#593e31"/><path d="M63.175 61.327c.143-1.527.109-3.071-.102-4.59.231.374.522.743.672 1.156.201.555.327 1.145.279 1.733s-.415 1.301-.849 1.701" fill="#f78377"/><path d="M61.238 63.328c-.449-.153-.941-.166-1.401-.052.561.682 1.462 1.103 2.352 1.038.097-.006.192-.021.287-.039a2.5 2.5 0 0 0-1.238-.948" fill="#e22390"/><path d="M64.917 61.92l-5.599.293c.082.395.265.756.518 1.064.46-.115.953-.102 1.401.052a2.5 2.5 0 0 1 1.238.948c1.17-.214 2.166-1.19 2.442-2.356" fill="#a80c5e"/><g fill="#fff"><path d="M59.838 60.006a2.76 2.76 0 0 1-2.756-2.756c0-1.519 1.236-2.752 2.756-2.752s2.752 1.233 2.752 2.752a2.76 2.76 0 0 1-2.752 2.756zm2.93-2.846c-.047-1.575-1.342-2.844-2.93-2.844a2.94 2.94 0 0 0-2.875 2.328l-.032.182a3.23 3.23 0 0 0-.029.424 2.94 2.94 0 0 0 2.937 2.936c1.588 0 2.883-1.269 2.93-2.846.004-.028.004-.062.004-.09l-.004-.09m2.809 2.846c-.943 0-1.711-1.237-1.711-2.756s.769-2.752 1.711-2.752c.482 0 .917.322 1.226.837.297.498.482 1.171.482 1.915 0 .921-.279 1.737-.714 2.238-.276.326-.62.518-.994.518zm1.207-5.011c-.33-.424-.751-.678-1.207-.678-1.026 0-1.86 1.265-1.889 2.844-.004.028-.004.061-.004.09l.004.09c0 .17.014.338.036.5v.012a4.03 4.03 0 0 0 .268 1.003c.337.802.921 1.331 1.585 1.331.344 0 .667-.144.946-.395.562-.508.943-1.457.943-2.542 0-.907-.265-1.715-.682-2.256"/><path d="M63.777 57.342h-1.096v-.182h1.096v.182m-4.565-3.789c.112-.028.245-.07.273-.182.036-.139-.125-.248-.265-.282-.348-.086-1.262.05-1.288.549-.028.543 1.036-.025 1.279-.085m6.146.036c-.085-.021-.176-.045-.227-.116-.073-.101-.023-.251.077-.326s.231-.086.355-.084c.217.004.86.142.755.489-.101.334-.761.084-.959.037m-16.851 5.095c-.63-1.452-.741-3.076-.686-4.658.026-.751.091-1.513.367-2.212s.792-1.333 1.495-1.599c.495-.186 1.039-.177 1.567-.166l3.544.074c.411.009.743.134.938.497s.2.793.189 1.205c-.037 1.426-.253 2.948-1.202 4.012-.435.489-.994.845-1.535 1.21-.144.098-.29.199-.401.333-.299.364-.286.88-.355 1.345a3.36 3.36 0 0 1-.583 1.443c-.12.169-.261.33-.446.422-.365.181-.806.046-1.169-.139-.785-.401-1.37-.956-1.721-1.764"/><path d="M57.04 56.827h-8.005v-.181h8.005v.181"/></g><path d="M60.158 51.245l-.031-.178c1.121-.197 2.266-.273 3.403-.23l-.007.181a16.08 16.08 0 0 0-3.364.227m1.375 1.084l-.008-.181 1.207-.052.008.181-1.207.052" fill="#db8b63"/><path d="M53.888 103.198c1.413-.182 2.69-1.187 3.199-2.518.338-.882.353-1.862.687-2.745.329-.872.959-1.627 1.153-2.539.084-.396.191-.922.594-.951.398-.029.589.484.596.883.021 1.161-.415 2.316-.248 3.465.032.221.091.448.233.62.308.373.886.364 1.35.225 1.057-.316 1.901-1.105 2.645-1.919s1.446-1.694 2.375-2.289c.059-.038.123-.076.193-.079.083-.004.161.043.222.1.357.335.223.919.063 1.381-.274.791-.563 1.607-1.138 2.216-.634.672-1.573 1.044-2.068 1.824-.045.071.227-.029.306-.057 1.397-.488 2.691-1.27 3.772-2.28.307-.287.634-.609 1.052-.645.09-.008.191.003.253.07s.065.164.061.253c-.042 1.064-.67 2.04-1.486 2.725s-1.81 1.117-2.801 1.508c.813.217 1.735.083 2.515-.233l2.303-1.032c.105-.037.231-.07.32-.004s.097.199.078.31c-.104.593-.657.99-1.187 1.273-1.052.562-2.204.937-3.385 1.105 1.298.154 2.632-.008 3.855-.469.063-.024.13-.049.197-.039.134.02.211.179.187.312s-.118.242-.215.337c-.583.564-1.381.855-2.179 1.002s-1.613.168-2.417.277c-1.12.153-2.216.48-3.236.966l-1.605.75c-.455.161-.931.253-1.405.343l-3.343.641-1.495-4.786" fill="#ffbc97"/><path d="M84.338 94.536a7.57 7.57 0 0 1 2.067-4.798l-2.067 4.798m1.964-4.881a8.63 8.63 0 0 0-4.543 2.02c.357-.014.716-.162 1.049-.293 1.221-.481 2.362-1.065 3.494-1.727M34.28 101.594a10.85 10.85 0 0 1 7.789 1.364c.443.272.88.592 1.132 1.047-2.533-1.378-6.043-2.226-8.92-2.41" fill="#b6e8dd"/><path d="M64.194 61.029c-1.047-.03-2.102-.059-3.133.125s-2.047.605-2.778 1.354l7.789.04c-.197-.874-.983-1.493-1.878-1.519" fill="#fff"/><path d="M51.23 58.29c-.354-.754-.93-1.437-1.701-1.754s-1.747-.199-2.313.414c-.507.548-.604 1.355-.608 2.102-.003.463.022.934.17 1.373.4 1.19 1.653 1.933 2.9 2.08.572.067 1.185.023 1.671-.286 1.203-.766.348-2.936-.118-3.929" fill="#ffbc97"/><path d="M49.458 58.469c-.296-.264-.632-.521-1.027-.558s-.841.241-.842.637c.207-.253.585-.311.9-.224s.584.289.845.487l.533.406c-.228-.155-.506-.236-.781-.227a.94.94 0 0 0-.418.104c-.371.205-.475.743-.267 1.112s.658.561 1.081.535c.31-.019.622-.151.817-.393.575-.714-.35-1.442-.841-1.879" fill="#db8b63"/><path d="M31.543 104.021c-.093 2.047-.018 4.133.605 6.086s1.844 3.775 3.625 4.79c.93.53 1.975.824 3.024 1.038 6.834 1.392 14.28-.654 19.444-5.342l-3.346-8.038-14.904 1.695-8.448-.229" fill="#fff"/><path d="M43.071 103.995a10.13 10.13 0 0 0-7.577 2.164l7.577-2.164" fill="#b6e8dd"/><path d="M35.12 40.386H9.375a2.42 2.42 0 0 0-2.417 2.417v11.216a2.42 2.42 0 0 0 2.417 2.417h18.914l5.38 4.572-1.748-4.572h3.198a2.42 2.42 0 0 0 2.417-2.417V42.803a2.42 2.42 0 0 0-2.417-2.417" fill="#ffab1a"/><path d="M21.132 48.661a1.12 1.12 0 0 1 1.116-1.117c.616 0 1.116.5 1.116 1.117s-.5 1.116-1.116 1.116-1.116-.5-1.116-1.116m-6.095 0a1.12 1.12 0 0 1 1.116-1.117c.616 0 1.116.5 1.116 1.117s-.5 1.116-1.116 1.116-1.116-.5-1.116-1.116m14.421 0a1.12 1.12 0 0 0-1.116-1.117c-.616 0-1.116.5-1.116 1.117s.5 1.116 1.116 1.116 1.116-.5 1.116-1.116" fill="#fff"/><path d="M126.353 16.453c0-4.999 4.052-9.051 9.051-9.051s9.051 4.052 9.051 9.051-4.052 9.051-9.051 9.051-9.051-4.052-9.051-9.051" fill="#1ddcd5"/><path d="M137.343 19.596h-8.165V13.31h8.165v6.286m.115-3.143l4.171-1.933v4.351z" fill="#fff"/><path d="M89.813 20.442H49.197c-.18 0-.327.146-.327.326v9.319c0 .181.146.326.327.326h40.615c.181 0 .326-.146.326-.326v-9.319c0-.181-.146-.326-.326-.326" fill="#f76f35"/><g fill="#fff0b6"><path d="M55.305 30.413h-1.417v-9.971h1.417v9.971m3.336 0h-1.417v-9.971h1.417v9.971m25.064 0h1.417v-9.971h-1.417v9.971"/><path d="M80.369 30.413h1.417v-9.971h-1.417v9.971m-20.227-8.642h18.726v7.312H60.142v-7.312"/></g><path d="M91.607 13.31H52.776c-.178 0-.322.144-.322.322v6.487c0 .178.144.322.322.322h38.831c.178 0 .322-.144.322-.322v-6.487c0-.178-.144-.322-.322-.322" fill="#0089cb"/><g fill="#fff0b6"><path d="M58.609 20.442h-1.356V13.31h1.356v7.132m3.19 0h-1.356V13.31h1.356v7.132m23.975 0h1.355V13.31h-1.355v7.132"/><path d="M82.583 20.442h1.356V13.31h-1.356v7.132m-19.348-6.18h17.912v5.229H63.235v-5.229"/></g><path d="M46.262 24.914h-23.25c-.178 0-.322.144-.322.322v4.854c0 .178.144.322.322.322h23.25c.178 0 .322-.144.322-.322v-4.854c0-.178-.144-.322-.322-.322" fill="#0089cb"/><g fill="#fff0b6"><path d="M26.416 30.413h-.821v-5.499h.821v5.499m1.931 0h-.821v-5.499h.821v5.499m14.512 0h.821v-5.499h-.821v5.499"/><path d="M40.928 30.413h.821v-5.499h-.821v5.499m-11.712-4.765h10.842v4.033H29.216v-4.033"/></g><path d="M179.688 22.319h-17.759c-.442 0-.802-.359-.802-.802V10.962c0-.442.359-.802.802-.802h17.759c.442 0 .802.359.802.802v10.555c0 .442-.359.802-.802.802" fill="#ffab1a"/><path d="M169.665 16.183a1.21 1.21 0 0 1 1.208-1.208 1.21 1.21 0 0 1 1.208 1.208 1.21 1.21 0 0 1-1.208 1.208 1.21 1.21 0 0 1-1.208-1.208m-6.713 1.056a1.201 1.201 0 1 1 2.403 0 1.201 1.201 0 1 1-2.403 0m14.175-.65c0-.666-.539-1.207-1.205-1.207a1.21 1.21 0 0 0-1.207 1.207c0 .666.541 1.205 1.207 1.205s1.205-.539 1.205-1.205" fill="#fff"/><path d="M30.122 168.823l-.121.005v15.909l.121.005h143.642v-15.919H30.122" fill="#cdf5fd"/><path d="M177.127 168.696v-2.361H28.769c-5.716 0-10.35 4.634-10.35 10.35s4.634 10.351 10.35 10.351h148.358v-2.361H30.403a7.99 7.99 0 0 1-7.99-7.99 7.99 7.99 0 0 1 7.99-7.989h146.723" fill="#188fba"/><path d="M173.763 170.993v1.266H23.569a7.91 7.91 0 0 1 .923-1.108l.166-.158h149.105m0 3.437v1.266H22.238a7.71 7.71 0 0 1 .279-1.266h151.247m-.001 3.437v1.266H22.516c-.127-.409-.221-.833-.279-1.266h151.526m0 3.438v1.266H24.658a8.08 8.08 0 0 1-1.089-1.266h150.194" fill="#aedfe5"/><path d="M24.81 170.925l-.167.159a7.98 7.98 0 0 0-.925 1.11 7.83 7.83 0 0 0-1.055 2.176c-.127.41-.221.834-.279 1.269a7.69 7.69 0 0 0-.076 1.087c0 .37.025.733.076 1.088.058.435.152.859.279 1.269.239.783.598 1.515 1.055 2.176a8.1 8.1 0 0 0 1.091 1.269c1.401 1.323 3.282 2.139 5.355 2.17v-15.944c-2.073.031-3.953.847-5.355 2.17" fill="#00538c"/><path d="M52.253 142.49l13.779 13.78H52.253zm-5.046-11.996v30.822h30.822l-30.822-30.822" fill="#ff683d"/><g fill="#feab1d"><use xlink:href="#B"/><use xlink:href="#C"/><path d="M50.696 136.16l-.257-.257 1.088-1.087.256.255-1.088 1.088m1.289 1.289l-.257-.257 1.088-1.087.256.255-1.088 1.088"/><use xlink:href="#D"/><path d="M54.558 140.025l-.256-.255 1.088-1.088.256.257-1.088 1.087"/><use xlink:href="#B" x="7.725" y="7.732"/><use xlink:href="#C" x="7.725" y="7.731"/><use xlink:href="#C" x="9.013" y="9.019"/><path d="M59.708 145.18l-.256-.257 1.088-1.087.257.255-1.088 1.088"/><use xlink:href="#D" x="7.725" y="7.731"/><path d="M62.283 147.756l-.256-.255 1.088-1.088.256.257-1.088 1.087"/><use xlink:href="#B" x="15.45" y="15.463"/><use xlink:href="#B" x="16.737" y="16.751"/><use xlink:href="#D" x="12.874" y="12.886"/><use xlink:href="#D" x="14.162" y="14.174"/><use xlink:href="#D" x="15.45" y="15.462"/><path d="M70.008 155.488l-.257-.255 1.088-1.088.256.257-1.088 1.087m1.289 1.288l-.257-.257 1.088-1.088.257.257-1.088 1.088"/><use xlink:href="#B" x="24.462" y="24.483"/><use xlink:href="#C" x="24.462" y="24.482"/><use xlink:href="#D" x="21.887" y="21.905"/></g><defs ><path id="B" d="M48.121 133.583l-.256-.257 1.088-1.088.256.257-1.088 1.088"/><path id="C" d="M49.408 134.872l-.256-.257 1.088-1.087.256.255-1.088 1.088"/><path id="D" d="M53.271 138.737l-.256-.257 1.088-1.087.256.257-1.088 1.087"/></defs></svg>