<svg xmlns="http://www.w3.org/2000/svg" xmlns:xlink="http://www.w3.org/1999/xlink" width="200" height="200" viewBox="0 0 52.917 52.917" xmlns:v="https://vecta.io/nano"><style><![CDATA[.B{clip-path:url(#B)}.C{fill:#bfecf7}.D{fill:#8a949b}.E{fill:#6b767c}.F{fill:#fcb040}.G{fill:#6e6755}.H{fill:#c4c8cb}.I{fill:#c8cccf}.J{fill:#17a69a}.K{fill:#ffc39c}]]></style><defs><path id="A" d="M0 0h1400v980H0z"/><clipPath id="B"><use xlink:href="#A"/></clipPath><clipPath id="C"><path d="M2.141-10.332h52.917v52.917H2.141z" fill="#575757" fill-opacity=".165" stroke-width=".17" stroke-linejoin="round"/></clipPath><path id="D" d="M959.4 153.7h1.7v9.2h-1.7z"/><path id="E" d="M884.5 109.1h3.6v26.5h-3.6z"/></defs><g transform="translate(-2.141 10.332)" clip-path="url(#C)"><g transform="matrix(.054 0 0 .054 -9.198411 -10.331969)"><g class="B"><path fill="#ebfdff" d="M0 0h1400v980H0z"/><g class="C"><path d="M1233.3 957.3h-14.5v-5h9.5v-3.7h5zm-26.5 0h-12v-5h12zm-24 0h-12v-5h12zm-24 0h-12v-5h12zm-24 0h-12v-5h12zm-24 0h-12v-5h12zm-24 0h-12v-5h12zm-24 0h-5.5v-11.5h5v6.5h.5zm170.5-20.7h-5v-12h5zm-171.1-2.8h-5v-12h5zm171.1-21.2h-5v-12h5zm-171.1-2.8h-5v-12h5zm171.1-21.2h-5v-12h5zm-171.1-2.8h-5v-12h5zm171.1-21.2h-5v-12h5zm-171.1-2.8h-5v-12h5zm171.1-21.2h-5v-12h5zm-171.1-2.8h-5v-12h5zm171.1-21.2h-5v-12h5zm-171.1-2.8h-5v-12h5zm171.1-21.2h-5v-12h5zm-171.1-2.8h-5v-12h5zm171.1-21.2h-5v-12h5zm-171.1-2.8h-5v-12h5zm171.1-21.2h-5v-12h5zm-171.1-2.8h-5v-12h5zm171.1-21.2h-5v-12h5zm-171.1-2.8h-5v-12h5zm171.1-21.2h-5v-12h5zm-171.1-2.8h-5v-12h5zm171.1-21.2h-5v-12h5zm-171.1-2.8h-5v-12h5zm171.1-21.2h-5v-12h5zm-171.1-2.8h-5v-12h5zm171.1-21.2h-5v-12h5zm-171.1-2.8h-5v-12h5zm171.1-21.2h-5v-12h5zm-171.1-2.8h-5v-12h5zm171.1-21.2h-5v-12h5zm-171.1-2.8h-5v-12h5zm171.1-21.2h-5v-12h5zm-171.1-2.8h-5v-12h5zm171.1-21.2h-5v-12h5zm-171.1-2.8h-5v-12h5zm171.1-21.2h-5v-12h5zm-171.1-2.8h-5v-12h5zm171.1-21.2h-5v-12h5zm-171.1-2.8h-5v-12h5zm171.1-21.2h-5v-12h5zm-171.1-2.8h-5v-12h5zm171.1-21.2h-5v-12h5zm-171.1-2.8h-5v-12h5zm171.1-21.2h-5v-12h5zm-171.1-2.8h-5v-12h5zm171.1-21.2h-5v-12h5zm-171.1-2.8h-5v-12h5zm171.1-21.2h-5v-12h5zm-171.1-2.8h-5v-12h5zm171.1-21.2h-5v-12h5zm-171.1-2.8h-5v-12h5zm171.1-21.2h-5v-12h5zm-171.1-2.8h-5v-12h5zm171.1-21.2h-5v-12h5zm-171.1-2.8h-5v-12h5zm171.1-21.2h-5v-12h5zm-171.1-2.8h-5v-12h5zm171.1-21.2h-5v-12h5zm-171.1-2.8h-5v-12h5zm162.4-12.6h-12v-5h12zm-24 0h-12v-5h12zm-24 0h-12v-5h12zm-24 0h-12v-5h12zm-24 0h-12v-5h12zm-24 0h-12v-5h12zm-24 0h-12v-5h12z"/><path d="M1302.8 982.5h-12v-5h12zm-24 0h-12v-5h12zm-24 0h-12v-5h12zm-24 0h-12v-5h12zm-24 0h-12v-5h12zm-24 0h-12v-5h12zm-24 0h-12v-5h12zm-24 0h-12v-5h12zm-24 0h-12v-5h12zm-24 0h-12v-5h12zm-24 0h-12v-5h12zm-24 0h-12v-5h12zm-24 0h-12v-5h12zm-24 0h-2.5V968h5v12h-2.5zm314.5-5.1h-5v-12h5zM993.2 956h-5v-12h5zm312.1-2.6h-5v-12h5zM993.2 932h-5v-12h5zm312.1-2.6h-5v-12h5zM993.2 908h-5v-12h5zm312.1-2.6h-5v-12h5zM993.2 884h-5v-12h5zm312.1-2.6h-5v-12h5zM993.2 860h-5v-12h5zm312.1-2.6h-5v-12h5zM993.2 836h-5v-12h5zm312.1-2.6h-5v-12h5zM993.2 812h-5v-12h5zm312.1-2.6h-5v-12h5zM993.2 788h-5v-12h5zm312.1-2.6h-5v-12h5zM993.2 764h-5v-12h5zm312.1-2.6h-5v-12h5zM993.2 740h-5v-12h5zm312.1-2.6h-5v-12h5zM993.2 716h-5v-12h5zm312.1-2.6h-5v-12h5zM993.2 692h-5v-12h5zm312.1-2.6h-5v-12h5zM993.2 668h-5v-12h5zm312.1-2.6h-5v-12h5zM993.2 644h-5v-12h5zm312.1-2.6h-5v-12h5zM993.2 620h-5v-12h5zm312.1-2.6h-5v-12h5zM993.2 596h-5v-12h5zm312.1-2.6h-5v-12h5zM993.2 572h-5v-12h5zm312.1-2.6h-5v-12h5zM993.2 548h-5v-12h5zm312.1-2.6h-5v-12h5zM993.2 524h-5v-12h5zm312.1-2.6h-5v-12h5zM993.2 500h-5v-12h5zm312.1-2.6h-5v-12h5zM993.2 476h-5v-12h5zm312.1-2.6h-5v-12h5zM993.2 452h-5v-9.8h7.2v5h-2.2zm312.1-2.6h-5v-2.2h-4.8v-5h9.8zm-21.9-2.2h-12v-5h12zm-24 0h-12v-5h12zm-24 0h-12v-5h12zm-24 0h-12v-5h12zm-24 0h-12v-5h12zm-24 0h-12v-5h12zm-24 0h-12v-5h12zm-24 0h-12v-5h12zm-24 0h-12v-5h12zm-24 0h-12v-5h12zm-24 0h-12v-5h12zm-24 0h-12v-5h12z"/><path d="M903.2 945.3h-14.5v-5h9.5v-3.7h5zm-26.5 0h-12v-5h12zm-24 0h-12v-5h12zm-24 0h-12v-5h12zm-24 0h-12v-5h12zm-24 0h-12v-5h12zm-24 0h-12v-5h12zm-24 0h-12v-5h12zm-12.5-11.5h-5v-12h5zm183-9.2h-5v-12h5zm-183-14.8h-5v-12h5zm183-9.2h-5v-12h5zm-183-14.8h-5v-12h5zm183-9.2h-5v-12h5zm-183-14.8h-5v-12h5zm183-9.2h-5v-12h5zm-183-14.8h-5v-12h5zm183-9.2h-5v-12h5zm-183-14.8h-5v-12h5zm183-9.2h-5v-12h5zm-183-14.8h-5v-12h5zm183-9.2h-5v-12h5zm-183-14.8h-5v-12h5zm183-9.2h-5v-12h5zm-183-14.8h-5v-12h5zm183-9.2h-5v-12h5zm-183-14.8h-5v-12h5zm183-9.2h-5v-12h5zm-183-14.8h-5v-12h5zm183-9.2h-5v-12h5zm-183-14.8h-5v-12h5zm183-9.2h-5v-12h5zm-183-14.8h-5v-12h5zm183-9.2h-5v-12h5zm-183-14.8h-5v-12h5zm183-9.2h-5v-12h5zm-183-14.8h-5v-12h5zm183-9.2h-5v-12h5zm-183-14.8h-5v-12h5zm183-9.2h-5v-12h5zm-183-14.8h-5v-12h5zm183-9.2h-5v-12h5zm-183-14.8h-5v-12h5zm183-9.2h-5v-12h5zm-183-14.8h-5v-12h5zm183-9.2h-5v-12h5zm-183-14.8h-5v-12h5zm183-9.2h-5v-12h5zm-183-14.8h-5v-12h5zm183-9.2h-5v-12h5zm-183-14.8h-5v-12h5zm183-9.2h-5v-12h5zm-183-14.8h-5v-12h5zm183-9.2h-5v-12h5zm-183-14.8h-5v-12h5zm183-9.2h-5v-12h5zm-183-14.8h-5v-12h5zm183-9.2h-5v-12h5zm-183-14.8h-5v-12h5zm183-9.2h-5v-12h5zm-183-14.8h-5v-12h5zm183-9.2h-5v-12h5zm-183-14.8h-5v-12h5zm183-9.2h-5v-12h5zm-183-14.8h-5v-12h5zm183-9.2h-5v-12h5zm-183-14.8h-5v-12h5zm183-9.2h-5v-3.4h-3.6v-5h8.6zm-20.6-3.4h-12v-5h12zm-24 0h-12v-5h12zm-24 0h-12v-5h12zm-24 0h-12v-5h12zm-24 0h-12v-5h12zm-24 0h-12v-5h12zm-24 0h-12v-5h12z"/><path d="M246.3 906h897.5v61.9H246.3z"/><path d="M827.1 460.8v66.7H712.9v-38.1H591.5v38.1H467.7v414.2h359.5v4.8H1039V460.8zM672.4 713.2h52.4V737h-52.4zm0-31v-23.8h52.4v23.8zm0-54.7v-23.8h52.4v23.8zm0-52.4v-23.8h52.4v23.8zm-176.2-23.8h52.4v23.8h-52.4zm0 52.4h52.4v23.8h-52.4zm0 54.7h52.4v23.8h-52.4zm0 54.8h52.4V737h-52.4zm135.7 157.1H496.2v-38.1h135.7zm0-68.3H496.2v-38.1h135.7zm4.8-65h-52.4v-23.8h52.4zm0-54.8h-52.4v-23.8h52.4zm0-54.7h-52.4v-23.8h52.4zm0-52.4h-52.4v-23.8h52.4zm116.6 298.3h-90.5v-38.1h90.5zm0-71.4h-90.5v-38.1h90.5zm59.6-65h-52.4v-23.8h52.4zm0-54.8h-52.4v-23.8h52.4zm0-54.7h-52.4v-23.8h52.4zm0-52.4h-52.4v-23.8h52.4zm147.5-23.8h23.8v23.8h-23.8zm-49.9 0h23.8v23.8h-23.8zm-26.2 188h-23.8v-23.8h23.8zm0-54.7h-23.8v-23.8h23.8zm0-54.8h-23.8V606h23.8zm0-54.7h-23.8v-23.8h23.8zm50.6 175.1h-27.5V607.1h27.5zm52.4 0h-27.5V607.1h27.5z"/><path d="M540.3 33.6h3.4v865.9h-3.4zm46 185.7h3.4v680.2h-3.4zm-16-62.7h3.4v742.8h-3.4zm-12.6 742.8V89.3l-3.4-14v824.1z"/><path d="M546.1 33.8l43.7 162-3.9.1-43.6-162zm-5.4 95.9h16v3h-16zm0 36h16v3h-16zm0 36h16v3h-16zm0 36h16v3h-16z"/><path d="M571.3 165.7h10v3h-10zm0 36h16v3h-16zm0 36h16v3h-16zm-30.6 36h16v3h-16zm0 36h16v3h-16zm0 36h16v3h-16zm0 36h16v3h-16zm0 36h16v3h-16zm0 36h16v3h-16zm0 36h16v3h-16zm0 36h16v3h-16zm0 36h16v3h-16zm0 36h16v3h-16zm0 36h16v3h-16zm0 36h16v3h-16zm0 36h16v3h-16zm0 149.8h16v3.5h-16zm30.6-581.8h16v3h-16zm0 36h16v3h-16zm0 36h16v3h-16zm0 36h16v3h-16zm0 36h16v3h-16zm0 36h16v3h-16zm0 36h16v3h-16zm0 36h16v3h-16zm0 36h16v3h-16zm0 36h16v3h-16zm0 36h16v3h-16zm0 36h16v3h-16zm0 36h16v3h-16zm0 149.8h16v3.5h-16zm-30.6 41.8h16v3.5h-16zm30.6 0h16v3.5h-16zM540.7 99.1h16v3h-16zm68.7 54.4h427.4v1.9H609.4zm0 26.3h335.7v1.9H609.4zm0-9.1H976v1.9H609.4zm0-7.3h399.9l6.9-1.9H609.4z"/><path d="M1036.6 156.8l-92.8 25v-2.2l92.8-25zm-56.6-3.1h1.7v9.2H980z"/><use xlink:href="#D"/><path d="M938.7 153.7h1.7v9.2h-1.7zm-20.6 0h1.7v9.2h-1.7zm41.3 17.6h1.7v5.7h-1.7zm-20.7 0h1.7v9.2h-1.7zm-20.6 0h1.7v9.2h-1.7zm-20.6-17.6h1.7v9.2h-1.7zm-20.6 0h1.7v9.2h-1.7zm-20.7 0h1.7v9.2h-1.7zm-20.6 0h1.7v9.2h-1.7zm-20.6 0h1.7v9.2H815zm-20.6 0h1.7v9.2h-1.7zm-20.7 0h1.7v9.2h-1.7zm-20.6 0h1.7v9.2h-1.7zm-20.6 0h1.7v9.2h-1.7zm-20.6 0h1.7v9.2h-1.7zm-20.6 0h1.7v9.2h-1.7zm-20.7 0h1.7v9.2h-1.7zm-20.6 0h1.7v9.2H650zm-20.6 0h1.7v9.2h-1.7zm268.1 17.6h1.7v9.2h-1.7zm-20.6 0h1.7v9.2h-1.7zm-20.7 0h1.7v9.2h-1.7zm-20.6 0h1.7v9.2h-1.7zm-20.6 0h1.7v9.2H815zm-20.6 0h1.7v9.2h-1.7zm-20.7 0h1.7v9.2h-1.7zm-20.6 0h1.7v9.2h-1.7zm-20.6 0h1.7v9.2h-1.7zm-20.6 0h1.7v9.2h-1.7zm-20.6 0h1.7v9.2h-1.7zm-20.7 0h1.7v9.2h-1.7zm-20.6 0h1.7v9.2H650zm-20.6 0h1.7v9.2h-1.7zm-20.6-17.6h1.7v9.2h-1.7zm0 17.6h1.7v9.2h-1.7zm388.7-17.6h1.7v9.2h-1.7z"/><path d="M486.5 130.2h84.2v4h-91.3l62-102.6 399.2 122-1.2 3.9L543.2 36.3zm90.5 25.4h32v3h-32zm6 18h26v3h-26z"/><path d="M510.2 507L521 132.5l4 .1-12 416-4 .1-28.1-416.3 4-.3z"/><path d="M477 123.6h15v23h-15zm521.5 42.9l6.5 305.1 30.1-317.2 3 .3-32.6 343-3-.1-7-331z"/><path d="M-8.4 939.8h1443.1v168H-8.4z"/></g><path fill="#a6a7ab" d="M878.8 62.3h264.1v73.3H878.8z"/><path fill="#8a8b8e" d="M878.8 81.6h264.1v54H878.8z"/><path d="M1081.2 41.1h98.3V232h-98.3z" class="F"/><g fill="#535454"><use xlink:href="#E"/><path d="M901.5 109.1h3.6v26.5h-3.6zm17-18.2h3.6v44.6h-3.6zm17 18.2h3.6v26.5h-3.6zm17 0h3.6v26.5h-3.6zm17-18.2h3.6v44.6h-3.6zm17 18.2h3.6v26.5h-3.6zm17 0h3.6v26.5h-3.6zm17-18.2h3.6v44.6h-3.6zm17 18.2h3.6v26.5h-3.6zm17 0h3.6v26.5h-3.6zm17 0h3.6v26.5h-3.6z"/></g><path d="M1093 63h75v159h-75z" class="G"/><g fill="#535454"><circle cx="1113" cy="52" r="6"/><circle cx="1145" cy="52" r="6"/></g><path d="M995 429h16v34h-16z" class="D"/><path d="M934.8 731.2h22.5V847h-22.5z" class="E"/><path d="M891 273h100v528.2H891z" class="H"/><g class="D"><path d="M891 273h63.9v528.2H891z"/><path d="M811.4 283h242.3c2.1 0 4.2-.8 5.7-2.3l15-15c5-5 1.5-13.7-5.7-13.7H1057c-4.4 0-8-3.6-8-8v-29c0-4.4-3.6-8-8-8h-6c-4.4 0-8-3.6-8-8h0c0-4.4-3.6-8-8-8h-88c-4.4 0-8 3.6-8 8v2.9c0 3.1-1.8 5.9-4.6 7.2L810 260.8c-6.9 3.3-9.5 11.9-5.4 18.4h0c1.5 2.4 4.1 3.8 6.8 3.8z"/></g><g class="H"><path d="M812.7 273c-.1-.6 0-1.1.1-1.4.1-.5.5-1.3 1.5-1.8l108.4-51.6c6.2-3 10.3-9.3 10.3-16.3v-.9h84.1c1 9 8.6 16 17.9 16h4v27c0 9.9 8.1 18 18 18h6.9l-11 11zM875 467h16V335h-86.4c-10.4 0-14.4 13.6-5.6 19.2l76 48.8z"/></g><path d="M875 349h-60l60 30z" class="D"/><circle cx="874.2" cy="430.5" r="15.2" class="H"/><path fill="#cfd0d1" d="M985 487h18v-74h16v-52h42l-32-30h-46l2 156z"/><path d="M991 341h16v54h-16z" class="D"/><g class="E"><path d="M895 291h34v4h-34zm0 22h24v4h-24zm0 20h24v4h-24zm0 20h24v4h-24zm0 20h24v4h-24zm0 20h34v4h-34zm0 22h24v4h-24zm0 20h24v4h-24zm0 20h24v4h-24zm0 20h24v4h-24zm0 20h34v4h-34zm0 22h24v4h-24zm0 20h24v4h-24zm0 20h24v4h-24zm0 20h24v4h-24zm0 20h34v4h-34zm0 22h24v4h-24zm0 20h24v4h-24zm0 20h24v4h-24zm0 20h24v4h-24zm0 20h34v4h-34zm0 22h24v4h-24zm0 20h24v4h-24zm0 20h24v4h-24zm.5 18.5h24v4h-24z"/></g><path d="M1013.1 775.6h35l31.5-34.5v-36h-43.5l-23 45z" class="G"/><path fill="#f9df41" d="M806.6 871.6h291v69h-291z"/><path d="M1207.9 712.6h-138c-26 0-47.2 21.3-47.2 47.2v138c0 26 21.3 47.2 47.2 47.2h138c26 0 47.2-21.3 47.2-47.2v-138c0-25.9-21.2-47.2-47.2-47.2z" class="F"/><path fill="#938c82" d="M1069.9 935.1c-20.5 0-37.2-16.7-37.2-37.2v-138c0-20.5 16.7-37.2 37.2-37.2h138c20.5 0 37.2 16.7 37.2 37.2v138c0 20.5-16.7 37.2-37.2 37.2z"/><path fill="#f1592a" d="M1082.6 772.6h112.5v112.5h-112.5z"/><path fill="#a6a7ab" d="M796.1 864.1h18v82.5h-18z"/><g fill="#76787c"><path d="M827.6 873.1h3v58.5h-3zm22.5 0h3v28.5h-3zm22.5 0h3v28.5h-3zm22.5 0h3v58.5h-3zm22.5 0h3v28.5h-3zm22.5 0h3v28.5h-3zm22.5 0h3v58.5h-3zm22.5 0h3v28.5h-3zm22.5 0h3v28.5h-3z"/></g><g class="G"><path d="M1082.7 897.1H1063c-2.4 0-4.4 2-4.4 4.4v19.7c0 2.4 2 4.4 4.4 4.4h19.7c2.4 0 4.4-2 4.4-4.4v-19.7c0-2.4-1.9-4.4-4.4-4.4zm136.4-155c-2.1 11.5 6.1 20.3 16 24.5 12.4 5.3 27.5 4 37.2 14.7 15.1 16.6 3 48.7 25.6 60.4 9.2 4.8 18.3-1.6 22.5-9.7 5.4-10.6 3.3-23.9-1.1-34.4-10.8-25.9-37.3-38.8-61.3-49.9-2.9-1.3-5.4 3-2.5 4.3 20.9 9.7 42.9 20 55.5 40.3 5.9 9.5 9.2 21.5 6.6 32.5-1.1 5-4 9.7-8.5 12.3-6.2 3.6-12.5-1.4-16-6.2-5.6-7.9-6.2-18.8-7.7-28.1-1.5-9-3.8-17.8-9.7-25.1-6.3-7.7-16.6-10.1-25.8-12.1-10.8-2.4-28.9-7.5-26.2-22.3.8-3-4-4.4-4.6-1.2z"/><circle cx="1219.1" cy="742.6" r="13.5"/></g><path d="M1198.8 236.3h73.4l6.5 19.4h-45.4z" class="I"/><path fill="#96a1a8" d="M1277.6 625.1h8.6V705h-8.6z"/><path d="M1259.3 219h45.4v442.8h-45.4z" class="I"/><g fill="#96a1a8"><path d="M1380.2 286c.6 0 1.1.5 1.5 1.3V308l-68.5 47.1v73.4h13v23.8h-25.9V286zm-136.1 36.7h19.4v127.4h-19.4z"/><path d="M1185.8 348.6h69.1l8.7-25.9h-51.9z"/></g><path d="M1259.3 219h71.2l47.6 19.4-9.8 9.8h-96.1z" class="I"/><path fill="#b8bcbf" d="M1356.5 248.2v-18.6l21.6 8.8-9.8 9.8z"/><path d="M1070.6 281.6h110v410h-110z" class="D"/><path d="M1080.6 281.6h90v410h-90z" class="F"/><path fill="#fff" d="M1092.6 309.6h68v48h-68z"/><path d="M1092.7 324.7h67.5v16.5h-67.5z" class="J"/><g class="E"><path d="M1103.2 324.7h7.5v16.5h-7.5zm31.5 0h7.5v16.5h-7.5z"/></g><path fill="#fff" d="M1092.6 612.6h68v48h-68z"/><path d="M1092.7 627.7h67.5v16.5h-67.5z" class="J"/><g class="E"><path d="M1103.2 627.7h7.5v16.5h-7.5zm31.5 0h7.5v16.5h-7.5z"/></g><path fill="#fff" d="M1100.2 389.2h49.5v186h-49.5z"/><path d="M1110.7 389.2h30v186h-30z" class="J"/><g class="E"><path d="M1110.7 441.7h30v6h-30zm0 54h30v6h-30z"/></g><g fill="#5f5e63"><path d="M765.2 766h29.9v26.4h-29.9zm6-107.5h17.7v100.7h-17.7z"/></g><path d="M752.3 645.6v23.7c0 6.2 5.1 11.3 11.3 11.3h69.8c3.4 0 6.7 1.6 8.8 4.2l7.4 9.3c1.6 2 2.5 4.5 2.5 7.1v41.5c0 3.4-1.5 6.7-4.2 8.8l-27 21.8c-2 1.6-4.5 2.5-7.1 2.5h-41.2c-6.2 0-11.3 5.1-11.3 11.3h0c0 4.5 2.7 8.7 6.9 10.4l49.9 21c3.9 1.6 8.3 1 11.6-1.7l45.9-37.7c2.6-2.1 4.1-5.4 4.1-8.7v-94.6a11 11 0 0 0-2.7-7.3l-42.3-50.1c-1.7-2-2.7-4.6-2.7-7.3v-12.2c0-6.2-5.1-11.3-11.3-11.3h-44.5c-5.1 0-9.6 3.4-10.9 8.3l-12.8 46.7c0 1-.2 2-.2 3z" class="F"/><path fill="#6c6b70" d="M761 405.1h39.8v84.7H761z"/><g fill="#58575b"><path d="M761 405.1h7.2v84.7H761zm13 0h7.2v84.7H774zm13 0h7.2v84.7H787z"/></g><path fill="#5f5e63" d="M750.5 471.5h60.9v84.7h-60.9z"/><g fill="#535356"><path d="M755.9 475.8h8.9v75.3h-8.9zm19.9 0h8.9v75.3h-8.9zm19.9 0h8.9v75.3h-8.9z"/></g><path fill="#bdbec0" d="M801.4 665.1h-41c-12.5 0-22.7-10.2-22.7-22.7v-89.1H824v89.1c.1 12.5-10 22.7-22.6 22.7z"/><g fill="#a5a7aa"><path d="M741.5 581h3.3v32.1h-3.3zm7.7 0h3.3v18.8h-3.3zm7.8 0h3.3v18.8H757zm7.7 0h3.3v18.8h-3.3zm10 0h3.3v32.1h-3.3zm7.8 0h3.3v18.8h-3.3zm7.7 0h3.3v18.8h-3.3zm7.8 0h3.3v18.8H798zm9.9 0h3.3v32.1h-3.3zm7.8 0h3.3v18.8h-3.3z"/><circle cx="780.9" cy="637.4" r="15.5"/></g><g class="C"><path d="M372.7 975.3h-12v-5h9.5v-9.7h5v12h-2.5zm-24 0h-12v-5h12zm-24 0h-12v-5h12zm-24 0h-12v-5h12zm-24 0h-12v-5h12zm-24 0h-12v-5h12zm-24 0h-12v-5h12zm-24 0h-12v-5h12zm-24 0h-12v-5h12zm-24 0h-12v-5h12zm-24 0h-12v-5h12zm-24 0h-12v-5h12zm-24 0h-12v-5h12zm-24 0h-12v-5h12zm-18.6-5.5h-5v-12h5zm333.1-21.2h-5v-12h5zm-333.1-2.8h-5v-12h5zm333.1-21.2h-5v-12h5zm-333.1-2.8h-5v-12h5zm333.1-21.2h-5v-12h5zm-333.1-2.8h-5v-12h5zm333.1-21.2h-5v-12h5zm-333.1-2.8h-5v-12h5zm333.1-21.2h-5v-12h5zm-333.1-2.8h-5v-12h5zm333.1-21.2h-5v-12h5zm-333.1-2.8h-5v-12h5zm333.1-21.2h-5v-12h5zm-333.1-2.8h-5v-12h5zm333.1-21.2h-5v-12h5zm-333.1-2.8h-5v-12h5zm333.1-21.2h-5v-12h5zm-333.1-2.8h-5v-12h5zm333.1-21.2h-5v-12h5zm-333.1-2.8h-5v-12h5zm333.1-21.2h-5v-12h5zm-333.1-2.8h-5v-12h5zm333.1-21.2h-5v-12h5zm-333.1-2.8h-5v-12h5zm333.1-21.2h-5v-12h5zm-333.1-2.8h-5v-12h5zm333.1-21.2h-5v-12h5zm-333.1-2.8h-5v-12h5zm333.1-21.2h-5v-12h5zm-333.1-2.8h-5v-12h5zm333.1-21.2h-5v-12h5zm-333.1-2.8h-5v-12h5zm333.1-21.2h-5v-12h5zm-333.1-2.8h-5v-12h5zm333.1-21.2h-5v-12h5zm-333.1-2.8h-5v-12h5zm333.1-21.2h-5v-12h5zm-333.1-2.8h-5v-12h5zm333.1-21.2h-5v-12h5zm-333.1-2.8h-5v-12h5zm333.1-21.2h-5v-12h5zm-333.1-2.8h-5v-12h5zm333.1-21.2h-5v-12h5zm-333.1-2.8h-5v-12h5zm333.1-21.2h-5v-12h5zm-333.1-2.8h-5v-12h5zm333.1-21.2h-5v-12h5zm-333.1-2.8h-5v-12h5zm333.1-21.2h-5v-12h5zm-333.1-2.8h-5v-12h5zm333.1-21.2h-5v-12h5zm-333.1-2.8h-5v-12h5zm333.1-21.2h-5v-12h5zm-333.1-2.8h-5v-12h5zm333.1-21.2h-5v-12h5zm-333.1-2.8h-5v-12h5zm327.4-15.6h-12v-5h12zm-24 0h-12v-5h12zm-24 0h-12v-5h12zm-24 0h-12v-5h12zm-24 0h-12v-5h12zm-24 0h-12v-5h12zm-24 0h-12v-5h12zm-24 0h-12v-5h12zm-24 0h-12v-5h12zm-24 0h-12v-5h12zm-24 0h-12v-5h12zm-24 0h-12v-5h12zm-24 0h-12v-5h12zm-24 0h-12v-5h12z"/></g></g></g><g transform="matrix(.054 0 0 .054 -2.319244 -5.040302)" class="B C"><path d="M255.2 393.2h-14.5v-5h12v2.5h2.5zm-26.5 0h-12v-5h12zm-9.5-14.5h-5v-12h5zm36 0h-5v-12h5zm-36-24h-5v-12h5zm36 0h-5v-12h5zm-36-24h-5v-12h5zm36 0h-5v-12h5zm-2.6-21.5h-12v-5h12zm-24 0h-12v-2.5h-2.5v-2.5h14.5z"/></g><g transform="matrix(.054 0 0 .054 -9.198411 -10.331969)" class="B C"><path d="M555.2 966.3h-14.5v-5h9.5v-3.7h5zm-26.5 0h-12v-5h12zm-24 0h-12v-5h12zm-24 0h-12v-5h12zm-24 0h-12v-5h12zm-24 0h-12v-5h12zm-24 0h-12v-5h12zm-24 0h-12v-5h12zm-24 0h-12v-5h12zm-24 0h-12v-5h12zm-24 0h-12v-5h12zm-24 0h-12v-5h12zm-24 0h-12v-5h12zm-24 0h-12v-5h12zm-24 0h-12v-5h12zm-24 0h-12v-5h12zm-24 0h-12v-5h12zm-24 0h-8.5v-8.5h5v3.5h3.5zm-3.6-20.5h-5v-12h5zm414.1-.2h-5v-12h5zm-414.1-23.8h-5v-12h5zm414.1-.2h-5v-12h5zm-414.1-23.8h-5v-12h5zm414.1-.2h-5v-12h5zm-414.1-23.8h-5v-12h5zm414.1-.2h-5v-12h5zm-414.1-23.8h-5v-12h5zm414.1-.2h-5v-12h5zm-414.1-23.8h-5v-12h5zm414.1-.2h-5v-12h5zm-414.1-23.8h-5v-12h5zm414.1-.2h-5v-12h5zm-414.1-23.8h-5v-12h5zm414.1-.2h-5v-12h5zm-414.1-23.8h-5v-12h5zm414.1-.2h-5v-12h5zm-414.1-23.8h-5v-12h5zm414.1-.2h-5v-12h5zm-414.1-23.8h-5v-12h5zm414.1-.2h-5v-12h5zm-414.1-23.8h-5v-12h5zm414.1-.2h-5v-12h5zm-414.1-23.8h-5v-12h5zm414.1-.2h-5v-12h5zm-414.1-23.8h-5v-12h5zm414.1-.2h-5v-12h5zm-414.1-23.8h-5v-12h5zm414.1-.2h-5v-12h5zm-414.1-23.8h-5v-12h5zm414.1-.2h-5v-12h5zm-414.1-23.8h-5v-12h5zm414.1-.2h-5v-12h5zm-414.1-23.8h-5v-5.6h11.4v5h-6.4zm414.1-.2h-5v-.4h-6.6v-5h11.6zm-23.6-.4h-12v-5h12zm-24 0h-12v-5h12zm-24 0h-12v-5h12zm-24 0h-12v-5h12zm-24 0h-12v-5h12zm-24 0h-12v-5h12zm-24 0h-12v-5h12zm-24 0h-12v-5h12zm-24 0h-12v-5h12zm-24 0h-12v-5h12zm-24 0h-12v-5h12zm-24 0h-12v-5h12zm-24 0h-12v-5h12zm-24 0h-12v-5h12zm-24 0h-12v-5h12zm-24 0h-12v-5h12z"/></g><g transform="matrix(.054 0 0 .054 -2.319244 -5.040302)"><g class="B C"><path d="M261.2 501.2h-14.5v-5h12v2.5h2.5zm-26.5 0h-12v-5h12zm-24 0h-12v-5h12zm-9.6-14.5h-5v-12h5zm60.1 0h-5v-12h5zm-60.1-24h-5v-12h5zm60.1 0h-5v-12h2.5v-2.5h2.5zm-14.6-9.5h-12v-5h12zm-24 0h-12v-5h12z"/></g><g class="B"><path d="M427.3 471.2h-94.4c-15.3 0-27.7-12.4-27.7-27.7V308H455v135.5c0 15.3-12.4 27.7-27.7 27.7z" class="K"/><g fill="#e0e0e0"><path d="M387.1 767zm146.8-315l-79.5-37.5-74.4 53-74.3-53.1-79.5 37.6c-36.6 17.3-60 54.1-60 94.6v212.6l206.7 7.2v.5c.3 0 2.9-.1 7-.3l7 .3v-.5l206.7-7.2V546.6c.2-40.5-23.1-77.3-59.7-94.6zM387.2 767h0c-.1 0-.1 0 0 0z"/></g><path fill="#dc7310" d="M533.4 653.4l-7.1 111.2-151.4 7.1-132.5-7.1-4.8-99.3 40.3-45L226.2 452l42.2-18.6 37.9 149.1h153.8L505 435.8l28.9 16.2-33.6 168.3z"/><path fill="#f27f20" d="M488.4 672.4H277.9l2.3 94.6 94.7 4.7 108.8-7.1z"/><g fill="#82756b"><path d="M256.802 575.244l47.427-21.564 8.816 19.389-47.427 21.564zm248.53 16.997l-47.427-21.564 8.816-19.389 47.427 21.564z"/></g><g class="K"><path d="M506.3 168.1l-125 2.5-125-2.5s-9.8 39.2 9.8 129.9c7.4 34.4 25.8 61.4 45.7 81.6 38.1 38.7 101 38.7 139.1 0 19.9-20.3 38.3-47.2 45.7-81.6 19.5-90.7 9.7-129.9 9.7-129.9z"/><ellipse transform="matrix(.9392 -.3434 .3434 .9392 -70.7001 103.5437)" cx="257" cy="251.4" rx="27" ry="35.5"/><ellipse transform="matrix(-.9392 -.3434 .3434 -.9392 885.9716 659.7072)" cx="501.4" cy="251.4" rx="27" ry="35.5"/></g><g fill="#9b5c31"><path d="M242.7 218l24.1 33.4v-85.8l-24.1 14.7zm268.5 0l-24.1 33.4v-85.8l24.1 14.7z"/></g><path fill="#ef7918" d="M402.5 50.4h-45C294.8 50.4 244 101.2 244 164v4.1h272.1V164c0-62.8-50.8-113.6-113.6-113.6z"/><path fill="#dc7310" d="M232.9 153.3h296.7v27H232.9z"/><g fill="#eda71b"><path d="M365.3 40.6h29.4v68.6h-29.4zm106 29.2l-22.2 28.5 14.2 11.1 22.2-28.5c3.1-3.9 2.4-9.6-1.6-12.7h0c-3.8-3.1-9.5-2.4-12.6 1.6zm-181.3 0l22.2 28.5-14.2 11.1-22.2-28.5c-3.1-3.9-2.4-9.6 1.6-12.7h0c3.9-3.1 9.5-2.4 12.6 1.6z"/></g><path fill="#9b5c31" d="M494.8 285.6L438 334.8l-29.4-24.5H379h-29.6L320 334.8l-56.8-49.2c-6.5 42.3 26 125.3 115.8 127.8 89.8-2.5 122.3-85.5 115.8-127.8z"/><path d="M347 319.9h63.7l24 28.7s-16.3 35.1-57.8 35.1c-36.1 0-52.6-33.5-52.6-33.5z" class="K"/><path fill="#fff" d="M348.3 339.2h62.1s3.3 34-29.4 33.8c-23.7-.2-35.4-16.3-32.7-33.8z"/><g class="D"><path d="M84.6 747.7h579.1v105H84.6z"/></g></g></g></g></svg>