<svg xmlns="http://www.w3.org/2000/svg" xmlns:xlink="http://www.w3.org/1999/xlink" width="200" height="200" viewBox="0 0 52.917 52.917" xmlns:v="https://vecta.io/nano"><style><![CDATA[.B{fill:#06becc}.C{fill:#a5cc56}.D{fill:#414042}.E{fill:#4d4d4d}.F{fill:#efefef}]]></style><defs><clipPath id="A"><path d="M210 0h980v980H210z" fill="#575757" fill-opacity=".165" stroke-width="3.347" stroke-linejoin="round"/></clipPath><path id="B" d="M420.8 200.9h-.2l.2-3.1c0-13.4-10.9-24.3-24.3-24.3a24.22 24.22 0 0 0-22.8 15.9c-1.7-.8-3.6-1.3-5.6-1.3a12.76 12.76 0 0 0-12.8 12.8c0 1.1.2 2.2.4 3.2-10.3.8-18.5 9.5-18.5 20 0 11.1 9 20.1 20.1 20.1h63.4c12 0 21.7-9.7 21.7-21.7.1-11.9-9.6-21.6-21.6-21.6z"/><path id="C" d="M672.2 458.9h-25.9a5.34 5.34 0 0 1-5.3-5.3 5.34 5.34 0 0 1 5.3-5.3h25.9a5.34 5.34 0 0 1 5.3 5.3 5.34 5.34 0 0 1-5.3 5.3zm-25.9-6.9a1.54 1.54 0 0 0-1.5 1.5 1.54 1.54 0 0 0 1.5 1.5h25.9a1.54 1.54 0 0 0 1.5-1.5 1.54 1.54 0 0 0-1.5-1.5z"/><path id="D" d="M627.6 455.2c-.5 0-1-.2-1.3-.6-.7-.7-.7-2 0-2.7l6-6c.7-.7 2-.7 2.7 0s.7 2 0 2.7l-6 6c-.4.4-.9.6-1.4.6z"/><path id="E" d="M618.2 441.2c-.7 0-1.4-.4-1.8-1.2-.4-1 0-2.1 1-2.5l7.8-3.3c1-.4 2.1 0 2.5 1s0 2.1-1 2.5l-7.8 3.3c-.2.1-.5.2-.7.2z"/><path id="F" d="M1201.6 118h127.8v4.9h-127.8z"/><path id="G" d="M256.1 360.5h-70.4c-1.1 0-2-.9-2-2s.9-2 2-2h70.4c1.1 0 2 .9 2 2s-.9 2-2 2z"/><path id="H" d="M824.7 455.3c-.4 0-.7-.1-1-.4l-4.8-4.9-4.8 4.7c-.2.2-.4.4-.6.5-.6.2-1.2.1-1.6-.3l-4.7-4.8-4.6 4.5c-.2.2-.4.4-.6.5-.6.2-1.2.1-1.6-.3l-4.6-4.8-4.7 4.6c-.2.2-.4.4-.6.5-.6.2-1.2.1-1.6-.3l-5.7-5.9c-.6-.6-.6-1.5 0-2.1s1.5-.6 2.1 0l4.6 4.8 4.7-4.6c.2-.2.4-.4.6-.5.6-.2 1.2-.1 1.6.3l4.6 4.8 4.3-4.2c.1-.3.2-.5.4-.7.6-.6 1.5-.6 2.1 0l.1.2 4.6 4.7 4.8-4.7c.2-.2.4-.4.6-.5.6-.2 1.2-.1 1.6.3l4.8 4.9 5-4.9c.6-.6 1.5-.6 2.1 0s.6 1.5 0 2.1l-5.9 5.7c-.2.2-.4.4-.6.5-.2.2-.4.3-.6.3z"/><path id="I" d="M1033 694.5h-15.5a1.54 1.54 0 0 1-1.5-1.5 1.54 1.54 0 0 1 1.5-1.5h15.5a1.54 1.54 0 0 1 1.5 1.5 1.47 1.47 0 0 1-1.5 1.5z"/><path id="J" d="M970 699.1c-.3 0-.7-.1-.9-.3l-5.7-4.6c-.4-.3-.6-.7-.6-1.2s.2-.9.6-1.2l5.7-4.5c.6-.5 1.6-.4 2.1.2s.4 1.6-.2 2.1l-4.3 3.4 4.3 3.4c.6.5.7 1.4.2 2.1-.3.4-.7.6-1.2.6z"/><path id="K" d="M409.6 338.3h-14.1c-1.6 0-2.8-1.3-2.8-2.8s1.3-2.8 2.8-2.8h14.1c1.6 0 2.8 1.3 2.8 2.8s-1.2 2.8-2.8 2.8z"/><path id="L" d="M394.1 454.8h-5.9a1.54 1.54 0 0 1-1.5-1.5v-5.9a1.54 1.54 0 0 1 1.5-1.5 1.54 1.54 0 0 1 1.5 1.5v4.5h4.5a1.54 1.54 0 0 1 1.5 1.5c-.1.7-.8 1.4-1.6 1.4z"/><path id="M" d="M1326.2 610a1.54 1.54 0 0 1-1.5-1.5v-5.9a1.54 1.54 0 0 1 1.5-1.5h5.9a1.54 1.54 0 0 1 1.5 1.5 1.54 1.54 0 0 1-1.5 1.5h-4.5v4.5c.1.7-.6 1.4-1.4 1.4z"/><path id="N" d="M1290.1 797.8h-41.4c-1.1 0-2-.9-2-2s.9-2 2-2h41.4c1.1 0 2 .9 2 2 .1 1.1-.9 2-2 2z"/></defs><g transform="matrix(.054 0 0 .054 -11.339287 -.000001)" clip-path="url(#A)"><path fill="#e6faff" d="M0 0h1400v980H0z"/><path d="M443.4 138.3h31.9v29.5h-31.9z" class="C"/><circle cx="519.8" cy="450.8" r="15.3" class="B"/><path d="M516.5 466.4c-1.4 0-2.8-.2-4.2-.5-.8-.2-1.3-1-1.1-1.8s1-1.3 1.8-1.1c1.6.4 3.3.5 5 .3h.3c.8-.1 1.6.5 1.7 1.3s-.5 1.6-1.3 1.7h-.4c-.5 0-1.1.1-1.8.1zm7.7-2.1c-.5 0-1-.3-1.3-.7-.4-.7-.2-1.6.5-2 1.6-.9 2.9-2.1 4-3.5.5-.6 1.4-.8 2.1-.3.6.5.8 1.4.3 2.1-1.3 1.7-3 3.2-4.9 4.2-.2.2-.5.2-.7.2zm-16.8-.9c-.3 0-.6-.1-.9-.3-1.8-1.3-3.2-2.9-4.4-4.8-.4-.7-.2-1.6.5-2s1.6-.2 2 .5c.9 1.5 2.1 2.9 3.6 3.9.7.5.8 1.4.3 2.1-.2.3-.6.6-1.1.6zm23.9-8.2c-.1 0-.3 0-.4-.1-.8-.2-1.2-1-1-1.8.3-1.2.5-2.5.5-3.7 0-.5 0-1.1-.1-1.6 0-.4-.1-.8-.2-1.2-.2-.8.4-1.6 1.2-1.7.8-.2 1.6.4 1.7 1.2.1.5.2.9.2 1.4.1.6.1 1.3.1 1.9a17.4 17.4 0 0 1-.6 4.5c-.2.7-.8 1.1-1.4 1.1zm-29.9-1.7c-.7 0-1.3-.5-1.5-1.3 0-.2-.1-.5-.1-.7-.1-.6-.1-1.3-.1-1.9 0-1.3.1-2.6.4-3.8.2-.8 1-1.3 1.8-1.1s1.3 1 1.1 1.8c-.2 1-.4 2.1-.4 3.1 0 .5 0 1.1.1 1.6 0 .2 0 .4.1.6.1.8-.4 1.6-1.2 1.7h-.2zm27.9-10.9c-.5 0-1-.2-1.2-.7-1-1.5-2.3-2.8-3.7-3.8-.7-.5-.9-1.4-.4-2.1s1.4-.9 2.1-.4c1.8 1.2 3.3 2.8 4.6 4.6.5.7.3 1.6-.4 2.1-.4.2-.7.3-1 .3zm-25.2-.4c-.3 0-.6-.1-.9-.3-.7-.5-.8-1.4-.3-2.1 1.3-1.8 2.8-3.3 4.7-4.5.7-.4 1.6-.2 2 .5s.2 1.6-.5 2c-1.5 1-2.8 2.2-3.9 3.7-.2.5-.7.7-1.1.7zm15.6-6.1h-.3c-1.4-.3-3-.4-4.4-.2-.3 0-.6.1-.9.1-.8.1-1.6-.4-1.7-1.2s.4-1.6 1.2-1.7c.4-.1.7-.1 1.1-.2 1.8-.2 3.6-.1 5.4.3.8.2 1.3 1 1.1 1.8-.2.6-.8 1.1-1.5 1.1z" class="E"/><path d="M498.8 550.8v-3.5c0-.4.2-.8.5-1.1.1-.1 10-8.6 17.7-16.4 7.1-7.3 6.7-12.9 6.7-13v-.1-.1-21.8h-4.2a4.23 4.23 0 0 0-4.2 4.2v11.8 7.2a1.54 1.54 0 0 1-1.5 1.5 1.54 1.54 0 0 1-1.5-1.5v-7.2V499v-40.4a5.34 5.34 0 0 0-5.3-5.3 5.34 5.34 0 0 0-5.3 5.3v18.8 9.9 3.8a1.54 1.54 0 0 1-1.5 1.5 1.54 1.54 0 0 1-1.5-1.5v-3.8-9.9a5.34 5.34 0 0 0-5.3-5.3 5.34 5.34 0 0 0-5.3 5.3v3.3 7.8 2.6a1.54 1.54 0 0 1-1.5 1.5 1.54 1.54 0 0 1-1.5-1.5v-2.6-7.8a5.34 5.34 0 0 0-5.3-5.3 5.34 5.34 0 0 0-5.3 5.3V491a1.54 1.54 0 0 1-1.5 1.5 1.54 1.54 0 0 1-1.5-1.5v-3.9a5.34 5.34 0 0 0-5.3-5.3 5.34 5.34 0 0 0-5.3 5.3v33.2 2.2 6.1c0 .3-.1 7.2 7.7 13.4.4.3.6.7.6 1.2v7.4h29.6z" class="C"/><path fill="#333" d="M894.1 852.3H541.6c-5.9 0-10.7-4.8-10.7-10.7V602.3c0-5.9 4.8-10.7 10.7-10.7h352.5c5.9 0 10.7 4.8 10.7 10.7v239.3c0 5.9-4.8 10.7-10.7 10.7z"/><path d="M544.2 607.5h347.2v194.8H544.2z" class="F"/><g fill="#ccc"><path d="M530.9 817.5v24.1c0 5.9 4.8 10.7 10.7 10.7h352.5c5.9 0 10.7-4.8 10.7-10.7v-24.1z"/><path d="M775.5 891.6h-11.8l-8.3-39.3h-75.2l-8.3 39.3h-11.8c-1.9 0-3.5 1.6-3.5 3.5s1.6 3.5 3.5 3.5h115.4c1.9 0 3.5-1.6 3.5-3.5s-1.5-3.5-3.5-3.5z"/></g><path fill="#b3b3b3" d="M755.4 852.3h-75.2l-2.4 11.6h80.1z"/><path d="M575.2 635.2h191.9v27.6H575.2z" class="C"/><g fill="gray"><path d="M575.2 673.3h132v4.6h-132zm0 12.5h132v4.6h-132zm0 12.6h132v4.6h-132zm0 12.6h132v4.6h-132zm0 12.5h132v4.6h-132zm0 12.6h132v4.6h-132zm0 12.6h132v4.6h-132zm0 12.6h132v4.6h-132z"/></g><path d="M796.3 638.9h63v126.9h-63z" class="B"/><path fill="#d1d1d1" d="M175.6 834.5H96.7c-5.2 0-9.5-4.2-9.5-9.5V659.8c0-5.2 4.2-9.5 9.5-9.5h78.9c5.2 0 9.5 4.2 9.5 9.5V825c-.1 5.3-4.3 9.5-9.5 9.5z"/><path fill="gray" d="M94.3 664.8h83.6v144.4H94.3z"/><g fill="#f2f2f2"><path d="M149.5 659.6H116c-.8 0-1.4-.6-1.4-1.4h0c0-.8.6-1.4 1.4-1.4h33.5c.8 0 1.4.6 1.4 1.4h0c.1.8-.6 1.4-1.4 1.4z"/><circle cx="155.6" cy="658.2" r="1.9"/><circle cx="136.1" cy="821.8" r="7.9"/></g><g class="B"><path d="M282.5 113.2c-1.1 0-2.2-.4-3.1-1.3-8.8-8.8-23.1-8.8-31.9 0-1.7 1.7-4.4 1.7-6.1 0s-1.7-4.4 0-6.1c12.2-12.2 32-12.2 44.1 0 1.7 1.7 1.7 4.4 0 6.1-.8.9-1.9 1.3-3 1.3zm7.1-11.3c-1.1 0-2.2-.4-3.1-1.3-6.2-6.2-14.3-9.6-23.1-9.6-8.7 0-16.9 3.4-23.1 9.6-1.7 1.7-4.4 1.7-6.1 0s-1.7-4.4 0-6.1c7.8-7.8 18.1-12.1 29.2-12.1 11 0 21.4 4.3 29.2 12.1 1.7 1.7 1.7 4.4 0 6.1-.8.9-1.9 1.3-3 1.3zm-58.5-11.1c-1.1 0-2.2-.4-3.1-1.3-1.7-1.7-1.7-4.4 0-6.1 19.5-19.5 51.3-19.5 70.9 0 1.7 1.7 1.7 4.4 0 6.1s-4.4 1.7-6.1 0c-16.2-16.2-42.5-16.2-58.7 0-.8.9-1.9 1.3-3 1.3z"/><circle cx="263.5" cy="120.3" r="9.3"/></g><path d="M227.2 545.6c-20.6 0-37.3 16.7-37.3 37.3 0 10.6 4.5 20.2 11.6 26.9l-4.8 18.1 18.1-9.9c3.9 1.4 8 2.1 12.4 2.1 20.6 0 37.3-16.7 37.3-37.3s-16.7-37.2-37.3-37.2z" class="C"/><g fill="#fff"><path d="M239.2 593.3c-.7 0-1.4-.3-1.9-.8-5.6-5.6-14.6-5.5-20.1 0-1.1 1.1-2.8 1.1-3.9 0s-1.1-2.8 0-3.9c7.7-7.7 20.2-7.7 27.8 0 1.1 1.1 1.1 2.8 0 3.9-.5.6-1.2.8-1.9.8zm4.5-7.1c-.7 0-1.4-.3-1.9-.8a20.26 20.26 0 0 0-14.5-6c-5.5 0-10.7 2.1-14.5 6-1.1 1.1-2.8 1.1-3.9 0s-1.1-2.8 0-3.9c4.9-4.9 11.4-7.6 18.4-7.6 6.9 0 13.5 2.7 18.4 7.6 1.1 1.1 1.1 2.8 0 3.9-.6.6-1.3.8-2 .8zm-36.9-7c-.7 0-1.4-.3-1.9-.8-1.1-1.1-1.1-2.8 0-3.9 12.3-12.3 32.4-12.3 44.7 0 1.1 1.1 1.1 2.8 0 3.9s-2.8 1.1-3.9 0c-10.2-10.2-26.8-10.2-37 0-.5.6-1.2.8-1.9.8z"/><circle cx="227.2" cy="597.8" r="5.9"/></g><path d="M510.9 611.9h-185c-10 0-18.2-8.2-18.2-18.2 0-1.9 1.5-3.5 3.5-3.5s3.5 1.6 3.5 3.5A11.29 11.29 0 0 0 326 605h184.9c1.9 0 3.5 1.6 3.5 3.5-.1 1.8-1.6 3.4-3.5 3.4z" class="E"/><g class="B"><path d="M337.3 509.8c0-14.4-11.7-26-26-26-14.4 0-26 11.7-26 26h0v1.1.6c.4 6.9 3.5 33.7 26 58.2 22.5-24.5 25.6-51.3 26-58.2v-.6-1.1zm-26.1 12.9c-7.2 0-12.9-5.8-12.9-12.9 0-7.2 5.8-12.9 12.9-12.9s12.9 5.8 12.9 12.9c.1 7.1-5.7 12.9-12.9 12.9zm677.9 3.7h-.2l.2-3.1c0-13.4-10.9-24.3-24.3-24.3a24.22 24.22 0 0 0-22.8 15.9c-1.7-.8-3.6-1.3-5.6-1.3a12.76 12.76 0 0 0-12.8 12.8c0 1.1.2 2.2.4 3.2-10.3.8-18.5 9.5-18.5 20 0 11.1 9 20.1 20.1 20.1H989c12 0 21.7-9.7 21.7-21.7.1-11.9-9.6-21.6-21.6-21.6z"/><use xlink:href="#B"/><path d="M1338.6 347.1h-.2l.2-3.1c0-13.4-10.9-24.3-24.3-24.3a24.22 24.22 0 0 0-22.8 15.9c-1.7-.8-3.6-1.3-5.6-1.3a12.76 12.76 0 0 0-12.8 12.8c0 1.1.2 2.2.4 3.2-10.3.8-18.5 9.5-18.5 20 0 11.1 9 20.1 20.1 20.1h63.4c12 0 21.7-9.7 21.7-21.7.1-11.9-9.6-21.6-21.6-21.6z"/></g><g class="C"><path d="M767.1 541.1c-9 0-16.3-7.3-16.3-16.3s7.3-16.3 16.3-16.3 16.3 7.3 16.3 16.3-7.3 16.3-16.3 16.3zm0-24.7c-4.6 0-8.4 3.8-8.4 8.4s3.8 8.4 8.4 8.4 8.4-3.8 8.4-8.4-3.8-8.4-8.4-8.4z"/><path d="M758.7 510.9l-7.1-7.1-5.6 5.6 7.1 7.1c1.4-2.3 3.4-4.3 5.6-5.6zm8.4-2.4a16 16 0 0 1 3.9.5v-10h-7.9v10c1.3-.3 2.6-.5 4-.5zm13.9 7.9l7.1-7.1-5.6-5.6-7.1 7.1c2.3 1.4 4.2 3.4 5.6 5.6zm-5.6 22.3l7.1 7.1 5.6-5.6-7.1-7.1c-1.4 2.3-3.3 4.2-5.6 5.6zm-8.3 2.4a16 16 0 0 1-3.9-.5v10.1h7.9v-10.1c-1.3.3-2.7.5-4 .5zm15.7-20.2c.3 1.3.5 2.6.5 3.9s-.2 2.7-.5 3.9h10.1v-7.9h-10.1zm-29.6 12.3l-7.1 7.1 5.6 5.6 7.1-7.1c-2.3-1.5-4.3-3.4-5.6-5.6zm-2.4-8.4a16 16 0 0 1 .5-3.9h-10.1v7.9h10.1c-.3-1.3-.5-2.6-.5-4zm56.5 26.6c-5.5-1.7-8.6-7.7-6.9-13.2s7.7-8.6 13.2-6.9 8.6 7.7 6.9 13.2c-1.7 5.6-7.6 8.7-13.2 6.9zm4.8-15.2c-2.9-.9-5.9.7-6.8 3.5-.9 2.9.7 5.9 3.5 6.8 2.9.9 5.9-.7 6.8-3.5 1-2.8-.6-5.9-3.5-6.8z"/><path d="M808 531.2l-3-5.8-4.5 2.4 3 5.8c1.3-1.2 2.9-2 4.5-2.4zm5.7.2c.8.3 1.6.6 2.3 1.1l2-6.2-4.9-1.5-2 6.2c.9 0 1.7.1 2.6.4zm7 7.6l5.8-3-2.4-4.5-5.8 3c1.2 1.2 2 2.8 2.4 4.5zm-7.8 12.6l3 5.8 4.5-2.4-3-5.8c-1.2 1.2-2.8 2-4.5 2.4zm-5.6-.2c-.8-.3-1.6-.6-2.3-1.1l-2 6.2 4.9 1.5 2-6.2c-.9.1-1.7-.1-2.6-.4zM821 542c-.1.8-.2 1.7-.5 2.5s-.6 1.6-1.1 2.3l6.2 2 1.5-4.9zm-20.7 1.9l-5.8 3 2.4 4.5 5.8-3c-1.2-1.3-2-2.9-2.4-4.5zm.2-5.7c.3-.8.6-1.6 1.1-2.3l-6.2-2-1.5 4.9 6.2 2c-.1-.9.1-1.7.4-2.6zm193.1-377c-9 0-16.3-7.3-16.3-16.3s7.3-16.3 16.3-16.3 16.3 7.3 16.3 16.3-7.3 16.3-16.3 16.3zm0-24.7c-4.6 0-8.4 3.8-8.4 8.4s3.8 8.4 8.4 8.4 8.4-3.8 8.4-8.4-3.7-8.4-8.4-8.4z"/><path d="M985.3 131l-7.1-7.1-5.6 5.6 7.1 7.1c1.4-2.3 3.3-4.2 5.6-5.6zm8.3-2.3a16 16 0 0 1 3.9.5v-10.1h-7.9v10.1c1.4-.4 2.7-.5 4-.5zm14 7.9l7.1-7.1-5.6-5.6-7.1 7.1c2.3 1.4 4.2 3.3 5.6 5.6zm-5.6 22.2l7.1 7.1 5.6-5.6-7.1-7.1c-1.4 2.4-3.3 4.3-5.6 5.6zm-8.4 2.4a16 16 0 0 1-3.9-.5v10.1h7.9v-10.1c-1.3.3-2.6.5-4 .5zm15.8-20.2c.3 1.3.5 2.6.5 3.9a16 16 0 0 1-.5 3.9h10.1V141zm-29.7 12.3l-7.1 7.1 5.6 5.6 7.1-7.1c-2.3-1.4-4.2-3.3-5.6-5.6zm-2.3-8.4a16 16 0 0 1 .5-3.9h-10.1v7.9h10.1c-.3-1.3-.5-2.6-.5-4z"/></g><g class="B"><path d="M1033.9 171.6c-5.5-1.7-8.6-7.7-6.9-13.2s7.7-8.6 13.2-6.9 8.6 7.7 6.9 13.2c-1.8 5.5-7.7 8.6-13.2 6.9zm4.8-15.3c-2.9-.9-5.9.7-6.8 3.5-.9 2.9.7 5.9 3.5 6.8 2.9.9 5.9-.7 6.8-3.5s-.7-5.9-3.5-6.8z"/><path d="M1034.6 151.3l-3-5.8-4.5 2.4 3 5.8c1.3-1.2 2.8-2 4.5-2.4zm5.6.2c.8.3 1.6.6 2.3 1.1l2-6.2-4.9-1.5-2 6.2c.9 0 1.8.1 2.6.4zm7.1 7.6l5.8-3-2.4-4.5-5.8 3c1.1 1.2 2 2.8 2.4 4.5zm-7.8 12.7l3 5.8 4.5-2.4-3-5.8c-1.3 1.1-2.8 1.9-4.5 2.4zm-5.6-.2c-.8-.3-1.6-.6-2.3-1.1l-2 6.2 4.9 1.5 2-6.2c-.9 0-1.8-.2-2.6-.4zm13.6-9.4c-.1.8-.2 1.7-.5 2.5s-.6 1.6-1.1 2.3l6.2 2 1.5-4.9zm-20.7 1.8l-5.8 3 2.4 4.5 5.8-3c-1.2-1.3-2-2.8-2.4-4.5zm.2-5.6c.3-.8.6-1.6 1.1-2.3l-6.2-2-1.5 4.9 6.2 2c0-.9.1-1.8.4-2.6z"/></g><g class="E"><path d="M311.2 459.9c-1.9 0-3.5-1.5-3.5-3.5v-5.9c0-1.9 1.5-3.5 3.5-3.5s3.5 1.5 3.5 3.5v5.9c0 1.9-1.6 3.5-3.5 3.5zm0-17.1c-1.9 0-3.5-1.5-3.5-3.5v-11.2c0-1.9 1.5-3.5 3.5-3.5s3.5 1.5 3.5 3.5v11.2c0 1.9-1.6 3.5-3.5 3.5zm0-22.5c-1.9 0-3.5-1.5-3.5-3.5v-11.2c0-1.9 1.5-3.5 3.5-3.5s3.5 1.5 3.5 3.5v11.2c0 2-1.6 3.5-3.5 3.5zm0-22.4c-1.9 0-3.5-1.5-3.5-3.5v-11.2c0-1.9 1.5-3.5 3.5-3.5s3.5 1.5 3.5 3.5v11.2c0 2-1.6 3.5-3.5 3.5zm0-22.4c-1.9 0-3.5-1.5-3.5-3.5v-11.2c0-1.9 1.5-3.5 3.5-3.5s3.5 1.5 3.5 3.5V372c0 1.9-1.6 3.5-3.5 3.5zm0-22.4c-1.9 0-3.5-1.5-3.5-3.5v-11.2c0-1.9 1.5-3.5 3.5-3.5s3.5 1.5 3.5 3.5v11.2c0 1.9-1.6 3.5-3.5 3.5zm0-22.4c-1.9 0-3.5-1.5-3.5-3.5V316c0-1.9 1.5-3.5 3.5-3.5s3.5 1.5 3.5 3.5v11.2c0 1.9-1.6 3.5-3.5 3.5zm0-22.5c-1.9 0-3.5-1.5-3.5-3.5v-11.2c0-1.9 1.5-3.5 3.5-3.5s3.5 1.5 3.5 3.5v11.2c0 2-1.6 3.5-3.5 3.5zm0-22.4c-1.9 0-3.5-1.5-3.5-3.5v-5.9c0-1.9 1.5-3.5 3.5-3.5s3.5 1.5 3.5 3.5v5.9c0 2-1.6 3.5-3.5 3.5zm647 337h-1.9c-1.9 0-3.5-1.6-3.5-3.5 0-1.3.8-2.5 1.9-3.1v-6.9c0-1.9 1.6-3.5 3.5-3.5s3.5 1.6 3.5 3.5v10c-.1 1.9-1.6 3.5-3.5 3.5zm-13.8 0h-11.9c-1.9 0-3.5-1.6-3.5-3.5s1.6-3.5 3.5-3.5h11.9c1.9 0 3.5 1.6 3.5 3.5s-1.6 3.5-3.5 3.5zm13.8-21.9c-1.9 0-3.5-1.6-3.5-3.5v-11.9c0-1.9 1.6-3.5 3.5-3.5s3.5 1.6 3.5 3.5v11.9c-.1 2-1.6 3.5-3.5 3.5zm0-113.7c-1.9 0-3.5-1.5-3.5-3.5V304.1c0-1.9 1.6-3.5 3.5-3.5s3.5 1.5 3.5 3.5v179.6c-.1 2-1.6 3.5-3.5 3.5zm31.5-211.8h-63c-1.9 0-3.5-1.5-3.5-3.5v-63c0-1.9 1.6-3.5 3.5-3.5h63c1.9 0 3.5 1.5 3.5 3.5v63c0 1.9-1.6 3.5-3.5 3.5zm-59.6-6.9h56.1v-56.1h-56.1z"/><path d="M989.7 275.4c-.9 0-1.8-.4-2.4-1l-29.1-29.1-29.1 29.1c-1.4 1.4-3.5 1.4-4.9 0s-1.4-3.5 0-4.9l29.1-29.1-29.1-29.1c-1.4-1.4-1.4-3.5 0-4.9s3.5-1.4 4.9 0l29.1 29.1 29.1-29.1c1-1 2.5-1.3 3.8-.7 1.3.5 2.1 1.8 2.1 3.2v63c0 1.4-.8 2.7-2.1 3.2-.5.2-1 .3-1.4.3zm-26.6-35l23.2 23.2v-46.3z"/></g><path d="M523.8 517.1v-23.2a1.54 1.54 0 0 0-1.5-1.5h-5.7c-1.6 0-3 .5-4.2 1.4v-34.6a8.28 8.28 0 1 0-16.6 0v12.4c-1.4-1.2-3.3-1.9-5.3-1.9-3.6 0-6.7 2.4-7.9 5.6-1.5-1.5-3.5-2.3-5.8-2.3a8.28 8.28 0 0 0-8.3 8.3v.1c-1.4-1.2-3.3-1.9-5.3-1.9a8.28 8.28 0 0 0-8.3 8.3v35.5 6.1c0 .3-.2 8.3 8.3 15.3v9.4a1.54 1.54 0 0 0 1.5 1.5 1.54 1.54 0 0 0 1.5-1.5V544c0-.5-.2-.9-.6-1.2-7.9-6.1-7.8-13-7.7-13.4v-6.1-2.2-33.2a5.34 5.34 0 0 1 5.3-5.3 5.34 5.34 0 0 1 5.3 5.3v3.9a1.54 1.54 0 0 0 1.5 1.5 1.54 1.54 0 0 0 1.5-1.5v-10.3a5.34 5.34 0 0 1 5.3-5.3 5.34 5.34 0 0 1 5.3 5.3v7.8 2.6a1.54 1.54 0 0 0 1.5 1.5 1.54 1.54 0 0 0 1.5-1.5v-2.6-7.8-3.3a5.34 5.34 0 0 1 5.3-5.3 5.34 5.34 0 0 1 5.3 5.3v9.9 3.8a1.54 1.54 0 0 0 1.5 1.5 1.54 1.54 0 0 0 1.5-1.5v-3.8-9.9-18.8a5.34 5.34 0 0 1 5.3-5.3 5.34 5.34 0 0 1 5.3 5.3v40.4 11.8 7.2a1.54 1.54 0 0 0 1.5 1.5 1.54 1.54 0 0 0 1.5-1.5v-7.2-11.8a4.23 4.23 0 0 1 4.2-4.2h4.2v21.8.1.1c0 .1.4 5.7-6.7 13-7.7 7.8-17.6 16.3-17.7 16.4-.3.3-.5.7-.5 1.1v7.9a1.54 1.54 0 0 0 1.5 1.5 1.54 1.54 0 0 0 1.5-1.5v-7.3c2.2-1.9 10.6-9.2 17.4-16.1 7.8-8.2 7.6-14.6 7.6-15.5z" class="D"/><path d="M516.5 416.4c-1.9 0-3.5-1.5-3.5-3.5v-62.5c0-27.5 22.3-49.8 49.8-49.8h155c1.9 0 3.5 1.5 3.5 3.5s-1.6 3.5-3.5 3.5h-155c-23.6 0-42.9 19.2-42.9 42.9V413c.1 1.8-1.4 3.4-3.4 3.4z" class="E"/><g class="B"><path d="M824.9 306.4h-63.7c-3.5 0-6.5-2.5-7.1-5.9l-7.1-40.8h-18.2c-2.3 0-4.5-1.6-4.9-3.9-.6-3.1 1.8-5.9 4.8-5.9h20.7c3.4 0 6.3 2.4 6.9 5.8l7.2 40.9H825c3 0 5.4 2.8 4.8 5.9-.5 2.3-2.6 3.9-4.9 3.9z"/><circle cx="773.4" cy="312.9" r="7.6"/><circle cx="810.9" cy="312.9" r="7.6"/><path d="M761.8 259.3l5.3 33.6h55.6l4.5-33.6zm52.8 26.7a.68.68 0 0 1-.7.7h-38.3a.68.68 0 0 1-.7-.7v-1.5a.68.68 0 0 1 .7-.7h38.3a.68.68 0 0 1 .7.7zm0-9.1a.68.68 0 0 1-.7.7h-38.3a.68.68 0 0 1-.7-.7v-1.5a.68.68 0 0 1 .7-.7h38.3a.68.68 0 0 1 .7.7zm0-8.7a.68.68 0 0 1-.7.7h-38.3a.68.68 0 0 1-.7-.7v-1.5a.68.68 0 0 1 .7-.7h38.3a.68.68 0 0 1 .7.7z"/></g><g class="D"><path d="M672.6 452h-26.7c-1 0-1.8-.8-1.9-1.7 0 0-.3-2.2-3.3-6.3l-.5-.7c-3.4-4.8-9.2-12.8-9.2-23.4v-.4-.9c0-15.6 12.7-28.2 28.2-28.2 15.6 0 28.2 12.7 28.2 28.2v.9.4c0 10.6-5.8 18.6-9.2 23.4l-.5.7c-3 4.1-3.3 6.4-3.3 6.4 0 .9-.8 1.6-1.8 1.6zm-25.2-3.8h23.8c.5-1.4 1.5-3.6 3.6-6.5l.5-.7c3.3-4.6 8.3-11.6 8.5-20.7 0-.2-.1-.4-.1-.5v-.5-.7c0-13.5-10.9-24.4-24.4-24.4s-24.4 10.9-24.4 24.4v.7.5c0 .2 0 .4-.1.6.2 9.1 5.2 16.1 8.5 20.7l.5.7c2.1 2.9 3.1 5 3.6 6.4z"/><use xlink:href="#C"/><path d="M672.2 465.7h-25.9a5.34 5.34 0 0 1-5.3-5.3 5.34 5.34 0 0 1 5.3-5.3h25.9a5.34 5.34 0 0 1 5.3 5.3 5.27 5.27 0 0 1-5.3 5.3zm-25.9-6.8a1.54 1.54 0 0 0-1.5 1.5 1.54 1.54 0 0 0 1.5 1.5h25.9a1.54 1.54 0 0 0 1.5-1.5 1.54 1.54 0 0 0-1.5-1.5z"/><path d="M672.2 472.6h-25.9a5.34 5.34 0 0 1-5.3-5.3 5.34 5.34 0 0 1 5.3-5.3h25.9a5.34 5.34 0 0 1 5.3 5.3 5.34 5.34 0 0 1-5.3 5.3zm-25.9-6.9a1.54 1.54 0 0 0-1.5 1.5 1.54 1.54 0 0 0 1.5 1.5h25.9a1.54 1.54 0 0 0 1.5-1.5 1.54 1.54 0 0 0-1.5-1.5z"/></g><g fill="#499dd0"><path d="M673.7 453.6a1.54 1.54 0 0 1-1.5 1.5h-25.9a1.54 1.54 0 0 1-1.5-1.5 1.54 1.54 0 0 1 1.5-1.5h25.9c.8-.1 1.5.6 1.5 1.5zm0 6.8a1.54 1.54 0 0 1-1.5 1.5h-25.9a1.54 1.54 0 0 1-1.5-1.5 1.54 1.54 0 0 1 1.5-1.5h25.9a1.54 1.54 0 0 1 1.5 1.5zm-1.5 8.4h-25.9a1.54 1.54 0 0 1-1.5-1.5 1.54 1.54 0 0 1 1.5-1.5h25.9a1.54 1.54 0 0 1 1.5 1.5 1.54 1.54 0 0 1-1.5 1.5z"/></g><path d="M683.7 420.3c-.2 9.1-5.2 16.1-8.5 20.7l-.5.7c-2.1 2.9-3.1 5.1-3.6 6.5h-23.8c-.5-1.4-1.5-3.6-3.6-6.5l-.5-.7c-3.3-4.6-8.3-11.6-8.5-20.7 0-.2.1-.4.1-.6v-.5-.7c0-13.5 10.9-24.4 24.4-24.4s24.4 10.9 24.4 24.4v.7.5c0 .3 0 .5.1.6z" class="B"/><g class="D"><path d="M651.8 451.2s-.1 0 0 0c-1.1 0-1.9-.9-1.9-2 .2-9.5-5.3-25.1-5.3-25.2-.4-1 .2-2.1 1.2-2.4 1-.4 2.1.2 2.4 1.2.2.7 5.8 16.4 5.6 26.6a2.05 2.05 0 0 1-2 1.8zm15.1 0c-1 0-1.9-.8-1.9-1.9-.2-10.2 5.3-25.9 5.6-26.6.4-1 1.4-1.5 2.4-1.2 1 .4 1.5 1.4 1.2 2.4-.1.2-5.6 15.7-5.3 25.2 0 1.2-.9 2.1-2 2.1h0zm-7.6-63.9c-1.1 0-1.9-.9-1.9-1.9v-8.5c0-1.1.9-1.9 1.9-1.9 1.1 0 1.9.9 1.9 1.9v8.5c0 1.1-.9 1.9-1.9 1.9zM623 423.5h-8.5c-1.1 0-1.9-.9-1.9-1.9 0-1.1.9-1.9 1.9-1.9h8.5c1.1 0 1.9.9 1.9 1.9 0 1.1-.8 1.9-1.9 1.9zm81 0h-8.5c-1.1 0-1.9-.9-1.9-1.9 0-1.1.9-1.9 1.9-1.9h8.5c1.1 0 1.9.9 1.9 1.9 0 1.1-.9 1.9-1.9 1.9z"/><use xlink:href="#D"/><path d="M684.9 397.9c-.5 0-1-.2-1.3-.6-.7-.7-.7-2 0-2.7l6-6c.7-.7 2-.7 2.7 0s.7 2 0 2.7l-6 6c-.4.4-.9.6-1.4.6zm6 57.3c-.5 0-1-.2-1.3-.6l-6-6c-.7-.7-.7-2 0-2.7s2-.7 2.7 0l6 6c.7.7.7 2 0 2.7-.5.4-.9.6-1.4.6zm-57.3-57.3c-.5 0-1-.2-1.3-.6l-6-6c-.7-.7-.7-2 0-2.7s2-.7 2.7 0l6 6c.7.7.7 2 0 2.7-.4.4-.9.6-1.4.6zm66.7 43.3c-.3 0-.5 0-.8-.2l-7.8-3.3c-1-.4-1.4-1.5-1-2.5s1.5-1.4 2.5-1l7.8 3.3c1 .4 1.4 1.5 1 2.5-.2.7-.9 1.2-1.7 1.2zM626 409.3c-.3 0-.5 0-.8-.2l-7.8-3.3c-1-.4-1.4-1.5-1-2.5s1.5-1.4 2.5-1l7.8 3.3c1 .4 1.4 1.5 1 2.5-.3.7-1 1.2-1.7 1.2z"/><use xlink:href="#E"/><path d="M692.6 409.3c-.7 0-1.4-.4-1.8-1.2-.4-1 0-2.1 1-2.5l7.8-3.3c1-.4 2.1 0 2.5 1s0 2.1-1 2.5l-7.8 3.3c-.2.1-.5.2-.7.2zm-19.4-19.2c-.2 0-.5 0-.7-.1-1-.4-1.4-1.5-1-2.5l3.3-7.8c.4-1 1.5-1.4 2.5-1s1.4 1.5 1 2.5L675 389c-.3.7-1 1.1-1.8 1.1zm-27.9 0c-.7 0-1.5-.4-1.8-1.2l-3.3-7.8a1.96 1.96 0 0 1 1-2.5 1.96 1.96 0 0 1 2.5 1l3.3 7.8a1.96 1.96 0 0 1-1 2.5c-.2.2-.5.2-.7.2z"/></g><path d="M1215.7 638.7h-128c-4 0-7.3-3.3-7.3-7.3V450.1c0-4 3.3-7.3 7.3-7.3h128c4 0 7.3 3.3 7.3 7.3v181.3c0 4.1-3.3 7.3-7.3 7.3z" class="C"/><g class="F"><path d="M1091.2 453.4h120.9v159.1h-120.9z"/><circle cx="1151.7" cy="625.4" r="8.4"/></g><g class="B"><path d="M1115 492.8v82.6h84.7v6.7h-91.4v-89.3zm19 49.3l-4.9 1.5-4.7-1.8v30.3h9.6zm6.2 30h9.6v-34.8l-9.6 2.9zm25.4-40.8l-3.2 2.2-6.4 2v36.6h9.6zm6.2 40.8h9.6v-51.9l-9.6 6.8zm-12.7-45.7l-29.7 9-9-3.4-1.8 3.5 10.5 4 33.3-10 26.8-18.9-4.2-2.4z"/><path d="M1181.4 507.2l7.8 7.2 2.6-9.5z"/></g><path d="M1104.2 855.7H1050c-23.6 0-42.7-19.2-42.7-42.7 0-19.8-16.1-35.9-35.9-35.9h-44.7c-1.9 0-3.5-1.6-3.5-3.5s1.6-3.5 3.5-3.5h44.7c23.6 0 42.9 19.2 42.9 42.9 0 19.7 16.1 35.8 35.8 35.8h54.1c25.3 0 45.9-20.6 45.9-45.9V662.8c0-1.9 1.6-3.5 3.5-3.5s3.5 1.6 3.5 3.5v140.1c-.1 29.1-23.8 52.8-52.9 52.8z" class="E"/><g class="B"><path d="M1235.3 451.4c-1.7 0-3-1.3-3-3 0-7.3-6-13.3-13.3-13.3-1.7 0-3-1.3-3-3s1.3-3 3-3c10.7 0 19.3 8.7 19.3 19.3a3.08 3.08 0 0 1-3 3zm12.1 0c-1.7 0-3-1.3-3-3 0-14-11.4-25.4-25.4-25.4-1.7 0-3-1.3-3-3s1.3-3 3-3c17.3 0 31.4 14.1 31.4 31.4a3.01 3.01 0 0 1-3 3z"/></g><path fill="#e6e6e6" d="M1348.6 285.1V84.6L1319 69.2l-5.7-15.4H1182v231.3z"/><path fill="#b3b3b3" d="M1313.3 53.8v30.8h35.3z"/><path d="M1201.6 84.6h90.5v15.1h-90.5z" class="B"/><g fill="gray"><use xlink:href="#F"/><path d="M1201.6 130.6h127.8v4.9h-127.8zm0 12.7h127.8v4.9h-127.8zm0 12.6h127.8v4.9h-127.8zm0 12.6h127.8v4.9h-127.8zm0 12.7h127.8v4.9h-127.8zm0 12.6h127.8v4.9h-127.8zm0 12.7h127.8v4.9h-127.8zm0 12.6h127.8v4.9h-127.8zm0 12.7h127.8v4.9h-127.8zm0 12.6h127.8v4.9h-127.8z"/></g><g class="E"><path d="M438.4 155.7c-1.4 0-2.5-1.1-2.5-2.5v-10.1c0-1.4 1.1-2.5 2.5-2.5h10.1c1.4 0 2.5 1.1 2.5 2.5s-1.1 2.5-2.5 2.5h-7.7v7.6c0 1.3-1.1 2.5-2.4 2.5zm33.2 0c-1.4 0-2.5-1.1-2.5-2.5v-7.7h-7.6c-1.4 0-2.5-1.1-2.5-2.5s1.1-2.5 2.5-2.5h10.1c1.4 0 2.5 1.1 2.5 2.5v10.1c-.1 1.5-1.2 2.6-2.5 2.6zm0 20.2h-10.1c-1.4 0-2.5-1.1-2.5-2.5s1.1-2.5 2.5-2.5h7.7v-7.6c0-1.4 1.1-2.5 2.5-2.5s2.5 1.1 2.5 2.5v10.1c-.2 1.4-1.3 2.5-2.6 2.5zm-23.2.1h-10.1c-1.4 0-2.5-1.1-2.5-2.5v-10.1c0-1.4 1.1-2.5 2.5-2.5s2.5 1.1 2.5 2.5v7.7h7.6c1.4 0 2.5 1.1 2.5 2.5 0 1.3-1.1 2.4-2.5 2.4zM166.9 543.2H68.2c-1.9 0-3.5-1.6-3.5-3.5v-75.5c0-1.9 1.5-3.5 3.5-3.5h98.7c1.9 0 3.5 1.5 3.5 3.5v75.5c0 2-1.6 3.5-3.5 3.5zm-95.3-6.9h91.8v-68.6H71.6z"/><path d="M117.5 511.5c-.8 0-1.6-.3-2.3-.9l-49.4-43.7c-1.4-1.3-1.6-3.5-.3-4.9s3.5-1.6 4.9-.3l47.1 41.7 47.1-41.7c1.4-1.3 3.6-1.1 4.9.3s1.1 3.6-.3 4.9l-49.4 43.7c-.6.6-1.4.9-2.3.9z"/><path d="M68.2 543.2c-.9 0-1.8-.3-2.5-1-1.3-1.4-1.3-3.5 0-4.9l40.1-40c1.4-1.3 3.5-1.3 4.9 0 1.3 1.4 1.3 3.5 0 4.9l-40.1 40c-.6.7-1.5 1-2.4 1zm98.7 0c-.9 0-1.8-.3-2.4-1l-40.1-40c-1.4-1.4-1.4-3.5 0-4.9s3.5-1.4 4.9 0l40.1 40c1.4 1.4 1.4 3.5 0 4.9-.7.7-1.6 1-2.5 1zm924.3-120.9c-1.9 0-3.5-1.5-3.5-3.5V407c0-1.9 1.6-3.5 3.5-3.5s3.5 1.5 3.5 3.5v11.9c0 1.9-1.6 3.4-3.5 3.4zm0-23.7c-1.9 0-3.5-1.5-3.5-3.5v-11.9c0-1.9 1.6-3.5 3.5-3.5s3.5 1.5 3.5 3.5v11.9c0 1.9-1.6 3.5-3.5 3.5zm0-23.8c-1.9 0-3.5-1.5-3.5-3.5v-11.9c0-1.9 1.6-3.5 3.5-3.5s3.5 1.5 3.5 3.5v11.9c0 2-1.6 3.5-3.5 3.5zm0-23.7c-1.9 0-3.5-1.5-3.5-3.5v-11.9c0-1.9 1.6-3.5 3.5-3.5s3.5 1.5 3.5 3.5v11.9c0 2-1.6 3.5-3.5 3.5zm0-23.7c-1.9 0-3.5-1.5-3.5-3.5V312c0-1.9 1.6-3.5 3.5-3.5s3.5 1.5 3.5 3.5v11.9c0 1.9-1.6 3.5-3.5 3.5zm0-23.8c-1.9 0-3.5-1.5-3.5-3.5v-11.9c0-1.9 1.6-3.5 3.5-3.5s3.5 1.5 3.5 3.5v11.9c0 2-1.6 3.5-3.5 3.5zm0-23.7c-1.9 0-3.5-1.5-3.5-3.5v-5.6c0-1.9 1.6-3.5 3.5-3.5h6.3c1.9 0 3.5 1.5 3.5 3.5s-1.6 3.5-3.5 3.5h-2.8v2.1c0 1.9-1.6 3.5-3.5 3.5zm52.1-5.6h-10.2c-1.9 0-3.5-1.5-3.5-3.5s1.6-3.5 3.5-3.5h10.2c1.9 0 3.5 1.5 3.5 3.5s-1.6 3.5-3.5 3.5zm-22.1 0h-11.9c-1.9 0-3.5-1.5-3.5-3.5s1.6-3.5 3.5-3.5h11.9c1.9 0 3.5 1.5 3.5 3.5s-1.6 3.5-3.5 3.5zM119.5 432.5c-1.9 0-3.5-1.5-3.5-3.5V278.6c0-44.1 35.9-80 80-80h107.3c1.9 0 3.5 1.5 3.5 3.5 0 1.9-1.5 3.5-3.5 3.5H196.1c-40.3 0-73 32.8-73 73V429c-.1 1.9-1.6 3.5-3.6 3.5z"/><use xlink:href="#G"/><path d="M256.1 380.1h-70.4c-1.1 0-2-.9-2-2s.9-2 2-2h70.4c1.1 0 2 .9 2 2s-.9 2-2 2zm0 20.5h-70.4c-1.1 0-2-.9-2-2s.9-2 2-2h70.4c1.1 0 2 .9 2 2s-.9 2-2 2zm-89.2-37.3c-.1 0-.1 0 0 0-.5 0-.9-.2-1.2-.6l-4.5-5.7c-.5-.6-.4-1.6.3-2.1.6-.5 1.6-.4 2.1.3l3.4 4.3 10.3-12.2c.5-.6 1.5-.7 2.1-.2s.7 1.5.2 2.1L168 362.8c-.3.3-.7.5-1.1.5zm0 21.4c-.1 0-.1 0 0 0-.5 0-.9-.2-1.2-.6l-4.5-5.7c-.5-.6-.4-1.6.3-2.1.6-.5 1.6-.4 2.1.3l3.4 4.3 10.3-12.2c.5-.6 1.5-.7 2.1-.2s.7 1.5.2 2.1L168 384.2c-.3.3-.7.5-1.1.5zm0 19.5c-.1 0-.1 0 0 0-.5 0-.9-.2-1.2-.6l-4.5-5.7c-.5-.6-.4-1.6.3-2.1.6-.5 1.6-.4 2.1.3l3.4 4.3 10.3-12.2c.5-.6 1.5-.7 2.1-.2s.7 1.5.2 2.1L168 403.7c-.3.3-.7.5-1.1.5zm498.3-181.9h-11.9c-1.9 0-3.5-1.5-3.5-3.5 0-1.9 1.5-3.5 3.5-3.5h11.9c1.9 0 3.5 1.5 3.5 3.5-.1 2-1.6 3.5-3.5 3.5zm-23.8 0h-11.9c-1.9 0-3.5-1.5-3.5-3.5 0-1.9 1.5-3.5 3.5-3.5h11.9c1.9 0 3.5 1.5 3.5 3.5s-1.6 3.5-3.5 3.5zm-23.7 0h-11.9c-1.9 0-3.5-1.5-3.5-3.5 0-1.9 1.5-3.5 3.5-3.5h11.9c1.9 0 3.5 1.5 3.5 3.5s-1.6 3.5-3.5 3.5zm-23.7 0h-11.9c-1.9 0-3.5-1.5-3.5-3.5 0-1.9 1.5-3.5 3.5-3.5H594c1.9 0 3.5 1.5 3.5 3.5-.1 2-1.6 3.5-3.5 3.5zm-23.8 0h-11.9c-1.9 0-3.5-1.5-3.5-3.5 0-1.9 1.5-3.5 3.5-3.5h11.9c1.9 0 3.5 1.5 3.5 3.5s-1.6 3.5-3.5 3.5zm-23.7 0h-11.9c-1.9 0-3.5-1.5-3.5-3.5 0-1.9 1.5-3.5 3.5-3.5h11.9c1.9 0 3.5 1.5 3.5 3.5-.1 2-1.6 3.5-3.5 3.5zm-23.8 0h-11.9c-1.9 0-3.5-1.5-3.5-3.5 0-1.9 1.5-3.5 3.5-3.5h11.9c1.9 0 3.5 1.5 3.5 3.5s-1.5 3.5-3.5 3.5zm148.4-5.9c-1.9 0-3.5-1.5-3.5-3.5V201c0-1.9 1.5-3.5 3.5-3.5 1.9 0 3.5 1.5 3.5 3.5v12c0 1.9-1.6 3.4-3.5 3.4zm0-23.7c-1.9 0-3.5-1.5-3.5-3.5v-11.9c0-1.9 1.5-3.5 3.5-3.5 1.9 0 3.5 1.5 3.5 3.5v11.9c0 1.9-1.6 3.5-3.5 3.5zm0-23.8c-1.9 0-3.5-1.5-3.5-3.5v-11.9c0-1.9 1.5-3.5 3.5-3.5 1.9 0 3.5 1.5 3.5 3.5v11.9c0 2-1.6 3.5-3.5 3.5zm253-19.9h-11.9c-1.9 0-3.5-1.5-3.5-3.5 0-1.9 1.6-3.5 3.5-3.5h11.9c1.9 0 3.5 1.5 3.5 3.5 0 1.9-1.6 3.5-3.5 3.5zm-23.7 0h-11.9c-1.9 0-3.5-1.5-3.5-3.5 0-1.9 1.6-3.5 3.5-3.5h11.9c1.9 0 3.5 1.5 3.5 3.5-.1 1.9-1.6 3.5-3.5 3.5zm-23.7 0h-11.9c-1.9 0-3.5-1.5-3.5-3.5 0-1.9 1.6-3.5 3.5-3.5h11.9c1.9 0 3.5 1.5 3.5 3.5-.1 1.9-1.6 3.5-3.5 3.5zm-23.8 0H841c-1.9 0-3.5-1.5-3.5-3.5 0-1.9 1.6-3.5 3.5-3.5h11.9c1.9 0 3.5 1.5 3.5 3.5 0 1.9-1.6 3.5-3.5 3.5zm-23.7 0h-11.9c-1.9 0-3.5-1.5-3.5-3.5 0-1.9 1.6-3.5 3.5-3.5h11.9c1.9 0 3.5 1.5 3.5 3.5-.1 1.9-1.6 3.5-3.5 3.5zm-23.8 0h-11.9c-1.9 0-3.5-1.5-3.5-3.5 0-1.9 1.6-3.5 3.5-3.5h11.9c1.9 0 3.5 1.5 3.5 3.5 0 1.9-1.5 3.5-3.5 3.5zm-23.7 0h-11.9c-1.9 0-3.5-1.5-3.5-3.5 0-1.9 1.6-3.5 3.5-3.5h11.9c1.9 0 3.5 1.5 3.5 3.5 0 1.9-1.6 3.5-3.5 3.5zm-23.7 0h-11.9c-1.9 0-3.5-1.5-3.5-3.5 0-1.9 1.6-3.5 3.5-3.5H758c1.9 0 3.5 1.5 3.5 3.5-.1 1.9-1.6 3.5-3.5 3.5zm-23.8 0h-11.9c-1.9 0-3.5-1.5-3.5-3.5 0-1.9 1.6-3.5 3.5-3.5h11.9c1.9 0 3.5 1.5 3.5 3.5 0 1.9-1.6 3.5-3.5 3.5zm-23.7 0h-11.9c-1.9 0-3.5-1.5-3.5-3.5 0-1.9 1.6-3.5 3.5-3.5h11.9c1.9 0 3.5 1.5 3.5 3.5 0 1.9-1.6 3.5-3.5 3.5zm-23.7 0h-11.9c-1.9 0-3.5-1.5-3.5-3.5 0-1.9 1.5-3.5 3.5-3.5h11.9c1.9 0 3.5 1.5 3.5 3.5-.1 1.9-1.6 3.5-3.5 3.5z"/></g><circle cx="386.7" cy="802.3" r="16.1" class="B"/><g class="D"><path d="M373.1 803.3h-3.8c-.5 0-1-.4-1-1 0-.5.4-1 1-1h3.8c.5 0 1 .4 1 1-.1.5-.5 1-1 1zm30.9 0h-3.8c-.5 0-1-.4-1-1 0-.5.4-1 1-1h3.8c.5 0 1 .4 1 1 0 .5-.4 1-1 1zm-17.3 17.4c-.5 0-1-.4-1-1v-3.8c0-.5.4-1 1-1 .5 0 1 .4 1 1v3.8c-.1.5-.5 1-1 1zm0-31c-.5 0-1-.4-1-1v-3.8c0-.5.4-1 1-1 .5 0 1 .4 1 1v3.8c-.1.5-.5 1-1 1zm9.4 19.1c-.2 0-.3 0-.5-.1l-9.5-5.5c-.1-.1-.2-.1-.3-.3l-4.8-6.2c-.3-.4-.3-1.1.2-1.4.4-.3 1.1-.3 1.4.2l4.7 6 9.3 5.4c.5.3.6.9.4 1.4-.2.3-.5.5-.9.5z"/></g><circle cx="1108.3" cy="95" r="16.1" class="B"/><g class="D"><path d="M1094.7 96h-3.8c-.5 0-1-.4-1-1a.94.94 0 0 1 1-1h3.8c.5 0 1 .4 1 1s-.5 1-1 1zm30.9 0h-3.8c-.5 0-1-.4-1-1a.94.94 0 0 1 1-1h3.8c.5 0 1 .4 1 1a.94.94 0 0 1-1 1zm-17.3 17.4c-.5 0-1-.4-1-1v-3.8c0-.5.4-1 1-1a.94.94 0 0 1 1 1v3.8a1.08 1.08 0 0 1-1 1zm0-31c-.5 0-1-.4-1-1v-3.8c0-.5.4-1 1-1a.94.94 0 0 1 1 1v3.8c0 .6-.5 1-1 1zm9.4 19.1c-.2 0-.3 0-.5-.1l-9.5-5.5c-.1-.1-.2-.1-.3-.3l-4.8-6.2c-.3-.4-.3-1.1.2-1.4.4-.3 1.1-.3 1.4.2l4.7 6.1 9.3 5.4c.5.3.6.9.4 1.4-.2.2-.5.4-.9.4z"/></g><path d="M103.8 171.8h21.9v21.3h-21.9z" class="C"/><g class="D"><path d="M122.6 200.4h-5.1a1.54 1.54 0 0 1-1.5-1.5 1.54 1.54 0 0 1 1.5-1.5h3.6a1.54 1.54 0 0 1 1.5-1.5 1.54 1.54 0 0 1 1.5 1.5v1.5a1.47 1.47 0 0 1-1.5 1.5zm-10.2 0h-5.1a1.54 1.54 0 0 1-1.5-1.5 1.54 1.54 0 0 1 1.5-1.5h5.1a1.54 1.54 0 0 1 1.5 1.5c.1.8-.6 1.5-1.5 1.5zm-10.1 0h-2.9a1.54 1.54 0 0 1-1.5-1.5v-2.2a1.54 1.54 0 0 1 1.5-1.5 1.54 1.54 0 0 1 1.5 1.5v.6h1.4a1.54 1.54 0 0 1 1.5 1.5c0 .9-.7 1.6-1.5 1.6zm20.3-6.7a1.54 1.54 0 0 1-1.5-1.5v-5.1a1.54 1.54 0 0 1 1.5-1.5 1.54 1.54 0 0 1 1.5 1.5v5.1c0 .9-.6 1.5-1.5 1.5zm-23.3-.6a1.54 1.54 0 0 1-1.5-1.5v-5.1a1.54 1.54 0 0 1 1.5-1.5 1.54 1.54 0 0 1 1.5 1.5v5.1c.1.8-.6 1.5-1.5 1.5zm23.3-9.5a1.54 1.54 0 0 1-1.5-1.5V177a1.54 1.54 0 0 1 1.5-1.5 1.54 1.54 0 0 1 1.5 1.5v5.1a1.47 1.47 0 0 1-1.5 1.5zm-23.3-.6a1.54 1.54 0 0 1-1.5-1.5v-5.1a1.54 1.54 0 0 1 1.5-1.5 1.54 1.54 0 0 1 1.5 1.5v5.1c.1.8-.6 1.5-1.5 1.5zm19.6-5.9h-5.1a1.54 1.54 0 0 1-1.5-1.5 1.54 1.54 0 0 1 1.5-1.5h5.1a1.54 1.54 0 0 1 1.5 1.5 1.47 1.47 0 0 1-1.5 1.5zm-10.2 0h-5.1a1.54 1.54 0 0 1-1.5-1.5 1.54 1.54 0 0 1 1.5-1.5h5.1a1.54 1.54 0 0 1 1.5 1.5c.1.8-.6 1.5-1.5 1.5zM946.3 932c-.4 0-.8-.2-1.1-.4l-6.7-6.9-6.7 6.5c-.2.3-.4.6-.8.7-.6.2-1.2.1-1.6-.3l-6.6-6.7-6.5 6.3a1.85 1.85 0 0 1-.8.7c-.6.2-1.2.1-1.6-.3l-6.5-6.7-6.5 6.3a1.85 1.85 0 0 1-.8.7c-.6.2-1.2.1-1.6-.3l-7.6-7.8c-.6-.6-.6-1.5 0-2.1s1.5-.6 2.1 0l6.5 6.7 6.5-6.3a1.85 1.85 0 0 1 .8-.7c.6-.2 1.2-.1 1.6.3l6.5 6.7 6.2-6c.1-.3.2-.6.4-.8.6-.6 1.5-.6 2.1 0l.2.2.1.1 6.5 6.6 6.7-6.5c.2-.3.4-.6.8-.7.6-.2 1.2-.1 1.6.3l6.7 6.9 7-6.8c.6-.6 1.5-.6 2.1 0s.6 1.5 0 2.1l-7.7 7.5c-.2.3-.4.6-.8.7h-.5z"/></g><g class="E"><path d="M650.2 877.4h-8.9c-1.1 0-2-.9-2-2s.9-2 2-2h8.9c1.1 0 2 .9 2 2s-.9 2-2 2zm-17.8 0h-8.9c-1.1 0-2-.9-2-2s.9-2 2-2h8.9c1.1 0 2 .9 2 2s-.9 2-2 2zm-17.8 0h-8.9c-1.1 0-2-.9-2-2s.9-2 2-2h8.9c1.1 0 2 .9 2 2s-.9 2-2 2zm-17.8 0h-8.9c-1.1 0-2-.9-2-2s.9-2 2-2h8.9c1.1 0 2 .9 2 2s-.9 2-2 2zm-17.8 0h-8.9c-1.1 0-2-.9-2-2s.9-2 2-2h8.9c1.1 0 2 .9 2 2s-.9 2-2 2zm-17.8 0h-8.9c-1.1 0-2-.9-2-2s.9-2 2-2h8.9c1.1 0 2 .9 2 2s-.9 2-2 2zm-17.8-.4h-.3c-3.1-.4-6.1-1.2-9.1-2.3-1-.4-1.5-1.5-1.1-2.6.4-1 1.5-1.5 2.6-1.1 2.6 1 5.4 1.7 8.1 2.1 1.1.1 1.8 1.1 1.7 2.2a1.86 1.86 0 0 1-1.9 1.7zm-16.4-6.4c-.4 0-.8-.1-1.1-.4-2.6-1.8-4.9-3.9-7-6.2-.7-.8-.7-2.1.2-2.8.8-.7 2.1-.6 2.8.2 1.9 2.1 4 4 6.3 5.6.9.6 1.1 1.9.5 2.8-.5.5-1.1.8-1.7.8zm-11.7-13.1c-.7 0-1.4-.4-1.7-1-1.5-2.8-2.6-5.7-3.4-8.7-.3-1.1.4-2.1 1.4-2.4 1.1-.3 2.1.4 2.4 1.4.7 2.7 1.7 5.4 3 7.8.5 1 .1 2.2-.8 2.7-.3.1-.6.2-.9.2zm-4.4-17.1c-1.1 0-2-.9-2-2v-.6-8.3c0-1.1.9-2 2-2s2 .9 2 2v8.9c0 1.1-.9 2-2 2zm0-17.8c-1.1 0-2-.9-2-2v-8.9c0-1.1.9-2 2-2s2 .9 2 2v8.9c0 1.1-.9 2-2 2zm0-17.8c-1.1 0-2-.9-2-2v-8.9c0-1.1.9-2 2-2s2 .9 2 2v8.9c0 1.1-.9 2-2 2zm0-17.8c-1.1 0-2-.9-2-2v-8.9c0-1.1.9-2 2-2s2 .9 2 2v8.9c0 1.1-.9 2-2 2zm0-17.8c-1.1 0-2-.9-2-2v-8.9c0-1.1.9-2 2-2s2 .9 2 2v8.9c0 1.1-.9 2-2 2zm0-17.8c-1.1 0-2-.9-2-2v-8.9c0-1.1.9-2 2-2s2 .9 2 2v8.9c0 1.1-.9 2-2 2zm0-17.8c-1.1 0-2-.9-2-2v-8.9c0-1.1.9-2 2-2s2 .9 2 2v8.9c0 1.1-.9 2-2 2zm0-17.8c-1.1 0-2-.9-2-2v-8.9c0-1.1.9-2 2-2s2 .9 2 2v8.9c0 1.1-.9 2-2 2zm295.5 184.7c-1.1 0-2-.9-2-2v-8.9c0-1.1.9-2 2-2s2 .9 2 2v8.9c0 1.1-.9 2-2 2zm0-17.8c-1.1 0-2-.9-2-2v-5.3c0-1.1.9-2 2-2h3.6c1.1 0 2 .9 2 2s-.9 2-2 2h-1.6v3.4c0 1-.9 1.9-2 1.9zm74.8-5.3h-8.9c-1.1 0-2-.9-2-2s.9-2 2-2h8.9c1.1 0 2 .9 2 2s-.9 2-2 2zm-17.8 0h-8.9c-1.1 0-2-.9-2-2s.9-2 2-2h8.9c1.1 0 2 .9 2 2s-.9 2-2 2zm-17.8 0h-8.9c-1.1 0-2-.9-2-2s.9-2 2-2h8.9c1.1 0 2 .9 2 2s-.9 2-2 2zm-17.8 0h-8.9c-1.1 0-2-.9-2-2s.9-2 2-2h8.9c1.1 0 2 .9 2 2s-.9 2-2 2zm62.3-.2a2.05 2.05 0 0 1-2-1.8c-.1-1.1.7-2 1.8-2.1 2.8-.3 5.6-.8 8.3-1.7 1-.3 2.2.2 2.5 1.3.3 1-.2 2.2-1.3 2.5-3 1-6 1.6-9.1 1.9-.1-.1-.1-.1-.2-.1zm16.8-5.4c-.7 0-1.3-.3-1.7-1-.6-.9-.2-2.2.7-2.7 2.4-1.4 4.7-3.1 6.7-5.1.8-.7 2-.7 2.8.1.7.8.7 2-.1 2.8-2.3 2.1-4.8 4-7.4 5.6a1.69 1.69 0 0 1-1 .3zm12.9-12.1c-.4 0-.8-.1-1.1-.3-.9-.6-1.1-1.8-.5-2.7a33.36 33.36 0 0 0 3.9-7.5c.4-1 1.5-1.5 2.6-1.1 1 .4 1.5 1.5 1.1 2.6-1.1 2.9-2.6 5.7-4.3 8.2-.5.5-1.1.8-1.7.8zm6.4-16.4h-.3c-1.1-.2-1.8-1.2-1.7-2.3.3-1.9.4-3.8.4-5.8v-2.8c0-1.1.9-2 2-2s2 .9 2 2v2.8c0 2.1-.2 4.3-.5 6.4a1.86 1.86 0 0 1-1.9 1.7zm.5-17.8c-1.1 0-2-.9-2-2v-8.9c0-1.1.9-2 2-2s2 .9 2 2v8.9c-.1 1.1-1 2-2 2zm0-17.8c-1.1 0-2-.9-2-2v-3.4c0-1.1.9-2 2-2s2 .9 2 2v3.4c-.1 1.1-1 2-2 2zm276.6-146.9h-8.9c-1.1 0-2-.9-2-2s.9-2 2-2h8.9c1.1 0 2 .9 2 2s-.9 2-2 2zm-17.8 0h-8.9c-1.1 0-2-.9-2-2s.9-2 2-2h8.9c1.1 0 2 .9 2 2s-.9 2-2 2zm26.7-.1a2.05 2.05 0 0 1-2-1.8c-.1-1.1.7-2.1 1.8-2.2 2.8-.3 5.5-.9 8-2 1-.4 2.2 0 2.6 1s0 2.2-1 2.6c-2.9 1.2-6 2-9.2 2.3-.1.1-.2.1-.2.1zm16.1-6.8c-.6 0-1.1-.2-1.5-.7-.7-.8-.6-2.1.2-2.8 2.1-1.8 3.9-3.9 5.4-6.3.6-.9 1.8-1.2 2.7-.6s1.2 1.8.6 2.7c-1.7 2.7-3.8 5.1-6.2 7.2-.3.3-.7.5-1.2.5zm9.3-14.9c-.2 0-.3 0-.5-.1-1.1-.3-1.7-1.3-1.4-2.4.5-2.2.8-4.4.8-6.7v-1.7c0-1.1.9-2 2-2s2 .9 2 2v1.7c0 2.6-.3 5.1-.9 7.6-.3 1-1.1 1.6-2 1.6zm.9-17.7c-1.1 0-2-.9-2-2v-8.9c0-1.1.9-2 2-2s2 .9 2 2v8.9c-.1 1.1-.9 2-2 2zm0-17.8c-1.1 0-2-.9-2-2v-8.9c0-1.1.9-2 2-2s2 .9 2 2v8.9c-.1 1.1-.9 2-2 2zm0-17.8c-1.1 0-2-.9-2-2v-8.9c0-1.1.9-2 2-2s2 .9 2 2v8.9c-.1 1.1-.9 2-2 2zm0-17.8c-1.1 0-2-.9-2-2V557c0-1.1.9-2 2-2s2 .9 2 2v8.9c-.1 1.1-.9 2-2 2zm0-17.8c-1.1 0-2-.9-2-2v-8.9c0-1.1.9-2 2-2s2 .9 2 2v8.9c-.1 1.1-.9 2-2 2zm0-17.8c-1.1 0-2-.9-2-2v-8.9c0-1.1.9-2 2-2s2 .9 2 2v8.9c-.1 1.1-.9 2-2 2zm0-17.8c-1.1 0-2-.9-2-2v-8.7c0-1.1.9-2 2-2s2 .9 2 2v8.7c-.1 1.1-.9 2-2 2z"/></g><g class="D"><path d="M790 443.3c-.4 0-.7-.1-1-.4l-4.8-4.9-4.8 4.7c-.2.2-.4.4-.6.5-.6.2-1.2.1-1.6-.3l-4.7-4.8-4.6 4.5c-.2.2-.4.4-.6.5-.6.2-1.2.1-1.6-.3l-4.6-4.8-4.7 4.6c-.2.2-.4.4-.6.5-.6.2-1.2.1-1.6-.3l-5.7-5.9c-.6-.6-.6-1.5 0-2.1s1.5-.6 2.1 0l4.6 4.8 4.7-4.6c.2-.2.4-.4.6-.5.6-.2 1.2-.1 1.6.3l4.6 4.8 4.3-4.2c.1-.3.2-.5.4-.7.6-.6 1.5-.6 2.1 0l.1.2 4.6 4.7 4.8-4.7c.2-.2.4-.4.6-.5.6-.2 1.2-.1 1.6.3l4.8 4.9 5-4.9c.6-.6 1.5-.6 2.1 0s.6 1.5 0 2.1l-5.9 5.7c-.2.2-.4.4-.6.5-.2.3-.4.3-.6.3z"/><use xlink:href="#H"/><path d="M883.5 455.3c-.4 0-.7-.1-1-.4l-4.8-4.9-4.8 4.7c-.2.2-.4.4-.6.5-.6.2-1.2.1-1.6-.3l-4.7-4.8-4.6 4.5c-.2.2-.4.4-.6.5-.6.2-1.2.1-1.6-.3l-4.6-4.8-4.7 4.6c-.2.2-.4.4-.6.5-.6.2-1.2.1-1.6-.3l-5.7-5.9c-.6-.6-.6-1.5 0-2.1s1.5-.6 2.1 0l4.6 4.8 4.7-4.6c.2-.2.4-.4.6-.5.6-.2 1.2-.1 1.6.3l4.6 4.8 4.3-4.2c.1-.3.2-.5.4-.7.6-.6 1.5-.6 2.1 0l.1.2 4.6 4.7 4.8-4.7c.2-.2.4-.4.6-.5.6-.2 1.2-.1 1.6.3l4.8 4.9 5-4.9c.6-.6 1.5-.6 2.1 0s.6 1.5 0 2.1l-5.9 5.7c-.2.2-.4.4-.6.5-.2.2-.4.3-.6.3zM151.9 95.8c-7.4 0-13.4-6-13.4-13.4a10.5 10.5 0 1 0-21 0c0 7.4-6 13.4-13.4 13.4s-13.4-6-13.4-13.4a10.5 10.5 0 1 0-21 0 1.54 1.54 0 0 1-1.5 1.5 1.54 1.54 0 0 1-1.5-1.5c0-7.4 6-13.4 13.4-13.4s13.4 6 13.4 13.4a10.5 10.5 0 1 0 21 0c0-7.4 6-13.4 13.4-13.4s13.4 6 13.4 13.4a10.5 10.5 0 1 0 21 0 1.54 1.54 0 0 1 1.5-1.5 1.54 1.54 0 0 1 1.5 1.5c0 7.4-6 13.4-13.4 13.4zm1035.6 830.8c-7.4 0-13.4-6-13.4-13.4a10.5 10.5 0 1 0-21 0c0 7.4-6 13.4-13.4 13.4s-13.4-6-13.4-13.4a10.5 10.5 0 1 0-21 0 1.54 1.54 0 0 1-1.5 1.5 1.54 1.54 0 0 1-1.5-1.5c0-7.4 6-13.4 13.4-13.4s13.4 6 13.4 13.4a10.5 10.5 0 1 0 21 0c0-7.4 6-13.4 13.4-13.4s13.4 6 13.4 13.4a10.5 10.5 0 1 0 21 0 1.54 1.54 0 0 1 1.5-1.5 1.54 1.54 0 0 1 1.5 1.5c0 7.3-6 13.4-13.4 13.4zM340.3 169.9h-15.5c-.5 0-1-.4-1-1 0-.5.4-1 1-1h15.5c.5 0 1 .4 1 1a.94.94 0 0 1-1 1z"/><path d="M332.6 177.7c-.5 0-1-.4-1-1v-15.5c0-.5.4-1 1-1a.94.94 0 0 1 1 1v15.5a1.08 1.08 0 0 1-1 1zm136.6 551.4h-15.5c-.5 0-1-.4-1-1 0-.5.4-1 1-1h15.5c.5 0 1 .4 1 1a.94.94 0 0 1-1 1z"/><path d="M461.5 736.8c-.5 0-1-.4-1-1v-15.5c0-.5.4-1 1-1a.94.94 0 0 1 1 1v15.5c0 .6-.5 1-1 1zm387.6-496.2h-15.5c-.5 0-1-.4-1-1 0-.5.4-1 1-1h15.5c.5 0 1 .4 1 1-.1.6-.5 1-1 1z"/><path d="M841.4 248.3c-.5 0-1-.4-1-1v-15.5c0-.5.4-1 1-1a.94.94 0 0 1 1 1v15.5c-.1.6-.5 1-1 1zm446 264.1h-15.5c-.5 0-1-.4-1-1 0-.5.4-1 1-1h15.5c.5 0 1 .4 1 1-.1.6-.5 1-1 1z"/><path d="M1279.7 520.2c-.5 0-1-.4-1-1v-15.5c0-.5.4-1 1-1a.94.94 0 0 1 1 1v15.5c-.1.5-.5 1-1 1zm-218.2 270.9H1046c-.5 0-1-.4-1-1 0-.5.4-1 1-1h15.5c.5 0 1 .4 1 1-.1.6-.5 1-1 1z"/><path d="M1053.8 798.8c-.5 0-1-.4-1-1v-15.5c0-.5.4-1 1-1a.94.94 0 0 1 1 1v15.5c-.1.6-.5 1-1 1zM601.3 90.7h-.2a1.54 1.54 0 0 1-1.5-1.5 1.54 1.54 0 0 1 1.5-1.5h.2a1.54 1.54 0 0 1 1.5 1.5 1.47 1.47 0 0 1-1.5 1.5zm-8.1 0h-7.9a1.54 1.54 0 0 1-1.5-1.5 1.54 1.54 0 0 1 1.5-1.5h7.9a1.54 1.54 0 0 1 1.5 1.5 1.54 1.54 0 0 1-1.5 1.5zm-15.8 0h-7.9a1.54 1.54 0 0 1-1.5-1.5 1.54 1.54 0 0 1 1.5-1.5h7.9a1.54 1.54 0 0 1 1.5 1.5 1.54 1.54 0 0 1-1.5 1.5zm-15.9 0h-7.9a1.54 1.54 0 0 1-1.5-1.5 1.54 1.54 0 0 1 1.5-1.5h7.9a1.54 1.54 0 0 1 1.5 1.5 1.47 1.47 0 0 1-1.5 1.5zm-15.8 0h-7.9a1.54 1.54 0 0 1-1.5-1.5 1.54 1.54 0 0 1 1.5-1.5h7.9a1.54 1.54 0 0 1 1.5 1.5 1.54 1.54 0 0 1-1.5 1.5zm-15.8 0H522a1.54 1.54 0 0 1-1.5-1.5 1.54 1.54 0 0 1 1.5-1.5h7.9a1.54 1.54 0 0 1 1.5 1.5 1.54 1.54 0 0 1-1.5 1.5zm-15.8 0h-7.9a1.54 1.54 0 0 1-1.5-1.5 1.54 1.54 0 0 1 1.5-1.5h7.9a1.54 1.54 0 0 1 1.5 1.5 1.54 1.54 0 0 1-1.5 1.5zm-15.9 0h-7.9a1.54 1.54 0 0 1-1.5-1.5 1.54 1.54 0 0 1 1.5-1.5h7.9a1.54 1.54 0 0 1 1.5 1.5 1.47 1.47 0 0 1-1.5 1.5zm-15.8 0h-7.9a1.54 1.54 0 0 1-1.5-1.5 1.54 1.54 0 0 1 1.5-1.5h7.9a1.54 1.54 0 0 1 1.5 1.5 1.54 1.54 0 0 1-1.5 1.5zm314.6 0h-7.6a1.54 1.54 0 0 1-1.5-1.5 1.54 1.54 0 0 1 1.5-1.5h7.6a1.54 1.54 0 0 1 1.5 1.5 1.54 1.54 0 0 1-1.5 1.5zm-25.4 0h-17.8a1.54 1.54 0 0 1-1.5-1.5 1.54 1.54 0 0 1 1.5-1.5h17.8a1.54 1.54 0 0 1 1.5 1.5 1.54 1.54 0 0 1-1.5 1.5zm-35.6 0h-17.8a1.54 1.54 0 0 1-1.5-1.5 1.54 1.54 0 0 1 1.5-1.5H736a1.54 1.54 0 0 1 1.5 1.5 1.54 1.54 0 0 1-1.5 1.5zm-35.6 0h-17.8a1.54 1.54 0 0 1-1.5-1.5 1.54 1.54 0 0 1 1.5-1.5h17.8a1.54 1.54 0 0 1 1.5 1.5c-.1.8-.7 1.5-1.5 1.5zm-35.6 0H647a1.54 1.54 0 0 1-1.5-1.5 1.54 1.54 0 0 1 1.5-1.5h17.8a1.54 1.54 0 0 1 1.5 1.5c-.1.8-.7 1.5-1.5 1.5zm-35.6 0h-17.8a1.54 1.54 0 0 1-1.5-1.5 1.54 1.54 0 0 1 1.5-1.5h17.8a1.54 1.54 0 0 1 1.5 1.5c-.1.8-.7 1.5-1.5 1.5zm378.4 603.8h-31.1a1.54 1.54 0 0 1-1.5-1.5 1.54 1.54 0 0 1 1.5-1.5h31.1a1.54 1.54 0 0 1 1.5 1.5 1.47 1.47 0 0 1-1.5 1.5z"/><use xlink:href="#I"/><path d="M1057.9 694.5h-15.5a1.54 1.54 0 0 1-1.5-1.5 1.54 1.54 0 0 1 1.5-1.5h15.5a1.54 1.54 0 0 1 1.5 1.5 1.47 1.47 0 0 1-1.5 1.5z"/><use xlink:href="#J"/><path d="M970 713.2h-11.7a1.54 1.54 0 0 1-1.5-1.5 1.54 1.54 0 0 1 1.5-1.5H970a1.54 1.54 0 0 1 1.5 1.5 1.47 1.47 0 0 1-1.5 1.5zm44.8 0h-36.2a1.54 1.54 0 0 1-1.5-1.5 1.54 1.54 0 0 1 1.5-1.5h36.2a1.54 1.54 0 0 1 1.5 1.5 1.54 1.54 0 0 1-1.5 1.5zm22.6 0h-12.1a1.54 1.54 0 0 1-1.5-1.5 1.54 1.54 0 0 1 1.5-1.5h12.1a1.54 1.54 0 0 1 1.5 1.5 1.54 1.54 0 0 1-1.5 1.5zm-85.6 4.6c-.3 0-.7-.1-.9-.3l-5.7-4.6c-.4-.3-.6-.7-.6-1.2s.2-.9.6-1.2l5.7-4.5c.6-.5 1.6-.4 2.1.2s.4 1.6-.2 2.1l-4.3 3.4 4.3 3.4c.6.5.7 1.4.2 2.1-.3.4-.7.6-1.2.6zM75.2 615.3H61.1c-1.6 0-2.8-1.3-2.8-2.8 0-1.6 1.3-2.8 2.8-2.8h14.1c1.6 0 2.8 1.3 2.8 2.8.1 1.5-1.2 2.8-2.8 2.8zm514.5-68.6h-14.1c-1.6 0-2.8-1.3-2.8-2.8 0-1.6 1.3-2.8 2.8-2.8h14.1c1.6 0 2.8 1.3 2.8 2.8s-1.3 2.8-2.8 2.8z"/><use xlink:href="#K"/><path d="M1030.8 341.1h-14.1c-1.6 0-2.8-1.3-2.8-2.8s1.3-2.8 2.8-2.8h14.1c1.6 0 2.8 1.3 2.8 2.8s-1.2 2.8-2.8 2.8zM417 454.8h-5.9a1.54 1.54 0 0 1-1.5-1.5 1.54 1.54 0 0 1 1.5-1.5h4.5v-4.5a1.54 1.54 0 0 1 1.5-1.5 1.54 1.54 0 0 1 1.5 1.5v5.9c-.1.9-.7 1.6-1.6 1.6z"/><use xlink:href="#L"/><path d="M388.1 431.8a1.54 1.54 0 0 1-1.5-1.5v-5.9a1.54 1.54 0 0 1 1.5-1.5h5.9a1.54 1.54 0 0 1 1.5 1.5 1.54 1.54 0 0 1-1.5 1.5h-4.5v4.5c.1.8-.5 1.4-1.4 1.4zm28.9 0a1.54 1.54 0 0 1-1.5-1.5v-4.5H411a1.54 1.54 0 0 1-1.5-1.5 1.54 1.54 0 0 1 1.5-1.5h5.9a1.54 1.54 0 0 1 1.5 1.5v5.9c.1 1-.5 1.6-1.4 1.6zM1355.1 633h-5.9a1.54 1.54 0 0 1-1.5-1.5 1.54 1.54 0 0 1 1.5-1.5h4.5v-4.5a1.54 1.54 0 0 1 1.5-1.5 1.54 1.54 0 0 1 1.5 1.5v5.9c-.1.9-.8 1.6-1.6 1.6zm-23 0h-5.9a1.54 1.54 0 0 1-1.5-1.5v-5.9a1.54 1.54 0 0 1 1.5-1.5 1.54 1.54 0 0 1 1.5 1.5v4.5h4.5a1.54 1.54 0 0 1 1.5 1.5c-.1.7-.8 1.4-1.6 1.4z"/><use xlink:href="#M"/><path d="M1355.1 610a1.54 1.54 0 0 1-1.5-1.5V604h-4.5a1.54 1.54 0 0 1-1.5-1.5 1.54 1.54 0 0 1 1.5-1.5h5.9a1.54 1.54 0 0 1 1.5 1.5v5.9c.1.9-.6 1.6-1.4 1.6zM881 103.6h-5.9a1.54 1.54 0 0 1-1.5-1.5 1.54 1.54 0 0 1 1.5-1.5h4.5v-4.5a1.54 1.54 0 0 1 1.5-1.5 1.54 1.54 0 0 1 1.5 1.5v5.9c-.1 1-.8 1.6-1.6 1.6zm-23 0h-5.9a1.54 1.54 0 0 1-1.5-1.5v-5.9a1.54 1.54 0 0 1 1.5-1.5 1.54 1.54 0 0 1 1.5 1.5v4.5h4.5a1.54 1.54 0 0 1 1.5 1.5c-.1.8-.7 1.4-1.6 1.4zm-5.9-22.9a1.54 1.54 0 0 1-1.5-1.5v-5.9a1.54 1.54 0 0 1 1.5-1.5h5.9a1.54 1.54 0 0 1 1.5 1.5 1.54 1.54 0 0 1-1.5 1.5h-4.5v4.5c.1.7-.6 1.4-1.4 1.4zm28.9 0a1.54 1.54 0 0 1-1.5-1.5v-4.5H875a1.54 1.54 0 0 1-1.5-1.5 1.54 1.54 0 0 1 1.5-1.5h5.9a1.54 1.54 0 0 1 1.5 1.5v5.9c.1.9-.6 1.6-1.4 1.6z"/><use xlink:href="#N"/><path d="M1290.1 806.3h-41.4c-1.1 0-2-.9-2-2s.9-2 2-2h41.4c1.1 0 2 .9 2 2 .1 1.1-.9 2-2 2zm-59.6-2.6c-.5 0-.9-.2-1.3-.5l-5-4.2c-.9-.7-1-2-.2-2.9.7-.9 2-1 2.9-.2l3.4 2.9 5.9-7c.7-.9 2-1 2.9-.2.9.7 1 2 .2 2.9l-7.3 8.5c-.4.4-.9.7-1.5.7zm59.6 14.5h-41.4c-1.1 0-2-.9-2-2s.9-2 2-2h41.4c1.1 0 2 .9 2 2 .1 1-.9 2-2 2zm0 8.4h-41.4c-1.1 0-2-.9-2-2s.9-2 2-2h41.4c1.1 0 2 .9 2 2 .1 1.1-.9 2-2 2zm-59.6-2.6c-.5 0-.9-.2-1.3-.5l-5-4.2c-.9-.7-1-2-.2-2.9.7-.9 2-1 2.9-.2l3.4 2.9 5.9-7c.7-.9 2-1 2.9-.2.9.7 1 2 .2 2.9l-7.3 8.5c-.4.5-.9.7-1.5.7z"/></g><g class="F"><path d="M1308.5 373.2c-6.9 0-12.5-5.6-12.5-12.5s5.6-12.5 12.5-12.5 12.5 5.6 12.5 12.5-5.6 12.5-12.5 12.5zm0-18.9a6.49 6.49 0 1 0 0 13 6.49 6.49 0 1 0 0-13z"/><path d="M1302.1 350l-5.5-5.5-4.3 4.3 5.5 5.5c1.1-1.7 2.5-3.2 4.3-4.3zm6.4-1.8c1 0 2.1.1 3 .4v-7.8h-6.1v7.8c1-.2 2.1-.4 3.1-.4zm10.7 6.1l5.5-5.5-4.3-4.3-5.5 5.5c1.8 1.1 3.3 2.6 4.3 4.3zm-4.3 17.1l5.5 5.5 4.3-4.3-5.5-5.5a11.11 11.11 0 0 1-4.3 4.3zm-6.4 1.8c-1 0-2.1-.1-3-.4v7.8h6.1v-7.8c-1 .3-2 .4-3.1.4zm12.1-15.5c.2 1 .4 2 .4 3s-.1 2.1-.4 3h7.8v-6.1h-7.8zm-22.8 9.5l-5.5 5.5 4.3 4.3 5.5-5.5c-1.8-1.1-3.2-2.6-4.3-4.3zm-1.8-6.5c0-1 .1-2.1.4-3h-7.8v6.1h7.8c-.3-1-.4-2-.4-3.1z"/></g><g class="C"><path d="M1293 743.8c-8.1 0-14.7-6.6-14.7-14.7s6.6-14.7 14.7-14.7 14.7 6.6 14.7 14.7-6.6 14.7-14.7 14.7zm0-22.3a7.6 7.6 0 1 0 0 15.2 7.6 7.6 0 0 0 7.6-7.6c-.1-4.2-3.5-7.6-7.6-7.6z"/><path d="M1285.4 716.5l-6.4-6.4-5 5 6.4 6.4c1.2-2 2.9-3.7 5-5zm7.6-2.1c1.2 0 2.4.2 3.6.5v-9.1h-7.1v9.1c1-.3 2.2-.5 3.5-.5zm12.5 7.2l6.4-6.4-5-5-6.4 6.4a13.33 13.33 0 0 1 5 5zm-5 20.1l6.4 6.4 5-5-6.4-6.4c-1.2 2-2.9 3.8-5 5zm-7.5 2.1c-1.2 0-2.4-.2-3.6-.5v9.1h7.1v-9.1c-1.1.3-2.3.5-3.5.5zm14.2-18.2a13.61 13.61 0 0 1 .5 3.6c0 1.2-.2 2.4-.5 3.6h9.1v-7.1h-9.1zm-26.8 11.1l-6.4 6.4 5 5 6.4-6.4c-2.1-1.2-3.8-3-5-5zm-2.1-7.6c0-1.2.2-2.4.5-3.6h-9.1v7.1h9.1c-.4-1.1-.5-2.3-.5-3.5z"/></g><path d="M290.6 903.2h-.2a1.54 1.54 0 0 1-1.5-1.5 1.54 1.54 0 0 1 1.5-1.5h.2a1.54 1.54 0 0 1 1.5 1.5 1.54 1.54 0 0 1-1.5 1.5zm-8.1 0h-7.9a1.54 1.54 0 0 1-1.5-1.5 1.54 1.54 0 0 1 1.5-1.5h7.9a1.54 1.54 0 0 1 1.5 1.5 1.54 1.54 0 0 1-1.5 1.5zm-15.8 0h-7.9a1.54 1.54 0 0 1-1.5-1.5 1.54 1.54 0 0 1 1.5-1.5h7.9a1.54 1.54 0 0 1 1.5 1.5 1.54 1.54 0 0 1-1.5 1.5zm-15.9 0h-7.9a1.54 1.54 0 0 1-1.5-1.5 1.54 1.54 0 0 1 1.5-1.5h7.9a1.54 1.54 0 0 1 1.5 1.5 1.54 1.54 0 0 1-1.5 1.5zm-15.8 0h-7.9a1.54 1.54 0 0 1-1.5-1.5 1.54 1.54 0 0 1 1.5-1.5h7.9a1.54 1.54 0 0 1 1.5 1.5 1.54 1.54 0 0 1-1.5 1.5zm-15.8 0h-7.9a1.54 1.54 0 0 1-1.5-1.5 1.54 1.54 0 0 1 1.5-1.5h7.9a1.54 1.54 0 0 1 1.5 1.5 1.54 1.54 0 0 1-1.5 1.5zm-15.8 0h-7.9a1.54 1.54 0 0 1-1.5-1.5 1.54 1.54 0 0 1 1.5-1.5h7.9a1.54 1.54 0 0 1 1.5 1.5 1.54 1.54 0 0 1-1.5 1.5zm-15.9 0h-7.9a1.54 1.54 0 0 1-1.5-1.5 1.54 1.54 0 0 1 1.5-1.5h7.9a1.54 1.54 0 0 1 1.5 1.5 1.54 1.54 0 0 1-1.5 1.5zm-15.8 0h-7.9a1.54 1.54 0 0 1-1.5-1.5 1.54 1.54 0 0 1 1.5-1.5h7.9a1.54 1.54 0 0 1 1.5 1.5 1.54 1.54 0 0 1-1.5 1.5z" class="D"/><circle cx="336.3" cy="901" r="12.1" class="C"/><g class="D"><path d="M331 913.5h-.2c-1.9-.3-3.7-.9-5.4-1.9-.7-.4-.9-1.4-.5-2.1s1.4-.9 2.1-.5c1.3.8 2.7 1.3 4.1 1.5.8.1 1.4.9 1.3 1.7 0 .8-.7 1.3-1.4 1.3zm5-.4c-.7 0-1.3-.4-1.5-1.1-.2-.8.2-1.7 1-1.9 1.4-.4 2.7-1.2 3.8-2.1.6-.6 1.6-.5 2.2.1s.5 1.6-.1 2.2c-1.5 1.3-3.1 2.2-5 2.8h-.4zm-13.4-4.8c-.5 0-1-.2-1.3-.7-1.1-1.6-1.8-3.4-2.1-5.3-.1-.8.4-1.6 1.3-1.7.8-.1 1.6.4 1.7 1.3.2 1.5.8 2.8 1.6 4.1.5.7.3 1.6-.4 2.1-.2.1-.5.2-.8.2zm20.8-1.7c-.2 0-.4 0-.6-.1-.8-.3-1.1-1.3-.8-2 .6-1.4.9-2.8.9-4.3 0-1.1-.2-2.2-.5-3.3-.3-.8.2-1.7 1-1.9.8-.3 1.7.2 1.9 1 .5 1.4.7 2.8.7 4.3 0 1.9-.4 3.8-1.2 5.6-.2.4-.8.7-1.4.7zm-22.4-8c-.1 0-.3 0-.4-.1-.8-.2-1.3-1.1-1.1-1.9.5-1.9 1.4-3.6 2.6-5.1.5-.6 1.5-.7 2.1-.2s.7 1.5.2 2.1c-1 1.2-1.6 2.5-2 3.9-.1.8-.7 1.3-1.4 1.3zm20.3-5c-.4 0-.8-.2-1.1-.5-1-1.1-2.3-2-3.6-2.5-.8-.3-1.1-1.2-.8-2s1.2-1.1 2-.8c1.8.7 3.4 1.9 4.7 3.3.6.6.5 1.6-.1 2.2-.4.1-.7.3-1.1.3zm-14-2.6c-.6 0-1.1-.3-1.4-.9-.4-.8-.1-1.7.7-2 1.7-.8 3.6-1.3 5.5-1.4a1.54 1.54 0 0 1 1.5 1.5c0 .8-.6 1.5-1.5 1.6-1.5 0-2.9.4-4.3 1.1-.1 0-.3.1-.5.1zm973.1 22.5h-.2c-1.9-.3-3.7-.9-5.4-1.9-.7-.4-.9-1.4-.5-2.1s1.4-.9 2.1-.5c1.3.8 2.7 1.3 4.1 1.5.8.1 1.4.9 1.3 1.7 0 .8-.6 1.3-1.4 1.3zm5.1-.4c-.7 0-1.3-.4-1.5-1.1-.2-.8.2-1.7 1-1.9 1.4-.4 2.7-1.2 3.8-2.1.6-.6 1.6-.5 2.2.1s.5 1.6-.1 2.2c-1.5 1.3-3.1 2.2-5 2.8h-.4zm-13.4-4.8c-.5 0-1-.2-1.3-.7-1.1-1.6-1.8-3.4-2.1-5.3-.1-.8.4-1.6 1.3-1.7.8-.1 1.6.4 1.7 1.3.2 1.5.8 2.8 1.6 4.1.5.7.3 1.6-.4 2.1-.3.1-.6.2-.8.2zm20.8-1.7c-.2 0-.4 0-.6-.1-.8-.3-1.1-1.3-.8-2 .6-1.4.9-2.8.9-4.3 0-1.1-.2-2.2-.5-3.3-.3-.8.2-1.7 1-1.9.8-.3 1.7.2 1.9 1 .5 1.4.7 2.8.7 4.3 0 1.9-.4 3.8-1.2 5.6a1.75 1.75 0 0 1-1.4.7zm-22.4-8c-.1 0-.3 0-.4-.1-.8-.2-1.3-1.1-1.1-1.9.5-1.9 1.4-3.6 2.6-5.1.5-.6 1.5-.7 2.1-.2s.7 1.5.2 2.1c-1 1.2-1.6 2.5-2 3.9-.1.8-.8 1.3-1.4 1.3zm20.3-5c-.4 0-.8-.2-1.1-.5-1-1.1-2.3-2-3.6-2.5-.8-.3-1.1-1.2-.8-2s1.2-1.1 2-.8c1.8.7 3.4 1.9 4.7 3.3.6.6.5 1.6-.1 2.2-.4.1-.8.3-1.1.3zm-14-2.6c-.6 0-1.1-.3-1.4-.9-.4-.8-.1-1.7.7-2 1.7-.8 3.6-1.3 5.5-1.4a1.54 1.54 0 0 1 1.5 1.5c0 .8-.6 1.5-1.5 1.6-1.5 0-2.9.4-4.3 1.1-.1 0-.3.1-.5.1z"/></g><path d="M508.8 675.5H349c-32.5 0-58.9 26.4-58.9 58.9v30.1c0 33-26.8 59.8-59.8 59.8h-23.1c-1.9 0-3.5 1.5-3.5 3.5h0c0 1.9 1.5 3.5 3.5 3.5h23.1c36.8 0 66.7-29.9 66.7-66.7v-30.1c0-28.7 23.3-52 52-52h159.7c1.7 0 3.2-1.1 3.5-2.7.5-2.4-1.2-4.3-3.4-4.3z" class="E"/></g></svg>