<svg xmlns="http://www.w3.org/2000/svg" xmlns:xlink="http://www.w3.org/1999/xlink" width="820" height="620" viewBox="0 0 216.958 164.042" xmlns:v="https://vecta.io/nano"><style><![CDATA[.B{fill:#fff}.C{opacity:.6}.D{opacity:.2}.E{fill:#007cff}.F{fill:#1a2e35}.G{fill:#fafafa}.H{fill:#ececec}.I{opacity:.4}.J{stroke-width:.5}.K{fill:#f5f5f5}.L{fill:none}.M{stroke-miterlimit:10}.N{opacity:.3}.O{fill:#e7e7e7}.P{fill:#cd7a63}.Q{fill:#f0f0f0}.R{opacity:.1}.S{stroke-linejoin:round}.T{stroke-linecap:round}.U{stroke:#1a2e35}]]></style><defs><clipPath id="A"><path d="M0 500h500V0H0z"/></clipPath><clipPath id="B"><path d="M0 500h500V0H0z"/></clipPath><clipPath id="C"><path d="M0 500h500V0H0z"/></clipPath><clipPath id="D"><path d="M416.993 142.039h15.84V125.37h-15.84z"/></clipPath><clipPath id="E"><path d="M393.45 146.811h14.113v-18.114H393.45z"/></clipPath><clipPath id="F"><path d="M385.623 166.873h16.686v-10.605h-16.686z"/></clipPath><clipPath id="G"><path d="M401.661 174.913h14.718v-12.221h-14.718z"/></clipPath><clipPath id="H"><path d="M379.78 142.787h13.484v-10.066H379.78z"/></clipPath><clipPath id="I"><path d="M414.315 164.86h13.484v-10.066h-13.484z"/></clipPath><clipPath id="J"><path d="M406.008 155.705h8.462v-11.78h-8.462z"/></clipPath><clipPath id="K"><path d="M382.247 153.456h9.66v-9.142h-9.66z"/></clipPath><clipPath id="L"><path d="M384.879 120.473h40.695v-7.434h-40.695z"/></clipPath><clipPath id="M"><path d="M0 500h500V0H0z"/></clipPath><clipPath id="N"><path d="M279.744 396.499h113.179V208.786H279.744z"/></clipPath><clipPath id="O"><path d="M270.868 199.753h128.757v-14.861H270.868z"/></clipPath><clipPath id="P"><path d="M255.435 195.965h156.428v-13.113H255.435z"/></clipPath><clipPath id="Q"><path d="M366.146 375.489h11.073v-11.073h-11.073z"/></clipPath><clipPath id="R"><path d="M369.114 372.521h5.136v-5.136h-5.136z"/></clipPath><clipPath id="S"><path d="M366.146 358.006h11.073v-11.073h-11.073z"/></clipPath><clipPath id="T"><path d="M369.114 355.037h5.136v-5.135h-5.136z"/></clipPath><clipPath id="U"><path d="M291.167 294.156h11.073v-11.073h-11.073z"/></clipPath><clipPath id="V"><path d="M294.135 291.187h5.136v-5.135h-5.136z"/></clipPath><clipPath id="W"><path d="M291.167 276.673h11.073V265.6h-11.073z"/></clipPath><clipPath id="X"><path d="M294.135 273.704h5.136v-5.136h-5.136z"/></clipPath><clipPath id="Y"><path d="M283.904 247.103h25.599v-25.6h-25.599z"/></clipPath><clipPath id="Z"><path d="M290.767 240.24h11.873v-11.873h-11.873z"/></clipPath><clipPath id="a"><path d="M365.663 289.784h25.6v-25.6h-25.6z"/></clipPath><clipPath id="b"><path d="M372.526 282.921H384.4v-11.874h-11.874z"/></clipPath><clipPath id="c"><path d="M297.878 374.61h27.997v-27.997h-27.997z"/></clipPath><clipPath id="d"><path d="M327.108 373.924h3.788v-26.625h-3.788z"/></clipPath><clipPath id="e"><path d="M292.858 373.924h3.788v-26.625h-3.788z"/></clipPath><clipPath id="f"><path d="M298.564 345.381h26.625v-3.788h-26.625z"/></clipPath><clipPath id="g"><path d="M298.564 379.631h26.625v-3.788h-26.625z"/></clipPath><clipPath id="h"><path d="M351.151 250.612h27.998v-27.997h-27.998z"/></clipPath><clipPath id="i"><path d="M380.381 249.926h3.788V223.3h-3.788z"/></clipPath><clipPath id="j"><path d="M346.131 249.926h3.788V223.3h-3.788z"/></clipPath><clipPath id="k"><path d="M351.837 221.382h26.626v-3.788h-26.626z"/></clipPath><clipPath id="l"><path d="M351.837 255.632h26.626v-3.788h-26.626z"/></clipPath><clipPath id="m"><path d="M271.998 352.045h3.205v-32.672h-3.205z"/></clipPath><clipPath id="n"><path d="M271.998 302.733h3.205v-45.827h-3.205z"/></clipPath><clipPath id="o"><path d="M262.509 352.045h7.686v-32.672h-7.686z"/></clipPath><clipPath id="p"><path d="M262.509 352.045h7.686v-1.202h-7.686z"/></clipPath><clipPath id="q"><path d="M262.509 349.422h7.686v-1.202h-7.686z"/></clipPath><clipPath id="r"><path d="M262.509 346.8h7.686v-1.202h-7.686z"/></clipPath><clipPath id="s"><path d="M262.509 344.177h7.686v-1.202h-7.686z"/></clipPath><clipPath id="t"><path d="M262.509 341.555h7.686v-1.202h-7.686z"/></clipPath><clipPath id="u"><path d="M262.509 338.932h7.686v-1.202h-7.686z"/></clipPath><clipPath id="v"><path d="M262.509 336.31h7.686v-1.202h-7.686z"/></clipPath><clipPath id="w"><path d="M262.509 333.687h7.686v-1.202h-7.686z"/></clipPath><clipPath id="x"><path d="M262.509 331.065h7.686v-1.202h-7.686z"/></clipPath><clipPath id="y"><path d="M262.509 328.442h7.686v-1.202h-7.686z"/></clipPath><clipPath id="z"><path d="M262.509 325.82h7.686v-1.202h-7.686z"/></clipPath><clipPath id="AA"><path d="M262.509 323.197h7.686v-1.202h-7.686z"/></clipPath><clipPath id="AB"><path d="M262.509 320.575h7.686v-1.202h-7.686z"/></clipPath><clipPath id="AC"><path d="M262.509 302.733h7.686v-45.827h-7.686z"/></clipPath><clipPath id="AD"><path d="M262.509 302.733h7.686v-1.686h-7.686z"/></clipPath><clipPath id="AE"><path d="M262.509 299.054h7.686v-1.686h-7.686z"/></clipPath><clipPath id="AF"><path d="M262.509 295.376h7.686v-1.686h-7.686z"/></clipPath><clipPath id="AG"><path d="M262.509 291.698h7.686v-1.686h-7.686z"/></clipPath><clipPath id="AH"><path d="M262.509 288.019h7.686v-1.686h-7.686z"/></clipPath><clipPath id="AI"><path d="M262.509 284.341h7.686v-1.686h-7.686z"/></clipPath><clipPath id="AJ"><path d="M262.509 280.662h7.686v-1.686h-7.686z"/></clipPath><clipPath id="AK"><path d="M262.509 276.984h7.686v-1.686h-7.686z"/></clipPath><clipPath id="AL"><path d="M262.509 273.306h7.686v-1.686h-7.686z"/></clipPath><clipPath id="AM"><path d="M262.509 269.627h7.686v-1.686h-7.686z"/></clipPath><clipPath id="AN"><path d="M262.509 265.949h7.686v-1.686h-7.686z"/></clipPath><clipPath id="AO"><path d="M262.509 262.27h7.686v-1.685h-7.686z"/></clipPath><clipPath id="AP"><path d="M262.509 258.592h7.686v-1.686h-7.686z"/></clipPath><clipPath id="AQ"><path d="M278.991 395.71h4.962v-13.703h-4.962z"/></clipPath><clipPath id="AR"><path d="M380.938 392.857h7.978v-7.979h-7.978z"/></clipPath><clipPath id="AS"><path d="M370.396 392.857h7.979v-7.979h-7.979z"/></clipPath><clipPath id="AT"><path d="M361.674 240.602h7.978v-7.978h-7.978z"/></clipPath><clipPath id="AU"><path d="M382.275 343.157h7.979v-14.203h-7.979z"/></clipPath><clipPath id="AV"><path d="M387.273 256.39h7.979v-14.203h-7.979z"/></clipPath><clipPath id="AW"><path d="M379.163 321.799h14.203v-14.204h-14.203z"/></clipPath><clipPath id="AX"><path d="M381.547 319.29h9.187v-9.186h-9.187z"/></clipPath><clipPath id="AY"><path d="M387.273 240.127h7.979v-14.203h-7.979z"/></clipPath><clipPath id="AZ"><path d="M387.273 223.864h7.979v-14.203h-7.979z"/></clipPath><clipPath id="Aa"><path d="M375.713 333.344h4.39v-4.39h-4.39z"/></clipPath><clipPath id="Ab"><path d="M382.478 391.062h4.39v-4.389h-4.39z"/></clipPath><clipPath id="Ac"><path d="M365.068 333.344h4.389v-4.39h-4.389z"/></clipPath><clipPath id="Ad"><path d="M300.208 372.147h4.39v-4.389h-4.39z"/></clipPath><clipPath id="Ae"><path d="M294.508 257.827h4.39v-4.39h-4.39z"/></clipPath><clipPath id="Af"><path d="M288.572 257.827h4.389v-4.39h-4.389z"/></clipPath><clipPath id="Ag"><path d="M358.489 333.344h4.389v-4.39h-4.389z"/></clipPath><clipPath id="Ah"><path d="M309.215 325.82h12.499v-16.971h-12.499z"/></clipPath><clipPath id="Ai"><path d="M294.427 325.82h12.499v-16.971h-12.499z"/></clipPath><clipPath id="Aj"><path d="M279.639 325.82h12.499v-16.971h-12.499z"/></clipPath><clipPath id="Ak"><path d="M297.907 216.098h12.13v-4.171h-12.13z"/></clipPath><clipPath id="Al"><path d="M284.147 216.098h12.13v-4.171h-12.13z"/></clipPath><clipPath id="Am"><path d="M309.215 312.228h12.499v-3.379h-12.499z"/></clipPath><clipPath id="An"><path d="M294.427 312.228h12.499v-3.379h-12.499z"/></clipPath><clipPath id="Ao"><path d="M279.639 312.228h12.499v-3.379h-12.499z"/></clipPath><clipPath id="Ap"><path d="M384.938 341.593h2.652v-4.721h-2.652z"/></clipPath><clipPath id="Aq"><path d="M374.181 391.228h2.652v-4.721h-2.652z"/></clipPath><clipPath id="Ar"><path d="M300.445 257.827h4.39v-4.39h-4.39z"/></clipPath><clipPath id="As"><path d="M359.774 292.203h6.209v-6.208h-6.209z"/></clipPath><clipPath id="At"><path d="M355.577 288.005h6.208v-6.208h-6.208z"/></clipPath><clipPath id="Au"><path d="M363.972 296.401h6.208v-6.208h-6.208z"/></clipPath><clipPath id="Av"><path d="M313.588 322.1h4.39v-4.389h-4.39z"/></clipPath><clipPath id="Aw"><path d="M298.641 322.1h4.39v-4.389h-4.39z"/></clipPath><clipPath id="Ax"><path d="M283.694 322.1h4.389v-4.389h-4.389z"/></clipPath><clipPath id="Ay"><path d="M0 500h500V0H0z"/></clipPath><clipPath id="Az"><path d="M0 500h500V0H0z"/></clipPath><clipPath id="BA"><path d="M66.657 241.313h16.31v-70.424h-16.31z"/></clipPath><clipPath id="BB"><path d="M82.657 241.313h16.31v-70.424h-16.31z"/></clipPath><clipPath id="BC"><path d="M98.657 241.313h16.31v-70.424h-16.31z"/></clipPath><clipPath id="BD"><path d="M103.491 169.067h9.4v-86h-9.4z"/></clipPath><clipPath id="BE"><path d="M103.491 169.067h9.4v-16h-9.4z"/></clipPath><clipPath id="BF"><path d="M74.122 168.067h13.156v-84.75H74.122z"/></clipPath><clipPath id="BG"><path d="M78.657 168.067h8.62v-8h-8.62z"/></clipPath><clipPath id="BH"><path d="M129.11 168.067h13.156v-84.75H129.11z"/></clipPath><clipPath id="BI"><path d="M129.11 168.067h8.62v-8h-8.62z"/></clipPath><clipPath id="BJ"><path d="M71.527 170.889h73.333v-5.844H71.527z"/></clipPath><clipPath id="BK"><path d="M154.051 273.67h31.938v-35.974h-31.938z"/></clipPath><clipPath id="BL"><path d="M209.511 113.611h8.536v-12.547h-8.536z"/></clipPath><clipPath id="BM"><path d="M189.068 111.306h9.807V97.377h-9.807z"/></clipPath><clipPath id="BN"><path d="M97.687 226.424h101.644V99.338H97.687z"/></clipPath><clipPath id="BO"><path d="M111.29 209.51h107.523V104.678H111.29z"/></clipPath><clipPath id="BP"><path d="M123.469 202.277h68.752v-28.003h-68.752z"/></clipPath><clipPath id="BQ"><path d="M136.195 292.526h8.463v-11.658h-8.463z"/></clipPath><clipPath id="BR"><path d="M134.5 304.755h27.23v-10.834H134.5z"/></clipPath><clipPath id="BS"><path d="M142.077 281.384h17.83v-66.56h-17.83z"/></clipPath><clipPath id="BT"><path d="M96.78 287.448h35.116v-71.437H96.78z"/></clipPath><clipPath id="BU"><path d="M123.088 287.448h8.808v-11.29h-8.808z"/></clipPath><clipPath id="BV"><path d="M147.032 281.384h5.301v-8.167h-5.301z"/></clipPath><clipPath id="BW"><path d="M205.242 258.592h17.67v-15.447h-17.67z"/></clipPath><clipPath id="BX"><path d="M206.302 247.486h3.338v-2.596h-3.338z"/></clipPath><clipPath id="BY"><path d="M212.362 246.707h.469v-1.038h-.469z"/></clipPath><clipPath id="BZ"><path d="M213.932 246.707h.47v-1.038h-.47z"/></clipPath><clipPath id="Ba"><path d="M216.196 247.134h1.652v-1.954h-1.652z"/></clipPath><clipPath id="Bb"><path d="M219.361 247.134h1.651v-1.954h-1.651z"/></clipPath><clipPath id="Bc"><path d="M165.041 259.934h14.136v-15.493h-14.136z"/></clipPath><clipPath id="Bd"><path d="M107.366 282.508h47.31v-44.424h-47.31z"/></clipPath><clipPath id="Be"><path d="M168.549 236.067h8.13v-153h-8.13z"/></clipPath><clipPath id="Bf"><path d="M168.549 236.067h8.13v-25h-8.13z"/></clipPath><clipPath id="Bg"><path d="M104.51 236.067h17.139v-153H104.51z"/></clipPath><clipPath id="Bh"><path d="M113.079 236.067h8.57v-7h-8.57z"/></clipPath><clipPath id="Bi"><path d="M223.589 236.067h17.13v-153h-17.13z"/></clipPath><clipPath id="Bj"><path d="M223.589 236.067h8.57v-7h-8.57z"/></clipPath><clipPath id="Bk"><path d="M107.077 240.152h131.081v-7.676H107.077z"/></clipPath><clipPath id="Bl"><path d="M107.077 240.152h131.081v-3.838H107.077z"/></clipPath><clipPath id="Bm"><path d="M101.117 243.475h143v-4.324h-143z"/></clipPath><path id="Bn" d="M188.714 359.626h97.897v4.617h-97.897z"/><path id="Bo" d="M72.586 363.394h97.897v.849H72.586z"/><path id="Bp" d="M72.586 359.538h97.897v.85H72.586z"/><path id="Bq" d="M419.896 138.933s-3.829-1.412-2.691-4.744 13.247-8.819 13.247-8.819 5.071 4.649.414 12.209-10.866 3.739-10.97 1.354"/><path id="Br" d="M403.25 145.276s4.077.171 4.309-3.344-8.833-13.235-8.833-13.235-6.47 2.338-5.08 11.107 8.59 7.634 9.604 5.472"/><path id="Bs" d="M399.797 162.099s2.719.291 2.5 1.947-10.568 5.918-16.674-.973c0 0 3.91-6.716 9.562-6.804s4.612 5.83 4.612 5.83"/><path id="Bt" d="M404.863 166.119s-2.461-1.189-3.151.331 5.839 10.611 14.666 7.992c0 0 .234-7.767-4.517-10.831s-6.998 2.508-6.998 2.508"/><path id="Bu" d="M391.992 140.273s1.876 1.515-.148 2.254-11.96.529-12.064-9.313c0 0 11.571-1.922 13.004 1.827s-.792 5.232-.792 5.232"/><path id="Bv" d="M415.587 162.345s-1.876 1.515.148 2.255 11.96.529 12.064-9.313c0 0-11.571-1.922-13.004 1.827s.792 5.231.792 5.231"/><path id="Bw" d="M409.47 154.417s-.165 1.842 1.322 1.12 6.666-6.309 1.297-11.612c0 0-7.227 5.352-5.924 8.14s3.305 2.352 3.305 2.352"/><path id="Bx" d="M390.315 151.793s1.122 1.47-.521 1.652-9.003-1.783-7.29-9.131c0 0 8.968.674 9.353 3.726s-1.542 3.753-1.542 3.753"/><path id="By" d="M411.863 186.932h-27.099v9.033h-24.707v-9.033h-33.902v9.033h-24.708v-9.033h-46.012v-4.079h156.428z"/><path id="Bz" d="M371.682 367.385a2.57 2.57 0 0 0-2.568 2.568 2.57 2.57 0 0 0 2.568 2.568 2.57 2.57 0 0 0 2.568-2.568 2.57 2.57 0 0 0-2.568-2.568"/><path id="CA" d="M367.251 352.47a4.44 4.44 0 0 0 4.432 4.432 4.44 4.44 0 0 0 4.431-4.432 4.44 4.44 0 0 0-4.431-4.432 4.44 4.44 0 0 0-4.432 4.432m9.968 0c0 3.058-2.479 5.536-5.536 5.536s-5.536-2.478-5.536-5.536 2.478-5.537 5.536-5.537a5.54 5.54 0 0 1 5.536 5.537"/><path id="CB" d="M371.682 348.645c-2.112 0-3.824 1.712-3.824 3.825s1.712 3.824 3.824 3.824 3.825-1.712 3.825-3.824-1.713-3.825-3.825-3.825"/><path id="CC" d="M296.703 228.366a5.94 5.94 0 0 0-5.937 5.937 5.94 5.94 0 0 0 5.937 5.937 5.94 5.94 0 0 0 5.937-5.937 5.94 5.94 0 0 0-5.937-5.937"/><path id="CD" d="M329.034 373.048h1.862v.478h-1.862v.398h-1.926v-1.274h1.926z"/><path id="CE" d="M329.034 370.935h1.862v.479h-1.862v.398h-1.926v-1.275h1.926z"/><path id="CF" d="M329.034 358.26h1.862v.479h-1.862v.397h-1.926v-1.274h1.926z"/><path id="CG" d="M294.72 348.175h-1.862v-.478h1.862v-.398h1.926v1.274h-1.926z"/><path id="CH" d="M294.72 350.288h-1.862v-.479h1.862v-.397h1.926v1.274h-1.926z"/><path id="CI" d="M324.313 343.455v-1.862h.478v1.862h.398v1.926h-1.274v-1.926z"/><path id="CJ" d="M322.2 343.455v-1.862h.479v1.862h.397v1.926h-1.274v-1.926z"/><path id="CK" d="M299.44 377.769v1.862h-.478v-1.862h-.398v-1.926h1.274v1.926z"/><path id="CL" d="M301.553 377.769v1.862h-.479v-1.862h-.398v-1.926h1.275v1.926z"/><path id="CM" d="M382.307 249.049h1.862v.479h-1.862v.398h-1.926v-1.274h1.926z"/><path id="CN" d="M347.993 228.402h-1.862v-.479h1.862v-.398h1.926v1.274h-1.926z"/><path id="CO" d="M347.993 230.515h-1.862v-.479h1.862v-.398h1.926v1.275h-1.926z"/><path id="CP" d="M352.714 253.771v1.861h-.478v-1.861h-.398v-1.927h1.274v1.927z"/><path id="CQ" d="M354.827 253.771v1.861h-.479v-1.861h-.397v-1.927h1.274v1.927z"/><path id="CR" d="M262.509 352.044h7.686v-1.202h-7.686z"/><path id="CS" d="M262.509 302.733h7.686v-1.686h-7.686z"/><path id="CT" d="M273.923 341.637a.67.67 0 0 0-.669.669.67.67 0 0 0 .669.669.67.67 0 0 0 .669-.669.67.67 0 0 0-.669-.669z"/><path id="CU" d="M275.028 396.935a.67.67 0 0 0-.669.669.67.67 0 0 0 .669.67.67.67 0 0 0 .669-.67.67.67 0 0 0-.669-.669z"/><path id="CV" d="M316.8 248.455a.67.67 0 0 0-.669.67.67.67 0 0 0 .669.669.67.67 0 0 0 .669-.669.67.67 0 0 0-.669-.67z"/><path id="CW" d="M337.031 387.107a.67.67 0 0 0 .669.669.67.67 0 0 0 .67-.669.67.67 0 0 0-.67-.669.67.67 0 0 0-.669.669z"/><path id="CX" d="M332.535 387.107a.67.67 0 0 0 .669.669.67.67 0 0 0 .669-.669.67.67 0 0 0-.669-.669.67.67 0 0 0-.669.669z"/><path id="CY" d="M301.222 396.817a.67.67 0 0 0-.669-.669.67.67 0 0 0-.669.669.67.67 0 0 0 .669.669.67.67 0 0 0 .669-.669z"/><path id="CZ" d="M319.205 396.817a.67.67 0 0 0-.669-.669.67.67 0 0 0-.67.669.67.67 0 0 0 .67.669.67.67 0 0 0 .669-.669z"/><path id="Ca" d="M300.552 396.148v-.871l-3.314-6.629v-.872"/><path id="Cb" d="M357.428 261.884a.67.67 0 0 0 .669.67.67.67 0 0 0 .669-.67.67.67 0 0 0-.669-.669.67.67 0 0 0-.669.669z"/><path id="Cc" d="M357.051 300.314a.67.67 0 0 0 0 .947.67.67 0 0 0 .946 0 .67.67 0 0 0 0-.947.67.67 0 0 0-.946 0z"/><path id="Cd" d="M349.248 292.511a.67.67 0 0 0 0 .946.67.67 0 0 0 .947 0 .67.67 0 0 0 0-.946.67.67 0 0 0-.947 0z"/><path id="Ce" d="M315.114 286.759a.67.67 0 0 0 .669-.669.67.67 0 0 0-.669-.669.67.67 0 0 0-.669.669.67.67 0 0 0 .669.669z"/><path id="Cf" d="M315.114 290.438a.67.67 0 0 0 .669-.669.67.67 0 0 0-.669-.67.67.67 0 0 0-.669.67.67.67 0 0 0 .669.669z"/><path id="Cg" d="M66.657 241.314h4.31l12-70.424h-4.31z"/><path id="Ch" d="M73.538 170.89h69.311a2.01 2.01 0 0 0 2.011-2.012v-1.822a2.01 2.01 0 0 0-2.011-2.011H73.538a2.01 2.01 0 0 0-2.011 2.011v1.822a2.01 2.01 0 0 0 2.011 2.012"/><path id="Ci" d="M159.907 273.67c3.532-3.264 8.996-23.726 10.517-25.957s13.191 1.237 13.191 1.237l2.374-7.434s-14.71-6.689-21.3-2.365-10.638 21.736-10.638 21.736z"/><path id="Cj" d="M146.478 200.282l-2.362 26.142-43.649-1.027s-5.167-36.425-1.411-43.115c6.705-11.945 50.706-5.16 60.996-6.181 4.199-2.239 26.689-76.763 26.689-76.763l12.591 5.082-16.626 74.744c-4.29 16.473-21.769 16.186-36.228 21.118"/><path id="Ck" d="M218.814 105.705l-11.105-1.027-14.674 69.644c-1.899.539-7.42 1.161-10.383 1.935-20.608 5.361-71.361 15.221-71.361 15.221l18.714 18.032s84.853-10.186 86.742-30.099c.902-9.576 2.067-73.706 2.067-73.706"/><path id="Cl" d="M147.032 278.04c2.957-6.447-4.956-63.216-4.956-63.216l8.825 1.187s3.693 39.758 9.006 57.659l-9.129 4.37v3.344z"/><path id="Cm" d="M127.835 287.448l4.061-8.985-5.289-3.438-10.244-59.014-19.583 3.363s7.065 50.906 17.082 63.135l11.402 1.078z"/><path id="Cn" d="M209.973 247.486h-1-1.003-1c-.369 0-.667-.299-.667-.668v-1.261a.67.67 0 0 1 .667-.668h1 1.003 1a.67.67 0 0 1 .667.668v1.261c0 .369-.298.668-.667.668"/><path id="Co" d="M166.349 259.934l-1.308-1.178 9.097-10.101.996-.449 3.39-3.764.653.589-3.39 3.763-.342 1.038z"/><path id="Cp" d="M113.862 282.508s6.229-29.145 9.606-32.293 27.524 6.627 27.524 6.627l3.684-9.599s-20.937-10.525-31.208-9.011-15.766 18.893-16.067 26.636c-.589 15.095 6.461 17.64 6.461 17.64"/><path id="Cq" d="M109.239 232.477h126.757c1.194 0 2.162.968 2.162 2.162v5.513H107.077v-5.513c0-1.194.968-2.162 2.162-2.162"/><path id="Cr" d="M103.279 239.151h138.676c1.194 0 2.162.968 2.162 2.162s-.968 2.162-2.162 2.162H103.279c-1.194 0-2.162-.968-2.162-2.162s.968-2.162 2.162-2.162"/></defs><path d="M2.734 2.734h211.489v158.573H2.734z" fill="#e6f2ff" stroke="#000" stroke-width=".177" class="S"/><path d="M2.969 141.252h211.125v-.105H2.969zm175.985 6.797h13.986v-.105h-13.986zm-39.798 1.145h3.671v-.106h-3.671zm31.272-5.067h8.104v-.106h-8.104zm-145.308.71h18.238v-.106H25.12zm21.998 0h2.674v-.106h-2.674zm11.365 1.783h39.555v-.106H58.483z" class="H"/><g transform="matrix(.4223 0 0 -.4223 2.968992 190.80388)"><g clip-path="url(#A)"><g class="H"><path d="M43.915 444.797c-3.01 0-5.458-2.448-5.458-5.458V167.908c0-3.01 2.448-5.458 5.458-5.458h193.099c3.008 0 5.457 2.448 5.457 5.458v271.431c0 3.01-2.449 5.458-5.457 5.458zM237.014 162.2H43.915c-3.147 0-5.708 2.56-5.708 5.708v271.431c0 3.147 2.561 5.708 5.708 5.708h193.099c3.146 0 5.707-2.561 5.707-5.708V167.908c0-3.148-2.561-5.708-5.707-5.708m23.198 282.597c-3.009 0-5.457-2.448-5.457-5.458V167.908c0-3.01 2.448-5.458 5.457-5.458h193.099c3.009 0 5.458 2.448 5.458 5.458v271.431c0 3.01-2.449 5.458-5.458 5.458zM453.311 162.2H260.212c-3.146 0-5.707 2.56-5.707 5.708v271.431c0 3.147 2.561 5.708 5.707 5.708h193.099c3.147 0 5.708-2.561 5.708-5.708V167.908c0-3.148-2.561-5.708-5.708-5.708"/></g><g fill="#e1e1e1"><path d="M380.144 215.823v-15.477l6.538-4.753H356.16l9.75 3.614v15.536z"/><path d="M317.423 206.575h101.99a3.53 3.53 0 0 1 3.531 3.53v58.833a3.53 3.53 0 0 1-3.531 3.53h-101.99a3.53 3.53 0 0 1-3.531-3.53v-58.833a3.53 3.53 0 0 1 3.531-3.53"/></g><path d="M314.86 206.575h101.99a3.53 3.53 0 0 1 3.531 3.53v58.833a3.53 3.53 0 0 1-3.531 3.53H314.86a3.53 3.53 0 0 1-3.531-3.53v-58.833a3.53 3.53 0 0 1 3.531-3.53" class="O"/><path d="M417.177 269.265H314.533V209.78h102.644z" class="Q"/><path d="M190.874 183.786h93.578v188.16h-93.578z" class="G"/><g class="Q"><path d="M188.714 365.266h97.897v9.233h-97.897z"/><use xlink:href="#Bn"/><path d="M188.714 352.775h97.897v4.617h-97.897zm0-6.852h97.897v4.617h-97.897zm0-6.852h97.897v4.617h-97.897zm0-6.852h97.897v4.617h-97.897zm0-6.852h97.897v4.617h-97.897zm0-6.852h97.897v4.617h-97.897zm0-6.851h97.897v4.617h-97.897zm0-6.852h97.897v4.617h-97.897zm0-6.853h97.897v4.617h-97.897zm0-6.851h97.897v4.617h-97.897zm0-6.852h97.897v4.617h-97.897zm0-6.852h97.897v4.617h-97.897zm0-6.852h97.897v4.617h-97.897zm0-6.852h97.897v4.617h-97.897zm0-6.851h97.897v4.616h-97.897zm0-6.853h97.897v4.617h-97.897zm0-6.851h97.897v4.617h-97.897zm0-6.852h97.897v4.616h-97.897zm0-6.853h97.897v4.617h-97.897zm0-6.851h97.897v4.617h-97.897zm0-6.852h97.897v4.616h-97.897zm0-6.852h97.897v4.617h-97.897zm0-6.852h97.897v4.617h-97.897zm0-6.851h97.897v4.616h-97.897zm0-6.852h97.897v4.616h-97.897zm0-6.852h97.897v4.617h-97.897z"/></g><path d="M74.746 183.786h93.578v188.16H74.746z" class="G"/><g class="Q"><path d="M72.586 365.266h97.897v9.233H72.586z"/><use xlink:href="#Bo"/><path d="M72.586 361.466h97.897v.849H72.586z"/><use xlink:href="#Bp"/><path d="M72.586 357.61h97.897v.85H72.586zm0-1.927h97.897v.85H72.586zm0-1.928h97.897v.849H72.586zm0-1.928h97.897v.849H72.586zm0-1.928h97.897v.849H72.586zm0-1.928h97.897v.85H72.586zm0-1.928h97.897v.849H72.586zm0-1.927h97.897v.849H72.586zm0-1.928h97.897v.849H72.586zm0-1.928h97.897v.85H72.586zm0-1.928h97.897v.85H72.586zm0-1.928h97.897v.85H72.586zm0-1.927h97.897v.849H72.586zm0-1.928h97.897v.849H72.586zm0-1.928h97.897v.849H72.586zm93.058 70.29a13.96 13.96 0 0 1 13.955-13.955 13.96 13.96 0 0 1 13.955 13.955 13.96 13.96 0 0 1-13.955 13.955 13.96 13.96 0 0 1-13.955-13.955"/></g><path d="M167.733 400.911a11.87 11.87 0 0 1 11.866-11.865 11.87 11.87 0 0 1 11.865 11.865 11.87 11.87 0 0 1-11.865 11.866 11.87 11.87 0 0 1-11.866-11.866" class="G"/><path d="M180.159 409.051v-8.294l5.497 3.11" stroke="#e1e1e1" stroke-width="2" class="L M S T"/><g class="O"><path d="M420.742 127.627h-58.858v63.352h58.858zm8.986-8.221h-7.398v76.286h7.398z"/></g><path d="M376.075 162.317h-4.822v23.675h4.822z" class="G"/><g class="K"><path d="M396.071 162.317h-4.823v23.675h4.823zm-15.173 0h-4.823v22.011h4.823z"/></g><path d="M391.249 162.317h-4.823v22.011h4.823z" class="G"/><path d="M386.426 162.317h-3.116v23.675h3.116z" class="H"/><path d="M383.31 162.317h-2.412v22.011h2.412z" class="G"/><path d="M400.894 162.317h-4.823v23.675h4.823z" class="H"/><g class="O"><path d="M405.717 162.317h-4.823v22.011h4.823zm10.35 0h-4.822v22.011h4.822z"/></g><path d="M411.245 162.317h-3.117v23.675h3.117z" class="G"/><path d="M408.128 162.317h-2.411v22.011h2.411z" class="H"/><g class="G"><path d="M418.479 162.317h-2.412v23.113h2.412zm-4.823-31.731h4.823v23.675h-4.823zm-19.996 0h4.823v23.675h-4.823z"/></g><path d="M408.833 130.586h4.823v22.011h-4.823z" class="Q"/><path d="M398.482 130.586h4.823v22.011h-4.823z" class="H"/><path d="M403.305 130.586h3.117v23.675h-3.117z" class="G"/><path d="M406.422 130.586h2.411v22.011h-2.411z" class="K"/><path d="M388.837 130.586h4.822v23.675h-4.822z" class="H"/><path d="M384.015 130.586h4.823v22.011h-4.823z" class="K"/><path d="M373.664 130.586h4.823v22.011h-4.823z" class="O"/><g class="G"><path d="M378.487 130.586h3.116v23.675h-3.116zm-10.351 0h3.117v23.675h-3.117z"/></g><path d="M381.603 130.586h2.412v22.011h-2.412z" class="H"/><g class="Q"><path d="M371.253 130.586h2.411V153.7h-2.411z"/><path d="M418.472 162.291h-54.731v26.496h54.731zm0-31.705h-54.731v27.759h54.731zm1.973 65.106h-1.973-58.452v-72.011h58.452v-4.275h3.946v76.286z"/></g><g class="O"><path d="M302.929 127.627h58.858v63.352h-58.858zm2.263-8.221h7.398v5.049h-7.398z"/></g><path d="M354.982 162.317h4.822v23.675h-4.822z" class="G"/><g class="K"><path d="M334.986 162.317h4.823v23.675h-4.823zm15.173 0h4.823v22.011h-4.823z"/></g><path d="M339.809 162.317h4.822v22.011h-4.822z" class="G"/><path d="M344.631 162.317h3.117v23.675h-3.117z" class="H"/><path d="M347.748 162.317h2.411v22.011h-2.411z" class="G"/><path d="M333.342 162.317h4.823v23.675h-4.823z" class="H"/><g class="O"><path d="M328.52 162.317h4.823v22.011h-4.823zm-10.351 0h4.823v22.011h-4.823z"/></g><path d="M322.992 162.317h3.116v23.675h-3.116z" class="G"/><path d="M326.108 162.317h2.411v22.011h-2.411z" class="H"/><path d="M315.758 162.317h2.412v23.113h-2.412z" class="K"/><g class="G"><path d="M318.315 130.586h-4.823v23.675h4.823zm19.996 0h-4.822v23.675h4.822z"/></g><path d="M323.138 130.586h-4.823v22.011h4.823z" class="K"/><path d="M333.489 130.586h-4.823v22.011h4.823z" class="H"/><path d="M328.666 130.586h-3.117v23.675h3.117z" class="G"/><path d="M325.549 130.586h-2.411v22.011h2.411z" class="K"/><path d="M339.955 130.586h-4.823v23.675h4.823z" class="H"/><path d="M344.777 130.586h-4.823v22.011h4.823z" class="K"/><path d="M355.128 130.586h-4.823v22.011h4.823z" class="O"/><g class="G"><path d="M350.305 130.586h-3.117v23.675h3.117zm9.715 0h-3.116v23.675h3.116z"/></g><g class="H"><path d="M347.188 130.586h-2.411v22.011h2.411zm10.351 0h-2.411V153.7h2.411z"/></g><path d="M305.198 188.787h54.731v-26.496h-54.731zm0-30.442h54.731v-27.759h-54.731zm-3.946 37.347v-76.286h3.946v4.275h58.453v72.011h-58.453-1.972z" class="Q"/></g><g clip-path="url(#B)" class="K"><path d="M443.889 83.762c0-6.254-86.807-11.323-193.889-11.323S56.111 77.508 56.111 83.762 142.918 95.085 250 95.085s193.889-5.069 193.889-11.323"/></g><g clip-path="url(#C)"><g stroke="#007cff" class="L M"><path d="M387.077 149.815s6.208 5.177 11.531 0 6.351-37.241 6.351-37.241m.44-6.192s-3.659 37.631 10.119 53.445"/><path d="M404.089 110.348s2.818 42.839-7.516 52.344m8.826-52.344s.241 28.309 7.92 32.709 11.594-9.952 11.594-9.952m-22.547-22.757s1.253 21.732-4.697 29.499-12.213-3.327-12.213-3.327"/><path d="M404.44 107.437s-3.848 50.824 2.52 59.437"/></g><use xlink:href="#Bq" class="E"/><g clip-path="url(#D)" class="D B"><use xlink:href="#Bq"/></g><use xlink:href="#Br" class="E"/><g clip-path="url(#E)" class="D B"><use xlink:href="#Br"/></g><use xlink:href="#Bs" class="E"/><g clip-path="url(#F)" class="D B"><use xlink:href="#Bs"/></g><use xlink:href="#Bt" class="E"/><g clip-path="url(#G)" class="D B"><use xlink:href="#Bt"/></g><use xlink:href="#Bu" class="E"/><g clip-path="url(#H)" class="D B"><use xlink:href="#Bu"/></g><use xlink:href="#Bv" class="E"/><g clip-path="url(#I)" class="D B"><use xlink:href="#Bv"/></g><use xlink:href="#Bw" class="E"/><g clip-path="url(#J)" class="D B"><use xlink:href="#Bw"/></g><use xlink:href="#Bx" class="E"/><g clip-path="url(#K)" class="D B"><use xlink:href="#Bx"/></g><g class="F"><path d="M420.611 83.067h-30.77l-3.319 33.688h37.409z"/><path d="M425.574 113.039h-40.695v7.434h40.695z"/></g><g clip-path="url(#L)" class="D B"><path d="M425.574 113.039h-40.695v7.434h40.695z"/></g></g><g clip-path="url(#M)"><path d="M399.597 184.08v215.123a3.61 3.61 0 0 1-3.61 3.61H274.479a3.61 3.61 0 0 1-3.611-3.61v-43.178c0-.693-.562-1.255-1.254-1.255h-6.766a2.45 2.45 0 0 1-2.448-2.448v-33.276a2.45 2.45 0 0 1 2.448-2.447h6.766c.692 0 1.254-.562 1.254-1.255v-8.564c0-.693-.562-1.254-1.254-1.254h-6.766a2.45 2.45 0 0 1-2.448-2.448v-46.829a2.45 2.45 0 0 1 2.448-2.448h6.766c.692 0 1.254-.562 1.254-1.254V184.08z" class="E"/><g clip-path="url(#N)" class="D"><path d="M282.556 234.303a14.15 14.15 0 0 0 14.147 14.147 14.15 14.15 0 0 0 14.147-14.147 14.15 14.15 0 0 0-14.147-14.146 14.15 14.15 0 0 0-14.147 14.146m7.454 36.833c0 3.697 2.997 6.693 6.693 6.693s6.693-2.996 6.693-6.693-2.997-6.692-6.693-6.692-6.693 2.997-6.693 6.692m0 17.484c0 3.696 2.997 6.692 6.693 6.692s6.693-2.996 6.693-6.692-2.997-6.693-6.693-6.693-6.693 2.997-6.693 6.693m74.979 63.85c0 3.696 2.997 6.692 6.693 6.692s6.693-2.996 6.693-6.692-2.997-6.693-6.693-6.693-6.693 2.996-6.693 6.693m0 17.483c0 3.696 2.997 6.693 6.693 6.693s6.693-2.997 6.693-6.693-2.997-6.693-6.693-6.693-6.693 2.997-6.693 6.693m-51.326-115.812h8.017l53.154 53.155v17.419h18.089v71.784h-42.767v-71.784h19.154v-15.131l-49.919-49.919h-5.728v43.068h-33.92v-93.947h33.92z"/></g><g class="F"><path d="M328.429 318.638h20.039v9.203h-20.039zm-17.578-60.046h7.056v45.718h-7.056zm-18.58 77.116h39.226v-5.846h-39.226z"/></g><g clip-path="url(#O)" class="D"><path d="M399.625 199.753H270.868v-14.861h128.757z"/></g><use xlink:href="#By" class="F"/><g clip-path="url(#P)" opacity=".5" class="B"><use xlink:href="#By"/></g><g clip-path="url(#Q)" class="C B"><path d="M367.251 369.953a4.44 4.44 0 0 0 4.432 4.432 4.44 4.44 0 0 0 4.431-4.432 4.44 4.44 0 0 0-4.431-4.431 4.44 4.44 0 0 0-4.432 4.431m9.968 0c0 3.058-2.479 5.536-5.536 5.536s-5.536-2.478-5.536-5.536 2.478-5.536 5.536-5.536 5.536 2.478 5.536 5.536"/></g><path d="M371.682 366.128c-2.112 0-3.824 1.712-3.824 3.824s1.712 3.825 3.824 3.825 3.825-1.712 3.825-3.825-1.713-3.824-3.825-3.824" class="F"/><g clip-path="url(#R)" class="D B"><use xlink:href="#Bz"/></g><g clip-path="url(#S)" class="C B"><use xlink:href="#CA"/></g><use xlink:href="#CB" class="F"/><g clip-path="url(#T)" class="D B"><path d="M371.682 349.901a2.57 2.57 0 0 0-2.568 2.568 2.57 2.57 0 0 0 2.568 2.568 2.57 2.57 0 0 0 2.568-2.568 2.57 2.57 0 0 0-2.568-2.568"/></g><g clip-path="url(#U)" class="C B"><path d="M292.272 288.62a4.44 4.44 0 0 0 4.432 4.432 4.44 4.44 0 0 0 4.431-4.432 4.44 4.44 0 0 0-4.431-4.432 4.44 4.44 0 0 0-4.432 4.432m9.968 0c0 3.058-2.479 5.536-5.536 5.536s-5.536-2.478-5.536-5.536 2.478-5.537 5.536-5.537a5.54 5.54 0 0 1 5.536 5.537"/></g><path d="M296.703 284.795c-2.112 0-3.824 1.712-3.824 3.825s1.712 3.824 3.824 3.824 3.825-1.712 3.825-3.824-1.713-3.825-3.825-3.825" class="F"/><g clip-path="url(#V)" class="D B"><path d="M296.703 286.052a2.57 2.57 0 0 0-2.568 2.568 2.57 2.57 0 0 0 2.568 2.568 2.57 2.57 0 0 0 2.568-2.568 2.57 2.57 0 0 0-2.568-2.568"/></g><g clip-path="url(#W)" class="C B"><path d="M292.272 271.136a4.44 4.44 0 0 0 4.432 4.432 4.44 4.44 0 0 0 4.431-4.432 4.44 4.44 0 0 0-4.431-4.431 4.44 4.44 0 0 0-4.432 4.431m9.968 0c0 3.058-2.479 5.536-5.536 5.536s-5.536-2.478-5.536-5.536a5.54 5.54 0 0 1 5.536-5.537 5.54 5.54 0 0 1 5.536 5.537"/></g><path d="M296.703 267.312c-2.112 0-3.824 1.712-3.824 3.825s1.712 3.824 3.824 3.824 3.825-1.712 3.825-3.824-1.713-3.825-3.825-3.825" class="F"/><g clip-path="url(#X)" class="D B"><path d="M296.703 268.568a2.57 2.57 0 0 0-2.568 2.568 2.57 2.57 0 0 0 2.568 2.568 2.57 2.57 0 0 0 2.568-2.568 2.57 2.57 0 0 0-2.568-2.568"/></g><g clip-path="url(#Y)" class="C B"><path d="M286.457 234.303a10.26 10.26 0 0 0 10.246 10.246 10.26 10.26 0 0 0 10.245-10.246 10.26 10.26 0 0 0-10.245-10.244 10.26 10.26 0 0 0-10.246 10.244m23.046 0c0 7.069-5.731 12.8-12.8 12.8s-12.8-5.731-12.8-12.8 5.731-12.8 12.8-12.8 12.8 5.732 12.8 12.8"/></g><path d="M296.703 225.461c-4.883 0-8.842 3.959-8.842 8.842s3.959 8.843 8.842 8.843 8.842-3.959 8.842-8.843-3.959-8.842-8.842-8.842" class="F"/><g clip-path="url(#Z)" class="D B"><use xlink:href="#CC"/></g><g clip-path="url(#a)" class="C B"><path d="M368.217 276.984a10.26 10.26 0 0 0 10.246 10.246 10.26 10.26 0 0 0 10.245-10.246 10.26 10.26 0 0 0-10.245-10.245 10.26 10.26 0 0 0-10.246 10.245m23.046 0c0 7.069-5.731 12.8-12.8 12.8s-12.8-5.731-12.8-12.8 5.731-12.799 12.8-12.799 12.8 5.73 12.8 12.799"/></g><path d="M378.463 268.142c-4.883 0-8.842 3.959-8.842 8.842s3.959 8.842 8.842 8.842 8.842-3.958 8.842-8.842-3.959-8.842-8.842-8.842" class="F"/><g clip-path="url(#b)" class="D B"><path d="M378.463 271.047a5.94 5.94 0 0 0-5.937 5.937 5.94 5.94 0 0 0 5.937 5.937 5.94 5.94 0 0 0 5.937-5.937 5.94 5.94 0 0 0-5.937-5.937"/></g><path d="M294.011 378.477h35.731v-35.731h-35.731zm37.388 1.657h-39.046v-39.045h39.046z" class="B"/><path d="M297.745 376.82h28.263a2.08 2.08 0 0 0 2.077-2.077v-28.262a2.08 2.08 0 0 0-2.077-2.078h-28.263a2.08 2.08 0 0 0-2.077 2.078v28.262a2.08 2.08 0 0 0 2.077 2.077" class="F"/><g clip-path="url(#c)" class="D B"><path d="M297.955 374.61h27.843c.043 0 .077-.035.077-.077v-27.842c0-.043-.034-.078-.077-.078h-27.843c-.042 0-.077.035-.077.078v27.842c0 .042.035.077.077.077"/></g><g class="E"><use xlink:href="#CD"/><use xlink:href="#CE"/><path d="M329.034 368.823h1.862v.478h-1.862v.398h-1.926v-1.274h1.926zm0-2.113h1.862v.479h-1.862v.398h-1.926v-1.275h1.926zm0-2.112h1.862v.478h-1.862v.398h-1.926V364.2h1.926zm0-2.113h1.862v.479h-1.862v.398h-1.926v-1.275h1.926zm0-2.112h1.862v.478h-1.862v.398h-1.926v-1.274h1.926z"/><use xlink:href="#CF"/><path d="M329.034 356.148h1.862v.478h-1.862v.398h-1.926v-1.274h1.926zm0-2.113h1.862v.479h-1.862v.397h-1.926v-1.274h1.926zm0-2.113h1.862v.478h-1.862v.398h-1.926v-1.274h1.926zm0-2.112h1.862v.479h-1.862v.397h-1.926v-1.274h1.926zm0-2.113h1.862v.478h-1.862v.398h-1.926v-1.274h1.926z"/></g><g clip-path="url(#d)" class="B N"><use xlink:href="#CD"/><use xlink:href="#CE"/><path d="M329.034 368.823h1.862v.478h-1.862v.398h-1.926v-1.274h1.926zm0-2.113h1.862v.479h-1.862v.398h-1.926v-1.275h1.926zm0-2.112h1.862v.478h-1.862v.398h-1.926V364.2h1.926zm0-2.113h1.862v.479h-1.862v.398h-1.926v-1.275h1.926zm0-2.112h1.862v.478h-1.862v.398h-1.926v-1.274h1.926z"/><use xlink:href="#CF"/><path d="M329.034 356.148h1.862v.478h-1.862v.398h-1.926v-1.274h1.926zm0-2.113h1.862v.479h-1.862v.397h-1.926v-1.274h1.926zm0-2.113h1.862v.478h-1.862v.398h-1.926v-1.274h1.926zm0-2.112h1.862v.479h-1.862v.397h-1.926v-1.274h1.926zm0-2.113h1.862v.478h-1.862v.398h-1.926v-1.274h1.926z"/></g><g class="E"><use xlink:href="#CG"/><use xlink:href="#CH"/><path d="M294.72 352.4h-1.862v-.478h1.862v-.398h1.926v1.274h-1.926zm0 2.113h-1.862v-.479h1.862v-.397h1.926v1.274h-1.926zm0 2.113h-1.862v-.478h1.862v-.398h1.926v1.274h-1.926zm0 2.112h-1.862v-.479h1.862v-.397h1.926v1.274h-1.926zm0 2.113h-1.862v-.478h1.862v-.398h1.926v1.274h-1.926zm0 2.112h-1.862v-.479h1.862v-.397h1.926v1.274h-1.926zm0 2.113h-1.862v-.478h1.862v-.398h1.926v1.274h-1.926zm0 2.113h-1.862v-.479h1.862v-.397h1.926v1.274h-1.926zm0 2.112h-1.862v-.478h1.862v-.398h1.926v1.274h-1.926zm0 2.113h-1.862v-.479h1.862v-.397h1.926v1.274h-1.926zm0 2.112h-1.862v-.478h1.862v-.398h1.926v1.274h-1.926z"/></g><g clip-path="url(#e)" class="B N"><use xlink:href="#CG"/><use xlink:href="#CH"/><path d="M294.72 352.4h-1.862v-.478h1.862v-.398h1.926v1.274h-1.926zm0 2.113h-1.862v-.479h1.862v-.397h1.926v1.274h-1.926zm0 2.113h-1.862v-.478h1.862v-.398h1.926v1.274h-1.926zm0 2.112h-1.862v-.479h1.862v-.397h1.926v1.274h-1.926zm0 2.113h-1.862v-.478h1.862v-.398h1.926v1.274h-1.926zm0 2.112h-1.862v-.479h1.862v-.397h1.926v1.274h-1.926zm0 2.113h-1.862v-.478h1.862v-.398h1.926v1.274h-1.926zm0 2.113h-1.862v-.479h1.862v-.397h1.926v1.274h-1.926zm0 2.112h-1.862v-.478h1.862v-.398h1.926v1.274h-1.926zm0 2.113h-1.862v-.479h1.862v-.397h1.926v1.274h-1.926zm0 2.112h-1.862v-.478h1.862v-.398h1.926v1.274h-1.926z"/></g><g class="E"><use xlink:href="#CI"/><use xlink:href="#CJ"/><path d="M320.088 343.455v-1.862h.478v1.862h.398v1.926h-1.274v-1.926zm-2.113 0v-1.862h.479v1.862h.397v1.926h-1.274v-1.926zm-2.112 0v-1.862h.478v1.862h.398v1.926h-1.274v-1.926zm-2.113 0v-1.862h.479v1.862h.397v1.926h-1.274v-1.926zm-2.112 0v-1.862h.478v1.862h.398v1.926h-1.274v-1.926zm-2.113 0v-1.862h.479v1.862h.397v1.926h-1.274v-1.926zm-2.112 0v-1.862h.478v1.862h.398v1.926h-1.274v-1.926zm-2.113 0v-1.862h.479v1.862h.397v1.926h-1.274v-1.926zm-2.112 0v-1.862h.478v1.862h.398v1.926h-1.274v-1.926zm-2.113 0v-1.862h.479v1.862h.397v1.926h-1.274v-1.926zm-2.113 0v-1.862h.478v1.862h.398v1.926h-1.274v-1.926z"/></g><g clip-path="url(#f)" class="B N"><use xlink:href="#CI"/><use xlink:href="#CJ"/><path d="M320.088 343.455v-1.862h.478v1.862h.398v1.926h-1.274v-1.926zm-2.113 0v-1.862h.479v1.862h.397v1.926h-1.274v-1.926zm-2.112 0v-1.862h.478v1.862h.398v1.926h-1.274v-1.926zm-2.113 0v-1.862h.479v1.862h.397v1.926h-1.274v-1.926zm-2.112 0v-1.862h.478v1.862h.398v1.926h-1.274v-1.926zm-2.113 0v-1.862h.479v1.862h.397v1.926h-1.274v-1.926zm-2.112 0v-1.862h.478v1.862h.398v1.926h-1.274v-1.926zm-2.113 0v-1.862h.479v1.862h.397v1.926h-1.274v-1.926zm-2.112 0v-1.862h.478v1.862h.398v1.926h-1.274v-1.926zm-2.113 0v-1.862h.479v1.862h.397v1.926h-1.274v-1.926zm-2.113 0v-1.862h.478v1.862h.398v1.926h-1.274v-1.926z"/></g><g class="E"><use xlink:href="#CK"/><use xlink:href="#CL"/><path d="M303.666 377.769v1.862h-.478v-1.862h-.398v-1.926h1.274v1.926zm2.112 0v1.862h-.479v-1.862h-.398v-1.926h1.275v1.926zm2.113 0v1.862h-.478v-1.862h-.398v-1.926h1.274v1.926zm2.112 0v1.862h-.479v-1.862h-.398v-1.926h1.275v1.926zm2.113 0v1.862h-.478v-1.862h-.398v-1.926h1.274v1.926zm2.113 0v1.862h-.479v-1.862h-.398v-1.926h1.275v1.926zm2.112 0v1.862h-.478v-1.862h-.398v-1.926h1.274v1.926zm2.113 0v1.862h-.479v-1.862h-.398v-1.926h1.275v1.926zm2.112 0v1.862h-.478v-1.862h-.398v-1.926h1.274v1.926zm2.113 0v1.862h-.479v-1.862h-.398v-1.926h1.275v1.926zm2.112 0v1.862h-.478v-1.862h-.398v-1.926h1.274v1.926z"/></g><g clip-path="url(#g)" class="B N"><use xlink:href="#CK"/><use xlink:href="#CL"/><path d="M303.666 377.769v1.862h-.478v-1.862h-.398v-1.926h1.274v1.926zm2.112 0v1.862h-.479v-1.862h-.398v-1.926h1.275v1.926zm2.113 0v1.862h-.478v-1.862h-.398v-1.926h1.274v1.926zm2.112 0v1.862h-.479v-1.862h-.398v-1.926h1.275v1.926zm2.113 0v1.862h-.478v-1.862h-.398v-1.926h1.274v1.926zm2.113 0v1.862h-.479v-1.862h-.398v-1.926h1.275v1.926zm2.112 0v1.862h-.478v-1.862h-.398v-1.926h1.274v1.926zm2.113 0v1.862h-.479v-1.862h-.398v-1.926h1.275v1.926zm2.112 0v1.862h-.478v-1.862h-.398v-1.926h1.274v1.926zm2.113 0v1.862h-.479v-1.862h-.398v-1.926h1.275v1.926zm2.112 0v1.862h-.478v-1.862h-.398v-1.926h1.274v1.926z"/></g><path d="M347.285 254.479h35.731v-35.73h-35.731zm37.388 1.657h-39.045V217.09h39.045z" class="B"/><path d="M351.019 252.821h28.263a2.08 2.08 0 0 0 2.077-2.077v-28.263c0-1.146-.93-2.076-2.077-2.076h-28.263c-1.147 0-2.077.93-2.077 2.076v28.263a2.08 2.08 0 0 0 2.077 2.077" class="F"/><g clip-path="url(#h)" class="D B"><path d="M351.229 250.611h27.843c.043 0 .077-.034.077-.077v-27.843c0-.042-.034-.077-.077-.077h-27.843c-.042 0-.077.035-.077.077v27.843c0 .043.035.077.077.077"/></g><g class="E"><use xlink:href="#CM"/><path d="M382.307 246.937h1.862v.479h-1.862v.398h-1.926v-1.275h1.926zm0-2.113h1.862v.479h-1.862v.397h-1.926v-1.274h1.926zm0-2.112h1.862v.478h-1.862v.398h-1.926v-1.274h1.926zm0-2.113h1.862v.479h-1.862v.398h-1.926v-1.274h1.926zm0-2.113h1.862v.479h-1.862v.398h-1.926v-1.275h1.926zm0-2.112h1.862v.479h-1.862v.397h-1.926v-1.274h1.926zm0-2.112h1.862v.478h-1.862v.398h-1.926v-1.274h1.926zm0-2.114h1.862v.479h-1.862v.398h-1.926v-1.274h1.926zm0-2.112h1.862v.479h-1.862v.398h-1.926v-1.275h1.926zm0-2.112h1.862v.479h-1.862v.397h-1.926v-1.274h1.926zm0-2.112h1.862v.478h-1.862v.398h-1.926v-1.274h1.926zm0-2.114h1.862v.479h-1.862v.398h-1.926v-1.274h1.926z"/></g><g clip-path="url(#i)" class="B N"><use xlink:href="#CM"/><path d="M382.307 246.937h1.862v.479h-1.862v.398h-1.926v-1.275h1.926zm0-2.113h1.862v.479h-1.862v.397h-1.926v-1.274h1.926zm0-2.112h1.862v.478h-1.862v.398h-1.926v-1.274h1.926zm0-2.113h1.862v.479h-1.862v.398h-1.926v-1.274h1.926zm0-2.113h1.862v.479h-1.862v.398h-1.926v-1.275h1.926zm0-2.112h1.862v.479h-1.862v.397h-1.926v-1.274h1.926zm0-2.112h1.862v.478h-1.862v.398h-1.926v-1.274h1.926zm0-2.114h1.862v.479h-1.862v.398h-1.926v-1.274h1.926zm0-2.112h1.862v.479h-1.862v.398h-1.926v-1.275h1.926zm0-2.112h1.862v.479h-1.862v.397h-1.926v-1.274h1.926zm0-2.112h1.862v.478h-1.862v.398h-1.926v-1.274h1.926zm0-2.114h1.862v.479h-1.862v.398h-1.926v-1.274h1.926z"/></g><g class="E"><path d="M347.993 224.177h-1.862v-.479h1.862v-.397h1.926v1.274h-1.926zm0 2.112h-1.862v-.478h1.862v-.398h1.926v1.274h-1.926z"/><use xlink:href="#CN"/><use xlink:href="#CO"/><path d="M347.993 232.627h-1.862v-.479h1.862v-.397h1.926v1.274h-1.926zm0 2.112h-1.862v-.478h1.862v-.398h1.926v1.274h-1.926zm0 2.114h-1.862v-.479h1.862v-.398h1.926v1.274h-1.926zm0 2.112h-1.862v-.479h1.862v-.398h1.926v1.275h-1.926zm0 2.112h-1.862v-.479h1.862v-.397h1.926v1.274h-1.926zm0 2.113h-1.862v-.478h1.862v-.398h1.926v1.274h-1.926zm0 2.113h-1.862v-.479h1.862v-.398h1.926v1.274h-1.926zm0 2.112h-1.862v-.479h1.862v-.398h1.926v1.275h-1.926zm0 2.112h-1.862v-.479h1.862v-.397h1.926v1.274h-1.926z"/></g><g clip-path="url(#j)" class="B N"><path d="M347.993 224.177h-1.862v-.479h1.862v-.397h1.926v1.274h-1.926zm0 2.112h-1.862v-.478h1.862v-.398h1.926v1.274h-1.926z"/><use xlink:href="#CN"/><use xlink:href="#CO"/><path d="M347.993 232.627h-1.862v-.479h1.862v-.397h1.926v1.274h-1.926zm0 2.112h-1.862v-.478h1.862v-.398h1.926v1.274h-1.926zm0 2.114h-1.862v-.479h1.862v-.398h1.926v1.274h-1.926zm0 2.112h-1.862v-.479h1.862v-.398h1.926v1.275h-1.926zm0 2.112h-1.862v-.479h1.862v-.397h1.926v1.274h-1.926zm0 2.113h-1.862v-.478h1.862v-.398h1.926v1.274h-1.926zm0 2.113h-1.862v-.479h1.862v-.398h1.926v1.274h-1.926zm0 2.112h-1.862v-.479h1.862v-.398h1.926v1.275h-1.926zm0 2.112h-1.862v-.479h1.862v-.397h1.926v1.274h-1.926z"/></g><g class="E"><path d="M377.586 219.456v-1.862h.478v1.862h.398v1.926h-1.274v-1.926zm-2.112 0v-1.862h.479v1.862h.397v1.926h-1.274v-1.926zm-2.113 0v-1.862h.478v1.862h.398v1.926h-1.274v-1.926zm-2.112 0v-1.862h.479v1.862h.397v1.926h-1.274v-1.926zm-2.113 0v-1.862h.478v1.862h.398v1.926h-1.274v-1.926zm-2.113 0v-1.862h.479v1.862h.397v1.926h-1.274v-1.926zm-2.112 0v-1.862h.478v1.862h.398v1.926h-1.274v-1.926zm-2.113 0v-1.862h.479v1.862h.397v1.926H362.4v-1.926zm-2.112 0v-1.862h.478v1.862h.398v1.926h-1.274v-1.926zm-2.113 0v-1.862h.479v1.862h.397v1.926h-1.274v-1.926zm-2.112 0v-1.862h.478v1.862h.398v1.926h-1.274v-1.926zm-2.113 0v-1.862h.479v1.862h.397v1.926h-1.274v-1.926zm-2.112 0v-1.862h.478v1.862h.398v1.926h-1.274v-1.926z"/></g><g clip-path="url(#k)" class="B N"><path d="M377.586 219.456v-1.862h.478v1.862h.398v1.926h-1.274v-1.926zm-2.112 0v-1.862h.479v1.862h.397v1.926h-1.274v-1.926zm-2.113 0v-1.862h.478v1.862h.398v1.926h-1.274v-1.926zm-2.112 0v-1.862h.479v1.862h.397v1.926h-1.274v-1.926zm-2.113 0v-1.862h.478v1.862h.398v1.926h-1.274v-1.926zm-2.113 0v-1.862h.479v1.862h.397v1.926h-1.274v-1.926zm-2.112 0v-1.862h.478v1.862h.398v1.926h-1.274v-1.926zm-2.113 0v-1.862h.479v1.862h.397v1.926H362.4v-1.926zm-2.112 0v-1.862h.478v1.862h.398v1.926h-1.274v-1.926zm-2.113 0v-1.862h.479v1.862h.397v1.926h-1.274v-1.926zm-2.112 0v-1.862h.478v1.862h.398v1.926h-1.274v-1.926zm-2.113 0v-1.862h.479v1.862h.397v1.926h-1.274v-1.926zm-2.112 0v-1.862h.478v1.862h.398v1.926h-1.274v-1.926z"/></g><g class="E"><use xlink:href="#CP"/><use xlink:href="#CQ"/><path d="M356.939 253.771v1.861h-.478v-1.861h-.398v-1.927h1.274v1.927zm2.113 0v1.861h-.479v-1.861h-.397v-1.927h1.274v1.927zm2.112 0v1.861h-.478v-1.861h-.398v-1.927h1.274v1.927zm2.113 0v1.861h-.479v-1.861h-.397v-1.927h1.274v1.927zm2.112 0v1.861h-.478v-1.861h-.398v-1.927h1.274v1.927zm2.113 0v1.861h-.479v-1.861h-.397v-1.927h1.274v1.927zm2.112 0v1.861h-.478v-1.861h-.398v-1.927h1.274v1.927zm2.113 0v1.861h-.479v-1.861h-.397v-1.927h1.274v1.927zm2.112 0v1.861h-.478v-1.861h-.398v-1.927h1.274v1.927zm2.113 0v1.861h-.479v-1.861h-.397v-1.927h1.274v1.927zm2.113 0v1.861h-.478v-1.861h-.398v-1.927h1.274v1.927z"/></g><g clip-path="url(#l)" class="B N"><use xlink:href="#CP"/><use xlink:href="#CQ"/><path d="M356.939 253.771v1.861h-.478v-1.861h-.398v-1.927h1.274v1.927zm2.113 0v1.861h-.479v-1.861h-.397v-1.927h1.274v1.927zm2.112 0v1.861h-.478v-1.861h-.398v-1.927h1.274v1.927zm2.113 0v1.861h-.479v-1.861h-.397v-1.927h1.274v1.927zm2.112 0v1.861h-.478v-1.861h-.398v-1.927h1.274v1.927zm2.113 0v1.861h-.479v-1.861h-.397v-1.927h1.274v1.927zm2.112 0v1.861h-.478v-1.861h-.398v-1.927h1.274v1.927zm2.113 0v1.861h-.479v-1.861h-.397v-1.927h1.274v1.927zm2.112 0v1.861h-.478v-1.861h-.398v-1.927h1.274v1.927zm2.113 0v1.861h-.479v-1.861h-.397v-1.927h1.274v1.927zm2.113 0v1.861h-.478v-1.861h-.398v-1.927h1.274v1.927z"/></g><g clip-path="url(#m)" class="D"><path d="M271.998 352.044h3.205v-32.671h-3.205z"/></g><g clip-path="url(#n)" class="D"><path d="M271.998 302.733h3.205v-45.827h-3.205z"/></g><g clip-path="url(#o)" class="I"><g clip-path="url(#p)" class="C"><use xlink:href="#CR"/></g><g clip-path="url(#q)" class="C"><path d="M262.509 349.422h7.686v-1.202h-7.686z"/></g><g clip-path="url(#r)" class="C"><path d="M262.509 346.8h7.686v-1.202h-7.686z"/></g><g clip-path="url(#s)" class="C"><path d="M262.509 344.177h7.686v-1.202h-7.686z"/></g><g clip-path="url(#t)" class="C"><path d="M262.509 341.555h7.686v-1.202h-7.686z"/></g><g clip-path="url(#u)" class="C"><path d="M262.509 338.932h7.686v-1.202h-7.686z"/></g><g clip-path="url(#v)" class="C"><path d="M262.509 336.31h7.686v-1.202h-7.686z"/></g><g clip-path="url(#w)" class="C"><path d="M262.509 333.687h7.686v-1.202h-7.686z"/></g><g clip-path="url(#x)" class="C"><path d="M262.509 331.065h7.686v-1.202h-7.686z"/></g><g clip-path="url(#y)" class="C"><path d="M262.509 328.442h7.686v-1.202h-7.686z"/></g><g clip-path="url(#z)" class="C"><path d="M262.509 325.82h7.686v-1.202h-7.686z"/></g><g clip-path="url(#AA)" class="C"><path d="M262.509 323.197h7.686v-1.202h-7.686z"/></g><g clip-path="url(#AB)" class="C"><path d="M262.509 320.575h7.686v-1.202h-7.686z"/></g></g><g clip-path="url(#AC)" class="I"><g clip-path="url(#AD)" class="C"><use xlink:href="#CS"/></g><g clip-path="url(#AE)" class="C"><path d="M262.509 299.054h7.686v-1.686h-7.686z"/></g><g clip-path="url(#AF)" class="C"><path d="M262.509 295.376h7.686v-1.686h-7.686z"/></g><g clip-path="url(#AG)" class="C"><path d="M262.509 291.697h7.686v-1.686h-7.686z"/></g><g clip-path="url(#AH)" class="C"><path d="M262.509 288.019h7.686v-1.686h-7.686z"/></g><g clip-path="url(#AI)" class="C"><path d="M262.509 284.341h7.686v-1.686h-7.686z"/></g><g clip-path="url(#AJ)" class="C"><path d="M262.509 280.662h7.686v-1.686h-7.686z"/></g><g clip-path="url(#AK)" class="C"><path d="M262.509 276.984h7.686v-1.686h-7.686z"/></g><g clip-path="url(#AL)" class="C"><path d="M262.509 273.306h7.686v-1.686h-7.686z"/></g><g clip-path="url(#AM)" class="C"><path d="M262.509 269.627h7.686v-1.686h-7.686z"/></g><g clip-path="url(#AN)" class="C"><path d="M262.509 265.949h7.686v-1.687h-7.686z"/></g><g clip-path="url(#AO)" class="C"><path d="M262.509 262.271h7.686v-1.686h-7.686z"/></g><g clip-path="url(#AP)" class="C"><path d="M262.509 258.592h7.686v-1.686h-7.686z"/></g></g><g stroke="#fff" class="L M"><path d="M292.879 372.13h-8.343l-9.508 8.004v16.801m17.851-20.115h-1.713l-3.62 3.314v16.801m5.333-29.495h-17.181m17.181-4.689h-17.181m17.181-4.69h-17.181m17.181-4.69h-7.238l-8.289-11.048h-2.759m18.286 6.358h-7.238l-8.289-11.048h-2.759m18.286 6.359h-7.238l-8.289-11.048h-2.759"/><g class="J"><use xlink:href="#CT"/><path d="M275.028 357.392a.67.67 0 0 0-.669.669.67.67 0 0 0 .669.669.67.67 0 0 0 .669-.669.67.67 0 0 0-.669-.669zm0 4.69a.67.67 0 0 0-.669.669.67.67 0 0 0 .669.669.67.67 0 0 0 .669-.669.67.67 0 0 0-.669-.669zm0 4.689a.67.67 0 0 0-.669.669.67.67 0 0 0 .669.669.67.67 0 0 0 .669-.669.67.67 0 0 0-.669-.669z"/><use xlink:href="#CU"/><path d="M287.545 396.935a.67.67 0 0 0-.669.669.67.67 0 0 0 .669.67.67.67 0 0 0 .669-.67.67.67 0 0 0-.669-.669zm-13.622-59.98a.67.67 0 0 0-.669.669.67.67 0 0 0 .669.67.67.67 0 0 0 .669-.67.67.67 0 0 0-.669-.669zm0-4.681a.67.67 0 0 0-.669.669.67.67 0 0 0 .669.669.67.67 0 0 0 .669-.669.67.67 0 0 0-.669-.669z"/></g></g><g clip-path="url(#AQ)" class="D"><path d="M278.991 395.71h4.963v-13.703h-4.963z"/></g><path d="M352.711 392.857h3.588v-64.688h-3.588z" class="F"/><g stroke="#fff" class="L M"><g class="J"><path d="M354.505 389.636a.67.67 0 0 0-.669.669.67.67 0 0 0 .669.669.67.67 0 0 0 .669-.669.67.67 0 0 0-.669-.669zm0-6.602a.67.67 0 0 0-.669.669.67.67 0 0 0 .669.67.67.67 0 0 0 .669-.67.67.67 0 0 0-.669-.669zm0-6.602a.67.67 0 0 0-.669.669.67.67 0 0 0 .669.669.67.67 0 0 0 .669-.669.67.67 0 0 0-.669-.669zm0-6.602a.67.67 0 0 0-.669.669.67.67 0 0 0 .669.669.67.67 0 0 0 .669-.669.67.67 0 0 0-.669-.669zm0-6.602a.67.67 0 0 0-.669.669.67.67 0 0 0 .669.669.67.67 0 0 0 .669-.669.67.67 0 0 0-.669-.669zm0-6.602a.67.67 0 0 0-.669.669.67.67 0 0 0 .669.67.67.67 0 0 0 .669-.67.67.67 0 0 0-.669-.669zm0-6.602a.67.67 0 0 0-.669.669.67.67 0 0 0 .669.669.67.67 0 0 0 .669-.669.67.67 0 0 0-.669-.669zm0-6.602a.67.67 0 0 0-.669.669.67.67 0 0 0 .669.669.67.67 0 0 0 .669-.669.67.67 0 0 0-.669-.669zm0-6.602a.67.67 0 0 0-.669.669.67.67 0 0 0 .669.67.67.67 0 0 0 .669-.67.67.67 0 0 0-.669-.669zm0-6.602a.67.67 0 0 0-.669.669.67.67 0 0 0 .669.67.67.67 0 0 0 .669-.67.67.67 0 0 0-.669-.669z"/></g><path d="M353.836 383.703h-2.582l-7.94-10.416h-12.419m22.941 3.814h-2.582l-7.94-7.347h-12.419m22.941.746h-2.582l-7.94-4.278h-12.419m22.941-2.324h-2.582l-7.94-1.209h-12.419m22.941-5.394h-2.582l-7.94 1.86h-12.419m22.941-8.462h-2.582l-7.94 4.929h-12.419m22.941-11.53h-2.582l-7.94 7.998h-12.419m22.941-14.6h-2.582l-7.94 11.067h-12.419m22.941-17.669h-2.582l-7.94 14.136h-12.419m22.941 45.281h-2.582l-7.94-13.485h-12.419m50.937-159.226v-17.841m-4.17 17.841v-17.841m-4.171 17.841v-17.841m-4.17 17.841v-17.841m-4.171 17.841v-17.841m-4.17 17.841v-17.841m-4.171 17.841v-17.841m-4.17 17.841v-17.841m-4.171 17.841v-17.841m-2.109 24.349h-6.793l-6.098-6.508v-17.841m12.891 28.52h-10.107l-8.059-10.679v-17.841m18.166 32.689h-14.527l-8.914-14.849v-17.84m23.441 36.86h-17.841l-10.876-19.02v-17.84m28.717 41.03h-28.89m28.89 4.171h-28.89m28.89 4.171h-28.89m21.275-49.372v17.841l3.032 2.337h4.583"/><g class="J"><use xlink:href="#CV"/><path d="M316.8 244.285a.67.67 0 0 0-.669.669.67.67 0 0 0 .669.669.67.67 0 0 0 .669-.669.67.67 0 0 0-.669-.669zm0-4.171a.67.67 0 0 0-.669.669.67.67 0 0 0 .669.67.67.67 0 0 0 .669-.67.67.67 0 0 0-.669-.669zm.842-41.7a.67.67 0 0 0-.669.669.67.67 0 0 0 .669.67.67.67 0 0 0 .669-.67.67.67 0 0 0-.669-.669zm5.276 0a.67.67 0 0 0-.669.669.67.67 0 0 0 .669.67.67.67 0 0 0 .669-.67.67.67 0 0 0-.669-.669zm5.275 0a.67.67 0 0 0-.669.669.67.67 0 0 0 .669.67.67.67 0 0 0 .669-.67.67.67 0 0 0-.669-.669zm5.275 0a.67.67 0 0 0-.669.669.67.67 0 0 0 .669.67.67.67 0 0 0 .669-.67.67.67 0 0 0-.669-.669zm5.276 0a.67.67 0 0 0-.669.669.67.67 0 0 0 .669.67.67.67 0 0 0 .669-.67.67.67 0 0 0-.669-.669zm9.724 0a.67.67 0 0 0-.669.669.67.67 0 0 0 .669.67.67.67 0 0 0 .669-.67.67.67 0 0 0-.669-.669zm4.171 0a.67.67 0 0 0-.669.669.67.67 0 0 0 .669.67.67.67 0 0 0 .669-.67.67.67 0 0 0-.669-.669zm4.17 0a.67.67 0 0 0-.669.669.67.67 0 0 0 .669.67.67.67 0 0 0 .669-.67.67.67 0 0 0-.669-.669zm4.171 0a.67.67 0 0 0-.669.669.67.67 0 0 0 .669.67.67.67 0 0 0 .669-.67.67.67 0 0 0-.669-.669zm4.17 0a.67.67 0 0 0-.669.669.67.67 0 0 0 .669.67.67.67 0 0 0 .669-.67.67.67 0 0 0-.669-.669zm4.171 0a.67.67 0 0 0-.669.669.67.67 0 0 0 .669.67.67.67 0 0 0 .669-.67.67.67 0 0 0-.669-.669zm4.17 0a.67.67 0 0 0-.669.669.67.67 0 0 0 .669.67.67.67 0 0 0 .669-.67.67.67 0 0 0-.669-.669zm4.171 0a.67.67 0 0 0-.669.669.67.67 0 0 0 .669.67.67.67 0 0 0 .669-.67.67.67 0 0 0-.669-.669zm4.17 0a.67.67 0 0 0-.669.669.67.67 0 0 0 .669.67.67.67 0 0 0 .669-.67.67.67 0 0 0-.669-.669zM273.6 299.708a.67.67 0 0 0-.669.669.67.67 0 0 0 .669.67.67.67 0 0 0 .669-.67.67.67 0 0 0-.669-.669zm0-3.678a.67.67 0 0 0-.669.669.67.67 0 0 0 .669.669.67.67 0 0 0 .669-.669.67.67 0 0 0-.669-.669zm0-3.678a.67.67 0 0 0-.669.669.67.67 0 0 0 .669.669.67.67 0 0 0 .669-.669.67.67 0 0 0-.669-.669zm0-3.679a.67.67 0 0 0-.669.669.67.67 0 0 0 .669.67.67.67 0 0 0 .669-.67.67.67 0 0 0-.669-.669zm0-3.678a.67.67 0 0 0-.669.669.67.67 0 0 0 .669.669.67.67 0 0 0 .669-.669.67.67 0 0 0-.669-.669zm0-3.679a.67.67 0 0 0-.669.669.67.67 0 0 0 .669.669.67.67 0 0 0 .669-.669.67.67 0 0 0-.669-.669zm0-3.678a.67.67 0 0 0-.669.669.67.67 0 0 0 .669.67.67.67 0 0 0 .669-.67.67.67 0 0 0-.669-.669zm0-3.678a.67.67 0 0 0-.669.669.67.67 0 0 0 .669.669.67.67 0 0 0 .669-.669.67.67 0 0 0-.669-.669zm0-3.679a.67.67 0 0 0-.669.669.67.67 0 0 0 .669.669.67.67 0 0 0 .669-.669.67.67 0 0 0-.669-.669zm0-3.678a.67.67 0 0 0-.669.67.67.67 0 0 0 .669.669.67.67 0 0 0 .669-.669.67.67 0 0 0-.669-.67zm0-3.679a.67.67 0 0 0-.669.67.67.67 0 0 0 .669.669.67.67 0 0 0 .669-.669.67.67 0 0 0-.669-.67zm0-3.678a.67.67 0 0 0-.669.669.67.67 0 0 0 .669.67.67.67 0 0 0 .669-.67.67.67 0 0 0-.669-.669zm7.734 40.462a.67.67 0 0 0-.669.669.67.67 0 0 0 .669.67.67.67 0 0 0 .669-.67.67.67 0 0 0-.669-.669zm0-3.678a.67.67 0 0 0-.669.669.67.67 0 0 0 .669.669.67.67 0 0 0 .669-.669.67.67 0 0 0-.669-.669zm0-3.678a.67.67 0 0 0-.669.669.67.67 0 0 0 .669.669.67.67 0 0 0 .669-.669.67.67 0 0 0-.669-.669zm0-3.679a.67.67 0 0 0-.669.669.67.67 0 0 0 .669.67.67.67 0 0 0 .669-.67.67.67 0 0 0-.669-.669zm0-3.678a.67.67 0 0 0-.669.669.67.67 0 0 0 .669.669.67.67 0 0 0 .669-.669.67.67 0 0 0-.669-.669zm0-3.679a.67.67 0 0 0-.669.669.67.67 0 0 0 .669.669.67.67 0 0 0 .669-.669.67.67 0 0 0-.669-.669zm0-3.678a.67.67 0 0 0-.669.669.67.67 0 0 0 .669.67.67.67 0 0 0 .669-.67.67.67 0 0 0-.669-.669zm0-3.678a.67.67 0 0 0-.669.669.67.67 0 0 0 .669.669.67.67 0 0 0 .669-.669.67.67 0 0 0-.669-.669zm0-3.679a.67.67 0 0 0-.669.669.67.67 0 0 0 .669.669.67.67 0 0 0 .669-.669.67.67 0 0 0-.669-.669zm0-3.678a.67.67 0 0 0-.669.67.67.67 0 0 0 .669.669.67.67 0 0 0 .669-.669.67.67 0 0 0-.669-.67zm0-3.679a.67.67 0 0 0-.669.67.67.67 0 0 0 .669.669.67.67 0 0 0 .669-.669.67.67 0 0 0-.669-.67zm0-3.678a.67.67 0 0 0-.669.669.67.67 0 0 0 .669.67.67.67 0 0 0 .669-.67.67.67 0 0 0-.669-.669z"/></g><path d="M280.665 300.377h-6.396m6.396-40.462h-6.396"/><path d="M280.665 263.594h-6.396m6.396 3.679h-6.396m6.396 3.677h-6.396m6.396 3.679h-6.396m6.396 3.678h-6.396m6.396 3.678h-6.396m6.396 3.679h-6.396m6.396 3.678h-6.396m6.396 3.679h-6.396m6.396 3.678h-6.396"/><g class="J"><path d="M378.828 302.142a.67.67 0 0 0-.669.669.67.67 0 0 0 .669.669.67.67 0 0 0 .669-.669.67.67 0 0 0-.669-.669zm0-3.679a.67.67 0 0 0-.669.669.67.67 0 0 0 .669.669.67.67 0 0 0 .669-.669.67.67 0 0 0-.669-.669zm0-3.678a.67.67 0 0 0-.669.669.67.67 0 0 0 .669.67.67.67 0 0 0 .669-.67.67.67 0 0 0-.669-.669zm13.258 7.357a.67.67 0 0 0-.669.669.67.67 0 0 0 .669.669.67.67 0 0 0 .669-.669.67.67 0 0 0-.669-.669zm0-3.679a.67.67 0 0 0-.669.669.67.67 0 0 0 .669.669.67.67 0 0 0 .669-.669.67.67 0 0 0-.669-.669zm0-3.678a.67.67 0 0 0-.669.669.67.67 0 0 0 .669.67.67.67 0 0 0 .669-.67.67.67 0 0 0-.669-.669z"/></g><path d="M391.417 302.811h-11.919m11.919-7.357h-11.919"/><path d="M391.417 299.132h-11.919"/><g class="J"><use xlink:href="#CW"/><use xlink:href="#CX"/><path d="M328.039 387.107a.67.67 0 0 0 .669.669.67.67 0 0 0 .67-.669.67.67 0 0 0-.67-.669.67.67 0 0 0-.669.669zm-4.495 0a.67.67 0 0 0 .669.669.67.67 0 0 0 .669-.669.67.67 0 0 0-.669-.669.67.67 0 0 0-.669.669zm-4.496 0a.67.67 0 0 0 .669.669.67.67 0 0 0 .669-.669.67.67 0 0 0-.669-.669.67.67 0 0 0-.669.669zm-4.496 0a.67.67 0 0 0 .669.669.67.67 0 0 0 .67-.669.67.67 0 0 0-.67-.669.67.67 0 0 0-.669.669zm-4.496 0a.67.67 0 0 0 .669.669.67.67 0 0 0 .669-.669.67.67 0 0 0-.669-.669.67.67 0 0 0-.669.669zm-4.496 0a.67.67 0 0 0 .669.669.67.67 0 0 0 .67-.669.67.67 0 0 0-.67-.669.67.67 0 0 0-.669.669zm-4.495 0a.67.67 0 0 0 .669.669.67.67 0 0 0 .669-.669.67.67 0 0 0-.669-.669.67.67 0 0 0-.669.669zm-4.496 0a.67.67 0 0 0 .669.669.67.67 0 0 0 .669-.669.67.67 0 0 0-.669-.669.67.67 0 0 0-.669.669z"/><use xlink:href="#CY"/><path d="M305.717 396.817a.67.67 0 0 0-.669-.669.67.67 0 0 0-.669.669.67.67 0 0 0 .669.669.67.67 0 0 0 .669-.669zm4.496 0a.67.67 0 0 0-.669-.669.67.67 0 0 0-.669.669.67.67 0 0 0 .669.669.67.67 0 0 0 .669-.669zm4.496 0a.67.67 0 0 0-.669-.669.67.67 0 0 0-.669.669.67.67 0 0 0 .669.669.67.67 0 0 0 .669-.669z"/><use xlink:href="#CZ"/><path d="M323.701 396.817a.67.67 0 0 0-.669-.669.67.67 0 0 0-.669.669.67.67 0 0 0 .669.669.67.67 0 0 0 .669-.669zm4.495 0a.67.67 0 0 0-.669-.669.67.67 0 0 0-.669.669.67.67 0 0 0 .669.669.67.67 0 0 0 .669-.669zm4.496 0a.67.67 0 0 0-.669-.669.67.67 0 0 0-.669.669.67.67 0 0 0 .669.669.67.67 0 0 0 .669-.669zm4.496 0a.67.67 0 0 0-.669-.669.67.67 0 0 0-.669.669.67.67 0 0 0 .669.669.67.67 0 0 0 .669-.669zm4.496 0a.67.67 0 0 0-.669-.669.67.67 0 0 0-.67.669.67.67 0 0 0 .67.669.67.67 0 0 0 .669-.669z"/></g><use xlink:href="#Ca"/><path d="M341.015 396.148v-.871l-3.314-6.629v-.872m-1.182 8.372v-.871l-3.314-6.629v-.872m-1.182 8.372v-.871l-3.314-6.629v-.872m-1.182 8.372v-.871l-3.314-6.629v-.872m-1.181 8.372v-.871l-3.315-6.629v-.872m-1.181 8.372v-.871l-3.314-6.629v-.872m-1.182 8.372v-.871l-3.315-6.629v-.872m-1.181 8.372v-.871l-3.314-6.629v-.872m-1.182 8.372v-.871l-3.314-6.629v-.872"/><g class="J"><use xlink:href="#Cb"/><path d="M352.932 261.884a.67.67 0 0 0 .669.67.67.67 0 0 0 .669-.67.67.67 0 0 0-.669-.669.67.67 0 0 0-.669.669zm-4.495 0a.67.67 0 0 0 .669.67.67.67 0 0 0 .669-.67.67.67 0 0 0-.669-.669.67.67 0 0 0-.669.669zm-4.497 0a.67.67 0 0 0 .669.67.67.67 0 0 0 .67-.67.67.67 0 0 0-.67-.669.67.67 0 0 0-.669.669zm-4.495 0a.67.67 0 0 0 .669.67.67.67 0 0 0 .669-.67.67.67 0 0 0-.669-.669.67.67 0 0 0-.669.669zm4.653 9.71a.67.67 0 0 0-.669-.669.67.67 0 0 0-.669.669.67.67 0 0 0 .669.669.67.67 0 0 0 .669-.669zm4.496 0a.67.67 0 0 0-.669-.669.67.67 0 0 0-.67.669.67.67 0 0 0 .67.669.67.67 0 0 0 .669-.669zm4.495 0a.67.67 0 0 0-.669-.669.67.67 0 0 0-.669.669.67.67 0 0 0 .669.669.67.67 0 0 0 .669-.669zm4.496 0a.67.67 0 0 0-.669-.669.67.67 0 0 0-.669.669.67.67 0 0 0 .669.669.67.67 0 0 0 .669-.669zm4.496 0a.67.67 0 0 0-.669-.669.67.67 0 0 0-.669.669.67.67 0 0 0 .669.669.67.67 0 0 0 .669-.669z"/></g><path d="M361.412 270.925v-.871l-3.314-6.629v-.871m-1.182 8.371v-.871l-3.314-6.629v-.871m-1.182 8.371v-.871l-3.314-6.629v-.871m-1.182 8.371v-.871l-3.314-6.629v-.871m-1.181 8.371v-.871l-3.315-6.629v-.871"/></g><g clip-path="url(#AR)" class="D"><path d="M380.938 392.857h7.979v-7.979h-7.979z"/></g><g clip-path="url(#AS)" class="C B"><path d="M370.396 392.857h7.979v-7.979h-7.979z"/></g><g clip-path="url(#AT)" class="C B"><path d="M361.674 240.603h7.979v-7.979h-7.979z"/></g><g clip-path="url(#AU)" class="C B"><path d="M382.275 343.157h7.979v-14.203h-7.979z"/></g><g clip-path="url(#AV)" class="C B"><path d="M387.273 256.39h7.979v-14.203h-7.979z"/></g><g clip-path="url(#AW)" class="D"><path d="M379.163 321.799h14.204v-14.204h-14.204z"/></g><g clip-path="url(#AX)" class="D"><path d="M381.547 319.291h9.187v-9.187h-9.187z"/></g><g clip-path="url(#AY)" class="C B"><path d="M387.273 240.127h7.979v-14.203h-7.979z"/></g><g clip-path="url(#AZ)" class="D"><path d="M387.273 223.864h7.979v-14.203h-7.979z"/></g><g clip-path="url(#Aa)" class="D"><path d="M375.713 333.344h4.39v-4.39h-4.39z"/></g><g clip-path="url(#Ab)" class="D"><path d="M382.478 391.062h4.39v-4.39h-4.39z"/></g><g clip-path="url(#Ac)" class="D"><path d="M365.068 333.344h4.39v-4.39h-4.39z"/></g><g clip-path="url(#Ad)" class="C B"><path d="M300.208 372.147h4.39v-4.39h-4.39z"/></g><g clip-path="url(#Ae)" class="C B"><path d="M294.508 257.827h4.39v-4.39h-4.39z"/></g><g clip-path="url(#Af)" class="C B"><path d="M288.572 257.827h4.39v-4.39h-4.39z"/></g><g clip-path="url(#Ag)" class="D"><path d="M358.489 333.344h4.39v-4.39h-4.39z"/></g><g stroke="#fff" class="L M"><g class="J"><path d="M327.76 334.435a.67.67 0 0 0 .669.669.67.67 0 0 0 .669-.669.67.67 0 0 0-.669-.669.67.67 0 0 0-.669.669zm-3.678 0a.67.67 0 0 0 .669.669.67.67 0 0 0 .67-.669.67.67 0 0 0-.67-.669.67.67 0 0 0-.669.669zm-3.679 0a.67.67 0 0 0 .669.669.67.67 0 0 0 .669-.669.67.67 0 0 0-.669-.669.67.67 0 0 0-.669.669zm-3.678 0a.67.67 0 0 0 .669.669.67.67 0 0 0 .669-.669.67.67 0 0 0-.669-.669.67.67 0 0 0-.669.669zm-3.679 0a.67.67 0 0 0 .669.669.67.67 0 0 0 .67-.669.67.67 0 0 0-.67-.669.67.67 0 0 0-.669.669zm-3.678 0a.67.67 0 0 0 .669.669.67.67 0 0 0 .669-.669.67.67 0 0 0-.669-.669.67.67 0 0 0-.669.669zm-3.678 0a.67.67 0 0 0 .669.669.67.67 0 0 0 .669-.669.67.67 0 0 0-.669-.669.67.67 0 0 0-.669.669zm-3.679 0a.67.67 0 0 0 .669.669.67.67 0 0 0 .67-.669.67.67 0 0 0-.67-.669.67.67 0 0 0-.669.669zm-3.678 0a.67.67 0 0 0 .669.669.67.67 0 0 0 .669-.669.67.67 0 0 0-.669-.669.67.67 0 0 0-.669.669zm-3.678 0a.67.67 0 0 0 .669.669.67.67 0 0 0 .669-.669.67.67 0 0 0-.669-.669.67.67 0 0 0-.669.669z"/></g><path d="M328.429 335.105v6.396m-33.105-6.396v6.396m3.678-6.396v6.396m3.679-6.396v6.396m3.678-6.396v6.396m3.679-6.396v6.396m3.678-6.396v6.396m3.678-6.396v6.396m3.679-6.396v6.396m3.678-6.396v6.396"/><g class="J"><use xlink:href="#Cc"/><path d="M354.45 297.712a.67.67 0 0 0 0 .947.67.67 0 0 0 .946 0 .67.67 0 0 0 0-.947.67.67 0 0 0-.946 0zm-2.601-2.6a.67.67 0 0 0 0 .946.67.67 0 0 0 .946 0 .67.67 0 0 0 0-.946.67.67 0 0 0-.946 0z"/><use xlink:href="#Cd"/><path d="M346.647 289.91a.67.67 0 0 0 0 .946.67.67 0 0 0 .947 0 .67.67 0 0 0 0-.946.67.67 0 0 0-.947 0zm-2.602-2.601a.67.67 0 0 0 0 .946.67.67 0 0 0 .947 0 .67.67 0 0 0 0-.946.67.67 0 0 0-.947 0zm-2.601-2.601a.67.67 0 0 0 0 .946.67.67 0 0 0 .947 0 .67.67 0 0 0 0-.946.67.67 0 0 0-.947 0zm-2.601-2.602a.67.67 0 0 0 0 .947.67.67 0 0 0 .947 0 .67.67 0 0 0 0-.947.67.67 0 0 0-.947 0zm-2.6-2.601a.67.67 0 0 0 0 .947.67.67 0 0 0 .946 0 .67.67 0 0 0 0-.947.67.67 0 0 0-.946 0zm-2.601-2.601a.67.67 0 0 0 0 .947.67.67 0 0 0 .946 0 .67.67 0 0 0 0-.947.67.67 0 0 0-.946 0z"/></g><path d="M336.243 280.452l-14.064 9.316h-6.396m23.06-6.715l-16.665 10.393h-6.396m25.662-7.792l-19.266 11.471h-6.396m28.263-8.87l-21.867 12.548h-6.396"/><g class="J"><use xlink:href="#Ce"/><use xlink:href="#Cf"/><path d="M315.114 294.116a.67.67 0 0 0 .669-.669.67.67 0 0 0-.669-.669.67.67 0 0 0-.669.669.67.67 0 0 0 .669.669zm0 3.678a.67.67 0 0 0 .669-.669.67.67 0 0 0-.669-.669.67.67 0 0 0-.669.669.67.67 0 0 0 .669.669zm0 3.679a.67.67 0 0 0 .669-.669.67.67 0 0 0-.669-.67.67.67 0 0 0-.669.67.67.67 0 0 0 .669.669zm17.053 18.433a.67.67 0 0 0-.669-.669.67.67 0 0 0-.669.669.67.67 0 0 0 .669.669.67.67 0 0 0 .669-.669zm3.678 0a.67.67 0 0 0-.669-.669.67.67 0 0 0-.67.669.67.67 0 0 0 .67.669.67.67 0 0 0 .669-.669zm3.678 0a.67.67 0 0 0-.669-.669.67.67 0 0 0-.67.669.67.67 0 0 0 .67.669.67.67 0 0 0 .669-.669zm3.679 0a.67.67 0 0 0-.669-.669.67.67 0 0 0-.669.669.67.67 0 0 0 .669.669.67.67 0 0 0 .669-.669zm3.678 0a.67.67 0 0 0-.669-.669.67.67 0 0 0-.669.669.67.67 0 0 0 .669.669.67.67 0 0 0 .669-.669z"/></g><path d="M315.783 286.09h6.396l11.463-8.239m12.569 41.385v-6.396l10.84-11.58m-14.518 17.976v-6.396l11.917-14.181m-15.596 20.577v-6.396l12.995-16.782m-16.673 23.178v-6.396l14.072-19.383m-17.751 25.779v-6.396l15.149-21.984"/></g><g clip-path="url(#Ah)" class="D"><path d="M309.215 325.82h12.499v-16.971h-12.499z"/></g><g clip-path="url(#Ai)" class="D"><path d="M294.427 325.82h12.5v-16.971h-12.5z"/></g><g clip-path="url(#Aj)" class="D"><path d="M279.639 325.82h12.5v-16.971h-12.5z"/></g><g clip-path="url(#Ak)" class="C B"><path d="M297.907 216.098h12.13v-4.171h-12.13z"/></g><g clip-path="url(#Al)" class="C B"><path d="M284.147 216.098h12.13v-4.171h-12.13z"/></g><g clip-path="url(#Am)" class="D"><path d="M309.215 312.228h12.499v-3.379h-12.499z"/></g><g clip-path="url(#An)" class="D"><path d="M294.427 312.228h12.5v-3.379h-12.5z"/></g><g clip-path="url(#Ao)" class="D"><path d="M279.639 312.228h12.5v-3.379h-12.5z"/></g><g clip-path="url(#Ap)" class="C B"><path d="M384.938 341.593h2.652v-4.721h-2.652z"/></g><g clip-path="url(#Aq)" class="C B"><path d="M374.181 391.228h2.652v-4.721h-2.652z"/></g><g clip-path="url(#Ar)" class="C B"><path d="M300.445 257.827h4.39v-4.39h-4.39z"/></g><g clip-path="url(#As)" class="C B"><path d="M362.878 285.995l-3.104 3.104 3.104 3.104 3.104-3.104z"/></g><g clip-path="url(#At)" class="C B"><path d="M358.681 281.797l-3.104 3.104 3.104 3.104 3.104-3.104z"/></g><g clip-path="url(#Au)" class="C B"><path d="M367.076 290.193l-3.104 3.104 3.104 3.104 3.104-3.104z"/></g><g clip-path="url(#Av)" class="C B"><path d="M313.588 322.101h4.39v-4.39h-4.39z"/></g><g clip-path="url(#Aw)" class="C B"><path d="M298.641 322.101h4.39v-4.39h-4.39z"/></g><g clip-path="url(#Ax)" class="C B"><path d="M283.694 322.101h4.39v-4.39h-4.39z"/></g></g><g clip-path="url(#Ay)"><path d="M200.889 357.047l-16.833-29.155a4.12 4.12 0 0 1 3.564-6.173h33.665a4.12 4.12 0 0 1 3.564 6.173l-16.832 29.155a4.12 4.12 0 0 1-7.128 0" class="E"/><path d="M206.031 339.828h-.986l3.162 9.339-6.593-10.186-1.393-2.153h2.744 1.064l-2.748-9.17 6.12 10.06 1.284 2.11z" class="B"/></g><g clip-path="url(#Az)"><path d="M227.875 245.623h6.334c10.989 0 14.133-56.711 15.791-99.437s25.225-62.424 46.278-62.424h160.701" class="L M S T U"/><g class="E"><use xlink:href="#Cg"/><path d="M82.657 241.314h4.31l12-70.424h-4.31zm16 0h4.31l12-70.424h-4.31z"/></g><g clip-path="url(#BA)" class="I B"><use xlink:href="#Cg"/></g><g clip-path="url(#BB)" class="I B"><path d="M82.657 241.314h4.31l12-70.424h-4.31z"/></g><g clip-path="url(#BC)" class="I B"><path d="M98.657 241.314h4.31l12-70.424h-4.31z"/></g><path d="M103.491 169.067l.36-15.57 1.64-70.43h5.41l1.63 70.43.36 15.57z" class="E"/><g clip-path="url(#BD)" class="I B"><path d="M103.491 169.067l.36-15.57 1.64-70.43h5.41l1.63 70.43.36 15.57z"/></g><g clip-path="url(#BE)" class="D"><path d="M103.491 169.067l.36-16h8.68l.36 16z"/></g><path d="M74.113 83.317l4.998 84.649h8.169l-6.997-84.649z" class="E"/><g clip-path="url(#BF)" class="I B"><path d="M80.298 83.317h-6.176l4.535 77.05.45 7.7h8.17l-.63-7.7z"/></g><g clip-path="url(#BG)" class="D"><path d="M87.277 168.067l-.63-8h-7.99l.45 8z"/></g><path d="M136.104 83.317l-6.997 84.649h8.17l4.997-84.649z" class="E"/><g clip-path="url(#BH)" class="I B"><path d="M136.089 83.317l-6.349 77.05-.63 7.7h8.17l.45-7.7 4.535-77.05z"/></g><g clip-path="url(#BI)" class="D"><path d="M129.11 168.067l.63-8h7.99l-.45 8z"/></g><path d="M79.733 176.734h56.92a5 5 0 0 0 5-5v-6.689h-66.92v6.689a5 5 0 0 0 5 5" class="F"/><use xlink:href="#Ch" class="E"/><g clip-path="url(#BJ)" class="C B"><use xlink:href="#Ch"/></g><path d="M74.106 233.182c6.937 4.198 16.57 4.198 25.776 0 4.653-2.04 10.159-2.62 12.595.319h.001c4.149 4.325-3.134 17.135-17.113 21.192-10.004 2.867-19.907 2.867-28.362 0-11.788-4.057-12.15-16.867-5.665-21.192 4.027-2.939 9.212-2.359 12.768-.319" class="F"/><path d="M177.926 245.879l8.063 1.835s1.978 1.429 3.462 1.429 7.615-1.385 8.406-2.67.396-2.997.396-2.997h-9.297l-8.11-2.162z" class="P"/><use xlink:href="#Ci" class="E"/><g clip-path="url(#BK)" opacity=".7" class="B"><use xlink:href="#Ci"/></g><path d="M127.835 287.448l22.943-6.064-11.471-16.516h-17.658z" class="E"/><path d="M210.888 92.575l7.754 2.128-1.389 18.918-7.741-2.136z" class="P"/><path d="M219.111 95.733l-8.996-.623a.57.57 0 0 1-.556-.584v-.01l.056-7.154a1.42 1.42 0 0 1 1.498-1.319l8.575.859c2.429.175 7.247.291 10.529 1.053s2.442 3.986.986 3.953c-3.457-.064-8.299 1.843-10.681 3.46a2.25 2.25 0 0 1-1.411.365" class="F"/><g class="E"><path d="M223.107 96.232c-.539.168-1.825-.596-2.715-1.251 1.453-.184 2.502-.065 2.856.33a.69.69 0 0 1 .087.674.34.34 0 0 1-.228.247m-1.058-1.666c-.723-.032-1.447.015-2.16.141-.074.005-.135.058-.152.129s.007.147.059.198c.244.197 2.409 1.901 3.419 1.591.232-.077.409-.266.469-.502a1 1 0 0 0-.157-1.058 2.15 2.15 0 0 0-1.478-.499"/><path d="M220.811 97.971c-.151-.009-.291-.081-.387-.198-.453-.499-.419-1.823-.345-2.574.649.634 1.322 1.949 1.195 2.525-.023.107-.102.233-.371.246zm-.88-3.266c-.023-.014-.051-.021-.078-.016-.057.027-.098.078-.113.138-.005.072-.351 2.391.397 3.231.201.215.487.33.78.314a.72.72 0 0 0 .718-.517c.239-.859-.838-2.621-1.602-3.148-.033-.015-.07-.015-.102-.002"/></g><g clip-path="url(#BL)" class="D"><path d="M209.511 111.485l7.744 2.126.792-10.814-7.786-1.733z"/></g><path d="M200.752 92.854l-7.318-3.338-1.866 7.861-2.499 10.582 7.298 3.347 2.509-10.571z" class="P"/><g clip-path="url(#BM)" class="D"><path d="M198.875 100.734l-7.307-3.357-2.5 10.582 7.298 3.346z"/></g><path d="M201.053 93.942l-8.781-2.05a.57.57 0 0 1-.456-.664l1.197-7.063a1.42 1.42 0 0 1 1.689-1.065l8.329 2.215c2.37.56 7.107 1.441 10.227 2.717s1.775 4.325.342 4.06c-3.403-.613-8.486.497-11.095 1.713-.455.205-.966.254-1.452.137" class="F"/><g class="E"><path d="M204.919 95.071c-.559.08-1.707-.878-2.481-1.668 1.463.051 2.481.335 2.767.781.112.214.105.473-.021.68-.046.11-.146.189-.265.207m-.779-1.812c-.708-.148-1.431-.217-2.155-.207-.073-.005-.142.037-.17.105a.21.21 0 0 0 .027.204c.209.233 2.075 2.261 3.121 2.114.241-.037.446-.196.542-.42a1 1 0 0 0 .015-1.069 2.15 2.15 0 0 0-1.38-.727"/><path d="M202.375 96.421a.54.54 0 0 1-.35-.257c-.368-.564-.124-1.865.068-2.596.54.73.996 2.135.779 2.684-.04.103-.138.214-.406.184zm-.349-3.363c-.02-.019-.047-.03-.074-.03-.06.019-.109.062-.133.12-.017.069-.728 2.304-.124 3.252.165.244.429.403.721.435a.72.72 0 0 0 .791-.396c.374-.81-.409-2.721-1.081-3.363-.028-.02-.065-.027-.1-.018"/></g><use xlink:href="#Cj" class="F"/><g clip-path="url(#BN)" class="D B"><use xlink:href="#Cj"/></g><use xlink:href="#Ck" class="F"/><g clip-path="url(#BO)" class="D B"><use xlink:href="#Ck"/></g><g clip-path="url(#BP)" class="D"><path d="M190.035 174.274l-7.383 1.982c.82-.431-1.565 10.367-3.94 13.159-4.72 5.565-23.68 8.573-30.478 9.665-5.686.909-24.765 2.594-24.765 2.594s33.678 2.909 59.062-4.057c12.547-3.45 10.312-15.697 7.504-23.343"/></g><path d="M145.109 221.086c2.558 14.641 6.85 34.246 14.798 52.584a93 93 0 0 1-12.875 4.37 172.62 172.62 0 0 1-19.49 4.09c-4.543.483-9.117.609-13.68.378 0 0-9.84-18.378-14.83-61.422z" class="F"/><path d="M138.404 298.56c-1.743-6.29-5.877-17.345-11.797-19.164 0 0 4.36-7.134 10.885-7.732 4.153-.381 6.452 4.308 6.452 4.308-4.236.79-2.617 3.894.724 7.788z" class="P"/><g clip-path="url(#BQ)" class="D"><path d="M140.955 292.525l3.704-8.761a20.94 20.94 0 0 1-2.132-2.885c-4.161-.313-7.149 6.283-6.132 8.966.369 1.106 3.817 1.782 4.56 2.68"/></g><path d="M152.783 308.599c-3.97-1.642-3.212-5.973 3.368-13.865 4.054 3.488 6.251 11.431 4.127 13.982s-4.038 1.3-7.495-.117" class="F"/><path d="M136.471 305.208c-1.382-8.586-2.619-13.535.673-18.843 4.963-7.979 16.286-6.453 20.208 1.55 3.512 7.189 5.19 20.025-2.341 25.25-5.363 3.761-12.759 2.462-16.52-2.9a11.84 11.84 0 0 1-2.02-5.057" class="P"/><g class="F"><path d="M148.595 300.046c-.154-.689.088-1.331.539-1.429s.933.371 1.087 1.061-.079 1.326-.525 1.434-.901-.398-1.101-1.066m7.832-1.77c-.154-.689.088-1.331.539-1.429s.942.367 1.101 1.066-.089 1.33-.539 1.429-.946-.377-1.101-1.066"/></g><path d="M153.798 298.526c.349-2.292 1.012-4.525 1.971-6.636-1.501-.858-3.436.128-3.436.128z" fill="#b94d3c"/><g class="F"><path d="M147.009 302.998a.41.41 0 0 0-.245.114.42.42 0 0 0 .041.587 4.1 4.1 0 0 0 3.673.931.4.4 0 0 0 .287-.487c-.002-.01-.005-.019-.008-.028a.43.43 0 0 0-.515-.28c-1.03.227-2.107-.058-2.89-.764a.43.43 0 0 0-.343-.073m13.579-2.882a.43.43 0 0 0-.318.312 3.3 3.3 0 0 1-1.867 2.344.42.42 0 0 0-.249.534.42.42 0 0 0 .525.253 4.14 4.14 0 0 0 2.395-2.941.41.41 0 0 0-.301-.496l-.006-.001a.47.47 0 0 0-.179-.005m-19.058 11.839c3.654-2.246 2.21-6.404-5.543-13.137-3.449 4.091-4.351 12.293-1.837 14.456s4.187.637 7.38-1.319"/><path d="M134.789 313.749s-.77 3.362 5.277 6.556 15.827.495 22.185-4.108-1.377-10.385-4.467-10.513l.863 1.069s-5.381-.351-9.698 1.651l1.968.649s-12.306 2.25-16.128 4.696"/></g><g clip-path="url(#BR)" class="I B"><path d="M161.73 300.47l-1.13-5.44s-2.26-1.61-3.35-.95c-1.1.65-1.51 2.48-3.2 2.75-1.69.28-2.26-1.43-5.5-1.43s-5.11 4.71-5.11 4.71l-7.23 2.6-1.16-2.58-.55 1s1.41 3.9 3.03 3.61l6.66-1.17z"/></g><path d="M144.19 303.57l-.74-3.43c0-.01 0-.02-.01-.03l-7.23 2.6-1.16-2.58-.55 1s1.41 3.9 3.03 3.61z" class="E"/><path d="M130.916 299.341c.129-2.185 1.119-4.23 2.752-5.687 2.182-1.904 4.514-.252 4.953 2.454.394 2.441-.272 6.377-2.959 7.237s-4.892-1.324-4.746-4.004" class="P"/><path d="M147.032 293.451s0-3.561 3.746-4.748" class="J L M S T U"/><g class="E"><use xlink:href="#Cl"/><use xlink:href="#Cm"/></g><g clip-path="url(#BS)" class="C B"><use xlink:href="#Cl"/></g><g clip-path="url(#BT)" class="C B"><use xlink:href="#Cm"/></g><g class="E"><path d="M131.896 278.463l-8.808-2.305v7.003l4.747 4.287zm15.136-.423l3.061-4.823 2.24 4.823-1.555 3.344z"/></g><g clip-path="url(#BU)" opacity=".7" class="B"><path d="M131.896 278.463l-8.808-2.305v7.003l4.747 4.287z"/></g><g clip-path="url(#BV)" opacity=".7" class="B"><path d="M147.032 278.04l3.061-4.823 2.24 4.823-1.555 3.344z"/></g><g class="F"><path d="M169.176 242.912h-1.474v1.923h1.474zm20.913 0h-1.474v1.923h1.474zm43.636.234h-28.483v15.446h28.483z"/></g><g clip-path="url(#BW)" class="D B"><path d="M222.912 243.146h-17.67v15.446h17.67z"/></g><path d="M217.731 252.077c-.074 2.24-1.902 4.038-4.161 4.038s-4.087-1.798-4.16-4.038z" class="B"/><path d="M213.129 252.84l1.673 2.072-.791-2.543a.51.51 0 0 0-.637-.335.51.51 0 0 0-.335.637.49.49 0 0 0 .09.169" class="E"/><use xlink:href="#Cn" class="F"/><g clip-path="url(#BX)" class="R B"><path d="M208.973 244.89h-2.003a.67.67 0 0 0-.667.668v1.261c0 .369.298.668.667.668h2.003c.369 0 .667-.299.667-.668v-1.261a.67.67 0 0 0-.667-.668"/></g><path d="M214.883 247.486h-1-1.003-1c-.369 0-.667-.299-.667-.668v-1.261a.67.67 0 0 1 .667-.668h1 1.003 1a.67.67 0 0 1 .667.668v1.261c0 .369-.298.668-.667.668" class="F"/><g clip-path="url(#BY)" opacity=".5"><path d="M212.832 245.669h-.47v1.038h.47z"/></g><g clip-path="url(#BZ)" opacity=".5"><path d="M214.401 245.669h-.47v1.038h.47z"/></g><g class="F"><path d="M217.848 247.518c-.313 0-.596-.149-.803-.389-.008 0-.015.005-.023.005-.456 0-.826-.437-.826-.976s.37-.978.826-.978c.008 0 .015.006.023.006.207-.24.49-.389.803-.389.635 0 1.149.61 1.149 1.361s-.514 1.36-1.149 1.36m3.165 0c-.313 0-.596-.149-.803-.389-.009 0-.015.005-.023.005-.456 0-.826-.437-.826-.976s.37-.978.826-.978c.008 0 .014.006.023.006.207-.24.49-.389.803-.389.635 0 1.149.61 1.149 1.361s-.514 1.36-1.149 1.36"/></g><g clip-path="url(#Ba)" class="R B"><path d="M217.848 246.157c0-.54-.37-.978-.826-.978s-.826.438-.826.978.37.977.826.977.826-.438.826-.977"/></g><g clip-path="url(#Bb)" class="R B"><path d="M221.012 246.157c0-.54-.37-.978-.826-.978s-.825.438-.825.978.369.977.825.977.826-.438.826-.977"/></g><path d="M163.637 261.884l-3.897 3.897s-8.339 3.707-8.748-5.626 14.228-34.982 28.271-39.069 19.039 10.354 19.509 21.728c.091 2.2 3.61 3.375 5.192 3.375h3.758" class="L M S T U"/><use xlink:href="#Co" class="F"/><g clip-path="url(#Bc)" class="I B"><use xlink:href="#Co"/></g><path d="M171.994 254.518l-7.82 8.684a.94.94 0 0 1-1.331.07l-.755-.68c-.387-.348-.418-.944-.07-1.331l7.82-8.684-.219-1.543.076-.085 3.933 3.541-.076.085z" class="E"/><path d="M141.888 251.526l11.051 4.989 4.906 3.453c1.318.88 12.131-1.626 12.527-1.757s-1.583-6.989-1.978-7.649-10.022.624-10.549.84-1.112 1.007-1.112 1.007l-10.774-4.696z" class="P"/><use xlink:href="#Cp" class="E"/><g clip-path="url(#Bd)" opacity=".7" class="B"><use xlink:href="#Cp"/></g><g class="E"><path d="M192.417 244.441h-26.308v.787h26.308zM169.554 83.067h6.126l1 153.247h-8.126z"/></g><g clip-path="url(#Be)" class="R B"><path d="M168.549 236.067l.16-24.726.84-128.274h6.13l.84 128.274.16 24.726z"/></g><g clip-path="url(#Bf)" class="D"><path d="M168.549 236.067l.16-25h7.81l.16 25z"/></g><path d="M104.513 83.067h6.126l11.007 153.247h-8.127z" class="E"/><g clip-path="url(#Bg)" class="R B"><path d="M104.509 83.067h6.13l10.47 145.635.54 7.365h-8.13l-.44-7.365z"/></g><g clip-path="url(#Bh)" class="D"><path d="M113.079 229.067h8.03l.54 7h-8.13z"/></g><path d="M234.595 83.067h6.126l-9.005 153.247h-8.128z" class="E"/><g clip-path="url(#Bi)" class="R B"><path d="M223.589 236.067l.54-7.365 10.47-145.635h6.12l-8.56 145.635-.44 7.365z"/></g><g clip-path="url(#Bj)" class="D"><path d="M231.72 236.067h-8.13l.54-7h8.029z"/></g><use xlink:href="#Cq" class="E"/><g clip-path="url(#Bk)" class="D B"><use xlink:href="#Cq"/></g><g clip-path="url(#Bl)" class="D"><path d="M107.077 236.314h131.081v3.837H107.077z"/></g><use xlink:href="#Cr" class="E"/><g clip-path="url(#Bm)" class="D B"><use xlink:href="#Cr"/></g></g></g><path d="M2.646 2.646h211.667v158.75H2.646zm235.82 66.824h211.667v158.75H238.466z" opacity=".15"/></svg>