<svg xmlns="http://www.w3.org/2000/svg" xmlns:xlink="http://www.w3.org/1999/xlink" width="820" height="620" viewBox="0 0 216.958 164.042" xmlns:v="https://vecta.io/nano"><style><![CDATA[.B{fill:#ffb27d}.C{fill:#95b3ef}.D{fill:#afcdfb}.E{fill:#82b378}.F{fill:#163560}.G{fill:#233862}.H{fill:#ed7d2b}.I{fill:#f99746}.J{fill:#cde3fd}]]></style><path d="M2.646 2.646h211.667v158.75H2.646z" fill="#ebf3fa"/><g transform="matrix(1.1426 0 0 1.1426 348.73186 -118.78111)"><path d="M-122.591 161.257h-42.095v-31.548h42.095v31.548" fill="#f7fafd"/><g class="D"><path d="M-159.216 143.004v7.672l-2.578 6.824c-.109.29-.07.603.105.858a.92.92 0 0 0 .766.402h5.902a.92.92 0 0 0 .76-.394c.176-.25.219-.56.117-.848l-2.434-6.843v-7.669zm4.195 16.21h-5.902a1.39 1.39 0 0 1-1.297-1.876l2.549-6.746v-8.044h3.549v8.046l2.406 6.769a1.37 1.37 0 0 1-1.306 1.851m-4.806-4.656l-.911 2.41c-.071.19-.047.395.069.563a.6.6 0 0 0 .501.263h3.976a.6.6 0 0 0 .574-.814l-.827-2.329-.021.005-.556.146c-.56.162-1.042.302-1.656-.054-.343-.199-.797-.217-1.149-.19zm3.636 3.577h-3.976a.95.95 0 0 1-.889-1.287l.985-2.609.106-.011c.412-.044 1.001-.04 1.46.225.486.282.846.178 1.389.021l.575-.152a.43.43 0 0 0 .115-.042l.177-.1.954 2.684a.94.94 0 0 1-.896 1.269"/><path d="M-155.594 142.776h-3.257c-.223 0-.405-.181-.405-.403s.181-.403.405-.403h3.257c.222 0 .403.181.403.403s-.181.403-.403.403m24.853 7.197h-9.806v-.562h9.806v.562m-6.52 1.536h-3.773v-.561h3.773v.561m4.89.03h-4.422v-.561h4.422v.561m0 .567h-7.351v-.564h7.351v.564m-9.587-13.358a2.6 2.6 0 0 0-2.595 2.596 2.6 2.6 0 0 0 2.595 2.596 2.6 2.6 0 0 0 2.595-2.596 2.6 2.6 0 0 0-2.595-2.596zm0 5.663c-1.692 0-3.069-1.376-3.069-3.068s1.377-3.068 3.069-3.068a3.07 3.07 0 0 1 3.067 3.068 3.07 3.07 0 0 1-3.067 3.068m-10.313-10.457c-.913 0-1.655.742-1.655 1.655s.742 1.655 1.655 1.655a1.66 1.66 0 0 0 1.656-1.655c0-.913-.742-1.655-1.656-1.655zm0 3.625c-1.086 0-1.97-.884-1.97-1.97s.884-1.97 1.97-1.97a1.97 1.97 0 1 1 0 3.94m8.512-4.054c-.711 0-1.291.579-1.291 1.291s.58 1.291 1.291 1.291 1.293-.579 1.293-1.291-.58-1.291-1.293-1.291zm0 2.898a1.61 1.61 0 0 1-1.606-1.607 1.61 1.61 0 0 1 1.606-1.607 1.61 1.61 0 0 1 1.607 1.607 1.61 1.61 0 0 1-1.607 1.607m15.233 4.354c-1.301 0-2.359 1.059-2.359 2.36s1.058 2.36 2.359 2.36 2.359-1.059 2.359-2.36-1.058-2.36-2.359-2.36zm0 5.035a2.68 2.68 0 0 1-2.675-2.675 2.68 2.68 0 0 1 2.675-2.675 2.68 2.68 0 0 1 2.675 2.675 2.68 2.68 0 0 1-2.675 2.675m-19 3.711c-.992 0-1.801.808-1.801 1.8s.809 1.8 1.801 1.8 1.799-.808 1.799-1.8a1.8 1.8 0 0 0-1.799-1.8zm0 3.916a2.12 2.12 0 0 1-2.115-2.115 2.12 2.12 0 0 1 2.115-2.115 2.12 2.12 0 0 1 2.115 2.115 2.12 2.12 0 0 1-2.115 2.115"/><path d="M-143.911 139.796l-6.1-3.65.13-.217 6.1 3.65-.13.217m-3.199 10.255l-.22-.122 3.329-5.984.22.122-3.329 5.984m14.701-6.07l-7.409-1.153.038-.248 7.409 1.153-.038.248"/><path d="M-142.325 138.325l-.884-2.181.173-.07.884 2.181-.173.07m3.434 19.788h-11.415v.377h11.415v-.377m0-1.044h-11.415v.377h11.415v-.377m0-1.044h-11.415v.376h11.415v-.376m13.04 2.298h-11.396v.376h11.396v-.376"/><path d="M-125.851 157.281h-11.396v.376h11.396v-.376m0-1.042h-11.396v.376h11.396v-.376m-6.348-20.793h1.964l.982-1.701-.982-1.701h-1.964l-.984 1.701zm2.036.122h-2.106l-1.054-1.823 1.054-1.823h2.106l1.052 1.823-1.052 1.823"/><path d="M-135.458 137.337h1.965l.982-1.701-.982-1.701h-1.965l-.983 1.701zm2.034.122h-2.105l-1.053-1.824 1.053-1.824h2.105l1.053 1.824-1.053 1.824m4.485-.139h1.965l.982-1.702-.982-1.702h-1.965l-.984 1.702zm2.035.122h-2.106l-1.053-1.824 1.053-1.824h2.106l1.053 1.824-1.053 1.824m-29.917-4.445h-5.421v-.362h5.421v.362m0 1.033h-5.421v-.362h5.421v.362m0 1.049h-5.421v-.36h5.421v.36m0 .952h-5.421v-.362h5.421v.362"/></g><path d="M-201.919 231.097h-54.684v-46.779h41.309v1.213h3.789v-1.213h9.586v15.824h-6.87v-.805-.332h-.4-1.483v-4.153h-1.424v4.153h-.701v-4.153h-1.424v4.153h-.5v-4.153h-1.424v4.284a.69.69 0 0 0 .108.372v.633h-13.314v-.805-.332h-.4-1.482v-4.153h-1.424v4.153h-.702v-4.153h-1.424v4.153h-.499v-4.153h-1.424v4.284c0 .137.04.265.108.372v.633h-1.511v-.805-.332h-.4-1.482v-4.153h-1.424v4.153h-.702v-4.153h-1.424v4.153h-.5v-4.153h-1.424v4.284c0 .137.04.265.108.372v.633h-11.242v1.318h54.684v15.652h-21.919v-.74-.332h-.4-1.482v-4.153h-1.424v4.153h-.702v-4.153h-1.424v4.153h-.5v-4.153h-1.424v4.284c0 .137.04.264.108.372v.569h-3.587v-.74-.332h-.4-1.482v-4.153h-1.424v4.153h-.702v-4.153h-1.424v4.153h-.5v-4.153h-1.424v4.284c0 .137.04.264.108.372v.569h-4.948v-.74-.332h-.4-1.482v-4.153h-1.424v4.153h-.702v-4.153h-1.424v4.153h-.5v-4.153h-1.424v4.284c0 .137.04.264.108.372v.569h-2.482v1.318h54.684v12.666m-22.32-13.984h-6.448v-.271a.69.69 0 0 0 .188.026h.032c.315 0 .58-.209.667-.495h.558c.086.287.352.495.667.495h.031c.315 0 .581-.209.667-.495h.761c.086.287.352.495.667.495h.032c.315 0 .58-.209.667-.495h1.512v.74m-10.836 0h-6.448v-.271a.69.69 0 0 0 .188.026h.032c.315 0 .581-.209.667-.495h.559c.086.287.352.495.667.495h.031c.315 0 .581-.209.667-.495h.761c.086.287.352.495.667.495h.032c.315 0 .58-.209.667-.495h1.512v.74m-12.197 0h-6.448v-.271a.69.69 0 0 0 .188.026h.031c.315 0 .581-.209.667-.495h.558c.086.287.352.495.667.495h.032c.315 0 .58-.209.667-.495h.761c.086.287.352.495.667.495h.032c.315 0 .58-.209.667-.495h1.512v.74m38.084-16.971h-6.448v-.335c.06.017.122.026.187.026h.032c.315 0 .58-.209.667-.495h.559c.086.287.352.495.667.495h.032c.314 0 .58-.209.666-.495h.762c.086.287.352.495.666.495h.032c.315 0 .581-.209.667-.495h1.512v.805m-20.563 0h-6.448v-.335a.69.69 0 0 0 .188.026h.032c.315 0 .581-.209.667-.495h.558c.086.287.352.495.667.495h.032c.315 0 .581-.209.667-.495h.761c.086.287.352.495.667.495h.031c.315 0 .581-.209.667-.495h1.512v.805m-8.76 0h-6.448v-.335a.69.69 0 0 0 .188.026h.031c.315 0 .581-.209.667-.495h.559c.086.287.352.495.667.495h.031c.315 0 .581-.209.667-.495h.761c.086.287.352.495.667.495h.032c.315 0 .58-.209.667-.495h1.512v.805m36.593-17.141h-12.243v-8.151h-6.546v8.151h-1.689v-5.617h-7.756v5.617h-5.374v-.449-.332h-.4-1.482v-4.155h-1.424v4.155h-.702v-4.155h-1.424v4.155h-.5v-4.155h-1.424v4.286c0 .137.04.264.108.372v.278h-1.511v-.449-.332h-.4-1.482v-4.155h-1.424v4.155h-.702v-4.155h-1.424v4.155h-.5v-4.155h-1.424v4.286c0 .137.04.264.108.372v.278h-5.066v-14.436h21.092v1.093h3.789v-1.093h29.803v14.436m-34.009 0h-1.929a.7.7 0 0 0 .417-.449h1.512v.449m-2.46 0h-1.596a.7.7 0 0 0 .417-.449h.761a.7.7 0 0 0 .417.449m-2.126 0h-1.393a.7.7 0 0 0 .417-.449h.558a.7.7 0 0 0 .417.449m-4.174 0h-1.929a.7.7 0 0 0 .417-.449h1.512v.449m-2.46 0h-1.596a.7.7 0 0 0 .417-.449h.761a.7.7 0 0 0 .417.449m-2.126 0h-1.393a.7.7 0 0 0 .417-.449h.558a.7.7 0 0 0 .418.449m47.355-15.753h-10.719v-.674-.332h-.401-1.483v-4.153h-1.423v4.153h-.702v-4.153h-1.424v4.153h-.5v-4.153h-1.424v4.284c0 .138.04.265.108.372v.502h-3.621v-.674-.332h-.4-1.482v-4.153h-1.424v4.153h-.702v-4.153h-1.424v4.153h-.5v-4.153h-1.424v4.284a.69.69 0 0 0 .108.372v.502h-2.346v-.674-.332h-.4-1.482v-4.153h-1.424v4.153h-.702v-4.153h-1.424v4.153h-.5v-4.153h-1.424v4.284a.69.69 0 0 0 .108.372v.502h-3.936v-.674-.332h-.4-1.482v-4.153h-1.424v4.153h-.702v-4.153h-1.424v4.153h-.5v-4.153h-1.424v4.284a.69.69 0 0 0 .108.372v.502h-5.066v-31.003h54.684v13.166h-13.157v-.805-.332h-.401-1.482v-4.155h-1.424v4.155h-.702v-4.155h-1.424v4.155h-.499v-4.155h-1.424v4.286c0 .137.04.264.108.372v.633h-11.292v-.805-.332h-.4-1.482v-4.155h-1.424v4.155h-.702v-4.155h-1.424v4.155h-.5v-4.155h-1.424v4.286c0 .137.04.264.108.372v.633h-15.737v1.317h13.947v1.093h3.789v-1.093h14.847v1.093h3.788v-1.093h18.311v16.52m-11.12 0h-6.448v-.204a.69.69 0 0 0 .187.026h.032c.315 0 .581-.209.667-.495h.559c.086.287.352.495.667.495h.032c.315 0 .58-.209.667-.495h.761c.086.287.352.495.667.495h.03c.315 0 .581-.209.667-.495h1.512v.674m-10.87 0h-6.448v-.204a.69.69 0 0 0 .188.026h.032c.315 0 .581-.209.667-.495h.559c.086.287.352.495.667.495h.031c.315 0 .581-.209.667-.495h.761c.086.287.352.495.667.495h.032c.315 0 .581-.209.667-.495h1.512v.674m-9.595 0h-6.448v-.204a.69.69 0 0 0 .188.026h.032c.315 0 .581-.209.667-.495h.559c.086.287.352.495.667.495h.032c.315 0 .581-.209.667-.495h.761c.086.287.352.495.667.495h.031c.315 0 .581-.209.667-.495h1.512v.674m-11.185 0h-6.448v-.204a.69.69 0 0 0 .188.026h.032c.315 0 .581-.209.667-.495h.558c.086.287.352.495.667.495h.031c.315 0 .581-.209.667-.495h.761c.086.287.352.495.667.495h.032c.315 0 .581-.209.667-.495h1.512v.674m29.211-17.837h-6.448v-.335a.69.69 0 0 0 .188.026h.031c.315 0 .581-.209.667-.495h.559c.086.287.352.495.666.495h.032c.315 0 .581-.209.667-.495h.761c.087.287.352.495.667.495h.032c.315 0 .58-.209.667-.495h1.511v.805m-18.54 0h-6.448v-.335a.69.69 0 0 0 .188.026h.032c.315 0 .581-.209.667-.495h.558c.086.287.352.495.667.495h.032c.315 0 .581-.209.667-.495h.761c.086.287.352.495.667.495h.031c.315 0 .581-.209.667-.495h1.512v.805" fill="#e3eefb"/><path d="M-201.919 168.566h-29.803v-1.317h-1.381 2.346v.132h.4v-.132h6.448v.132h.4v-.132h3.621v.132h.401v-.132h6.448v.132h.401v-.132h10.719v1.317m-33.592 0h-21.092v-1.317h5.066v.132h.4v-.132h6.448v.132h.4v-.132h3.936v.132h.4v-.132h6.448-2.007v1.317m33.593 15.753h-9.586v-1.196h-3.789v1.196h-41.309v-1.317h5.066v.356h.4v-.335a.69.69 0 0 0 .188.026h.032a.7.7 0 0 0 .249-.046h1.393c.077.029.161.046.249.046h.031a.7.7 0 0 0 .249-.046h1.596a.71.71 0 0 0 .249.046h.032a.7.7 0 0 0 .249-.046h1.929v.356h.4v-.356h1.511v.356h.4v-.335a.69.69 0 0 0 .188.026h.032a.7.7 0 0 0 .249-.046h1.393a.71.71 0 0 0 .25.046h.031a.7.7 0 0 0 .249-.046h1.596a.71.71 0 0 0 .249.046h.032a.7.7 0 0 0 .249-.046h1.929v.356h.4v-.356h5.374v.038h7.756v-.038h1.689v.038h6.546v-.038h12.243v1.317" fill="#cbddf8"/><g fill="#f5f9fd"><path d="M-201.919 136.245h-54.684v-1.503h55.058-.375v1.503"/><path d="M-256.603 231.097h-1.409v-96.355h1.409v1.503 31.003 1.317 62.531m56.094.001h-1.41v-96.355h1.41v96.355"/></g><g fill="#cbddf8"><path d="M-201.919 150.728h0-18.311v-1.317h-3.788v1.317h-14.847v-1.317h-3.789v1.317h-13.947v-1.317h15.737.4 6.448.4 11.291.4 6.448.401 13.157v1.317m0 50.733h0-54.684v-1.318h11.242.401 6.448.4 1.511.4 6.448.4 13.314.401 6.448.4 6.87v1.318m.001 16.97h0-54.684v-1.318h2.482v.064h.4v-.064h6.448v.064h.4v-.064h4.948v.064h.4v-.064h6.448v.064h.4v-.064h3.587v.064h.4v-.064h6.448v.064h.4v-.064h21.919v1.318m-38.31-35.383h-.031a.7.7 0 0 1-.667-.495h.202a.52.52 0 0 0 .469.298h.023a.52.52 0 0 0 .469-.298h.202a.7.7 0 0 1-.417.449.71.71 0 0 1-.249.046m.696-.827h-.183v-1.406h-1.058v1.406h-.183v-4.155h1.424v4.155"/><use xlink:href="#B"/><path d="M-238.106 183.048h-.032a.7.7 0 0 1-.667-.495h.202c.083.176.261.298.469.298h.023c.207 0 .386-.122.468-.298h.202a.7.7 0 0 1-.417.449c-.077.029-.162.046-.249.046m.696-.827h-.183v-1.831h-1.058v1.831h-.183v-4.155h1.424v4.155"/><path d="M-238.11 182.85h-.023a.52.52 0 0 1-.469-.298h.96c-.083.176-.261.298-.468.298m.517-.63h-1.058v-1.831h1.058v1.831m-4.563.828h-.032a.69.69 0 0 1-.188-.026v-.209a.52.52 0 0 0 .192.037h.023a.52.52 0 0 0 .469-.298h.202a.7.7 0 0 1-.417.449.71.71 0 0 1-.249.046m-.62-.324a.7.7 0 0 1-.108-.372v-4.286h1.424v4.155h-.183v-1.831h-1.058v1.831h-.075v.503"/><use xlink:href="#C"/><path d="M-242.376 183.357h-.4v-1.137h.4-.4v.332h.4v.805m6.849 0h-.4v-.805h.4v.805"/><use xlink:href="#D"/><path d="M-213.494 199.833h-.032c-.315 0-.581-.209-.667-.495h.202a.52.52 0 0 0 .468.298h.024c.208 0 .386-.122.468-.298h.202c-.086.287-.352.495-.666.495m.696-.827h-.184v-1.405h-1.058v1.405h-.183v-4.153h1.424v4.153"/><path d="M-213.498 199.636h-.024a.52.52 0 0 1-.468-.298h.96c-.082.176-.261.298-.468.298m.517-.63h-1.058v-1.405h1.058v1.405m1.613.827h-.032c-.314 0-.58-.209-.666-.495h.202c.082.176.261.298.468.298h.024a.52.52 0 0 0 .468-.298h.202c-.086.287-.352.495-.667.495m.696-.827h-.183v-1.83h-1.058v1.83h-.184v-4.153h1.424v4.153"/><path d="M-211.372 199.636h-.024c-.208 0-.386-.122-.468-.298h.961a.52.52 0 0 1-.468.298m.517-.63h-1.058v-1.83h1.058v1.83m-4.564.827h-.032a.68.68 0 0 1-.187-.026v-.209a.51.51 0 0 0 .192.037h.024a.52.52 0 0 0 .468-.298h.202c-.087.287-.352.495-.667.495m-.62-.324a.69.69 0 0 1-.108-.372v-4.284h1.424v4.153h-.183v-1.83h-1.059v1.83h-.075v.503"/><path d="M-215.421 199.636h-.024c-.068 0-.133-.013-.192-.037v-.261h.684a.52.52 0 0 1-.468.298m.517-.63h-.732-.326v-1.83h1.059v1.83"/><path d="M-215.637 200.142h-.401v-1.137h.401-.401v.332h.401v.805m6.448 0h.4v-.805h-.4z"/><path d="M-208.789 199.338h0-7.248v-.332h.401.732.183.5.183 1.058.184.701.184 1.058.183 1.483.4v.332m-40.206-16.29h-.031a.7.7 0 0 1-.667-.495h.202a.52.52 0 0 0 .469.298h.023c.207 0 .386-.122.468-.298h.202a.7.7 0 0 1-.417.449.71.71 0 0 1-.249.046m.696-.827h-.183v-1.406h-1.058v1.406h-.183v-4.155h1.424v4.155"/><path d="M-248.997 182.85h-.023a.52.52 0 0 1-.469-.298h.96c-.083.176-.261.298-.468.298m.517-.63h-1.058v-1.406h1.058v1.406m1.613.828h-.032a.7.7 0 0 1-.667-.495h.202a.52.52 0 0 0 .469.298h.023a.52.52 0 0 0 .469-.298h.202a.7.7 0 0 1-.417.449.71.71 0 0 1-.249.046m.696-.827h-.183v-1.831h-1.058v1.831h-.183v-4.155h1.424v4.155"/><use xlink:href="#E"/><path d="M-250.917 183.048h-.032a.69.69 0 0 1-.188-.026v-.209c.059.024.124.037.192.037h.023c.207 0 .386-.122.469-.298h.202a.7.7 0 0 1-.417.449c-.077.029-.162.046-.249.046m-.62-.324c-.068-.108-.108-.236-.108-.372v-4.286h1.424v4.155h-.183v-1.831h-1.058v1.831h-.075v.503"/><use xlink:href="#C" x="-8.761"/><path d="M-251.136 183.357h-.4v-1.137h.4-.4v.332h.4v.805m6.848 0h-.4v-.805h.4v.805"/><use xlink:href="#D" x="-8.761"/><use xlink:href="#F"/><use xlink:href="#G"/><use xlink:href="#H"/><use xlink:href="#I"/><path d="M-235.981 199.833h-.032c-.065 0-.128-.009-.188-.026v-.209a.52.52 0 0 0 .192.037h.023c.207 0 .386-.122.469-.298h.202c-.086.287-.352.495-.667.495m-.62-.324c-.068-.107-.108-.236-.108-.372v-4.284h1.424v4.153h-.183v-1.83h-1.058v1.83h-.075v.503"/><path d="M-235.985 199.636h-.023a.52.52 0 0 1-.192-.037v-.261h.684c-.083.176-.261.298-.469.298m.517-.63h-.733-.325v-1.83h1.058v1.83"/><path d="M-236.2 200.142h-.4v-1.137h.4-.4v.332h.4v.805m6.448 0h.4v-.805h-.4z"/><path d="M-229.352 199.338h0-7.249v-.332h.4.733.183.499.183 1.058.183.702.183 1.058.183 1.482.4v.332"/><use xlink:href="#J"/><use xlink:href="#G" x="-8.76"/><path d="M-240.691 199.833h-.032c-.315 0-.581-.209-.667-.495h.202c.083.176.261.298.468.298h.024c.207 0 .386-.122.468-.298h.202c-.086.287-.352.495-.667.495m.696-.827h-.183v-1.83h-1.058v1.83h-.183v-4.153h1.424v4.153"/><path d="M-240.695 199.636h-.024c-.207 0-.386-.122-.468-.298h.961c-.083.176-.261.298-.468.298m.517-.63h-1.058v-1.83h1.058v1.83m-4.564.827h-.031a.69.69 0 0 1-.188-.026v-.209a.51.51 0 0 0 .192.037h.023a.52.52 0 0 0 .469-.298h.202c-.086.287-.352.495-.667.495m-.62-.324c-.068-.107-.108-.236-.108-.372v-4.284h1.424v4.153h-.183v-1.83h-1.058v1.83h-.075v.503"/><path d="M-244.745 199.636h-.023c-.068 0-.133-.013-.192-.037v-.261h.684c-.083.176-.261.298-.469.298m.517-.63h-.733-.325v-1.83h1.058v1.83"/><path d="M-244.96 200.142h-.401v-1.137h.401-.401v.332h.401v.805m6.448 0h.4v-.805h-.4z"/><path d="M-238.112 199.338h0-7.249v-.332h.401.733.183.5.183 1.058.183.702.183 1.058.183 1.482.4v.332m-1.268 17.53h-.031c-.315 0-.581-.209-.667-.495h.202a.52.52 0 0 0 .469.298h.023a.52.52 0 0 0 .469-.298h.202c-.086.287-.352.495-.667.495m.696-.827h-.183v-1.406h-1.058v1.406h-.183v-4.153h1.424v4.153"/><use xlink:href="#B" x="0.853" y="33.821"/><use xlink:href="#K"/><path d="M-237.258 216.671h-.023c-.207 0-.386-.122-.469-.298h.961c-.083.176-.261.298-.469.298m.518-.63h-1.058v-1.831h1.058v1.831"/><use xlink:href="#L"/><use xlink:href="#M"/><path d="M-241.523 217.177h-.4v-1.137h.4-.4v.332h.4v.261.544m6.848 0h-.4v-.805h.4v.805"/><use xlink:href="#D" x="0.852" y="33.821"/><path d="M-228.544 216.868h-.031c-.315 0-.581-.209-.667-.495h.202c.083.176.261.298.468.298h.023c.207 0 .386-.122.469-.298h.202c-.086.287-.352.495-.667.495m.696-.827h-.183v-1.406h-1.058v1.406h-.183v-4.153h1.424v4.153"/><path d="M-228.548 216.671h-.023c-.207 0-.386-.122-.468-.298h.96c-.083.176-.261.298-.469.298m.517-.63h-1.058v-1.406h1.058v1.406"/><use xlink:href="#K" x="10.836"/><use xlink:href="#N"/><use xlink:href="#L" x="10.836"/><use xlink:href="#M" x="10.836"/><path d="M-230.687 217.177h-.4v-1.137h.4-.4v.332h.4v.261.544m6.848 0h-.4v-.805h.4v.805"/><use xlink:href="#D" x="11.688" y="33.821"/><path d="M-251.577 216.868h-.032c-.315 0-.58-.209-.667-.495h.202c.083.176.261.298.469.298h.023c.207 0 .386-.122.469-.298h.202c-.086.287-.352.495-.667.495m.696-.827h-.183v-1.406h-1.058v1.406h-.183v-4.153h1.424v4.153"/><path d="M-251.581 216.671h-.023c-.207 0-.386-.122-.469-.298h.96c-.083.176-.261.298-.469.298m.517-.63h-1.058v-1.406h1.058v1.406"/><use xlink:href="#K" x="-12.197"/><use xlink:href="#N" x="-23.033"/><path d="M-253.501 216.868h-.031c-.065 0-.128-.009-.188-.026v-.209c.059.024.124.037.192.037h.023c.207 0 .386-.122.469-.298h.202c-.086.287-.352.495-.667.495m-.62-.324c-.068-.108-.108-.236-.108-.372v-4.284h1.424v4.154h-.183v-1.831h-1.058v1.831h-.075v.503"/><use xlink:href="#M" x="-12.197"/><path d="M-253.721 217.177h-.4v-1.137h.4-.4v.332h.4v.261.544m6.849 0h-.4v-.805h.4v.805"/><use xlink:href="#D" x="-11.345" y="33.821"/><use xlink:href="#J" x="-6.176" y="-32.763"/><use xlink:href="#G" x="-14.936" y="-32.763"/><use xlink:href="#O"/><use xlink:href="#I" x="-14.936" y="-32.763"/><use xlink:href="#P"/><use xlink:href="#Q"/><path d="M-251.136 167.381h-.4v-1.138h.4-.4v.332h.4v.262.544m6.848 0h-.4v-.806h.4v.806"/><use xlink:href="#D" x="-8.761" y="-15.977"/><use xlink:href="#F" x="-3.751" y="-32.763"/><use xlink:href="#G" x="-3.751" y="-32.763"/><use xlink:href="#H" x="-3.751" y="-32.763"/><use xlink:href="#I" x="-3.751" y="-32.763"/><use xlink:href="#P" x="11.185"/><use xlink:href="#Q" x="11.185"/><path d="M-239.952 167.381h-.4v-1.138h.4-.4v.332h.4v.262.544m6.449-.132h.4v-.673h-.4z"/><use xlink:href="#D" x="2.424" y="-15.977"/><path d="M-238.322 149.102h-.032c-.315 0-.581-.209-.667-.495h.202c.083.176.261.298.469.298h.023c.207 0 .386-.122.469-.298h.202c-.086.287-.352.495-.667.495m.696-.827h-.183v-1.406h-1.058v1.406h-.183v-4.155h1.424v4.155"/><use xlink:href="#B" x="1.911" y="-33.946"/><path d="M-236.196 149.102h-.031c-.315 0-.581-.209-.667-.495h.202c.083.176.261.298.469.298h.023c.207 0 .386-.122.469-.298h.202c-.086.287-.352.495-.667.495m.696-.827h-.183v-1.831h-1.058v1.831h-.183v-4.155h1.424v4.155"/><use xlink:href="#E" x="10.671" y="-33.946"/><path d="M-240.245 149.102h-.032a.69.69 0 0 1-.188-.026v-.209a.52.52 0 0 0 .192.037h.023c.207 0 .386-.122.469-.298h.202c-.086.287-.352.495-.667.495m-.62-.324c-.068-.108-.108-.236-.108-.372v-4.286h1.424v4.155h-.183v-1.831h-1.058v1.831h-.075v.503"/><use xlink:href="#M" x="1.058" y="-67.767"/><path d="M-240.465 149.411h-.4v-1.137h.4-.4v.332h.4v.805m6.448 0h.4v-.805h-.4z"/><use xlink:href="#D" x="1.911" y="-33.946"/><path d="M-219.781 149.102h-.032c-.314 0-.58-.209-.666-.495h.202c.082.176.261.298.468.298h.024a.52.52 0 0 0 .468-.298h.202c-.086.287-.352.495-.667.495m.696-.827h-.183v-1.406h-1.058v1.406h-.184v-4.155h1.424v4.155"/><path d="M-219.785 148.904h-.024c-.208 0-.386-.122-.468-.298h.96a.52.52 0 0 1-.468.298m.517-.63h-1.058v-1.406h1.058v1.406m1.613.828h-.032c-.315 0-.58-.209-.667-.495h.203c.082.176.261.298.468.298h.023a.52.52 0 0 0 .47-.298h.202c-.087.287-.352.495-.667.495m.696-.827h-.183v-1.831h-1.059v1.831h-.183v-4.155h1.424v4.155"/><path d="M-217.659 148.904h-.023c-.208 0-.386-.122-.468-.298h.961a.52.52 0 0 1-.47.298m.518-.63h-1.059v-1.831h1.059v1.831m-4.564.828h-.031a.69.69 0 0 1-.188-.026v-.209a.51.51 0 0 0 .192.037h.023a.52.52 0 0 0 .469-.298h.203c-.087.287-.353.495-.667.495m-.62-.324a.7.7 0 0 1-.108-.372v-4.286h1.424v4.155h-.183v-1.831h-1.058v1.831h-.075v.503"/><use xlink:href="#M" x="19.599" y="-67.767"/><path d="M-221.924 149.411h-.4v-1.137h.4-.4v.332h.4v.805m6.447 0h.401v-.805h-.401z"/><path d="M-215.076 148.606h0-7.249v-.332h.4.733.183.499.184 1.058.183.702.183 1.059.183 1.482.401v.332"/><use xlink:href="#J" x="14.604" y="-32.763"/><use xlink:href="#G" x="5.844" y="-32.763"/><use xlink:href="#O" x="20.78"/><use xlink:href="#I" x="5.844" y="-32.763"/><use xlink:href="#P" x="20.78"/><use xlink:href="#Q" x="20.78"/><path d="M-230.357 167.381h-.4v-1.138h.4-.4v.332h.4v.262.544m6.849 0h-.4v-.806h.4v.806"/><use xlink:href="#D" x="12.019" y="-15.977"/><path d="M-217.343 167.07h-.032c-.315 0-.581-.209-.667-.495h.202a.52.52 0 0 0 .468.298h.024c.208 0 .386-.122.468-.298h.203c-.087.287-.352.495-.667.495m.696-.827h-.183v-1.405h-1.059v1.405h-.183v-4.153h1.424v4.153"/><path d="M-217.348 166.873h-.024a.52.52 0 0 1-.468-.298h.96c-.082.176-.261.298-.468.298m.518-.63h-1.059v-1.405h1.059v1.405m1.612.827h-.03c-.315 0-.581-.209-.667-.495h.202a.52.52 0 0 0 .468.298h.024c.208 0 .386-.122.468-.298h.202c-.086.287-.352.495-.667.495m.696-.827h-.183v-1.83h-1.058v1.83h-.183v-4.153h1.423v4.153"/><path d="M-215.222 166.873h-.024a.52.52 0 0 1-.468-.298h.96c-.082.176-.261.298-.468.298m.517-.63h-1.058v-1.83h1.058v1.83m-4.563.827h-.032a.69.69 0 0 1-.187-.026v-.208a.51.51 0 0 0 .192.036h.024a.52.52 0 0 0 .468-.298h.202c-.086.287-.352.495-.667.495m-.62-.324c-.069-.107-.108-.235-.108-.372v-4.284h1.424v4.153h-.183v-1.83h-1.058v1.83h-.076v.503"/><path d="M-219.271 166.873h-.024c-.068 0-.133-.012-.192-.036v-.262h.684a.52.52 0 0 1-.468.298m.517-.63h-.733-.325v-1.83h1.058v1.83"/><path d="M-219.487 167.381h-.401v-1.138h.401-.401v.332h.401v.262.544m6.849 0h-.401v-.806h.401v.806"/><path d="M-212.638 166.575h0-7.249v-.332h.401.733.183.5.183 1.059.183.702.183 1.058.183 1.483.401v.332m-9.762 16.465h-7.756v-5.656h7.756v5.656m8.235 0h-6.546v-8.19h6.546v8.19"/></g><path d="M-238.867 151.821h-3.789v-2.41h3.789v2.41m18.636 0h-3.788v-2.41h3.788v2.41m-11.491 17.837h-3.789v-2.41h3.789v2.41m20.217 15.874h-3.789v-2.41h3.789v2.41" fill="#f5f9fd"/><g fill="#a8d29f"><path d="M-141.521 164.849l4.403 9.683.781 1.864-.679-3.854v-.003l-2.106-11.799-5.033-26.475c-1.009-3.369-5.659-10.539-8.787-4.3-2.034 4.054 5.811 22.44 11.421 34.884"/><path d="M-141.564 170.553l4.451 4.594.775.778-1.334-2.732-3.187-6.084c-4.225-7.7-10.446-17.57-14.305-17-4.403.65 6.615 13.071 13.6 20.443"/></g><path d="M-140.856 164.457l4.416 9.716c.071-.583.102-1.259.102-1.997v-.003l-2.112-11.839c-.325 1.616-1.003 3.405-2.406 4.124m-1.543 6.564l4.432 4.575c-.087-.522-.289-1.199-.556-1.946l-3.174-6.058c-.029.981-.169 2.442-.702 3.429" class="E"/><path d="M-138.201 190.896c2.574 7.291 9.97 22.909 12.899 29.015.661 1.378 2.334 1.928 3.687 1.214 1.012-.536 1.577-1.652 1.404-2.786l-4.242-25.352c-1.827-8.815-2.867-17.711-6.614-20.026-1.031-.637-2.145-.932-3.233-1.012a7.97 7.97 0 0 0-1.629.048 9.08 9.08 0 0 0-.379.058 8.7 8.7 0 0 0-.93.221 6 6 0 0 0-.352.112c-.404.137-.794.302-1.165.49-1.577.802-2.849 2.009-3.345 3.313-1.497 3.92 1.453 7.772 3.9 14.705m-34.612 18.127c1.955.448 4.046.685 6.234.683 8.294-.008 17.929-3.45 26.348-11.916 0 0 .212-6.922-2.329-12.957h-.004c-1.764-4.186-5.249-9.471-10.56-10.705-3.424-.795-6.13-.099-8.392 1.093-3.85 2.021-6.418 5.472-9.043 5.459-2.586-.012-5.55.697-8.225 2.062a17.14 17.14 0 0 0-1.288.721l-.001.002a12.48 12.48 0 0 0-.516.327l-.011.008c-3.749 2.487-6.512 6.401-6.082 11.505.1 1.183.383 2.453.896 3.81 1.822 4.836 6.671 8.465 12.972 9.907" class="H"/><path d="M-156.237 176.267s4.98-.567 6.524 2.718-1.783 4.348-4.143 3.345-5.033-5.061-2.381-6.063" fill="#ffb583"/><path d="M-186.728 195.335c.1 1.184.509 2.413.896 3.81 2.733 9.865 8.511 15.058 13.265 17.406 5.255 2.594 16.171 2.704 20.917.969 7.787-2.847 11.632-10.191 11.357-19.702 0 0 .211-6.919-2.33-12.951h-.002s-6.406 14.528-24.87 15.616c-8.387.493-14.766-2.133-19.233-5.147" fill="#ea6c2d"/><path d="M-175.046 175.067c.716-2.746 3.903-3.027 6.727-4.24s6.732-5.102 6.732-5.102-3.904-.73-8.825-.428-4.634 9.77-4.634 9.77" fill="#a8d29f"/><path d="M-175.046 175.067c.309-2.948 2.568-6.692 4.634-7.542s8.825-1.8 8.825-1.8-3.904-.73-8.825-.428-4.634 9.77-4.634 9.77" class="E"/><path d="M-170.582 180.697c-2.586-.012-5.55.696-8.225 2.062 2.457-1.098 5.315-.956 7.614-.814 2.143.132 3.8.264 4.192-.607.87-1.939 5.289-5.947 5.459-6.099-3.849 2.02-6.416 5.471-9.041 5.458" fill="#ea6c2d"/><path d="M-180.611 183.809c.139-.078.31-.185.516-.327l-.516.327" fill="#95c38b"/><path d="M-167.332 181.491c-1.312-3.553-4.919-6.006-7.713-7.438-2.223-1.14-5.543-2.367-7.137-2.933a.4.4 0 0 0-.489.552l.421.849c.421.85 1.19 1.474 2.109 1.708 2.826.716 9.08 2.737 11.481 7.113.27.492 1.564.784 1.327.15" class="E"/><path d="M-164.764 232.241c14.07-1.227 28.117-5.826 41.835-13.69 2.287-1.312 3.802-3.55 4.253-6.037a8.83 8.83 0 0 0-.059-3.433c-1.038-2.382-7.4-5.23-14.094-5.546-1.84-.086-3.705.017-5.495.376-13.968 2.798-31.541 4.42-42.089 1.6-10.785-2.883-24.091-7.292-35.76-16.196l-.003-.002c-1.137-.855-31.99-19.181-31.99-19.181-3.942-1.449-5.736 3.041-5.736 3.041s3.307 1.579 11.07 7.394 8.371 21.614 8.372 21.619c-.087 4.537 2.023 8.973 5.892 11.733 5.97 4.261 14.778 9.565 25.843 13.433 12.449 4.352 25.222 5.998 37.962 4.89" fill="#ffb93e"/><path d="M-129.205 203.477c-13.947 2.794-31.493 4.413-42.024 1.598-10.769-2.878-24.055-7.281-35.707-16.172l-.003-.002c-.236-.141-9.495-5.565-11.02 5.506-1.491 10.834 52.226 29.388 94.243 8.696-1.838-.086-3.7.017-5.488.375" fill="#ffa412"/><path d="M-192.096 171.788l.45-.905c.177-.291.933-1.144 1.062-.951s.643 1.493.369 1.857.018.997-1.342 1.38l-.54-1.38" class="B"/><path d="M-207.214 167.907s6.964 5.813 9.679 5.275c2.123-.421 5.381-1.538 5.381-1.538l.651 1.667s-2.922 3.964-5.968 3.99c-4.763.041-8.281-2.062-8.281-2.062l-1.463-7.332" class="C"/><path d="M-219.426 229.218s.202 3.261.833 3.307c.085.007 3.2.007 3.2.007l3.977-.023s-.026-.959-1.189-1.161-3.108-1.02-3.813-2.556c-.742-1.616-3.009.427-3.009.427" class="F"/><path d="M-219.655 229.444s1.209.405 2.154.405c1.053 0 2.01-.287 2.01-.287s.227-2.202 1.48-7.052c.657-2.543 1.595-5.811 2.93-9.874 3.688-11.227 4.81-17.793 4.913-18.415.006-.033.008-.05.008-.05l-.012-.006-11.342-4.98s1.402 15.472-.387 21.411c-.251.83-.465 1.797-.649 2.845-1.13 6.45-1.104 16.001-1.104 16.001" class="I"/><path d="M-214.012 222.51c.657-2.543 1.595-5.811 2.93-9.874 3.688-11.227 4.81-17.793 4.913-18.415 0-.019-.003-.036-.004-.055l-11.342-4.98s1.402 15.472-.387 21.411c-.251.83 3.891 11.913 3.891 11.913" class="H"/><path d="M-210.566 229.218s.202 3.261.833 3.307a500.42 500.42 0 0 0 3.2.007l3.977-.023s-.026-.959-1.188-1.161-3.109-1.02-3.814-2.556c-.74-1.616-3.008.427-3.008.427" class="F"/><path d="M-204.136 189.551s.148 10.026-1.587 22.336-1.147 17.536-1.147 17.536-1.192.386-1.673.425c-1.226.099-2.482-.288-2.482-.288s-2.483-12.315-1.771-18.476-3.401-21.143-3.401-21.143l12.06-.391" class="I"/><path d="M-212.179 166.088l2.214 1.451 3.199-.596-.448-2.299-.034-.17-.307-1.533-2.988-1.318-1.114-.492c.003.017.086.915.097 1.046.21 2.328-.62 3.911-.62 3.911" class="B"/><path d="M-203.474 189.984c-.045 5.292-.398 17.673-.658 17.924-2.756 2.66-14.88-.729-15.523-3.66s2.442-37.585 7.15-38.969c.977-.287 6.2 1.402 6.2 1.402s.819 2.143 1.357 4.874c.2 1.011.849 8.229 1.229 13.053l.23 3.183c.019.323.024 1.111.015 2.194" class="D"/><path d="M-211.334 162.219c.656 1.112 3.102 2.072 4.121 2.425l-.034-.17-.307-1.533-2.988-1.318c-.66-.009-1.063.139-.792.596" fill="#fca56b"/><path d="M-206.428 162.76s-4.813 1.501-5.702-1.51-2.108-4.846.927-5.933 3.974-.113 4.516.819 1.489 6.156.26 6.624" class="B"/><path d="M-206.876 155.846s-.308 3.506-1.033 3.353-1.381-.265-1.275.791 1.111 2.277-1.123 2.464-5.445-5.574-4.831-6.665c1.77-3.147 10.821-3.782 8.262.056" class="F"/><path d="M-207.585 165.356c-.062-.026-3.582-1.606-3.994-1.47s-.925 1.394-.925 1.394l6.2 1.402s-.488-.993-1.28-1.326" class="C"/><path d="M-184.276 182.536l-18.576 19.745a.97.97 0 0 1-1.366.042l-1.231-1.159a.97.97 0 0 1-.042-1.366l18.576-19.744a.97.97 0 0 1 1.366-.042l1.231 1.158a.97.97 0 0 1 .042 1.366" fill="#1f4d84"/><path d="M-194.7 193.616l-8.151 8.665a.97.97 0 0 1-1.366.042l-1.231-1.159a.97.97 0 0 1-.042-1.366l8.152-8.664 2.638 2.482m28.999-13.607a13.26 13.26 0 0 1-6.621 3.833c-4.209.995-8.822-.073-12.208-3.258a13.27 13.27 0 0 1-4.137-8.49c-.333-3.664.844-7.448 3.564-10.339 3.184-3.386 7.722-4.735 11.983-3.995a13.22 13.22 0 0 1 2.172.567 13.29 13.29 0 0 1 4.673 2.854c5.358 5.041 5.614 13.471.573 18.828m1.141-20.159l-.242-.235c-6.222-5.853-16.012-5.556-21.867.667-3.938 4.184-5.093 9.984-3.533 15.114a15.38 15.38 0 0 0 4.199 6.753c6.222 5.854 16.014 5.555 21.868-.667a15.47 15.47 0 0 0-.426-21.632" class="F"/><path d="M-179.963 183.4c-1.65-.599-3.207-1.537-4.567-2.816a13.27 13.27 0 0 1-4.137-8.49c-.333-3.664.844-7.448 3.564-10.339.576-.613 1.198-1.159 1.853-1.639 2.324-1.698 5.084-2.553 7.848-2.553a13.3 13.3 0 0 1 1.062.042c.409.033.815.083 1.22.155-2.451.58-4.765 1.86-6.621 3.832-5.041 5.358-4.782 13.788.574 18.828a13.43 13.43 0 0 0 2.041 1.58 19.13 19.13 0 0 0-1.682.758c-.393.199-.78.412-1.157.641" fill="#cfe1f9"/><path d="M-175.404 184.202c-1.543 0-3.088-.266-4.559-.802l1.157-.641 1.682-.758h0l-1.682.758c.619-.277 1.263-.474 1.918-.614 1.427.858 2.976 1.423 4.564 1.699a13.44 13.44 0 0 1-3.08.359" fill="#d0a692"/><path d="M-178.806 182.759l1.682-.758.236.144c-.655.14-1.299.337-1.918.614" fill="#ce9e93"/><path d="M-175.404 184.202c-3.273 0-6.553-1.199-9.125-3.619-5.358-5.041-5.614-13.47-.573-18.828a13.45 13.45 0 0 1 1.854-1.639c-.656.48-1.278 1.026-1.853 1.639-2.72 2.891-3.897 6.675-3.564 10.339a13.27 13.27 0 0 0 4.137 8.49c1.36 1.279 2.916 2.217 4.567 2.816 1.471.536 3.016.802 4.559.802a13.44 13.44 0 0 0 3.08-.359c-1.009.239-2.045.359-3.08.359m3.188-26.255h0c-.299-.073-.6-.135-.903-.188a13.45 13.45 0 0 0-1.22-.154c.409.033.815.083 1.22.153.302.053.604.115.903.188" fill="#6582ad"/><path d="M-177.125 182a13.43 13.43 0 0 1-2.041-1.58c-5.357-5.041-5.615-13.471-.574-18.828 1.856-1.972 4.169-3.252 6.621-3.832h0c.302.052.604.115.903.187 2.156.529 4.209 1.605 5.94 3.235a13.25 13.25 0 0 1 3.059 4.313 42.05 42.05 0 0 0-4.767-.271c-.769 0-1.582.021-2.427.073-3.924.242-4.537 6.314-4.624 8.761-2.234-1.145-5.553-2.372-7.147-2.938a.4.4 0 0 0-.489.552l.421.849c.421.85 1.19 1.474 2.109 1.708 2.622.664 8.191 2.451 10.901 6.197a3.66 3.66 0 0 1-1.327.271h-.082c-2.036 0-4.302.445-6.475 1.304m8.994-2.138c-1.574-2.561-4.3-4.427-6.582-5.637 1.097-1.98 3.889-2.323 6.394-3.4 1.876-.806 4.227-2.788 5.596-4.03.426 1.323.639 2.701.64 4.08a13.4 13.4 0 0 1-.346 3.036c-.184.791-.441 1.569-.772 2.323-1.888 1.264-3.46 2.731-4.929 3.628" fill="#deebfd"/><path d="M-172.324 183.843c-1.588-.275-3.138-.841-4.564-1.699 1.065-.226 2.157-.296 3.209-.296l2.488.096 2.104.096c.411 0 .777-.023 1.086-.08l-.445.286c-1.214.744-2.524 1.277-3.875 1.596m5.419-2.703c.547-1.033 1.916-2.535 3.135-3.765-.271.483-.573.954-.909 1.409a13.34 13.34 0 0 1-1.024 1.226 13.14 13.14 0 0 1-1.202 1.13" fill="#dfb195"/><path d="M-174.713 174.226l-.177-.093c.617-2.756 2.625-5.845 4.479-6.608 1.462-.602 5.279-1.254 7.381-1.584l.307.854c-1.369 1.243-3.72 3.225-5.596 4.03-2.505 1.077-5.297 1.42-6.394 3.4" fill="#bddbcf"/><path d="M-174.89 174.133l-.146-.076c.087-2.447.7-8.519 4.624-8.761l2.427-.073a42.05 42.05 0 0 1 4.767.271l.187.447c-2.103.33-5.92.982-7.381 1.584-1.853.763-3.861 3.852-4.479 6.608" fill="#aaccbc"/><path d="M-176.889 182.145l-.236-.144c2.173-.859 4.439-1.304 6.475-1.304h.068c.457 0 .896-.098 1.342-.271a9.07 9.07 0 0 1 .58.915c.132.243.515.437.84.495l-.183.124c-.309.058-.675.08-1.086.08-.613 0-1.326-.048-2.104-.096l-2.488-.096c-1.052 0-2.143.07-3.209.296m9.553-.661c-.21-.568-.479-1.108-.795-1.621 1.468-.896 3.041-2.363 4.929-3.628l-.567 1.139c-1.219 1.23-2.588 2.732-3.135 3.765l-.432.344" fill="#dea896"/><path d="M-167.82 181.837c-.325-.059-.708-.253-.84-.495a9.07 9.07 0 0 0-.58-.915h0c-2.71-3.746-8.279-5.534-10.901-6.198-.92-.234-1.688-.858-2.109-1.708l-.421-.849a.4.4 0 0 1 .489-.552c1.594.567 4.913 1.793 7.137 2.933l.01.005.146.076.177.093c2.282 1.21 5.008 3.076 6.582 5.637h0c.316.512.585 1.053.795 1.621-.159.122-.321.239-.484.353" fill="#aaccbc"/><path d="M-172.322 183.843h0c1.351-.32 2.66-.853 3.875-1.597a13.29 13.29 0 0 1-3.875 1.597m7.646-5.061c.335-.455.638-.926.909-1.409l.567-1.139h0c.331-.754.588-1.532.772-2.323a13.24 13.24 0 0 1-2.247 4.87m-7.539-20.835l-.903-.187h0l.903.187" fill="#748db0"/><path d="M-203.474 189.984c-11.503-7.79-10.565-18.504-10.565-18.504 4.488 2.533 8.937 8.526 10.321 13.128l.23 3.183c.019.323.024 1.111.015 2.194" class="C"/><path d="M-193.336 186.042c.767-.177 1.282-.757 1.389-.858 0 0 .326.021-.054.72l-.156.314c-.021.044.009.094.056.097.444.034.888-.141 1.74.036.117.025.152.307.148.427-.008.203.007.431-.229.743-.138.182-.521.377-1.375.72-.325.131-1.255.033-2.126-.267l-.696-.322.217-1.295.175.037c.278.058.621-.281.911-.352" class="B"/><path d="M-210.665 166.682s-9.772 1.86 2.875 16.011c2.023 2.263 12.95 5.21 12.95 5.21s1.108-.944.55-1.707c0 0-7.524-5.464-9.179-6.333-.745-.391-2.891-8.72-4.105-10.727s-3.09-2.455-3.09-2.455" class="D"/><path d="M-191.831 171.96s.319-.611.381-.933.465-1.262.631-1.427c.067-.067.284.019.31.304.011.124-.05.35-.157.619-.175.437-.146 1.03-.207 1.228-.151.492-.959.21-.959.21" class="B"/><g class="E"><path d="M-227.992 231.666s-3.848-10.568-6.55-9.667 6.55 9.667 6.55 9.667m-1.474 0c-.327 0-6.468-6.372-6.877-4.704s6.877 4.704 6.877 4.704"/><path d="M-222.916 231.666s-2.539-2.328-5.755-1.722-4.588 1.27-6.608.81-3.051.912-3.051.912h15.414"/></g><path d="M-179.322 135.397l-14.529-.011c-.667 0-1.212-.546-1.212-1.213l.01-14.024a1.22 1.22 0 0 1 1.214-1.212l14.529.011c.667 0 1.212.546 1.211 1.213l-.01 14.024c0 .667-.546 1.212-1.213 1.212" fill="#c0d8fb"/><path d="M-179.951 134.684l-13.271-.01a1.11 1.11 0 0 1-1.107-1.108l.01-12.808a1.11 1.11 0 0 1 1.108-1.107l13.271.01a1.11 1.11 0 0 1 1.106 1.108l-.009 12.808a1.11 1.11 0 0 1-1.108 1.107" fill="#dfebfd"/><g fill="#b7d3f3"><use xlink:href="#R"/><path d="M-184.094 121.654a.351.351 0 1 1 .614.342.35.35 0 0 1-.477.135c-.169-.094-.23-.308-.137-.477m2.426 1.931a.351.351 0 1 1-.105.485.35.35 0 0 1 .105-.485m1.201 2.987a.35.35 0 0 1 .351.351c0 .194-.158.351-.352.351a.35.35 0 0 1-.351-.351c0-.194.158-.351.352-.351m-.617 3.464a.351.351 0 1 1-.497.497c-.137-.138-.137-.36 0-.497a.35.35 0 0 1 .497 0m-2.207 2.21c.137.138.137.359 0 .497a.35.35 0 0 1-.497 0 .351.351 0 1 1 .497-.497"/><use xlink:href="#R" x="-0.009" y="12.227"/><path d="M-189.07 121.651a.351.351 0 1 0-.614.341.35.35 0 0 0 .477.137c.169-.094.23-.308.137-.477m-2.43 1.926a.351.351 0 1 0 .105.486.35.35 0 0 0-.105-.486m-1.205 2.985a.351.351 0 1 0 0 .702.351.351 0 1 0 0-.702m.612 3.465a.351.351 0 1 0 .496.497.351.351 0 1 0-.496-.497m2.203 2.212c-.137.138-.137.36 0 .498a.35.35 0 0 0 .497 0 .352.352 0 1 0-.497-.498m3.215-5.322c0-.194.158-.351.352-.351a.35.35 0 0 1 .351.351c-.001.194-.158.351-.352.351a.35.35 0 0 1-.351-.351"/><path d="M-186.276 126.918h-.096l.003-4.387h.096l-.003 4.387"/><path d="M-186.279 127.026l-.177-.227 2.327-1.824.177.227-2.327 1.824"/></g><use xlink:href="#S" class="J"/><path d="M-253.146 194.227h0c-.554 0-1.004-.449-1.004-1.003v-3.036h2.008v3.036c0 .554-.45 1.003-1.004 1.003" fill="#f1a34f"/><use xlink:href="#S" x="4.035" class="J"/><path d="M-249.111 194.227h0c-.555 0-1.004-.449-1.004-1.003v-3.878h2.008v3.878c0 .554-.45 1.003-1.004 1.003" fill="#abddda"/><use xlink:href="#S" x="-3.65" class="J"/><path d="M-256.796 194.227h0c-.554 0-1.004-.449-1.004-1.003v-3.878h2.008v3.878c0 .554-.449 1.003-1.004 1.003" fill="#ffb93e"/><g fill="#77a4e5"><path d="M-259.072 195.453h-.76v-2.256h.76v2.256m12.997 0h-.76v-2.256h.76v2.256"/><path d="M-246.075 193.856h-13.757v-.659h13.757v.659"/></g><g class="G"><path d="M-277.569 164.023s-1.651-1.015-3.404-.323-1.753 4.748-3.597 5.947-3.663 4.223-2.5 6.098 3.446 2.205 4.479.926 2.315-.223 2.085-2.032.302-8.809 1.807-8.468 1.13-2.148 1.13-2.148"/><path d="M-272.177 167.252s-1.756-3.921-5.392-3.229-3.163 7.326-1.74 8.388 7.132-5.159 7.132-5.159"/></g><g fill="#77a4e5"><path d="M-277.986 231.653l.04-.001c.325-.006.577-.272.546-.578l-2.17-21.676-1.894.169 3.117 21.792c.024.17.18.297.362.293m-20.9.001l-.04-.001c-.325-.006-.577-.272-.546-.578l2.17-21.676 1.894.169-3.117 21.792c-.024.17-.18.297-.362.293m.648-25.408l-3.853-19.025c-.494-2.576 1.64-4.931 4.411-4.868l7.43.169a5.87 5.87 0 0 1 5.504 4.237l5.637 19.486h-19.13"/><path d="M-295.908 206.244l-3.853-19.025c-.494-2.576 1.64-4.931 4.412-4.868l7.43.169a5.87 5.87 0 0 1 5.504 4.237l5.637 19.486h-19.13"/><path d="M-297.165 209.715h29.397c.591 0 1.074-.483 1.074-1.074v-1.322a1.08 1.08 0 0 0-1.074-1.074h-30.47v2.396a1.08 1.08 0 0 0 1.074 1.074"/><path d="M-283.37 209.715h18.74a.87.87 0 0 0 .865-.866v-1.739a.87.87 0 0 0-.865-.866h-18.74a.87.87 0 0 0-.865.866v1.739a.87.87 0 0 0 .865.866"/></g><path d="M-283.505 186.698l3.123 7.901s3.009 3.546 5.427 2.403l-7.652-14.859-.898 4.555" fill="#abddda"/><path d="M-262.289 230.108c-.09.872 1.124 1.098 2.533 1.184s.979.369 2.907.739 2.707-.149 2.85-.409c.127-.23-.767-.603-1.719-1.021l-.36-.16c-1.072-.485-1.666-1.458-2.496-2.362-.786-.857-1.512-3.58-1.512-3.58l-2.618-.589.955 3.499c.144.615-.086 1.299-.288 1.819-.109.282-.22.572-.251.88" class="B"/><path d="M-259.947 231.483c1.408.085 1.171.178 3.098.549s2.707-.149 2.85-.409c.127-.23-.767-.603-1.719-1.021l-.015.016s-1.363.447-2.925.003c-1.274-.36-2.501-1.137-3.378-1.393-.109.282-.22.572-.251.88-.09.872.933 1.289 2.341 1.375" fill="#0f2549"/><path d="M-266.256 199.774c-1.409-.99-10.549-5.33-15.305-5.84l-5.436-1.986s-4.474 6.626-4.51 11.696c-.017 2.365 1.072 2.599 1.073 2.599l17.59.202c1.209.124 2.804 3.137 3.203 5.88s7.426 13.901 7.426 13.901 1.465.47 2.143.43c.729-.043 1.066-.287 1.066-.287s-4.072-24.366-7.249-26.596" class="H"/><path d="M-266.648 230.108c-.09.872 1.124 1.098 2.533 1.184s.979.369 2.907.739 2.707-.149 2.85-.409c.127-.23-.767-.603-1.72-1.021l-.36-.16c-1.072-.485-1.666-1.458-2.496-2.362-.786-.857-1.512-3.58-1.512-3.58l-2.618-.589.955 3.499c.144.615-.085 1.299-.288 1.819-.109.282-.22.572-.251.88" class="B"/><path d="M-264.115 231.292c1.408.085.979.369 2.907.739s2.785-.128 2.928-.387c.127-.23-.647-.655-1.798-1.043l-.015.016s-1.363.447-2.925.003c-1.274-.36-2.501-1.137-3.378-1.393-.109.282-.22.572-.251.88-.09.872 1.124 1.098 2.533 1.184" class="G"/><path d="M-270.653 199.774c-1.223-.859-3.277-1.334-7.754-2.792-1.078-.351-11.559-5.546-11.559-5.546s-3.409 5.971-3.445 11.041c0 .073 0 .147.004.219.087 1.997 1.784 3.547 3.783 3.568l12.382.183c1.209.124 2.804 3.137 3.203 5.88s7.426 13.901 7.426 13.901 1.465.47 2.143.43c.729-.043 1.066-.287 1.066-.287s-4.072-24.366-7.249-26.596" class="I"/><path d="M-277.264 178.72c.013.013-1.872.201-2.917-.589-.984-.743-1.393-2.743-1.376-2.74.505.094 1.155-.214 2.249-2.98l.195.125 3.274 2.124-.951 2.14c-.356.884-.638 1.745-.473 1.92" class="B"/><path d="M-275.84 174.661s-.08.234-.573 1.244c-1.852-1.2-2.517-2.176-2.885-3.159l3.458 1.915" fill="#ed975d"/><path d="M-275.125 175.063s-4.999-.84-4.428-3.945.311-5.305 3.527-4.9 3.616 1.703 3.678 2.787-1.462 6.196-2.777 6.058" class="B"/><g class="G"><path d="M-272.474 167.289s-3.306 2.664-5.5 2.814-2.998-.578-2.998-.578 1.324-1.027 2.157-2.729c.245-.501.74-.834 1.297-.863 1.566-.083 4.527-.046 5.044 1.357"/><path d="M-274.476 166.974s1.041 1.076 1.354 1.858c.302.755.341 2.538.058 3.237 0 0 1.783-3.203.887-4.817-.95-1.711-2.299-.278-2.299-.278"/></g><path d="M-275.221 186.82c-2.845 9.765 1.524 8.015.196 8.65-.32.152-2.379 2.86-8.024 2.711-3.124-.082-7.308-1.51-7.356-2.121-.164-2.114 1.855-6.738 2.086-9.841.026-.33.044-.69.058-1.082.074-2.155-.206-2.972 2.399-5.748 2.362-2.515 4.845-4.403 4.966-4.277 3.426 3.558 4.127 1.559 4.127 1.559s2.936 5.385 1.548 10.149" fill="#f9ddbf"/><path d="M-276.769 176.671s3.996 1.863 3.991 3.814 1.42 16.744 1.42 16.744-5.563-1.011-6.28-2.273.95-12.649.95-12.649l-.082-5.635" class="D"/><path d="M-276.492 176.086l-.277.585c.026 1.769-.561 7.052-.636 11.244l2.244-5.414-.447-.63.435-.734-.903-4.107-.416-.944" class="C"/><path d="M-281.003 187.565l-.088 2.549-.029.853-.582 17.014c-7.061.384-13.171-1.044-13.171-1.044l3.364-15.639 2.347-11.085.918 4.076 4.027-6.376 2.155-.611 1.057 10.263" class="D"/><g class="G"><path d="M-267.632 187.185l2.943-1.357-4.925-10.69-2.943 1.356 4.925 10.691"/><path d="M-270.058 179.611l1.406-.648-2.353-5.108-1.406.648 2.353 5.108"/><path d="M-277.973 193.75l2.571-.396c-.007-.047-.72-4.854.527-8.607 1.252-3.767 5.514-4.46 5.557-4.467l-.393-2.571c-.24.036-5.884.957-7.633 6.218-1.449 4.359-.664 9.603-.63 9.824"/><path d="M-282 195.633h11.123v-.63a2.33 2.33 0 0 0-2.33-2.33h-5.992a2.8 2.8 0 0 0-2.801 2.801v.158m5.562-5.477h12.037v-.868h-12.037v.868"/><path d="M-272.749 195.633h8.348v-1.48h-8.348v1.48"/><path d="M-269.496 194.154h2.638v-.603h-2.638v.603"/></g><g class="B"><path d="M-272.864 193.024s.645.831.856.93.348.075.348.075l-.434-.782-.77-.222"/><path d="M-273.013 192.167l1.874.91s-.08.131-.31.121-.813-.223-.813-.223l-.751-.807"/><path d="M-276.586 192.579s3.077-.685 3.573-.412 1.71 1.267 1.861 1.613-1.105-.262-1.514-.372c-.265-.07-.962.172-1.307.287-1.452.484-2.342.235-2.342.235l-.272-1.35"/></g><path d="M-290.405 188.305s.682 10.262 9.012 10.684l.39-7.209-9.402-3.475" class="C"/><g fill="#1c468a"><path d="M-243.188 196.665h-43.57v-1.229h43.57v1.229"/><path d="M-243.376 232.306c-.09-.128-.278-.394-1.454-18.248l-1.124-17.722.46-.028 2.513 35.765s-.005-.013-.018-.032l-.377.265m-43.756-.194l-.377-.265c-.012.018-.018.032-.018.032.33-.914 1.984-25.988 2.594-35.571l.46.028-1.165 17.626-1.494 18.15"/></g><path d="M-281.09 190.113l-.029.853c-.365.062-1.261.088-2.922-.568-2.285-.901-.662-6.836-.485-4.67.223 2.735 2.698 4.052 3.435 4.385" class="C"/><path d="M-281.1 174.887s-4.604.693-6.049 1.783c-2.758 2.081-4.306 13.131-2.523 15.278 2.008 2.416 13.357 1.981 13.357 1.981s-.046-.573-.272-1.35-7.455-3.243-7.677-3.633-.422-5.896-.169-6.815 3.332-7.244 3.332-7.244" class="D"/><path d="M-280.38 174.613l-.623 12.951-2.459-6.471.539-.655-.335-1.567c.04-.143 1.299-3.927 1.299-3.927l1.579-.333" class="C"/></g><path d="M2.646 2.646h211.667v158.75H2.646z" opacity=".15"/><defs ><path id="B" d="M-240.237 182.85h-.023c-.207 0-.386-.122-.469-.298h.961c-.083.176-.261.298-.469.298m.517-.63h-1.058v-1.406h1.058v1.406"/><path id="C" d="M-242.16 182.85h-.023a.52.52 0 0 1-.192-.037v-.261h.684c-.083.176-.261.298-.469.298m.517-.63h-.733-.325v-1.831h1.058v1.831"/><path id="D" d="M-235.527 182.552h0-7.249v-.332h.4.733.183.5.183 1.058.183.702.183 1.058.183 1.482.4v.332"/><path id="E" d="M-246.871 182.85h-.023c-.207 0-.386-.122-.469-.298h.961c-.083.176-.261.298-.469.298m.517-.63h-1.058v-1.831h1.058v1.831"/><path id="F" d="M-234.057 199.833h-.032c-.315 0-.581-.209-.667-.495h.202c.083.176.261.298.469.298h.023c.207 0 .386-.122.469-.298h.202c-.086.287-.352.495-.667.495m.696-.827h-.183v-1.405h-1.058v1.405h-.183v-4.153h1.424v4.153"/><path id="G" d="M-234.061 199.636h-.023c-.207 0-.386-.122-.469-.298h.961c-.083.176-.261.298-.469.298m.517-.63h-1.058v-1.405h1.058v1.405"/><path id="H" d="M-231.931 199.833h-.031c-.315 0-.581-.209-.667-.495h.202c.083.176.261.298.469.298h.023c.207 0 .386-.122.469-.298h.202c-.086.287-.352.495-.667.495m.696-.827h-.183v-1.83h-1.058v1.83h-.183v-4.153h1.424v4.153"/><path id="I" d="M-231.935 199.636h-.023c-.207 0-.386-.122-.469-.298h.961c-.083.176-.261.298-.469.298m.517-.63h-1.058v-1.83h1.058v1.83"/><path id="J" d="M-242.817 199.833h-.031c-.315 0-.581-.209-.667-.495h.202c.083.176.261.298.469.298h.023c.207 0 .386-.122.469-.298h.202c-.086.287-.352.495-.667.495m.696-.827h-.183v-1.405h-1.058v1.405h-.183v-4.153h1.424v4.153"/><path id="K" d="M-237.254 216.868h-.032c-.315 0-.58-.209-.667-.495h.202c.083.176.261.298.469.298h.023c.207 0 .386-.122.469-.298h.202c-.086.287-.352.495-.667.495m.696-.827h-.183v-1.831h-1.058v1.831h-.183v-4.153h1.424v4.153"/><path id="L" d="M-241.304 216.868h-.032c-.065 0-.128-.009-.188-.026v-.209c.059.024.124.037.192.037h.023c.207 0 .386-.122.469-.298h.202c-.086.287-.352.495-.667.495m-.62-.324c-.068-.108-.108-.236-.108-.372v-4.284h1.424v4.154h-.183v-1.831h-1.058v1.831h-.075v.503"/><path id="M" d="M-241.308 216.671h-.023c-.068 0-.133-.013-.192-.037v-.261h.684c-.083.176-.261.298-.469.298m.517-.63h-.733-.325v-1.831h1.058v1.831"/><path id="N" d="M-226.422 216.671h-.023c-.207 0-.386-.122-.469-.298h.96c-.083.176-.261.298-.469.298m.517-.63h-1.058v-1.831h1.058v1.831"/><path id="O" d="M-246.867 167.07h-.032c-.315 0-.581-.209-.667-.495h.202c.083.176.261.298.469.298h.023c.207 0 .386-.122.469-.298h.202c-.086.287-.352.495-.667.495m.696-.827h-.183v-1.83h-1.058v1.83h-.183v-4.153h1.424v4.153"/><path id="P" d="M-250.917 167.07h-.032a.69.69 0 0 1-.188-.026v-.208c.059.024.124.036.192.036h.023c.207 0 .386-.122.469-.298h.202c-.086.287-.352.495-.667.495m-.62-.324a.69.69 0 0 1-.108-.372v-4.284h1.424v4.153h-.183v-1.83h-1.058v1.83h-.075v.503"/><path id="Q" d="M-250.921 166.873h-.023c-.068 0-.133-.012-.192-.036v-.262h.684c-.083.176-.261.298-.469.298m.517-.63h-.733-.325v-1.83h1.058v1.83"/><path id="R" d="M-186.927 121.155a.35.35 0 0 1 .351-.351c.194.001.351.158.351.352a.35.35 0 0 1-.351.351c-.194 0-.351-.158-.351-.352"/><path id="S" d="M-253.146 194.62h0a1.35 1.35 0 0 1-1.351-1.352v-8.534h2.703v8.534a1.35 1.35 0 0 1-1.351 1.352"/></defs></svg>