<svg xmlns="http://www.w3.org/2000/svg" xmlns:xlink="http://www.w3.org/1999/xlink" width="820" height="620" viewBox="0 0 216.958 164.042" xmlns:v="https://vecta.io/nano"><style><![CDATA[.V{fill:#384452}.W{fill:#fff}.X{fill:#829cba}.Y{fill:#52667d}.Z{fill:#5d728a}.a{fill:#647991}.b{fill:#e9a2ca}.c{fill:#e05b5c}.d{fill:#3e4b59}.e{fill:#c9709e}.f{fill:#3f5165}]]></style><g transform="matrix(.0706 0 0 .0794 2.610549 2.606146)" fill-rule="evenodd"><path d="M.5.5h3000v2000H.5z" class="Z"/><path d="M2517.2 1686.3c.7-70.7-6.2-144-21.6-219.2-117.5-573.7-677.7-1038.7-1251.4-1038.7s-943.5 465-826 1038.7c15.4 75.2 38.5 148.5 68.1 219.2z" fill="#71859c"/><path d="M1451.8 590.7c230.5 0 458.8 75.1 657.1 202.2-236.2-223.1-548.4-364.5-864.8-364.5-573.7 0-943.5 465-826 1038.7 15.4 75.2 38.5 148.5 68.1 219.2H639c-4.9-18.8-9.3-37.8-13.2-56.8-117.5-573.7 252.3-1038.8 826-1038.8z" class="Z"/><path d="M1868.5 500.7h123.3v1126.4h-123.3z" class="V"/><path d="M1223.9 837.7c-29 29-76.5 29-105.5 0l-59.5-59.5c-13.8 50.5-.9 106.9 38.8 146.6s96 52.6 146.6 38.8l2 2c-5.5 2-10.2 5.8-13.3 10.6-24.6-9.5-53.3-.7-67.9 22.4l-87.4 137.5c-14.5 22.8-10.5 52.1 8 70.4l66.6 76.3c1.9 2.2 4 4.3 6.2 6.1v2c0 32.1 12.9 61.2 33.8 82.4l-4.3 19.9-5.2-.8c-9.4-1.3-18.7 5.1-20.8 14.4l-19.1 84.7c-2.1 9.3 3.9 17.9 13.2 19.3l6.3.9-42.4 196.5h126.5l59.8-277.5c1.9.1 3.8.1 5.7.1 3 0 6-.1 9-.3v277.7h126.5v-203.3l4.2.1c9.6.3 17.6-7.3 17.9-16.9l2.4-84.7c.3-9.6-7.4-17.6-16.9-17.9l-7.5-.2v-90-49.6-.1c6.9-1.3 13.4-3.8 19.1-7.2l34.5-17.9 36 36c29 29 76.5 29 105.5 0h0c29-29 29-76.5 0-105.5l-4.9-4.9c7.6-10.6 12-23.6 12-37.6 0-35.9-29.1-65-65-65-14 0-27 4.4-37.6 12l-102.6-102.6c11.8-16.9 18.8-37.4 18.8-59.5v-47h35.5c6.9 0 12.5-5.6 12.5-12.5h0c0-6.9-5.6-12.5-12.5-12.5h-35.5v-43.5c0-37.7-30.9-68.6-68.6-68.6h-71c-4.7 0-9.3.5-13.8 1.4-39.6-39-95.5-51.6-145.6-37.9l59.5 59.5c29.1 28.9 29.1 76.3 0 105.4z" class="Z"/><path d="M716.8 500.7h123.3v1126.4H716.8z" fill="#61768f"/><path d="M628 1293.5h295.3c30 0 54.5-24.5 54.5-54.6 0-30-24.5-54.6-54.5-54.6H628c-30 0-54.6 24.5-54.6 54.6.1 30.1 24.6 54.6 54.6 54.6z" class="Y"/><path d="M2550.1 549.8c30 0 54.6-24.5 54.6-54.6 0-30-24.5-54.6-54.6-54.6h-285.5c-30 0-54.6 24.5-54.6 54.6 0 30 24.5 54.6 54.6 54.6z" fill="#5d7187"/><path d="M2122.7 1102.6c15.1 0 27.3-12.2 27.3-27.3s-12.2-27.3-27.3-27.3H1029c-15.1 0-27.3 12.2-27.3 27.3s12.2 27.3 27.3 27.3z" class="Y"/><path d="M949.1 766.7c-15.1 0-27.3 12.2-27.3 27.3v201.5c0 29.5 12.1 56.3 31.5 75.7s46.2 31.5 75.7 31.5c15.1 0 27.3-12.2 27.3-27.3s-12.2-27.3-27.3-27.3c-14.5 0-27.6-5.9-37.2-15.5s-15.5-22.7-15.5-37.2V793.9c.1-15-12.1-27.2-27.2-27.2z" class="V"/><g class="Y"><path d="M2439.1 549.8c30 0 54.6-24.5 54.6-54.6 0-30-24.5-54.6-54.6-54.6h-501.9c-30 0-54.6 24.5-54.6 54.6 0 30 24.5 54.6 54.6 54.6zm-403.7 923.7c15.1 0 27.3-12.2 27.3-27.3s-12.2-27.3-27.3-27.3H1119c-15.1 0-27.3 12.2-27.3 27.3s12.2 27.3 27.3 27.3z"/><path d="M551.7 480.7c-15.1 0-27.3 12.2-27.3 27.3v98.2c0 34.5 14.1 65.9 36.8 88.6s54.1 36.8 88.6 36.8h1658.3c34.5 0 65.9-14.1 88.6-36.8s36.8-54.1 36.8-88.6V508c0-15.1-12.2-27.3-27.3-27.3s-27.3 12.2-27.3 27.3v98.2c0 19.5-8 37.2-20.9 50.1s-30.6 20.9-50.1 20.9H649.8c-19.5 0-37.2-8-50.1-20.9s-20.9-30.6-20.9-50.1V508c.1-15.1-12.1-27.3-27.1-27.3z"/></g><path d="M2403.2 701.3c24.4-24.4 39.5-58 39.5-95.1 0-20.1-16.3-36.4-36.4-36.4s-36.4 16.3-36.4 36.4c0 17-7 32.4-18.2 43.6S2325 668 2308.1 668c-20.1 0-36.4 16.3-36.4 36.4s16.3 36.4 36.4 36.4c37.1 0 70.8-15.2 95.1-39.5z" class="a"/><g class="V"><path d="M2093.2 1394.9c-14.8 14.8-35.3 24.1-57.8 24.1-15.1 0-27.3 12.2-27.3 27.3s12.2 27.3 27.3 27.3c37.5 0 71.6-15.3 96.3-40s40-58.8 40-96.3V529.8c0-37.5-15.3-71.6-40-96.3s-58.8-40-96.3-40c-15.1 0-27.3 12.2-27.3 27.3s12.2 27.3 27.3 27.3c22.5 0 42.9 9.2 57.8 24.1 14.8 14.8 24.1 35.3 24.1 57.8v807.3c-.1 22.3-9.3 42.8-24.1 57.6z"/><path d="M2068.2 549.8c30 0 54.6-24.5 54.6-54.6 0-30-24.5-54.6-54.6-54.6H476.3c-30 0-54.6 24.5-54.6 54.6 0 30 24.5 54.6 54.6 54.6z"/></g><path d="M2086.8 478.5c13.2 13.2 21.4 31.4 21.4 51.3 0 20.1 16.3 36.4 36.4 36.4s36.4-16.3 36.4-36.4c0-40-16.4-76.4-42.7-102.8-26.3-26.3-62.7-42.7-102.8-42.7-20.1 0-36.4 16.3-36.4 36.4s16.3 36.4 36.4 36.4c19.9 0 38.1 8.2 51.3 21.4zM686.2 704.4c0-20.1-16.3-36.4-36.4-36.4-17 0-32.4-7-43.6-18.2S588 623.2 588 606.2c0-20.1-16.3-36.4-36.4-36.4s-36.4 16.3-36.4 36.4c0 37 15.1 70.7 39.5 95.1s58 39.5 95.1 39.5c20.1 0 36.4-16.3 36.4-36.4z" class="X"/><path d="M1037.2 1667.2v-111.8c0-22.5 9.2-42.9 24.1-57.8 14.8-14.8 35.3-24.1 57.8-24.1 15.1 0 27.3-12.2 27.3-27.3S1134 1419 1119 1419c-37.5 0-71.6 15.3-96.3 40s-40 58.8-40 96.3v111.8c0 15.1 12.2 27.3 27.3 27.3a27.1 27.1 0 0 0 27.2-27.2z" class="V"/><path d="M1046.2 1555.4c0-20 8.2-38.1 21.4-51.3s31.4-21.4 51.3-21.4c20.1 0 36.4-16.3 36.4-36.4s-16.3-36.4-36.4-36.4c-40 0-76.4 16.4-102.8 42.7-26.3 26.3-42.7 62.7-42.7 102.8 0 20.1 16.3 36.4 36.4 36.4s36.4-16.4 36.4-36.4z" class="a"/><path d="M638.9 325.4L570.6 268v24.2h-51.8c-36.5 0-66.4 29.9-66.4 66.4v44.5c0-24.5 20-44.5 44.5-44.5h73.8v24.2zM529.8 878.9c12 0 21.8-9.8 21.8-21.8h0c0-12-9.8-21.8-21.8-21.8h-65.5c-12 0-21.8 9.8-21.8 21.8h0c0 12 9.8 21.8 21.8 21.8zm69.4 0c12 0 21.8-9.8 21.8-21.8h0c0-12-9.8-21.8-21.8-21.8h-10.9c-12 0-21.8 9.8-21.8 21.8h0c0 12 9.8 21.8 21.8 21.8zm1539 561c26.3-26.3 42.7-62.7 42.7-102.8 0-20.1-16.3-36.4-36.4-36.4s-36.4 16.3-36.4 36.4c0 20-8.2 38.1-21.4 51.3s-31.4 21.4-51.3 21.4c-20.1 0-36.4 16.3-36.4 36.4s16.3 36.4 36.4 36.4c40.1 0 76.4-16.3 102.8-42.7z" class="X"/><path d="M2168.7 1339.4l77.2-133.7h58.2a4.48 4.48 0 1 0 0-9h-63.4l-79.8 138.3c-1.2 2.2-.5 4.9 1.7 6.2 2.1 1.1 4.8.4 6.1-1.8z" class="W"/><path d="M2453.1 1201.2c0-48.4-39.4-87.8-87.8-87.8s-87.8 39.4-87.8 87.8 39.4 87.8 87.8 87.8 87.8-39.5 87.8-87.8z" class="c"/><path d="M2328.4 1238.1c5.4 5.4 14.2 5.4 19.6 0l17.3-17.3 17.3 17.3c5.4 5.4 14.2 5.4 19.6 0s5.4-14.2 0-19.6l-17.3-17.3 17.3-17.3c5.4-5.4 5.4-14.2 0-19.6s-14.2-5.4-19.6 0l-17.3 17.3-17.3-17.3c-5.4-5.4-14.2-5.4-19.6 0s-5.4 14.2 0 19.6l17.3 17.3-17.3 17.3c-5.4 5.4-5.4 14.2 0 19.6z" class="W"/><g class="X"><path d="M1017.7 740.8c20.1 0 36.4-16.3 36.4-36.4s-16.3-36.4-36.4-36.4H880.5c-20.1 0-36.4 16.3-36.4 36.4s16.3 36.4 36.4 36.4z"/><path d="M985.5 793.9v-89.6c0-20.1-16.3-36.4-36.4-36.4s-36.4 16.3-36.4 36.4v89.6c0 20.1 16.3 36.4 36.4 36.4s36.4-16.3 36.4-36.4z"/></g><path d="M711.6 747.2l79.8-138.3c1.2-2.2.5-4.9-1.7-6.2-2.2-1.2-4.9-.5-6.2 1.7l-77.2 133.7h-58.2a4.48 4.48 0 1 0 0 9h63.5z" class="W"/><path d="M674.8 742.6c0-48.4-39.4-87.8-87.8-87.8s-87.8 39.4-87.8 87.8 39.4 87.8 87.8 87.8c48.3 0 87.8-39.4 87.8-87.8z" fill="#fc0"/><path d="M536.6 771.7c3 5.2 9.6 6.9 14.8 4l4.6-2.7c5.4 5.5 12.3 9.6 20.1 11.6v5.3c0 6 4.9 10.8 10.8 10.8 6 0 10.8-4.9 10.8-10.8v-5.3a43.72 43.72 0 0 0 20.1-11.6l4.6 2.7c5.2 3 11.8 1.2 14.8-4s1.2-11.8-4-14.8l-4.6-2.7c1-3.7 1.6-7.6 1.6-11.6s-.5-7.9-1.6-11.6l4.6-2.7c5.2-3 6.9-9.6 4-14.8-3-5.2-9.6-6.9-14.8-4l-4.6 2.7c-5.4-5.5-12.3-9.6-20.1-11.6v-5.3c0-6-4.9-10.8-10.8-10.8-6 0-10.8 4.9-10.8 10.8v5.3a43.72 43.72 0 0 0-20.1 11.6l-4.6-2.7c-5.2-3-11.8-1.2-14.8 4s-1.2 11.8 4 14.8l4.6 2.7c-1 3.7-1.6 7.6-1.6 11.6s.5 7.9 1.6 11.6l-4.6 2.7c-5.2 3-7 9.7-4 14.8zm50.4-45.8c9.3 0 16.8 7.5 16.8 16.8s-7.5 16.8-16.8 16.8-16.8-7.5-16.8-16.8 7.5-16.8 16.8-16.8z" class="W"/><path d="M824.4 1293.5c30 0 54.6-24.5 54.6-54.6 0-30-24.5-54.6-54.6-54.6h-97.5c-30 0-54.6 24.5-54.6 54.6 0 30 24.5 54.6 54.6 54.6z" class="X"/><path d="M1023.7 1226.9v-116.3a4.48 4.48 0 1 0-9 0v116.3a4.48 4.48 0 1 0 9 0z" class="W"/><circle cx="1019.2" cy="1270.2" r="87.8" fill="#3c6"/><path d="M1064 1265.3l-32.8-27.6v11.6h-24.9c-17.6 0-31.9 14.4-31.9 31.9v21.4c0-11.7 9.6-21.4 21.4-21.4h35.4v11.6z" class="W"/><path d="M1065.4 1075.3c0-20.1-16.3-36.4-36.4-36.4-11.9 0-22.8-4.9-30.7-12.8s-12.8-18.8-12.8-30.7c0-20.1-16.3-36.4-36.4-36.4s-36.4 16.3-36.4 36.4c0 32 13.1 61.1 34.1 82.2 21.1 21.1 50.1 34.1 82.2 34.1 20.1 0 36.4-16.3 36.4-36.4z" class="a"/><g class="V"><path d="M996.6 582c35.7-35.7 57.8-85 57.8-139.5s-22.1-103.8-57.8-139.5-85-57.8-139.5-57.8-103.8 22.1-139.5 57.8-57.8 85-57.8 139.5 22.1 103.8 57.8 139.5 85 57.8 139.5 57.8 103.8-22.1 139.5-57.8zM705.3 442.5c0-41.9 17-79.9 44.5-107.4s65.4-44.5 107.4-44.5c41.9 0 79.9 17 107.4 44.5s44.5 65.4 44.5 107.4c0 41.9-17 79.9-44.5 107.4s-65.4 44.5-107.4 44.5c-41.9 0-79.9-17-107.4-44.5s-44.5-65.4-44.5-107.4z"/><path d="M879.9 617.1V268c0-12.6-10.2-22.7-22.7-22.7-12.6 0-22.7 10.2-22.7 22.7v349.1c0 12.6 10.2 22.7 22.7 22.7s22.7-10.1 22.7-22.7z"/><path d="M749.8 582l246.9-246.9c8.9-8.9 8.9-23.3 0-32.1-8.9-8.9-23.3-8.9-32.1 0l-247 246.9c-8.9 8.9-8.9 23.3 0 32.1 8.9 8.9 23.3 8.9 32.2 0z"/><path d="M1031.7 465.3c12.6 0 22.7-10.2 22.7-22.7 0-12.6-10.2-22.7-22.7-22.7H682.6c-12.6 0-22.7 10.2-22.7 22.7 0 12.6 10.2 22.7 22.7 22.7z"/><path d="M996.6 582c8.9-8.9 8.9-23.3 0-32.1L749.8 303c-8.9-8.9-23.3-8.9-32.1 0-8.9 8.9-8.9 23.3 0 32.1L964.5 582c8.9 8.9 23.3 8.9 32.1 0z"/></g><path d="M943.7 529.1c22.1-22.1 35.8-52.7 35.8-86.6h.1c0-33.8-13.7-64.4-35.9-86.6S890.9 320 857.1 320s-64.4 13.7-86.6 35.9-35.9 52.8-35.9 86.6 13.7 64.4 35.9 86.6c22.1 22.1 52.7 35.8 86.6 35.8v.1c33.8 0 64.4-13.7 86.6-35.9zm-141-32.1c-13.9-13.9-22.5-33.2-22.5-54.4 0-21.3 8.6-40.5 22.5-54.4s33.2-22.5 54.4-22.5c21.3 0 40.5 8.6 54.4 22.5s22.5 33.2 22.5 54.4h.1c0 21.2-8.7 40.4-22.6 54.4-13.9 13.9-33.2 22.5-54.4 22.5v.1c-21.2 0-40.4-8.7-54.4-22.6z" class="Y"/><path d="M857.1 290.7c9.4 0 18.5.8 27.1 2.4 8.9 1.6 17.7 4 26.2 7.2 11.7 4.4 24.8-1.6 29.1-13.3 4.4-11.7-1.6-24.8-13.3-29.1-11-4.1-22.4-7.3-34.1-9.4-11.9-2.2-23.6-3.2-35.1-3.2-54.5 0-103.8 22.1-139.5 57.8s-57.8 85-57.8 139.5 22.1 103.8 57.8 139.5 85 57.8 139.5 57.8c12.6 0 22.7-10.2 22.7-22.7 0-12.6-10.2-22.7-22.7-22.7-41.9 0-79.9-17-107.4-44.5s-44.5-65.4-44.5-107.4c0-41.9 17-79.9 44.5-107.4 27.6-27.5 65.6-44.5 107.5-44.5z" fill="#667c96"/><path d="M708.8 409.6c7.7-34.7 27-64.4 53.3-85.5 26.2-21 59.4-33.3 95-33.3 9.4 0 18.5.8 27.1 2.4 8.9 1.6 17.7 4 26.2 7.2 11.7 4.4 24.8-1.6 29.1-13.3 4.4-11.7-1.6-24.8-13.3-29.1-11-4.1-22.4-7.3-34.1-9.4-11.9-2.2-23.6-3.2-35.1-3.2-46.2 0-89.3 16.1-123.4 43.5-34 27.3-59 65.9-69.1 111.1-2.7 12.2 5 24.3 17.2 27 12.4 2.5 24.4-5.2 27.1-17.4z" class="X"/><path d="M2533.4 1755.7c26.6 0 48.3-21.8 48.3-48.3v-43.3c0-26.6-21.8-48.3-48.3-48.3H470.1c-26.6 0-48.3 21.8-48.3 48.3v43.3c0 26.6 21.8 48.3 48.3 48.3z" class="V"/><path d="M2533.4 1755.7c26.6 0 48.3-21.8 48.3-48.3v-43.3c0-26.6-21.8-48.3-48.3-48.3h-983.3c-26.6 0-48.3 21.8-48.3 48.3v43.3c0 26.6 21.8 48.3 48.3 48.3z" class="d"/><path d="M2533.4 1755.7c26.6 0 48.3-21.8 48.3-48.3v-43.3c0-26.6-21.8-48.3-48.3-48.3h-493.3c-26.6 0-48.3 21.8-48.3 48.3v43.3c0 26.6 21.8 48.3 48.3 48.3z" class="Y"/><path d="M2295.1 838.4l68.3 57.4v-24.2h51.8c36.5 0 66.4-29.9 66.4-66.4v-44.5c0 24.5-20 44.5-44.5 44.5h-73.8V781z" class="X"/><path d="M2303 1571.1c6.1 10.7 19.9 14.3 30.5 8.2l9.6-5.5c11.2 11.4 25.5 19.8 41.5 24v11c0 12.3 10.1 22.4 22.4 22.4s22.4-10.1 22.4-22.4v-11c16-4.1 30.2-12.5 41.5-24l9.6 5.5c10.7 6.1 24.4 2.5 30.5-8.2s2.5-24.4-8.2-30.5l-9.6-5.5c2.1-7.6 3.2-15.6 3.2-23.9s-1.1-16.3-3.2-23.9l9.6-5.5c10.6-6.1 14.3-19.9 8.2-30.5-6.2-10.6-19.9-14.3-30.5-8.2l-9.6 5.5c-11.2-11.4-25.5-19.8-41.5-24v-11c0-12.3-10.1-22.4-22.4-22.4s-22.4 10.1-22.4 22.4v11c-16 4.1-30.2 12.5-41.5 24l-9.6-5.5c-10.7-6.1-24.4-2.5-30.5 8.2s-2.5 24.4 8.2 30.5l9.6 5.5c-2.1 7.6-3.2 15.7-3.2 23.9 0 8.3 1.1 16.3 3.2 23.9l-9.6 5.5c-10.7 6.1-14.4 19.8-8.2 30.5zm103.9-94.6c19.1 0 34.6 15.5 34.6 34.6s-15.5 34.6-34.6 34.6-34.6-15.5-34.6-34.6 15.5-34.6 34.6-34.6z" class="W"/><path d="M1712.3 976.3l165-85.6c30.6-15.8 42.6-53.4 26.9-84s-53.4-42.6-84-26.9l-165 85.6c-30.6 15.8-42.6 53.4-26.9 84 15.8 30.6 53.4 42.7 84 26.9z" class="b"/><path d="M1426.1 495.5c-35 35-92.4 35-127.4 0l-71.9-71.9c-16.7 61-1.1 129 46.9 176.9 47.9 47.9 115.9 63.5 176.9 46.9l353.6 353.6c35 35 92.4 35 127.4 0h0c35-35 35-92.4 0-127.4L1578 520c16.7-61 1.1-129-46.9-176.9-47.9-47.9-115.9-63.5-176.9-46.9l71.9 71.9c35 35.1 35 92.4 0 127.4z" fill="#ccc"/><path d="M1853.9 923.3h0c17.6-17.6 17.6-46.4 0-64.1l-272.7-272.7c-17.6-17.6-46.5-17.6-64.1 0h0c-17.6 17.6-17.6 46.5 0 64.1l272.7 272.7c17.6 17.6 46.4 17.6 64.1 0z" fill="#b3b3b3"/><g class="d"><path d="M1543.3 988H1696v632.8h-152.7z"/><path d="M1701.1 1342.8c11.6.4 21.2-8.8 21.5-20.4l3-121.5c.3-11.6-8.9-21.3-20.5-21.7l-36.9-1.2c-11.6-.4-21.2 8.8-21.5 20.4l-3 121.5c-.3 11.6 8.9 21.3 20.5 21.7z"/></g><path d="M1691.3 982.9c34.2-4.2 58.6-35.3 54.4-69.6L1724 738.7c-4.2-34.2-35.3-58.6-69.6-54.4-34.2 4.2-58.6 35.3-54.4 69.6l21.8 174.6c4.1 34.2 35.3 58.5 69.5 54.4z" class="W"/><g class="V"><path d="M1300.6 1620.8h152.7L1573.7 988h-152.8z"/><path d="M1532.4 1211.5c90 0 163.7-73.6 163.7-163.6V895.1c0-90-73.6-163.7-163.7-163.7-90 0-163.7 73.6-163.7 163.7v152.7c.1 90.1 73.7 163.7 163.7 163.7z"/><path d="M1630.6 1042.6c0-78.1-63.7-141.8-141.8-141.8S1347 964.5 1347 1042.6s63.7 141.8 141.8 141.8 141.8-63.7 141.8-141.8z"/></g><path d="M1532.4 1124.2c89 0 161.9-72.8 161.9-161.9V806.1c0-89-72.8-161.9-161.9-161.9-89 0-161.9 72.8-161.9 161.9v156.3c.1 89 72.9 161.8 161.9 161.8z" class="W"/><use xlink:href="#B" class="V"/><g class="e"><path d="M1550.8 746.5c47.9 0 87-39.2 87-87V524.1c0-47.9-39.2-87-87-87h0c-47.9 0-87 39.2-87 87v135.4c0 47.8 39.1 87 87 87z"/><path d="M1715.2 562.7v-77.4c0-69.1-56.6-125.7-125.7-125.7s-125.7 56.6-125.7 125.7v77.4c0 69.1 56.6 125.7 125.7 125.7 69.2.1 125.7-56.5 125.7-125.7z"/></g><path d="M1715.2 562.7v-77.4c0-55.7-36.7-103.2-87-119.6-50.4 16.4-87 63.9-87 119.6v77.4c0 55.7 36.7 103.2 87 119.6 50.4-16.4 87-63.9 87-119.6z" class="b"/><path d="M1532.4 1140.8c90 0 163.7-73.6 163.7-163.7v-94.3c0-42.9-35.1-78.1-78.1-78.1h-171.1c-42.9 0-78.1 35.1-78.1 78.1v94.3c0 90 73.6 163.7 163.6 163.7z" class="V"/><path d="M1582.9 994c28 0 50.9-22.9 50.9-50.9v-33.8c0-9.4-7.7-17-17-17H1527c-9.4 0-17 7.7-17 17v33.8c0 28 22.9 50.9 50.9 50.9z" class="f"/><use xlink:href="#C" fill="#ccc"/><g class="V"><path d="M1380.2 1356.6c11.3 1.8 22.4-5.9 24.6-17.1l24-121.1c2.2-11.3-5.2-22-16.5-23.8l-36.1-5.9c-11.3-1.8-22.4 5.9-24.6 17.1l-24 121.1c-2.2 11.2 5.2 22 16.5 23.8zm179.4-846.2v-66h-71.7v101.8h35.9c19.7.1 35.8-16.1 35.8-35.8z"/><path d="M1715.2 423.2c0-45.6-37.3-82.8-82.8-82.8h-85.7c-45.6 0-82.8 37.3-82.8 82.8V506h251.4v-82.8z"/></g><path d="M1715.2 423.2c0-45.6-37.3-82.8-82.8-82.8h-27.7c-45.6 0-82.8 37.3-82.8 82.8V506h193.4v-82.8z" class="f"/><path d="M1758.1 506c8.3 0 15.2-6.8 15.2-15.2h0c0-8.3-6.8-15.1-15.2-15.1h-238c-8.3 0-15.2 6.8-15.2 15.1h0c0 8.3 6.8 15.2 15.2 15.2z" class="a"/><path d="M1683.5 450.3c3.7 0 6.8-3.1 6.8-6.8v-32.2c0-3.7-3.1-6.8-6.8-6.8h-85.9c-3.7 0-6.8 3.1-6.8 6.8v32.2c0 3.7 3.1 6.8 6.8 6.8z" class="c"/><path d="M1508.4 530.6c0-20.3-16.6-36.9-36.9-36.9s-36.9 16.6-36.9 36.9 16.6 36.9 36.9 36.9 36.9-16.6 36.9-36.9z" class="e"/><path d="M1593.3 627.1h40.3c7.6 0 13.8-6.2 13.8-13.8v-13.8h-54.1c3.7 3.5 6 8.4 6 13.8h0c0 5.4-2.3 10.4-6 13.8zm-233.6 298.6l105.5-166c18.5-29.1 9.8-67.7-19.3-86.2s-67.7-9.8-86.2 19.3l-105.5 166c-18.5 29.1-9.8 67.7 19.3 86.2 29.1 18.4 67.7 9.8 86.2-19.3z" class="W"/><use xlink:href="#B" x="-179" class="V"/><use xlink:href="#C" x="-179" fill="#ccc"/><path d="M1940.2 822.3c0-43.2-35.2-78.4-78.4-78.4s-78.4 35.2-78.4 78.4 35.2 78.4 78.4 78.4c43.2.1 78.4-35.2 78.4-78.4z" class="b"/><path d="M1689.1 1072.2c7.2 0 13.1-5.9 13.1-13.1v-25c0-7.2-5.9-13.1-13.1-13.1h-250c-7.2 0-13.1 5.9-13.1 13.1v25c0 7.2 5.9 13.1 13.1 13.1z" class="f"/><path d="M1449.8 1133.7c34.1 0 61.9-27.9 61.9-61.9V1036c0-14.4-11.8-26.1-26.1-26.1h-144.9c-14.4 0-26.1 11.8-26.1 26.1v43.6c0 29.7 24.3 54.1 54.1 54.1z" fill="#4e637a"/><path d="M1600.1 1073.4c9 0 16.3-7.3 16.3-16.3v-21.4c0-9-7.3-16.3-16.3-16.3H1548c-9 0-16.3 7.3-16.3 16.3v21.4c0 9 7.3 16.3 16.3 16.3z" class="d"/><path d="M1903.9 946.7c0-19.5-15.9-35.4-35.4-35.4s-35.4 15.9-35.4 35.4 15.9 35.4 35.4 35.4 35.4-15.9 35.4-35.4z" class="Z"/><path d="M1522.4 1044.2c0-14.5-5.9-27.6-15.4-37.1s-22.6-15.4-37.1-15.4h-54.7c-14.5 0-27.6 5.9-37.1 15.4s-15.4 22.6-15.4 37.1v95.7h159.7zm-36.4 59.4h-87v-59.4c0-4.4 1.8-8.5 4.8-11.4 2.9-2.9 7-4.8 11.4-4.8h54.7c4.4 0 8.5 1.8 11.4 4.8 2.9 2.9 4.8 7 4.8 11.4v59.4z" fill="#c75454"/><path d="M1574.6 1295.5c20.9 0 38-17.1 38-38v-131.7c0-20.9-17.1-38-38-38H1296c-20.9 0-38 17.1-38 38v131.7c0 20.9 17.1 38 38 38z" class="c"/><g fill="#c75454"><path d="M1574.6 1295.5c20.9 0 38-17.1 38-38v-131.6c0-20.9-17.1-38-38-38h-50.1c-20.9 0-38 17.1-38 38v131.6c0 20.9 17.1 38 38 38z"/><path d="M1258.9 1161.6h352.9v15.3h-352.9z"/></g><g fill="#ccc"><use xlink:href="#D"/><use xlink:href="#D" x="107.9"/></g><path d="M1431.6 1034.9c25.9-22.7 28.5-62 5.9-87.9l-83.6-95.8c-22.7-25.9-62-28.5-87.9-5.9-25.9 22.7-28.5 62-5.9 87.9l83.6 95.8c22.7 25.9 62 28.6 87.9 5.9z" class="e"/><path d="M1489.4 991.6c0-43.2-35.2-78.4-78.4-78.4s-78.4 35.2-78.4 78.4 35.2 78.4 78.4 78.4c43.1 0 78.4-35.2 78.4-78.4z" class="b"/></g><path d="M2.646 2.646h211.667v158.75H2.646zM282.459 191.32h211.667v158.75H282.459z" opacity=".15"/><defs ><path id="B" d="M1676 855.1V680.6c0-18-14.7-32.7-32.7-32.7s-32.7 14.7-32.7 32.7v174.6c0 18 14.7 32.7 32.7 32.7 17.9 0 32.7-14.8 32.7-32.8z"/><path id="C" d="M1663.3 837.9c8.9 0 16.2-7.3 16.2-16.2v-15.3c0-8.9-7.3-16.2-16.2-16.2h-40.2c-8.9 0-16.2 7.3-16.2 16.2v15.3c0 8.9 7.3 16.2 16.2 16.2z"/><path id="D" d="M1317.3 1184.4a8.71 8.71 0 0 0 8.7-8.7v-16.3a8.71 8.71 0 0 0-8.7-8.7h-36.9a8.71 8.71 0 0 0-8.7 8.7v16.3a8.71 8.71 0 0 0 8.7 8.7z"/></defs></svg>