<?xml version="1.0" encoding="UTF-8" standalone="no"?>
<!-- Created with Inkscape (http://www.inkscape.org/) -->

<svg
   width="165.10001mm"
   height="82.125084mm"
   viewBox="0 0 165.10001 82.125084"
   version="1.1"
   id="svg5"
   xmlns="http://www.w3.org/2000/svg"
   xmlns:svg="http://www.w3.org/2000/svg">
  <defs
     id="defs2" />
  <g
     id="layer1"
     transform="translate(-20.212548,-36.956628)">
    <g
       id="g1281">
      <path
         d="m 143.77296,76.592269 c -12.33491,-1.9685 -26.38161,-3.018896 -41.01042,-3.018896 -13.387941,0 -26.286378,0.878417 -37.830122,2.534708 0.0027,-0.177284 0.0053,-0.354541 0.01318,-0.531812 a 39.422765,39.422765 0 0 1 78.822052,0.481542 c 0.003,0.179916 0.005,0.357187 0.005,0.534458 z"
         fill="#b177fb"
         id="path9"
         style="stroke-width:0.264583" />
      <g
         opacity="0.1"
         id="g13"
         transform="matrix(0.26458333,0,0,0.26458333,20.212543,36.95663)">
        <path
           d="M 601.28454,82.14432 A 149.04745,149.04745 0 0 0 432.35339,225.373 c -0.0303,0.67 -0.04,1.34 -0.0498,2.01 12.96191,-1.85981 26.38476,-3.4535 40.165,-4.78431 A 149.02172,149.02172 0 0 1 601.28454,82.14432 Z"
           transform="translate(-263.73425,-80.80301)"
           fill="#ffffff"
           id="path11" />
      </g>
      <path
         d="m 161.01855,79.719644 a 158.78201,158.78201 0 0 0 -17.25089,-3.661833 249.59836,249.59836 0 0 0 -28.77072,-2.764896 c -4.01384,-0.164042 -8.10157,-0.248708 -12.2344,-0.248708 -3.275508,0 -6.524663,0.05292 -9.728727,0.15875 a 257.51628,257.51628 0 0 0 -28.088206,2.373312 165.17732,165.17732 0 0 0 -20.439062,4.143375 c -15.665979,4.331229 -24.293997,10.136187 -24.293997,16.343312 0,6.207124 8.628028,12.012084 24.293997,16.343314 11.017284,3.048 24.600958,5.12498 39.401858,6.07748 6.109187,0.39687 12.424833,0.59796 18.854147,0.59796 6.45051,0 12.78733,-0.20373 18.91512,-0.60061 13.46985,-0.87048 25.93175,-2.67229 36.36161,-5.29166 0.0556,-0.0159 0.10852,-0.0291 0.16407,-0.0423 0.70383,-0.17462 1.39694,-0.35719 2.0823,-0.53975 0.24598,-0.0688 0.48938,-0.13494 0.7329,-0.20108 a 0.25887627,0.25887627 0 0 1 0.0422,-0.0132 c 0.23293,-0.0635 0.46302,-0.12965 0.69324,-0.19315 0.46044,-0.13229 0.91546,-0.26193 1.36258,-0.39687 0.0212,-0.005 0.0397,-0.0106 0.0583,-0.0159 0.38887,-0.11641 0.76998,-0.23283 1.14825,-0.34925 0.30955,-0.0979 0.6165,-0.19314 0.92075,-0.29104 q 0.33351,-0.10715 0.65888,-0.21431 c 0.15878,-0.0529 0.31484,-0.10319 0.46831,-0.1561 0.20902,-0.0688 0.41807,-0.14023 0.62438,-0.21167 0.0873,-0.0291 0.17467,-0.0582 0.25929,-0.09 0.19844,-0.0662 0.39159,-0.13494 0.58473,-0.20373 0.20902,-0.0741 0.41807,-0.15081 0.62439,-0.22489 0.17208,-0.0609 0.34403,-0.12436 0.51327,-0.18786 0.14288,-0.0556 0.28319,-0.10848 0.42607,-0.16139 0.38887,-0.14553 0.76998,-0.29635 1.14567,-0.4445 0.18785,-0.0767 0.37569,-0.15082 0.56082,-0.22755 0.18255,-0.0741 0.3678,-0.15081 0.54777,-0.22754 q 0.44435,-0.18655 0.87307,-0.37306 c 0.13758,-0.0635 0.27789,-0.12435 0.41277,-0.18255 0.10322,-0.0476 0.20373,-0.0926 0.30696,-0.14023 0.074,-0.0318 0.14818,-0.0661 0.21962,-0.10054 0.26717,-0.12171 0.53175,-0.24606 0.79104,-0.37041 q 1.49235,-0.71438 2.786,-1.4605 c 5.41078,-3.09828 8.26565,-6.535213 8.26565,-10.107088 -2e-5,-6.207141 -8.62804,-12.012099 -24.29401,-16.343328 z m -0.14288,32.178626 c -11.03046,3.05064 -24.65121,5.12762 -39.49177,6.07219 -6.03516,0.38364 -12.27393,0.58208 -18.62135,0.58208 -6.326224,0 -12.543933,-0.19579 -18.560491,-0.57944 C 69.337719,117.03119 55.69579,114.95421 44.649436,111.89827 29.232165,107.63319 20.74172,102.01079 20.74172,96.062956 a 6.381152,6.381152 0 0 1 0.195856,-1.558396 c 1.349271,-5.36575 9.649279,-10.387541 23.71186,-14.276916 a 165.04868,165.04868 0 0 1 20.282997,-4.119563 258.24051,258.24051 0 0 1 28.25745,-2.381249 q 4.730911,-0.154782 9.572667,-0.153459 c 4.07727,0 8.10946,0.08202 12.07291,0.240771 a 249.07005,249.07005 0 0 1 28.93751,2.778125 158.44772,158.44772 0 0 1 17.10269,3.635375 c 14.06,3.889375 22.35729,8.908521 23.70928,14.271625 a 6.3029385,6.3029385 0 0 1 0.19843,1.563687 c 0,5.947834 -8.49043,11.570234 -23.90771,15.835314 z"
         fill="#3f3d56"
         id="path15"
         style="stroke-width:0.264583" />
      <path
         d="m 185.16178,96.303727 c 0,3.534847 -2.91314,6.879163 -8.11488,9.866313 -0.86507,0.49742 -1.7964,0.98425 -2.78601,1.4605 -0.25929,0.12435 -0.52387,0.24871 -0.79104,0.37042 -0.0714,0.0344 -0.1456,0.0688 -0.21962,0.10054 -0.10323,0.0476 -0.20373,0.0926 -0.30696,0.14023 -0.13487,0.0582 -0.27517,0.11906 -0.41277,0.18254 q -0.42865,0.18653 -0.87307,0.37307 c -0.17996,0.0767 -0.36522,0.15345 -0.54777,0.22754 -0.18513,0.0767 -0.37297,0.15081 -0.56082,0.22754 -0.37568,0.14817 -0.7568,0.29898 -1.14566,0.4445 -0.14288,0.0529 -0.28319,0.10583 -0.42607,0.1614 -0.16925,0.0635 -0.3412,0.127 -0.51328,0.18785 -0.20632,0.0741 -0.41535,0.15081 -0.62438,0.2249 -0.19315,0.0688 -0.38629,0.13758 -0.58473,0.20372 -0.0846,0.0318 -0.17195,0.0609 -0.25929,0.09 -0.20632,0.0714 -0.41535,0.14288 -0.62438,0.21167 -0.15348,0.0529 -0.30954,0.10319 -0.46832,0.1561 q -0.32555,0.10714 -0.65887,0.21432 c -0.30425,0.0979 -0.61119,0.19314 -0.92075,0.29104 -0.37827,0.11641 -0.75938,0.23283 -1.14825,0.34925 -0.0186,0.005 -0.0371,0.0106 -0.0583,0.0159 -0.44714,0.13494 -0.90215,0.26459 -1.36259,0.39688 -0.23021,0.0635 -0.4603,0.12964 -0.69323,0.19314 a 0.25887627,0.25887627 0 0 0 -0.0422,0.0132 c -0.24352,0.0661 -0.48692,0.13229 -0.73289,0.20109 -0.68265,0.17991 -1.37848,0.36248 -2.08231,0.53975 -0.0556,0.0132 -0.10852,0.0264 -0.16407,0.0423 -10.14679,2.53471 -22.59539,4.3815 -36.3722,5.27315 -6.03516,0.38893 -12.32702,0.59531 -18.7907,0.59531 -6.521957,0 -12.86679,-0.20902 -18.949495,-0.6059 C 47.615388,116.08396 20.59094,107.06696 20.59094,96.303711 a 6.6335512,6.6335512 0 0 1 0.296235,-1.931458 c 0.0159,0.04498 0.03178,0.08731 0.05039,0.132292 3.775479,9.916585 30.569958,17.930815 65.336191,19.886085 5.326031,0.30161 10.842625,0.45773 16.488784,0.45773 5.67007,0 11.20771,-0.15875 16.55493,-0.46038 34.73715,-1.96321 61.50516,-9.98008 65.26746,-19.888727 q 0.0953,-0.238141 0.16666,-0.47625 a 6.6951515,6.6951515 0 0 1 0.41019,2.280724 z"
         fill="#3f3d56"
         id="path17"
         style="stroke-width:0.264583" />
      <path
         d="m 44.466714,93.455752 c -4.403381,0 -9.083325,-0.947359 -9.083325,-2.703195 0,-1.755836 4.67995,-2.703195 9.083325,-2.703195 4.403376,0 9.083329,0.947359 9.083329,2.703195 0,1.755836 -4.679948,2.703195 -9.083329,2.703195 z m 0,-4.877223 c -5.041106,0 -8.554159,1.145796 -8.554159,2.174028 0,1.028232 3.513059,2.174028 8.554159,2.174028 5.041101,0 8.554162,-1.145796 8.554162,-2.174028 0,-1.028232 -3.513061,-2.174031 -8.554162,-2.174031 z"
         fill="#3f3d56"
         id="path19"
         style="stroke-width:0.264583" />
      <path
         d="m 63.252099,105.89117 c -4.403349,0 -9.083294,-0.94736 -9.083294,-2.7032 0,-1.75583 4.67995,-2.70319 9.083294,-2.70319 4.403413,0 9.08336,0.94736 9.08336,2.70319 0,1.75584 -4.679947,2.7032 -9.08336,2.7032 z m 0,-4.87722 c -5.041069,0 -8.554127,1.14579 -8.554127,2.17402 0,1.02824 3.513058,2.17403 8.554127,2.17403 5.041069,0 8.554193,-1.14579 8.554193,-2.17403 0,-1.02823 -3.513092,-2.17403 -8.554193,-2.17403 z"
         fill="#3f3d56"
         id="path21"
         style="stroke-width:0.264583" />
      <path
         d="m 160.88335,93.455752 c -4.40335,0 -9.0833,-0.947359 -9.0833,-2.703195 0,-1.755836 4.67995,-2.703195 9.0833,-2.703195 4.40341,0 9.08336,0.947359 9.08336,2.703195 0,1.755836 -4.67995,2.703195 -9.08336,2.703195 z m 0,-4.877223 c -5.04111,0 -8.55413,1.145796 -8.55413,2.174028 0,1.028232 3.51303,2.174028 8.55413,2.174028 5.0411,0 8.55419,-1.145796 8.55419,-2.174028 0,-1.028232 -3.51309,-2.174031 -8.55419,-2.174031 z"
         fill="#3f3d56"
         id="path23"
         style="stroke-width:0.264583" />
      <path
         d="m 142.09793,105.89117 c -4.40335,0 -9.08329,-0.94736 -9.08329,-2.7032 0,-1.75583 4.67995,-2.70319 9.08329,-2.70319 4.40341,0 9.08336,0.94736 9.08336,2.70319 0,1.75584 -4.67995,2.7032 -9.08336,2.7032 z m 0,-4.87722 c -5.0411,0 -8.55413,1.14579 -8.55413,2.17402 0,1.02824 3.51303,2.17403 8.55413,2.17403 5.0411,0 8.55419,-1.14579 8.55419,-2.17403 0,-1.02823 -3.51309,-2.17403 -8.55419,-2.17403 z"
         fill="#3f3d56"
         id="path25"
         style="stroke-width:0.264583" />
      <path
         d="m 102.67502,111.712 c -4.403354,0 -9.083299,-0.94736 -9.083299,-2.70319 0,-1.75584 4.67995,-2.7032 9.083299,-2.7032 4.40341,0 9.08336,0.94736 9.08336,2.7032 0,1.75583 -4.67995,2.70319 -9.08336,2.70319 z m 0,-4.87722 c -5.041111,0 -8.554132,1.1458 -8.554132,2.17403 0,1.02823 3.513026,2.17403 8.554132,2.17403 5.0411,0 8.55419,-1.1458 8.55419,-2.17403 0,-1.02823 -3.51309,-2.17403 -8.55419,-2.17403 z"
         fill="#3f3d56"
         id="path27"
         style="stroke-width:0.264583" />
    </g>
  </g>
</svg>
